<?xml version="1.0" encoding="utf-8" standalone="no"?>
<!DOCTYPE svg PUBLIC "-//W3C//DTD SVG 1.1//EN"
  "http://www.w3.org/Graphics/SVG/1.1/DTD/svg11.dtd">
<svg xmlns:xlink="http://www.w3.org/1999/xlink" width="518.4pt" height="172.8pt" viewBox="0 0 518.4 172.8" xmlns="http://www.w3.org/2000/svg" version="1.1">
 <metadata>
  <rdf:RDF xmlns:dc="http://purl.org/dc/elements/1.1/" xmlns:cc="http://creativecommons.org/ns#" xmlns:rdf="http://www.w3.org/1999/02/22-rdf-syntax-ns#">
   <cc:Work>
    <dc:type rdf:resource="http://purl.org/dc/dcmitype/StillImage"/>
    <dc:date>2026-03-26T08:11:46.816021</dc:date>
    <dc:format>image/svg+xml</dc:format>
    <dc:creator>
     <cc:Agent>
      <dc:title>Matplotlib v3.10.8, https://matplotlib.org/</dc:title>
     </cc:Agent>
    </dc:creator>
   </cc:Work>
  </rdf:RDF>
 </metadata>
 <defs>
  <style type="text/css">*{stroke-linejoin: round; stroke-linecap: butt}</style>
 </defs>
 <g id="figure_1">
  <g id="patch_1">
   <path d="M 0 172.8 
L 518.4 172.8 
L 518.4 0 
L 0 0 
L 0 172.8 
z
" style="fill: none"/>
  </g>
  <g id="axes_1">
   <g id="patch_2">
    <path d="M 406.08 103.68 
C 410.66271 103.68 415.05834 101.85927 418.298805 98.618805 
C 421.53927 95.37834 423.36 90.98271 423.36 86.4 
C 423.36 81.81729 421.53927 77.42166 418.298805 74.181195 
C 415.05834 70.94073 410.66271 69.12 406.08 69.12 
C 401.49729 69.12 397.10166 70.94073 393.861195 74.181195 
C 390.62073 77.42166 388.8 81.81729 388.8 86.4 
C 388.8 90.98271 390.62073 95.37834 393.861195 98.618805 
C 397.10166 101.85927 401.49729 103.68 406.08 103.68 
z
" clip-path="url(#pab283b9958)" style="fill-opacity: 0.5; stroke: #000000; stroke-width: 1.5; stroke-linejoin: miter"/>
   </g>
   <g id="matplotlib.axis_1"/>
   <g id="matplotlib.axis_2"/>
   <g id="text_1">
    <!-- $\int {\; \operatorname{d}\! \Pi_X}$ -->
    <g transform="translate(5.28 94.44) scale(0.24 -0.24)">
     <defs>
      <path id="Cmex10-5a" d="M 678 -13894 
Q 838 -14053 1069 -14053 
Q 1300 -14053 1490 -13736 
Q 1681 -13419 1825 -12944 
Q 1969 -12469 2036 -12148 
Q 2103 -11828 2203 -11322 
Q 2294 -10850 2378 -10375 
Q 2463 -9900 2552 -9364 
Q 2641 -8828 2739 -8276 
Q 2838 -7725 2963 -7103 
Q 3131 -6284 3204 -5932 
Q 3278 -5581 3428 -4917 
Q 3578 -4253 3626 -4042 
Q 3675 -3831 3903 -2888 
L 3988 -2553 
Q 4131 -1991 4209 -1702 
Q 4288 -1413 4452 -995 
Q 4616 -578 4837 -289 
Q 5059 0 5325 0 
Q 5513 0 5673 -84 
Q 5834 -169 5934 -316 
Q 6034 -463 6034 -653 
Q 6034 -791 5943 -881 
Q 5853 -972 5716 -972 
Q 5575 -972 5481 -881 
Q 5388 -791 5388 -653 
Q 5388 -513 5481 -419 
Q 5575 -325 5716 -325 
Q 5550 -166 5331 -166 
Q 5213 -166 5070 -512 
Q 4928 -859 4808 -1329 
Q 4688 -1800 4623 -2114 
Q 4559 -2428 4469 -2900 
Q 4363 -3434 4292 -3831 
Q 4222 -4228 4122 -4812 
Q 4022 -5397 3926 -5925 
Q 3831 -6453 3700 -7116 
Q 3616 -7534 3456 -8292 
Q 3297 -9050 3245 -9278 
Q 3194 -9506 2983 -10393 
Q 2772 -11281 2759 -11334 
L 2681 -11628 
Q 2516 -12306 2348 -12820 
Q 2181 -13334 1857 -13778 
Q 1534 -14222 1069 -14222 
Q 791 -14222 575 -14034 
Q 359 -13847 359 -13575 
Q 359 -13434 453 -13340 
Q 547 -13247 684 -13247 
Q 775 -13247 848 -13290 
Q 922 -13334 964 -13409 
Q 1006 -13484 1006 -13575 
Q 1006 -13713 912 -13803 
Q 819 -13894 678 -13894 
z
" transform="scale(0.015625)"/>
      <path id="Cmr10-64" d="M 1563 -72 
Q 1184 -72 871 133 
Q 559 338 386 672 
Q 213 1006 213 1381 
Q 213 1769 402 2101 
Q 591 2434 916 2631 
Q 1241 2828 1631 2828 
Q 1866 2828 2075 2729 
Q 2284 2631 2438 2456 
L 2438 3788 
Q 2438 3959 2386 4036 
Q 2334 4113 2239 4130 
Q 2144 4147 1941 4147 
L 1941 4372 
L 2888 4441 
L 2888 581 
Q 2888 413 2939 336 
Q 2991 259 3086 242 
Q 3181 225 3384 225 
L 3384 0 
L 2419 -72 
L 2419 331 
Q 2253 141 2025 34 
Q 1797 -72 1563 -72 
z
M 909 556 
Q 1019 347 1201 222 
Q 1384 97 1600 97 
Q 1866 97 2087 250 
Q 2309 403 2419 647 
L 2419 2181 
Q 2344 2322 2230 2433 
Q 2116 2544 1973 2603 
Q 1831 2663 1672 2663 
Q 1338 2663 1134 2473 
Q 931 2284 850 1990 
Q 769 1697 769 1375 
Q 769 1119 795 928 
Q 822 738 909 556 
z
" transform="scale(0.015625)"/>
      <path id="Cmr10-a6" d="M 197 0 
L 197 225 
Q 856 225 856 428 
L 856 3944 
Q 856 4147 197 4147 
L 197 4372 
L 4594 4372 
L 4594 4147 
Q 3938 4147 3938 3944 
L 3938 428 
Q 3938 225 4594 225 
L 4594 0 
L 2681 0 
L 2681 225 
Q 3341 225 3341 428 
L 3341 4147 
L 1453 4147 
L 1453 428 
Q 1453 225 2113 225 
L 2113 0 
L 197 0 
z
" transform="scale(0.015625)"/>
      <path id="Cmmi10-58" d="M 231 0 
Q 166 0 166 84 
Q 169 100 180 140 
Q 191 181 208 203 
Q 225 225 256 225 
Q 838 225 1253 659 
Q 1259 666 1267 669 
Q 1275 672 1275 672 
L 2675 2181 
L 1913 4019 
Q 1847 4103 1700 4125 
Q 1553 4147 1356 4147 
Q 1294 4147 1294 4231 
Q 1316 4313 1328 4342 
Q 1341 4372 1403 4372 
L 3003 4372 
Q 3066 4372 3066 4288 
Q 3063 4272 3052 4231 
Q 3041 4191 3023 4169 
Q 3006 4147 2975 4147 
Q 2856 4147 2729 4108 
Q 2603 4069 2553 3981 
L 3103 2656 
L 4153 3781 
Q 4163 3803 4197 3858 
Q 4231 3913 4231 3963 
Q 4231 4056 4150 4101 
Q 4069 4147 3956 4147 
Q 3891 4147 3891 4231 
Q 3913 4313 3925 4342 
Q 3938 4372 4000 4372 
L 5388 4372 
Q 5422 4372 5437 4347 
Q 5453 4322 5453 4288 
Q 5450 4272 5440 4234 
Q 5431 4197 5415 4172 
Q 5400 4147 5369 4147 
Q 5072 4147 4823 4039 
Q 4575 3931 4366 3713 
Q 4363 3709 4358 3707 
Q 4353 3706 4347 3700 
L 3188 2450 
L 4063 353 
Q 4166 225 4622 225 
Q 4684 225 4684 141 
Q 4663 56 4648 28 
Q 4634 0 4575 0 
L 2975 0 
Q 2913 0 2913 84 
Q 2916 100 2925 139 
Q 2934 178 2951 201 
Q 2969 225 2994 225 
Q 3119 225 3247 264 
Q 3375 303 3425 391 
L 2759 1984 
L 1466 588 
Q 1456 566 1422 512 
Q 1388 459 1388 409 
Q 1388 316 1475 270 
Q 1563 225 1663 225 
Q 1728 225 1728 141 
Q 1706 50 1693 25 
Q 1681 0 1619 0 
L 231 0 
z
" transform="scale(0.015625)"/>
     </defs>
     <use xlink:href="#Cmex10-5a" transform="translate(0 145)"/>
     <use xlink:href="#Cmr10-64" transform="translate(79.904709 0.557292)"/>
     <use xlink:href="#Cmr10-a6" transform="translate(135.422287 0.557292)"/>
     <use xlink:href="#Cmmi10-58" transform="translate(214.886428 -16.448958) scale(0.7)"/>
    </g>
   </g>
   <g id="text_2">
    <!-- $e^{\!\!\!-}$ -->
    <g transform="translate(90.72 38.24) scale(0.32 -0.32)">
     <defs>
      <path id="Cmmi10-65" d="M 1288 -72 
Q 981 -72 751 87 
Q 522 247 401 517 
Q 281 788 281 1088 
Q 281 1544 511 1945 
Q 741 2347 1134 2587 
Q 1528 2828 1978 2828 
Q 2253 2828 2458 2686 
Q 2663 2544 2663 2278 
Q 2663 1909 2369 1729 
Q 2075 1550 1706 1508 
Q 1338 1466 891 1466 
L 872 1466 
Q 769 1084 769 813 
Q 769 528 900 312 
Q 1031 97 1300 97 
Q 1681 97 2032 272 
Q 2384 447 2606 756 
Q 2625 775 2656 775 
Q 2688 775 2720 739 
Q 2753 703 2753 672 
Q 2753 647 2741 634 
Q 2506 306 2109 117 
Q 1713 -72 1288 -72 
z
M 909 1631 
Q 1281 1631 1597 1665 
Q 1913 1700 2169 1839 
Q 2425 1978 2425 2272 
Q 2425 2391 2359 2480 
Q 2294 2569 2189 2616 
Q 2084 2663 1972 2663 
Q 1700 2663 1483 2516 
Q 1266 2369 1125 2133 
Q 984 1897 909 1631 
z
" transform="scale(0.015625)"/>
      <path id="Cmsy10-a1" d="M 653 1472 
Q 600 1472 565 1512 
Q 531 1553 531 1600 
Q 531 1647 565 1687 
Q 600 1728 653 1728 
L 4325 1728 
Q 4375 1728 4408 1687 
Q 4441 1647 4441 1600 
Q 4441 1553 4408 1512 
Q 4375 1472 4325 1472 
L 653 1472 
z
" transform="scale(0.015625)"/>
     </defs>
     <use xlink:href="#Cmmi10-65" transform="translate(0 0.835938)"/>
     <use xlink:href="#Cmsy10-a1" transform="translate(34.350518 39.1) scale(0.7)"/>
    </g>
   </g>
   <g id="text_3">
    <!-- $e^{\!\!\!+}$ -->
    <g transform="translate(90.72 150.56) scale(0.32 -0.32)">
     <defs>
      <path id="Cmr10-2b" d="M 481 1472 
Q 428 1472 393 1512 
Q 359 1553 359 1600 
Q 359 1647 393 1687 
Q 428 1728 481 1728 
L 2363 1728 
L 2363 3616 
Q 2363 3666 2400 3698 
Q 2438 3731 2491 3731 
Q 2538 3731 2578 3698 
Q 2619 3666 2619 3616 
L 2619 1728 
L 4500 1728 
Q 4547 1728 4581 1687 
Q 4616 1647 4616 1600 
Q 4616 1553 4581 1512 
Q 4547 1472 4500 1472 
L 2619 1472 
L 2619 -416 
Q 2619 -466 2578 -498 
Q 2538 -531 2491 -531 
Q 2438 -531 2400 -498 
Q 2363 -466 2363 -416 
L 2363 1472 
L 481 1472 
z
" transform="scale(0.015625)"/>
     </defs>
     <use xlink:href="#Cmmi10-65" transform="translate(0 0.928125)"/>
     <use xlink:href="#Cmr10-2b" transform="translate(34.350518 39.192187) scale(0.7)"/>
    </g>
   </g>
   <g id="text_4">
    <!-- $2$ -->
    <g transform="translate(226.78 23.78) scale(0.26 -0.26)">
     <defs>
      <path id="Cmr10-32" d="M 319 0 
L 319 172 
Q 319 188 331 206 
L 1325 1306 
Q 1550 1550 1690 1715 
Q 1831 1881 1968 2097 
Q 2106 2313 2186 2536 
Q 2266 2759 2266 3009 
Q 2266 3272 2169 3511 
Q 2072 3750 1880 3894 
Q 1688 4038 1416 4038 
Q 1138 4038 916 3870 
Q 694 3703 603 3438 
Q 628 3444 672 3444 
Q 816 3444 917 3347 
Q 1019 3250 1019 3097 
Q 1019 2950 917 2848 
Q 816 2747 672 2747 
Q 522 2747 420 2851 
Q 319 2956 319 3097 
Q 319 3338 409 3548 
Q 500 3759 670 3923 
Q 841 4088 1055 4175 
Q 1269 4263 1509 4263 
Q 1875 4263 2190 4108 
Q 2506 3953 2690 3670 
Q 2875 3388 2875 3009 
Q 2875 2731 2753 2481 
Q 2631 2231 2440 2026 
Q 2250 1822 1953 1562 
Q 1656 1303 1563 1216 
L 838 519 
L 1453 519 
Q 1906 519 2211 526 
Q 2516 534 2534 550 
Q 2609 631 2688 1141 
L 2875 1141 
L 2694 0 
L 319 0 
z
" transform="scale(0.015625)"/>
     </defs>
     <use xlink:href="#Cmr10-32" transform="translate(0 0.390625)"/>
    </g>
   </g>
   <g id="text_5">
    <!-- $X$ -->
    <g transform="translate(183.61 49.7) scale(0.26 -0.26)">
     <use xlink:href="#Cmmi10-58" transform="translate(0 0.6875)"/>
    </g>
   </g>
   <g id="text_6">
    <!-- $=2\operatorname{Im}$ -->
    <g transform="translate(224.91 92.9) scale(0.26 -0.26)">
     <defs>
      <path id="Cmr10-3d" d="M 481 850 
Q 428 850 393 890 
Q 359 931 359 978 
Q 359 1031 393 1068 
Q 428 1106 481 1106 
L 4500 1106 
Q 4547 1106 4581 1068 
Q 4616 1031 4616 978 
Q 4616 931 4581 890 
Q 4547 850 4500 850 
L 481 850 
z
M 481 2094 
Q 428 2094 393 2131 
Q 359 2169 359 2222 
Q 359 2269 393 2309 
Q 428 2350 481 2350 
L 4500 2350 
Q 4547 2350 4581 2309 
Q 4616 2269 4616 2222 
Q 4616 2169 4581 2131 
Q 4547 2094 4500 2094 
L 481 2094 
z
" transform="scale(0.015625)"/>
      <path id="Cmr10-49" d="M 166 0 
L 166 225 
Q 856 225 856 428 
L 856 3944 
Q 856 4147 166 4147 
L 166 4372 
L 2144 4372 
L 2144 4147 
Q 1453 4147 1453 3944 
L 1453 428 
Q 1453 225 2144 225 
L 2144 0 
L 166 0 
z
" transform="scale(0.015625)"/>
      <path id="Cmr10-6d" d="M 191 0 
L 191 225 
Q 409 225 550 259 
Q 691 294 691 428 
L 691 2175 
Q 691 2347 639 2423 
Q 588 2500 491 2517 
Q 394 2534 191 2534 
L 191 2759 
L 1119 2828 
L 1119 2203 
Q 1247 2478 1498 2653 
Q 1750 2828 2047 2828 
Q 2784 2828 2913 2228 
Q 3041 2497 3287 2662 
Q 3534 2828 3828 2828 
Q 4119 2828 4317 2734 
Q 4516 2641 4616 2448 
Q 4716 2256 4716 1966 
L 4716 428 
Q 4716 294 4858 259 
Q 5000 225 5216 225 
L 5216 0 
L 3750 0 
L 3750 225 
Q 3969 225 4109 259 
Q 4250 294 4250 428 
L 4250 1947 
Q 4250 2269 4159 2466 
Q 4069 2663 3788 2663 
Q 3419 2663 3178 2366 
Q 2938 2069 2938 1691 
L 2938 428 
Q 2938 294 3078 259 
Q 3219 225 3438 225 
L 3438 0 
L 1972 0 
L 1972 225 
Q 2191 225 2331 259 
Q 2472 294 2472 428 
L 2472 1947 
Q 2472 2259 2381 2461 
Q 2291 2663 2009 2663 
Q 1638 2663 1398 2366 
Q 1159 2069 1159 1691 
L 1159 428 
Q 1159 294 1300 259 
Q 1441 225 1656 225 
L 1656 0 
L 191 0 
z
" transform="scale(0.015625)"/>
     </defs>
     <use xlink:href="#Cmr10-3d" transform="translate(17.558594 0.6875)"/>
     <use xlink:href="#Cmr10-32" transform="translate(112.802734 0.6875)"/>
     <use xlink:href="#Cmr10-49" transform="translate(162.802734 0.6875)"/>
     <use xlink:href="#Cmr10-6d" transform="translate(198.886719 0.6875)"/>
    </g>
   </g>
   <g id="text_7">
    <!-- $e^{\!\!\!-}$ -->
    <g transform="translate(306.72 38.24) scale(0.32 -0.32)">
     <use xlink:href="#Cmmi10-65" transform="translate(0 0.835938)"/>
     <use xlink:href="#Cmsy10-a1" transform="translate(34.350518 39.1) scale(0.7)"/>
    </g>
   </g>
   <g id="text_8">
    <!-- $e^{\!\!\!+}$ -->
    <g transform="translate(306.72 150.56) scale(0.32 -0.32)">
     <use xlink:href="#Cmmi10-65" transform="translate(0 0.928125)"/>
     <use xlink:href="#Cmr10-2b" transform="translate(34.350518 39.192187) scale(0.7)"/>
    </g>
   </g>
   <g id="text_9">
    <!-- $e^{\!\!\!-}$ -->
    <g transform="translate(470.88 38.24) scale(0.32 -0.32)">
     <use xlink:href="#Cmmi10-65" transform="translate(0 0.835938)"/>
     <use xlink:href="#Cmsy10-a1" transform="translate(34.350518 39.1) scale(0.7)"/>
    </g>
   </g>
   <g id="text_10">
    <!-- $e^{\!\!\!+}$ -->
    <g transform="translate(470.88 150.56) scale(0.32 -0.32)">
     <use xlink:href="#Cmmi10-65" transform="translate(0 0.928125)"/>
     <use xlink:href="#Cmr10-2b" transform="translate(34.350518 39.192187) scale(0.7)"/>
    </g>
   </g>
   <g id="line2d_1">
    <path d="M 77.76 159.84 
L 77.76 12.96 
L 77.76 12.96 
" clip-path="url(#pab283b9958)" style="fill: none; stroke: #000000; stroke-width: 1.5"/>
   </g>
   <g id="line2d_2">
    <path d="M 220.32 159.84 
L 220.32 12.96 
L 220.32 12.96 
" clip-path="url(#pab283b9958)" style="fill: none; stroke: #000000; stroke-width: 1.5"/>
   </g>
   <g id="line2d_3">
    <path d="M 86.4 34.56 
L 116.64 86.4 
L 116.64 86.4 
" clip-path="url(#pab283b9958)" style="fill: none; stroke: #000000; stroke-width: 2"/>
   </g>
   <g id="line2d_4">
    <path d="M 116.64 86.4 
L 86.4 138.24 
L 86.4 138.24 
" clip-path="url(#pab283b9958)" style="fill: none; stroke: #000000; stroke-width: 2"/>
   </g>
   <g id="line2d_5">
    <path d="M 116.64 86.4 
L 118.458947 80.600153 
L 119.52 77.95622 
L 120.277895 76.614873 
L 120.884211 75.930477 
L 121.338947 75.660955 
L 121.793684 75.606778 
L 122.248421 75.769035 
L 122.703158 76.144471 
L 123.309474 76.963053 
L 124.067368 78.454182 
L 124.976842 80.816951 
L 126.341053 85.127429 
L 128.614737 92.413409 
L 129.524211 94.682383 
L 130.282105 96.074443 
L 130.888421 96.803983 
L 131.494737 97.163113 
L 131.949474 97.181175 
L 132.404211 96.983046 
L 132.858947 96.572698 
L 133.465263 95.710267 
L 134.223158 94.170839 
L 135.132632 91.763137 
L 136.496842 87.41891 
L 138.618947 80.600153 
L 139.68 77.95622 
L 140.437895 76.614873 
L 141.044211 75.930477 
L 141.498947 75.660955 
L 141.953684 75.606778 
L 142.408421 75.769035 
L 142.863158 76.144471 
L 143.469474 76.963053 
L 144.227368 78.454182 
L 145.136842 80.816951 
L 146.501053 85.127429 
L 148.774737 92.413409 
L 149.684211 94.682383 
L 150.442105 96.074443 
L 151.048421 96.803983 
L 151.654737 97.163113 
L 152.109474 97.181175 
L 152.564211 96.983046 
L 153.018947 96.572698 
L 153.625263 95.710267 
L 154.383158 94.170839 
L 155.292632 91.763137 
L 156.656842 87.41891 
L 158.778947 80.600153 
L 159.84 77.95622 
L 160.597895 76.614873 
L 161.204211 75.930477 
L 161.658947 75.660955 
L 162.113684 75.606778 
L 162.568421 75.769035 
L 163.023158 76.144471 
L 163.629474 76.963053 
L 164.387368 78.454182 
L 165.296842 80.816951 
L 166.661053 85.127429 
L 168.934737 92.413409 
L 169.844211 94.682383 
L 170.602105 96.074443 
L 171.208421 96.803983 
L 171.814737 97.163113 
L 172.269474 97.181175 
L 172.724211 96.983046 
L 173.178947 96.572698 
L 173.785263 95.710267 
L 174.543158 94.170839 
L 175.452632 91.763137 
L 176.816842 87.41891 
L 177.12 86.4 
L 177.12 86.4 
" clip-path="url(#pab283b9958)" style="fill: none; stroke: #000000; stroke-width: 2"/>
   </g>
   <g id="line2d_6">
    <path d="M 177.12 86.4 
L 211.68 125.28 
L 211.68 125.28 
" clip-path="url(#pab283b9958)" style="fill: none; stroke: #000000; stroke-width: 1.5"/>
   </g>
   <g id="line2d_7">
    <path d="M 177.12 86.4 
L 211.68 112.32 
L 211.68 112.32 
" clip-path="url(#pab283b9958)" style="fill: none; stroke: #000000; stroke-width: 1.5"/>
   </g>
   <g id="line2d_8">
    <path d="M 177.12 86.4 
L 211.68 99.36 
L 211.68 99.36 
" clip-path="url(#pab283b9958)" style="fill: none; stroke: #000000; stroke-width: 1.5"/>
   </g>
   <g id="line2d_9">
    <path d="M 177.12 86.4 
L 211.68 86.4 
L 211.68 86.4 
" clip-path="url(#pab283b9958)" style="fill: none; stroke: #000000; stroke-width: 1.5"/>
   </g>
   <g id="line2d_10">
    <path d="M 177.12 86.4 
L 211.68 73.44 
L 211.68 73.44 
" clip-path="url(#pab283b9958)" style="fill: none; stroke: #000000; stroke-width: 1.5"/>
   </g>
   <g id="line2d_11">
    <path d="M 177.12 86.4 
L 211.68 60.48 
L 211.68 60.48 
" clip-path="url(#pab283b9958)" style="fill: none; stroke: #000000; stroke-width: 1.5"/>
   </g>
   <g id="line2d_12">
    <path d="M 177.12 86.4 
L 211.68 47.52 
L 211.68 47.52 
" clip-path="url(#pab283b9958)" style="fill: none; stroke: #000000; stroke-width: 1.5"/>
   </g>
   <g id="line2d_13">
    <path d="M 302.4 34.56 
L 336.96 86.4 
L 336.96 86.4 
" clip-path="url(#pab283b9958)" style="fill: none; stroke: #000000; stroke-width: 2"/>
   </g>
   <g id="line2d_14">
    <path d="M 336.96 86.4 
L 302.4 138.24 
L 302.4 138.24 
" clip-path="url(#pab283b9958)" style="fill: none; stroke: #000000; stroke-width: 2"/>
   </g>
   <g id="line2d_15">
    <path d="M 336.96 86.4 
L 338.649023 80.176384 
L 339.558496 77.647646 
L 340.20812 76.409941 
L 340.72782 75.816954 
L 341.117594 75.618825 
L 341.507368 75.636887 
L 341.897143 75.870779 
L 342.416842 76.509648 
L 343.066466 77.799534 
L 343.846015 79.96965 
L 344.885414 83.625294 
L 347.613835 93.620289 
L 348.393383 95.578393 
L 349.043008 96.655529 
L 349.562707 97.108987 
L 349.952481 97.199247 
L 350.342256 97.072953 
L 350.73203 96.732639 
L 351.251729 95.958361 
L 351.901353 94.516365 
L 352.680902 92.199847 
L 353.850226 87.925522 
L 355.929023 80.176384 
L 356.838496 77.647646 
L 357.48812 76.409941 
L 358.00782 75.816954 
L 358.397594 75.618825 
L 358.787368 75.636887 
L 359.177143 75.870779 
L 359.696842 76.509648 
L 360.346466 77.799534 
L 361.126015 79.96965 
L 362.165414 83.625294 
L 364.893835 93.620289 
L 365.673383 95.578393 
L 366.323008 96.655529 
L 366.842707 97.108987 
L 367.232481 97.199247 
L 367.622256 97.072953 
L 368.01203 96.732639 
L 368.531729 95.958361 
L 369.181353 94.516365 
L 369.960902 92.199847 
L 371.130226 87.925522 
L 373.209023 80.176384 
L 374.118496 77.647646 
L 374.76812 76.409941 
L 375.28782 75.816954 
L 375.677594 75.618825 
L 376.067368 75.636887 
L 376.457143 75.870779 
L 376.976842 76.509648 
L 377.626466 77.799534 
L 378.406015 79.96965 
L 379.445414 83.625294 
L 382.173835 93.620289 
L 382.953383 95.578393 
L 383.603008 96.655529 
L 384.122707 97.108987 
L 384.512481 97.199247 
L 384.902256 97.072953 
L 385.29203 96.732639 
L 385.811729 95.958361 
L 386.461353 94.516365 
L 387.240902 92.199847 
L 388.410226 87.925522 
L 388.8 86.4 
L 388.8 86.4 
" clip-path="url(#pab283b9958)" style="fill: none; stroke: #000000; stroke-width: 2"/>
   </g>
   <g id="line2d_16">
    <path d="M 475.2 86.4 
L 473.510977 92.623616 
L 472.601504 95.152354 
L 471.95188 96.390059 
L 471.43218 96.983046 
L 471.042406 97.181175 
L 470.652632 97.163113 
L 470.262857 96.929221 
L 469.743158 96.290352 
L 469.093534 95.000466 
L 468.313985 92.83035 
L 467.274586 89.174706 
L 464.546165 79.179711 
L 463.766617 77.221607 
L 463.116992 76.144471 
L 462.597293 75.691013 
L 462.207519 75.600753 
L 461.817744 75.727047 
L 461.42797 76.067361 
L 460.908271 76.841639 
L 460.258647 78.283635 
L 459.479098 80.600153 
L 458.309774 84.874478 
L 456.230977 92.623616 
L 455.321504 95.152354 
L 454.67188 96.390059 
L 454.15218 96.983046 
L 453.762406 97.181175 
L 453.372632 97.163113 
L 452.982857 96.929221 
L 452.463158 96.290352 
L 451.813534 95.000466 
L 451.033985 92.83035 
L 449.994586 89.174706 
L 447.266165 79.179711 
L 446.486617 77.221607 
L 445.836992 76.144471 
L 445.317293 75.691013 
L 444.927519 75.600753 
L 444.537744 75.727047 
L 444.14797 76.067361 
L 443.628271 76.841639 
L 442.978647 78.283635 
L 442.199098 80.600153 
L 441.029774 84.874478 
L 438.950977 92.623616 
L 438.041504 95.152354 
L 437.39188 96.390059 
L 436.87218 96.983046 
L 436.482406 97.181175 
L 436.092632 97.163113 
L 435.702857 96.929221 
L 435.183158 96.290352 
L 434.533534 95.000466 
L 433.753985 92.83035 
L 432.714586 89.174706 
L 429.986165 79.179711 
L 429.206617 77.221607 
L 428.556992 76.144471 
L 428.037293 75.691013 
L 427.647519 75.600753 
L 427.257744 75.727047 
L 426.86797 76.067361 
L 426.348271 76.841639 
L 425.698647 78.283635 
L 424.919098 80.600153 
L 423.749774 84.874478 
L 423.36 86.4 
L 423.36 86.4 
" clip-path="url(#pab283b9958)" style="fill: none; stroke: #000000; stroke-width: 2"/>
   </g>
   <g id="line2d_17">
    <path d="M 475.2 86.4 
L 509.76 34.56 
L 509.76 34.56 
" clip-path="url(#pab283b9958)" style="fill: none; stroke: #000000; stroke-width: 2"/>
   </g>
   <g id="line2d_18">
    <path d="M 475.2 86.4 
L 509.76 138.24 
L 509.76 138.24 
" clip-path="url(#pab283b9958)" style="fill: none; stroke: #000000; stroke-width: 2"/>
   </g>
   <g id="patch_3">
    <path d="M 106.999702 69.873775 
L 105.28942 58.36824 
L 102.53742 62.224149 
L 97.82637 62.721685 
z
" clip-path="url(#pab283b9958)" style="stroke: #000000; stroke-linejoin: miter"/>
   </g>
   <g id="patch_4">
    <path d="M 96.040298 121.713775 
L 105.21363 114.561685 
L 100.50258 114.064149 
L 97.75058 110.20824 
z
" clip-path="url(#pab283b9958)" style="stroke: #000000; stroke-linejoin: miter"/>
   </g>
   <g id="patch_5">
    <path d="M 325.71407 69.531106 
L 323.317766 58.148658 
L 320.801645 62.162468 
L 316.128851 62.941267 
z
" clip-path="url(#pab283b9958)" style="stroke: #000000; stroke-linejoin: miter"/>
   </g>
   <g id="patch_6">
    <path d="M 313.64593 121.371106 
L 323.231149 114.781267 
L 318.558355 114.002468 
L 316.042234 109.988658 
z
" clip-path="url(#pab283b9958)" style="stroke: #000000; stroke-linejoin: miter"/>
   </g>
   <g id="patch_7">
    <path d="M 498.51407 51.428894 
L 488.928851 58.018733 
L 493.601645 58.797532 
L 496.117766 62.811342 
z
" clip-path="url(#pab283b9958)" style="stroke: #000000; stroke-linejoin: miter"/>
   </g>
   <g id="patch_8">
    <path d="M 498.51407 121.371106 
L 496.117766 109.988658 
L 493.601645 114.002468 
L 488.928851 114.781267 
z
" clip-path="url(#pab283b9958)" style="stroke: #000000; stroke-linejoin: miter"/>
   </g>
   <g id="line2d_19"/>
   <g id="line2d_20"/>
   <g id="line2d_21"/>
   <g id="line2d_22"/>
   <g id="line2d_23"/>
   <g id="line2d_24"/>
   <g id="line2d_25">
    <defs>
     <path id="m30138f6974" d="M 0 2 
C 0.530406 2 1.03916 1.789267 1.414214 1.414214 
C 1.789267 1.03916 2 0.530406 2 0 
C 2 -0.530406 1.789267 -1.03916 1.414214 -1.414214 
C 1.03916 -1.789267 0.530406 -2 0 -2 
C -0.530406 -2 -1.03916 -1.789267 -1.414214 -1.414214 
C -1.789267 -1.03916 -2 -0.530406 -2 0 
C -2 0.530406 -1.789267 1.03916 -1.414214 1.414214 
C -1.03916 1.789267 -0.530406 2 0 2 
z
" style="stroke: #000000"/>
    </defs>
    <g clip-path="url(#pab283b9958)">
     <use xlink:href="#m30138f6974" x="116.64" y="86.4" style="stroke: #000000"/>
    </g>
   </g>
   <g id="line2d_26">
    <g clip-path="url(#pab283b9958)">
     <use xlink:href="#m30138f6974" x="177.12" y="86.4" style="stroke: #000000"/>
    </g>
   </g>
   <g id="line2d_27"/>
   <g id="line2d_28"/>
   <g id="line2d_29"/>
   <g id="line2d_30"/>
   <g id="line2d_31"/>
   <g id="line2d_32"/>
   <g id="line2d_33"/>
   <g id="line2d_34"/>
   <g id="line2d_35"/>
   <g id="line2d_36">
    <g clip-path="url(#pab283b9958)">
     <use xlink:href="#m30138f6974" x="336.96" y="86.4" style="stroke: #000000"/>
    </g>
   </g>
   <g id="line2d_37">
    <g clip-path="url(#pab283b9958)">
     <use xlink:href="#m30138f6974" x="475.2" y="86.4" style="stroke: #000000"/>
    </g>
   </g>
   <g id="line2d_38">
    <g clip-path="url(#pab283b9958)">
     <use xlink:href="#m30138f6974" x="388.8" y="86.4" style="stroke: #000000"/>
    </g>
   </g>
   <g id="line2d_39">
    <g clip-path="url(#pab283b9958)">
     <use xlink:href="#m30138f6974" x="423.36" y="86.4" style="stroke: #000000"/>
    </g>
   </g>
   <g id="line2d_40"/>
   <g id="line2d_41"/>
  </g>
 </g>
 <defs>
  <clipPath id="pab283b9958">
   <rect x="0" y="0" width="518.4" height="172.8"/>
  </clipPath>
 </defs>
</svg>
