<?xml version="1.0" encoding="utf-8" standalone="no"?>
<!DOCTYPE svg PUBLIC "-//W3C//DTD SVG 1.1//EN"
  "http://www.w3.org/Graphics/SVG/1.1/DTD/svg11.dtd">
<svg xmlns:xlink="http://www.w3.org/1999/xlink" width="518.4pt" height="172.8pt" viewBox="0 0 518.4 172.8" xmlns="http://www.w3.org/2000/svg" version="1.1">
 <metadata>
  <rdf:RDF xmlns:dc="http://purl.org/dc/elements/1.1/" xmlns:cc="http://creativecommons.org/ns#" xmlns:rdf="http://www.w3.org/1999/02/22-rdf-syntax-ns#">
   <cc:Work>
    <dc:type rdf:resource="http://purl.org/dc/dcmitype/StillImage"/>
    <dc:date>2026-03-26T16:15:18.182082</dc:date>
    <dc:format>image/svg+xml</dc:format>
    <dc:creator>
     <cc:Agent>
      <dc:title>Matplotlib v3.10.8, https://matplotlib.org/</dc:title>
     </cc:Agent>
    </dc:creator>
   </cc:Work>
  </rdf:RDF>
 </metadata>
 <defs>
  <style type="text/css">*{stroke-linejoin: round; stroke-linecap: butt}</style>
 </defs>
 <g id="figure_1">
  <g id="patch_1">
   <path d="M 0 172.8 
L 518.4 172.8 
L 518.4 0 
L 0 0 
L 0 172.8 
z
" style="fill: none"/>
  </g>
  <g id="axes_1">
   <g id="matplotlib.axis_1"/>
   <g id="matplotlib.axis_2"/>
   <g id="text_1">
    <!-- $x$ -->
    <g style="fill: #ffffff" transform="translate(16.64 94.4) scale(0.32 -0.32)">
     <defs>
      <path id="Cmmi10-78" d="M 500 184 
Q 613 97 819 97 
Q 1019 97 1172 289 
Q 1325 481 1381 709 
L 1672 1844 
Q 1741 2153 1741 2266 
Q 1741 2425 1652 2544 
Q 1563 2663 1403 2663 
Q 1200 2663 1022 2536 
Q 844 2409 722 2214 
Q 600 2019 550 1819 
Q 538 1778 500 1778 
L 422 1778 
Q 372 1778 372 1838 
L 372 1856 
Q 434 2094 584 2320 
Q 734 2547 951 2687 
Q 1169 2828 1416 2828 
Q 1650 2828 1839 2703 
Q 2028 2578 2106 2363 
Q 2216 2559 2386 2693 
Q 2556 2828 2759 2828 
Q 2897 2828 3040 2779 
Q 3184 2731 3275 2631 
Q 3366 2531 3366 2381 
Q 3366 2219 3261 2101 
Q 3156 1984 2994 1984 
Q 2891 1984 2822 2050 
Q 2753 2116 2753 2216 
Q 2753 2350 2845 2451 
Q 2938 2553 3066 2572 
Q 2950 2663 2747 2663 
Q 2541 2663 2389 2472 
Q 2238 2281 2175 2047 
L 1894 916 
Q 1825 659 1825 494 
Q 1825 331 1917 214 
Q 2009 97 2163 97 
Q 2463 97 2698 361 
Q 2934 625 3009 941 
Q 3022 978 3059 978 
L 3138 978 
Q 3163 978 3178 961 
Q 3194 944 3194 922 
Q 3194 916 3188 903 
Q 3097 522 2806 225 
Q 2516 -72 2150 -72 
Q 1916 -72 1727 54 
Q 1538 181 1459 397 
Q 1359 209 1182 68 
Q 1006 -72 806 -72 
Q 669 -72 523 -23 
Q 378 25 287 125 
Q 197 225 197 378 
Q 197 528 301 651 
Q 406 775 563 775 
Q 669 775 741 711 
Q 813 647 813 544 
Q 813 409 723 309 
Q 634 209 500 184 
z
" transform="scale(0.015625)"/>
     </defs>
     <use xlink:href="#Cmmi10-78" transform="translate(0 0.8125)"/>
    </g>
   </g>
   <g id="text_2">
    <!-- $0$ -->
    <g style="fill: #ffffff" transform="translate(138.88 94.4) scale(0.32 -0.32)">
     <defs>
      <path id="Cmr10-30" d="M 1600 -141 
Q 816 -141 533 504 
Q 250 1150 250 2041 
Q 250 2597 351 3087 
Q 453 3578 754 3920 
Q 1056 4263 1600 4263 
Q 2022 4263 2290 4056 
Q 2559 3850 2700 3523 
Q 2841 3197 2892 2823 
Q 2944 2450 2944 2041 
Q 2944 1491 2842 1011 
Q 2741 531 2444 195 
Q 2147 -141 1600 -141 
z
M 1600 25 
Q 1956 25 2131 390 
Q 2306 756 2347 1200 
Q 2388 1644 2388 2144 
Q 2388 2625 2347 3031 
Q 2306 3438 2132 3767 
Q 1959 4097 1600 4097 
Q 1238 4097 1063 3765 
Q 888 3434 847 3029 
Q 806 2625 806 2144 
Q 806 1788 823 1472 
Q 841 1156 916 820 
Q 991 484 1158 254 
Q 1325 25 1600 25 
z
" transform="scale(0.015625)"/>
     </defs>
     <use xlink:href="#Cmr10-30" transform="translate(0 0.390625)"/>
    </g>
   </g>
   <g id="text_3">
    <!-- $x$ -->
    <g style="fill: #ffffff" transform="translate(189.44 94.4) scale(0.32 -0.32)">
     <use xlink:href="#Cmmi10-78" transform="translate(0 0.8125)"/>
    </g>
   </g>
   <g id="text_4">
    <!-- $0$ -->
    <g style="fill: #ffffff" transform="translate(311.68 94.4) scale(0.32 -0.32)">
     <use xlink:href="#Cmr10-30" transform="translate(0 0.390625)"/>
    </g>
   </g>
   <g id="text_5">
    <!-- $x$ -->
    <g style="fill: #ffffff" transform="translate(362.24 94.4) scale(0.32 -0.32)">
     <use xlink:href="#Cmmi10-78" transform="translate(0 0.8125)"/>
    </g>
   </g>
   <g id="text_6">
    <!-- $0$ -->
    <g style="fill: #ffffff" transform="translate(484.48 94.4) scale(0.32 -0.32)">
     <use xlink:href="#Cmr10-30" transform="translate(0 0.390625)"/>
    </g>
   </g>
   <g id="line2d_1">
    <path d="M 43.2 86.4 
L 43.30842 83.34128 
L 43.633137 80.297913 
L 44.172521 77.285176 
L 44.923864 74.31819 
L 45.883395 71.411848 
L 47.046297 68.580739 
L 48.406734 65.839073 
L 49.957877 63.200611 
L 51.691939 60.678598 
L 53.600217 58.285693 
L 55.673133 56.033906 
L 57.900281 53.934541 
L 60.270482 51.998135 
L 62.77184 50.234408 
L 65.391798 48.652213 
L 68.117206 47.259491 
L 70.934383 46.063234 
L 73.82919 45.069445 
L 76.787096 44.283114 
L 79.793253 43.708187 
L 82.832572 43.34755 
L 85.889798 43.203013 
L 88.949585 43.275302 
L 91.996575 43.564053 
L 95.015472 44.067818 
L 97.991125 44.784068 
L 100.908596 45.709207 
L 103.753242 46.838592 
L 106.510784 48.166555 
L 109.167381 49.686428 
L 111.709698 51.390584 
L 114.124973 53.270469 
L 116.401085 55.316646 
L 118.526606 57.518844 
L 120.49087 59.866011 
L 122.284016 62.346364 
L 123.897043 64.947453 
L 125.321855 67.656222 
L 126.5513 70.459076 
L 127.579208 73.341944 
L 128.400418 76.290356 
L 129.010808 79.289514 
L 129.407315 82.324362 
L 129.587949 85.379668 
L 129.6 86.4 
L 129.6 86.4 
" clip-path="url(#pc01248dab2)" style="fill: none; stroke: #ffffff; stroke-width: 2"/>
   </g>
   <g id="line2d_2">
    <path d="M 129.6 86.4 
L 129.49158 89.45872 
L 129.166863 92.502087 
L 128.627479 95.514824 
L 127.876136 98.48181 
L 126.916605 101.388152 
L 125.753703 104.219261 
L 124.393266 106.960927 
L 122.842123 109.599389 
L 121.108061 112.121402 
L 119.199783 114.514307 
L 117.126867 116.766094 
L 114.899719 118.865459 
L 112.529518 120.801865 
L 110.02816 122.565592 
L 107.408202 124.147787 
L 104.682794 125.540509 
L 101.865617 126.736766 
L 98.97081 127.730555 
L 96.012904 128.516886 
L 93.006747 129.091813 
L 89.967428 129.45245 
L 86.910202 129.596987 
L 83.850415 129.524698 
L 80.803425 129.235947 
L 77.784528 128.732182 
L 74.808875 128.015932 
L 71.891404 127.090793 
L 69.046758 125.961408 
L 66.289216 124.633445 
L 63.632619 123.113572 
L 61.090302 121.409416 
L 58.675027 119.529531 
L 56.398915 117.483354 
L 54.273394 115.281156 
L 52.30913 112.933989 
L 50.515984 110.453636 
L 48.902957 107.852547 
L 47.478145 105.143778 
L 46.2487 102.340924 
L 45.220792 99.458056 
L 44.399582 96.509644 
L 43.789192 93.510486 
L 43.392685 90.475638 
L 43.212051 87.420332 
L 43.2 86.4 
L 43.2 86.4 
" clip-path="url(#pc01248dab2)" style="fill: none; stroke: #ffffff; stroke-width: 2"/>
   </g>
   <g id="line2d_3">
    <path d="M 55.852987 55.852987 
L 57.337491 55.950864 
L 58.79499 56.232223 
L 60.199894 56.691262 
L 61.527729 57.318541 
L 62.755651 58.101175 
L 63.862936 59.023115 
L 64.831411 60.065493 
L 65.645834 61.207018 
L 66.294217 62.424438 
L 66.768069 63.693028 
L 67.062574 64.987119 
L 67.176677 66.280642 
L 67.113107 67.547678 
L 66.8783 68.763001 
L 66.482264 69.902615 
L 65.93835 70.944246 
L 65.262965 71.867814 
L 64.475218 72.655839 
L 63.59651 73.293809 
L 62.650077 73.770464 
L 61.660498 74.078028 
L 60.653178 74.212354 
L 59.653814 74.173002 
L 58.687854 73.963227 
L 57.779977 73.589905 
L 56.953575 73.063371 
L 56.23028 72.39719 
L 55.629515 71.607867 
L 55.168111 70.714492 
L 54.859963 69.738332 
L 54.715758 68.702389 
L 54.742772 67.630917 
L 54.944732 66.54892 
L 55.321753 65.481634 
L 55.870359 64.454013 
L 56.583559 63.490221 
L 57.451013 62.613142 
L 58.459254 61.84392 
L 59.591974 61.201541 
L 60.830366 60.702454 
L 62.153519 60.360254 
L 63.538845 60.185419 
L 64.962542 60.185112 
L 66.400078 60.363053 
L 67.826687 60.719461 
L 69.217862 61.251065 
L 70.54985 61.951184 
L 71.800113 62.809878 
L 72.947779 63.814158 
L 73.974047 64.948262 
L 74.862547 66.193976 
L 75.599657 67.531012 
L 76.174759 68.937414 
L 76.580435 70.390002 
L 76.812597 71.864835 
L 76.870554 73.337686 
L 76.757009 74.784524 
L 76.477992 76.181979 
L 76.042723 77.507805 
L 75.46342 78.741309 
L 74.755044 79.863752 
L 73.934993 80.858704 
L 73.022753 81.712361 
L 72.039504 82.413802 
L 71.007703 82.95519 
L 69.950634 83.331916 
L 68.891953 83.542673 
L 67.855224 83.589468 
L 66.863458 83.477578 
L 65.938668 83.215428 
L 65.101438 82.814416 
L 64.370531 82.288688 
L 63.762529 81.654847 
L 63.291511 80.931625 
L 62.968793 80.139513 
L 62.80271 79.300357 
L 62.798462 78.436931 
L 62.958022 77.572491 
L 63.280101 76.730324 
L 63.760184 75.933297 
L 64.390618 75.203414 
L 65.160767 74.561388 
L 66.057223 74.026249 
L 67.064069 73.614973 
L 68.163185 73.342157 
L 69.334604 73.219743 
L 70.556898 73.256787 
L 71.807588 73.459287 
L 73.063581 73.830072 
L 74.301612 74.368748 
L 75.498693 75.071706 
L 76.632549 75.932192 
L 77.68205 76.940441 
L 78.627614 78.08386 
L 79.451581 79.347275 
L 80.138548 80.713216 
L 80.675669 82.162254 
L 81.052896 83.673375 
L 81.263171 85.224376 
L 81.302564 86.792293 
L 81.170344 88.35384 
L 80.868995 89.885851 
L 80.40417 91.365723 
L 79.784581 92.771851 
L 79.021832 94.084036 
L 78.130201 95.283875 
L 77.126366 96.355111 
L 76.029084 97.283945 
L 74.858835 98.059301 
L 73.637429 98.673039 
L 72.38759 99.120111 
L 71.132517 99.398659 
L 69.895443 99.510054 
L 68.699185 99.45887 
L 67.565706 99.252796 
L 66.515692 98.902496 
L 65.568149 98.4214 
L 64.740041 97.82545 
L 64.045951 97.132794 
L 63.497804 96.36344 
L 63.104629 95.538866 
L 62.872378 94.681613 
L 62.803809 93.814842 
L 62.898422 92.961892 
L 63.152467 92.14582 
L 63.559005 91.388957 
L 64.108041 90.712467 
L 64.786705 90.135936 
L 65.5795 89.676981 
L 66.468596 89.350902 
L 67.434171 89.170375 
L 68.454792 89.145199 
L 69.507831 89.282088 
L 70.569902 89.584536 
L 71.617318 90.05273 
L 72.626555 90.683539 
L 73.574712 91.47056 
L 74.439967 92.40423 
L 75.20201 93.472002 
L 75.842446 94.65858 
L 76.345167 95.946207 
L 76.696682 97.315003 
L 76.886391 98.743352 
L 76.90681 100.208316 
L 76.753732 101.686083 
L 76.426323 103.152436 
L 75.927159 104.583228 
L 75.262189 105.954864 
L 74.440629 107.244767 
L 73.474799 108.431834 
L 72.379893 109.496865 
L 71.173685 110.422947 
L 69.87619 111.195809 
L 68.509275 111.804116 
L 67.096231 112.239709 
L 65.661309 112.497787 
L 64.229243 112.577011 
L 62.82475 112.479556 
L 61.472037 112.211077 
L 60.194307 111.780612 
L 59.013288 111.200417 
L 57.948784 110.485731 
L 57.018266 109.654477 
L 56.236506 108.726914 
L 55.615264 107.725235 
L 55.163037 106.673118 
L 54.884867 105.595253 
L 54.782225 104.516838 
L 54.852965 103.463063 
L 55.091353 102.458597 
L 55.488169 101.52707 
L 56.030884 100.690587 
L 56.703901 99.969262 
L 57.488872 99.380791 
L 58.365062 98.940078 
L 59.309775 98.658912 
L 60.298812 98.545709 
L 61.306978 98.605325 
L 62.308598 98.838938 
L 63.278056 99.244011 
L 64.190331 99.81433 
L 65.021521 100.540126 
L 65.749354 101.408259 
L 66.353656 102.402491 
L 66.816787 103.503813 
L 67.124019 104.69084 
L 67.263854 105.940249 
L 67.228277 107.227274 
L 67.012933 108.526218 
L 66.617231 109.810997 
L 66.044362 111.055689 
L 65.301242 112.235086 
L 64.398373 113.325225 
L 63.349621 114.303899 
L 62.171938 115.151132 
L 60.884996 115.849602 
L 59.51078 116.385013 
L 58.073122 116.7464 
L 56.597197 116.926362 
L 55.852987 116.947013 
L 55.852987 116.947013 
" clip-path="url(#pc01248dab2)" style="fill: none; stroke: #ffffff; stroke-opacity: 0.5; stroke-width: 2"/>
   </g>
   <g id="line2d_4">
    <path d="M 116.947013 55.852987 
L 115.462509 55.950864 
L 114.00501 56.232223 
L 112.600106 56.691262 
L 111.272271 57.318541 
L 110.044349 58.101175 
L 108.937064 59.023115 
L 107.968589 60.065493 
L 107.154166 61.207018 
L 106.505783 62.424438 
L 106.031931 63.693028 
L 105.737426 64.987119 
L 105.623323 66.280642 
L 105.686893 67.547678 
L 105.9217 68.763001 
L 106.317736 69.902615 
L 106.86165 70.944246 
L 107.537035 71.867814 
L 108.324782 72.655839 
L 109.20349 73.293809 
L 110.149923 73.770464 
L 111.139502 74.078028 
L 112.146822 74.212354 
L 113.146186 74.173002 
L 114.112146 73.963227 
L 115.020023 73.589905 
L 115.846425 73.063371 
L 116.56972 72.39719 
L 117.170485 71.607867 
L 117.631889 70.714492 
L 117.940037 69.738332 
L 118.084242 68.702389 
L 118.057228 67.630917 
L 117.855268 66.54892 
L 117.478247 65.481634 
L 116.929641 64.454013 
L 116.216441 63.490221 
L 115.348987 62.613142 
L 114.340746 61.84392 
L 113.208026 61.201541 
L 111.969634 60.702454 
L 110.646481 60.360254 
L 109.261155 60.185419 
L 107.837458 60.185112 
L 106.399922 60.363053 
L 104.973313 60.719461 
L 103.582138 61.251065 
L 102.25015 61.951184 
L 100.999887 62.809878 
L 99.852221 63.814158 
L 98.825953 64.948262 
L 97.937453 66.193976 
L 97.200343 67.531012 
L 96.625241 68.937414 
L 96.219565 70.390002 
L 95.987403 71.864835 
L 95.929446 73.337686 
L 96.042991 74.784524 
L 96.322008 76.181979 
L 96.757277 77.507805 
L 97.33658 78.741309 
L 98.044956 79.863752 
L 98.865007 80.858704 
L 99.777247 81.712361 
L 100.760496 82.413802 
L 101.792297 82.95519 
L 102.849366 83.331916 
L 103.908047 83.542673 
L 104.944776 83.589468 
L 105.936542 83.477578 
L 106.861332 83.215428 
L 107.698562 82.814416 
L 108.429469 82.288688 
L 109.037471 81.654847 
L 109.508489 80.931625 
L 109.831207 80.139513 
L 109.99729 79.300357 
L 110.001538 78.436931 
L 109.841978 77.572491 
L 109.519899 76.730324 
L 109.039816 75.933297 
L 108.409382 75.203414 
L 107.639233 74.561388 
L 106.742777 74.026249 
L 105.735931 73.614973 
L 104.636815 73.342157 
L 103.465396 73.219743 
L 102.243102 73.256787 
L 100.992412 73.459287 
L 99.736419 73.830072 
L 98.498388 74.368748 
L 97.301307 75.071706 
L 96.167451 75.932192 
L 95.11795 76.940441 
L 94.172386 78.08386 
L 93.348419 79.347275 
L 92.661452 80.713216 
L 92.124331 82.162254 
L 91.747104 83.673375 
L 91.536829 85.224376 
L 91.497436 86.792293 
L 91.629656 88.35384 
L 91.931005 89.885851 
L 92.39583 91.365723 
L 93.015419 92.771851 
L 93.778168 94.084036 
L 94.669799 95.283875 
L 95.673634 96.355111 
L 96.770916 97.283945 
L 97.941165 98.059301 
L 99.162571 98.673039 
L 100.41241 99.120111 
L 101.667483 99.398659 
L 102.904557 99.510054 
L 104.100815 99.45887 
L 105.234294 99.252796 
L 106.284308 98.902496 
L 107.231851 98.4214 
L 108.059959 97.82545 
L 108.754049 97.132794 
L 109.302196 96.36344 
L 109.695371 95.538866 
L 109.927622 94.681613 
L 109.996191 93.814842 
L 109.901578 92.961892 
L 109.647533 92.14582 
L 109.240995 91.388957 
L 108.691959 90.712467 
L 108.013295 90.135936 
L 107.2205 89.676981 
L 106.331404 89.350902 
L 105.365829 89.170375 
L 104.345208 89.145199 
L 103.292169 89.282088 
L 102.230098 89.584536 
L 101.182682 90.05273 
L 100.173445 90.683539 
L 99.225288 91.47056 
L 98.360033 92.40423 
L 97.59799 93.472002 
L 96.957554 94.65858 
L 96.454833 95.946207 
L 96.103318 97.315003 
L 95.913609 98.743352 
L 95.89319 100.208316 
L 96.046268 101.686083 
L 96.373677 103.152436 
L 96.872841 104.583228 
L 97.537811 105.954864 
L 98.359371 107.244767 
L 99.325201 108.431834 
L 100.420107 109.496865 
L 101.626315 110.422947 
L 102.92381 111.195809 
L 104.290725 111.804116 
L 105.703769 112.239709 
L 107.138691 112.497787 
L 108.570757 112.577011 
L 109.97525 112.479556 
L 111.327963 112.211077 
L 112.605693 111.780612 
L 113.786712 111.200417 
L 114.851216 110.485731 
L 115.781734 109.654477 
L 116.563494 108.726914 
L 117.184736 107.725235 
L 117.636963 106.673118 
L 117.915133 105.595253 
L 118.017775 104.516838 
L 117.947035 103.463063 
L 117.708647 102.458597 
L 117.311831 101.52707 
L 116.769116 100.690587 
L 116.096099 99.969262 
L 115.311128 99.380791 
L 114.434938 98.940078 
L 113.490225 98.658912 
L 112.501188 98.545709 
L 111.493022 98.605325 
L 110.491402 98.838938 
L 109.521944 99.244011 
L 108.609669 99.81433 
L 107.778479 100.540126 
L 107.050646 101.408259 
L 106.446344 102.402491 
L 105.983213 103.503813 
L 105.675981 104.69084 
L 105.536146 105.940249 
L 105.571723 107.227274 
L 105.787067 108.526218 
L 106.182769 109.810997 
L 106.755638 111.055689 
L 107.498758 112.235086 
L 108.401627 113.325225 
L 109.450379 114.303899 
L 110.628062 115.151132 
L 111.915004 115.849602 
L 113.28922 116.385013 
L 114.726878 116.7464 
L 116.202803 116.926362 
L 116.947013 116.947013 
L 116.947013 116.947013 
" clip-path="url(#pc01248dab2)" style="fill: none; stroke: #ffffff; stroke-opacity: 0.5; stroke-width: 2"/>
   </g>
   <g id="line2d_5">
    <path d="M 302.4 86.4 
L 302.29158 89.45872 
L 301.966863 92.502087 
L 301.427479 95.514824 
L 300.676136 98.48181 
L 299.716605 101.388152 
L 298.553703 104.219261 
L 297.193266 106.960927 
L 295.642123 109.599389 
L 293.908061 112.121402 
L 291.999783 114.514307 
L 289.926867 116.766094 
L 287.699719 118.865459 
L 285.329518 120.801865 
L 282.82816 122.565592 
L 280.208202 124.147787 
L 277.482794 125.540509 
L 274.665617 126.736766 
L 271.77081 127.730555 
L 268.812904 128.516886 
L 265.806747 129.091813 
L 262.767428 129.45245 
L 259.710202 129.596987 
L 256.650415 129.524698 
L 253.603425 129.235947 
L 250.584528 128.732182 
L 247.608875 128.015932 
L 244.691404 127.090793 
L 241.846758 125.961408 
L 239.089216 124.633445 
L 236.432619 123.113572 
L 233.890302 121.409416 
L 231.475027 119.529531 
L 229.198915 117.483354 
L 227.073394 115.281156 
L 225.10913 112.933989 
L 223.315984 110.453636 
L 221.702957 107.852547 
L 220.278145 105.143778 
L 219.0487 102.340924 
L 218.020792 99.458056 
L 217.199582 96.509644 
L 216.589192 93.510486 
L 216.192685 90.475638 
L 216.012051 87.420332 
L 216 86.4 
L 216 86.4 
" clip-path="url(#pc01248dab2)" style="fill: none; stroke: #ffffff; stroke-width: 2"/>
   </g>
   <g id="line2d_6">
    <path d="M 216 86.4 
L 216 21.6 
L 216 21.6 
" clip-path="url(#pc01248dab2)" style="fill: none; stroke: #ffffff; stroke-width: 2"/>
   </g>
   <g id="line2d_7">
    <path d="M 302.4 86.4 
L 302.4 21.6 
L 302.4 21.6 
" clip-path="url(#pc01248dab2)" style="fill: none; stroke: #ffffff; stroke-width: 2"/>
   </g>
   <g id="line2d_8">
    <path d="M 388.8 86.4 
L 388.90842 83.34128 
L 389.233137 80.297913 
L 389.772521 77.285176 
L 390.523864 74.31819 
L 391.483395 71.411848 
L 392.646297 68.580739 
L 394.006734 65.839073 
L 395.557877 63.200611 
L 397.291939 60.678598 
L 399.200217 58.285693 
L 401.273133 56.033906 
L 403.500281 53.934541 
L 405.870482 51.998135 
L 408.37184 50.234408 
L 410.991798 48.652213 
L 413.717206 47.259491 
L 416.534383 46.063234 
L 419.42919 45.069445 
L 422.387096 44.283114 
L 425.393253 43.708187 
L 428.432572 43.34755 
L 431.489798 43.203013 
L 434.549585 43.275302 
L 437.596575 43.564053 
L 440.615472 44.067818 
L 443.591125 44.784068 
L 446.508596 45.709207 
L 449.353242 46.838592 
L 452.110784 48.166555 
L 454.767381 49.686428 
L 457.309698 51.390584 
L 459.724973 53.270469 
L 462.001085 55.316646 
L 464.126606 57.518844 
L 466.09087 59.866011 
L 467.884016 62.346364 
L 469.497043 64.947453 
L 470.921855 67.656222 
L 472.1513 70.459076 
L 473.179208 73.341944 
L 474.000418 76.290356 
L 474.610808 79.289514 
L 475.007315 82.324362 
L 475.187949 85.379668 
L 475.2 86.4 
L 475.2 86.4 
" clip-path="url(#pc01248dab2)" style="fill: none; stroke: #ffffff; stroke-width: 2"/>
   </g>
   <g id="line2d_9">
    <path d="M 475.2 86.4 
L 475.09158 89.45872 
L 474.766863 92.502087 
L 474.227479 95.514824 
L 473.476136 98.48181 
L 472.516605 101.388152 
L 471.353703 104.219261 
L 469.993266 106.960927 
L 468.442123 109.599389 
L 466.708061 112.121402 
L 464.799783 114.514307 
L 462.726867 116.766094 
L 460.499719 118.865459 
L 458.129518 120.801865 
L 455.62816 122.565592 
L 453.008202 124.147787 
L 450.282794 125.540509 
L 447.465617 126.736766 
L 444.57081 127.730555 
L 441.612904 128.516886 
L 438.606747 129.091813 
L 435.567428 129.45245 
L 432.510202 129.596987 
L 429.450415 129.524698 
L 426.403425 129.235947 
L 423.384528 128.732182 
L 420.408875 128.015932 
L 417.491404 127.090793 
L 414.646758 125.961408 
L 411.889216 124.633445 
L 409.232619 123.113572 
L 406.690302 121.409416 
L 404.275027 119.529531 
L 401.998915 117.483354 
L 399.873394 115.281156 
L 397.90913 112.933989 
L 396.115984 110.453636 
L 394.502957 107.852547 
L 393.078145 105.143778 
L 391.8487 102.340924 
L 390.820792 99.458056 
L 389.999582 96.509644 
L 389.389192 93.510486 
L 388.992685 90.475638 
L 388.812051 87.420332 
L 388.8 86.4 
L 388.8 86.4 
" clip-path="url(#pc01248dab2)" style="fill: none; stroke: #ffffff; stroke-width: 2"/>
   </g>
   <g id="line2d_10">
    <path d="M 401.452987 116.947013 
L 400.092573 118.524939 
L 398.986656 120.275646 
L 398.163164 122.148253 
L 397.639966 124.087536 
L 397.424241 126.0359 
L 397.512223 127.935427 
L 397.889331 129.729935 
L 398.53069 131.366983 
L 399.40202 132.799736 
L 400.460849 133.988632 
L 401.658032 134.90279 
L 402.9395 135.521112 
L 404.248179 135.833033 
L 405.52603 135.838894 
L 406.716108 135.549936 
L 407.764598 134.987893 
L 408.62272 134.184224 
L 409.248476 133.178991 
L 409.608139 132.019429 
L 409.677456 130.758271 
L 409.442511 129.451865 
L 408.900222 128.158171 
L 408.058446 126.934696 
L 406.935705 125.836448 
L 405.560525 124.913973 
L 403.970417 124.211564 
L 402.210546 123.765676 
L 400.33212 123.603632 
L 398.390568 123.742649 
L 396.443567 124.189225 
L 394.548987 124.93891 
L 392.762833 125.97646 
L 391.137249 127.276384 
L 389.718661 128.803848 
L 388.546129 130.51592 
L 387.649949 132.363091 
L 387.050579 134.291047 
L 386.757911 136.242594 
L 386.770917 138.1597 
L 387.077685 139.985558 
L 387.655847 141.666611 
L 388.473369 143.154457 
L 389.489698 144.407572 
L 390.657202 145.392791 
L 391.922865 146.086483 
L 393.23018 146.475401 
L 394.521155 146.557145 
L 395.738378 146.340254 
L 396.827066 145.843896 
L 397.737009 145.097192 
L 398.424365 144.138175 
L 398.853213 143.012435 
L 398.996836 141.771502 
L 398.838674 140.471002 
L 398.372909 139.168686 
L 397.604676 137.922367 
L 396.549879 136.787866 
L 395.234623 135.817023 
L 393.694286 135.055849 
L 391.972261 134.542893 
L 390.118409 134.307866 
L 388.187285 134.370583 
L 386.236193 134.740259 
L 384.323149 135.41518 
L 382.504816 136.382766 
L 380.834484 137.620016 
L 379.360172 139.094328 
L 378.122922 140.76466 
L 377.155336 142.582993 
L 376.480415 144.496037 
L 376.110739 146.447129 
L 376.048022 148.378253 
L 376.283049 150.232105 
L 376.796005 151.95413 
L 377.557179 153.494467 
L 378.528022 154.809723 
L 379.662523 155.86452 
L 380.908842 156.632753 
L 382.211158 157.098518 
L 383.511658 157.25668 
L 384.752591 157.113057 
L 385.878331 156.684209 
L 386.837348 155.996853 
L 387.584052 155.08691 
L 388.08041 153.998222 
L 388.297301 152.780999 
L 388.215557 151.490024 
L 387.826639 150.182709 
L 387.132947 148.917046 
L 386.147728 147.749542 
L 384.894613 146.733213 
L 383.406767 145.915691 
L 381.725714 145.337529 
L 379.899856 145.030761 
L 377.98275 145.017755 
L 376.031203 145.310423 
L 374.103247 145.909793 
L 372.256076 146.805973 
L 370.544004 147.978505 
L 369.01654 149.397093 
L 367.716616 151.022677 
L 366.679066 152.808831 
L 365.929381 154.703411 
L 365.482805 156.650412 
L 365.343788 158.591964 
L 365.505832 160.47039 
L 365.95172 162.230261 
L 366.654129 163.820369 
L 367.576603 165.195549 
L 368.674852 166.31829 
L 369.898327 167.160066 
L 371.192021 167.702355 
L 372.498427 167.9373 
L 373.759585 167.867983 
L 374.919147 167.50832 
L 375.92438 166.882564 
L 376.728049 166.024442 
L 377.290092 164.975953 
L 377.57905 163.785874 
L 377.573189 162.508023 
L 377.261268 161.199344 
L 376.642946 159.917876 
L 375.728788 158.720693 
L 374.539892 157.661864 
L 373.107139 156.790534 
L 371.470091 156.149175 
L 369.675583 155.772067 
L 367.776056 155.684085 
L 365.827692 155.89981 
L 363.888409 156.423008 
L 362.015802 157.2465 
L 360.265095 158.352417 
L 358.687169 159.712831 
L 358.687169 159.712831 
" clip-path="url(#pc01248dab2)" style="fill: none; stroke: #ffffff; stroke-width: 2"/>
   </g>
   <g id="line2d_11">
    <path d="M 401.452987 55.852987 
L 400.092573 54.275061 
L 398.986656 52.524354 
L 398.163164 50.651747 
L 397.639966 48.712464 
L 397.424241 46.7641 
L 397.512223 44.864573 
L 397.889331 43.070065 
L 398.53069 41.433017 
L 399.40202 40.000264 
L 400.460849 38.811368 
L 401.658032 37.89721 
L 402.9395 37.278888 
L 404.248179 36.966967 
L 405.52603 36.961106 
L 406.716108 37.250064 
L 407.764598 37.812107 
L 408.62272 38.615776 
L 409.248476 39.621009 
L 409.608139 40.780571 
L 409.677456 42.041729 
L 409.442511 43.348135 
L 408.900222 44.641829 
L 408.058446 45.865304 
L 406.935705 46.963552 
L 405.560525 47.886027 
L 403.970417 48.588436 
L 402.210546 49.034324 
L 400.33212 49.196368 
L 398.390568 49.057351 
L 396.443567 48.610775 
L 394.548987 47.86109 
L 392.762833 46.82354 
L 391.137249 45.523616 
L 389.718661 43.996152 
L 388.546129 42.28408 
L 387.649949 40.436909 
L 387.050579 38.508953 
L 386.757911 36.557406 
L 386.770917 34.6403 
L 387.077685 32.814442 
L 387.655847 31.133389 
L 388.473369 29.645543 
L 389.489698 28.392428 
L 390.657202 27.407209 
L 391.922865 26.713517 
L 393.23018 26.324599 
L 394.521155 26.242855 
L 395.738378 26.459746 
L 396.827066 26.956104 
L 397.737009 27.702808 
L 398.424365 28.661825 
L 398.853213 29.787565 
L 398.996836 31.028498 
L 398.838674 32.328998 
L 398.372909 33.631314 
L 397.604676 34.877633 
L 396.549879 36.012134 
L 395.234623 36.982977 
L 393.694286 37.744151 
L 391.972261 38.257107 
L 390.118409 38.492134 
L 388.187285 38.429417 
L 386.236193 38.059741 
L 384.323149 37.38482 
L 382.504816 36.417234 
L 380.834484 35.179984 
L 379.360172 33.705672 
L 378.122922 32.03534 
L 377.155336 30.217007 
L 376.480415 28.303963 
L 376.110739 26.352871 
L 376.048022 24.421747 
L 376.283049 22.567895 
L 376.796005 20.84587 
L 377.557179 19.305533 
L 378.528022 17.990277 
L 379.662523 16.93548 
L 380.908842 16.167247 
L 382.211158 15.701482 
L 383.511658 15.54332 
L 384.752591 15.686943 
L 385.878331 16.115791 
L 386.837348 16.803147 
L 387.584052 17.71309 
L 388.08041 18.801778 
L 388.297301 20.019001 
L 388.215557 21.309976 
L 387.826639 22.617291 
L 387.132947 23.882954 
L 386.147728 25.050458 
L 384.894613 26.066787 
L 383.406767 26.884309 
L 381.725714 27.462471 
L 379.899856 27.769239 
L 377.98275 27.782245 
L 376.031203 27.489577 
L 374.103247 26.890207 
L 372.256076 25.994027 
L 370.544004 24.821495 
L 369.01654 23.402907 
L 367.716616 21.777323 
L 366.679066 19.991169 
L 365.929381 18.096589 
L 365.482805 16.149588 
L 365.343788 14.208036 
L 365.505832 12.32961 
L 365.95172 10.569739 
L 366.654129 8.979631 
L 367.576603 7.604451 
L 368.674852 6.48171 
L 369.898327 5.639934 
L 371.192021 5.097645 
L 372.498427 4.8627 
L 373.759585 4.932017 
L 374.919147 5.29168 
L 375.92438 5.917436 
L 376.728049 6.775558 
L 377.290092 7.824047 
L 377.57905 9.014126 
L 377.573189 10.291977 
L 377.261268 11.600656 
L 376.642946 12.882124 
L 375.728788 14.079307 
L 374.539892 15.138136 
L 373.107139 16.009466 
L 371.470091 16.650825 
L 369.675583 17.027933 
L 367.776056 17.115915 
L 365.827692 16.90019 
L 363.888409 16.376992 
L 362.015802 15.5535 
L 360.265095 14.447583 
L 358.687169 13.087169 
L 358.687169 13.087169 
" clip-path="url(#pc01248dab2)" style="fill: none; stroke: #ffffff; stroke-width: 2"/>
   </g>
   <g id="line2d_12">
    <path d="M 462.547013 116.947013 
L 463.907427 118.524939 
L 465.013344 120.275646 
L 465.836836 122.148253 
L 466.360034 124.087536 
L 466.575759 126.0359 
L 466.487777 127.935427 
L 466.110669 129.729935 
L 465.46931 131.366983 
L 464.59798 132.799736 
L 463.539151 133.988632 
L 462.341968 134.90279 
L 461.0605 135.521112 
L 459.751821 135.833033 
L 458.47397 135.838894 
L 457.283892 135.549936 
L 456.235402 134.987893 
L 455.37728 134.184224 
L 454.751524 133.178991 
L 454.391861 132.019429 
L 454.322544 130.758271 
L 454.557489 129.451865 
L 455.099778 128.158171 
L 455.941554 126.934696 
L 457.064295 125.836448 
L 458.439475 124.913973 
L 460.029583 124.211564 
L 461.789454 123.765676 
L 463.66788 123.603632 
L 465.609432 123.742649 
L 467.556433 124.189225 
L 469.451013 124.93891 
L 471.237167 125.97646 
L 472.862751 127.276384 
L 474.281339 128.803848 
L 475.453871 130.51592 
L 476.350051 132.363091 
L 476.949421 134.291047 
L 477.242089 136.242594 
L 477.229083 138.1597 
L 476.922315 139.985558 
L 476.344153 141.666611 
L 475.526631 143.154457 
L 474.510302 144.407572 
L 473.342798 145.392791 
L 472.077135 146.086483 
L 470.76982 146.475401 
L 469.478845 146.557145 
L 468.261622 146.340254 
L 467.172934 145.843896 
L 466.262991 145.097192 
L 465.575635 144.138175 
L 465.146787 143.012435 
L 465.003164 141.771502 
L 465.161326 140.471002 
L 465.627091 139.168686 
L 466.395324 137.922367 
L 467.450121 136.787866 
L 468.765377 135.817023 
L 470.305714 135.055849 
L 472.027739 134.542893 
L 473.881591 134.307866 
L 475.812715 134.370583 
L 477.763807 134.740259 
L 479.676851 135.41518 
L 481.495184 136.382766 
L 483.165516 137.620016 
L 484.639828 139.094328 
L 485.877078 140.76466 
L 486.844664 142.582993 
L 487.519585 144.496037 
L 487.889261 146.447129 
L 487.951978 148.378253 
L 487.716951 150.232105 
L 487.203995 151.95413 
L 486.442821 153.494467 
L 485.471978 154.809723 
L 484.337477 155.86452 
L 483.091158 156.632753 
L 481.788842 157.098518 
L 480.488342 157.25668 
L 479.247409 157.113057 
L 478.121669 156.684209 
L 477.162652 155.996853 
L 476.415948 155.08691 
L 475.91959 153.998222 
L 475.702699 152.780999 
L 475.784443 151.490024 
L 476.173361 150.182709 
L 476.867053 148.917046 
L 477.852272 147.749542 
L 479.105387 146.733213 
L 480.593233 145.915691 
L 482.274286 145.337529 
L 484.100144 145.030761 
L 486.01725 145.017755 
L 487.968797 145.310423 
L 489.896753 145.909793 
L 491.743924 146.805973 
L 493.455996 147.978505 
L 494.98346 149.397093 
L 496.283384 151.022677 
L 497.320934 152.808831 
L 498.070619 154.703411 
L 498.517195 156.650412 
L 498.656212 158.591964 
L 498.494168 160.47039 
L 498.04828 162.230261 
L 497.345871 163.820369 
L 496.423397 165.195549 
L 495.325148 166.31829 
L 494.101673 167.160066 
L 492.807979 167.702355 
L 491.501573 167.9373 
L 490.240415 167.867983 
L 489.080853 167.50832 
L 488.07562 166.882564 
L 487.271951 166.024442 
L 486.709908 164.975953 
L 486.42095 163.785874 
L 486.426811 162.508023 
L 486.738732 161.199344 
L 487.357054 159.917876 
L 488.271212 158.720693 
L 489.460108 157.661864 
L 490.892861 156.790534 
L 492.529909 156.149175 
L 494.324417 155.772067 
L 496.223944 155.684085 
L 498.172308 155.89981 
L 500.111591 156.423008 
L 501.984198 157.2465 
L 503.734905 158.352417 
L 505.312831 159.712831 
L 505.312831 159.712831 
" clip-path="url(#pc01248dab2)" style="fill: none; stroke: #ffffff; stroke-width: 2"/>
   </g>
   <g id="line2d_13">
    <path d="M 462.547013 55.852987 
L 463.907427 54.275061 
L 465.013344 52.524354 
L 465.836836 50.651747 
L 466.360034 48.712464 
L 466.575759 46.7641 
L 466.487777 44.864573 
L 466.110669 43.070065 
L 465.46931 41.433017 
L 464.59798 40.000264 
L 463.539151 38.811368 
L 462.341968 37.89721 
L 461.0605 37.278888 
L 459.751821 36.966967 
L 458.47397 36.961106 
L 457.283892 37.250064 
L 456.235402 37.812107 
L 455.37728 38.615776 
L 454.751524 39.621009 
L 454.391861 40.780571 
L 454.322544 42.041729 
L 454.557489 43.348135 
L 455.099778 44.641829 
L 455.941554 45.865304 
L 457.064295 46.963552 
L 458.439475 47.886027 
L 460.029583 48.588436 
L 461.789454 49.034324 
L 463.66788 49.196368 
L 465.609432 49.057351 
L 467.556433 48.610775 
L 469.451013 47.86109 
L 471.237167 46.82354 
L 472.862751 45.523616 
L 474.281339 43.996152 
L 475.453871 42.28408 
L 476.350051 40.436909 
L 476.949421 38.508953 
L 477.242089 36.557406 
L 477.229083 34.6403 
L 476.922315 32.814442 
L 476.344153 31.133389 
L 475.526631 29.645543 
L 474.510302 28.392428 
L 473.342798 27.407209 
L 472.077135 26.713517 
L 470.76982 26.324599 
L 469.478845 26.242855 
L 468.261622 26.459746 
L 467.172934 26.956104 
L 466.262991 27.702808 
L 465.575635 28.661825 
L 465.146787 29.787565 
L 465.003164 31.028498 
L 465.161326 32.328998 
L 465.627091 33.631314 
L 466.395324 34.877633 
L 467.450121 36.012134 
L 468.765377 36.982977 
L 470.305714 37.744151 
L 472.027739 38.257107 
L 473.881591 38.492134 
L 475.812715 38.429417 
L 477.763807 38.059741 
L 479.676851 37.38482 
L 481.495184 36.417234 
L 483.165516 35.179984 
L 484.639828 33.705672 
L 485.877078 32.03534 
L 486.844664 30.217007 
L 487.519585 28.303963 
L 487.889261 26.352871 
L 487.951978 24.421747 
L 487.716951 22.567895 
L 487.203995 20.84587 
L 486.442821 19.305533 
L 485.471978 17.990277 
L 484.337477 16.93548 
L 483.091158 16.167247 
L 481.788842 15.701482 
L 480.488342 15.54332 
L 479.247409 15.686943 
L 478.121669 16.115791 
L 477.162652 16.803147 
L 476.415948 17.71309 
L 475.91959 18.801778 
L 475.702699 20.019001 
L 475.784443 21.309976 
L 476.173361 22.617291 
L 476.867053 23.882954 
L 477.852272 25.050458 
L 479.105387 26.066787 
L 480.593233 26.884309 
L 482.274286 27.462471 
L 484.100144 27.769239 
L 486.01725 27.782245 
L 487.968797 27.489577 
L 489.896753 26.890207 
L 491.743924 25.994027 
L 493.455996 24.821495 
L 494.98346 23.402907 
L 496.283384 21.777323 
L 497.320934 19.991169 
L 498.070619 18.096589 
L 498.517195 16.149588 
L 498.656212 14.208036 
L 498.494168 12.32961 
L 498.04828 10.569739 
L 497.345871 8.979631 
L 496.423397 7.604451 
L 495.325148 6.48171 
L 494.101673 5.639934 
L 492.807979 5.097645 
L 491.501573 4.8627 
L 490.240415 4.932017 
L 489.080853 5.29168 
L 488.07562 5.917436 
L 487.271951 6.775558 
L 486.709908 7.824047 
L 486.42095 9.014126 
L 486.426811 10.291977 
L 486.738732 11.600656 
L 487.357054 12.882124 
L 488.271212 14.079307 
L 489.460108 15.138136 
L 490.892861 16.009466 
L 492.529909 16.650825 
L 494.324417 17.027933 
L 496.223944 17.115915 
L 498.172308 16.90019 
L 500.111591 16.376992 
L 501.984198 15.5535 
L 503.734905 14.447583 
L 505.312831 13.087169 
L 505.312831 13.087169 
" clip-path="url(#pc01248dab2)" style="fill: none; stroke: #ffffff; stroke-width: 2"/>
   </g>
   <g id="patch_2">
    <path d="M 97.329589 44.134557 
L 86.604085 38.880469 
L 88.51401 43.215641 
L 86.536057 47.520201 
z
" clip-path="url(#pc01248dab2)" style="fill: #ffffff; stroke: #ffffff; stroke-linejoin: miter"/>
   </g>
   <g id="patch_3">
    <path d="M 75.470411 128.665443 
L 86.195915 133.919531 
L 84.28599 129.584359 
L 86.263943 125.279799 
z
" clip-path="url(#pc01248dab2)" style="fill: #ffffff; stroke: #ffffff; stroke-linejoin: miter"/>
   </g>
   <g id="patch_4">
    <path d="M 248.270411 128.665443 
L 258.995915 133.919531 
L 257.08599 129.584359 
L 259.063943 125.279799 
z
" clip-path="url(#pc01248dab2)" style="fill: #ffffff; stroke: #ffffff; stroke-linejoin: miter"/>
   </g>
   <g id="patch_5">
    <path d="M 216 43.118797 
L 211.68 53.918797 
L 216 51.974797 
L 220.32 53.918797 
z
" clip-path="url(#pc01248dab2)" style="fill: #ffffff; stroke: #ffffff; stroke-linejoin: miter"/>
   </g>
   <g id="patch_6">
    <path d="M 302.4 43.118797 
L 298.08 53.918797 
L 302.4 51.974797 
L 306.72 53.918797 
z
" clip-path="url(#pc01248dab2)" style="fill: #ffffff; stroke: #ffffff; stroke-linejoin: miter"/>
   </g>
   <g id="patch_7">
    <path d="M 442.929589 44.134557 
L 432.204085 38.880469 
L 434.11401 43.215641 
L 432.136057 47.520201 
z
" clip-path="url(#pc01248dab2)" style="fill: #ffffff; stroke: #ffffff; stroke-linejoin: miter"/>
   </g>
   <g id="patch_8">
    <path d="M 421.070411 128.665443 
L 431.795915 133.919531 
L 429.88599 129.584359 
L 431.863943 125.279799 
z
" clip-path="url(#pc01248dab2)" style="fill: #ffffff; stroke: #ffffff; stroke-linejoin: miter"/>
   </g>
   <g id="line2d_14">
    <defs>
     <path id="mf5e1a75d4d" d="M 0 2 
C 0.530406 2 1.03916 1.789267 1.414214 1.414214 
C 1.789267 1.03916 2 0.530406 2 0 
C 2 -0.530406 1.789267 -1.03916 1.414214 -1.414214 
C 1.03916 -1.789267 0.530406 -2 0 -2 
C -0.530406 -2 -1.03916 -1.789267 -1.414214 -1.414214 
C -1.789267 -1.03916 -2 -0.530406 -2 0 
C -2 0.530406 -1.789267 1.03916 -1.414214 1.414214 
C -1.03916 1.789267 -0.530406 2 0 2 
z
" style="stroke: #ffffff"/>
    </defs>
    <g clip-path="url(#pc01248dab2)">
     <use xlink:href="#mf5e1a75d4d" x="43.2" y="86.4" style="fill: #ffffff; stroke: #ffffff"/>
    </g>
   </g>
   <g id="line2d_15">
    <g clip-path="url(#pc01248dab2)">
     <use xlink:href="#mf5e1a75d4d" x="129.6" y="86.4" style="fill: #ffffff; stroke: #ffffff"/>
    </g>
   </g>
   <g id="line2d_16"/>
   <g id="line2d_17"/>
   <g id="line2d_18"/>
   <g id="line2d_19"/>
   <g id="line2d_20">
    <g clip-path="url(#pc01248dab2)">
     <use xlink:href="#mf5e1a75d4d" x="216" y="86.4" style="fill: #ffffff; stroke: #ffffff"/>
    </g>
   </g>
   <g id="line2d_21">
    <g clip-path="url(#pc01248dab2)">
     <use xlink:href="#mf5e1a75d4d" x="302.4" y="86.4" style="fill: #ffffff; stroke: #ffffff"/>
    </g>
   </g>
   <g id="line2d_22"/>
   <g id="line2d_23"/>
   <g id="line2d_24">
    <g clip-path="url(#pc01248dab2)">
     <use xlink:href="#mf5e1a75d4d" x="388.8" y="86.4" style="fill: #ffffff; stroke: #ffffff"/>
    </g>
   </g>
   <g id="line2d_25">
    <g clip-path="url(#pc01248dab2)">
     <use xlink:href="#mf5e1a75d4d" x="475.2" y="86.4" style="fill: #ffffff; stroke: #ffffff"/>
    </g>
   </g>
   <g id="line2d_26"/>
   <g id="line2d_27"/>
   <g id="line2d_28"/>
   <g id="line2d_29"/>
   <g id="line2d_30"/>
   <g id="line2d_31"/>
   <g id="line2d_32"/>
   <g id="line2d_33"/>
  </g>
 </g>
 <defs>
  <clipPath id="pc01248dab2">
   <rect x="0" y="0" width="518.4" height="172.8"/>
  </clipPath>
 </defs>
</svg>
