<?xml version="1.0" encoding="utf-8" standalone="no"?>
<!DOCTYPE svg PUBLIC "-//W3C//DTD SVG 1.1//EN"
  "http://www.w3.org/Graphics/SVG/1.1/DTD/svg11.dtd">
<svg xmlns:xlink="http://www.w3.org/1999/xlink" width="345.6pt" height="259.2pt" viewBox="0 0 345.6 259.2" xmlns="http://www.w3.org/2000/svg" version="1.1">
 <metadata>
  <rdf:RDF xmlns:dc="http://purl.org/dc/elements/1.1/" xmlns:cc="http://creativecommons.org/ns#" xmlns:rdf="http://www.w3.org/1999/02/22-rdf-syntax-ns#">
   <cc:Work>
    <dc:type rdf:resource="http://purl.org/dc/dcmitype/StillImage"/>
    <dc:date>2026-01-22T12:48:45.116540</dc:date>
    <dc:format>image/svg+xml</dc:format>
    <dc:creator>
     <cc:Agent>
      <dc:title>Matplotlib v3.10.8, https://matplotlib.org/</dc:title>
     </cc:Agent>
    </dc:creator>
   </cc:Work>
  </rdf:RDF>
 </metadata>
 <defs>
  <style type="text/css">*{stroke-linejoin: round; stroke-linecap: butt}</style>
 </defs>
 <g id="figure_1">
  <g id="patch_1">
   <path d="M 0 259.2 
L 345.6 259.2 
L 345.6 0 
L 0 0 
L 0 259.2 
z
" style="fill: none"/>
  </g>
  <g id="axes_1">
   <g id="matplotlib.axis_1"/>
   <g id="matplotlib.axis_2"/>
   <g id="text_1">
    <!-- $u,c,t$ -->
    <g transform="translate(145.56 44.73375) scale(0.24 -0.24)">
     <defs>
      <path id="Cmmi10-75" d="M 678 697 
Q 678 906 734 1126 
Q 791 1347 892 1617 
Q 994 1888 1069 2088 
Q 1153 2322 1153 2472 
Q 1153 2663 1013 2663 
Q 759 2663 595 2402 
Q 431 2141 353 1819 
Q 341 1778 300 1778 
L 225 1778 
Q 172 1778 172 1838 
L 172 1856 
Q 275 2238 487 2533 
Q 700 2828 1025 2828 
Q 1253 2828 1411 2678 
Q 1569 2528 1569 2297 
Q 1569 2178 1516 2047 
Q 1488 1969 1388 1706 
Q 1288 1444 1234 1272 
Q 1181 1100 1147 934 
Q 1113 769 1113 603 
Q 1113 391 1203 244 
Q 1294 97 1497 97 
Q 1906 97 2216 603 
Q 2222 628 2226 651 
Q 2231 675 2234 697 
L 2694 2553 
Q 2716 2638 2794 2698 
Q 2872 2759 2963 2759 
Q 3041 2759 3098 2709 
Q 3156 2659 3156 2578 
Q 3156 2541 3150 2528 
L 2688 684 
Q 2644 494 2644 372 
Q 2644 97 2828 97 
Q 3034 97 3136 351 
Q 3238 606 3309 941 
Q 3322 978 3359 978 
L 3438 978 
Q 3463 978 3478 956 
Q 3494 934 3494 916 
Q 3425 641 3361 444 
Q 3297 247 3159 87 
Q 3022 -72 2816 -72 
Q 2613 -72 2452 39 
Q 2291 150 2234 341 
Q 2088 153 1894 40 
Q 1700 -72 1484 -72 
Q 1116 -72 897 129 
Q 678 331 678 697 
z
" transform="scale(0.015625)"/>
      <path id="Cmmi10-3b" d="M 634 -1153 
Q 634 -1125 659 -1100 
Q 891 -878 1019 -587 
Q 1147 -297 1147 25 
L 1147 103 
Q 1044 0 891 0 
Q 744 0 641 103 
Q 538 206 538 353 
Q 538 503 641 603 
Q 744 703 891 703 
Q 1119 703 1216 492 
Q 1313 281 1313 25 
Q 1313 -331 1170 -651 
Q 1028 -972 769 -1228 
Q 744 -1241 728 -1241 
Q 697 -1241 665 -1212 
Q 634 -1184 634 -1153 
z
" transform="scale(0.015625)"/>
      <path id="Cmmi10-63" d="M 750 763 
Q 750 484 892 290 
Q 1034 97 1300 97 
Q 1681 97 2032 272 
Q 2384 447 2606 756 
Q 2625 775 2656 775 
Q 2688 775 2720 739 
Q 2753 703 2753 672 
Q 2753 647 2741 634 
Q 2506 306 2109 117 
Q 1713 -72 1288 -72 
Q 981 -72 747 73 
Q 513 219 384 462 
Q 256 706 256 1013 
Q 256 1444 497 1869 
Q 738 2294 1138 2561 
Q 1538 2828 1978 2828 
Q 2266 2828 2495 2689 
Q 2725 2550 2725 2278 
Q 2725 2103 2623 1979 
Q 2522 1856 2350 1856 
Q 2247 1856 2176 1920 
Q 2106 1984 2106 2088 
Q 2106 2238 2215 2344 
Q 2325 2450 2472 2450 
L 2484 2450 
Q 2409 2559 2267 2611 
Q 2125 2663 1972 2663 
Q 1597 2663 1315 2342 
Q 1034 2022 892 1576 
Q 750 1131 750 763 
z
" transform="scale(0.015625)"/>
      <path id="Cmmi10-74" d="M 397 519 
Q 397 613 416 697 
L 878 2534 
L 206 2534 
Q 141 2534 141 2619 
Q 166 2759 225 2759 
L 934 2759 
L 1191 3803 
Q 1216 3888 1291 3947 
Q 1366 4006 1459 4006 
Q 1541 4006 1595 3957 
Q 1650 3909 1650 3828 
Q 1650 3809 1648 3798 
Q 1647 3788 1644 3775 
L 1388 2759 
L 2047 2759 
Q 2113 2759 2113 2675 
Q 2109 2659 2100 2621 
Q 2091 2584 2075 2559 
Q 2059 2534 2028 2534 
L 1331 2534 
L 872 684 
Q 825 503 825 372 
Q 825 97 1013 97 
Q 1294 97 1511 361 
Q 1728 625 1844 941 
Q 1869 978 1894 978 
L 1972 978 
Q 1997 978 2012 961 
Q 2028 944 2028 922 
Q 2028 909 2022 903 
Q 1881 516 1612 222 
Q 1344 -72 997 -72 
Q 744 -72 570 93 
Q 397 259 397 519 
z
" transform="scale(0.015625)"/>
     </defs>
     <use xlink:href="#Cmmi10-75" transform="translate(0 0.40625)"/>
     <use xlink:href="#Cmmi10-3b" transform="translate(57.177734 0.40625)"/>
     <use xlink:href="#Cmmi10-63" transform="translate(102.421875 0.40625)"/>
     <use xlink:href="#Cmmi10-3b" transform="translate(145.634766 0.40625)"/>
     <use xlink:href="#Cmmi10-74" transform="translate(190.878906 0.40625)"/>
    </g>
   </g>
   <g id="text_2">
    <!-- $\leftarrow$ -->
    <g transform="translate(156.48 83.76) scale(0.24 -0.24)">
     <defs>
      <path id="Cmsy10-c3" d="M 1722 -13 
Q 1675 250 1561 494 
Q 1447 738 1275 941 
Q 1103 1144 884 1297 
Q 666 1450 409 1538 
Q 359 1547 359 1600 
Q 359 1647 409 1672 
Q 669 1763 886 1911 
Q 1103 2059 1275 2262 
Q 1447 2466 1561 2709 
Q 1675 2953 1722 3213 
Q 1738 3272 1784 3272 
L 1913 3272 
Q 1978 3272 1978 3188 
Q 1906 2763 1664 2378 
Q 1422 1994 1056 1728 
L 5913 1728 
Q 5966 1728 6000 1687 
Q 6034 1647 6034 1600 
Q 6034 1553 6000 1512 
Q 5966 1472 5913 1472 
L 1056 1472 
Q 1416 1216 1661 827 
Q 1906 438 1978 13 
Q 1978 -72 1913 -72 
L 1784 -72 
Q 1738 -72 1722 -13 
z
" transform="scale(0.015625)"/>
     </defs>
     <use xlink:href="#Cmsy10-c3" transform="translate(17.558594 0.875)"/>
    </g>
   </g>
   <g id="text_3">
    <!-- $k$ -->
    <g transform="translate(166.44 105.36) scale(0.24 -0.24)">
     <defs>
      <path id="Cmmi10-6b" d="M 341 116 
Q 341 153 347 172 
L 1275 3872 
Q 1300 3981 1306 4044 
Q 1306 4147 891 4147 
Q 825 4147 825 4231 
Q 828 4247 839 4287 
Q 850 4328 867 4350 
Q 884 4372 916 4372 
L 1778 4441 
L 1797 4441 
Q 1797 4434 1819 4423 
Q 1841 4413 1844 4409 
Q 1856 4378 1856 4359 
L 1184 1684 
Q 1416 1781 1767 2145 
Q 2119 2509 2317 2668 
Q 2516 2828 2816 2828 
Q 2994 2828 3119 2706 
Q 3244 2584 3244 2406 
Q 3244 2294 3197 2198 
Q 3150 2103 3065 2043 
Q 2981 1984 2869 1984 
Q 2766 1984 2695 2048 
Q 2625 2113 2625 2216 
Q 2625 2369 2733 2473 
Q 2841 2578 2994 2578 
Q 2931 2663 2803 2663 
Q 2613 2663 2436 2553 
Q 2259 2444 2054 2239 
Q 1850 2034 1681 1864 
Q 1513 1694 1369 1606 
Q 1747 1563 2025 1408 
Q 2303 1253 2303 934 
Q 2303 869 2278 769 
Q 2222 528 2222 384 
Q 2222 97 2419 97 
Q 2650 97 2770 350 
Q 2891 603 2969 941 
Q 2981 978 3022 978 
L 3097 978 
Q 3122 978 3139 962 
Q 3156 947 3156 922 
Q 3156 916 3150 903 
Q 2909 -72 2406 -72 
Q 2225 -72 2086 12 
Q 1947 97 1872 242 
Q 1797 388 1797 569 
Q 1797 672 1825 781 
Q 1844 856 1844 922 
Q 1844 1169 1625 1297 
Q 1406 1425 1125 1453 
L 800 147 
Q 775 50 703 -11 
Q 631 -72 538 -72 
Q 456 -72 398 -17 
Q 341 38 341 116 
z
" transform="scale(0.015625)"/>
     </defs>
     <use xlink:href="#Cmmi10-6b" transform="translate(0 0.609375)"/>
    </g>
   </g>
   <g id="text_4">
    <!-- $s$ -->
    <g transform="translate(311.2 51.2) scale(0.32 -0.32)">
     <defs>
      <path id="Cmmi10-73" d="M 556 391 
Q 728 97 1247 97 
Q 1472 97 1675 173 
Q 1878 250 2011 403 
Q 2144 556 2144 775 
Q 2144 941 2025 1047 
Q 1906 1153 1734 1191 
L 1388 1259 
Q 1150 1319 997 1481 
Q 844 1644 844 1875 
Q 844 2159 998 2378 
Q 1153 2597 1406 2712 
Q 1659 2828 1931 2828 
Q 2222 2828 2451 2689 
Q 2681 2550 2681 2278 
Q 2681 2131 2598 2018 
Q 2516 1906 2369 1906 
Q 2284 1906 2223 1961 
Q 2163 2016 2163 2100 
Q 2163 2175 2205 2245 
Q 2247 2316 2317 2358 
Q 2388 2400 2463 2400 
Q 2406 2538 2251 2600 
Q 2097 2663 1919 2663 
Q 1756 2663 1593 2597 
Q 1431 2531 1332 2404 
Q 1234 2278 1234 2106 
Q 1234 1991 1315 1903 
Q 1397 1816 1516 1778 
L 1888 1703 
Q 2066 1666 2214 1570 
Q 2363 1475 2448 1329 
Q 2534 1184 2534 997 
Q 2534 759 2401 528 
Q 2269 297 2075 159 
Q 1734 -72 1241 -72 
Q 900 -72 615 84 
Q 331 241 331 550 
Q 331 725 432 854 
Q 534 984 709 984 
Q 813 984 883 921 
Q 953 859 953 756 
Q 953 609 843 500 
Q 734 391 588 391 
L 556 391 
z
" transform="scale(0.015625)"/>
     </defs>
     <use xlink:href="#Cmmi10-73" transform="translate(0 0.8125)"/>
    </g>
   </g>
   <g id="text_5">
    <!-- $b$ -->
    <g transform="translate(20 51.2) scale(0.32 -0.32)">
     <defs>
      <path id="Cmmi10-62" d="M 1106 -72 
Q 719 -72 503 231 
Q 288 534 288 941 
Q 288 1000 317 1173 
Q 347 1347 347 1388 
L 966 3872 
Q 991 3981 997 4044 
Q 997 4147 581 4147 
Q 519 4147 519 4231 
Q 522 4247 533 4287 
Q 544 4328 561 4350 
Q 578 4372 609 4372 
L 1472 4441 
Q 1550 4441 1550 4359 
L 1075 2472 
Q 1438 2828 1806 2828 
Q 2078 2828 2273 2684 
Q 2469 2541 2566 2306 
Q 2663 2072 2663 1806 
Q 2663 1497 2542 1167 
Q 2422 838 2209 555 
Q 1997 272 1712 100 
Q 1428 -72 1106 -72 
z
M 1119 97 
Q 1338 97 1528 280 
Q 1719 463 1838 691 
Q 1966 947 2077 1386 
Q 2188 1825 2188 2088 
Q 2188 2316 2092 2489 
Q 1997 2663 1791 2663 
Q 1559 2663 1348 2492 
Q 1138 2322 978 2088 
L 800 1363 
Q 697 959 691 716 
Q 691 475 795 286 
Q 900 97 1119 97 
z
" transform="scale(0.015625)"/>
     </defs>
     <use xlink:href="#Cmmi10-62" transform="translate(0 0.609375)"/>
    </g>
   </g>
   <g id="text_6">
    <!-- $k + p_b$ -->
    <g transform="translate(77.28 131.28) scale(0.24 -0.24)">
     <defs>
      <path id="Cmr10-2b" d="M 481 1472 
Q 428 1472 393 1512 
Q 359 1553 359 1600 
Q 359 1647 393 1687 
Q 428 1728 481 1728 
L 2363 1728 
L 2363 3616 
Q 2363 3666 2400 3698 
Q 2438 3731 2491 3731 
Q 2538 3731 2578 3698 
Q 2619 3666 2619 3616 
L 2619 1728 
L 4500 1728 
Q 4547 1728 4581 1687 
Q 4616 1647 4616 1600 
Q 4616 1553 4581 1512 
Q 4547 1472 4500 1472 
L 2619 1472 
L 2619 -416 
Q 2619 -466 2578 -498 
Q 2538 -531 2491 -531 
Q 2438 -531 2400 -498 
Q 2363 -466 2363 -416 
L 2363 1472 
L 481 1472 
z
" transform="scale(0.015625)"/>
      <path id="Cmmi10-70" d="M -159 -1241 
Q -219 -1241 -219 -1159 
Q -197 -1019 -134 -1019 
Q 66 -1019 145 -983 
Q 225 -947 269 -800 
L 991 2081 
Q 1038 2200 1038 2388 
Q 1038 2663 850 2663 
Q 650 2663 553 2423 
Q 456 2184 366 1819 
Q 366 1778 313 1778 
L 238 1778 
Q 222 1778 203 1801 
Q 184 1825 184 1844 
Q 253 2122 317 2315 
Q 381 2509 517 2668 
Q 653 2828 856 2828 
Q 1075 2828 1240 2704 
Q 1406 2581 1453 2369 
Q 1628 2572 1840 2700 
Q 2053 2828 2278 2828 
Q 2547 2828 2745 2684 
Q 2944 2541 3044 2308 
Q 3144 2075 3144 1806 
Q 3144 1394 2933 953 
Q 2722 513 2361 220 
Q 2000 -72 1588 -72 
Q 1400 -72 1248 34 
Q 1097 141 1013 313 
L 722 -825 
Q 706 -919 703 -934 
Q 703 -1019 1125 -1019 
Q 1191 -1019 1191 -1100 
Q 1169 -1184 1155 -1212 
Q 1141 -1241 1081 -1241 
L -159 -1241 
z
M 1594 97 
Q 1816 97 2006 280 
Q 2197 463 2316 691 
Q 2403 863 2479 1111 
Q 2556 1359 2612 1640 
Q 2669 1922 2669 2088 
Q 2669 2234 2630 2362 
Q 2591 2491 2502 2577 
Q 2413 2663 2266 2663 
Q 2031 2663 1823 2495 
Q 1616 2328 1447 2081 
L 1447 2059 
L 1094 647 
Q 1138 419 1263 258 
Q 1388 97 1594 97 
z
" transform="scale(0.015625)"/>
     </defs>
     <use xlink:href="#Cmmi10-6b" transform="translate(0 0.609375)"/>
     <use xlink:href="#Cmr10-2b" transform="translate(69.560547 0.609375)"/>
     <use xlink:href="#Cmmi10-70" transform="translate(164.804688 0.609375)"/>
     <use xlink:href="#Cmmi10-62" transform="translate(215.097656 -16.396875) scale(0.7)"/>
    </g>
   </g>
   <g id="text_7">
    <!-- $k - p_s$ -->
    <g transform="translate(215.16 131.28) scale(0.24 -0.24)">
     <defs>
      <path id="Cmsy10-a1" d="M 653 1472 
Q 600 1472 565 1512 
Q 531 1553 531 1600 
Q 531 1647 565 1687 
Q 600 1728 653 1728 
L 4325 1728 
Q 4375 1728 4408 1687 
Q 4441 1647 4441 1600 
Q 4441 1553 4408 1512 
Q 4375 1472 4325 1472 
L 653 1472 
z
" transform="scale(0.015625)"/>
     </defs>
     <use xlink:href="#Cmmi10-6b" transform="translate(0 0.609375)"/>
     <use xlink:href="#Cmsy10-a1" transform="translate(69.560547 0.609375)"/>
     <use xlink:href="#Cmmi10-70" transform="translate(164.804688 0.609375)"/>
     <use xlink:href="#Cmmi10-73" transform="translate(215.097656 -16.396875) scale(0.7)"/>
    </g>
   </g>
   <g id="text_8">
    <!-- $p_s$ -->
    <g transform="translate(277.2 83.61375) scale(0.24 -0.24)">
     <use xlink:href="#Cmmi10-70" transform="translate(0 0.8125)"/>
     <use xlink:href="#Cmmi10-73" transform="translate(50.292969 -16.19375) scale(0.7)"/>
    </g>
   </g>
   <g id="text_9">
    <!-- $p_b$ -->
    <g transform="translate(47.16 83.61375) scale(0.24 -0.24)">
     <use xlink:href="#Cmmi10-70" transform="translate(0 0.8125)"/>
     <use xlink:href="#Cmmi10-62" transform="translate(50.292969 -16.19375) scale(0.7)"/>
    </g>
   </g>
   <g id="text_10">
    <!-- $p_b-p_s$ -->
    <g transform="translate(184.2 204.57375) scale(0.24 -0.24)">
     <use xlink:href="#Cmmi10-70" transform="translate(0 0.8125)"/>
     <use xlink:href="#Cmmi10-62" transform="translate(50.292969 -16.19375) scale(0.7)"/>
     <use xlink:href="#Cmsy10-a1" transform="translate(104.272852 0.8125)"/>
     <use xlink:href="#Cmmi10-70" transform="translate(199.516992 0.8125)"/>
     <use xlink:href="#Cmmi10-73" transform="translate(249.809961 -16.19375) scale(0.7)"/>
    </g>
   </g>
   <g id="text_11">
    <!-- $\gamma$ -->
    <g transform="translate(183.68 249.085) scale(0.32 -0.32)">
     <defs>
      <path id="Cmmi10-b0" d="M 1888 -1253 
Q 1888 -1109 1952 -834 
Q 2016 -559 2108 -248 
Q 2200 63 2266 263 
Q 2291 581 2291 744 
Q 2291 1156 2209 1511 
Q 2128 1866 1903 2105 
Q 1678 2344 1275 2344 
Q 1063 2344 852 2253 
Q 641 2163 489 2000 
Q 338 1838 281 1631 
Q 269 1594 231 1594 
L 153 1594 
Q 103 1594 103 1650 
L 103 1672 
Q 175 1959 358 2226 
Q 541 2494 805 2661 
Q 1069 2828 1363 2828 
Q 1663 2828 1881 2625 
Q 2100 2422 2231 2109 
Q 2363 1797 2420 1478 
Q 2478 1159 2478 878 
Q 2800 1753 3200 2534 
L 3297 2741 
Q 3316 2759 3341 2759 
L 3419 2759 
Q 3469 2759 3469 2700 
Q 3469 2688 3456 2663 
L 3359 2463 
Q 3081 1909 2848 1340 
Q 2616 772 2450 244 
Q 2425 28 2354 -347 
Q 2284 -722 2184 -1045 
Q 2084 -1369 1984 -1381 
Q 1888 -1381 1888 -1253 
z
" transform="scale(0.015625)"/>
     </defs>
     <use xlink:href="#Cmmi10-b0" transform="translate(0 0.8125)"/>
    </g>
   </g>
   <g id="line2d_1">
    <path d="M 19.2 60.48 
L 96 60.48 
L 96 60.48 
" clip-path="url(#p6dac78318b)" style="fill: none; stroke: #000000; stroke-width: 2"/>
   </g>
   <g id="line2d_2">
    <path d="M 96 60.48 
L 249.6 60.48 
L 249.6 60.48 
" clip-path="url(#p6dac78318b)" style="fill: none; stroke: #000000; stroke-width: 2"/>
   </g>
   <g id="line2d_3">
    <path d="M 249.6 60.48 
L 326.4 60.48 
L 326.4 60.48 
" clip-path="url(#p6dac78318b)" style="fill: none; stroke: #000000; stroke-width: 2"/>
   </g>
   <g id="line2d_4">
    <path d="M 96 60.48 
L 100.864897 57.002003 
L 102.788586 55.808104 
L 104.158065 55.208002 
L 104.602278 55.165658 
L 104.876482 55.305466 
L 104.978656 55.629592 
L 104.911035 56.135642 
L 104.296194 57.661597 
L 103.130314 59.777951 
L 99.794889 65.086013 
L 96.480473 70.371567 
L 95.338919 72.461856 
L 94.754713 73.954988 
L 94.70385 74.443082 
L 94.823197 74.748809 
L 95.114563 74.870229 
L 95.575503 74.809964 
L 96.975494 74.17717 
L 98.923318 72.957412 
L 102.524822 70.399452 
L 108.652096 66.002507 
L 110.551269 64.834875 
L 111.889992 64.267727 
L 112.317415 64.243371 
L 112.574438 64.401588 
L 112.659461 64.744089 
L 112.575146 65.268026 
L 111.929917 66.826539 
L 110.740096 68.968544 
L 107.384681 74.298025 
L 104.092286 79.559984 
L 102.975437 81.623804 
L 102.422107 83.083854 
L 102.388062 83.553929 
L 102.5246 83.841237 
L 102.833104 83.944296 
L 103.310703 83.86618 
L 104.740955 83.200964 
L 106.712526 81.955763 
L 111.617402 78.434932 
L 116.438258 75.004122 
L 118.31254 73.86316 
L 119.620269 73.329218 
L 120.030845 73.322913 
L 120.270669 73.499557 
L 120.33857 73.860405 
L 120.237629 74.402154 
L 119.562268 75.992951 
L 118.348896 78.16019 
L 114.974513 83.509993 
L 111.705147 88.747279 
L 110.613375 90.784231 
L 110.091153 92.21095 
L 110.073983 92.662945 
L 110.227726 92.931819 
L 110.553338 93.016547 
L 111.047527 92.920657 
L 112.50778 92.223297 
L 114.502705 90.953074 
L 119.426036 87.41247 
L 124.223362 84.006871 
L 126.072382 82.892974 
L 127.348889 82.392484 
L 127.742564 82.404288 
L 127.965178 82.599371 
L 128.015986 82.978533 
L 127.898493 83.538017 
L 127.193263 85.160817 
L 125.956736 87.352864 
L 122.564414 92.721888 
L 119.319077 97.933427 
L 118.252748 99.943119 
L 117.76186 101.336267 
L 117.761617 101.770125 
L 117.932574 102.020556 
L 118.275262 102.086988 
L 118.785965 101.973404 
L 120.275954 101.244185 
L 122.293833 99.949368 
L 127.234587 96.390096 
L 132.007385 93.010777 
L 133.830781 91.924335 
L 135.075845 91.457534 
L 135.452569 91.4875 
L 135.657966 91.70103 
L 135.691716 92.098468 
L 135.557747 92.675604 
L 134.822918 94.330117 
L 133.563638 96.546542 
L 130.154409 101.933681 
L 126.934098 107.118407 
L 125.893573 109.100452 
L 125.434235 110.459796 
L 125.450967 110.875468 
L 125.639143 111.107449 
L 125.99887 111.155626 
L 126.526008 111.024432 
L 128.045458 110.263648 
L 130.085886 108.944671 
L 135.043031 105.367838 
L 139.790307 102.015864 
L 141.587722 100.957258 
L 142.80113 100.524374 
L 143.160857 100.572551 
L 143.349033 100.804532 
L 143.365765 101.220204 
L 143.215401 101.814906 
L 142.451252 103.500834 
L 141.169627 105.7412 
L 137.744526 111.145344 
L 134.550231 116.302197 
L 133.535862 118.256217 
L 133.108284 119.581532 
L 133.142034 119.97897 
L 133.347431 120.1925 
L 133.724155 120.222466 
L 134.267646 120.073752 
L 135.816275 119.281703 
L 137.878842 117.939006 
L 142.851339 114.345725 
L 147.572107 111.022152 
L 149.343192 109.991758 
L 150.524738 109.593012 
L 150.867426 109.659444 
L 151.038383 109.909875 
L 151.03814 110.343733 
L 150.547252 111.736881 
L 149.480923 113.746573 
L 147.126904 117.569531 
L 142.167495 125.484773 
L 141.17963 127.410396 
L 140.784014 128.701467 
L 140.834822 129.080629 
L 141.057436 129.275712 
L 141.451111 129.287516 
L 142.010868 129.121374 
L 143.588387 128.298371 
L 145.672678 126.932399 
L 151.926078 122.400319 
L 155.352765 120.029664 
L 157.097175 119.02785 
L 158.246662 118.663453 
L 158.572274 118.748181 
L 158.726017 119.017055 
L 158.708847 119.46905 
L 158.186625 120.895769 
L 157.094853 122.932721 
L 154.718968 126.779108 
L 150.451104 133.51981 
L 149.237732 135.687049 
L 148.562371 137.277846 
L 148.46143 137.819595 
L 148.529331 138.180443 
L 148.769155 138.357087 
L 149.179731 138.350782 
L 149.755663 138.167311 
L 151.361778 137.31367 
L 154.656065 135.084872 
L 163.13226 129.038422 
L 164.849658 128.065549 
L 165.966896 127.735704 
L 166.2754 127.838763 
L 166.411938 128.126071 
L 166.377893 128.596146 
L 165.824563 130.056196 
L 164.707714 132.120016 
L 162.310695 135.989046 
L 158.059904 142.711456 
L 156.870083 144.853461 
L 156.224854 146.411974 
L 156.140539 146.935911 
L 156.225562 147.278412 
L 156.482585 147.436629 
L 156.910008 147.412273 
L 158.248731 146.845125 
L 160.147904 145.677493 
L 163.710101 143.161647 
L 169.876682 138.722588 
L 171.824506 137.50283 
L 173.224497 136.870036 
L 173.685437 136.809771 
L 173.976803 136.931191 
L 174.09615 137.236918 
L 174.045287 137.725012 
L 173.461081 139.218144 
L 172.319527 141.308433 
L 169.902111 145.199317 
L 165.669686 151.902049 
L 164.503806 154.018403 
L 163.888965 155.544358 
L 163.821344 156.050408 
L 163.923518 156.374534 
L 164.197722 156.514342 
L 164.641935 156.471998 
L 166.011414 155.871896 
L 167.935103 154.677997 
L 171.517327 152.140695 
L 172.8 151.2 
L 172.8 151.2 
" clip-path="url(#p6dac78318b)" style="fill: none; stroke: #000000; stroke-width: 2"/>
   </g>
   <g id="line2d_5">
    <path d="M 172.8 151.2 
L 169.474953 145.903056 
L 168.321188 143.799683 
L 167.721634 142.290108 
L 167.662384 141.793027 
L 167.773142 141.478098 
L 168.05593 141.347487 
L 168.508514 141.3988 
L 169.89328 142.015281 
L 171.829085 143.222161 
L 175.421042 145.769892 
L 181.558625 150.177882 
L 183.470103 151.358698 
L 184.824234 151.942356 
L 185.26006 151.975714 
L 185.525675 151.826704 
L 185.619271 151.493387 
L 185.543294 150.978385 
L 184.913228 149.436117 
L 183.735329 147.306886 
L 180.389782 141.987978 
L 177.08625 136.714086 
L 175.957001 134.63698 
L 175.388204 133.160358 
L 175.345743 132.681266 
L 175.473683 132.384746 
L 175.773621 132.272511 
L 176.242899 132.34171 
L 177.658053 132.990749 
L 179.617799 134.223281 
L 184.513064 137.733814 
L 189.345308 141.176826 
L 191.232082 142.331173 
L 192.555337 142.881749 
L 192.974344 142.897087 
L 193.222769 142.729658 
L 193.299227 142.37798 
L 193.20659 141.845128 
L 192.546263 140.270438 
L 191.344617 138.115763 
L 187.97959 132.775984 
L 184.698584 127.526227 
L 183.594227 125.475791 
L 183.056423 124.032376 
L 183.030809 123.571334 
L 183.175947 123.293241 
L 183.493009 123.199352 
L 183.978913 123.286364 
L 185.424198 123.967688 
L 187.407495 125.225453 
L 192.321727 128.756308 
L 197.130944 132.174647 
L 198.99264 133.302125 
L 200.284787 133.819371 
L 200.686919 133.816629 
L 200.918139 133.630767 
L 200.977489 133.260757 
L 200.868263 132.710131 
L 200.177934 131.103297 
L 198.952934 128.9236 
L 195.569453 123.564049 
L 192.311977 118.339502 
L 191.232881 116.316132 
L 190.726299 114.906169 
L 190.717586 114.463235 
L 190.879934 114.203582 
L 191.214089 114.128007 
L 191.716545 114.232754 
L 193.1917 114.94608 
L 195.198152 116.228653 
L 200.130323 119.77873 
L 204.91551 123.171322 
L 206.751763 124.27154 
L 208.012576 124.755214 
L 208.397781 124.734336 
L 208.611787 124.53003 
L 208.654061 124.141725 
L 208.52832 123.573404 
L 207.808257 121.934711 
L 206.560303 119.730421 
L 203.159398 114.352201 
L 199.92645 109.153935 
L 198.872978 107.158019 
L 198.397839 105.781745 
L 198.406078 105.356974 
L 198.585643 105.115767 
L 198.936856 105.058468 
L 199.455787 105.180867 
L 200.96054 105.925907 
L 202.989745 107.232858 
L 207.938824 110.80105 
L 212.698985 114.166828 
L 214.509435 115.2394 
L 215.738697 115.68927 
L 216.106928 115.650205 
L 216.303714 115.427449 
L 216.32895 115.020889 
L 216.186774 114.434959 
L 215.437249 112.7647 
L 214.166745 110.53625 
L 210.74945 105.140469 
L 207.542024 99.969548 
L 206.514533 98.001468 
L 206.07105 96.659111 
L 206.096286 96.252551 
L 206.293072 96.029795 
L 206.661303 95.99073 
L 207.196629 96.130695 
L 208.730703 96.90715 
L 210.782253 98.238042 
L 215.747203 101.823239 
L 220.481348 105.161144 
L 222.265642 106.20569 
L 223.463144 106.621532 
L 223.814357 106.564233 
L 223.993922 106.323026 
L 224.002161 105.898255 
L 223.527022 104.521981 
L 222.47355 102.526065 
L 220.130737 98.715113 
L 215.15872 90.786362 
L 214.15756 88.846495 
L 213.745939 87.538275 
L 213.788213 87.14997 
L 214.002219 86.945664 
L 214.387424 86.924786 
L 214.93906 87.082226 
L 216.50217 87.88979 
L 218.575652 89.244181 
L 224.823611 93.770432 
L 228.26258 96.154246 
L 230.02037 97.170396 
L 231.185911 97.551993 
L 231.520066 97.476418 
L 231.682414 97.216765 
L 231.673701 96.773831 
L 231.167119 95.363868 
L 230.088023 93.340498 
L 227.722979 89.505727 
L 222.776559 81.604401 
L 221.802073 79.693113 
L 221.422511 78.419243 
L 221.481861 78.049233 
L 221.713081 77.863371 
L 222.115213 77.860629 
L 222.683069 78.035447 
L 224.274924 78.87381 
L 227.555031 81.087415 
L 236.042659 87.146114 
L 237.773605 88.133502 
L 238.906991 88.480648 
L 239.224053 88.386759 
L 239.369191 88.108666 
L 239.343577 87.647624 
L 238.805773 86.204209 
L 237.701416 84.153773 
L 235.314872 80.295966 
L 231.055383 73.564237 
L 229.853737 71.409562 
L 229.19341 69.834872 
L 229.100773 69.30202 
L 229.177231 68.950342 
L 229.425656 68.782913 
L 229.844663 68.798251 
L 231.167918 69.348827 
L 233.054692 70.503174 
L 236.606599 73.007994 
L 242.782201 77.456719 
L 244.741947 78.689251 
L 246.157101 79.33829 
L 246.626379 79.407489 
L 246.926317 79.295254 
L 247.054257 78.998734 
L 247.011796 78.519642 
L 246.442999 77.04302 
L 245.31375 74.965914 
L 242.90644 71.085858 
L 238.664671 64.373114 
L 237.486772 62.243883 
L 236.856706 60.701615 
L 236.780729 60.186613 
L 236.874325 59.853296 
L 237.13994 59.704286 
L 237.575766 59.737644 
L 238.929897 60.321302 
L 240.841375 61.502118 
L 244.413679 64.028791 
L 250.570915 68.457839 
L 252.50672 69.664719 
L 253.891486 70.2812 
L 254.34407 70.332513 
L 254.626858 70.201902 
L 254.737616 69.886973 
L 254.678366 69.389892 
L 254.078812 67.880317 
L 252.925047 65.776944 
L 250.497711 61.875432 
L 249.6 60.48 
L 249.6 60.48 
" clip-path="url(#p6dac78318b)" style="fill: none; stroke: #000000; stroke-width: 2"/>
   </g>
   <g id="line2d_6">
    <path d="M 172.8 151.2 
L 177.82726 152.791579 
L 180.11338 153.701053 
L 181.365641 154.383158 
L 182.142198 155.065263 
L 182.373156 155.52 
L 182.367211 155.974737 
L 182.124509 156.429474 
L 181.651057 156.884211 
L 180.535345 157.566316 
L 178.990041 158.248421 
L 175.70179 159.385263 
L 166.495181 162.341053 
L 164.562771 163.250526 
L 163.637712 163.932632 
L 163.301665 164.387368 
L 163.20067 164.842105 
L 163.337225 165.296842 
L 163.707953 165.751579 
L 164.681517 166.433684 
L 166.105951 167.115789 
L 168.566744 168.025263 
L 173.705697 169.616842 
L 178.576418 171.208421 
L 180.667471 172.117895 
L 181.736388 172.8 
L 182.175837 173.254737 
L 182.383266 173.709474 
L 182.353542 174.164211 
L 182.087399 174.618947 
L 181.591424 175.073684 
L 180.444859 175.755789 
L 178.270157 176.665263 
L 174.825516 177.802105 
L 166.963389 180.303158 
L 164.889459 181.212632 
L 163.836274 181.894737 
L 163.408214 182.349474 
L 163.21257 182.804211 
L 163.254182 183.258947 
L 163.532021 183.713684 
L 164.039211 184.168421 
L 165.201097 184.850526 
L 167.392127 185.76 
L 170.848431 186.896842 
L 178.696442 189.397895 
L 180.753121 190.307368 
L 181.790508 190.989474 
L 182.207152 191.444211 
L 182.391 191.898947 
L 182.337503 192.353684 
L 182.047985 192.808421 
L 181.52961 193.263158 
L 180.352477 193.945263 
L 178.145253 194.854737 
L 174.6775 195.991579 
L 166.844092 198.492632 
L 164.804793 199.402105 
L 163.783267 200.084211 
L 163.378066 200.538947 
L 163.206025 200.993684 
L 163.271403 201.448421 
L 163.572583 201.903158 
L 164.102109 202.357895 
L 165.294418 203.04 
L 167.517699 203.949474 
L 170.996685 205.086316 
L 178.207873 207.36 
L 180.398903 208.269474 
L 181.560789 208.951579 
L 182.236133 209.633684 
L 182.396355 210.088421 
L 182.319099 210.543158 
L 182.006278 210.997895 
L 181.465632 211.452632 
L 180.258222 212.134737 
L 178.019022 213.044211 
L 174.529019 214.181053 
L 167.329843 216.454737 
L 165.155141 217.364211 
L 164.008576 218.046316 
L 163.350253 218.728421 
L 163.20186 219.183158 
L 163.290988 219.637895 
L 163.615432 220.092632 
L 164.524207 220.774737 
L 165.892588 221.456842 
L 168.297523 222.366316 
L 173.404298 223.957895 
L 178.332103 225.549474 
L 180.49034 226.458947 
L 181.621514 227.141053 
L 182.262775 227.823158 
L 182.39933 228.277895 
L 182.298335 228.732632 
L 181.962288 229.187368 
L 181.037229 229.869474 
L 179.654706 230.551579 
L 177.23558 231.461053 
L 172.120284 233.052632 
L 167.206294 234.644211 
L 165.064655 235.553684 
L 163.948943 236.235789 
L 163.475491 236.690526 
L 163.232789 237.145263 
L 163.226844 237.6 
L 163.457802 238.054737 
L 163.919948 238.509474 
L 165.02013 239.191579 
L 166.552376 239.873684 
L 169.117512 240.783158 
L 172.8 241.92 
L 172.8 241.92 
" clip-path="url(#p6dac78318b)" style="fill: none; stroke: #000000; stroke-width: 2"/>
   </g>
   <g id="patch_2">
    <path d="M 67.296241 60.48 
L 57.696241 56.16 
L 59.424241 60.48 
L 57.696241 64.8 
z
" clip-path="url(#p6dac78318b)" style="stroke: #000000; stroke-linejoin: miter"/>
   </g>
   <g id="patch_3">
    <path d="M 182.592481 60.48 
L 172.992481 56.16 
L 174.720481 60.48 
L 172.992481 64.8 
z
" clip-path="url(#p6dac78318b)" style="stroke: #000000; stroke-linejoin: miter"/>
   </g>
   <g id="patch_4">
    <path d="M 297.696241 60.48 
L 288.096241 56.16 
L 289.824241 60.48 
L 288.096241 64.8 
z
" clip-path="url(#p6dac78318b)" style="stroke: #000000; stroke-linejoin: miter"/>
   </g>
   <g id="line2d_7"/>
   <g id="line2d_8">
    <defs>
     <path id="med960409db" d="M 0 2 
C 0.530406 2 1.03916 1.789267 1.414214 1.414214 
C 1.789267 1.03916 2 0.530406 2 0 
C 2 -0.530406 1.789267 -1.03916 1.414214 -1.414214 
C 1.03916 -1.789267 0.530406 -2 0 -2 
C -0.530406 -2 -1.03916 -1.789267 -1.414214 -1.414214 
C -1.789267 -1.03916 -2 -0.530406 -2 0 
C -2 0.530406 -1.789267 1.03916 -1.414214 1.414214 
C -1.03916 1.789267 -0.530406 2 0 2 
z
" style="stroke: #000000"/>
    </defs>
    <g clip-path="url(#p6dac78318b)">
     <use xlink:href="#med960409db" x="96" y="60.48" style="stroke: #000000"/>
    </g>
   </g>
   <g id="line2d_9">
    <g clip-path="url(#p6dac78318b)">
     <use xlink:href="#med960409db" x="249.6" y="60.48" style="stroke: #000000"/>
    </g>
   </g>
   <g id="line2d_10"/>
   <g id="line2d_11">
    <g clip-path="url(#p6dac78318b)">
     <use xlink:href="#med960409db" x="172.8" y="151.2" style="stroke: #000000"/>
    </g>
   </g>
   <g id="line2d_12"/>
  </g>
 </g>
 <defs>
  <clipPath id="p6dac78318b">
   <rect x="0" y="0" width="345.6" height="259.2"/>
  </clipPath>
 </defs>
</svg>
