<?xml version="1.0" encoding="utf-8" standalone="no"?>
<!DOCTYPE svg PUBLIC "-//W3C//DTD SVG 1.1//EN"
  "http://www.w3.org/Graphics/SVG/1.1/DTD/svg11.dtd">
<svg xmlns:xlink="http://www.w3.org/1999/xlink" width="259.2pt" height="172.8pt" viewBox="0 0 259.2 172.8" xmlns="http://www.w3.org/2000/svg" version="1.1">
 <metadata>
  <rdf:RDF xmlns:dc="http://purl.org/dc/elements/1.1/" xmlns:cc="http://creativecommons.org/ns#" xmlns:rdf="http://www.w3.org/1999/02/22-rdf-syntax-ns#">
   <cc:Work>
    <dc:type rdf:resource="http://purl.org/dc/dcmitype/StillImage"/>
    <dc:date>2026-02-05T09:54:12.628483</dc:date>
    <dc:format>image/svg+xml</dc:format>
    <dc:creator>
     <cc:Agent>
      <dc:title>Matplotlib v3.10.8, https://matplotlib.org/</dc:title>
     </cc:Agent>
    </dc:creator>
   </cc:Work>
  </rdf:RDF>
 </metadata>
 <defs>
  <style type="text/css">*{stroke-linejoin: round; stroke-linecap: butt}</style>
 </defs>
 <g id="figure_1">
  <g id="patch_1">
   <path d="M 0 172.8 
L 259.2 172.8 
L 259.2 0 
L 0 0 
L 0 172.8 
z
" style="fill: none"/>
  </g>
  <g id="axes_1">
   <g id="matplotlib.axis_1"/>
   <g id="matplotlib.axis_2"/>
   <g id="text_1">
    <!-- $\bar{u}$ -->
    <g transform="translate(203.56 153.88) scale(0.28 -0.28)">
     <defs>
      <path id="Cmr10-b9" d="M 441 3553 
L 441 3775 
L 2753 3775 
L 2753 3553 
L 441 3553 
z
" transform="scale(0.015625)"/>
      <path id="Cmmi10-75" d="M 678 697 
Q 678 906 734 1126 
Q 791 1347 892 1617 
Q 994 1888 1069 2088 
Q 1153 2322 1153 2472 
Q 1153 2663 1013 2663 
Q 759 2663 595 2402 
Q 431 2141 353 1819 
Q 341 1778 300 1778 
L 225 1778 
Q 172 1778 172 1838 
L 172 1856 
Q 275 2238 487 2533 
Q 700 2828 1025 2828 
Q 1253 2828 1411 2678 
Q 1569 2528 1569 2297 
Q 1569 2178 1516 2047 
Q 1488 1969 1388 1706 
Q 1288 1444 1234 1272 
Q 1181 1100 1147 934 
Q 1113 769 1113 603 
Q 1113 391 1203 244 
Q 1294 97 1497 97 
Q 1906 97 2216 603 
Q 2222 628 2226 651 
Q 2231 675 2234 697 
L 2694 2553 
Q 2716 2638 2794 2698 
Q 2872 2759 2963 2759 
Q 3041 2759 3098 2709 
Q 3156 2659 3156 2578 
Q 3156 2541 3150 2528 
L 2688 684 
Q 2644 494 2644 372 
Q 2644 97 2828 97 
Q 3034 97 3136 351 
Q 3238 606 3309 941 
Q 3322 978 3359 978 
L 3438 978 
Q 3463 978 3478 956 
Q 3494 934 3494 916 
Q 3425 641 3361 444 
Q 3297 247 3159 87 
Q 3022 -72 2816 -72 
Q 2613 -72 2452 39 
Q 2291 150 2234 341 
Q 2088 153 1894 40 
Q 1700 -72 1484 -72 
Q 1116 -72 897 129 
Q 678 331 678 697 
z
" transform="scale(0.015625)"/>
     </defs>
     <use xlink:href="#Cmr10-b9" transform="translate(10.403809 2.015625)"/>
     <use xlink:href="#Cmmi10-75" transform="translate(0 0.84375)"/>
    </g>
   </g>
   <g id="text_2">
    <!-- $u$ -->
    <g transform="translate(203.56 115) scale(0.28 -0.28)">
     <use xlink:href="#Cmmi10-75" transform="translate(0 0.8125)"/>
    </g>
   </g>
   <g id="text_3">
    <!-- $d$ -->
    <g transform="translate(204.26 71.8) scale(0.28 -0.28)">
     <defs>
      <path id="Cmmi10-64" d="M 1113 -72 
Q 709 -72 476 233 
Q 244 538 244 953 
Q 244 1363 456 1803 
Q 669 2244 1030 2536 
Q 1391 2828 1806 2828 
Q 1994 2828 2145 2723 
Q 2297 2619 2381 2444 
L 2741 3872 
Q 2766 3981 2772 4044 
Q 2772 4147 2356 4147 
Q 2291 4147 2291 4231 
Q 2294 4247 2305 4287 
Q 2316 4328 2333 4350 
Q 2350 4372 2381 4372 
L 3244 4441 
Q 3322 4441 3322 4359 
L 2400 678 
Q 2356 572 2356 372 
Q 2356 97 2541 97 
Q 2741 97 2845 351 
Q 2950 606 3022 941 
Q 3034 978 3072 978 
L 3150 978 
Q 3175 978 3190 956 
Q 3206 934 3206 916 
Q 3094 469 2961 198 
Q 2828 -72 2528 -72 
Q 2313 -72 2147 54 
Q 1981 181 1941 391 
Q 1528 -72 1113 -72 
z
M 1119 97 
Q 1350 97 1567 270 
Q 1784 444 1941 678 
Q 1947 684 1947 703 
L 2297 2113 
Q 2259 2338 2131 2500 
Q 2003 2663 1791 2663 
Q 1575 2663 1389 2486 
Q 1203 2309 1075 2069 
Q 950 1813 836 1366 
Q 722 919 722 672 
Q 722 450 817 273 
Q 913 97 1119 97 
z
" transform="scale(0.015625)"/>
     </defs>
     <use xlink:href="#Cmmi10-64" transform="translate(0 0.609375)"/>
    </g>
   </g>
   <g id="text_4">
    <!-- $\bar{u}$ -->
    <g transform="translate(203.56 28.6) scale(0.28 -0.28)">
     <use xlink:href="#Cmr10-b9" transform="translate(10.403809 2.015625)"/>
     <use xlink:href="#Cmmi10-75" transform="translate(0 0.84375)"/>
    </g>
   </g>
   <g id="text_5">
    <!-- $s$ -->
    <g transform="translate(40.94 71.8) scale(0.28 -0.28)">
     <defs>
      <path id="Cmmi10-73" d="M 556 391 
Q 728 97 1247 97 
Q 1472 97 1675 173 
Q 1878 250 2011 403 
Q 2144 556 2144 775 
Q 2144 941 2025 1047 
Q 1906 1153 1734 1191 
L 1388 1259 
Q 1150 1319 997 1481 
Q 844 1644 844 1875 
Q 844 2159 998 2378 
Q 1153 2597 1406 2712 
Q 1659 2828 1931 2828 
Q 2222 2828 2451 2689 
Q 2681 2550 2681 2278 
Q 2681 2131 2598 2018 
Q 2516 1906 2369 1906 
Q 2284 1906 2223 1961 
Q 2163 2016 2163 2100 
Q 2163 2175 2205 2245 
Q 2247 2316 2317 2358 
Q 2388 2400 2463 2400 
Q 2406 2538 2251 2600 
Q 2097 2663 1919 2663 
Q 1756 2663 1593 2597 
Q 1431 2531 1332 2404 
Q 1234 2278 1234 2106 
Q 1234 1991 1315 1903 
Q 1397 1816 1516 1778 
L 1888 1703 
Q 2066 1666 2214 1570 
Q 2363 1475 2448 1329 
Q 2534 1184 2534 997 
Q 2534 759 2401 528 
Q 2269 297 2075 159 
Q 1734 -72 1241 -72 
Q 900 -72 615 84 
Q 331 241 331 550 
Q 331 725 432 854 
Q 534 984 709 984 
Q 813 984 883 921 
Q 953 859 953 756 
Q 953 609 843 500 
Q 734 391 588 391 
L 556 391 
z
" transform="scale(0.015625)"/>
     </defs>
     <use xlink:href="#Cmmi10-73" transform="translate(0 0.8125)"/>
    </g>
   </g>
   <g id="text_6">
    <!-- $\bar{u}$ -->
    <g transform="translate(39.4 158.2) scale(0.28 -0.28)">
     <use xlink:href="#Cmr10-b9" transform="translate(10.403809 2.015625)"/>
     <use xlink:href="#Cmmi10-75" transform="translate(0 0.84375)"/>
    </g>
   </g>
   <g id="text_7">
    <!-- $K^-$ -->
    <g transform="translate(0.44 115) scale(0.28 -0.28)">
     <defs>
      <path id="Cmmi10-4b" d="M 300 0 
Q 238 0 238 84 
Q 241 100 250 139 
Q 259 178 276 201 
Q 294 225 319 225 
Q 709 225 863 269 
Q 947 297 984 441 
L 1863 3956 
Q 1875 4019 1875 4044 
Q 1875 4113 1797 4122 
Q 1678 4147 1338 4147 
Q 1275 4147 1275 4231 
Q 1297 4313 1309 4342 
Q 1322 4372 1381 4372 
L 3103 4372 
Q 3169 4372 3169 4288 
Q 3166 4272 3156 4234 
Q 3147 4197 3131 4172 
Q 3116 4147 3084 4147 
Q 2694 4147 2541 4103 
Q 2456 4072 2419 3928 
L 1900 1856 
L 4409 3794 
Q 4416 3806 4489 3879 
Q 4563 3953 4563 4025 
Q 4563 4147 4347 4147 
Q 4281 4147 4281 4231 
Q 4294 4281 4301 4309 
Q 4309 4338 4329 4355 
Q 4350 4372 4391 4372 
L 5631 4372 
Q 5666 4372 5681 4347 
Q 5697 4322 5697 4288 
Q 5694 4272 5683 4231 
Q 5672 4191 5655 4169 
Q 5638 4147 5606 4147 
Q 5138 4147 4581 3713 
Q 4578 3709 4572 3707 
Q 4566 3706 4559 3704 
Q 4553 3703 4550 3700 
L 3231 2675 
L 4191 428 
Q 4278 288 4378 256 
Q 4478 225 4684 225 
Q 4750 225 4750 141 
Q 4731 66 4712 33 
Q 4694 0 4641 0 
L 3156 0 
Q 3097 0 3097 84 
Q 3106 150 3118 187 
Q 3131 225 3181 225 
Q 3344 225 3458 258 
Q 3572 291 3572 409 
Q 3572 453 3566 475 
L 2772 2322 
L 1838 1600 
L 1544 416 
Q 1528 338 1528 325 
Q 1528 259 1606 250 
Q 1728 225 2069 225 
Q 2131 225 2131 141 
Q 2109 50 2096 25 
Q 2084 0 2022 0 
L 300 0 
z
" transform="scale(0.015625)"/>
      <path id="Cmsy10-a1" d="M 653 1472 
Q 600 1472 565 1512 
Q 531 1553 531 1600 
Q 531 1647 565 1687 
Q 600 1728 653 1728 
L 4325 1728 
Q 4375 1728 4408 1687 
Q 4441 1647 4441 1600 
Q 4441 1553 4408 1512 
Q 4375 1472 4325 1472 
L 653 1472 
z
" transform="scale(0.015625)"/>
     </defs>
     <use xlink:href="#Cmmi10-4b" transform="translate(0 0.6875)"/>
     <use xlink:href="#Cmsy10-a1" transform="translate(108.572656 38.951563) scale(0.7)"/>
    </g>
   </g>
   <g id="text_8">
    <!-- $\pi^0$ -->
    <g transform="translate(227.22 136.6) scale(0.28 -0.28)">
     <defs>
      <path id="Cmmi10-bc" d="M 647 109 
Q 647 144 672 213 
Q 850 584 1004 942 
Q 1159 1300 1282 1639 
Q 1406 1978 1509 2363 
L 1100 2363 
Q 866 2363 662 2216 
Q 459 2069 325 1844 
Q 313 1819 288 1819 
L 213 1819 
Q 153 1819 153 1881 
Q 153 1894 166 1919 
Q 375 2275 614 2517 
Q 853 2759 1153 2759 
L 3475 2759 
Q 3541 2759 3587 2715 
Q 3634 2672 3634 2597 
Q 3634 2503 3567 2433 
Q 3500 2363 3406 2363 
L 2591 2363 
Q 2488 1859 2478 1381 
Q 2478 766 2694 269 
Q 2713 231 2713 191 
Q 2713 122 2672 62 
Q 2631 3 2567 -34 
Q 2503 -72 2431 -72 
Q 2263 -72 2200 203 
Q 2138 478 2138 738 
Q 2138 1103 2200 1442 
Q 2263 1781 2400 2363 
L 1703 2363 
Q 1197 313 1094 103 
Q 1003 -72 844 -72 
Q 766 -72 706 -20 
Q 647 31 647 109 
z
" transform="scale(0.015625)"/>
      <path id="Cmr10-30" d="M 1600 -141 
Q 816 -141 533 504 
Q 250 1150 250 2041 
Q 250 2597 351 3087 
Q 453 3578 754 3920 
Q 1056 4263 1600 4263 
Q 2022 4263 2290 4056 
Q 2559 3850 2700 3523 
Q 2841 3197 2892 2823 
Q 2944 2450 2944 2041 
Q 2944 1491 2842 1011 
Q 2741 531 2444 195 
Q 2147 -141 1600 -141 
z
M 1600 25 
Q 1956 25 2131 390 
Q 2306 756 2347 1200 
Q 2388 1644 2388 2144 
Q 2388 2625 2347 3031 
Q 2306 3438 2132 3767 
Q 1959 4097 1600 4097 
Q 1238 4097 1063 3765 
Q 888 3434 847 3029 
Q 806 2625 806 2144 
Q 806 1788 823 1472 
Q 841 1156 916 820 
Q 991 484 1158 254 
Q 1325 25 1600 25 
z
" transform="scale(0.015625)"/>
     </defs>
     <use xlink:href="#Cmmi10-bc" transform="translate(0 0.109375)"/>
     <use xlink:href="#Cmr10-30" transform="translate(63.059297 38.373438) scale(0.7)"/>
    </g>
   </g>
   <g id="text_9">
    <!-- $\pi^-$ -->
    <g transform="translate(221.06 50.2) scale(0.28 -0.28)">
     <use xlink:href="#Cmmi10-bc" transform="translate(0 0.835938)"/>
     <use xlink:href="#Cmsy10-a1" transform="translate(75.350313 39.1) scale(0.7)"/>
    </g>
   </g>
   <g id="line2d_1">
    <path d="M 60.48 64.8 
L 129.6 64.8 
L 129.6 64.8 
" clip-path="url(#pbf9abfcd7f)" style="fill: none; stroke: #000000; stroke-width: 2"/>
   </g>
   <g id="line2d_2">
    <path d="M 129.6 64.8 
L 198.72 108 
L 198.72 108 
" clip-path="url(#pbf9abfcd7f)" style="fill: none; stroke: #000000; stroke-width: 2"/>
   </g>
   <g id="line2d_3">
    <path d="M 129.6 64.8 
L 198.72 64.8 
L 198.72 64.8 
" clip-path="url(#pbf9abfcd7f)" style="fill: none; stroke: #000000; stroke-width: 2"/>
   </g>
   <g id="line2d_4">
    <path d="M 198.72 21.6 
L 129.6 64.8 
L 129.6 64.8 
" clip-path="url(#pbf9abfcd7f)" style="fill: none; stroke: #000000; stroke-width: 2"/>
   </g>
   <g id="line2d_5">
    <path d="M 198.72 151.2 
L 60.48 151.2 
L 60.48 151.2 
" clip-path="url(#pbf9abfcd7f)" style="fill: none; stroke: #000000; stroke-width: 2"/>
   </g>
   <g id="patch_2">
    <path d="M 105.926617 64.8 
L 95.126617 60.48 
L 97.070617 64.8 
L 95.126617 69.12 
z
" clip-path="url(#pbf9abfcd7f)" style="stroke: #000000; stroke-linejoin: miter"/>
   </g>
   <g id="patch_3">
    <path d="M 173.404998 92.178124 
L 166.536212 82.790783 
L 165.895125 87.484453 
L 161.957021 90.117488 
z
" clip-path="url(#pbf9abfcd7f)" style="stroke: #000000; stroke-linejoin: miter"/>
   </g>
   <g id="patch_4">
    <path d="M 175.046617 64.8 
L 164.246617 60.48 
L 166.190617 64.8 
L 164.246617 69.12 
z
" clip-path="url(#pbf9abfcd7f)" style="stroke: #000000; stroke-linejoin: miter"/>
   </g>
   <g id="patch_5">
    <path d="M 154.915002 48.978124 
L 166.362979 46.917488 
L 162.424875 44.284453 
L 161.783788 39.590783 
z
" clip-path="url(#pbf9abfcd7f)" style="stroke: #000000; stroke-linejoin: miter"/>
   </g>
   <g id="patch_6">
    <path d="M 118.626767 151.2 
L 129.426767 155.52 
L 127.482767 151.2 
L 129.426767 146.88 
z
" clip-path="url(#pbf9abfcd7f)" style="stroke: #000000; stroke-linejoin: miter"/>
   </g>
   <g id="line2d_6"/>
   <g id="line2d_7"/>
   <g id="line2d_8">
    <defs>
     <path id="mc635dfa588" d="M 0 4 
C 1.060812 4 2.078319 3.578535 2.828427 2.828427 
C 3.578535 2.078319 4 1.060812 4 0 
C 4 -1.060812 3.578535 -2.078319 2.828427 -2.828427 
C 2.078319 -3.578535 1.060812 -4 0 -4 
C -1.060812 -4 -2.078319 -3.578535 -2.828427 -2.828427 
C -3.578535 -2.078319 -4 -1.060812 -4 0 
C -4 1.060812 -3.578535 2.078319 -2.828427 2.828427 
C -2.078319 3.578535 -1.060812 4 0 4 
z
" style="stroke: #000000"/>
    </defs>
    <g clip-path="url(#pbf9abfcd7f)">
     <use xlink:href="#mc635dfa588" x="129.6" y="64.8" style="stroke: #000000"/>
    </g>
   </g>
   <g id="line2d_9"/>
   <g id="line2d_10"/>
   <g id="line2d_11"/>
   <g id="line2d_12"/>
  </g>
 </g>
 <defs>
  <clipPath id="pbf9abfcd7f">
   <rect x="0" y="0" width="259.2" height="172.8"/>
  </clipPath>
 </defs>
</svg>
