<?xml version="1.0" encoding="utf-8" standalone="no"?>
<!DOCTYPE svg PUBLIC "-//W3C//DTD SVG 1.1//EN"
  "http://www.w3.org/Graphics/SVG/1.1/DTD/svg11.dtd">
<svg xmlns:xlink="http://www.w3.org/1999/xlink" width="259.2pt" height="172.8pt" viewBox="0 0 259.2 172.8" xmlns="http://www.w3.org/2000/svg" version="1.1">
 <metadata>
  <rdf:RDF xmlns:dc="http://purl.org/dc/elements/1.1/" xmlns:cc="http://creativecommons.org/ns#" xmlns:rdf="http://www.w3.org/1999/02/22-rdf-syntax-ns#">
   <cc:Work>
    <dc:type rdf:resource="http://purl.org/dc/dcmitype/StillImage"/>
    <dc:date>2026-01-31T11:31:18.174798</dc:date>
    <dc:format>image/svg+xml</dc:format>
    <dc:creator>
     <cc:Agent>
      <dc:title>Matplotlib v3.10.8, https://matplotlib.org/</dc:title>
     </cc:Agent>
    </dc:creator>
   </cc:Work>
  </rdf:RDF>
 </metadata>
 <defs>
  <style type="text/css">*{stroke-linejoin: round; stroke-linecap: butt}</style>
 </defs>
 <g id="figure_1">
  <g id="patch_1">
   <path d="M 0 172.8 
L 259.2 172.8 
L 259.2 0 
L 0 0 
L 0 172.8 
z
" style="fill: none"/>
  </g>
  <g id="axes_1">
   <g id="matplotlib.axis_1"/>
   <g id="matplotlib.axis_2"/>
   <g id="text_1">
    <!-- $\bar{q}_1$ -->
    <g style="fill: #ffffff" transform="translate(216.9 159.980625) scale(0.36 -0.36)">
     <defs>
      <path id="Cmr10-b9" d="M 441 3553 
L 441 3775 
L 2753 3775 
L 2753 3553 
L 441 3553 
z
" transform="scale(0.015625)"/>
      <path id="Cmmi10-71" d="M 941 -1159 
Q 963 -1019 1025 -1019 
Q 1256 -1019 1389 -981 
Q 1522 -944 1563 -800 
L 1838 288 
Q 1472 -72 1106 -72 
Q 703 -72 473 233 
Q 244 538 244 953 
Q 244 1363 455 1803 
Q 666 2244 1027 2536 
Q 1388 2828 1806 2828 
Q 2000 2828 2156 2712 
Q 2313 2597 2394 2406 
Q 2431 2481 2601 2654 
Q 2772 2828 2841 2828 
Q 2913 2828 2913 2747 
L 2016 -825 
Q 2000 -919 1997 -934 
Q 1997 -1019 2419 -1019 
Q 2450 -1019 2467 -1044 
Q 2484 -1069 2484 -1100 
Q 2463 -1184 2448 -1212 
Q 2434 -1241 2375 -1241 
L 1006 -1241 
Q 941 -1241 941 -1159 
z
M 1119 97 
Q 1344 97 1558 267 
Q 1772 438 1931 672 
L 2291 2113 
Q 2253 2338 2126 2500 
Q 2000 2663 1791 2663 
Q 1575 2663 1389 2486 
Q 1203 2309 1075 2069 
Q 950 1813 836 1366 
Q 722 919 722 672 
Q 722 450 817 273 
Q 913 97 1119 97 
z
" transform="scale(0.015625)"/>
      <path id="Cmr10-31" d="M 594 0 
L 594 225 
Q 1394 225 1394 428 
L 1394 3788 
Q 1063 3628 556 3628 
L 556 3853 
Q 1341 3853 1741 4263 
L 1831 4263 
Q 1853 4263 1873 4245 
Q 1894 4228 1894 4206 
L 1894 428 
Q 1894 225 2694 225 
L 2694 0 
L 594 0 
z
" transform="scale(0.015625)"/>
     </defs>
     <use xlink:href="#Cmr10-b9" transform="translate(3.254395 2.015625)"/>
     <use xlink:href="#Cmmi10-71" transform="translate(0 0.84375)"/>
     <use xlink:href="#Cmr10-31" transform="translate(49.044219 -16.1625) scale(0.7)"/>
    </g>
   </g>
   <g id="text_2">
    <!-- $q_2$ -->
    <g style="fill: #ffffff" transform="translate(217.8 30.380625) scale(0.36 -0.36)">
     <defs>
      <path id="Cmr10-32" d="M 319 0 
L 319 172 
Q 319 188 331 206 
L 1325 1306 
Q 1550 1550 1690 1715 
Q 1831 1881 1968 2097 
Q 2106 2313 2186 2536 
Q 2266 2759 2266 3009 
Q 2266 3272 2169 3511 
Q 2072 3750 1880 3894 
Q 1688 4038 1416 4038 
Q 1138 4038 916 3870 
Q 694 3703 603 3438 
Q 628 3444 672 3444 
Q 816 3444 917 3347 
Q 1019 3250 1019 3097 
Q 1019 2950 917 2848 
Q 816 2747 672 2747 
Q 522 2747 420 2851 
Q 319 2956 319 3097 
Q 319 3338 409 3548 
Q 500 3759 670 3923 
Q 841 4088 1055 4175 
Q 1269 4263 1509 4263 
Q 1875 4263 2190 4108 
Q 2506 3953 2690 3670 
Q 2875 3388 2875 3009 
Q 2875 2731 2753 2481 
Q 2631 2231 2440 2026 
Q 2250 1822 1953 1562 
Q 1656 1303 1563 1216 
L 838 519 
L 1453 519 
Q 1906 519 2211 526 
Q 2516 534 2534 550 
Q 2609 631 2688 1141 
L 2875 1141 
L 2694 0 
L 319 0 
z
" transform="scale(0.015625)"/>
     </defs>
     <use xlink:href="#Cmmi10-71" transform="translate(0 0.8125)"/>
     <use xlink:href="#Cmr10-32" transform="translate(44.580078 -16.19375) scale(0.7)"/>
    </g>
   </g>
   <g id="text_3">
    <!-- $\bar{q}_3$ -->
    <g style="fill: #ffffff" transform="translate(9.54 159.980625) scale(0.36 -0.36)">
     <defs>
      <path id="Cmr10-33" d="M 609 494 
Q 759 275 1012 169 
Q 1266 63 1556 63 
Q 1928 63 2084 380 
Q 2241 697 2241 1100 
Q 2241 1281 2208 1462 
Q 2175 1644 2097 1800 
Q 2019 1956 1883 2050 
Q 1747 2144 1550 2144 
L 1125 2144 
Q 1069 2144 1069 2203 
L 1069 2259 
Q 1069 2309 1125 2309 
L 1478 2338 
Q 1703 2338 1851 2506 
Q 2000 2675 2069 2917 
Q 2138 3159 2138 3378 
Q 2138 3684 1994 3881 
Q 1850 4078 1556 4078 
Q 1313 4078 1091 3986 
Q 869 3894 738 3706 
Q 750 3709 759 3711 
Q 769 3713 781 3713 
Q 925 3713 1022 3613 
Q 1119 3513 1119 3372 
Q 1119 3234 1022 3134 
Q 925 3034 781 3034 
Q 641 3034 541 3134 
Q 441 3234 441 3372 
Q 441 3647 606 3850 
Q 772 4053 1033 4158 
Q 1294 4263 1556 4263 
Q 1750 4263 1965 4205 
Q 2181 4147 2356 4039 
Q 2531 3931 2642 3762 
Q 2753 3594 2753 3378 
Q 2753 3109 2633 2881 
Q 2513 2653 2303 2487 
Q 2094 2322 1844 2241 
Q 2122 2188 2372 2031 
Q 2622 1875 2773 1631 
Q 2925 1388 2925 1106 
Q 2925 753 2731 467 
Q 2538 181 2222 20 
Q 1906 -141 1556 -141 
Q 1256 -141 954 -26 
Q 653 88 461 316 
Q 269 544 269 863 
Q 269 1022 375 1128 
Q 481 1234 641 1234 
Q 744 1234 830 1186 
Q 916 1138 964 1050 
Q 1013 963 1013 863 
Q 1013 706 903 600 
Q 794 494 641 494 
L 609 494 
z
" transform="scale(0.015625)"/>
     </defs>
     <use xlink:href="#Cmr10-b9" transform="translate(3.254395 2.015625)"/>
     <use xlink:href="#Cmmi10-71" transform="translate(0 0.84375)"/>
     <use xlink:href="#Cmr10-33" transform="translate(49.044219 -16.1625) scale(0.7)"/>
    </g>
   </g>
   <g id="text_4">
    <!-- $q_4$ -->
    <g style="fill: #ffffff" transform="translate(10.44 30.380625) scale(0.36 -0.36)">
     <defs>
      <path id="Cmr10-34" d="M 178 1056 
L 178 1281 
L 2156 4231 
Q 2178 4263 2222 4263 
L 2316 4263 
Q 2388 4263 2388 4191 
L 2388 1281 
L 3016 1281 
L 3016 1056 
L 2388 1056 
L 2388 428 
Q 2388 297 2575 261 
Q 2763 225 3009 225 
L 3009 0 
L 1247 0 
L 1247 225 
Q 1494 225 1681 261 
Q 1869 297 1869 428 
L 1869 1056 
L 178 1056 
z
M 391 1281 
L 1906 1281 
L 1906 3547 
L 391 1281 
z
" transform="scale(0.015625)"/>
     </defs>
     <use xlink:href="#Cmmi10-71" transform="translate(0 0.8125)"/>
     <use xlink:href="#Cmr10-34" transform="translate(44.580078 -16.19375) scale(0.7)"/>
    </g>
   </g>
   <g id="line2d_1">
    <path d="M 86.4 120.96 
L 43.2 155.52 
L 43.2 155.52 
" clip-path="url(#p450187f0e8)" style="fill: none; stroke: #ffffff; stroke-width: 2"/>
   </g>
   <g id="line2d_2">
    <path d="M 129.6 86.4 
L 86.4 120.96 
L 86.4 120.96 
" clip-path="url(#p450187f0e8)" style="fill: none; stroke: #ffffff; stroke-width: 2"/>
   </g>
   <g id="line2d_3">
    <path d="M 43.2 17.28 
L 129.6 86.4 
L 129.6 86.4 
" clip-path="url(#p450187f0e8)" style="fill: none; stroke: #ffffff; stroke-width: 2"/>
   </g>
   <g id="line2d_4">
    <path d="M 172.8 51.84 
L 129.6 86.4 
L 129.6 86.4 
" clip-path="url(#p450187f0e8)" style="fill: none; stroke: #ffffff; stroke-width: 2"/>
   </g>
   <g id="line2d_5">
    <path d="M 216 17.28 
L 172.8 51.84 
L 172.8 51.84 
" clip-path="url(#p450187f0e8)" style="fill: none; stroke: #ffffff; stroke-width: 2"/>
   </g>
   <g id="line2d_6">
    <path d="M 129.6 86.4 
L 216 155.52 
L 216 155.52 
" clip-path="url(#p450187f0e8)" style="fill: none; stroke: #ffffff; stroke-width: 2"/>
   </g>
   <g id="line2d_7">
    <path d="M 86.4 120.96 
L 85.632811 119.892772 
L 84.973058 118.75925 
L 84.427712 117.572491 
L 84.002133 116.346285 
L 83.699996 115.094967 
L 83.52324 113.833203 
L 83.472037 112.575787 
L 83.544789 111.337424 
L 83.738159 110.132521 
L 84.047109 108.974979 
L 84.464982 107.877998 
L 84.983592 106.853885 
L 85.593345 105.913876 
L 86.283374 105.067981 
L 87.0417 104.324837 
L 87.855401 103.691587 
L 88.710797 103.173776 
L 89.593649 102.775276 
L 90.489363 102.498228 
L 91.383195 102.343015 
L 92.260469 102.308257 
L 93.106781 102.390832 
L 93.90821 102.585919 
L 94.651512 102.887075 
L 95.324315 103.28632 
L 95.91529 103.774259 
L 96.414314 104.340214 
L 96.812616 104.97238 
L 97.102898 105.657991 
L 97.279442 106.383508 
L 97.338187 107.134809 
L 97.276786 107.897396 
L 97.094642 108.656595 
L 96.79291 109.397774 
L 96.374483 110.106547 
L 95.843944 110.768979 
L 95.207507 111.371787 
L 94.47292 111.902526 
L 93.649357 112.349767 
L 92.747284 112.703261 
L 91.778309 112.954078 
L 90.755018 113.094739 
L 89.690791 113.119318 
L 88.599616 113.023525 
L 87.495885 112.804767 
L 86.39419 112.462178 
L 85.309119 111.996637 
L 84.255045 111.410749 
L 83.245923 110.708806 
L 82.295096 109.896725 
L 81.4151 108.981965 
L 80.617496 107.973414 
L 79.912699 106.881268 
L 79.309838 105.716879 
L 78.816625 104.492597 
L 78.43925 103.221592 
L 78.182293 101.917669 
L 78.048665 100.595071 
L 78.039566 99.268274 
L 78.15447 97.95179 
L 78.391137 96.659953 
L 78.745648 95.406725 
L 79.212459 94.205495 
L 79.784484 93.068891 
L 80.453195 92.008609 
L 81.208747 91.03524 
L 82.040119 90.15813 
L 82.935267 89.385249 
L 83.881297 88.723079 
L 84.864649 88.176526 
L 85.871289 87.748854 
L 86.886903 87.44164 
L 87.897104 87.254758 
L 88.887629 87.186377 
L 89.844546 87.232998 
L 90.754441 87.389498 
L 91.604612 87.649209 
L 92.383241 88.004011 
L 93.079566 88.44445 
L 93.68402 88.959873 
L 94.188374 89.538578 
L 94.585841 90.167979 
L 94.871177 90.834785 
L 95.040747 91.525188 
L 95.092573 92.225053 
L 95.026366 92.92012 
L 94.84352 93.596204 
L 94.547095 94.239391 
L 94.141769 94.836232 
L 93.633774 95.373933 
L 93.030804 95.840528 
L 92.341908 96.225053 
L 91.577358 96.517688 
L 90.74851 96.7099 
L 89.867642 96.794555 
L 88.947778 96.766022 
L 88.002514 96.620241 
L 87.045819 96.354788 
L 86.091849 95.968897 
L 85.154743 95.463474 
L 84.248431 94.841083 
L 83.386439 94.105907 
L 82.581703 93.263685 
L 81.846389 92.321638 
L 81.191727 91.288361 
L 80.627853 90.173706 
L 80.163674 88.988641 
L 79.806745 87.7451 
L 79.563165 86.455814 
L 79.437495 85.13414 
L 79.432696 83.793866 
L 79.550092 82.449029 
L 79.789351 81.113717 
L 80.148494 79.801874 
L 80.623922 78.527111 
L 81.210471 77.302514 
L 81.901479 76.140469 
L 82.688888 75.052488 
L 83.563348 74.049057 
L 84.514355 73.139487 
L 85.53039 72.331789 
L 86.599087 71.632569 
L 87.707396 71.046932 
L 88.841768 70.578422 
L 89.988343 70.228968 
L 91.133136 69.998863 
L 92.262235 69.886762 
L 94.419201 70.00314 
L 96.356503 70.535895 
L 97.984153 71.420162 
L 99.229809 72.572018 
L 100.04269 73.893125 
L 100.396318 75.276145 
L 100.399653 75.956311 
L 100.289909 76.610627 
L 100.071001 77.225792 
L 99.748372 77.789063 
L 99.328921 78.288425 
L 98.820899 78.712759 
L 98.233801 79.051987 
L 97.578233 79.297217 
L 96.865766 79.440859 
L 96.108775 79.476732 
L 95.320273 79.400143 
L 94.513729 79.207956 
L 93.702882 78.898629 
L 92.90156 78.472238 
L 92.123482 77.930471 
L 91.382075 77.27661 
L 90.690292 76.515479 
L 90.060431 75.653384 
L 89.50397 74.69802 
L 89.03141 73.658368 
L 88.652133 72.544573 
L 88.374273 71.367806 
L 88.204606 70.140105 
L 88.148458 68.874217 
L 88.209632 67.583424 
L 88.390361 66.281357 
L 88.691272 64.981813 
L 89.111383 63.698568 
L 89.648113 62.445188 
L 90.297323 61.234845 
L 91.053366 60.080137 
L 91.909172 58.992919 
L 92.856337 57.984138 
L 93.885246 57.063691 
L 94.985197 56.240283 
L 96.144552 55.521317 
L 97.350892 54.912785 
L 98.591189 54.419198 
L 99.851984 54.043515 
L 101.119565 53.787111 
L 102.380161 53.649754 
L 103.620123 53.629612 
L 104.826113 53.723278 
L 107.085456 54.230831 
L 109.064386 55.115949 
L 110.684756 56.302042 
L 111.888302 57.696571 
L 112.639786 59.196073 
L 112.928895 60.691792 
L 112.770785 62.075584 
L 112.535545 62.693331 
L 112.205244 63.245791 
L 111.788348 63.722175 
L 111.294524 64.112759 
L 110.734508 64.409011 
L 110.119956 64.603711 
L 109.463291 64.691048 
L 108.777527 64.6667 
L 108.076096 64.527892 
L 107.372665 64.273434 
L 106.680945 63.903742 
L 106.014513 63.420824 
L 105.386617 62.828262 
L 104.810002 62.131157 
L 104.296734 61.336066 
L 103.858034 60.450906 
L 103.50413 59.484853 
L 103.24411 58.448216 
L 103.085802 57.352293 
L 103.035669 56.209225 
L 103.098714 55.031822 
L 103.278417 53.833399 
L 103.576684 52.627586 
L 103.993822 51.428148 
L 104.528532 50.248796 
L 105.177928 49.103001 
L 105.937572 48.003811 
L 106.80154 46.963669 
L 107.762495 45.994252 
L 108.811791 45.106304 
L 109.939587 44.30949 
L 111.13498 43.612272 
L 112.386159 43.021781 
L 113.680555 42.54373 
L 115.005022 42.182331 
L 116.346009 41.940236 
L 117.689745 41.818502 
L 119.02243 41.816577 
L 120.33042 41.932304 
L 121.600413 42.161952 
L 122.819632 42.500267 
L 123.975998 42.940539 
L 125.058294 43.474697 
L 126.05632 44.093416 
L 126.961034 44.786246 
L 128.460858 46.347672 
L 129.512801 48.058567 
L 130.0964 49.810823 
L 130.21683 51.494509 
L 129.904646 53.003876 
L 129.214141 54.243129 
L 128.749777 54.735556 
L 128.220409 55.131676 
L 127.638003 55.424517 
L 127.015263 55.608555 
L 126.365458 55.679789 
L 125.702237 55.635799 
L 125.039446 55.475779 
L 124.390934 55.200551 
L 123.770365 54.812553 
L 123.19103 54.315811 
L 122.665663 53.715881 
L 122.206265 53.019776 
L 121.82394 52.235872 
L 121.528738 51.373792 
L 121.329519 50.444278 
L 121.233829 49.45904 
L 121.247792 48.430601 
L 121.376027 47.372124 
L 121.621582 46.297227 
L 121.985888 45.219805 
L 122.46874 44.15383 
L 123.068297 43.113164 
L 123.781103 42.111367 
L 124.602137 41.161509 
L 125.524876 40.275989 
L 126.541386 39.466366 
L 127.642426 38.743194 
L 128.817578 38.11588 
L 130.055387 37.592549 
L 131.343515 37.179934 
L 132.668917 36.883277 
L 134.018013 36.706259 
L 135.376878 36.650946 
L 136.731433 36.717755 
L 138.067643 36.905454 
L 139.371703 37.211167 
L 140.630236 37.63042 
L 141.830477 38.157199 
L 142.960448 38.784027 
L 144.009127 39.502072 
L 144.966599 40.301263 
L 145.824199 41.170432 
L 146.574628 42.097462 
L 147.212062 43.069461 
L 147.732228 44.072934 
L 148.13247 45.093971 
L 148.411785 46.118444 
L 148.57084 47.132195 
L 148.611964 48.121241 
L 148.539118 49.071963 
L 148.357843 49.9713 
L 148.07518 50.806927 
L 147.699581 51.567432 
L 147.240785 52.242473 
L 146.70969 52.822927 
L 146.118198 53.301014 
L 145.479054 53.670413 
L 144.805664 53.926346 
L 144.111913 54.065652 
L 143.41197 54.086831 
L 142.720088 53.990068 
L 142.050408 53.77723 
L 141.416758 53.451846 
L 140.832459 53.019057 
L 140.31014 52.485548 
L 139.861557 51.859457 
L 139.497428 51.150257 
L 139.227283 50.368635 
L 139.059324 49.526335 
L 139.000311 48.635997 
L 139.055465 47.710985 
L 139.228389 46.765194 
L 139.521019 45.812859 
L 139.933594 44.868354 
L 140.464645 43.945992 
L 141.111018 43.059819 
L 141.867916 42.223422 
L 142.728959 41.449731 
L 143.686278 40.75084 
L 144.730617 40.137833 
L 145.851469 39.620627 
L 147.037213 39.20783 
L 148.275286 38.90662 
L 149.55235 38.722636 
L 150.854486 38.659904 
L 152.167385 38.720769 
L 153.476552 38.905868 
L 154.76751 39.214111 
L 156.026003 39.642701 
L 157.238202 40.187165 
L 158.390896 40.84142 
L 159.471681 41.597851 
L 160.469141 42.447424 
L 161.373006 43.379808 
L 162.1743 44.383518 
L 162.865469 45.44608 
L 163.440494 46.554206 
L 163.894974 47.693979 
L 164.226189 48.851053 
L 164.433147 50.010852 
L 164.516593 51.158782 
L 164.479003 52.280434 
L 164.324553 53.361791 
L 164.059057 54.389428 
L 163.68989 55.350701 
L 163.225881 56.233931 
L 162.677192 57.028569 
L 162.05517 57.72535 
L 161.372191 58.316422 
L 160.641485 58.795464 
L 159.876941 59.157772 
L 159.092918 59.400334 
L 158.304034 59.521869 
L 157.524963 59.522851 
L 156.770219 59.405499 
L 156.053954 59.173752 
L 155.389754 58.83321 
L 154.79044 58.391056 
L 154.267892 57.855958 
L 153.832871 57.23794 
L 153.494867 56.548247 
L 153.261964 55.799176 
L 153.14072 55.00391 
L 153.136073 54.176322 
L 153.25127 53.330784 
L 153.487819 52.481954 
L 153.845465 51.644572 
L 154.322195 50.833245 
L 154.914263 50.062242 
L 155.616243 49.345283 
L 156.421109 48.695348 
L 157.320331 48.124487 
L 158.303996 47.643648 
L 159.360955 47.26252 
L 160.478976 46.989392 
L 161.644922 46.831033 
L 162.844937 46.792598 
L 164.064648 46.87755 
L 165.289368 47.087609 
L 166.504305 47.422731 
L 167.694778 47.881105 
L 168.846426 48.459179 
L 169.945411 49.151709 
L 170.97862 49.951839 
L 171.933855 50.851194 
L 172.8 51.84 
L 172.8 51.84 
" clip-path="url(#p450187f0e8)" style="fill: none; stroke: #ffffff; stroke-width: 2"/>
   </g>
   <g id="patch_2">
    <path d="M 56.312482 145.030015 
L 67.444547 141.656662 
L 63.227856 139.497715 
L 62.047182 134.909955 
z
" clip-path="url(#p450187f0e8)" style="fill: #ffffff; stroke: #ffffff; stroke-linejoin: miter"/>
   </g>
   <g id="patch_3">
    <path d="M 99.512482 110.470015 
L 110.644547 107.096662 
L 106.427856 104.937715 
L 105.247182 100.349955 
z
" clip-path="url(#p450187f0e8)" style="fill: #ffffff; stroke: #ffffff; stroke-linejoin: miter"/>
   </g>
   <g id="patch_4">
    <path d="M 94.941654 58.673323 
L 89.206953 48.553263 
L 88.02628 53.141024 
L 83.809588 55.29997 
z
" clip-path="url(#p450187f0e8)" style="fill: #ffffff; stroke: #ffffff; stroke-linejoin: miter"/>
   </g>
   <g id="patch_5">
    <path d="M 142.712482 75.910015 
L 153.844547 72.536662 
L 149.627856 70.377715 
L 148.447182 65.789955 
z
" clip-path="url(#p450187f0e8)" style="fill: #ffffff; stroke: #ffffff; stroke-linejoin: miter"/>
   </g>
   <g id="patch_6">
    <path d="M 185.912482 41.350015 
L 197.044547 37.976662 
L 192.827856 35.817715 
L 191.647182 31.229955 
z
" clip-path="url(#p450187f0e8)" style="fill: #ffffff; stroke: #ffffff; stroke-linejoin: miter"/>
   </g>
   <g id="patch_7">
    <path d="M 181.341654 127.793323 
L 175.606953 117.673263 
L 174.42628 122.261024 
L 170.209588 124.41997 
z
" clip-path="url(#p450187f0e8)" style="fill: #ffffff; stroke: #ffffff; stroke-linejoin: miter"/>
   </g>
   <g id="line2d_8"/>
   <g id="line2d_9"/>
   <g id="line2d_10">
    <defs>
     <path id="m0234a5281e" d="M 0 2 
C 0.530406 2 1.03916 1.789267 1.414214 1.414214 
C 1.789267 1.03916 2 0.530406 2 0 
C 2 -0.530406 1.789267 -1.03916 1.414214 -1.414214 
C 1.03916 -1.789267 0.530406 -2 0 -2 
C -0.530406 -2 -1.03916 -1.789267 -1.414214 -1.414214 
C -1.789267 -1.03916 -2 -0.530406 -2 0 
C -2 0.530406 -1.789267 1.03916 -1.414214 1.414214 
C -1.03916 1.789267 -0.530406 2 0 2 
z
" style="stroke: #ffffff"/>
    </defs>
    <g clip-path="url(#p450187f0e8)">
     <use xlink:href="#m0234a5281e" x="129.6" y="86.4" style="fill: #ffffff; stroke: #ffffff"/>
    </g>
   </g>
   <g id="line2d_11"/>
   <g id="line2d_12"/>
   <g id="line2d_13">
    <g clip-path="url(#p450187f0e8)">
     <use xlink:href="#m0234a5281e" x="86.4" y="120.96" style="fill: #ffffff; stroke: #ffffff"/>
    </g>
   </g>
   <g id="line2d_14">
    <g clip-path="url(#p450187f0e8)">
     <use xlink:href="#m0234a5281e" x="172.8" y="51.84" style="fill: #ffffff; stroke: #ffffff"/>
    </g>
   </g>
  </g>
 </g>
 <defs>
  <clipPath id="p450187f0e8">
   <rect x="0" y="0" width="259.2" height="172.8"/>
  </clipPath>
 </defs>
</svg>
