<?xml version="1.0" encoding="utf-8" standalone="no"?>
<!DOCTYPE svg PUBLIC "-//W3C//DTD SVG 1.1//EN"
  "http://www.w3.org/Graphics/SVG/1.1/DTD/svg11.dtd">
<svg xmlns:xlink="http://www.w3.org/1999/xlink" width="259.2pt" height="172.8pt" viewBox="0 0 259.2 172.8" xmlns="http://www.w3.org/2000/svg" version="1.1">
 <metadata>
  <rdf:RDF xmlns:dc="http://purl.org/dc/elements/1.1/" xmlns:cc="http://creativecommons.org/ns#" xmlns:rdf="http://www.w3.org/1999/02/22-rdf-syntax-ns#">
   <cc:Work>
    <dc:type rdf:resource="http://purl.org/dc/dcmitype/StillImage"/>
    <dc:date>2026-01-31T11:32:22.998126</dc:date>
    <dc:format>image/svg+xml</dc:format>
    <dc:creator>
     <cc:Agent>
      <dc:title>Matplotlib v3.10.8, https://matplotlib.org/</dc:title>
     </cc:Agent>
    </dc:creator>
   </cc:Work>
  </rdf:RDF>
 </metadata>
 <defs>
  <style type="text/css">*{stroke-linejoin: round; stroke-linecap: butt}</style>
 </defs>
 <g id="figure_1">
  <g id="patch_1">
   <path d="M 0 172.8 
L 259.2 172.8 
L 259.2 0 
L 0 0 
L 0 172.8 
z
" style="fill: none"/>
  </g>
  <g id="axes_1">
   <g id="matplotlib.axis_1"/>
   <g id="matplotlib.axis_2"/>
   <g id="text_1">
    <!-- $\bar{q}_1$ -->
    <g transform="translate(216.9 159.980625) scale(0.36 -0.36)">
     <defs>
      <path id="Cmr10-b9" d="M 441 3553 
L 441 3775 
L 2753 3775 
L 2753 3553 
L 441 3553 
z
" transform="scale(0.015625)"/>
      <path id="Cmmi10-71" d="M 941 -1159 
Q 963 -1019 1025 -1019 
Q 1256 -1019 1389 -981 
Q 1522 -944 1563 -800 
L 1838 288 
Q 1472 -72 1106 -72 
Q 703 -72 473 233 
Q 244 538 244 953 
Q 244 1363 455 1803 
Q 666 2244 1027 2536 
Q 1388 2828 1806 2828 
Q 2000 2828 2156 2712 
Q 2313 2597 2394 2406 
Q 2431 2481 2601 2654 
Q 2772 2828 2841 2828 
Q 2913 2828 2913 2747 
L 2016 -825 
Q 2000 -919 1997 -934 
Q 1997 -1019 2419 -1019 
Q 2450 -1019 2467 -1044 
Q 2484 -1069 2484 -1100 
Q 2463 -1184 2448 -1212 
Q 2434 -1241 2375 -1241 
L 1006 -1241 
Q 941 -1241 941 -1159 
z
M 1119 97 
Q 1344 97 1558 267 
Q 1772 438 1931 672 
L 2291 2113 
Q 2253 2338 2126 2500 
Q 2000 2663 1791 2663 
Q 1575 2663 1389 2486 
Q 1203 2309 1075 2069 
Q 950 1813 836 1366 
Q 722 919 722 672 
Q 722 450 817 273 
Q 913 97 1119 97 
z
" transform="scale(0.015625)"/>
      <path id="Cmr10-31" d="M 594 0 
L 594 225 
Q 1394 225 1394 428 
L 1394 3788 
Q 1063 3628 556 3628 
L 556 3853 
Q 1341 3853 1741 4263 
L 1831 4263 
Q 1853 4263 1873 4245 
Q 1894 4228 1894 4206 
L 1894 428 
Q 1894 225 2694 225 
L 2694 0 
L 594 0 
z
" transform="scale(0.015625)"/>
     </defs>
     <use xlink:href="#Cmr10-b9" transform="translate(3.254395 2.015625)"/>
     <use xlink:href="#Cmmi10-71" transform="translate(0 0.84375)"/>
     <use xlink:href="#Cmr10-31" transform="translate(49.044219 -16.1625) scale(0.7)"/>
    </g>
   </g>
   <g id="text_2">
    <!-- $q_2$ -->
    <g transform="translate(217.8 30.380625) scale(0.36 -0.36)">
     <defs>
      <path id="Cmr10-32" d="M 319 0 
L 319 172 
Q 319 188 331 206 
L 1325 1306 
Q 1550 1550 1690 1715 
Q 1831 1881 1968 2097 
Q 2106 2313 2186 2536 
Q 2266 2759 2266 3009 
Q 2266 3272 2169 3511 
Q 2072 3750 1880 3894 
Q 1688 4038 1416 4038 
Q 1138 4038 916 3870 
Q 694 3703 603 3438 
Q 628 3444 672 3444 
Q 816 3444 917 3347 
Q 1019 3250 1019 3097 
Q 1019 2950 917 2848 
Q 816 2747 672 2747 
Q 522 2747 420 2851 
Q 319 2956 319 3097 
Q 319 3338 409 3548 
Q 500 3759 670 3923 
Q 841 4088 1055 4175 
Q 1269 4263 1509 4263 
Q 1875 4263 2190 4108 
Q 2506 3953 2690 3670 
Q 2875 3388 2875 3009 
Q 2875 2731 2753 2481 
Q 2631 2231 2440 2026 
Q 2250 1822 1953 1562 
Q 1656 1303 1563 1216 
L 838 519 
L 1453 519 
Q 1906 519 2211 526 
Q 2516 534 2534 550 
Q 2609 631 2688 1141 
L 2875 1141 
L 2694 0 
L 319 0 
z
" transform="scale(0.015625)"/>
     </defs>
     <use xlink:href="#Cmmi10-71" transform="translate(0 0.8125)"/>
     <use xlink:href="#Cmr10-32" transform="translate(44.580078 -16.19375) scale(0.7)"/>
    </g>
   </g>
   <g id="text_3">
    <!-- $\bar{q}_3$ -->
    <g transform="translate(9.54 159.980625) scale(0.36 -0.36)">
     <defs>
      <path id="Cmr10-33" d="M 609 494 
Q 759 275 1012 169 
Q 1266 63 1556 63 
Q 1928 63 2084 380 
Q 2241 697 2241 1100 
Q 2241 1281 2208 1462 
Q 2175 1644 2097 1800 
Q 2019 1956 1883 2050 
Q 1747 2144 1550 2144 
L 1125 2144 
Q 1069 2144 1069 2203 
L 1069 2259 
Q 1069 2309 1125 2309 
L 1478 2338 
Q 1703 2338 1851 2506 
Q 2000 2675 2069 2917 
Q 2138 3159 2138 3378 
Q 2138 3684 1994 3881 
Q 1850 4078 1556 4078 
Q 1313 4078 1091 3986 
Q 869 3894 738 3706 
Q 750 3709 759 3711 
Q 769 3713 781 3713 
Q 925 3713 1022 3613 
Q 1119 3513 1119 3372 
Q 1119 3234 1022 3134 
Q 925 3034 781 3034 
Q 641 3034 541 3134 
Q 441 3234 441 3372 
Q 441 3647 606 3850 
Q 772 4053 1033 4158 
Q 1294 4263 1556 4263 
Q 1750 4263 1965 4205 
Q 2181 4147 2356 4039 
Q 2531 3931 2642 3762 
Q 2753 3594 2753 3378 
Q 2753 3109 2633 2881 
Q 2513 2653 2303 2487 
Q 2094 2322 1844 2241 
Q 2122 2188 2372 2031 
Q 2622 1875 2773 1631 
Q 2925 1388 2925 1106 
Q 2925 753 2731 467 
Q 2538 181 2222 20 
Q 1906 -141 1556 -141 
Q 1256 -141 954 -26 
Q 653 88 461 316 
Q 269 544 269 863 
Q 269 1022 375 1128 
Q 481 1234 641 1234 
Q 744 1234 830 1186 
Q 916 1138 964 1050 
Q 1013 963 1013 863 
Q 1013 706 903 600 
Q 794 494 641 494 
L 609 494 
z
" transform="scale(0.015625)"/>
     </defs>
     <use xlink:href="#Cmr10-b9" transform="translate(3.254395 2.015625)"/>
     <use xlink:href="#Cmmi10-71" transform="translate(0 0.84375)"/>
     <use xlink:href="#Cmr10-33" transform="translate(49.044219 -16.1625) scale(0.7)"/>
    </g>
   </g>
   <g id="text_4">
    <!-- $q_4$ -->
    <g transform="translate(10.44 30.380625) scale(0.36 -0.36)">
     <defs>
      <path id="Cmr10-34" d="M 178 1056 
L 178 1281 
L 2156 4231 
Q 2178 4263 2222 4263 
L 2316 4263 
Q 2388 4263 2388 4191 
L 2388 1281 
L 3016 1281 
L 3016 1056 
L 2388 1056 
L 2388 428 
Q 2388 297 2575 261 
Q 2763 225 3009 225 
L 3009 0 
L 1247 0 
L 1247 225 
Q 1494 225 1681 261 
Q 1869 297 1869 428 
L 1869 1056 
L 178 1056 
z
M 391 1281 
L 1906 1281 
L 1906 3547 
L 391 1281 
z
" transform="scale(0.015625)"/>
     </defs>
     <use xlink:href="#Cmmi10-71" transform="translate(0 0.8125)"/>
     <use xlink:href="#Cmr10-34" transform="translate(44.580078 -16.19375) scale(0.7)"/>
    </g>
   </g>
   <g id="line2d_1">
    <path d="M 43.2 17.28 
L 86.4 51.84 
L 86.4 51.84 
" clip-path="url(#p3f74f2a560)" style="fill: none; stroke: #000000; stroke-width: 2"/>
   </g>
   <g id="line2d_2">
    <path d="M 86.4 51.84 
L 129.6 86.4 
L 129.6 86.4 
" clip-path="url(#p3f74f2a560)" style="fill: none; stroke: #000000; stroke-width: 2"/>
   </g>
   <g id="line2d_3">
    <path d="M 129.6 86.4 
L 43.2 155.52 
L 43.2 155.52 
" clip-path="url(#p3f74f2a560)" style="fill: none; stroke: #000000; stroke-width: 2"/>
   </g>
   <g id="line2d_4">
    <path d="M 129.6 86.4 
L 172.8 120.96 
L 172.8 120.96 
" clip-path="url(#p3f74f2a560)" style="fill: none; stroke: #000000; stroke-width: 2"/>
   </g>
   <g id="line2d_5">
    <path d="M 172.8 120.96 
L 216 155.52 
L 216 155.52 
" clip-path="url(#p3f74f2a560)" style="fill: none; stroke: #000000; stroke-width: 2"/>
   </g>
   <g id="line2d_6">
    <path d="M 216 17.28 
L 129.6 86.4 
L 129.6 86.4 
" clip-path="url(#p3f74f2a560)" style="fill: none; stroke: #000000; stroke-width: 2"/>
   </g>
   <g id="line2d_7">
    <path d="M 86.4 51.84 
L 87.272791 50.857254 
L 88.233842 49.964771 
L 89.271946 49.172217 
L 90.374824 48.48785 
L 91.5293 47.918404 
L 92.721489 47.468986 
L 93.936996 47.143013 
L 95.161125 46.942156 
L 96.379088 46.866318 
L 97.576215 46.913639 
L 98.738169 47.080519 
L 99.851145 47.361674 
L 100.902075 47.750211 
L 101.878808 48.237726 
L 102.770288 48.814428 
L 103.566711 49.469276 
L 104.259662 50.190143 
L 104.84224 50.963987 
L 105.30915 51.777038 
L 105.656784 52.614998 
L 105.883267 53.463245 
L 105.988482 54.307042 
L 105.974076 55.131748 
L 105.84343 55.923029 
L 105.601611 56.667061 
L 105.255299 57.35073 
L 104.812689 57.961817 
L 104.283375 58.489172 
L 103.678206 58.922874 
L 103.009138 59.254372 
L 102.289056 59.476604 
L 101.531591 59.584098 
L 100.750926 59.57305 
L 99.961591 59.441375 
L 99.178255 59.188737 
L 98.41552 58.816551 
L 97.687709 58.32796 
L 97.008665 57.727794 
L 96.391549 57.022492 
L 95.848662 56.220017 
L 95.39126 55.329733 
L 95.029405 54.362277 
L 94.771815 53.329403 
L 94.625745 52.243814 
L 94.596885 51.118983 
L 94.689283 49.968957 
L 94.905282 48.808159 
L 95.245499 47.651184 
L 95.708807 46.51259 
L 96.292362 45.406691 
L 96.991642 44.347358 
L 97.80051 43.347819 
L 98.711307 42.420472 
L 99.714961 41.576717 
L 100.801116 40.826789 
L 101.958282 40.179617 
L 103.173997 39.642701 
L 104.435004 39.222006 
L 105.727442 38.92188 
L 107.03704 38.744997 
L 108.34932 38.692319 
L 109.649801 38.763084 
L 110.924204 38.954825 
L 112.158651 39.263399 
L 113.339864 39.683055 
L 114.455345 40.206514 
L 115.493558 40.825072 
L 116.444084 41.52873 
L 117.297768 42.306331 
L 118.046848 43.145725 
L 118.685059 44.033933 
L 119.20772 44.957339 
L 119.611796 45.901877 
L 119.895941 46.853234 
L 120.060512 47.797045 
L 120.107562 48.719101 
L 120.040808 49.605545 
L 119.865579 50.443067 
L 119.588734 51.21909 
L 119.218567 51.921943 
L 118.764689 52.541028 
L 118.237888 53.066963 
L 117.64998 53.491711 
L 117.013639 53.808696 
L 116.342221 54.012888 
L 115.649573 54.100871 
L 114.949842 54.070894 
L 114.257273 53.922885 
L 113.586016 53.65846 
L 112.949919 53.280887 
L 112.362344 52.795047 
L 111.835977 52.207361 
L 111.382651 51.525695 
L 111.013186 50.759256 
L 110.737233 49.918455 
L 110.56315 49.014764 
L 110.497877 48.060554 
L 110.54685 47.068923 
L 110.713921 46.053513 
L 111.00131 45.028317 
L 111.409574 44.007487 
L 111.937602 43.00514 
L 112.582632 42.035154 
L 113.340292 41.110983 
L 114.204661 40.245471 
L 115.168352 39.45067 
L 116.22262 38.737676 
L 117.357481 38.116481 
L 118.561851 37.595828 
L 119.823704 37.183099 
L 121.130235 36.884211 
L 122.468041 36.703535 
L 123.823305 36.643841 
L 125.181987 36.706259 
L 126.530021 36.890266 
L 127.853505 37.193694 
L 129.138892 37.612766 
L 130.373182 38.142144 
L 131.544094 38.775011 
L 132.640237 39.50316 
L 133.651267 40.317115 
L 134.568025 41.206259 
L 135.382665 42.158981 
L 136.088757 43.162842 
L 136.681374 44.204742 
L 137.157163 45.271102 
L 137.514381 46.348055 
L 137.874322 48.477958 
L 137.779822 50.484956 
L 137.274412 52.267015 
L 136.424087 53.735134 
L 135.313639 54.818188 
L 134.041977 55.466781 
L 133.379132 55.61934 
L 132.716686 55.655902 
L 132.068472 55.577369 
L 131.448118 55.386255 
L 130.86886 55.08665 
L 130.34336 54.684165 
L 129.88353 54.185852 
L 129.500376 53.600104 
L 129.203842 52.936545 
L 129.002676 52.205893 
L 128.90431 51.41981 
L 128.914763 50.59075 
L 129.038555 49.73178 
L 129.278647 48.856403 
L 129.636402 47.978378 
L 130.111568 47.111524 
L 130.702279 46.269536 
L 131.405086 45.465797 
L 132.214999 44.713194 
L 133.12556 44.023944 
L 134.128933 43.409427 
L 135.216006 42.880029 
L 136.376519 42.445004 
L 137.599205 42.112348 
L 138.871944 41.888686 
L 140.181926 41.779187 
L 141.515827 41.787493 
L 142.859993 41.915669 
L 144.200622 42.164176 
L 145.523954 42.531866 
L 146.816459 43.015997 
L 148.06502 43.612272 
L 149.25711 44.314896 
L 150.380965 45.11666 
L 151.425742 46.009035 
L 152.381666 46.982291 
L 153.240161 48.025628 
L 153.99397 49.127326 
L 154.63725 50.274902 
L 155.16565 51.455283 
L 155.576373 52.654981 
L 155.868211 53.860279 
L 156.041559 55.057416 
L 156.042338 57.373066 
L 155.613208 59.498024 
L 154.811734 61.339235 
L 153.715412 62.819542 
L 152.417443 63.881856 
L 151.021668 64.492242 
L 149.636919 64.641748 
L 148.982601 64.547848 
L 148.371111 64.346875 
L 147.814832 64.044719 
L 147.325375 63.648678 
L 146.913418 63.167352 
L 146.588565 62.610528 
L 146.359212 61.989051 
L 146.232433 61.314668 
L 146.213883 60.599875 
L 146.307722 59.857744 
L 146.516557 59.101744 
L 146.841406 58.345559 
L 147.281685 57.602903 
L 147.835213 56.887329 
L 148.498243 56.212047 
L 149.265514 55.589744 
L 150.130318 55.032412 
L 151.084594 54.551179 
L 152.119036 54.156164 
L 153.22322 53.856336 
L 154.385745 53.659389 
L 155.594385 53.571641 
L 156.836261 53.597943 
L 158.098012 53.741615 
L 159.365974 54.004401 
L 160.626373 54.386442 
L 161.865505 54.886273 
L 163.069929 55.500845 
L 164.226643 56.225563 
L 165.323268 57.054351 
L 166.348211 57.979729 
L 167.290828 58.992919 
L 168.141566 60.083961 
L 168.892092 61.241849 
L 169.535414 62.45468 
L 170.065967 63.709816 
L 170.479698 64.994056 
L 170.774117 66.293814 
L 170.948332 67.595306 
L 171.003064 68.884734 
L 170.940634 70.14848 
L 170.764937 71.373287 
L 170.481385 72.546439 
L 170.096835 73.65594 
L 169.619499 74.690673 
L 168.425387 76.496667 
L 166.987134 77.898515 
L 165.405724 78.852522 
L 163.789539 79.339604 
L 162.248457 79.366359 
L 160.887856 78.964727 
L 160.305506 78.619783 
L 159.802845 78.190279 
L 159.389301 77.68636 
L 159.073052 77.119208 
L 158.860916 76.500888 
L 158.758248 75.844187 
L 158.768874 75.162435 
L 158.895033 74.469325 
L 159.137345 73.778722 
L 159.4948 73.104476 
L 159.964774 72.460231 
L 160.543057 71.859234 
L 161.223916 71.314157 
L 162.000169 70.836918 
L 162.863282 70.438519 
L 163.803484 70.128891 
L 164.809904 69.916758 
L 165.870715 69.809517 
L 166.973296 69.81313 
L 168.10441 69.932043 
L 169.250377 70.169124 
L 170.397271 70.525618 
L 171.531104 71.001133 
L 172.638021 71.593636 
L 173.704495 72.299487 
L 174.717508 73.113481 
L 175.664733 74.028922 
L 176.534708 75.037709 
L 177.316988 76.130449 
L 178.0023 77.296586 
L 178.582663 78.524541 
L 179.051506 79.801874 
L 179.403758 81.115454 
L 179.635919 82.451637 
L 179.746113 83.796458 
L 179.734114 85.13582 
L 179.601349 86.455689 
L 179.350887 87.74229 
L 178.987389 88.982297 
L 178.517055 90.163017 
L 177.947533 91.272569 
L 177.287817 92.300045 
L 176.548126 93.235666 
L 175.739759 94.070918 
L 174.874944 94.798671 
L 173.966668 95.413281 
L 173.028496 95.910668 
L 172.074384 96.288374 
L 171.118489 96.545603 
L 170.174964 96.683229 
L 169.25777 96.70379 
L 168.380477 96.611453 
L 167.556072 96.411954 
L 166.796784 96.112528 
L 166.113906 95.721803 
L 165.517639 95.249684 
L 165.016951 94.707216 
L 164.619442 94.106431 
L 164.331247 93.46018 
L 164.156938 92.781958 
L 164.099465 92.085711 
L 164.160109 91.385644 
L 164.338463 90.696022 
L 164.632435 90.030972 
L 165.038276 89.404281 
L 165.550628 88.829204 
L 166.162599 88.318279 
L 166.865857 87.883148 
L 167.650745 87.53439 
L 168.506412 87.281376 
L 169.42097 87.132133 
L 170.381652 87.093227 
L 171.374996 87.169671 
L 172.387029 87.364852 
L 173.403467 87.680481 
L 174.409912 88.116564 
L 175.392058 88.671401 
L 176.335887 89.341608 
L 177.227876 90.122163 
L 178.055177 91.006468 
L 178.805809 91.986448 
L 179.468822 93.052658 
L 180.034458 94.194415 
L 180.494285 95.399944 
L 180.841323 96.65655 
L 181.070139 97.950788 
L 181.176933 99.268656 
L 181.159589 100.59579 
L 181.017707 101.917669 
L 180.752615 103.219819 
L 180.367348 104.488015 
L 179.866612 105.708486 
L 179.256715 106.868109 
L 178.545482 107.954598 
L 177.742146 108.956674 
L 176.85722 109.864231 
L 175.902346 110.668479 
L 174.890136 111.362067 
L 173.83399 111.939196 
L 172.747908 112.395696 
L 171.646294 112.729091 
L 170.543748 112.938635 
L 169.454862 113.025323 
L 168.39401 112.991882 
L 167.375146 112.84273 
L 166.411603 112.583918 
L 165.515901 112.223044 
L 164.699574 111.769145 
L 163.972996 111.232572 
L 163.345239 110.624843 
L 162.823941 109.958478 
L 162.415193 109.246822 
L 162.123452 108.503859 
L 161.951479 107.744004 
L 161.900293 106.981909 
L 161.969159 106.232242 
L 162.155595 105.509488 
L 162.455408 104.827734 
L 162.862749 104.200471 
L 163.370201 103.640397 
L 163.968877 103.159242 
L 164.648552 102.767589 
L 165.397807 102.474731 
L 166.204189 102.288532 
L 167.054392 102.215314 
L 167.934444 102.259764 
L 168.82991 102.424872 
L 169.726096 102.711878 
L 170.608261 103.120261 
L 171.461827 103.647739 
L 172.272587 104.290305 
L 173.026915 105.042283 
L 173.711952 105.896407 
L 174.3158 106.843924 
L 174.827685 107.874721 
L 175.238121 108.977467 
L 175.539037 110.139777 
L 175.723899 111.348387 
L 175.787804 112.589346 
L 175.727549 113.848214 
L 175.541678 115.11027 
L 175.230505 116.360723 
L 174.796105 117.584922 
L 174.242293 118.76857 
L 173.57456 119.897925 
L 172.8 120.96 
L 172.8 120.96 
" clip-path="url(#p3f74f2a560)" style="fill: none; stroke: #000000; stroke-width: 2"/>
   </g>
   <g id="patch_2">
    <path d="M 73.287518 41.350015 
L 67.552818 31.229955 
L 66.372144 35.817715 
L 62.155453 37.976662 
z
" clip-path="url(#p3f74f2a560)" style="stroke: #000000; stroke-linejoin: miter"/>
   </g>
   <g id="patch_3">
    <path d="M 116.487518 75.910015 
L 110.752818 65.789955 
L 109.572144 70.377715 
L 105.355453 72.536662 
z
" clip-path="url(#p3f74f2a560)" style="stroke: #000000; stroke-linejoin: miter"/>
   </g>
   <g id="patch_4">
    <path d="M 77.858346 127.793323 
L 88.990412 124.41997 
L 84.77372 122.261024 
L 83.593047 117.673263 
z
" clip-path="url(#p3f74f2a560)" style="stroke: #000000; stroke-linejoin: miter"/>
   </g>
   <g id="patch_5">
    <path d="M 159.687518 110.470015 
L 153.952818 100.349955 
L 152.772144 104.937715 
L 148.555453 107.096662 
z
" clip-path="url(#p3f74f2a560)" style="stroke: #000000; stroke-linejoin: miter"/>
   </g>
   <g id="patch_6">
    <path d="M 202.887518 145.030015 
L 197.152818 134.909955 
L 195.972144 139.497715 
L 191.755453 141.656662 
z
" clip-path="url(#p3f74f2a560)" style="stroke: #000000; stroke-linejoin: miter"/>
   </g>
   <g id="patch_7">
    <path d="M 164.258346 58.673323 
L 175.390412 55.29997 
L 171.17372 53.141024 
L 169.993047 48.553263 
z
" clip-path="url(#p3f74f2a560)" style="stroke: #000000; stroke-linejoin: miter"/>
   </g>
   <g id="line2d_8"/>
   <g id="line2d_9"/>
   <g id="line2d_10">
    <defs>
     <path id="m9044442c59" d="M 0 2 
C 0.530406 2 1.03916 1.789267 1.414214 1.414214 
C 1.789267 1.03916 2 0.530406 2 0 
C 2 -0.530406 1.789267 -1.03916 1.414214 -1.414214 
C 1.03916 -1.789267 0.530406 -2 0 -2 
C -0.530406 -2 -1.03916 -1.789267 -1.414214 -1.414214 
C -1.789267 -1.03916 -2 -0.530406 -2 0 
C -2 0.530406 -1.789267 1.03916 -1.414214 1.414214 
C -1.03916 1.789267 -0.530406 2 0 2 
z
" style="stroke: #000000"/>
    </defs>
    <g clip-path="url(#p3f74f2a560)">
     <use xlink:href="#m9044442c59" x="129.6" y="86.4" style="stroke: #000000"/>
    </g>
   </g>
   <g id="line2d_11"/>
   <g id="line2d_12"/>
   <g id="line2d_13">
    <g clip-path="url(#p3f74f2a560)">
     <use xlink:href="#m9044442c59" x="86.4" y="51.84" style="stroke: #000000"/>
    </g>
   </g>
   <g id="line2d_14">
    <g clip-path="url(#p3f74f2a560)">
     <use xlink:href="#m9044442c59" x="172.8" y="120.96" style="stroke: #000000"/>
    </g>
   </g>
  </g>
 </g>
 <defs>
  <clipPath id="p3f74f2a560">
   <rect x="0" y="0" width="259.2" height="172.8"/>
  </clipPath>
 </defs>
</svg>
