<?xml version="1.0" encoding="utf-8" standalone="no"?>
<!DOCTYPE svg PUBLIC "-//W3C//DTD SVG 1.1//EN"
  "http://www.w3.org/Graphics/SVG/1.1/DTD/svg11.dtd">
<svg xmlns:xlink="http://www.w3.org/1999/xlink" width="259.2pt" height="172.8pt" viewBox="0 0 259.2 172.8" xmlns="http://www.w3.org/2000/svg" version="1.1">
 <metadata>
  <rdf:RDF xmlns:dc="http://purl.org/dc/elements/1.1/" xmlns:cc="http://creativecommons.org/ns#" xmlns:rdf="http://www.w3.org/1999/02/22-rdf-syntax-ns#">
   <cc:Work>
    <dc:type rdf:resource="http://purl.org/dc/dcmitype/StillImage"/>
    <dc:date>2026-02-04T18:03:37.584195</dc:date>
    <dc:format>image/svg+xml</dc:format>
    <dc:creator>
     <cc:Agent>
      <dc:title>Matplotlib v3.10.8, https://matplotlib.org/</dc:title>
     </cc:Agent>
    </dc:creator>
   </cc:Work>
  </rdf:RDF>
 </metadata>
 <defs>
  <style type="text/css">*{stroke-linejoin: round; stroke-linecap: butt}</style>
 </defs>
 <g id="figure_1">
  <g id="patch_1">
   <path d="M 0 172.8 
L 259.2 172.8 
L 259.2 0 
L 0 0 
L 0 172.8 
z
" style="fill: none"/>
  </g>
  <g id="axes_1">
   <g id="matplotlib.axis_1"/>
   <g id="matplotlib.axis_2"/>
   <g id="text_1">
    <!-- $k$ -->
    <g style="fill: #ffffff" transform="translate(87.09 72.3) scale(0.3 -0.3)">
     <defs>
      <path id="Cmmi10-6b" d="M 341 116 
Q 341 153 347 172 
L 1275 3872 
Q 1300 3981 1306 4044 
Q 1306 4147 891 4147 
Q 825 4147 825 4231 
Q 828 4247 839 4287 
Q 850 4328 867 4350 
Q 884 4372 916 4372 
L 1778 4441 
L 1797 4441 
Q 1797 4434 1819 4423 
Q 1841 4413 1844 4409 
Q 1856 4378 1856 4359 
L 1184 1684 
Q 1416 1781 1767 2145 
Q 2119 2509 2317 2668 
Q 2516 2828 2816 2828 
Q 2994 2828 3119 2706 
Q 3244 2584 3244 2406 
Q 3244 2294 3197 2198 
Q 3150 2103 3065 2043 
Q 2981 1984 2869 1984 
Q 2766 1984 2695 2048 
Q 2625 2113 2625 2216 
Q 2625 2369 2733 2473 
Q 2841 2578 2994 2578 
Q 2931 2663 2803 2663 
Q 2613 2663 2436 2553 
Q 2259 2444 2054 2239 
Q 1850 2034 1681 1864 
Q 1513 1694 1369 1606 
Q 1747 1563 2025 1408 
Q 2303 1253 2303 934 
Q 2303 869 2278 769 
Q 2222 528 2222 384 
Q 2222 97 2419 97 
Q 2650 97 2770 350 
Q 2891 603 2969 941 
Q 2981 978 3022 978 
L 3097 978 
Q 3122 978 3139 962 
Q 3156 947 3156 922 
Q 3156 916 3150 903 
Q 2909 -72 2406 -72 
Q 2225 -72 2086 12 
Q 1947 97 1872 242 
Q 1797 388 1797 569 
Q 1797 672 1825 781 
Q 1844 856 1844 922 
Q 1844 1169 1625 1297 
Q 1406 1425 1125 1453 
L 800 147 
Q 775 50 703 -11 
Q 631 -72 538 -72 
Q 456 -72 398 -17 
Q 341 38 341 116 
z
" transform="scale(0.015625)"/>
     </defs>
     <use xlink:href="#Cmmi10-6b" transform="translate(0 0.609375)"/>
    </g>
   </g>
   <g id="text_2">
    <!-- $p+k$ -->
    <g style="fill: #ffffff" transform="translate(153.36 72.3) scale(0.3 -0.3)">
     <defs>
      <path id="Cmmi10-70" d="M -159 -1241 
Q -219 -1241 -219 -1159 
Q -197 -1019 -134 -1019 
Q 66 -1019 145 -983 
Q 225 -947 269 -800 
L 991 2081 
Q 1038 2200 1038 2388 
Q 1038 2663 850 2663 
Q 650 2663 553 2423 
Q 456 2184 366 1819 
Q 366 1778 313 1778 
L 238 1778 
Q 222 1778 203 1801 
Q 184 1825 184 1844 
Q 253 2122 317 2315 
Q 381 2509 517 2668 
Q 653 2828 856 2828 
Q 1075 2828 1240 2704 
Q 1406 2581 1453 2369 
Q 1628 2572 1840 2700 
Q 2053 2828 2278 2828 
Q 2547 2828 2745 2684 
Q 2944 2541 3044 2308 
Q 3144 2075 3144 1806 
Q 3144 1394 2933 953 
Q 2722 513 2361 220 
Q 2000 -72 1588 -72 
Q 1400 -72 1248 34 
Q 1097 141 1013 313 
L 722 -825 
Q 706 -919 703 -934 
Q 703 -1019 1125 -1019 
Q 1191 -1019 1191 -1100 
Q 1169 -1184 1155 -1212 
Q 1141 -1241 1081 -1241 
L -159 -1241 
z
M 1594 97 
Q 1816 97 2006 280 
Q 2197 463 2316 691 
Q 2403 863 2479 1111 
Q 2556 1359 2612 1640 
Q 2669 1922 2669 2088 
Q 2669 2234 2630 2362 
Q 2591 2491 2502 2577 
Q 2413 2663 2266 2663 
Q 2031 2663 1823 2495 
Q 1616 2328 1447 2081 
L 1447 2059 
L 1094 647 
Q 1138 419 1263 258 
Q 1388 97 1594 97 
z
" transform="scale(0.015625)"/>
      <path id="Cmr10-2b" d="M 481 1472 
Q 428 1472 393 1512 
Q 359 1553 359 1600 
Q 359 1647 393 1687 
Q 428 1728 481 1728 
L 2363 1728 
L 2363 3616 
Q 2363 3666 2400 3698 
Q 2438 3731 2491 3731 
Q 2538 3731 2578 3698 
Q 2619 3666 2619 3616 
L 2619 1728 
L 4500 1728 
Q 4547 1728 4581 1687 
Q 4616 1647 4616 1600 
Q 4616 1553 4581 1512 
Q 4547 1472 4500 1472 
L 2619 1472 
L 2619 -416 
Q 2619 -466 2578 -498 
Q 2538 -531 2491 -531 
Q 2438 -531 2400 -498 
Q 2363 -466 2363 -416 
L 2363 1472 
L 481 1472 
z
" transform="scale(0.015625)"/>
     </defs>
     <use xlink:href="#Cmmi10-70" transform="translate(0 0.609375)"/>
     <use xlink:href="#Cmr10-2b" transform="translate(67.851562 0.609375)"/>
     <use xlink:href="#Cmmi10-6b" transform="translate(163.095703 0.609375)"/>
    </g>
   </g>
   <g id="text_3">
    <!-- $\uparrow p$ -->
    <g style="fill: #ffffff" transform="translate(143.76 128.46) scale(0.3 -0.3)">
     <defs>
      <path id="Cmsy10-22" d="M 1472 -1125 
L 1472 3559 
Q 1328 3322 1133 3140 
Q 938 2959 698 2832 
Q 459 2706 197 2650 
Q 184 2644 178 2644 
Q 109 2644 109 2700 
L 109 2841 
Q 109 2884 153 2900 
Q 513 2981 806 3192 
Q 1100 3403 1287 3708 
Q 1475 4013 1528 4384 
Q 1541 4413 1559 4427 
Q 1578 4441 1600 4441 
Q 1622 4441 1644 4423 
Q 1666 4406 1672 4384 
Q 1747 3841 2125 3431 
Q 2503 3022 3047 2900 
Q 3066 2894 3078 2873 
Q 3091 2853 3091 2841 
L 3091 2700 
Q 3091 2681 3069 2662 
Q 3047 2644 3022 2644 
Q 3016 2644 3003 2650 
Q 2741 2706 2502 2832 
Q 2263 2959 2067 3140 
Q 1872 3322 1728 3559 
L 1728 -1125 
Q 1728 -1175 1687 -1208 
Q 1647 -1241 1600 -1241 
Q 1553 -1241 1512 -1208 
Q 1472 -1175 1472 -1125 
z
" transform="scale(0.015625)"/>
     </defs>
     <use xlink:href="#Cmsy10-22" transform="translate(17.558594 0.609375)"/>
     <use xlink:href="#Cmmi10-70" transform="translate(85.117188 0.609375)"/>
    </g>
   </g>
   <g id="text_4">
    <!-- $d$ -->
    <g style="fill: #ffffff" transform="translate(236.7 26.28) scale(0.36 -0.36)">
     <defs>
      <path id="Cmmi10-64" d="M 1113 -72 
Q 709 -72 476 233 
Q 244 538 244 953 
Q 244 1363 456 1803 
Q 669 2244 1030 2536 
Q 1391 2828 1806 2828 
Q 1994 2828 2145 2723 
Q 2297 2619 2381 2444 
L 2741 3872 
Q 2766 3981 2772 4044 
Q 2772 4147 2356 4147 
Q 2291 4147 2291 4231 
Q 2294 4247 2305 4287 
Q 2316 4328 2333 4350 
Q 2350 4372 2381 4372 
L 3244 4441 
Q 3322 4441 3322 4359 
L 2400 678 
Q 2356 572 2356 372 
Q 2356 97 2541 97 
Q 2741 97 2845 351 
Q 2950 606 3022 941 
Q 3034 978 3072 978 
L 3150 978 
Q 3175 978 3190 956 
Q 3206 934 3206 916 
Q 3094 469 2961 198 
Q 2828 -72 2528 -72 
Q 2313 -72 2147 54 
Q 1981 181 1941 391 
Q 1528 -72 1113 -72 
z
M 1119 97 
Q 1350 97 1567 270 
Q 1784 444 1941 678 
Q 1947 684 1947 703 
L 2297 2113 
Q 2259 2338 2131 2500 
Q 2003 2663 1791 2663 
Q 1575 2663 1389 2486 
Q 1203 2309 1075 2069 
Q 950 1813 836 1366 
Q 722 919 722 672 
Q 722 450 817 273 
Q 913 97 1119 97 
z
" transform="scale(0.015625)"/>
     </defs>
     <use xlink:href="#Cmmi10-64" transform="translate(0 0.609375)"/>
    </g>
   </g>
   <g id="text_5">
    <!-- $q$ -->
    <g style="fill: #ffffff" transform="translate(238.14 164.300625) scale(0.36 -0.36)">
     <defs>
      <path id="Cmmi10-71" d="M 941 -1159 
Q 963 -1019 1025 -1019 
Q 1256 -1019 1389 -981 
Q 1522 -944 1563 -800 
L 1838 288 
Q 1472 -72 1106 -72 
Q 703 -72 473 233 
Q 244 538 244 953 
Q 244 1363 455 1803 
Q 666 2244 1027 2536 
Q 1388 2828 1806 2828 
Q 2000 2828 2156 2712 
Q 2313 2597 2394 2406 
Q 2431 2481 2601 2654 
Q 2772 2828 2841 2828 
Q 2913 2828 2913 2747 
L 2016 -825 
Q 2000 -919 1997 -934 
Q 1997 -1019 2419 -1019 
Q 2450 -1019 2467 -1044 
Q 2484 -1069 2484 -1100 
Q 2463 -1184 2448 -1212 
Q 2434 -1241 2375 -1241 
L 1006 -1241 
Q 941 -1241 941 -1159 
z
M 1119 97 
Q 1344 97 1558 267 
Q 1772 438 1931 672 
L 2291 2113 
Q 2253 2338 2126 2500 
Q 2000 2663 1791 2663 
Q 1575 2663 1389 2486 
Q 1203 2309 1075 2069 
Q 950 1813 836 1366 
Q 722 919 722 672 
Q 722 450 817 273 
Q 913 97 1119 97 
z
" transform="scale(0.015625)"/>
     </defs>
     <use xlink:href="#Cmmi10-71" transform="translate(0 0.8125)"/>
    </g>
   </g>
   <g id="text_6">
    <!-- $s$ -->
    <g style="fill: #ffffff" transform="translate(4.5 21.96) scale(0.36 -0.36)">
     <defs>
      <path id="Cmmi10-73" d="M 556 391 
Q 728 97 1247 97 
Q 1472 97 1675 173 
Q 1878 250 2011 403 
Q 2144 556 2144 775 
Q 2144 941 2025 1047 
Q 1906 1153 1734 1191 
L 1388 1259 
Q 1150 1319 997 1481 
Q 844 1644 844 1875 
Q 844 2159 998 2378 
Q 1153 2597 1406 2712 
Q 1659 2828 1931 2828 
Q 2222 2828 2451 2689 
Q 2681 2550 2681 2278 
Q 2681 2131 2598 2018 
Q 2516 1906 2369 1906 
Q 2284 1906 2223 1961 
Q 2163 2016 2163 2100 
Q 2163 2175 2205 2245 
Q 2247 2316 2317 2358 
Q 2388 2400 2463 2400 
Q 2406 2538 2251 2600 
Q 2097 2663 1919 2663 
Q 1756 2663 1593 2597 
Q 1431 2531 1332 2404 
Q 1234 2278 1234 2106 
Q 1234 1991 1315 1903 
Q 1397 1816 1516 1778 
L 1888 1703 
Q 2066 1666 2214 1570 
Q 2363 1475 2448 1329 
Q 2534 1184 2534 997 
Q 2534 759 2401 528 
Q 2269 297 2075 159 
Q 1734 -72 1241 -72 
Q 900 -72 615 84 
Q 331 241 331 550 
Q 331 725 432 854 
Q 534 984 709 984 
Q 813 984 883 921 
Q 953 859 953 756 
Q 953 609 843 500 
Q 734 391 588 391 
L 556 391 
z
" transform="scale(0.015625)"/>
     </defs>
     <use xlink:href="#Cmmi10-73" transform="translate(0 0.8125)"/>
    </g>
   </g>
   <g id="text_7">
    <!-- $q$ -->
    <g style="fill: #ffffff" transform="translate(4.86 164.300625) scale(0.36 -0.36)">
     <use xlink:href="#Cmmi10-71" transform="translate(0 0.8125)"/>
    </g>
   </g>
   <g id="line2d_1">
    <path d="M 86.4 17.28 
L 129.6 86.4 
L 129.6 86.4 
" clip-path="url(#pdbdbe1fdc2)" style="fill: none; stroke: #ffffff; stroke-width: 2"/>
   </g>
   <g id="line2d_2">
    <path d="M 129.6 86.4 
L 172.8 17.28 
L 172.8 17.28 
" clip-path="url(#pdbdbe1fdc2)" style="fill: none; stroke: #ffffff; stroke-width: 2"/>
   </g>
   <g id="line2d_3">
    <path d="M 25.92 17.28 
L 86.4 17.28 
L 86.4 17.28 
" clip-path="url(#pdbdbe1fdc2)" style="fill: none; stroke: #ffffff; stroke-width: 2"/>
   </g>
   <g id="line2d_4">
    <path d="M 25.92 155.52 
L 129.6 155.52 
L 129.6 155.52 
" clip-path="url(#pdbdbe1fdc2)" style="fill: none; stroke: #ffffff; stroke-width: 2"/>
   </g>
   <g id="line2d_5">
    <path d="M 172.8 17.28 
L 233.28 17.28 
L 233.28 17.28 
" clip-path="url(#pdbdbe1fdc2)" style="fill: none; stroke: #ffffff; stroke-width: 2"/>
   </g>
   <g id="line2d_6">
    <path d="M 129.6 155.52 
L 129.706905 153.818581 
L 130.024976 152.150692 
L 130.546342 150.549034 
L 131.258099 149.04467 
L 132.142635 147.666253 
L 133.17806 146.43932 
L 134.338752 145.38566 
L 135.595986 144.522774 
L 136.918651 143.863442 
L 138.274014 143.415405 
L 139.628536 143.181178 
L 140.948696 143.157983 
L 142.201825 143.337819 
L 143.356913 143.707663 
L 144.385373 144.249789 
L 145.261757 144.942206 
L 145.964375 145.759206 
L 146.475842 146.671998 
L 146.783498 147.649418 
L 146.879732 148.658704 
L 146.762162 149.666308 
L 146.433696 150.638719 
L 145.902464 151.5433 
L 145.181612 152.349092 
L 144.288978 153.027581 
L 143.246653 153.553401 
L 142.080429 153.904968 
L 140.819168 154.065007 
L 139.494081 154.020983 
L 138.13796 153.765412 
L 136.784364 153.296046 
L 135.466789 152.615925 
L 134.217843 151.733306 
L 133.068432 150.661457 
L 132.046999 149.418329 
L 131.178823 148.026111 
L 130.485386 146.510682 
L 129.983851 144.90097 
L 129.686627 143.228237 
L 129.601071 141.525302 
L 129.7293 139.825734 
L 130.068139 138.163018 
L 130.609205 136.569726 
L 131.339107 135.076712 
L 132.239783 133.712352 
L 133.288944 132.501833 
L 134.460628 131.466538 
L 135.725838 130.623513 
L 137.053265 129.985047 
L 138.41006 129.558366 
L 139.762647 129.345454 
L 141.077553 129.343006 
L 142.322239 129.54251 
L 143.465904 129.930454 
L 144.480244 130.488664 
L 145.34016 131.194753 
L 146.024371 132.022673 
L 146.515945 132.943362 
L 146.802716 133.925462 
L 146.87759 134.936097 
L 146.738712 135.941681 
L 146.389519 136.908756 
L 145.838653 137.804817 
L 145.099746 138.599115 
L 144.191083 139.263421 
L 143.135151 139.77272 
L 141.958081 140.105836 
L 140.689 140.245951 
L 139.359315 140.181024 
L 138.00193 139.904088 
L 136.650437 139.413422 
L 135.338281 138.712595 
L 134.097932 137.810375 
L 132.960085 136.720517 
L 131.952899 135.461416 
L 131.101297 134.055657 
L 130.426354 132.529454 
L 129.944773 130.912001 
L 129.66847 129.234752 
L 129.604285 127.530638 
L 129.753804 125.833257 
L 130.113328 124.176039 
L 130.67396 122.591422 
L 131.421826 121.110044 
L 132.338419 119.759992 
L 133.401056 118.566101 
L 134.583441 117.549342 
L 135.856314 116.726302 
L 137.188174 116.108774 
L 138.546064 115.703468 
L 139.89638 115.511838 
L 141.205706 115.530053 
L 142.44164 115.749089 
L 143.573599 116.154951 
L 144.573568 116.729022 
L 145.416803 117.448521 
L 146.082436 118.287069 
L 146.553996 119.215342 
L 146.819811 120.201793 
L 146.873305 121.213438 
L 146.713154 122.216668 
L 146.343321 123.178081 
L 145.772958 124.065314 
L 145.016179 124.847836 
L 144.091713 125.497707 
L 143.022436 125.990273 
L 141.83481 126.30477 
L 140.558225 126.424841 
L 139.224271 126.338941 
L 137.86596 126.040622 
L 136.516906 125.528692 
L 135.210492 124.807247 
L 133.979048 123.885565 
L 132.853048 122.777881 
L 131.860358 121.503033 
L 131.025542 120.083996 
L 130.369259 118.547311 
L 129.907752 116.922433 
L 129.652439 115.240997 
L 129.60964 113.536041 
L 129.780413 111.841182 
L 130.160532 110.189788 
L 130.740591 108.614152 
L 131.506236 107.144692 
L 132.438518 105.809198 
L 133.514368 104.632145 
L 134.707161 103.634087 
L 135.98738 102.83115 
L 137.323344 102.234628 
L 138.681992 101.850711 
L 140.029702 101.680325 
L 141.333123 101.719113 
L 142.56 101.957541 
L 143.679971 102.381134 
L 144.665321 102.970837 
L 145.491666 103.703482 
L 146.138557 104.552365 
L 146.589985 105.487905 
L 146.834778 106.478376 
L 146.86688 107.490695 
L 146.685496 108.491235 
L 146.295114 109.446664 
L 145.705394 110.324762 
L 144.930932 111.095227 
L 143.990891 111.730418 
L 142.908535 112.206042 
L 141.710648 112.501755 
L 140.426875 112.601666 
L 139.088984 112.494729 
L 137.730083 112.175015 
L 136.383801 111.641863 
L 135.083454 110.899892 
L 133.86122 109.95889 
L 132.747347 108.83357 
L 131.769398 107.543206 
L 130.951575 106.111156 
L 130.314116 104.564284 
L 129.872797 102.932297 
L 129.638537 101.247007 
L 129.617135 99.541546 
L 129.809119 97.849543 
L 130.20974 96.204296 
L 130.809083 94.637947 
L 131.592315 93.180682 
L 132.540056 91.859991 
L 133.628851 90.699982 
L 134.831757 89.720788 
L 136.119005 88.938066 
L 137.458741 88.362613 
L 138.81781 88.000094 
L 140.162581 87.850909 
L 141.459774 87.910173 
L 142.677288 88.167847 
L 143.784995 88.608981 
L 144.755481 89.214084 
L 145.564731 89.959607 
L 146.192719 90.818528 
L 146.623903 91.761018 
L 146.847614 92.755178 
L 146.858316 93.767834 
L 146.655743 94.765351 
L 146.244909 95.714471 
L 145.63598 96.583131 
L 144.844025 97.341262 
L 143.888643 97.961529 
L 142.793476 98.420008 
L 141.585626 98.696779 
L 140.294983 98.776419 
L 138.953486 98.648385 
L 137.594332 98.307269 
L 136.251157 97.752941 
L 134.957198 96.990543 
L 133.744478 96.030369 
L 132.643008 94.887606 
L 131.680043 93.581959 
L 130.879416 92.137166 
L 130.260939 90.580405 
L 129.839916 88.941628 
L 129.626768 87.252815 
L 129.6 86.4 
L 129.6 86.4 
" clip-path="url(#pdbdbe1fdc2)" style="fill: none; stroke: #ffffff; stroke-width: 2"/>
   </g>
   <g id="line2d_7">
    <path d="M 86.4 17.28 
L 88.132331 10.918168 
L 88.998496 8.527646 
L 89.64812 7.289941 
L 90.081203 6.770027 
L 90.514286 6.510199 
L 90.947368 6.516887 
L 91.380451 6.789927 
L 91.813534 7.32256 
L 92.463158 8.577737 
L 93.329323 10.987081 
L 94.41203 14.835341 
L 96.793985 23.71035 
L 97.66015 26.081902 
L 98.309774 27.302058 
L 98.742857 27.809221 
L 99.17594 28.055822 
L 99.609023 28.035757 
L 100.042105 27.749523 
L 100.475188 27.204203 
L 101.124812 25.931633 
L 101.990977 23.503616 
L 103.073684 19.641756 
L 105.455639 10.78153 
L 106.321805 8.429095 
L 106.971429 7.226564 
L 107.404511 6.732183 
L 107.837594 6.498825 
L 108.270677 6.532266 
L 108.703759 6.831676 
L 109.136842 7.389648 
L 109.786466 8.679534 
L 110.652632 11.126073 
L 111.735338 15.001294 
L 114.117293 23.846187 
L 114.983459 26.179359 
L 115.633083 27.364192 
L 116.066165 27.845759 
L 116.499248 28.065859 
L 116.932331 28.019045 
L 117.365414 27.706477 
L 117.798496 27.135887 
L 118.44812 25.828766 
L 119.314286 23.363857 
L 120.396992 19.475515 
L 122.778947 10.646503 
L 123.645113 8.332739 
L 124.294737 7.165679 
L 124.72782 6.696954 
L 125.160902 6.490125 
L 125.593985 6.550309 
L 126.027068 6.876017 
L 126.46015 7.459188 
L 127.109774 8.783463 
L 127.97594 11.266591 
L 129.058647 15.167812 
L 131.440602 23.980396 
L 132.306767 26.274608 
L 132.956391 27.423824 
L 133.389474 27.879676 
L 133.822556 28.073222 
L 134.255639 27.999671 
L 134.688722 27.660845 
L 135.121805 27.065127 
L 135.771429 25.72378 
L 136.637594 23.222589 
L 137.936842 18.468089 
L 139.885714 11.196143 
L 140.75188 8.731234 
L 141.401504 7.424113 
L 142.051128 6.66435 
L 142.484211 6.484101 
L 142.917293 6.571013 
L 143.350376 6.922937 
L 143.783459 7.531164 
L 144.433083 8.8895 
L 145.299248 11.4086 
L 146.598496 16.176467 
L 148.547368 23.433927 
L 149.413534 25.880466 
L 150.063158 27.170352 
L 150.712782 27.910965 
L 151.145865 28.077908 
L 151.578947 27.977639 
L 152.01203 27.612639 
L 152.445113 26.991941 
L 153.094737 25.6167 
L 153.960902 23.079847 
L 155.26015 18.29891 
L 157.209023 11.056384 
L 158.075188 8.628367 
L 158.724812 7.355797 
L 159.374436 6.634379 
L 159.807519 6.480753 
L 160.240602 6.594373 
L 160.673684 6.972426 
L 161.106767 7.605557 
L 161.756391 8.997617 
L 162.622556 11.552065 
L 163.921805 16.345778 
L 165.870677 23.572919 
L 166.736842 25.982263 
L 167.386466 27.23744 
L 167.819549 27.770073 
L 168.252632 28.043113 
L 168.685714 28.049801 
L 169.118797 27.789973 
L 169.55188 27.270059 
L 170.201504 26.032354 
L 170.851128 24.308577 
L 171.933835 20.62547 
L 172.8 17.28 
L 172.8 17.28 
" clip-path="url(#pdbdbe1fdc2)" style="fill: none; stroke: #ffffff; stroke-width: 2"/>
   </g>
   <g id="line2d_8">
    <path d="M 129.6 155.52 
L 233.28 155.52 
L 233.28 155.52 
" clip-path="url(#pdbdbe1fdc2)" style="fill: none; stroke: #ffffff; stroke-width: 2"/>
   </g>
   <g id="patch_2">
    <path d="M 113.778124 61.084998 
L 111.717488 49.637021 
L 109.084453 53.575125 
L 104.390783 54.216212 
z
" clip-path="url(#pdbdbe1fdc2)" style="fill: #ffffff; stroke: #ffffff; stroke-linejoin: miter"/>
   </g>
   <g id="patch_3">
    <path d="M 156.978124 42.595002 
L 147.590783 49.463788 
L 152.284453 50.104875 
L 154.917488 54.042979 
z
" clip-path="url(#pdbdbe1fdc2)" style="fill: #ffffff; stroke: #ffffff; stroke-linejoin: miter"/>
   </g>
   <g id="patch_4">
    <path d="M 67.035789 17.28 
L 56.235789 12.96 
L 58.179789 17.28 
L 56.235789 21.6 
z
" clip-path="url(#pdbdbe1fdc2)" style="fill: #ffffff; stroke: #ffffff; stroke-linejoin: miter"/>
   </g>
   <g id="patch_5">
    <path d="M 88.689925 155.52 
L 77.889925 151.2 
L 79.833925 155.52 
L 77.889925 159.84 
z
" clip-path="url(#pdbdbe1fdc2)" style="fill: #ffffff; stroke: #ffffff; stroke-linejoin: miter"/>
   </g>
   <g id="patch_6">
    <path d="M 213.915789 17.28 
L 203.115789 12.96 
L 205.059789 17.28 
L 203.115789 21.6 
z
" clip-path="url(#pdbdbe1fdc2)" style="fill: #ffffff; stroke: #ffffff; stroke-linejoin: miter"/>
   </g>
   <g id="patch_7">
    <path d="M 192.369925 155.52 
L 181.569925 151.2 
L 183.513925 155.52 
L 181.569925 159.84 
z
" clip-path="url(#pdbdbe1fdc2)" style="fill: #ffffff; stroke: #ffffff; stroke-linejoin: miter"/>
   </g>
   <g id="line2d_9"/>
   <g id="line2d_10"/>
   <g id="line2d_11"/>
   <g id="line2d_12"/>
   <g id="line2d_13">
    <defs>
     <path id="mcf927f601c" d="M 0 2 
C 0.530406 2 1.03916 1.789267 1.414214 1.414214 
C 1.789267 1.03916 2 0.530406 2 0 
C 2 -0.530406 1.789267 -1.03916 1.414214 -1.414214 
C 1.03916 -1.789267 0.530406 -2 0 -2 
C -0.530406 -2 -1.03916 -1.789267 -1.414214 -1.414214 
C -1.789267 -1.03916 -2 -0.530406 -2 0 
C -2 0.530406 -1.789267 1.03916 -1.414214 1.414214 
C -1.03916 1.789267 -0.530406 2 0 2 
z
" style="stroke: #ffffff"/>
    </defs>
    <g clip-path="url(#pdbdbe1fdc2)">
     <use xlink:href="#mcf927f601c" x="86.4" y="17.28" style="fill: #ffffff; stroke: #ffffff"/>
    </g>
   </g>
   <g id="line2d_14">
    <g clip-path="url(#pdbdbe1fdc2)">
     <use xlink:href="#mcf927f601c" x="172.8" y="17.28" style="fill: #ffffff; stroke: #ffffff"/>
    </g>
   </g>
   <g id="line2d_15">
    <g clip-path="url(#pdbdbe1fdc2)">
     <use xlink:href="#mcf927f601c" x="129.6" y="86.4" style="fill: #ffffff; stroke: #ffffff"/>
    </g>
   </g>
   <g id="line2d_16">
    <g clip-path="url(#pdbdbe1fdc2)">
     <use xlink:href="#mcf927f601c" x="129.6" y="155.52" style="fill: #ffffff; stroke: #ffffff"/>
    </g>
   </g>
  </g>
 </g>
 <defs>
  <clipPath id="pdbdbe1fdc2">
   <rect x="0" y="0" width="259.2" height="172.8"/>
  </clipPath>
 </defs>
</svg>
