<?xml version="1.0" encoding="utf-8" standalone="no"?>
<!DOCTYPE svg PUBLIC "-//W3C//DTD SVG 1.1//EN"
  "http://www.w3.org/Graphics/SVG/1.1/DTD/svg11.dtd">
<svg xmlns:xlink="http://www.w3.org/1999/xlink" width="259.2pt" height="172.8pt" viewBox="0 0 259.2 172.8" xmlns="http://www.w3.org/2000/svg" version="1.1">
 <metadata>
  <rdf:RDF xmlns:dc="http://purl.org/dc/elements/1.1/" xmlns:cc="http://creativecommons.org/ns#" xmlns:rdf="http://www.w3.org/1999/02/22-rdf-syntax-ns#">
   <cc:Work>
    <dc:type rdf:resource="http://purl.org/dc/dcmitype/StillImage"/>
    <dc:date>2026-01-29T15:35:55.948634</dc:date>
    <dc:format>image/svg+xml</dc:format>
    <dc:creator>
     <cc:Agent>
      <dc:title>Matplotlib v3.10.8, https://matplotlib.org/</dc:title>
     </cc:Agent>
    </dc:creator>
   </cc:Work>
  </rdf:RDF>
 </metadata>
 <defs>
  <style type="text/css">*{stroke-linejoin: round; stroke-linecap: butt}</style>
 </defs>
 <g id="figure_1">
  <g id="patch_1">
   <path d="M 0 172.8 
L 259.2 172.8 
L 259.2 0 
L 0 0 
L 0 172.8 
z
" style="fill: none"/>
  </g>
  <g id="axes_1">
   <g id="matplotlib.axis_1"/>
   <g id="matplotlib.axis_2"/>
   <g id="text_1">
    <!-- $x_1$ -->
    <g style="fill: #ffffff" transform="translate(14.04 157.2) scale(0.24 -0.24)">
     <defs>
      <path id="Cmmi10-78" d="M 500 184 
Q 613 97 819 97 
Q 1019 97 1172 289 
Q 1325 481 1381 709 
L 1672 1844 
Q 1741 2153 1741 2266 
Q 1741 2425 1652 2544 
Q 1563 2663 1403 2663 
Q 1200 2663 1022 2536 
Q 844 2409 722 2214 
Q 600 2019 550 1819 
Q 538 1778 500 1778 
L 422 1778 
Q 372 1778 372 1838 
L 372 1856 
Q 434 2094 584 2320 
Q 734 2547 951 2687 
Q 1169 2828 1416 2828 
Q 1650 2828 1839 2703 
Q 2028 2578 2106 2363 
Q 2216 2559 2386 2693 
Q 2556 2828 2759 2828 
Q 2897 2828 3040 2779 
Q 3184 2731 3275 2631 
Q 3366 2531 3366 2381 
Q 3366 2219 3261 2101 
Q 3156 1984 2994 1984 
Q 2891 1984 2822 2050 
Q 2753 2116 2753 2216 
Q 2753 2350 2845 2451 
Q 2938 2553 3066 2572 
Q 2950 2663 2747 2663 
Q 2541 2663 2389 2472 
Q 2238 2281 2175 2047 
L 1894 916 
Q 1825 659 1825 494 
Q 1825 331 1917 214 
Q 2009 97 2163 97 
Q 2463 97 2698 361 
Q 2934 625 3009 941 
Q 3022 978 3059 978 
L 3138 978 
Q 3163 978 3178 961 
Q 3194 944 3194 922 
Q 3194 916 3188 903 
Q 3097 522 2806 225 
Q 2516 -72 2150 -72 
Q 1916 -72 1727 54 
Q 1538 181 1459 397 
Q 1359 209 1182 68 
Q 1006 -72 806 -72 
Q 669 -72 523 -23 
Q 378 25 287 125 
Q 197 225 197 378 
Q 197 528 301 651 
Q 406 775 563 775 
Q 669 775 741 711 
Q 813 647 813 544 
Q 813 409 723 309 
Q 634 209 500 184 
z
" transform="scale(0.015625)"/>
      <path id="Cmr10-31" d="M 594 0 
L 594 225 
Q 1394 225 1394 428 
L 1394 3788 
Q 1063 3628 556 3628 
L 556 3853 
Q 1341 3853 1741 4263 
L 1831 4263 
Q 1853 4263 1873 4245 
Q 1894 4228 1894 4206 
L 1894 428 
Q 1894 225 2694 225 
L 2694 0 
L 594 0 
z
" transform="scale(0.015625)"/>
     </defs>
     <use xlink:href="#Cmmi10-78" transform="translate(0 0.8125)"/>
     <use xlink:href="#Cmr10-31" transform="translate(57.080078 -16.19375) scale(0.7)"/>
    </g>
   </g>
   <g id="text_2">
    <!-- $x_2$ -->
    <g style="fill: #ffffff" transform="translate(14.04 27.6) scale(0.24 -0.24)">
     <defs>
      <path id="Cmr10-32" d="M 319 0 
L 319 172 
Q 319 188 331 206 
L 1325 1306 
Q 1550 1550 1690 1715 
Q 1831 1881 1968 2097 
Q 2106 2313 2186 2536 
Q 2266 2759 2266 3009 
Q 2266 3272 2169 3511 
Q 2072 3750 1880 3894 
Q 1688 4038 1416 4038 
Q 1138 4038 916 3870 
Q 694 3703 603 3438 
Q 628 3444 672 3444 
Q 816 3444 917 3347 
Q 1019 3250 1019 3097 
Q 1019 2950 917 2848 
Q 816 2747 672 2747 
Q 522 2747 420 2851 
Q 319 2956 319 3097 
Q 319 3338 409 3548 
Q 500 3759 670 3923 
Q 841 4088 1055 4175 
Q 1269 4263 1509 4263 
Q 1875 4263 2190 4108 
Q 2506 3953 2690 3670 
Q 2875 3388 2875 3009 
Q 2875 2731 2753 2481 
Q 2631 2231 2440 2026 
Q 2250 1822 1953 1562 
Q 1656 1303 1563 1216 
L 838 519 
L 1453 519 
Q 1906 519 2211 526 
Q 2516 534 2534 550 
Q 2609 631 2688 1141 
L 2875 1141 
L 2694 0 
L 319 0 
z
" transform="scale(0.015625)"/>
     </defs>
     <use xlink:href="#Cmmi10-78" transform="translate(0 0.8125)"/>
     <use xlink:href="#Cmr10-32" transform="translate(57.080078 -16.19375) scale(0.7)"/>
    </g>
   </g>
   <g id="text_3">
    <!-- $x$ -->
    <g style="fill: #ffffff" transform="translate(234.96 92.4) scale(0.24 -0.24)">
     <use xlink:href="#Cmmi10-78" transform="translate(0 0.8125)"/>
    </g>
   </g>
   <g id="text_4">
    <!-- $\Longleftarrow$ -->
    <g style="fill: #ffffff" transform="translate(188.52 92.4) scale(0.24 -0.24)">
     <defs>
      <path id="STIXGeneral-Regular-27f8" d="M 9722 768 
L 2374 768 
Q 2298 768 2253 720 
Q 2208 672 2208 627 
Q 2208 506 2355 358 
Q 2560 154 2829 -160 
L 2694 -288 
Q 2432 -26 2099 256 
Q 1766 538 1564 691 
Q 1363 845 918 1171 
Q 474 1498 352 1587 
L 352 1651 
Q 538 1792 925 2080 
Q 1312 2368 1545 2544 
Q 1779 2720 2105 2992 
Q 2432 3264 2694 3526 
L 2829 3398 
Q 2624 3162 2349 2874 
Q 2342 2861 2320 2838 
Q 2298 2816 2288 2809 
Q 2278 2803 2262 2784 
Q 2246 2765 2243 2755 
Q 2240 2746 2230 2726 
Q 2221 2707 2217 2691 
Q 2214 2675 2211 2656 
Q 2208 2637 2208 2611 
Q 2208 2566 2253 2518 
Q 2298 2470 2374 2470 
L 9722 2470 
L 9722 2048 
L 1453 2048 
Q 1075 1830 1075 1619 
Q 1075 1446 1446 1190 
L 9722 1190 
L 9722 768 
z
" transform="scale(0.015625)"/>
     </defs>
     <use xlink:href="#STIXGeneral-Regular-27f8" transform="translate(17.558594 0.90625)"/>
    </g>
   </g>
   <g id="text_5">
    <!-- $q$ -->
    <g style="fill: #ffffff" transform="translate(206.28 113.85375) scale(0.24 -0.24)">
     <defs>
      <path id="Cmmi10-71" d="M 941 -1159 
Q 963 -1019 1025 -1019 
Q 1256 -1019 1389 -981 
Q 1522 -944 1563 -800 
L 1838 288 
Q 1472 -72 1106 -72 
Q 703 -72 473 233 
Q 244 538 244 953 
Q 244 1363 455 1803 
Q 666 2244 1027 2536 
Q 1388 2828 1806 2828 
Q 2000 2828 2156 2712 
Q 2313 2597 2394 2406 
Q 2431 2481 2601 2654 
Q 2772 2828 2841 2828 
Q 2913 2828 2913 2747 
L 2016 -825 
Q 2000 -919 1997 -934 
Q 1997 -1019 2419 -1019 
Q 2450 -1019 2467 -1044 
Q 2484 -1069 2484 -1100 
Q 2463 -1184 2448 -1212 
Q 2434 -1241 2375 -1241 
L 1006 -1241 
Q 941 -1241 941 -1159 
z
M 1119 97 
Q 1344 97 1558 267 
Q 1772 438 1931 672 
L 2291 2113 
Q 2253 2338 2126 2500 
Q 2000 2663 1791 2663 
Q 1575 2663 1389 2486 
Q 1203 2309 1075 2069 
Q 950 1813 836 1366 
Q 722 919 722 672 
Q 722 450 817 273 
Q 913 97 1119 97 
z
" transform="scale(0.015625)"/>
     </defs>
     <use xlink:href="#Cmmi10-71" transform="translate(0 0.8125)"/>
    </g>
   </g>
   <g id="text_6">
    <!-- $p_1$ -->
    <g style="fill: #ffffff" transform="translate(75.36 161.37375) scale(0.24 -0.24)">
     <defs>
      <path id="Cmmi10-70" d="M -159 -1241 
Q -219 -1241 -219 -1159 
Q -197 -1019 -134 -1019 
Q 66 -1019 145 -983 
Q 225 -947 269 -800 
L 991 2081 
Q 1038 2200 1038 2388 
Q 1038 2663 850 2663 
Q 650 2663 553 2423 
Q 456 2184 366 1819 
Q 366 1778 313 1778 
L 238 1778 
Q 222 1778 203 1801 
Q 184 1825 184 1844 
Q 253 2122 317 2315 
Q 381 2509 517 2668 
Q 653 2828 856 2828 
Q 1075 2828 1240 2704 
Q 1406 2581 1453 2369 
Q 1628 2572 1840 2700 
Q 2053 2828 2278 2828 
Q 2547 2828 2745 2684 
Q 2944 2541 3044 2308 
Q 3144 2075 3144 1806 
Q 3144 1394 2933 953 
Q 2722 513 2361 220 
Q 2000 -72 1588 -72 
Q 1400 -72 1248 34 
Q 1097 141 1013 313 
L 722 -825 
Q 706 -919 703 -934 
Q 703 -1019 1125 -1019 
Q 1191 -1019 1191 -1100 
Q 1169 -1184 1155 -1212 
Q 1141 -1241 1081 -1241 
L -159 -1241 
z
M 1594 97 
Q 1816 97 2006 280 
Q 2197 463 2316 691 
Q 2403 863 2479 1111 
Q 2556 1359 2612 1640 
Q 2669 1922 2669 2088 
Q 2669 2234 2630 2362 
Q 2591 2491 2502 2577 
Q 2413 2663 2266 2663 
Q 2031 2663 1823 2495 
Q 1616 2328 1447 2081 
L 1447 2059 
L 1094 647 
Q 1138 419 1263 258 
Q 1388 97 1594 97 
z
" transform="scale(0.015625)"/>
     </defs>
     <use xlink:href="#Cmmi10-70" transform="translate(0 0.8125)"/>
     <use xlink:href="#Cmr10-31" transform="translate(50.292969 -16.19375) scale(0.7)"/>
    </g>
   </g>
   <g id="text_7">
    <!-- $p_2$ -->
    <g style="fill: #ffffff" transform="translate(75.36 23.13375) scale(0.24 -0.24)">
     <use xlink:href="#Cmmi10-70" transform="translate(0 0.8125)"/>
     <use xlink:href="#Cmr10-32" transform="translate(50.292969 -16.19375) scale(0.7)"/>
    </g>
   </g>
   <g id="text_8">
    <!-- $k$ -->
    <g style="fill: #ffffff" transform="translate(90.84 92.4) scale(0.24 -0.24)">
     <defs>
      <path id="Cmmi10-6b" d="M 341 116 
Q 341 153 347 172 
L 1275 3872 
Q 1300 3981 1306 4044 
Q 1306 4147 891 4147 
Q 825 4147 825 4231 
Q 828 4247 839 4287 
Q 850 4328 867 4350 
Q 884 4372 916 4372 
L 1778 4441 
L 1797 4441 
Q 1797 4434 1819 4423 
Q 1841 4413 1844 4409 
Q 1856 4378 1856 4359 
L 1184 1684 
Q 1416 1781 1767 2145 
Q 2119 2509 2317 2668 
Q 2516 2828 2816 2828 
Q 2994 2828 3119 2706 
Q 3244 2584 3244 2406 
Q 3244 2294 3197 2198 
Q 3150 2103 3065 2043 
Q 2981 1984 2869 1984 
Q 2766 1984 2695 2048 
Q 2625 2113 2625 2216 
Q 2625 2369 2733 2473 
Q 2841 2578 2994 2578 
Q 2931 2663 2803 2663 
Q 2613 2663 2436 2553 
Q 2259 2444 2054 2239 
Q 1850 2034 1681 1864 
Q 1513 1694 1369 1606 
Q 1747 1563 2025 1408 
Q 2303 1253 2303 934 
Q 2303 869 2278 769 
Q 2222 528 2222 384 
Q 2222 97 2419 97 
Q 2650 97 2770 350 
Q 2891 603 2969 941 
Q 2981 978 3022 978 
L 3097 978 
Q 3122 978 3139 962 
Q 3156 947 3156 922 
Q 3156 916 3150 903 
Q 2909 -72 2406 -72 
Q 2225 -72 2086 12 
Q 1947 97 1872 242 
Q 1797 388 1797 569 
Q 1797 672 1825 781 
Q 1844 856 1844 922 
Q 1844 1169 1625 1297 
Q 1406 1425 1125 1453 
L 800 147 
Q 775 50 703 -11 
Q 631 -72 538 -72 
Q 456 -72 398 -17 
Q 341 38 341 116 
z
" transform="scale(0.015625)"/>
     </defs>
     <use xlink:href="#Cmmi10-6b" transform="translate(0 0.609375)"/>
    </g>
   </g>
   <g id="text_9">
    <!-- $p_1 - k$ -->
    <g style="fill: #ffffff" transform="translate(133.32 135.6) scale(0.24 -0.24)">
     <defs>
      <path id="Cmsy10-a1" d="M 653 1472 
Q 600 1472 565 1512 
Q 531 1553 531 1600 
Q 531 1647 565 1687 
Q 600 1728 653 1728 
L 4325 1728 
Q 4375 1728 4408 1687 
Q 4441 1647 4441 1600 
Q 4441 1553 4408 1512 
Q 4375 1472 4325 1472 
L 653 1472 
z
" transform="scale(0.015625)"/>
     </defs>
     <use xlink:href="#Cmmi10-70" transform="translate(0 0.609375)"/>
     <use xlink:href="#Cmr10-31" transform="translate(50.292969 -16.396875) scale(0.7)"/>
     <use xlink:href="#Cmsy10-a1" transform="translate(109.228906 0.609375)"/>
     <use xlink:href="#Cmmi10-6b" transform="translate(204.473047 0.609375)"/>
    </g>
   </g>
   <g id="text_10">
    <!-- $p_2 - k$ -->
    <g style="fill: #ffffff" transform="translate(133.32 49.2) scale(0.24 -0.24)">
     <use xlink:href="#Cmmi10-70" transform="translate(0 0.609375)"/>
     <use xlink:href="#Cmr10-32" transform="translate(50.292969 -16.396875) scale(0.7)"/>
     <use xlink:href="#Cmsy10-a1" transform="translate(109.228906 0.609375)"/>
     <use xlink:href="#Cmmi10-6b" transform="translate(204.473047 0.609375)"/>
    </g>
   </g>
   <g id="line2d_1">
    <path d="M 43.2 155.52 
L 118.8 120.96 
L 118.8 120.96 
" clip-path="url(#pac04649707)" style="fill: none; stroke: #ffffff; stroke-width: 2"/>
   </g>
   <g id="line2d_2">
    <path d="M 118.8 51.84 
L 43.2 17.28 
L 43.2 17.28 
" clip-path="url(#pac04649707)" style="fill: none; stroke: #ffffff; stroke-width: 2"/>
   </g>
   <g id="line2d_3">
    <path d="M 118.8 120.96 
L 194.4 86.4 
L 194.4 86.4 
" clip-path="url(#pac04649707)" style="fill: none; stroke: #ffffff; stroke-width: 2"/>
   </g>
   <g id="line2d_4">
    <path d="M 194.4 86.4 
L 118.8 51.84 
L 118.8 51.84 
" clip-path="url(#pac04649707)" style="fill: none; stroke: #ffffff; stroke-width: 2"/>
   </g>
   <g id="line2d_5">
    <path d="M 118.8 120.96 
L 112.438168 119.227669 
L 110.047646 118.361504 
L 108.746564 117.668571 
L 108.18435 117.148872 
L 108.000084 116.629173 
L 108.091013 116.282707 
L 108.544471 115.763008 
L 109.363053 115.243308 
L 110.970348 114.550376 
L 113.659768 113.684211 
L 118.885035 112.298346 
L 124.6714 110.739248 
L 127.1905 109.873083 
L 128.620812 109.18015 
L 129.290073 108.660451 
L 129.585859 108.140752 
L 129.569801 107.794286 
L 129.383046 107.44782 
L 128.790059 106.92812 
L 127.841398 106.408421 
L 126.083303 105.715489 
L 123.254815 104.849323 
L 115.9432 102.943759 
L 111.771423 101.731128 
L 109.577076 100.864962 
L 108.467361 100.17203 
L 108.060955 99.652331 
L 108.002092 99.305865 
L 108.114373 98.959398 
L 108.599058 98.439699 
L 109.446926 97.92 
L 111.088456 97.227068 
L 113.809972 96.360902 
L 119.055083 94.975038 
L 124.813409 93.41594 
L 127.296537 92.549774 
L 128.690352 91.856842 
L 129.329221 91.337143 
L 129.593222 90.817444 
L 129.555757 90.470977 
L 129.347817 90.124511 
L 128.724203 89.604812 
L 127.747261 89.085113 
L 125.956827 88.39218 
L 122.467169 87.352782 
L 111.148229 84.234586 
L 109.489733 83.541654 
L 108.419155 82.848722 
L 108.044243 82.329023 
L 108.006778 81.982556 
L 108.140382 81.63609 
L 108.656176 81.116391 
L 109.533117 80.596692 
L 111.208477 79.903759 
L 113.961414 79.037594 
L 119.903533 77.478496 
L 124.953927 76.092632 
L 127.400466 75.226466 
L 128.75744 74.533534 
L 129.365759 74.013835 
L 129.597908 73.494135 
L 129.539045 73.147669 
L 129.132639 72.62797 
L 128.358361 72.108271 
L 126.803164 71.415338 
L 124.163137 70.549173 
L 118.970064 69.163308 
L 112.576384 67.430977 
L 110.148367 66.564812 
L 108.809941 65.87188 
L 108.216954 65.35218 
L 108.000753 64.832481 
L 108.070309 64.486015 
L 108.492426 63.966316 
L 109.281521 63.446617 
L 110.854182 62.753684 
L 113.510839 61.887519 
L 118.714965 60.501654 
L 125.092919 58.769323 
L 127.502263 57.903158 
L 128.822058 57.210226 
L 129.399676 56.690526 
L 129.599916 56.170827 
L 129.519671 55.824361 
L 129.08187 55.304662 
L 128.278007 54.784962 
L 126.687979 54.09203 
L 124.014858 53.225865 
L 118.8 51.84 
L 118.8 51.84 
" clip-path="url(#pac04649707)" style="fill: none; stroke: #ffffff; stroke-width: 2"/>
   </g>
   <g id="patch_2">
    <path d="M 90.917061 133.706486 
L 79.298655 134.267762 
L 82.862755 137.388455 
L 82.890819 142.125621 
z
" clip-path="url(#pac04649707)" style="fill: #ffffff; stroke: #ffffff; stroke-linejoin: miter"/>
   </g>
   <g id="patch_3">
    <path d="M 71.082939 30.026486 
L 79.109181 38.445621 
L 79.137245 33.708455 
L 82.701345 30.587762 
z
" clip-path="url(#pac04649707)" style="fill: #ffffff; stroke: #ffffff; stroke-linejoin: miter"/>
   </g>
   <g id="patch_4">
    <path d="M 166.517061 99.146486 
L 154.898655 99.707762 
L 158.462755 102.828455 
L 158.490819 107.565621 
z
" clip-path="url(#pac04649707)" style="fill: #ffffff; stroke: #ffffff; stroke-linejoin: miter"/>
   </g>
   <g id="patch_5">
    <path d="M 146.682939 64.586486 
L 154.709181 73.005621 
L 154.737245 68.268455 
L 158.301345 65.147762 
z
" clip-path="url(#pac04649707)" style="fill: #ffffff; stroke: #ffffff; stroke-linejoin: miter"/>
   </g>
   <g id="line2d_6"/>
   <g id="line2d_7"/>
   <g id="line2d_8">
    <defs>
     <path id="m068e72dcf5" d="M 0 2 
C 0.530406 2 1.03916 1.789267 1.414214 1.414214 
C 1.789267 1.03916 2 0.530406 2 0 
C 2 -0.530406 1.789267 -1.03916 1.414214 -1.414214 
C 1.03916 -1.789267 0.530406 -2 0 -2 
C -0.530406 -2 -1.03916 -1.789267 -1.414214 -1.414214 
C -1.789267 -1.03916 -2 -0.530406 -2 0 
C -2 0.530406 -1.789267 1.03916 -1.414214 1.414214 
C -1.03916 1.789267 -0.530406 2 0 2 
z
" style="stroke: #ffffff"/>
    </defs>
    <g clip-path="url(#pac04649707)">
     <use xlink:href="#m068e72dcf5" x="194.4" y="86.4" style="fill: #ffffff; stroke: #ffffff"/>
    </g>
   </g>
   <g id="line2d_9">
    <g clip-path="url(#pac04649707)">
     <use xlink:href="#m068e72dcf5" x="118.8" y="120.96" style="fill: #ffffff; stroke: #ffffff"/>
    </g>
   </g>
   <g id="line2d_10">
    <g clip-path="url(#pac04649707)">
     <use xlink:href="#m068e72dcf5" x="118.8" y="51.84" style="fill: #ffffff; stroke: #ffffff"/>
    </g>
   </g>
  </g>
 </g>
 <defs>
  <clipPath id="pac04649707">
   <rect x="0" y="0" width="259.2" height="172.8"/>
  </clipPath>
 </defs>
</svg>
