<?xml version="1.0" encoding="utf-8" standalone="no"?>
<!DOCTYPE svg PUBLIC "-//W3C//DTD SVG 1.1//EN"
  "http://www.w3.org/Graphics/SVG/1.1/DTD/svg11.dtd">
<svg xmlns:xlink="http://www.w3.org/1999/xlink" width="345.6pt" height="172.8pt" viewBox="0 0 345.6 172.8" xmlns="http://www.w3.org/2000/svg" version="1.1">
 <metadata>
  <rdf:RDF xmlns:dc="http://purl.org/dc/elements/1.1/" xmlns:cc="http://creativecommons.org/ns#" xmlns:rdf="http://www.w3.org/1999/02/22-rdf-syntax-ns#">
   <cc:Work>
    <dc:type rdf:resource="http://purl.org/dc/dcmitype/StillImage"/>
    <dc:date>2026-01-29T20:37:38.540811</dc:date>
    <dc:format>image/svg+xml</dc:format>
    <dc:creator>
     <cc:Agent>
      <dc:title>Matplotlib v3.10.8, https://matplotlib.org/</dc:title>
     </cc:Agent>
    </dc:creator>
   </cc:Work>
  </rdf:RDF>
 </metadata>
 <defs>
  <style type="text/css">*{stroke-linejoin: round; stroke-linecap: butt}</style>
 </defs>
 <g id="figure_1">
  <g id="patch_1">
   <path d="M 0 172.8 
L 345.6 172.8 
L 345.6 0 
L 0 0 
L 0 172.8 
z
" style="fill: none"/>
  </g>
  <g id="axes_1">
   <g id="matplotlib.axis_1"/>
   <g id="matplotlib.axis_2"/>
   <g id="text_1">
    <!-- $W$ -->
    <g transform="translate(155.7 60.84) scale(0.36 -0.36)">
     <defs>
      <path id="Cmmi10-57" d="M 1141 -72 
L 844 4006 
Q 822 4100 703 4123 
Q 584 4147 409 4147 
Q 347 4147 347 4231 
Q 369 4313 381 4342 
Q 394 4372 453 4372 
L 1978 4372 
Q 2041 4372 2041 4288 
Q 2016 4147 1959 4147 
Q 1447 4147 1416 3969 
L 1644 738 
L 3244 3525 
L 3213 4006 
Q 3191 4100 3072 4123 
Q 2953 4147 2778 4147 
Q 2713 4147 2713 4231 
Q 2734 4313 2746 4342 
Q 2759 4372 2822 4372 
L 4347 4372 
Q 4409 4372 4409 4288 
Q 4406 4272 4397 4234 
Q 4388 4197 4372 4172 
Q 4356 4147 4325 4147 
Q 3809 4147 3781 3969 
L 3781 3922 
L 4013 738 
L 5753 3775 
Q 5791 3844 5791 3909 
Q 5791 4041 5662 4094 
Q 5534 4147 5375 4147 
Q 5313 4147 5313 4231 
Q 5325 4281 5333 4309 
Q 5341 4338 5361 4355 
Q 5381 4372 5422 4372 
L 6644 4372 
Q 6706 4372 6706 4288 
Q 6703 4272 6693 4233 
Q 6684 4194 6667 4170 
Q 6650 4147 6625 4147 
Q 6169 4147 5931 3731 
Q 5913 3713 5913 3713 
L 3744 -72 
Q 3709 -141 3634 -141 
L 3584 -141 
Q 3506 -141 3506 -72 
L 3263 3225 
L 1381 -72 
Q 1334 -141 1269 -141 
L 1216 -141 
Q 1141 -141 1141 -72 
z
" transform="scale(0.015625)"/>
     </defs>
     <use xlink:href="#Cmmi10-57" transform="translate(0 0.6875)"/>
    </g>
   </g>
   <g id="text_2">
    <!-- $d$ -->
    <g transform="translate(313.02 160.2) scale(0.36 -0.36)">
     <defs>
      <path id="Cmmi10-64" d="M 1113 -72 
Q 709 -72 476 233 
Q 244 538 244 953 
Q 244 1363 456 1803 
Q 669 2244 1030 2536 
Q 1391 2828 1806 2828 
Q 1994 2828 2145 2723 
Q 2297 2619 2381 2444 
L 2741 3872 
Q 2766 3981 2772 4044 
Q 2772 4147 2356 4147 
Q 2291 4147 2291 4231 
Q 2294 4247 2305 4287 
Q 2316 4328 2333 4350 
Q 2350 4372 2381 4372 
L 3244 4441 
Q 3322 4441 3322 4359 
L 2400 678 
Q 2356 572 2356 372 
Q 2356 97 2541 97 
Q 2741 97 2845 351 
Q 2950 606 3022 941 
Q 3034 978 3072 978 
L 3150 978 
Q 3175 978 3190 956 
Q 3206 934 3206 916 
Q 3094 469 2961 198 
Q 2828 -72 2528 -72 
Q 2313 -72 2147 54 
Q 1981 181 1941 391 
Q 1528 -72 1113 -72 
z
M 1119 97 
Q 1350 97 1567 270 
Q 1784 444 1941 678 
Q 1947 684 1947 703 
L 2297 2113 
Q 2259 2338 2131 2500 
Q 2003 2663 1791 2663 
Q 1575 2663 1389 2486 
Q 1203 2309 1075 2069 
Q 950 1813 836 1366 
Q 722 919 722 672 
Q 722 450 817 273 
Q 913 97 1119 97 
z
" transform="scale(0.015625)"/>
     </defs>
     <use xlink:href="#Cmmi10-64" transform="translate(0 0.609375)"/>
    </g>
   </g>
   <g id="text_3">
    <!-- $u$ -->
    <g transform="translate(312.12 30.6) scale(0.36 -0.36)">
     <defs>
      <path id="Cmmi10-75" d="M 678 697 
Q 678 906 734 1126 
Q 791 1347 892 1617 
Q 994 1888 1069 2088 
Q 1153 2322 1153 2472 
Q 1153 2663 1013 2663 
Q 759 2663 595 2402 
Q 431 2141 353 1819 
Q 341 1778 300 1778 
L 225 1778 
Q 172 1778 172 1838 
L 172 1856 
Q 275 2238 487 2533 
Q 700 2828 1025 2828 
Q 1253 2828 1411 2678 
Q 1569 2528 1569 2297 
Q 1569 2178 1516 2047 
Q 1488 1969 1388 1706 
Q 1288 1444 1234 1272 
Q 1181 1100 1147 934 
Q 1113 769 1113 603 
Q 1113 391 1203 244 
Q 1294 97 1497 97 
Q 1906 97 2216 603 
Q 2222 628 2226 651 
Q 2231 675 2234 697 
L 2694 2553 
Q 2716 2638 2794 2698 
Q 2872 2759 2963 2759 
Q 3041 2759 3098 2709 
Q 3156 2659 3156 2578 
Q 3156 2541 3150 2528 
L 2688 684 
Q 2644 494 2644 372 
Q 2644 97 2828 97 
Q 3034 97 3136 351 
Q 3238 606 3309 941 
Q 3322 978 3359 978 
L 3438 978 
Q 3463 978 3478 956 
Q 3494 934 3494 916 
Q 3425 641 3361 444 
Q 3297 247 3159 87 
Q 3022 -72 2816 -72 
Q 2613 -72 2452 39 
Q 2291 150 2234 341 
Q 2088 153 1894 40 
Q 1700 -72 1484 -72 
Q 1116 -72 897 129 
Q 678 331 678 697 
z
" transform="scale(0.015625)"/>
     </defs>
     <use xlink:href="#Cmmi10-75" transform="translate(0 0.8125)"/>
    </g>
   </g>
   <g id="text_4">
    <!-- $u$ -->
    <g transform="translate(12.6 160.2) scale(0.36 -0.36)">
     <use xlink:href="#Cmmi10-75" transform="translate(0 0.8125)"/>
    </g>
   </g>
   <g id="text_5">
    <!-- $s$ -->
    <g transform="translate(14.58 30.6) scale(0.36 -0.36)">
     <defs>
      <path id="Cmmi10-73" d="M 556 391 
Q 728 97 1247 97 
Q 1472 97 1675 173 
Q 1878 250 2011 403 
Q 2144 556 2144 775 
Q 2144 941 2025 1047 
Q 1906 1153 1734 1191 
L 1388 1259 
Q 1150 1319 997 1481 
Q 844 1644 844 1875 
Q 844 2159 998 2378 
Q 1153 2597 1406 2712 
Q 1659 2828 1931 2828 
Q 2222 2828 2451 2689 
Q 2681 2550 2681 2278 
Q 2681 2131 2598 2018 
Q 2516 1906 2369 1906 
Q 2284 1906 2223 1961 
Q 2163 2016 2163 2100 
Q 2163 2175 2205 2245 
Q 2247 2316 2317 2358 
Q 2388 2400 2463 2400 
Q 2406 2538 2251 2600 
Q 2097 2663 1919 2663 
Q 1756 2663 1593 2597 
Q 1431 2531 1332 2404 
Q 1234 2278 1234 2106 
Q 1234 1991 1315 1903 
Q 1397 1816 1516 1778 
L 1888 1703 
Q 2066 1666 2214 1570 
Q 2363 1475 2448 1329 
Q 2534 1184 2534 997 
Q 2534 759 2401 528 
Q 2269 297 2075 159 
Q 1734 -72 1241 -72 
Q 900 -72 615 84 
Q 331 241 331 550 
Q 331 725 432 854 
Q 534 984 709 984 
Q 813 984 883 921 
Q 953 859 953 756 
Q 953 609 843 500 
Q 734 391 588 391 
L 556 391 
z
" transform="scale(0.015625)"/>
     </defs>
     <use xlink:href="#Cmmi10-73" transform="translate(0 0.8125)"/>
    </g>
   </g>
   <g id="line2d_1">
    <path d="M 115.2 86.4 
L 38.4 155.52 
L 38.4 155.52 
" clip-path="url(#p50b546a692)" style="fill: none; stroke: #000000; stroke-width: 2"/>
   </g>
   <g id="line2d_2">
    <path d="M 38.4 17.28 
L 115.2 86.4 
L 115.2 86.4 
" clip-path="url(#p50b546a692)" style="fill: none; stroke: #000000; stroke-width: 2"/>
   </g>
   <g id="line2d_3">
    <path d="M 115.2 86.4 
L 117.221053 80.744333 
L 118.37594 78.172448 
L 119.242105 76.763654 
L 119.819549 76.11813 
L 120.396992 75.727047 
L 120.974436 75.600084 
L 121.55188 75.740382 
L 122.129323 76.144471 
L 122.706767 76.802349 
L 123.572932 78.227788 
L 124.439098 80.107081 
L 125.593985 83.135486 
L 129.347368 93.492922 
L 130.213534 95.201902 
L 131.079699 96.422058 
L 131.657143 96.929221 
L 132.234586 97.175822 
L 132.81203 97.155757 
L 133.389474 96.869523 
L 133.966917 96.324203 
L 134.833083 95.051633 
L 135.699248 93.298583 
L 136.854135 90.385231 
L 141.184962 78.629161 
L 142.051128 77.089733 
L 142.917293 76.067361 
L 143.494737 75.702361 
L 144.07218 75.602092 
L 144.649624 75.769035 
L 145.227068 76.199058 
L 145.804511 76.881521 
L 146.670677 78.339986 
L 147.536842 80.246073 
L 148.980451 84.121294 
L 151.867669 92.2714 
L 153.022556 94.7905 
L 153.888722 96.148836 
L 154.466165 96.757063 
L 155.043609 97.108987 
L 155.621053 97.195899 
L 156.198496 97.01565 
L 156.77594 96.572698 
L 157.353383 95.878007 
L 158.219549 94.403164 
L 159.085714 92.483857 
L 160.529323 88.595515 
L 163.416541 80.457411 
L 164.571429 77.95622 
L 165.437594 76.614873 
L 166.015038 76.019155 
L 166.592481 75.680329 
L 167.169925 75.606778 
L 167.747368 75.800324 
L 168.324812 76.256176 
L 168.902256 76.963053 
L 169.768421 78.454182 
L 170.634586 80.386591 
L 172.078195 84.287812 
L 174.965414 92.413409 
L 176.120301 94.896537 
L 176.986466 96.220812 
L 177.56391 96.803983 
L 178.141353 97.129691 
L 178.718797 97.189875 
L 179.296241 96.983046 
L 179.873684 96.514321 
L 180.451128 95.795302 
L 181.317293 94.287979 
L 182.47218 91.614858 
L 183.915789 87.588089 
L 186.225564 81.036863 
L 187.380451 78.396836 
L 188.246617 76.921993 
L 188.82406 76.227302 
L 189.401504 75.78435 
L 189.978947 75.604101 
L 190.556391 75.691013 
L 191.133835 76.042937 
L 191.711278 76.651164 
L 192.577444 78.0095 
L 193.443609 79.833813 
L 194.598496 82.812927 
L 198.640602 93.869621 
L 199.506767 95.487627 
L 200.372932 96.600942 
L 200.950376 97.030965 
L 201.52782 97.197908 
L 202.105263 97.097639 
L 202.682707 96.732639 
L 203.26015 96.111941 
L 204.126316 94.7367 
L 204.992481 92.89847 
L 206.147368 89.906754 
L 209.900752 79.501417 
L 210.766917 77.748367 
L 211.633083 76.475797 
L 212.210526 75.930477 
L 212.78797 75.644243 
L 213.365414 75.624178 
L 213.942857 75.870779 
L 214.520301 76.377942 
L 215.097744 77.133117 
L 215.96391 78.688456 
L 217.118797 81.409972 
L 218.851128 86.314965 
L 220.87218 91.983049 
L 222.027068 94.572212 
L 222.893233 95.997651 
L 223.470677 96.655529 
L 224.04812 97.059618 
L 224.625564 97.199916 
L 225.203008 97.072953 
L 225.780451 96.68187 
L 226.357895 96.036346 
L 227.22406 94.627552 
L 228.090226 92.761832 
L 229.245113 89.74547 
L 230.4 86.4 
L 230.4 86.4 
" clip-path="url(#p50b546a692)" style="fill: none; stroke: #000000; stroke-width: 2"/>
   </g>
   <g id="line2d_4">
    <path d="M 230.4 86.4 
L 307.2 155.52 
L 307.2 155.52 
" clip-path="url(#p50b546a692)" style="fill: none; stroke: #000000; stroke-width: 2"/>
   </g>
   <g id="line2d_5">
    <path d="M 307.2 17.28 
L 230.4 86.4 
L 230.4 86.4 
" clip-path="url(#p50b546a692)" style="fill: none; stroke: #000000; stroke-width: 2"/>
   </g>
   <g id="patch_2">
    <path d="M 69.207419 127.793323 
L 79.102588 124.41997 
L 75.354418 122.261024 
L 74.30493 117.673263 
z
" clip-path="url(#p50b546a692)" style="stroke: #000000; stroke-linejoin: miter"/>
   </g>
   <g id="patch_3">
    <path d="M 84.392581 58.673323 
L 79.29507 48.553263 
L 78.245582 53.141024 
L 74.497412 55.29997 
z
" clip-path="url(#p50b546a692)" style="stroke: #000000; stroke-linejoin: miter"/>
   </g>
   <g id="patch_4">
    <path d="M 276.392581 127.793323 
L 271.29507 117.673263 
L 270.245582 122.261024 
L 266.497412 124.41997 
z
" clip-path="url(#p50b546a692)" style="stroke: #000000; stroke-linejoin: miter"/>
   </g>
   <g id="patch_5">
    <path d="M 261.207419 58.673323 
L 271.102588 55.29997 
L 267.354418 53.141024 
L 266.30493 48.553263 
z
" clip-path="url(#p50b546a692)" style="stroke: #000000; stroke-linejoin: miter"/>
   </g>
   <g id="line2d_6"/>
   <g id="line2d_7"/>
   <g id="line2d_8">
    <defs>
     <path id="mad65ac41ec" d="M 0 2 
C 0.530406 2 1.03916 1.789267 1.414214 1.414214 
C 1.789267 1.03916 2 0.530406 2 0 
C 2 -0.530406 1.789267 -1.03916 1.414214 -1.414214 
C 1.03916 -1.789267 0.530406 -2 0 -2 
C -0.530406 -2 -1.03916 -1.789267 -1.414214 -1.414214 
C -1.789267 -1.03916 -2 -0.530406 -2 0 
C -2 0.530406 -1.789267 1.03916 -1.414214 1.414214 
C -1.03916 1.789267 -0.530406 2 0 2 
z
" style="stroke: #000000"/>
    </defs>
    <g clip-path="url(#p50b546a692)">
     <use xlink:href="#mad65ac41ec" x="115.2" y="86.4" style="stroke: #000000"/>
    </g>
   </g>
   <g id="line2d_9">
    <g clip-path="url(#p50b546a692)">
     <use xlink:href="#mad65ac41ec" x="230.4" y="86.4" style="stroke: #000000"/>
    </g>
   </g>
   <g id="line2d_10"/>
   <g id="line2d_11"/>
  </g>
 </g>
 <defs>
  <clipPath id="p50b546a692">
   <rect x="0" y="0" width="345.6" height="172.8"/>
  </clipPath>
 </defs>
</svg>
