<?xml version="1.0" encoding="utf-8" standalone="no"?>
<!DOCTYPE svg PUBLIC "-//W3C//DTD SVG 1.1//EN"
  "http://www.w3.org/Graphics/SVG/1.1/DTD/svg11.dtd">
<svg xmlns:xlink="http://www.w3.org/1999/xlink" width="259.2pt" height="172.8pt" viewBox="0 0 259.2 172.8" xmlns="http://www.w3.org/2000/svg" version="1.1">
 <metadata>
  <rdf:RDF xmlns:dc="http://purl.org/dc/elements/1.1/" xmlns:cc="http://creativecommons.org/ns#" xmlns:rdf="http://www.w3.org/1999/02/22-rdf-syntax-ns#">
   <cc:Work>
    <dc:type rdf:resource="http://purl.org/dc/dcmitype/StillImage"/>
    <dc:date>2026-01-21T19:08:48.833215</dc:date>
    <dc:format>image/svg+xml</dc:format>
    <dc:creator>
     <cc:Agent>
      <dc:title>Matplotlib v3.10.8, https://matplotlib.org/</dc:title>
     </cc:Agent>
    </dc:creator>
   </cc:Work>
  </rdf:RDF>
 </metadata>
 <defs>
  <style type="text/css">*{stroke-linejoin: round; stroke-linecap: butt}</style>
 </defs>
 <g id="figure_1">
  <g id="patch_1">
   <path d="M 0 172.8 
L 259.2 172.8 
L 259.2 0 
L 0 0 
L 0 172.8 
z
" style="fill: none"/>
  </g>
  <g id="axes_1">
   <g id="matplotlib.axis_1"/>
   <g id="matplotlib.axis_2"/>
   <g id="text_1">
    <!-- $t$ -->
    <g style="fill: #ffffff" transform="translate(17.9 56.84) scale(0.2 -0.2)">
     <defs>
      <path id="Cmmi10-74" d="M 397 519 
Q 397 613 416 697 
L 878 2534 
L 206 2534 
Q 141 2534 141 2619 
Q 166 2759 225 2759 
L 934 2759 
L 1191 3803 
Q 1216 3888 1291 3947 
Q 1366 4006 1459 4006 
Q 1541 4006 1595 3957 
Q 1650 3909 1650 3828 
Q 1650 3809 1648 3798 
Q 1647 3788 1644 3775 
L 1388 2759 
L 2047 2759 
Q 2113 2759 2113 2675 
Q 2109 2659 2100 2621 
Q 2091 2584 2075 2559 
Q 2059 2534 2028 2534 
L 1331 2534 
L 872 684 
Q 825 503 825 372 
Q 825 97 1013 97 
Q 1294 97 1511 361 
Q 1728 625 1844 941 
Q 1869 978 1894 978 
L 1972 978 
Q 1997 978 2012 961 
Q 2028 944 2028 922 
Q 2028 909 2022 903 
Q 1881 516 1612 222 
Q 1344 -72 997 -72 
Q 744 -72 570 93 
Q 397 259 397 519 
z
" transform="scale(0.015625)"/>
     </defs>
     <use xlink:href="#Cmmi10-74" transform="translate(0 0.40625)"/>
    </g>
   </g>
   <g id="text_2">
    <!-- $b$ -->
    <g style="fill: #ffffff" transform="translate(159.86 169.16) scale(0.2 -0.2)">
     <defs>
      <path id="Cmmi10-62" d="M 1106 -72 
Q 719 -72 503 231 
Q 288 534 288 941 
Q 288 1000 317 1173 
Q 347 1347 347 1388 
L 966 3872 
Q 991 3981 997 4044 
Q 997 4147 581 4147 
Q 519 4147 519 4231 
Q 522 4247 533 4287 
Q 544 4328 561 4350 
Q 578 4372 609 4372 
L 1472 4441 
Q 1550 4441 1550 4359 
L 1075 2472 
Q 1438 2828 1806 2828 
Q 2078 2828 2273 2684 
Q 2469 2541 2566 2306 
Q 2663 2072 2663 1806 
Q 2663 1497 2542 1167 
Q 2422 838 2209 555 
Q 1997 272 1712 100 
Q 1428 -72 1106 -72 
z
M 1119 97 
Q 1338 97 1528 280 
Q 1719 463 1838 691 
Q 1966 947 2077 1386 
Q 2188 1825 2188 2088 
Q 2188 2316 2092 2489 
Q 1997 2663 1791 2663 
Q 1559 2663 1348 2492 
Q 1138 2322 978 2088 
L 800 1363 
Q 697 959 691 716 
Q 691 475 795 286 
Q 900 97 1119 97 
z
" transform="scale(0.015625)"/>
     </defs>
     <use xlink:href="#Cmmi10-62" transform="translate(0 0.609375)"/>
    </g>
   </g>
   <g id="text_3">
    <!-- $W^{+}$ -->
    <g style="fill: #ffffff" transform="translate(216.58 26.6) scale(0.2 -0.2)">
     <defs>
      <path id="Cmmi10-57" d="M 1141 -72 
L 844 4006 
Q 822 4100 703 4123 
Q 584 4147 409 4147 
Q 347 4147 347 4231 
Q 369 4313 381 4342 
Q 394 4372 453 4372 
L 1978 4372 
Q 2041 4372 2041 4288 
Q 2016 4147 1959 4147 
Q 1447 4147 1416 3969 
L 1644 738 
L 3244 3525 
L 3213 4006 
Q 3191 4100 3072 4123 
Q 2953 4147 2778 4147 
Q 2713 4147 2713 4231 
Q 2734 4313 2746 4342 
Q 2759 4372 2822 4372 
L 4347 4372 
Q 4409 4372 4409 4288 
Q 4406 4272 4397 4234 
Q 4388 4197 4372 4172 
Q 4356 4147 4325 4147 
Q 3809 4147 3781 3969 
L 3781 3922 
L 4013 738 
L 5753 3775 
Q 5791 3844 5791 3909 
Q 5791 4041 5662 4094 
Q 5534 4147 5375 4147 
Q 5313 4147 5313 4231 
Q 5325 4281 5333 4309 
Q 5341 4338 5361 4355 
Q 5381 4372 5422 4372 
L 6644 4372 
Q 6706 4372 6706 4288 
Q 6703 4272 6693 4233 
Q 6684 4194 6667 4170 
Q 6650 4147 6625 4147 
Q 6169 4147 5931 3731 
Q 5913 3713 5913 3713 
L 3744 -72 
Q 3709 -141 3634 -141 
L 3584 -141 
Q 3506 -141 3506 -72 
L 3263 3225 
L 1381 -72 
Q 1334 -141 1269 -141 
L 1216 -141 
Q 1141 -141 1141 -72 
z
" transform="scale(0.015625)"/>
      <path id="Cmr10-2b" d="M 481 1472 
Q 428 1472 393 1512 
Q 359 1553 359 1600 
Q 359 1647 393 1687 
Q 428 1728 481 1728 
L 2363 1728 
L 2363 3616 
Q 2363 3666 2400 3698 
Q 2438 3731 2491 3731 
Q 2538 3731 2578 3698 
Q 2619 3666 2619 3616 
L 2619 1728 
L 4500 1728 
Q 4547 1728 4581 1687 
Q 4616 1647 4616 1600 
Q 4616 1553 4581 1512 
Q 4547 1472 4500 1472 
L 2619 1472 
L 2619 -416 
Q 2619 -466 2578 -498 
Q 2538 -531 2491 -531 
Q 2438 -531 2400 -498 
Q 2363 -466 2363 -416 
L 2363 1472 
L 481 1472 
z
" transform="scale(0.015625)"/>
     </defs>
     <use xlink:href="#Cmmi10-57" transform="translate(0 0.928125)"/>
     <use xlink:href="#Cmr10-2b" transform="translate(105.754297 39.192187) scale(0.7)"/>
    </g>
   </g>
   <g id="line2d_1">
    <path d="M 30.24 51.84 
L 129.6 73.44 
L 129.6 73.44 
" clip-path="url(#p8e9e1be2ac)" style="fill: none; stroke: #ffffff; stroke-width: 3"/>
   </g>
   <g id="line2d_2">
    <path d="M 129.6 73.44 
L 155.52 151.2 
L 155.52 151.2 
" clip-path="url(#p8e9e1be2ac)" style="fill: none; stroke: #ffffff; stroke-width: 3"/>
   </g>
   <g id="line2d_3">
    <path d="M 129.6 73.44 
L 127.491967 67.914634 
L 126.692531 65.278195 
L 126.412277 63.711424 
L 126.460583 62.567087 
L 126.690839 62.058834 
L 127.08472 61.760955 
L 127.642124 61.673322 
L 128.358904 61.790599 
L 129.714169 62.326639 
L 131.366147 63.244165 
L 133.925911 64.926698 
L 144.078791 71.948177 
L 145.618338 72.72115 
L 146.841923 73.087885 
L 147.463799 73.083144 
L 147.923329 72.869673 
L 148.218787 72.44525 
L 148.352506 71.812878 
L 148.330823 70.980703 
L 148.030184 69.387723 
L 147.209632 66.724135 
L 145.413469 62.001892 
L 142.994426 55.674509 
L 142.216498 53.065723 
L 141.956844 51.525437 
L 142.028327 50.410899 
L 142.274834 49.92354 
L 142.685138 49.646778 
L 143.258733 49.579961 
L 143.991069 49.717239 
L 145.367644 50.280677 
L 147.03746 51.221138 
L 149.613933 52.925153 
L 159.74228 59.91509 
L 161.262232 60.66287 
L 162.463283 61.000634 
L 163.069118 60.975268 
L 163.512252 60.740714 
L 163.791363 60.295276 
L 163.909192 59.642473 
L 163.872467 58.790959 
L 163.551663 57.172052 
L 162.710392 54.481825 
L 160.900192 49.741536 
L 158.497769 43.43552 
L 157.741735 40.854884 
L 157.502889 39.341351 
L 157.526928 38.567963 
L 157.708683 37.997351 
L 158.053302 37.636136 
L 158.561902 37.485754 
L 159.231542 37.542424 
L 160.521755 37.994823 
L 162.118646 38.841525 
L 164.625655 40.456229 
L 170.263976 44.488313 
L 174.250187 47.200551 
L 176.438245 48.405177 
L 177.728458 48.857576 
L 178.398098 48.914246 
L 178.906698 48.763864 
L 179.251317 48.402649 
L 179.433072 47.832037 
L 179.457111 47.058649 
L 179.218265 45.545116 
L 178.691521 43.661429 
L 177.347289 39.92239 
L 173.777568 30.50697 
L 173.160698 28.105258 
L 173.050808 26.757527 
L 173.168637 26.104724 
L 173.447748 25.659286 
L 173.890882 25.424732 
L 174.496717 25.399366 
L 175.259906 25.576314 
L 176.678506 26.193782 
L 179.004632 27.575924 
L 182.389555 29.917226 
L 189.310777 34.794458 
L 191.592356 36.119323 
L 192.968931 36.682761 
L 193.701267 36.820039 
L 194.274862 36.753222 
L 194.685166 36.47646 
L 194.931673 35.989101 
L 195.017927 35.295702 
L 194.864306 33.891744 
L 194.408904 32.099784 
L 193.434126 29.237904 
L 188.929816 17.012277 
L 188.629177 15.419297 
L 188.65444 14.245333 
L 188.868484 13.716235 
L 189.245939 13.397239 
L 189.787112 13.288736 
L 190.488254 13.385908 
L 191.822019 13.894304 
L 193.455894 14.788555 
L 195.998509 16.449038 
L 206.725523 23.806543 
L 208.18532 24.47698 
L 209.317876 24.726678 
L 209.87528 24.639045 
L 210.269161 24.341166 
L 210.499417 23.832913 
L 210.569994 23.119359 
L 210.394779 21.687637 
L 209.921144 19.872233 
L 208.928997 16.988023 
L 207.36 12.96 
L 207.36 12.96 
" clip-path="url(#p8e9e1be2ac)" style="fill: none; stroke: #ffffff; stroke-width: 3"/>
   </g>
   <g id="patch_2">
    <path d="M 99.04082 66.7967 
L 81.421055 56.334965 
L 83.463847 63.410401 
L 78.667967 68.999171 
z
" clip-path="url(#p8e9e1be2ac)" style="fill: #ffffff; stroke: #ffffff; stroke-linejoin: miter"/>
   </g>
   <g id="patch_3">
    <path d="M 148.739949 130.859847 
L 148.739949 110.368288 
L 143.699025 115.737076 
L 136.445013 114.4666 
z
" clip-path="url(#p8e9e1be2ac)" style="fill: #ffffff; stroke: #ffffff; stroke-linejoin: miter"/>
   </g>
   <g id="line2d_4"/>
   <g id="line2d_5">
    <defs>
     <path id="m534302b272" d="M 0 5 
C 1.326016 5 2.597899 4.473168 3.535534 3.535534 
C 4.473168 2.597899 5 1.326016 5 0 
C 5 -1.326016 4.473168 -2.597899 3.535534 -3.535534 
C 2.597899 -4.473168 1.326016 -5 0 -5 
C -1.326016 -5 -2.597899 -4.473168 -3.535534 -3.535534 
C -4.473168 -2.597899 -5 -1.326016 -5 0 
C -5 1.326016 -4.473168 2.597899 -3.535534 3.535534 
C -2.597899 4.473168 -1.326016 5 0 5 
z
" style="stroke: #ffffff"/>
    </defs>
    <g clip-path="url(#p8e9e1be2ac)">
     <use xlink:href="#m534302b272" x="129.6" y="73.44" style="fill: #ffffff; stroke: #ffffff"/>
    </g>
   </g>
   <g id="line2d_6"/>
   <g id="line2d_7"/>
  </g>
 </g>
 <defs>
  <clipPath id="p8e9e1be2ac">
   <rect x="0" y="0" width="259.2" height="172.8"/>
  </clipPath>
 </defs>
</svg>
