<?xml version="1.0" encoding="utf-8" standalone="no"?>
<!DOCTYPE svg PUBLIC "-//W3C//DTD SVG 1.1//EN"
  "http://www.w3.org/Graphics/SVG/1.1/DTD/svg11.dtd">
<svg xmlns:xlink="http://www.w3.org/1999/xlink" width="345.6pt" height="259.2pt" viewBox="0 0 345.6 259.2" xmlns="http://www.w3.org/2000/svg" version="1.1">
 <metadata>
  <rdf:RDF xmlns:dc="http://purl.org/dc/elements/1.1/" xmlns:cc="http://creativecommons.org/ns#" xmlns:rdf="http://www.w3.org/1999/02/22-rdf-syntax-ns#">
   <cc:Work>
    <dc:type rdf:resource="http://purl.org/dc/dcmitype/StillImage"/>
    <dc:date>2026-01-22T12:46:05.174158</dc:date>
    <dc:format>image/svg+xml</dc:format>
    <dc:creator>
     <cc:Agent>
      <dc:title>Matplotlib v3.10.8, https://matplotlib.org/</dc:title>
     </cc:Agent>
    </dc:creator>
   </cc:Work>
  </rdf:RDF>
 </metadata>
 <defs>
  <style type="text/css">*{stroke-linejoin: round; stroke-linecap: butt}</style>
 </defs>
 <g id="figure_1">
  <g id="patch_1">
   <path d="M 0 259.2 
L 345.6 259.2 
L 345.6 0 
L 0 0 
L 0 259.2 
z
" style="fill: none"/>
  </g>
  <g id="axes_1">
   <g id="matplotlib.axis_1"/>
   <g id="matplotlib.axis_2"/>
   <g id="text_1">
    <!-- $W$ -->
    <g style="fill: #ffffff" transform="translate(161.4 40.56) scale(0.24 -0.24)">
     <defs>
      <path id="Cmmi10-57" d="M 1141 -72 
L 844 4006 
Q 822 4100 703 4123 
Q 584 4147 409 4147 
Q 347 4147 347 4231 
Q 369 4313 381 4342 
Q 394 4372 453 4372 
L 1978 4372 
Q 2041 4372 2041 4288 
Q 2016 4147 1959 4147 
Q 1447 4147 1416 3969 
L 1644 738 
L 3244 3525 
L 3213 4006 
Q 3191 4100 3072 4123 
Q 2953 4147 2778 4147 
Q 2713 4147 2713 4231 
Q 2734 4313 2746 4342 
Q 2759 4372 2822 4372 
L 4347 4372 
Q 4409 4372 4409 4288 
Q 4406 4272 4397 4234 
Q 4388 4197 4372 4172 
Q 4356 4147 4325 4147 
Q 3809 4147 3781 3969 
L 3781 3922 
L 4013 738 
L 5753 3775 
Q 5791 3844 5791 3909 
Q 5791 4041 5662 4094 
Q 5534 4147 5375 4147 
Q 5313 4147 5313 4231 
Q 5325 4281 5333 4309 
Q 5341 4338 5361 4355 
Q 5381 4372 5422 4372 
L 6644 4372 
Q 6706 4372 6706 4288 
Q 6703 4272 6693 4233 
Q 6684 4194 6667 4170 
Q 6650 4147 6625 4147 
Q 6169 4147 5931 3731 
Q 5913 3713 5913 3713 
L 3744 -72 
Q 3709 -141 3634 -141 
L 3584 -141 
Q 3506 -141 3506 -72 
L 3263 3225 
L 1381 -72 
Q 1334 -141 1269 -141 
L 1216 -141 
Q 1141 -141 1141 -72 
z
" transform="scale(0.015625)"/>
     </defs>
     <use xlink:href="#Cmmi10-57" transform="translate(0 0.6875)"/>
    </g>
   </g>
   <g id="text_2">
    <!-- $\leftarrow$ -->
    <g style="fill: #ffffff" transform="translate(156.48 83.76) scale(0.24 -0.24)">
     <defs>
      <path id="Cmsy10-c3" d="M 1722 -13 
Q 1675 250 1561 494 
Q 1447 738 1275 941 
Q 1103 1144 884 1297 
Q 666 1450 409 1538 
Q 359 1547 359 1600 
Q 359 1647 409 1672 
Q 669 1763 886 1911 
Q 1103 2059 1275 2262 
Q 1447 2466 1561 2709 
Q 1675 2953 1722 3213 
Q 1738 3272 1784 3272 
L 1913 3272 
Q 1978 3272 1978 3188 
Q 1906 2763 1664 2378 
Q 1422 1994 1056 1728 
L 5913 1728 
Q 5966 1728 6000 1687 
Q 6034 1647 6034 1600 
Q 6034 1553 6000 1512 
Q 5966 1472 5913 1472 
L 1056 1472 
Q 1416 1216 1661 827 
Q 1906 438 1978 13 
Q 1978 -72 1913 -72 
L 1784 -72 
Q 1738 -72 1722 -13 
z
" transform="scale(0.015625)"/>
     </defs>
     <use xlink:href="#Cmsy10-c3" transform="translate(17.558594 0.875)"/>
    </g>
   </g>
   <g id="text_3">
    <!-- $k$ -->
    <g style="fill: #ffffff" transform="translate(166.44 105.36) scale(0.24 -0.24)">
     <defs>
      <path id="Cmmi10-6b" d="M 341 116 
Q 341 153 347 172 
L 1275 3872 
Q 1300 3981 1306 4044 
Q 1306 4147 891 4147 
Q 825 4147 825 4231 
Q 828 4247 839 4287 
Q 850 4328 867 4350 
Q 884 4372 916 4372 
L 1778 4441 
L 1797 4441 
Q 1797 4434 1819 4423 
Q 1841 4413 1844 4409 
Q 1856 4378 1856 4359 
L 1184 1684 
Q 1416 1781 1767 2145 
Q 2119 2509 2317 2668 
Q 2516 2828 2816 2828 
Q 2994 2828 3119 2706 
Q 3244 2584 3244 2406 
Q 3244 2294 3197 2198 
Q 3150 2103 3065 2043 
Q 2981 1984 2869 1984 
Q 2766 1984 2695 2048 
Q 2625 2113 2625 2216 
Q 2625 2369 2733 2473 
Q 2841 2578 2994 2578 
Q 2931 2663 2803 2663 
Q 2613 2663 2436 2553 
Q 2259 2444 2054 2239 
Q 1850 2034 1681 1864 
Q 1513 1694 1369 1606 
Q 1747 1563 2025 1408 
Q 2303 1253 2303 934 
Q 2303 869 2278 769 
Q 2222 528 2222 384 
Q 2222 97 2419 97 
Q 2650 97 2770 350 
Q 2891 603 2969 941 
Q 2981 978 3022 978 
L 3097 978 
Q 3122 978 3139 962 
Q 3156 947 3156 922 
Q 3156 916 3150 903 
Q 2909 -72 2406 -72 
Q 2225 -72 2086 12 
Q 1947 97 1872 242 
Q 1797 388 1797 569 
Q 1797 672 1825 781 
Q 1844 856 1844 922 
Q 1844 1169 1625 1297 
Q 1406 1425 1125 1453 
L 800 147 
Q 775 50 703 -11 
Q 631 -72 538 -72 
Q 456 -72 398 -17 
Q 341 38 341 116 
z
" transform="scale(0.015625)"/>
     </defs>
     <use xlink:href="#Cmmi10-6b" transform="translate(0 0.609375)"/>
    </g>
   </g>
   <g id="text_4">
    <!-- $u,c,t$ -->
    <g style="fill: #ffffff" transform="translate(222.36 44.73375) scale(0.24 -0.24)">
     <defs>
      <path id="Cmmi10-75" d="M 678 697 
Q 678 906 734 1126 
Q 791 1347 892 1617 
Q 994 1888 1069 2088 
Q 1153 2322 1153 2472 
Q 1153 2663 1013 2663 
Q 759 2663 595 2402 
Q 431 2141 353 1819 
Q 341 1778 300 1778 
L 225 1778 
Q 172 1778 172 1838 
L 172 1856 
Q 275 2238 487 2533 
Q 700 2828 1025 2828 
Q 1253 2828 1411 2678 
Q 1569 2528 1569 2297 
Q 1569 2178 1516 2047 
Q 1488 1969 1388 1706 
Q 1288 1444 1234 1272 
Q 1181 1100 1147 934 
Q 1113 769 1113 603 
Q 1113 391 1203 244 
Q 1294 97 1497 97 
Q 1906 97 2216 603 
Q 2222 628 2226 651 
Q 2231 675 2234 697 
L 2694 2553 
Q 2716 2638 2794 2698 
Q 2872 2759 2963 2759 
Q 3041 2759 3098 2709 
Q 3156 2659 3156 2578 
Q 3156 2541 3150 2528 
L 2688 684 
Q 2644 494 2644 372 
Q 2644 97 2828 97 
Q 3034 97 3136 351 
Q 3238 606 3309 941 
Q 3322 978 3359 978 
L 3438 978 
Q 3463 978 3478 956 
Q 3494 934 3494 916 
Q 3425 641 3361 444 
Q 3297 247 3159 87 
Q 3022 -72 2816 -72 
Q 2613 -72 2452 39 
Q 2291 150 2234 341 
Q 2088 153 1894 40 
Q 1700 -72 1484 -72 
Q 1116 -72 897 129 
Q 678 331 678 697 
z
" transform="scale(0.015625)"/>
      <path id="Cmmi10-3b" d="M 634 -1153 
Q 634 -1125 659 -1100 
Q 891 -878 1019 -587 
Q 1147 -297 1147 25 
L 1147 103 
Q 1044 0 891 0 
Q 744 0 641 103 
Q 538 206 538 353 
Q 538 503 641 603 
Q 744 703 891 703 
Q 1119 703 1216 492 
Q 1313 281 1313 25 
Q 1313 -331 1170 -651 
Q 1028 -972 769 -1228 
Q 744 -1241 728 -1241 
Q 697 -1241 665 -1212 
Q 634 -1184 634 -1153 
z
" transform="scale(0.015625)"/>
      <path id="Cmmi10-63" d="M 750 763 
Q 750 484 892 290 
Q 1034 97 1300 97 
Q 1681 97 2032 272 
Q 2384 447 2606 756 
Q 2625 775 2656 775 
Q 2688 775 2720 739 
Q 2753 703 2753 672 
Q 2753 647 2741 634 
Q 2506 306 2109 117 
Q 1713 -72 1288 -72 
Q 981 -72 747 73 
Q 513 219 384 462 
Q 256 706 256 1013 
Q 256 1444 497 1869 
Q 738 2294 1138 2561 
Q 1538 2828 1978 2828 
Q 2266 2828 2495 2689 
Q 2725 2550 2725 2278 
Q 2725 2103 2623 1979 
Q 2522 1856 2350 1856 
Q 2247 1856 2176 1920 
Q 2106 1984 2106 2088 
Q 2106 2238 2215 2344 
Q 2325 2450 2472 2450 
L 2484 2450 
Q 2409 2559 2267 2611 
Q 2125 2663 1972 2663 
Q 1597 2663 1315 2342 
Q 1034 2022 892 1576 
Q 750 1131 750 763 
z
" transform="scale(0.015625)"/>
      <path id="Cmmi10-74" d="M 397 519 
Q 397 613 416 697 
L 878 2534 
L 206 2534 
Q 141 2534 141 2619 
Q 166 2759 225 2759 
L 934 2759 
L 1191 3803 
Q 1216 3888 1291 3947 
Q 1366 4006 1459 4006 
Q 1541 4006 1595 3957 
Q 1650 3909 1650 3828 
Q 1650 3809 1648 3798 
Q 1647 3788 1644 3775 
L 1388 2759 
L 2047 2759 
Q 2113 2759 2113 2675 
Q 2109 2659 2100 2621 
Q 2091 2584 2075 2559 
Q 2059 2534 2028 2534 
L 1331 2534 
L 872 684 
Q 825 503 825 372 
Q 825 97 1013 97 
Q 1294 97 1511 361 
Q 1728 625 1844 941 
Q 1869 978 1894 978 
L 1972 978 
Q 1997 978 2012 961 
Q 2028 944 2028 922 
Q 2028 909 2022 903 
Q 1881 516 1612 222 
Q 1344 -72 997 -72 
Q 744 -72 570 93 
Q 397 259 397 519 
z
" transform="scale(0.015625)"/>
     </defs>
     <use xlink:href="#Cmmi10-75" transform="translate(0 0.40625)"/>
     <use xlink:href="#Cmmi10-3b" transform="translate(57.177734 0.40625)"/>
     <use xlink:href="#Cmmi10-63" transform="translate(102.421875 0.40625)"/>
     <use xlink:href="#Cmmi10-3b" transform="translate(145.634766 0.40625)"/>
     <use xlink:href="#Cmmi10-74" transform="translate(190.878906 0.40625)"/>
    </g>
   </g>
   <g id="text_5">
    <!-- $s$ -->
    <g style="fill: #ffffff" transform="translate(311.2 51.2) scale(0.32 -0.32)">
     <defs>
      <path id="Cmmi10-73" d="M 556 391 
Q 728 97 1247 97 
Q 1472 97 1675 173 
Q 1878 250 2011 403 
Q 2144 556 2144 775 
Q 2144 941 2025 1047 
Q 1906 1153 1734 1191 
L 1388 1259 
Q 1150 1319 997 1481 
Q 844 1644 844 1875 
Q 844 2159 998 2378 
Q 1153 2597 1406 2712 
Q 1659 2828 1931 2828 
Q 2222 2828 2451 2689 
Q 2681 2550 2681 2278 
Q 2681 2131 2598 2018 
Q 2516 1906 2369 1906 
Q 2284 1906 2223 1961 
Q 2163 2016 2163 2100 
Q 2163 2175 2205 2245 
Q 2247 2316 2317 2358 
Q 2388 2400 2463 2400 
Q 2406 2538 2251 2600 
Q 2097 2663 1919 2663 
Q 1756 2663 1593 2597 
Q 1431 2531 1332 2404 
Q 1234 2278 1234 2106 
Q 1234 1991 1315 1903 
Q 1397 1816 1516 1778 
L 1888 1703 
Q 2066 1666 2214 1570 
Q 2363 1475 2448 1329 
Q 2534 1184 2534 997 
Q 2534 759 2401 528 
Q 2269 297 2075 159 
Q 1734 -72 1241 -72 
Q 900 -72 615 84 
Q 331 241 331 550 
Q 331 725 432 854 
Q 534 984 709 984 
Q 813 984 883 921 
Q 953 859 953 756 
Q 953 609 843 500 
Q 734 391 588 391 
L 556 391 
z
" transform="scale(0.015625)"/>
     </defs>
     <use xlink:href="#Cmmi10-73" transform="translate(0 0.8125)"/>
    </g>
   </g>
   <g id="text_6">
    <!-- $b$ -->
    <g style="fill: #ffffff" transform="translate(20 51.2) scale(0.32 -0.32)">
     <defs>
      <path id="Cmmi10-62" d="M 1106 -72 
Q 719 -72 503 231 
Q 288 534 288 941 
Q 288 1000 317 1173 
Q 347 1347 347 1388 
L 966 3872 
Q 991 3981 997 4044 
Q 997 4147 581 4147 
Q 519 4147 519 4231 
Q 522 4247 533 4287 
Q 544 4328 561 4350 
Q 578 4372 609 4372 
L 1472 4441 
Q 1550 4441 1550 4359 
L 1075 2472 
Q 1438 2828 1806 2828 
Q 2078 2828 2273 2684 
Q 2469 2541 2566 2306 
Q 2663 2072 2663 1806 
Q 2663 1497 2542 1167 
Q 2422 838 2209 555 
Q 1997 272 1712 100 
Q 1428 -72 1106 -72 
z
M 1119 97 
Q 1338 97 1528 280 
Q 1719 463 1838 691 
Q 1966 947 2077 1386 
Q 2188 1825 2188 2088 
Q 2188 2316 2092 2489 
Q 1997 2663 1791 2663 
Q 1559 2663 1348 2492 
Q 1138 2322 978 2088 
L 800 1363 
Q 697 959 691 716 
Q 691 475 795 286 
Q 900 97 1119 97 
z
" transform="scale(0.015625)"/>
     </defs>
     <use xlink:href="#Cmmi10-62" transform="translate(0 0.609375)"/>
    </g>
   </g>
   <g id="text_7">
    <!-- $k + p_b$ -->
    <g style="fill: #ffffff" transform="translate(84.96 126.96) scale(0.24 -0.24)">
     <defs>
      <path id="Cmr10-2b" d="M 481 1472 
Q 428 1472 393 1512 
Q 359 1553 359 1600 
Q 359 1647 393 1687 
Q 428 1728 481 1728 
L 2363 1728 
L 2363 3616 
Q 2363 3666 2400 3698 
Q 2438 3731 2491 3731 
Q 2538 3731 2578 3698 
Q 2619 3666 2619 3616 
L 2619 1728 
L 4500 1728 
Q 4547 1728 4581 1687 
Q 4616 1647 4616 1600 
Q 4616 1553 4581 1512 
Q 4547 1472 4500 1472 
L 2619 1472 
L 2619 -416 
Q 2619 -466 2578 -498 
Q 2538 -531 2491 -531 
Q 2438 -531 2400 -498 
Q 2363 -466 2363 -416 
L 2363 1472 
L 481 1472 
z
" transform="scale(0.015625)"/>
      <path id="Cmmi10-70" d="M -159 -1241 
Q -219 -1241 -219 -1159 
Q -197 -1019 -134 -1019 
Q 66 -1019 145 -983 
Q 225 -947 269 -800 
L 991 2081 
Q 1038 2200 1038 2388 
Q 1038 2663 850 2663 
Q 650 2663 553 2423 
Q 456 2184 366 1819 
Q 366 1778 313 1778 
L 238 1778 
Q 222 1778 203 1801 
Q 184 1825 184 1844 
Q 253 2122 317 2315 
Q 381 2509 517 2668 
Q 653 2828 856 2828 
Q 1075 2828 1240 2704 
Q 1406 2581 1453 2369 
Q 1628 2572 1840 2700 
Q 2053 2828 2278 2828 
Q 2547 2828 2745 2684 
Q 2944 2541 3044 2308 
Q 3144 2075 3144 1806 
Q 3144 1394 2933 953 
Q 2722 513 2361 220 
Q 2000 -72 1588 -72 
Q 1400 -72 1248 34 
Q 1097 141 1013 313 
L 722 -825 
Q 706 -919 703 -934 
Q 703 -1019 1125 -1019 
Q 1191 -1019 1191 -1100 
Q 1169 -1184 1155 -1212 
Q 1141 -1241 1081 -1241 
L -159 -1241 
z
M 1594 97 
Q 1816 97 2006 280 
Q 2197 463 2316 691 
Q 2403 863 2479 1111 
Q 2556 1359 2612 1640 
Q 2669 1922 2669 2088 
Q 2669 2234 2630 2362 
Q 2591 2491 2502 2577 
Q 2413 2663 2266 2663 
Q 2031 2663 1823 2495 
Q 1616 2328 1447 2081 
L 1447 2059 
L 1094 647 
Q 1138 419 1263 258 
Q 1388 97 1594 97 
z
" transform="scale(0.015625)"/>
     </defs>
     <use xlink:href="#Cmmi10-6b" transform="translate(0 0.609375)"/>
     <use xlink:href="#Cmr10-2b" transform="translate(69.560547 0.609375)"/>
     <use xlink:href="#Cmmi10-70" transform="translate(164.804688 0.609375)"/>
     <use xlink:href="#Cmmi10-62" transform="translate(215.097656 -16.396875) scale(0.7)"/>
    </g>
   </g>
   <g id="text_8">
    <!-- $k - p_s$ -->
    <g style="fill: #ffffff" transform="translate(207.48 126.96) scale(0.24 -0.24)">
     <defs>
      <path id="Cmsy10-a1" d="M 653 1472 
Q 600 1472 565 1512 
Q 531 1553 531 1600 
Q 531 1647 565 1687 
Q 600 1728 653 1728 
L 4325 1728 
Q 4375 1728 4408 1687 
Q 4441 1647 4441 1600 
Q 4441 1553 4408 1512 
Q 4375 1472 4325 1472 
L 653 1472 
z
" transform="scale(0.015625)"/>
     </defs>
     <use xlink:href="#Cmmi10-6b" transform="translate(0 0.609375)"/>
     <use xlink:href="#Cmsy10-a1" transform="translate(69.560547 0.609375)"/>
     <use xlink:href="#Cmmi10-70" transform="translate(164.804688 0.609375)"/>
     <use xlink:href="#Cmmi10-73" transform="translate(215.097656 -16.396875) scale(0.7)"/>
    </g>
   </g>
   <g id="text_9">
    <!-- $p_s$ -->
    <g style="fill: #ffffff" transform="translate(277.2 83.61375) scale(0.24 -0.24)">
     <use xlink:href="#Cmmi10-70" transform="translate(0 0.8125)"/>
     <use xlink:href="#Cmmi10-73" transform="translate(50.292969 -16.19375) scale(0.7)"/>
    </g>
   </g>
   <g id="text_10">
    <!-- $p_b$ -->
    <g style="fill: #ffffff" transform="translate(47.16 83.61375) scale(0.24 -0.24)">
     <use xlink:href="#Cmmi10-70" transform="translate(0 0.8125)"/>
     <use xlink:href="#Cmmi10-62" transform="translate(50.292969 -16.19375) scale(0.7)"/>
    </g>
   </g>
   <g id="text_11">
    <!-- $p_b-p_s$ -->
    <g style="fill: #ffffff" transform="translate(184.2 204.57375) scale(0.24 -0.24)">
     <use xlink:href="#Cmmi10-70" transform="translate(0 0.8125)"/>
     <use xlink:href="#Cmmi10-62" transform="translate(50.292969 -16.19375) scale(0.7)"/>
     <use xlink:href="#Cmsy10-a1" transform="translate(104.272852 0.8125)"/>
     <use xlink:href="#Cmmi10-70" transform="translate(199.516992 0.8125)"/>
     <use xlink:href="#Cmmi10-73" transform="translate(249.809961 -16.19375) scale(0.7)"/>
    </g>
   </g>
   <g id="text_12">
    <!-- $\gamma$ -->
    <g style="fill: #ffffff" transform="translate(183.68 249.085) scale(0.32 -0.32)">
     <defs>
      <path id="Cmmi10-b0" d="M 1888 -1253 
Q 1888 -1109 1952 -834 
Q 2016 -559 2108 -248 
Q 2200 63 2266 263 
Q 2291 581 2291 744 
Q 2291 1156 2209 1511 
Q 2128 1866 1903 2105 
Q 1678 2344 1275 2344 
Q 1063 2344 852 2253 
Q 641 2163 489 2000 
Q 338 1838 281 1631 
Q 269 1594 231 1594 
L 153 1594 
Q 103 1594 103 1650 
L 103 1672 
Q 175 1959 358 2226 
Q 541 2494 805 2661 
Q 1069 2828 1363 2828 
Q 1663 2828 1881 2625 
Q 2100 2422 2231 2109 
Q 2363 1797 2420 1478 
Q 2478 1159 2478 878 
Q 2800 1753 3200 2534 
L 3297 2741 
Q 3316 2759 3341 2759 
L 3419 2759 
Q 3469 2759 3469 2700 
Q 3469 2688 3456 2663 
L 3359 2463 
Q 3081 1909 2848 1340 
Q 2616 772 2450 244 
Q 2425 28 2354 -347 
Q 2284 -722 2184 -1045 
Q 2084 -1369 1984 -1381 
Q 1888 -1381 1888 -1253 
z
" transform="scale(0.015625)"/>
     </defs>
     <use xlink:href="#Cmmi10-b0" transform="translate(0 0.8125)"/>
    </g>
   </g>
   <g id="line2d_1">
    <path d="M 19.2 60.48 
L 96 60.48 
L 96 60.48 
" clip-path="url(#p08c52a1f4a)" style="fill: none; stroke: #ffffff; stroke-width: 2"/>
   </g>
   <g id="line2d_2">
    <path d="M 96 60.48 
L 97.53985 55.265142 
L 98.694737 52.1433 
L 99.464662 50.694873 
L 100.234586 49.86435 
L 100.619549 49.698825 
L 101.004511 49.704178 
L 101.389474 49.880324 
L 101.774436 50.224471 
L 102.544361 51.392373 
L 103.314286 53.134134 
L 104.469173 56.573926 
L 107.933835 67.949621 
L 108.703759 69.658393 
L 109.473684 70.787574 
L 109.858647 71.110965 
L 110.243609 71.265859 
L 110.628571 71.249801 
L 111.013534 71.063046 
L 111.398496 70.708553 
L 112.168421 69.521398 
L 112.938346 67.763303 
L 114.093233 64.306675 
L 117.557895 52.949195 
L 118.32782 51.257076 
L 119.097744 50.147361 
L 119.482707 49.834379 
L 119.867669 49.690125 
L 120.252632 49.716887 
L 120.637594 49.914241 
L 121.022556 50.279058 
L 121.792481 51.485392 
L 122.562406 53.259711 
L 123.717293 56.732962 
L 127.181955 68.071523 
L 127.95188 69.746883 
L 128.721805 70.837063 
L 129.106767 71.139618 
L 129.491729 71.273222 
L 129.876692 71.235757 
L 130.261654 71.027817 
L 130.646617 70.652698 
L 131.416541 69.427261 
L 132.186466 67.636827 
L 133.341353 64.147169 
L 136.421053 53.846503 
L 137.190977 51.931234 
L 137.960902 50.555797 
L 138.730827 49.807047 
L 139.115789 49.684101 
L 139.500752 49.732266 
L 139.885714 49.950779 
L 140.270677 50.336176 
L 141.040602 51.580641 
L 141.810526 53.387078 
L 142.965414 56.892927 
L 146.045113 67.180396 
L 146.815038 69.080466 
L 147.584962 70.43744 
L 148.354887 71.165627 
L 148.73985 71.277908 
L 149.124812 71.219045 
L 149.509774 70.989973 
L 149.894737 70.594321 
L 150.664662 69.330905 
L 151.434586 67.508577 
L 152.589474 63.986754 
L 155.669173 53.713121 
L 156.439098 51.828367 
L 157.209023 50.489941 
L 157.978947 49.782361 
L 158.36391 49.680753 
L 158.748872 49.750309 
L 159.133835 49.989927 
L 159.903759 50.961521 
L 160.673684 52.534182 
L 161.443609 54.6086 
L 162.598496 58.367812 
L 164.908271 66.207935 
L 165.678195 68.309652 
L 166.44812 69.916947 
L 167.218045 70.928324 
L 167.603008 71.188987 
L 167.98797 71.279916 
L 168.372932 71.199671 
L 168.757895 70.949523 
L 169.52782 69.958007 
L 170.297744 68.367979 
L 171.067669 66.279847 
L 172.607519 61.159835 
L 174.532331 54.680153 
L 175.302256 52.592021 
L 176.07218 51.001993 
L 176.842105 50.010477 
L 177.227068 49.760329 
L 177.61203 49.680084 
L 177.996992 49.771013 
L 178.381955 50.031676 
L 179.15188 51.043053 
L 179.921805 52.650348 
L 181.076692 55.947859 
L 184.926316 68.425818 
L 185.696241 69.998479 
L 186.466165 70.970073 
L 186.851128 71.209691 
L 187.23609 71.279247 
L 187.621053 71.177639 
L 188.006015 70.906477 
L 188.77594 69.875302 
L 189.545865 68.250839 
L 190.700752 64.934815 
L 194.550376 52.476836 
L 195.320301 50.921639 
L 196.090226 49.970027 
L 196.475188 49.740955 
L 196.86015 49.682092 
L 197.245113 49.794373 
L 197.630075 50.076017 
L 198.4 51.126926 
L 199.169925 52.768456 
L 200.324812 56.102786 
L 204.174436 68.540014 
L 204.944361 70.077651 
L 205.714286 71.009221 
L 206.099248 71.227734 
L 206.484211 71.275899 
L 206.869173 71.152953 
L 207.254135 70.860845 
L 208.02406 69.790267 
L 208.793985 68.131771 
L 209.948872 64.77934 
L 213.798496 52.363635 
L 214.568421 50.843654 
L 215.338346 49.932183 
L 215.723308 49.724243 
L 216.108271 49.686778 
L 216.493233 49.820382 
L 216.878195 50.122937 
L 217.64812 51.213117 
L 218.418045 52.888477 
L 219.572932 56.258799 
L 223.037594 67.700289 
L 223.807519 69.474608 
L 224.577444 70.680942 
L 224.962406 71.045759 
L 225.347368 71.243113 
L 225.732331 71.269875 
L 226.117293 71.125621 
L 226.502256 70.812639 
L 227.27218 69.702924 
L 228.042105 68.010805 
L 229.196992 64.622799 
L 232.661654 53.196697 
L 233.431579 51.438602 
L 234.201504 50.251447 
L 234.586466 49.896954 
L 234.971429 49.710199 
L 235.356391 49.694141 
L 235.741353 49.849035 
L 236.126316 50.172426 
L 236.896241 51.301607 
L 237.666165 53.010379 
L 238.821053 56.415859 
L 242.285714 67.825866 
L 243.055639 69.567627 
L 243.825564 70.735529 
L 244.210526 71.079676 
L 244.595489 71.255822 
L 244.980451 71.261175 
L 245.365414 71.09565 
L 245.750376 70.76187 
L 246.520301 69.613293 
L 247.290226 67.887973 
L 248.445113 64.465231 
L 249.6 60.48 
L 249.6 60.48 
" clip-path="url(#p08c52a1f4a)" style="fill: none; stroke: #ffffff; stroke-width: 2"/>
   </g>
   <g id="line2d_3">
    <path d="M 249.6 60.48 
L 326.4 60.48 
L 326.4 60.48 
" clip-path="url(#p08c52a1f4a)" style="fill: none; stroke: #ffffff; stroke-width: 2"/>
   </g>
   <g id="line2d_4">
    <path d="M 96 60.48 
L 172.8 151.2 
L 172.8 151.2 
" clip-path="url(#p08c52a1f4a)" style="fill: none; stroke: #ffffff; stroke-width: 2"/>
   </g>
   <g id="line2d_5">
    <path d="M 172.8 151.2 
L 249.6 60.48 
L 249.6 60.48 
" clip-path="url(#p08c52a1f4a)" style="fill: none; stroke: #ffffff; stroke-width: 2"/>
   </g>
   <g id="line2d_6">
    <path d="M 172.8 151.2 
L 177.82726 152.791579 
L 180.11338 153.701053 
L 181.365641 154.383158 
L 182.142198 155.065263 
L 182.373156 155.52 
L 182.367211 155.974737 
L 182.124509 156.429474 
L 181.651057 156.884211 
L 180.535345 157.566316 
L 178.990041 158.248421 
L 175.70179 159.385263 
L 166.495181 162.341053 
L 164.562771 163.250526 
L 163.637712 163.932632 
L 163.301665 164.387368 
L 163.20067 164.842105 
L 163.337225 165.296842 
L 163.707953 165.751579 
L 164.681517 166.433684 
L 166.105951 167.115789 
L 168.566744 168.025263 
L 173.705697 169.616842 
L 178.576418 171.208421 
L 180.667471 172.117895 
L 181.736388 172.8 
L 182.175837 173.254737 
L 182.383266 173.709474 
L 182.353542 174.164211 
L 182.087399 174.618947 
L 181.591424 175.073684 
L 180.444859 175.755789 
L 178.270157 176.665263 
L 174.825516 177.802105 
L 166.963389 180.303158 
L 164.889459 181.212632 
L 163.836274 181.894737 
L 163.408214 182.349474 
L 163.21257 182.804211 
L 163.254182 183.258947 
L 163.532021 183.713684 
L 164.039211 184.168421 
L 165.201097 184.850526 
L 167.392127 185.76 
L 170.848431 186.896842 
L 178.696442 189.397895 
L 180.753121 190.307368 
L 181.790508 190.989474 
L 182.207152 191.444211 
L 182.391 191.898947 
L 182.337503 192.353684 
L 182.047985 192.808421 
L 181.52961 193.263158 
L 180.352477 193.945263 
L 178.145253 194.854737 
L 174.6775 195.991579 
L 166.844092 198.492632 
L 164.804793 199.402105 
L 163.783267 200.084211 
L 163.378066 200.538947 
L 163.206025 200.993684 
L 163.271403 201.448421 
L 163.572583 201.903158 
L 164.102109 202.357895 
L 165.294418 203.04 
L 167.517699 203.949474 
L 170.996685 205.086316 
L 178.207873 207.36 
L 180.398903 208.269474 
L 181.560789 208.951579 
L 182.236133 209.633684 
L 182.396355 210.088421 
L 182.319099 210.543158 
L 182.006278 210.997895 
L 181.465632 211.452632 
L 180.258222 212.134737 
L 178.019022 213.044211 
L 174.529019 214.181053 
L 167.329843 216.454737 
L 165.155141 217.364211 
L 164.008576 218.046316 
L 163.350253 218.728421 
L 163.20186 219.183158 
L 163.290988 219.637895 
L 163.615432 220.092632 
L 164.524207 220.774737 
L 165.892588 221.456842 
L 168.297523 222.366316 
L 173.404298 223.957895 
L 178.332103 225.549474 
L 180.49034 226.458947 
L 181.621514 227.141053 
L 182.262775 227.823158 
L 182.39933 228.277895 
L 182.298335 228.732632 
L 181.962288 229.187368 
L 181.037229 229.869474 
L 179.654706 230.551579 
L 177.23558 231.461053 
L 172.120284 233.052632 
L 167.206294 234.644211 
L 165.064655 235.553684 
L 163.948943 236.235789 
L 163.475491 236.690526 
L 163.232789 237.145263 
L 163.226844 237.6 
L 163.457802 238.054737 
L 163.919948 238.509474 
L 165.02013 239.191579 
L 166.552376 239.873684 
L 169.117512 240.783158 
L 172.8 241.92 
L 172.8 241.92 
" clip-path="url(#p08c52a1f4a)" style="fill: none; stroke: #ffffff; stroke-width: 2"/>
   </g>
   <g id="patch_2">
    <path d="M 67.296241 60.48 
L 57.696241 56.16 
L 59.424241 60.48 
L 57.696241 64.8 
z
" clip-path="url(#p08c52a1f4a)" style="fill: #ffffff; stroke: #ffffff; stroke-linejoin: miter"/>
   </g>
   <g id="patch_3">
    <path d="M 297.696241 60.48 
L 288.096241 56.16 
L 289.824241 60.48 
L 288.096241 64.8 
z
" clip-path="url(#p08c52a1f4a)" style="fill: #ffffff; stroke: #ffffff; stroke-linejoin: miter"/>
   </g>
   <g id="patch_4">
    <path d="M 141.11693 113.774374 
L 137.27693 102.974374 
L 135.687965 107.361408 
L 131.715551 108.932995 
z
" clip-path="url(#p08c52a1f4a)" style="fill: #ffffff; stroke: #ffffff; stroke-linejoin: miter"/>
   </g>
   <g id="patch_5">
    <path d="M 217.91693 97.905626 
L 208.515551 102.747005 
L 212.487965 104.318592 
L 214.07693 108.705626 
z
" clip-path="url(#p08c52a1f4a)" style="fill: #ffffff; stroke: #ffffff; stroke-linejoin: miter"/>
   </g>
   <g id="line2d_7"/>
   <g id="line2d_8">
    <defs>
     <path id="m608ee9e3dd" d="M 0 2 
C 0.530406 2 1.03916 1.789267 1.414214 1.414214 
C 1.789267 1.03916 2 0.530406 2 0 
C 2 -0.530406 1.789267 -1.03916 1.414214 -1.414214 
C 1.03916 -1.789267 0.530406 -2 0 -2 
C -0.530406 -2 -1.03916 -1.789267 -1.414214 -1.414214 
C -1.789267 -1.03916 -2 -0.530406 -2 0 
C -2 0.530406 -1.789267 1.03916 -1.414214 1.414214 
C -1.03916 1.789267 -0.530406 2 0 2 
z
" style="stroke: #ffffff"/>
    </defs>
    <g clip-path="url(#p08c52a1f4a)">
     <use xlink:href="#m608ee9e3dd" x="96" y="60.48" style="fill: #ffffff; stroke: #ffffff"/>
    </g>
   </g>
   <g id="line2d_9">
    <g clip-path="url(#p08c52a1f4a)">
     <use xlink:href="#m608ee9e3dd" x="249.6" y="60.48" style="fill: #ffffff; stroke: #ffffff"/>
    </g>
   </g>
   <g id="line2d_10"/>
   <g id="line2d_11">
    <g clip-path="url(#p08c52a1f4a)">
     <use xlink:href="#m608ee9e3dd" x="172.8" y="151.2" style="fill: #ffffff; stroke: #ffffff"/>
    </g>
   </g>
   <g id="line2d_12"/>
  </g>
 </g>
 <defs>
  <clipPath id="p08c52a1f4a">
   <rect x="0" y="0" width="345.6" height="259.2"/>
  </clipPath>
 </defs>
</svg>
