<?xml version="1.0" encoding="utf-8" standalone="no"?>
<!DOCTYPE svg PUBLIC "-//W3C//DTD SVG 1.1//EN"
  "http://www.w3.org/Graphics/SVG/1.1/DTD/svg11.dtd">
<svg xmlns:xlink="http://www.w3.org/1999/xlink" width="259.2pt" height="172.8pt" viewBox="0 0 259.2 172.8" xmlns="http://www.w3.org/2000/svg" version="1.1">
 <metadata>
  <rdf:RDF xmlns:dc="http://purl.org/dc/elements/1.1/" xmlns:cc="http://creativecommons.org/ns#" xmlns:rdf="http://www.w3.org/1999/02/22-rdf-syntax-ns#">
   <cc:Work>
    <dc:type rdf:resource="http://purl.org/dc/dcmitype/StillImage"/>
    <dc:date>2026-01-31T11:31:16.644875</dc:date>
    <dc:format>image/svg+xml</dc:format>
    <dc:creator>
     <cc:Agent>
      <dc:title>Matplotlib v3.10.8, https://matplotlib.org/</dc:title>
     </cc:Agent>
    </dc:creator>
   </cc:Work>
  </rdf:RDF>
 </metadata>
 <defs>
  <style type="text/css">*{stroke-linejoin: round; stroke-linecap: butt}</style>
 </defs>
 <g id="figure_1">
  <g id="patch_1">
   <path d="M 0 172.8 
L 259.2 172.8 
L 259.2 0 
L 0 0 
L 0 172.8 
z
" style="fill: none"/>
  </g>
  <g id="axes_1">
   <g id="matplotlib.axis_1"/>
   <g id="matplotlib.axis_2"/>
   <g id="text_1">
    <!-- $\bar{q}_1$ -->
    <g style="fill: #ffffff" transform="translate(216.9 159.980625) scale(0.36 -0.36)">
     <defs>
      <path id="Cmr10-b9" d="M 441 3553 
L 441 3775 
L 2753 3775 
L 2753 3553 
L 441 3553 
z
" transform="scale(0.015625)"/>
      <path id="Cmmi10-71" d="M 941 -1159 
Q 963 -1019 1025 -1019 
Q 1256 -1019 1389 -981 
Q 1522 -944 1563 -800 
L 1838 288 
Q 1472 -72 1106 -72 
Q 703 -72 473 233 
Q 244 538 244 953 
Q 244 1363 455 1803 
Q 666 2244 1027 2536 
Q 1388 2828 1806 2828 
Q 2000 2828 2156 2712 
Q 2313 2597 2394 2406 
Q 2431 2481 2601 2654 
Q 2772 2828 2841 2828 
Q 2913 2828 2913 2747 
L 2016 -825 
Q 2000 -919 1997 -934 
Q 1997 -1019 2419 -1019 
Q 2450 -1019 2467 -1044 
Q 2484 -1069 2484 -1100 
Q 2463 -1184 2448 -1212 
Q 2434 -1241 2375 -1241 
L 1006 -1241 
Q 941 -1241 941 -1159 
z
M 1119 97 
Q 1344 97 1558 267 
Q 1772 438 1931 672 
L 2291 2113 
Q 2253 2338 2126 2500 
Q 2000 2663 1791 2663 
Q 1575 2663 1389 2486 
Q 1203 2309 1075 2069 
Q 950 1813 836 1366 
Q 722 919 722 672 
Q 722 450 817 273 
Q 913 97 1119 97 
z
" transform="scale(0.015625)"/>
      <path id="Cmr10-31" d="M 594 0 
L 594 225 
Q 1394 225 1394 428 
L 1394 3788 
Q 1063 3628 556 3628 
L 556 3853 
Q 1341 3853 1741 4263 
L 1831 4263 
Q 1853 4263 1873 4245 
Q 1894 4228 1894 4206 
L 1894 428 
Q 1894 225 2694 225 
L 2694 0 
L 594 0 
z
" transform="scale(0.015625)"/>
     </defs>
     <use xlink:href="#Cmr10-b9" transform="translate(3.254395 2.015625)"/>
     <use xlink:href="#Cmmi10-71" transform="translate(0 0.84375)"/>
     <use xlink:href="#Cmr10-31" transform="translate(49.044219 -16.1625) scale(0.7)"/>
    </g>
   </g>
   <g id="text_2">
    <!-- $q_2$ -->
    <g style="fill: #ffffff" transform="translate(217.8 30.380625) scale(0.36 -0.36)">
     <defs>
      <path id="Cmr10-32" d="M 319 0 
L 319 172 
Q 319 188 331 206 
L 1325 1306 
Q 1550 1550 1690 1715 
Q 1831 1881 1968 2097 
Q 2106 2313 2186 2536 
Q 2266 2759 2266 3009 
Q 2266 3272 2169 3511 
Q 2072 3750 1880 3894 
Q 1688 4038 1416 4038 
Q 1138 4038 916 3870 
Q 694 3703 603 3438 
Q 628 3444 672 3444 
Q 816 3444 917 3347 
Q 1019 3250 1019 3097 
Q 1019 2950 917 2848 
Q 816 2747 672 2747 
Q 522 2747 420 2851 
Q 319 2956 319 3097 
Q 319 3338 409 3548 
Q 500 3759 670 3923 
Q 841 4088 1055 4175 
Q 1269 4263 1509 4263 
Q 1875 4263 2190 4108 
Q 2506 3953 2690 3670 
Q 2875 3388 2875 3009 
Q 2875 2731 2753 2481 
Q 2631 2231 2440 2026 
Q 2250 1822 1953 1562 
Q 1656 1303 1563 1216 
L 838 519 
L 1453 519 
Q 1906 519 2211 526 
Q 2516 534 2534 550 
Q 2609 631 2688 1141 
L 2875 1141 
L 2694 0 
L 319 0 
z
" transform="scale(0.015625)"/>
     </defs>
     <use xlink:href="#Cmmi10-71" transform="translate(0 0.8125)"/>
     <use xlink:href="#Cmr10-32" transform="translate(44.580078 -16.19375) scale(0.7)"/>
    </g>
   </g>
   <g id="text_3">
    <!-- $\bar{q}_3$ -->
    <g style="fill: #ffffff" transform="translate(9.54 159.980625) scale(0.36 -0.36)">
     <defs>
      <path id="Cmr10-33" d="M 609 494 
Q 759 275 1012 169 
Q 1266 63 1556 63 
Q 1928 63 2084 380 
Q 2241 697 2241 1100 
Q 2241 1281 2208 1462 
Q 2175 1644 2097 1800 
Q 2019 1956 1883 2050 
Q 1747 2144 1550 2144 
L 1125 2144 
Q 1069 2144 1069 2203 
L 1069 2259 
Q 1069 2309 1125 2309 
L 1478 2338 
Q 1703 2338 1851 2506 
Q 2000 2675 2069 2917 
Q 2138 3159 2138 3378 
Q 2138 3684 1994 3881 
Q 1850 4078 1556 4078 
Q 1313 4078 1091 3986 
Q 869 3894 738 3706 
Q 750 3709 759 3711 
Q 769 3713 781 3713 
Q 925 3713 1022 3613 
Q 1119 3513 1119 3372 
Q 1119 3234 1022 3134 
Q 925 3034 781 3034 
Q 641 3034 541 3134 
Q 441 3234 441 3372 
Q 441 3647 606 3850 
Q 772 4053 1033 4158 
Q 1294 4263 1556 4263 
Q 1750 4263 1965 4205 
Q 2181 4147 2356 4039 
Q 2531 3931 2642 3762 
Q 2753 3594 2753 3378 
Q 2753 3109 2633 2881 
Q 2513 2653 2303 2487 
Q 2094 2322 1844 2241 
Q 2122 2188 2372 2031 
Q 2622 1875 2773 1631 
Q 2925 1388 2925 1106 
Q 2925 753 2731 467 
Q 2538 181 2222 20 
Q 1906 -141 1556 -141 
Q 1256 -141 954 -26 
Q 653 88 461 316 
Q 269 544 269 863 
Q 269 1022 375 1128 
Q 481 1234 641 1234 
Q 744 1234 830 1186 
Q 916 1138 964 1050 
Q 1013 963 1013 863 
Q 1013 706 903 600 
Q 794 494 641 494 
L 609 494 
z
" transform="scale(0.015625)"/>
     </defs>
     <use xlink:href="#Cmr10-b9" transform="translate(3.254395 2.015625)"/>
     <use xlink:href="#Cmmi10-71" transform="translate(0 0.84375)"/>
     <use xlink:href="#Cmr10-33" transform="translate(49.044219 -16.1625) scale(0.7)"/>
    </g>
   </g>
   <g id="text_4">
    <!-- $q_4$ -->
    <g style="fill: #ffffff" transform="translate(10.44 30.380625) scale(0.36 -0.36)">
     <defs>
      <path id="Cmr10-34" d="M 178 1056 
L 178 1281 
L 2156 4231 
Q 2178 4263 2222 4263 
L 2316 4263 
Q 2388 4263 2388 4191 
L 2388 1281 
L 3016 1281 
L 3016 1056 
L 2388 1056 
L 2388 428 
Q 2388 297 2575 261 
Q 2763 225 3009 225 
L 3009 0 
L 1247 0 
L 1247 225 
Q 1494 225 1681 261 
Q 1869 297 1869 428 
L 1869 1056 
L 178 1056 
z
M 391 1281 
L 1906 1281 
L 1906 3547 
L 391 1281 
z
" transform="scale(0.015625)"/>
     </defs>
     <use xlink:href="#Cmmi10-71" transform="translate(0 0.8125)"/>
     <use xlink:href="#Cmr10-34" transform="translate(44.580078 -16.19375) scale(0.7)"/>
    </g>
   </g>
   <g id="line2d_1">
    <path d="M 86.4 120.96 
L 43.2 155.52 
L 43.2 155.52 
" clip-path="url(#pbbe4e80d5e)" style="fill: none; stroke: #ffffff; stroke-width: 2"/>
   </g>
   <g id="line2d_2">
    <path d="M 129.6 86.4 
L 86.4 120.96 
L 86.4 120.96 
" clip-path="url(#pbbe4e80d5e)" style="fill: none; stroke: #ffffff; stroke-width: 2"/>
   </g>
   <g id="line2d_3">
    <path d="M 43.2 17.28 
L 129.6 86.4 
L 129.6 86.4 
" clip-path="url(#pbbe4e80d5e)" style="fill: none; stroke: #ffffff; stroke-width: 2"/>
   </g>
   <g id="line2d_4">
    <path d="M 129.6 86.4 
L 172.8 120.96 
L 172.8 120.96 
" clip-path="url(#pbbe4e80d5e)" style="fill: none; stroke: #ffffff; stroke-width: 2"/>
   </g>
   <g id="line2d_5">
    <path d="M 172.8 120.96 
L 216 155.52 
L 216 155.52 
" clip-path="url(#pbbe4e80d5e)" style="fill: none; stroke: #ffffff; stroke-width: 2"/>
   </g>
   <g id="line2d_6">
    <path d="M 216 17.28 
L 129.6 86.4 
L 129.6 86.4 
" clip-path="url(#pbbe4e80d5e)" style="fill: none; stroke: #ffffff; stroke-width: 2"/>
   </g>
   <g id="line2d_7">
    <path d="M 86.4 120.96 
L 88.188036 121.066905 
L 89.942541 121.384976 
L 91.630815 121.906342 
L 93.221796 122.618099 
L 94.68683 123.502635 
L 96.000379 124.53806 
L 97.140656 125.698752 
L 98.090158 126.955986 
L 98.836107 128.278651 
L 99.37076 129.634014 
L 99.691604 130.988536 
L 99.801416 132.308696 
L 99.708196 133.561825 
L 99.424968 134.716913 
L 98.969459 135.745373 
L 98.363658 136.621757 
L 97.633275 137.324375 
L 96.8071 137.835842 
L 95.916297 138.143498 
L 94.993626 138.239732 
L 94.07264 138.122162 
L 93.186845 137.793696 
L 92.36888 137.262464 
L 91.649705 136.541612 
L 91.057833 135.648978 
L 90.618629 134.606653 
L 90.353679 133.440429 
L 90.280257 132.179168 
L 90.410897 130.854081 
L 90.753084 129.49796 
L 91.309067 128.144364 
L 92.075805 126.826789 
L 93.04504 125.577843 
L 94.203506 124.428432 
L 95.53325 123.406999 
L 97.012085 122.538823 
L 98.61413 121.845386 
L 100.310458 121.343851 
L 102.069808 121.046627 
L 103.85936 120.961071 
L 105.645544 121.0893 
L 107.394877 121.428139 
L 109.074786 121.969205 
L 110.654415 122.699107 
L 112.105393 123.599783 
L 113.402528 124.648944 
L 114.52444 125.820628 
L 115.454081 127.085838 
L 116.179163 128.413265 
L 116.692462 129.77006 
L 116.99199 131.122647 
L 117.081054 132.437553 
L 116.968167 133.682239 
L 116.666839 134.825904 
L 116.195245 135.840244 
L 115.575773 136.70016 
L 114.83447 137.384371 
L 114.000397 137.875945 
L 113.104913 138.162716 
L 112.180896 138.23759 
L 111.261928 138.098712 
L 110.38147 137.749519 
L 109.572025 137.198653 
L 108.864343 136.459746 
L 108.286655 135.551083 
L 107.863972 134.495151 
L 107.617472 133.318081 
L 107.563974 132.049 
L 107.715517 130.719315 
L 108.07907 129.36193 
L 108.656352 128.010437 
L 109.443796 126.698281 
L 110.432632 125.457932 
L 111.609107 124.320085 
L 112.954825 123.312899 
L 114.4472 122.461297 
L 116.06002 121.786354 
L 117.764089 121.304773 
L 119.527955 121.02847 
L 121.318685 120.964285 
L 123.102683 121.113804 
L 124.846517 121.473328 
L 126.517751 122.03396 
L 128.085745 122.781826 
L 129.522414 123.698419 
L 130.802921 124.761056 
L 131.906297 125.943441 
L 132.815954 127.216314 
L 133.520098 128.548174 
L 134.012021 129.906064 
L 134.290267 131.25638 
L 134.358668 132.565706 
L 134.226249 133.80164 
L 133.907004 134.933599 
L 133.41955 135.933568 
L 132.786667 136.776803 
L 132.034735 137.442436 
L 131.193079 137.913996 
L 130.293244 138.179811 
L 129.368216 138.233305 
L 128.451603 138.073154 
L 127.576806 137.703321 
L 126.77619 137.132958 
L 126.080285 136.376179 
L 125.51703 135.451713 
L 125.11108 134.382436 
L 124.8832 133.19481 
L 124.849746 131.918225 
L 125.022262 130.584271 
L 125.407198 129.22596 
L 126.005744 127.876906 
L 126.813806 126.570492 
L 127.822104 125.339048 
L 129.016405 124.213048 
L 130.377869 123.220358 
L 131.883523 122.385542 
L 133.506824 121.729259 
L 135.218319 121.267752 
L 136.986371 121.012439 
L 138.777944 120.96964 
L 140.559419 121.140413 
L 142.29743 121.520532 
L 143.959682 122.100591 
L 145.515759 122.866236 
L 146.93787 123.798518 
L 148.201539 124.874368 
L 149.286214 126.067161 
L 150.175768 127.34738 
L 150.858906 128.683344 
L 151.329439 130.041992 
L 151.586442 131.389702 
L 151.634271 132.693123 
L 151.482459 133.92 
L 151.145483 135.039971 
L 150.642397 136.025321 
L 149.996368 136.851666 
L 149.234102 137.498557 
L 148.385178 137.949985 
L 147.481323 138.194778 
L 146.555621 138.22688 
L 145.641697 138.045496 
L 144.772885 137.655114 
L 143.981403 137.065394 
L 143.297555 136.290932 
L 142.748981 135.350891 
L 142.359973 134.268535 
L 142.150876 133.070648 
L 142.137582 131.786875 
L 142.331136 130.448984 
L 142.737466 129.090083 
L 143.357235 127.743801 
L 144.185822 126.443454 
L 145.21344 125.22122 
L 146.425377 124.107347 
L 147.802358 123.129398 
L 149.321024 122.311575 
L 150.954513 121.674116 
L 152.673116 121.232797 
L 154.445023 120.998537 
L 156.237101 120.977135 
L 158.01572 121.169119 
L 159.747583 121.56974 
L 161.400549 122.169083 
L 162.944431 122.952315 
L 164.351738 123.900056 
L 165.598364 124.988851 
L 166.664175 126.191757 
L 167.533513 127.479005 
L 168.195583 128.818741 
L 168.644718 130.17781 
L 168.88052 131.522581 
L 168.907872 132.819774 
L 168.736814 134.037288 
L 168.382297 135.144995 
L 167.863811 136.115481 
L 167.204904 136.924731 
L 166.4326 137.552719 
L 165.576727 137.983903 
L 164.669182 138.207614 
L 163.743143 138.218316 
L 162.832243 138.015743 
L 161.96974 137.604909 
L 161.187696 136.99598 
L 160.516181 136.204025 
L 159.982531 135.248643 
L 159.610669 134.153476 
L 159.420514 132.945626 
L 159.42749 131.654983 
L 159.642142 130.313486 
L 160.069873 128.954332 
L 160.710819 127.611157 
L 161.559833 126.317198 
L 162.606623 125.104478 
L 163.836003 124.003008 
L 165.228266 123.040043 
L 166.759677 122.239416 
L 168.403054 121.620939 
L 170.128447 121.199916 
L 171.903877 120.986768 
L 172.8 120.96 
L 172.8 120.96 
" clip-path="url(#pbbe4e80d5e)" style="fill: none; stroke: #ffffff; stroke-width: 2"/>
   </g>
   <g id="patch_2">
    <path d="M 56.312482 145.030015 
L 67.444547 141.656662 
L 63.227856 139.497715 
L 62.047182 134.909955 
z
" clip-path="url(#pbbe4e80d5e)" style="fill: #ffffff; stroke: #ffffff; stroke-linejoin: miter"/>
   </g>
   <g id="patch_3">
    <path d="M 99.512482 110.470015 
L 110.644547 107.096662 
L 106.427856 104.937715 
L 105.247182 100.349955 
z
" clip-path="url(#pbbe4e80d5e)" style="fill: #ffffff; stroke: #ffffff; stroke-linejoin: miter"/>
   </g>
   <g id="patch_4">
    <path d="M 94.941654 58.673323 
L 89.206953 48.553263 
L 88.02628 53.141024 
L 83.809588 55.29997 
z
" clip-path="url(#pbbe4e80d5e)" style="fill: #ffffff; stroke: #ffffff; stroke-linejoin: miter"/>
   </g>
   <g id="patch_5">
    <path d="M 159.687518 110.470015 
L 153.952818 100.349955 
L 152.772144 104.937715 
L 148.555453 107.096662 
z
" clip-path="url(#pbbe4e80d5e)" style="fill: #ffffff; stroke: #ffffff; stroke-linejoin: miter"/>
   </g>
   <g id="patch_6">
    <path d="M 202.887518 145.030015 
L 197.152818 134.909955 
L 195.972144 139.497715 
L 191.755453 141.656662 
z
" clip-path="url(#pbbe4e80d5e)" style="fill: #ffffff; stroke: #ffffff; stroke-linejoin: miter"/>
   </g>
   <g id="patch_7">
    <path d="M 164.258346 58.673323 
L 175.390412 55.29997 
L 171.17372 53.141024 
L 169.993047 48.553263 
z
" clip-path="url(#pbbe4e80d5e)" style="fill: #ffffff; stroke: #ffffff; stroke-linejoin: miter"/>
   </g>
   <g id="line2d_8"/>
   <g id="line2d_9"/>
   <g id="line2d_10">
    <defs>
     <path id="mcc1c7a4ccd" d="M 0 2 
C 0.530406 2 1.03916 1.789267 1.414214 1.414214 
C 1.789267 1.03916 2 0.530406 2 0 
C 2 -0.530406 1.789267 -1.03916 1.414214 -1.414214 
C 1.03916 -1.789267 0.530406 -2 0 -2 
C -0.530406 -2 -1.03916 -1.789267 -1.414214 -1.414214 
C -1.789267 -1.03916 -2 -0.530406 -2 0 
C -2 0.530406 -1.789267 1.03916 -1.414214 1.414214 
C -1.03916 1.789267 -0.530406 2 0 2 
z
" style="stroke: #ffffff"/>
    </defs>
    <g clip-path="url(#pbbe4e80d5e)">
     <use xlink:href="#mcc1c7a4ccd" x="129.6" y="86.4" style="fill: #ffffff; stroke: #ffffff"/>
    </g>
   </g>
   <g id="line2d_11"/>
   <g id="line2d_12"/>
   <g id="line2d_13">
    <g clip-path="url(#pbbe4e80d5e)">
     <use xlink:href="#mcc1c7a4ccd" x="86.4" y="120.96" style="fill: #ffffff; stroke: #ffffff"/>
    </g>
   </g>
   <g id="line2d_14">
    <g clip-path="url(#pbbe4e80d5e)">
     <use xlink:href="#mcc1c7a4ccd" x="172.8" y="120.96" style="fill: #ffffff; stroke: #ffffff"/>
    </g>
   </g>
  </g>
 </g>
 <defs>
  <clipPath id="pbbe4e80d5e">
   <rect x="0" y="0" width="259.2" height="172.8"/>
  </clipPath>
 </defs>
</svg>
