<?xml version="1.0" encoding="utf-8" standalone="no"?>
<!DOCTYPE svg PUBLIC "-//W3C//DTD SVG 1.1//EN"
  "http://www.w3.org/Graphics/SVG/1.1/DTD/svg11.dtd">
<svg xmlns:xlink="http://www.w3.org/1999/xlink" width="259.2pt" height="172.8pt" viewBox="0 0 259.2 172.8" xmlns="http://www.w3.org/2000/svg" version="1.1">
 <metadata>
  <rdf:RDF xmlns:dc="http://purl.org/dc/elements/1.1/" xmlns:cc="http://creativecommons.org/ns#" xmlns:rdf="http://www.w3.org/1999/02/22-rdf-syntax-ns#">
   <cc:Work>
    <dc:type rdf:resource="http://purl.org/dc/dcmitype/StillImage"/>
    <dc:date>2026-01-21T21:41:44.654356</dc:date>
    <dc:format>image/svg+xml</dc:format>
    <dc:creator>
     <cc:Agent>
      <dc:title>Matplotlib v3.10.8, https://matplotlib.org/</dc:title>
     </cc:Agent>
    </dc:creator>
   </cc:Work>
  </rdf:RDF>
 </metadata>
 <defs>
  <style type="text/css">*{stroke-linejoin: round; stroke-linecap: butt}</style>
 </defs>
 <g id="figure_1">
  <g id="patch_1">
   <path d="M 0 172.8 
L 259.2 172.8 
L 259.2 0 
L 0 0 
L 0 172.8 
z
" style="fill: none"/>
  </g>
  <g id="axes_1">
   <g id="matplotlib.axis_1"/>
   <g id="matplotlib.axis_2"/>
   <g id="text_1">
    <!-- $\phi$ -->
    <g transform="translate(222.48 160.02) scale(0.36 -0.36)">
     <defs>
      <path id="Cmmi10-c1" d="M 1241 -1247 
L 1528 -91 
Q 1203 -91 922 61 
Q 641 213 470 484 
Q 300 756 300 1075 
Q 300 1422 472 1737 
Q 644 2053 942 2311 
Q 1241 2569 1584 2708 
Q 1928 2847 2266 2847 
L 2650 4403 
Q 2663 4441 2700 4441 
L 2778 4441 
Q 2803 4441 2818 4419 
Q 2834 4397 2834 4378 
L 2450 2847 
Q 2691 2847 2916 2759 
Q 3141 2672 3314 2514 
Q 3488 2356 3584 2142 
Q 3681 1928 3681 1684 
Q 3681 1338 3509 1022 
Q 3338 706 3047 453 
Q 2756 200 2398 54 
Q 2041 -91 1716 -91 
L 1422 -1275 
Q 1409 -1313 1369 -1313 
L 1294 -1313 
Q 1269 -1313 1255 -1289 
Q 1241 -1266 1241 -1247 
z
M 1569 78 
L 2222 2681 
Q 2059 2681 1881 2615 
Q 1703 2550 1545 2450 
Q 1388 2350 1259 2222 
Q 1103 2066 984 1853 
Q 866 1641 805 1405 
Q 744 1169 744 941 
Q 744 700 847 503 
Q 950 306 1137 192 
Q 1325 78 1569 78 
z
M 1759 78 
Q 2000 78 2272 215 
Q 2544 353 2719 538 
Q 2959 775 3098 1120 
Q 3238 1466 3238 1819 
Q 3238 2056 3134 2254 
Q 3031 2453 2843 2567 
Q 2656 2681 2413 2681 
L 1759 78 
z
" transform="scale(0.015625)"/>
     </defs>
     <use xlink:href="#Cmmi10-c1" transform="translate(0 0.609375)"/>
    </g>
   </g>
   <g id="text_2">
    <!-- $\phi$ -->
    <g transform="translate(222.48 30.42) scale(0.36 -0.36)">
     <use xlink:href="#Cmmi10-c1" transform="translate(0 0.609375)"/>
    </g>
   </g>
   <g id="text_3">
    <!-- $\phi$ -->
    <g transform="translate(15.12 160.02) scale(0.36 -0.36)">
     <use xlink:href="#Cmmi10-c1" transform="translate(0 0.609375)"/>
    </g>
   </g>
   <g id="text_4">
    <!-- $\phi$ -->
    <g transform="translate(15.12 30.42) scale(0.36 -0.36)">
     <use xlink:href="#Cmmi10-c1" transform="translate(0 0.609375)"/>
    </g>
   </g>
   <g id="line2d_1">
    <path d="M 43.2 155.52 
L 129.6 86.4 
L 129.6 86.4 
" clip-path="url(#p5b023de8c7)" style="fill: none; stroke: #000000; stroke-width: 2"/>
   </g>
   <g id="line2d_2">
    <path d="M 43.2 17.28 
L 129.6 86.4 
L 129.6 86.4 
" clip-path="url(#p5b023de8c7)" style="fill: none; stroke: #000000; stroke-width: 2"/>
   </g>
   <g id="line2d_3">
    <path d="M 129.6 86.4 
L 216 155.52 
L 216 155.52 
" clip-path="url(#p5b023de8c7)" style="fill: none; stroke: #000000; stroke-width: 2"/>
   </g>
   <g id="line2d_4">
    <path d="M 129.6 86.4 
L 216 17.28 
L 216 17.28 
" clip-path="url(#p5b023de8c7)" style="fill: none; stroke: #000000; stroke-width: 2"/>
   </g>
   <g id="patch_2">
    <path d="M 94.941654 114.126677 
L 83.809588 117.50003 
L 88.02628 119.658976 
L 89.206953 124.246737 
z
" clip-path="url(#p5b023de8c7)" style="stroke: #000000; stroke-linejoin: miter"/>
   </g>
   <g id="patch_3">
    <path d="M 94.941654 58.673323 
L 89.206953 48.553263 
L 88.02628 53.141024 
L 83.809588 55.29997 
z
" clip-path="url(#p5b023de8c7)" style="stroke: #000000; stroke-linejoin: miter"/>
   </g>
   <g id="patch_4">
    <path d="M 181.341654 127.793323 
L 175.606953 117.673263 
L 174.42628 122.261024 
L 170.209588 124.41997 
z
" clip-path="url(#p5b023de8c7)" style="stroke: #000000; stroke-linejoin: miter"/>
   </g>
   <g id="patch_5">
    <path d="M 181.341654 45.006677 
L 170.209588 48.38003 
L 174.42628 50.538976 
L 175.606953 55.126737 
z
" clip-path="url(#p5b023de8c7)" style="stroke: #000000; stroke-linejoin: miter"/>
   </g>
   <g id="line2d_5"/>
   <g id="line2d_6"/>
   <g id="line2d_7">
    <defs>
     <path id="mfd2cdc6dc2" d="M 0 2 
C 0.530406 2 1.03916 1.789267 1.414214 1.414214 
C 1.789267 1.03916 2 0.530406 2 0 
C 2 -0.530406 1.789267 -1.03916 1.414214 -1.414214 
C 1.03916 -1.789267 0.530406 -2 0 -2 
C -0.530406 -2 -1.03916 -1.789267 -1.414214 -1.414214 
C -1.789267 -1.03916 -2 -0.530406 -2 0 
C -2 0.530406 -1.789267 1.03916 -1.414214 1.414214 
C -1.03916 1.789267 -0.530406 2 0 2 
z
" style="stroke: #000000"/>
    </defs>
    <g clip-path="url(#p5b023de8c7)">
     <use xlink:href="#mfd2cdc6dc2" x="129.6" y="86.4" style="stroke: #000000"/>
    </g>
   </g>
   <g id="line2d_8"/>
   <g id="line2d_9"/>
  </g>
 </g>
 <defs>
  <clipPath id="p5b023de8c7">
   <rect x="0" y="0" width="259.2" height="172.8"/>
  </clipPath>
 </defs>
</svg>
