<?xml version="1.0" encoding="utf-8" standalone="no"?>
<!DOCTYPE svg PUBLIC "-//W3C//DTD SVG 1.1//EN"
  "http://www.w3.org/Graphics/SVG/1.1/DTD/svg11.dtd">
<svg xmlns:xlink="http://www.w3.org/1999/xlink" width="518.4pt" height="172.8pt" viewBox="0 0 518.4 172.8" xmlns="http://www.w3.org/2000/svg" version="1.1">
 <metadata>
  <rdf:RDF xmlns:dc="http://purl.org/dc/elements/1.1/" xmlns:cc="http://creativecommons.org/ns#" xmlns:rdf="http://www.w3.org/1999/02/22-rdf-syntax-ns#">
   <cc:Work>
    <dc:type rdf:resource="http://purl.org/dc/dcmitype/StillImage"/>
    <dc:date>2026-03-21T14:17:35.607482</dc:date>
    <dc:format>image/svg+xml</dc:format>
    <dc:creator>
     <cc:Agent>
      <dc:title>Matplotlib v3.10.8, https://matplotlib.org/</dc:title>
     </cc:Agent>
    </dc:creator>
   </cc:Work>
  </rdf:RDF>
 </metadata>
 <defs>
  <style type="text/css">*{stroke-linejoin: round; stroke-linecap: butt}</style>
 </defs>
 <g id="figure_1">
  <g id="patch_1">
   <path d="M 0 172.8 
L 518.4 172.8 
L 518.4 0 
L 0 0 
L 0 172.8 
z
" style="fill: none"/>
  </g>
  <g id="axes_1">
   <g id="matplotlib.axis_1"/>
   <g id="matplotlib.axis_2"/>
   <g id="text_1">
    <!-- $x$ -->
    <g transform="translate(46.88 20.96) scale(0.32 -0.32)">
     <defs>
      <path id="Cmmi10-78" d="M 500 184 
Q 613 97 819 97 
Q 1019 97 1172 289 
Q 1325 481 1381 709 
L 1672 1844 
Q 1741 2153 1741 2266 
Q 1741 2425 1652 2544 
Q 1563 2663 1403 2663 
Q 1200 2663 1022 2536 
Q 844 2409 722 2214 
Q 600 2019 550 1819 
Q 538 1778 500 1778 
L 422 1778 
Q 372 1778 372 1838 
L 372 1856 
Q 434 2094 584 2320 
Q 734 2547 951 2687 
Q 1169 2828 1416 2828 
Q 1650 2828 1839 2703 
Q 2028 2578 2106 2363 
Q 2216 2559 2386 2693 
Q 2556 2828 2759 2828 
Q 2897 2828 3040 2779 
Q 3184 2731 3275 2631 
Q 3366 2531 3366 2381 
Q 3366 2219 3261 2101 
Q 3156 1984 2994 1984 
Q 2891 1984 2822 2050 
Q 2753 2116 2753 2216 
Q 2753 2350 2845 2451 
Q 2938 2553 3066 2572 
Q 2950 2663 2747 2663 
Q 2541 2663 2389 2472 
Q 2238 2281 2175 2047 
L 1894 916 
Q 1825 659 1825 494 
Q 1825 331 1917 214 
Q 2009 97 2163 97 
Q 2463 97 2698 361 
Q 2934 625 3009 941 
Q 3022 978 3059 978 
L 3138 978 
Q 3163 978 3178 961 
Q 3194 944 3194 922 
Q 3194 916 3188 903 
Q 3097 522 2806 225 
Q 2516 -72 2150 -72 
Q 1916 -72 1727 54 
Q 1538 181 1459 397 
Q 1359 209 1182 68 
Q 1006 -72 806 -72 
Q 669 -72 523 -23 
Q 378 25 287 125 
Q 197 225 197 378 
Q 197 528 301 651 
Q 406 775 563 775 
Q 669 775 741 711 
Q 813 647 813 544 
Q 813 409 723 309 
Q 634 209 500 184 
z
" transform="scale(0.015625)"/>
     </defs>
     <use xlink:href="#Cmmi10-78" transform="translate(0 0.8125)"/>
    </g>
   </g>
   <g id="text_2">
    <!-- $y$ -->
    <g transform="translate(108.64 20.445) scale(0.32 -0.32)">
     <defs>
      <path id="Cmmi10-79" d="M 538 -916 
Q 672 -1147 1006 -1147 
Q 1309 -1147 1531 -934 
Q 1753 -722 1889 -420 
Q 2025 -119 2100 197 
Q 1816 -72 1484 -72 
Q 1231 -72 1053 15 
Q 875 103 776 276 
Q 678 450 678 697 
Q 678 906 734 1126 
Q 791 1347 892 1617 
Q 994 1888 1069 2088 
Q 1153 2322 1153 2472 
Q 1153 2663 1013 2663 
Q 759 2663 595 2402 
Q 431 2141 353 1819 
Q 341 1778 300 1778 
L 225 1778 
Q 172 1778 172 1838 
L 172 1856 
Q 275 2238 487 2533 
Q 700 2828 1025 2828 
Q 1253 2828 1411 2678 
Q 1569 2528 1569 2297 
Q 1569 2178 1516 2047 
Q 1488 1969 1388 1706 
Q 1288 1444 1234 1272 
Q 1181 1100 1147 934 
Q 1113 769 1113 603 
Q 1113 391 1203 244 
Q 1294 97 1491 97 
Q 1888 97 2203 581 
L 2688 2553 
Q 2709 2638 2787 2698 
Q 2866 2759 2956 2759 
Q 3034 2759 3092 2709 
Q 3150 2659 3150 2578 
Q 3150 2541 3144 2528 
L 2509 -19 
Q 2425 -347 2200 -647 
Q 1975 -947 1658 -1130 
Q 1341 -1313 997 -1313 
Q 831 -1313 668 -1248 
Q 506 -1184 406 -1056 
Q 306 -928 306 -756 
Q 306 -581 409 -453 
Q 513 -325 684 -325 
Q 788 -325 858 -389 
Q 928 -453 928 -556 
Q 928 -703 818 -812 
Q 709 -922 563 -922 
Q 556 -919 550 -917 
Q 544 -916 538 -916 
z
" transform="scale(0.015625)"/>
     </defs>
     <use xlink:href="#Cmmi10-79" transform="translate(0 0.8125)"/>
    </g>
   </g>
   <g id="text_3">
    <!-- $x_1$ -->
    <g transform="translate(27.36 159.2) scale(0.32 -0.32)">
     <defs>
      <path id="Cmr10-31" d="M 594 0 
L 594 225 
Q 1394 225 1394 428 
L 1394 3788 
Q 1063 3628 556 3628 
L 556 3853 
Q 1341 3853 1741 4263 
L 1831 4263 
Q 1853 4263 1873 4245 
Q 1894 4228 1894 4206 
L 1894 428 
Q 1894 225 2694 225 
L 2694 0 
L 594 0 
z
" transform="scale(0.015625)"/>
     </defs>
     <use xlink:href="#Cmmi10-78" transform="translate(0 0.8125)"/>
     <use xlink:href="#Cmr10-31" transform="translate(57.080078 -16.19375) scale(0.7)"/>
    </g>
   </g>
   <g id="text_4">
    <!-- $x_2$ -->
    <g transform="translate(113.76 159.2) scale(0.32 -0.32)">
     <defs>
      <path id="Cmr10-32" d="M 319 0 
L 319 172 
Q 319 188 331 206 
L 1325 1306 
Q 1550 1550 1690 1715 
Q 1831 1881 1968 2097 
Q 2106 2313 2186 2536 
Q 2266 2759 2266 3009 
Q 2266 3272 2169 3511 
Q 2072 3750 1880 3894 
Q 1688 4038 1416 4038 
Q 1138 4038 916 3870 
Q 694 3703 603 3438 
Q 628 3444 672 3444 
Q 816 3444 917 3347 
Q 1019 3250 1019 3097 
Q 1019 2950 917 2848 
Q 816 2747 672 2747 
Q 522 2747 420 2851 
Q 319 2956 319 3097 
Q 319 3338 409 3548 
Q 500 3759 670 3923 
Q 841 4088 1055 4175 
Q 1269 4263 1509 4263 
Q 1875 4263 2190 4108 
Q 2506 3953 2690 3670 
Q 2875 3388 2875 3009 
Q 2875 2731 2753 2481 
Q 2631 2231 2440 2026 
Q 2250 1822 1953 1562 
Q 1656 1303 1563 1216 
L 838 519 
L 1453 519 
Q 1906 519 2211 526 
Q 2516 534 2534 550 
Q 2609 631 2688 1141 
L 2875 1141 
L 2694 0 
L 319 0 
z
" transform="scale(0.015625)"/>
     </defs>
     <use xlink:href="#Cmmi10-78" transform="translate(0 0.8125)"/>
     <use xlink:href="#Cmr10-32" transform="translate(57.080078 -16.19375) scale(0.7)"/>
    </g>
   </g>
   <g id="text_5">
    <!-- $p_1$ -->
    <g transform="translate(15.52 120.125) scale(0.32 -0.32)">
     <defs>
      <path id="Cmmi10-70" d="M -159 -1241 
Q -219 -1241 -219 -1159 
Q -197 -1019 -134 -1019 
Q 66 -1019 145 -983 
Q 225 -947 269 -800 
L 991 2081 
Q 1038 2200 1038 2388 
Q 1038 2663 850 2663 
Q 650 2663 553 2423 
Q 456 2184 366 1819 
Q 366 1778 313 1778 
L 238 1778 
Q 222 1778 203 1801 
Q 184 1825 184 1844 
Q 253 2122 317 2315 
Q 381 2509 517 2668 
Q 653 2828 856 2828 
Q 1075 2828 1240 2704 
Q 1406 2581 1453 2369 
Q 1628 2572 1840 2700 
Q 2053 2828 2278 2828 
Q 2547 2828 2745 2684 
Q 2944 2541 3044 2308 
Q 3144 2075 3144 1806 
Q 3144 1394 2933 953 
Q 2722 513 2361 220 
Q 2000 -72 1588 -72 
Q 1400 -72 1248 34 
Q 1097 141 1013 313 
L 722 -825 
Q 706 -919 703 -934 
Q 703 -1019 1125 -1019 
Q 1191 -1019 1191 -1100 
Q 1169 -1184 1155 -1212 
Q 1141 -1241 1081 -1241 
L -159 -1241 
z
M 1594 97 
Q 1816 97 2006 280 
Q 2197 463 2316 691 
Q 2403 863 2479 1111 
Q 2556 1359 2612 1640 
Q 2669 1922 2669 2088 
Q 2669 2234 2630 2362 
Q 2591 2491 2502 2577 
Q 2413 2663 2266 2663 
Q 2031 2663 1823 2495 
Q 1616 2328 1447 2081 
L 1447 2059 
L 1094 647 
Q 1138 419 1263 258 
Q 1388 97 1594 97 
z
" transform="scale(0.015625)"/>
     </defs>
     <use xlink:href="#Cmmi10-70" transform="translate(0 0.8125)"/>
     <use xlink:href="#Cmr10-31" transform="translate(50.292969 -16.19375) scale(0.7)"/>
    </g>
   </g>
   <g id="text_6">
    <!-- $p_2$ -->
    <g transform="translate(127.84 120.125) scale(0.32 -0.32)">
     <use xlink:href="#Cmmi10-70" transform="translate(0 0.8125)"/>
     <use xlink:href="#Cmr10-32" transform="translate(50.292969 -16.19375) scale(0.7)"/>
    </g>
   </g>
   <g id="text_7">
    <!-- $q$ -->
    <g transform="translate(31.68 59.645) scale(0.32 -0.32)">
     <defs>
      <path id="Cmmi10-71" d="M 941 -1159 
Q 963 -1019 1025 -1019 
Q 1256 -1019 1389 -981 
Q 1522 -944 1563 -800 
L 1838 288 
Q 1472 -72 1106 -72 
Q 703 -72 473 233 
Q 244 538 244 953 
Q 244 1363 455 1803 
Q 666 2244 1027 2536 
Q 1388 2828 1806 2828 
Q 2000 2828 2156 2712 
Q 2313 2597 2394 2406 
Q 2431 2481 2601 2654 
Q 2772 2828 2841 2828 
Q 2913 2828 2913 2747 
L 2016 -825 
Q 2000 -919 1997 -934 
Q 1997 -1019 2419 -1019 
Q 2450 -1019 2467 -1044 
Q 2484 -1069 2484 -1100 
Q 2463 -1184 2448 -1212 
Q 2434 -1241 2375 -1241 
L 1006 -1241 
Q 941 -1241 941 -1159 
z
M 1119 97 
Q 1344 97 1558 267 
Q 1772 438 1931 672 
L 2291 2113 
Q 2253 2338 2126 2500 
Q 2000 2663 1791 2663 
Q 1575 2663 1389 2486 
Q 1203 2309 1075 2069 
Q 950 1813 836 1366 
Q 722 919 722 672 
Q 722 450 817 273 
Q 913 97 1119 97 
z
" transform="scale(0.015625)"/>
     </defs>
     <use xlink:href="#Cmmi10-71" transform="translate(0 0.8125)"/>
    </g>
   </g>
   <g id="text_8">
    <!-- $p$ -->
    <g transform="translate(125.76 59.645) scale(0.32 -0.32)">
     <use xlink:href="#Cmmi10-70" transform="translate(0 0.8125)"/>
    </g>
   </g>
   <g id="text_9">
    <!-- $\Longrightarrow$ -->
    <g transform="translate(141.92 94.4) scale(0.32 -0.32)">
     <defs>
      <path id="STIXGeneral-Regular-27f9" d="M 9722 1651 
L 9722 1587 
Q 9536 1446 9149 1158 
Q 8762 870 8528 694 
Q 8294 518 7968 246 
Q 7642 -26 7379 -288 
L 7245 -160 
Q 7450 77 7725 365 
Q 7731 378 7753 400 
Q 7776 422 7785 428 
Q 7795 435 7811 454 
Q 7827 474 7830 483 
Q 7834 493 7843 512 
Q 7853 531 7856 547 
Q 7859 563 7862 582 
Q 7866 602 7866 627 
Q 7866 672 7821 720 
Q 7776 768 7699 768 
L 352 768 
L 352 1190 
L 8621 1190 
Q 8998 1408 8998 1619 
Q 8998 1792 8627 2048 
L 352 2048 
L 352 2470 
L 7699 2470 
Q 7776 2470 7821 2518 
Q 7866 2566 7866 2611 
Q 7866 2733 7718 2880 
Q 7514 3085 7245 3398 
L 7379 3526 
Q 7642 3264 7974 2982 
Q 8307 2701 8508 2547 
Q 8710 2394 9155 2067 
Q 9600 1741 9722 1651 
z
" transform="scale(0.015625)"/>
     </defs>
     <use xlink:href="#STIXGeneral-Regular-27f9" transform="translate(17.558594 0.90625)"/>
    </g>
   </g>
   <g id="text_10">
    <!-- $y$ -->
    <g transform="translate(277.12 20.445) scale(0.32 -0.32)">
     <use xlink:href="#Cmmi10-79" transform="translate(0 0.8125)"/>
    </g>
   </g>
   <g id="text_11">
    <!-- $x_1$ -->
    <g transform="translate(200.16 159.2) scale(0.32 -0.32)">
     <use xlink:href="#Cmmi10-78" transform="translate(0 0.8125)"/>
     <use xlink:href="#Cmr10-31" transform="translate(57.080078 -16.19375) scale(0.7)"/>
    </g>
   </g>
   <g id="text_12">
    <!-- $x_2$ -->
    <g transform="translate(286.56 159.2) scale(0.32 -0.32)">
     <use xlink:href="#Cmmi10-78" transform="translate(0 0.8125)"/>
     <use xlink:href="#Cmr10-32" transform="translate(57.080078 -16.19375) scale(0.7)"/>
    </g>
   </g>
   <g id="text_13">
    <!-- $+$ -->
    <g transform="translate(329.22 96.9) scale(0.42 -0.42)">
     <defs>
      <path id="Cmr10-2b" d="M 481 1472 
Q 428 1472 393 1512 
Q 359 1553 359 1600 
Q 359 1647 393 1687 
Q 428 1728 481 1728 
L 2363 1728 
L 2363 3616 
Q 2363 3666 2400 3698 
Q 2438 3731 2491 3731 
Q 2538 3731 2578 3698 
Q 2619 3666 2619 3616 
L 2619 1728 
L 4500 1728 
Q 4547 1728 4581 1687 
Q 4616 1647 4616 1600 
Q 4616 1553 4581 1512 
Q 4547 1472 4500 1472 
L 2619 1472 
L 2619 -416 
Q 2619 -466 2578 -498 
Q 2538 -531 2491 -531 
Q 2438 -531 2400 -498 
Q 2363 -466 2363 -416 
L 2363 1472 
L 481 1472 
z
" transform="scale(0.015625)"/>
     </defs>
     <use xlink:href="#Cmr10-2b" transform="translate(0 0.703125)"/>
    </g>
   </g>
   <g id="text_14">
    <!-- $y$ -->
    <g transform="translate(449.92 20.445) scale(0.32 -0.32)">
     <use xlink:href="#Cmmi10-79" transform="translate(0 0.8125)"/>
    </g>
   </g>
   <g id="text_15">
    <!-- $x_1$ -->
    <g transform="translate(372.96 159.2) scale(0.32 -0.32)">
     <use xlink:href="#Cmmi10-78" transform="translate(0 0.8125)"/>
     <use xlink:href="#Cmr10-31" transform="translate(57.080078 -16.19375) scale(0.7)"/>
    </g>
   </g>
   <g id="text_16">
    <!-- $x_2$ -->
    <g transform="translate(459.36 159.2) scale(0.32 -0.32)">
     <use xlink:href="#Cmmi10-78" transform="translate(0 0.8125)"/>
     <use xlink:href="#Cmr10-32" transform="translate(57.080078 -16.19375) scale(0.7)"/>
    </g>
   </g>
   <g id="line2d_1">
    <path d="M 86.4 86.4 
L 84.444953 86.535637 
L 82.475252 86.45629 
L 80.503102 86.162452 
L 78.540724 85.655943 
L 76.600275 84.939901 
L 74.505455 83.91558 
L 72.467419 82.650798 
L 70.501445 81.155038 
L 68.622271 79.439514 
L 66.843986 77.517085 
L 65.17992 75.402164 
L 63.642548 73.110605 
L 62.123425 70.429487 
L 60.782325 67.582541 
L 59.631214 64.595161 
L 58.680359 61.493998 
L 57.938242 58.306716 
L 57.411484 55.061747 
L 57.104784 51.788038 
L 57.020877 48.514793 
L 57.160512 45.27121 
L 57.522443 42.086225 
L 58.103443 38.988249 
L 58.898327 36.004918 
L 59.900005 33.162846 
L 60.992273 30.703383 
L 62.242629 28.402374 
L 63.641699 26.277069 
L 65.178994 24.3434 
L 66.842991 22.615865 
L 68.621214 21.107412 
L 70.3257 19.935754 
L 72.103019 18.961783 
L 73.942158 18.191534 
L 75.831721 17.629779 
L 77.76 17.28 
L 77.76 17.28 
" clip-path="url(#pcdf667cf76)" style="fill: none; stroke: #000000; stroke-width: 2"/>
   </g>
   <g id="line2d_2">
    <path d="M 95.04 17.28 
L 96.968279 17.629779 
L 98.857842 18.191534 
L 100.696981 18.961783 
L 102.4743 19.935754 
L 104.178786 21.107412 
L 105.957009 22.615865 
L 107.621006 24.3434 
L 109.158301 26.277069 
L 110.557371 28.402374 
L 111.807727 30.703383 
L 112.899995 33.162846 
L 113.825987 35.762325 
L 114.638401 38.734885 
L 115.237449 41.82435 
L 115.617786 45.00316 
L 115.776021 48.242959 
L 115.710742 51.514846 
L 115.42253 54.789634 
L 114.913958 58.038109 
L 114.189561 61.231293 
L 113.255802 64.340701 
L 112.12101 67.338596 
L 110.795309 70.198235 
L 109.290525 72.894107 
L 107.62008 75.402164 
L 105.956014 77.517085 
L 104.177729 79.439514 
L 102.298555 81.155038 
L 100.332581 82.650798 
L 98.294545 83.91558 
L 96.199725 84.939901 
L 94.259276 85.655943 
L 92.296898 86.162452 
L 90.324748 86.45629 
L 88.355047 86.535637 
L 86.4 86.4 
L 86.4 86.4 
" clip-path="url(#pcdf667cf76)" style="fill: none; stroke: #000000; stroke-width: 2"/>
   </g>
   <g id="line2d_3">
    <path d="M 21.6 155.52 
L 86.4 86.4 
L 86.4 86.4 
" clip-path="url(#pcdf667cf76)" style="fill: none; stroke: #000000; stroke-width: 2"/>
   </g>
   <g id="line2d_4">
    <path d="M 151.2 155.52 
L 86.4 86.4 
L 86.4 86.4 
" clip-path="url(#pcdf667cf76)" style="fill: none; stroke: #000000; stroke-width: 2"/>
   </g>
   <g id="line2d_5">
    <path d="M 259.2 86.4 
L 257.258337 86.292929 
L 255.328705 85.972378 
L 253.423061 85.440334 
L 251.553212 84.700094 
L 249.730744 83.756244 
L 247.794223 82.489857 
L 245.943206 80.993699 
L 244.191572 79.278985 
L 242.55245 77.35857 
L 241.03813 75.246851 
L 239.659963 72.959659 
L 238.42828 70.51414 
L 237.262512 67.687301 
L 236.292438 64.719095 
L 235.526714 61.636 
L 234.972169 58.465519 
L 234.63375 55.235935 
L 234.514477 51.976057 
L 234.615413 48.714965 
L 234.935658 45.48175 
L 235.472355 42.305254 
L 236.220717 39.213814 
L 237.174067 36.235007 
L 238.323901 33.395406 
L 239.659963 30.720341 
L 241.03813 28.433149 
L 242.55245 26.32143 
L 244.191572 24.401015 
L 245.943206 22.686301 
L 247.794223 21.190143 
L 249.730744 19.923756 
L 251.738254 18.896634 
L 253.612208 18.177028 
L 255.520785 17.666007 
L 257.45216 17.366736 
L 259.2 17.28 
L 259.2 17.28 
" clip-path="url(#pcdf667cf76)" style="fill: none; stroke: #000000; stroke-width: 2"/>
   </g>
   <g id="line2d_6">
    <path d="M 259.2 17.28 
L 261.141663 17.387071 
L 263.071295 17.707622 
L 264.976939 18.239666 
L 266.846788 18.979906 
L 268.669256 19.923756 
L 270.605777 21.190143 
L 272.456794 22.686301 
L 274.208428 24.401015 
L 275.84755 26.32143 
L 277.36187 28.433149 
L 278.740037 30.720341 
L 279.97172 33.16586 
L 281.137488 35.992699 
L 282.107562 38.960905 
L 282.873286 42.044 
L 283.427831 45.214481 
L 283.76625 48.444065 
L 283.885523 51.703943 
L 283.784587 54.965035 
L 283.464342 58.19825 
L 282.927645 61.374746 
L 282.179283 64.466186 
L 281.225933 67.444993 
L 280.076099 70.284594 
L 278.740037 72.959659 
L 277.36187 75.246851 
L 275.84755 77.35857 
L 274.208428 79.278985 
L 272.456794 80.993699 
L 270.605777 82.489857 
L 268.669256 83.756244 
L 266.661746 84.783366 
L 264.787792 85.502972 
L 262.879215 86.013993 
L 260.94784 86.313264 
L 259.2 86.4 
L 259.2 86.4 
" clip-path="url(#pcdf667cf76)" style="fill: none; stroke: #000000; stroke-width: 2"/>
   </g>
   <g id="line2d_7">
    <path d="M 194.4 155.52 
L 259.2 86.4 
L 259.2 86.4 
" clip-path="url(#pcdf667cf76)" style="fill: none; stroke: #000000; stroke-width: 2"/>
   </g>
   <g id="line2d_8">
    <path d="M 324 155.52 
L 259.2 86.4 
L 259.2 86.4 
" clip-path="url(#pcdf667cf76)" style="fill: none; stroke: #000000; stroke-width: 2"/>
   </g>
   <g id="line2d_9">
    <path d="M 432 17.28 
L 496.8 155.52 
L 496.8 155.52 
" clip-path="url(#pcdf667cf76)" style="fill: none; stroke: #000000; stroke-width: 2"/>
   </g>
   <g id="line2d_10">
    <path d="M 432 17.28 
L 367.2 155.52 
L 367.2 155.52 
" clip-path="url(#pcdf667cf76)" style="fill: none; stroke: #000000; stroke-width: 2"/>
   </g>
   <g id="line2d_11">
    <path d="M 86.4 86.4 
L 84.444953 86.535637 
L 82.475252 86.45629 
L 80.503102 86.162452 
L 78.540724 85.655943 
L 76.600275 84.939901 
L 74.505455 83.91558 
L 72.467419 82.650798 
L 70.501445 81.155038 
L 68.622271 79.439514 
L 66.843986 77.517085 
L 65.17992 75.402164 
L 63.642548 73.110605 
L 62.123425 70.429487 
L 60.782325 67.582541 
L 59.631214 64.595161 
L 58.680359 61.493998 
L 57.938242 58.306716 
L 57.411484 55.061747 
L 57.104784 51.788038 
L 57.020877 48.514793 
L 57.160512 45.27121 
L 57.522443 42.086225 
L 58.103443 38.988249 
L 58.898327 36.004918 
L 59.900005 33.162846 
L 60.992273 30.703383 
L 62.242629 28.402374 
L 63.641699 26.277069 
L 65.178994 24.3434 
L 66.842991 22.615865 
L 68.621214 21.107412 
L 70.3257 19.935754 
L 72.103019 18.961783 
L 73.942158 18.191534 
L 75.831721 17.629779 
L 77.76 17.28 
L 77.76 17.28 
" clip-path="url(#pcdf667cf76)" style="fill: none; stroke: #000000; stroke-width: 2"/>
   </g>
   <g id="line2d_12">
    <path d="M 95.04 17.28 
L 96.968279 17.629779 
L 98.857842 18.191534 
L 100.696981 18.961783 
L 102.4743 19.935754 
L 104.178786 21.107412 
L 105.957009 22.615865 
L 107.621006 24.3434 
L 109.158301 26.277069 
L 110.557371 28.402374 
L 111.807727 30.703383 
L 112.899995 33.162846 
L 113.825987 35.762325 
L 114.638401 38.734885 
L 115.237449 41.82435 
L 115.617786 45.00316 
L 115.776021 48.242959 
L 115.710742 51.514846 
L 115.42253 54.789634 
L 114.913958 58.038109 
L 114.189561 61.231293 
L 113.255802 64.340701 
L 112.12101 67.338596 
L 110.795309 70.198235 
L 109.290525 72.894107 
L 107.62008 75.402164 
L 105.956014 77.517085 
L 104.177729 79.439514 
L 102.298555 81.155038 
L 100.332581 82.650798 
L 98.294545 83.91558 
L 96.199725 84.939901 
L 94.259276 85.655943 
L 92.296898 86.162452 
L 90.324748 86.45629 
L 88.355047 86.535637 
L 86.4 86.4 
L 86.4 86.4 
" clip-path="url(#pcdf667cf76)" style="fill: none; stroke: #000000; stroke-width: 2"/>
   </g>
   <g id="line2d_13">
    <path d="M 21.6 155.52 
L 86.4 86.4 
L 86.4 86.4 
" clip-path="url(#pcdf667cf76)" style="fill: none; stroke: #000000; stroke-width: 2"/>
   </g>
   <g id="line2d_14">
    <path d="M 151.2 155.52 
L 86.4 86.4 
L 86.4 86.4 
" clip-path="url(#pcdf667cf76)" style="fill: none; stroke: #000000; stroke-width: 2"/>
   </g>
   <g id="line2d_15">
    <path d="M 259.2 86.4 
L 257.258337 86.292929 
L 255.328705 85.972378 
L 253.423061 85.440334 
L 251.553212 84.700094 
L 249.730744 83.756244 
L 247.794223 82.489857 
L 245.943206 80.993699 
L 244.191572 79.278985 
L 242.55245 77.35857 
L 241.03813 75.246851 
L 239.659963 72.959659 
L 238.42828 70.51414 
L 237.262512 67.687301 
L 236.292438 64.719095 
L 235.526714 61.636 
L 234.972169 58.465519 
L 234.63375 55.235935 
L 234.514477 51.976057 
L 234.615413 48.714965 
L 234.935658 45.48175 
L 235.472355 42.305254 
L 236.220717 39.213814 
L 237.174067 36.235007 
L 238.323901 33.395406 
L 239.659963 30.720341 
L 241.03813 28.433149 
L 242.55245 26.32143 
L 244.191572 24.401015 
L 245.943206 22.686301 
L 247.794223 21.190143 
L 249.730744 19.923756 
L 251.738254 18.896634 
L 253.612208 18.177028 
L 255.520785 17.666007 
L 257.45216 17.366736 
L 259.2 17.28 
L 259.2 17.28 
" clip-path="url(#pcdf667cf76)" style="fill: none; stroke: #000000; stroke-width: 2"/>
   </g>
   <g id="line2d_16">
    <path d="M 259.2 17.28 
L 261.141663 17.387071 
L 263.071295 17.707622 
L 264.976939 18.239666 
L 266.846788 18.979906 
L 268.669256 19.923756 
L 270.605777 21.190143 
L 272.456794 22.686301 
L 274.208428 24.401015 
L 275.84755 26.32143 
L 277.36187 28.433149 
L 278.740037 30.720341 
L 279.97172 33.16586 
L 281.137488 35.992699 
L 282.107562 38.960905 
L 282.873286 42.044 
L 283.427831 45.214481 
L 283.76625 48.444065 
L 283.885523 51.703943 
L 283.784587 54.965035 
L 283.464342 58.19825 
L 282.927645 61.374746 
L 282.179283 64.466186 
L 281.225933 67.444993 
L 280.076099 70.284594 
L 278.740037 72.959659 
L 277.36187 75.246851 
L 275.84755 77.35857 
L 274.208428 79.278985 
L 272.456794 80.993699 
L 270.605777 82.489857 
L 268.669256 83.756244 
L 266.661746 84.783366 
L 264.787792 85.502972 
L 262.879215 86.013993 
L 260.94784 86.313264 
L 259.2 86.4 
L 259.2 86.4 
" clip-path="url(#pcdf667cf76)" style="fill: none; stroke: #000000; stroke-width: 2"/>
   </g>
   <g id="line2d_17">
    <path d="M 194.4 155.52 
L 259.2 86.4 
L 259.2 86.4 
" clip-path="url(#pcdf667cf76)" style="fill: none; stroke: #000000; stroke-width: 2"/>
   </g>
   <g id="line2d_18">
    <path d="M 324 155.52 
L 259.2 86.4 
L 259.2 86.4 
" clip-path="url(#pcdf667cf76)" style="fill: none; stroke: #000000; stroke-width: 2"/>
   </g>
   <g id="line2d_19">
    <path d="M 432 17.28 
L 496.8 155.52 
L 496.8 155.52 
" clip-path="url(#pcdf667cf76)" style="fill: none; stroke: #000000; stroke-width: 2"/>
   </g>
   <g id="line2d_20">
    <path d="M 432 17.28 
L 367.2 155.52 
L 367.2 155.52 
" clip-path="url(#pcdf667cf76)" style="fill: none; stroke: #000000; stroke-width: 2"/>
   </g>
   <g id="patch_2">
    <path d="M 56.703829 44.010663 
L 53.087884 55.301347 
L 57.147199 52.85932 
L 61.667056 54.277921 
z
" clip-path="url(#pcdf667cf76)" style="stroke: #000000; stroke-linejoin: miter"/>
   </g>
   <g id="patch_3">
    <path d="M 113.388144 65.674876 
L 119.672075 55.621677 
L 115.136547 56.989349 
L 111.104957 54.501817 
z
" clip-path="url(#pcdf667cf76)" style="stroke: #000000; stroke-linejoin: miter"/>
   </g>
   <g id="patch_4">
    <path d="M 61.467767 112.994382 
L 50.929602 117.918758 
L 55.410785 119.455163 
L 57.232804 123.828009 
z
" clip-path="url(#pcdf667cf76)" style="stroke: #000000; stroke-linejoin: miter"/>
   </g>
   <g id="patch_5">
    <path d="M 111.332233 112.994382 
L 115.567196 123.828009 
L 117.389215 119.455163 
L 121.870398 117.918758 
z
" clip-path="url(#pcdf667cf76)" style="stroke: #000000; stroke-linejoin: miter"/>
   </g>
   <g id="patch_6">
    <path d="M 235.183005 40.924654 
L 230.194545 51.679647 
L 234.52541 49.759974 
L 238.834409 51.728239 
z
" clip-path="url(#pcdf667cf76)" style="stroke: #000000; stroke-linejoin: miter"/>
   </g>
   <g id="patch_7">
    <path d="M 283.216995 62.755346 
L 288.205455 52.000353 
L 283.87459 53.920026 
L 279.565591 51.951761 
z
" clip-path="url(#pcdf667cf76)" style="stroke: #000000; stroke-linejoin: miter"/>
   </g>
   <g id="patch_8">
    <path d="M 234.267767 112.994382 
L 223.729602 117.918758 
L 228.210785 119.455163 
L 230.032804 123.828009 
z
" clip-path="url(#pcdf667cf76)" style="stroke: #000000; stroke-linejoin: miter"/>
   </g>
   <g id="patch_9">
    <path d="M 284.132233 112.994382 
L 288.367196 123.828009 
L 290.189215 119.455163 
L 294.670398 117.918758 
z
" clip-path="url(#pcdf667cf76)" style="stroke: #000000; stroke-linejoin: miter"/>
   </g>
   <g id="patch_10">
    <path d="M 56.703829 44.010663 
L 53.087884 55.301347 
L 57.147199 52.85932 
L 61.667056 54.277921 
z
" clip-path="url(#pcdf667cf76)" style="stroke: #000000; stroke-linejoin: miter"/>
   </g>
   <g id="patch_11">
    <path d="M 113.388144 65.674876 
L 119.672075 55.621677 
L 115.136547 56.989349 
L 111.104957 54.501817 
z
" clip-path="url(#pcdf667cf76)" style="stroke: #000000; stroke-linejoin: miter"/>
   </g>
   <g id="patch_12">
    <path d="M 61.467767 112.994382 
L 50.929602 117.918758 
L 55.410785 119.455163 
L 57.232804 123.828009 
z
" clip-path="url(#pcdf667cf76)" style="stroke: #000000; stroke-linejoin: miter"/>
   </g>
   <g id="patch_13">
    <path d="M 111.332233 112.994382 
L 115.567196 123.828009 
L 117.389215 119.455163 
L 121.870398 117.918758 
z
" clip-path="url(#pcdf667cf76)" style="stroke: #000000; stroke-linejoin: miter"/>
   </g>
   <g id="patch_14">
    <path d="M 235.183005 40.924654 
L 230.194545 51.679647 
L 234.52541 49.759974 
L 238.834409 51.728239 
z
" clip-path="url(#pcdf667cf76)" style="stroke: #000000; stroke-linejoin: miter"/>
   </g>
   <g id="patch_15">
    <path d="M 283.216995 62.755346 
L 288.205455 52.000353 
L 283.87459 53.920026 
L 279.565591 51.951761 
z
" clip-path="url(#pcdf667cf76)" style="stroke: #000000; stroke-linejoin: miter"/>
   </g>
   <g id="patch_16">
    <path d="M 234.267767 112.994382 
L 223.729602 117.918758 
L 228.210785 119.455163 
L 230.032804 123.828009 
z
" clip-path="url(#pcdf667cf76)" style="stroke: #000000; stroke-linejoin: miter"/>
   </g>
   <g id="patch_17">
    <path d="M 284.132233 112.994382 
L 288.367196 123.828009 
L 290.189215 119.455163 
L 294.670398 117.918758 
z
" clip-path="url(#pcdf667cf76)" style="stroke: #000000; stroke-linejoin: miter"/>
   </g>
   <g id="line2d_21">
    <defs>
     <path id="mb030b2db60" d="M 0 3 
C 0.795609 3 1.55874 2.683901 2.12132 2.12132 
C 2.683901 1.55874 3 0.795609 3 0 
C 3 -0.795609 2.683901 -1.55874 2.12132 -2.12132 
C 1.55874 -2.683901 0.795609 -3 0 -3 
C -0.795609 -3 -1.55874 -2.683901 -2.12132 -2.12132 
C -2.683901 -1.55874 -3 -0.795609 -3 0 
C -3 0.795609 -2.683901 1.55874 -2.12132 2.12132 
C -1.55874 2.683901 -0.795609 3 0 3 
z
" style="stroke: #000000"/>
    </defs>
    <g clip-path="url(#pcdf667cf76)">
     <use xlink:href="#mb030b2db60" x="77.76" y="17.28" style="stroke: #000000"/>
    </g>
   </g>
   <g id="line2d_22">
    <g clip-path="url(#pcdf667cf76)">
     <use xlink:href="#mb030b2db60" x="95.04" y="17.28" style="stroke: #000000"/>
    </g>
   </g>
   <g id="line2d_23"/>
   <g id="line2d_24"/>
   <g id="line2d_25">
    <g clip-path="url(#pcdf667cf76)">
     <use xlink:href="#mb030b2db60" x="86.4" y="86.4" style="stroke: #000000"/>
    </g>
   </g>
   <g id="line2d_26">
    <defs>
     <path id="m2f13f78830" d="M 0 6 
C 1.591219 6 3.117479 5.367802 4.242641 4.242641 
C 5.367802 3.117479 6 1.591219 6 0 
C 6 -1.591219 5.367802 -3.117479 4.242641 -4.242641 
C 3.117479 -5.367802 1.591219 -6 0 -6 
C -1.591219 -6 -3.117479 -5.367802 -4.242641 -4.242641 
C -5.367802 -3.117479 -6 -1.591219 -6 0 
C -6 1.591219 -5.367802 3.117479 -4.242641 4.242641 
C -3.117479 5.367802 -1.591219 6 0 6 
z
" style="stroke: #000000"/>
    </defs>
    <g clip-path="url(#pcdf667cf76)">
     <use xlink:href="#m2f13f78830" x="259.2" y="17.28" style="stroke: #000000"/>
    </g>
   </g>
   <g id="line2d_27"/>
   <g id="line2d_28"/>
   <g id="line2d_29">
    <g clip-path="url(#pcdf667cf76)">
     <use xlink:href="#mb030b2db60" x="259.2" y="86.4" style="stroke: #000000"/>
    </g>
   </g>
   <g id="line2d_30">
    <defs>
     <path id="m37447f8da0" d="M -10 10 
L 10 -10 
M -10 -10 
L 10 10 
" style="stroke: #000000"/>
    </defs>
    <g clip-path="url(#pcdf667cf76)">
     <use xlink:href="#m37447f8da0" x="432" y="17.28" style="stroke: #000000"/>
    </g>
   </g>
   <g id="line2d_31"/>
   <g id="line2d_32"/>
   <g id="line2d_33">
    <g clip-path="url(#pcdf667cf76)">
     <use xlink:href="#mb030b2db60" x="77.76" y="17.28" style="stroke: #000000"/>
    </g>
   </g>
   <g id="line2d_34">
    <g clip-path="url(#pcdf667cf76)">
     <use xlink:href="#mb030b2db60" x="95.04" y="17.28" style="stroke: #000000"/>
    </g>
   </g>
   <g id="line2d_35"/>
   <g id="line2d_36"/>
   <g id="line2d_37">
    <g clip-path="url(#pcdf667cf76)">
     <use xlink:href="#mb030b2db60" x="86.4" y="86.4" style="stroke: #000000"/>
    </g>
   </g>
   <g id="line2d_38">
    <g clip-path="url(#pcdf667cf76)">
     <use xlink:href="#m2f13f78830" x="259.2" y="17.28" style="stroke: #000000"/>
    </g>
   </g>
   <g id="line2d_39"/>
   <g id="line2d_40"/>
   <g id="line2d_41">
    <g clip-path="url(#pcdf667cf76)">
     <use xlink:href="#mb030b2db60" x="259.2" y="86.4" style="stroke: #000000"/>
    </g>
   </g>
   <g id="line2d_42">
    <g clip-path="url(#pcdf667cf76)">
     <use xlink:href="#m37447f8da0" x="432" y="17.28" style="stroke: #000000"/>
    </g>
   </g>
   <g id="line2d_43"/>
   <g id="line2d_44"/>
  </g>
 </g>
 <defs>
  <clipPath id="pcdf667cf76">
   <rect x="0" y="0" width="518.4" height="172.8"/>
  </clipPath>
 </defs>
</svg>
