<?xml version="1.0" encoding="utf-8" standalone="no"?>
<!DOCTYPE svg PUBLIC "-//W3C//DTD SVG 1.1//EN"
  "http://www.w3.org/Graphics/SVG/1.1/DTD/svg11.dtd">
<svg xmlns:xlink="http://www.w3.org/1999/xlink" width="518.4pt" height="172.8pt" viewBox="0 0 518.4 172.8" xmlns="http://www.w3.org/2000/svg" version="1.1">
 <metadata>
  <rdf:RDF xmlns:dc="http://purl.org/dc/elements/1.1/" xmlns:cc="http://creativecommons.org/ns#" xmlns:rdf="http://www.w3.org/1999/02/22-rdf-syntax-ns#">
   <cc:Work>
    <dc:type rdf:resource="http://purl.org/dc/dcmitype/StillImage"/>
    <dc:date>2026-03-21T11:35:02.940851</dc:date>
    <dc:format>image/svg+xml</dc:format>
    <dc:creator>
     <cc:Agent>
      <dc:title>Matplotlib v3.10.8, https://matplotlib.org/</dc:title>
     </cc:Agent>
    </dc:creator>
   </cc:Work>
  </rdf:RDF>
 </metadata>
 <defs>
  <style type="text/css">*{stroke-linejoin: round; stroke-linecap: butt}</style>
 </defs>
 <g id="figure_1">
  <g id="patch_1">
   <path d="M 0 172.8 
L 518.4 172.8 
L 518.4 0 
L 0 0 
L 0 172.8 
z
" style="fill: none"/>
  </g>
  <g id="axes_1">
   <g id="matplotlib.axis_1"/>
   <g id="matplotlib.axis_2"/>
   <g id="text_1">
    <!-- $x$ -->
    <g transform="translate(51.2 20.96) scale(0.32 -0.32)">
     <defs>
      <path id="Cmmi10-78" d="M 500 184 
Q 613 97 819 97 
Q 1019 97 1172 289 
Q 1325 481 1381 709 
L 1672 1844 
Q 1741 2153 1741 2266 
Q 1741 2425 1652 2544 
Q 1563 2663 1403 2663 
Q 1200 2663 1022 2536 
Q 844 2409 722 2214 
Q 600 2019 550 1819 
Q 538 1778 500 1778 
L 422 1778 
Q 372 1778 372 1838 
L 372 1856 
Q 434 2094 584 2320 
Q 734 2547 951 2687 
Q 1169 2828 1416 2828 
Q 1650 2828 1839 2703 
Q 2028 2578 2106 2363 
Q 2216 2559 2386 2693 
Q 2556 2828 2759 2828 
Q 2897 2828 3040 2779 
Q 3184 2731 3275 2631 
Q 3366 2531 3366 2381 
Q 3366 2219 3261 2101 
Q 3156 1984 2994 1984 
Q 2891 1984 2822 2050 
Q 2753 2116 2753 2216 
Q 2753 2350 2845 2451 
Q 2938 2553 3066 2572 
Q 2950 2663 2747 2663 
Q 2541 2663 2389 2472 
Q 2238 2281 2175 2047 
L 1894 916 
Q 1825 659 1825 494 
Q 1825 331 1917 214 
Q 2009 97 2163 97 
Q 2463 97 2698 361 
Q 2934 625 3009 941 
Q 3022 978 3059 978 
L 3138 978 
Q 3163 978 3178 961 
Q 3194 944 3194 922 
Q 3194 916 3188 903 
Q 3097 522 2806 225 
Q 2516 -72 2150 -72 
Q 1916 -72 1727 54 
Q 1538 181 1459 397 
Q 1359 209 1182 68 
Q 1006 -72 806 -72 
Q 669 -72 523 -23 
Q 378 25 287 125 
Q 197 225 197 378 
Q 197 528 301 651 
Q 406 775 563 775 
Q 669 775 741 711 
Q 813 647 813 544 
Q 813 409 723 309 
Q 634 209 500 184 
z
" transform="scale(0.015625)"/>
     </defs>
     <use xlink:href="#Cmmi10-78" transform="translate(0 0.8125)"/>
    </g>
   </g>
   <g id="text_2">
    <!-- $y$ -->
    <g transform="translate(104.32 20.445) scale(0.32 -0.32)">
     <defs>
      <path id="Cmmi10-79" d="M 538 -916 
Q 672 -1147 1006 -1147 
Q 1309 -1147 1531 -934 
Q 1753 -722 1889 -420 
Q 2025 -119 2100 197 
Q 1816 -72 1484 -72 
Q 1231 -72 1053 15 
Q 875 103 776 276 
Q 678 450 678 697 
Q 678 906 734 1126 
Q 791 1347 892 1617 
Q 994 1888 1069 2088 
Q 1153 2322 1153 2472 
Q 1153 2663 1013 2663 
Q 759 2663 595 2402 
Q 431 2141 353 1819 
Q 341 1778 300 1778 
L 225 1778 
Q 172 1778 172 1838 
L 172 1856 
Q 275 2238 487 2533 
Q 700 2828 1025 2828 
Q 1253 2828 1411 2678 
Q 1569 2528 1569 2297 
Q 1569 2178 1516 2047 
Q 1488 1969 1388 1706 
Q 1288 1444 1234 1272 
Q 1181 1100 1147 934 
Q 1113 769 1113 603 
Q 1113 391 1203 244 
Q 1294 97 1491 97 
Q 1888 97 2203 581 
L 2688 2553 
Q 2709 2638 2787 2698 
Q 2866 2759 2956 2759 
Q 3034 2759 3092 2709 
Q 3150 2659 3150 2578 
Q 3150 2541 3144 2528 
L 2509 -19 
Q 2425 -347 2200 -647 
Q 1975 -947 1658 -1130 
Q 1341 -1313 997 -1313 
Q 831 -1313 668 -1248 
Q 506 -1184 406 -1056 
Q 306 -928 306 -756 
Q 306 -581 409 -453 
Q 513 -325 684 -325 
Q 788 -325 858 -389 
Q 928 -453 928 -556 
Q 928 -703 818 -812 
Q 709 -922 563 -922 
Q 556 -919 550 -917 
Q 544 -916 538 -916 
z
" transform="scale(0.015625)"/>
     </defs>
     <use xlink:href="#Cmmi10-79" transform="translate(0 0.8125)"/>
    </g>
   </g>
   <g id="text_3">
    <!-- $x_1$ -->
    <g transform="translate(27.36 159.2) scale(0.32 -0.32)">
     <defs>
      <path id="Cmr10-31" d="M 594 0 
L 594 225 
Q 1394 225 1394 428 
L 1394 3788 
Q 1063 3628 556 3628 
L 556 3853 
Q 1341 3853 1741 4263 
L 1831 4263 
Q 1853 4263 1873 4245 
Q 1894 4228 1894 4206 
L 1894 428 
Q 1894 225 2694 225 
L 2694 0 
L 594 0 
z
" transform="scale(0.015625)"/>
     </defs>
     <use xlink:href="#Cmmi10-78" transform="translate(0 0.8125)"/>
     <use xlink:href="#Cmr10-31" transform="translate(57.080078 -16.19375) scale(0.7)"/>
    </g>
   </g>
   <g id="text_4">
    <!-- $x_2$ -->
    <g transform="translate(113.76 159.2) scale(0.32 -0.32)">
     <defs>
      <path id="Cmr10-32" d="M 319 0 
L 319 172 
Q 319 188 331 206 
L 1325 1306 
Q 1550 1550 1690 1715 
Q 1831 1881 1968 2097 
Q 2106 2313 2186 2536 
Q 2266 2759 2266 3009 
Q 2266 3272 2169 3511 
Q 2072 3750 1880 3894 
Q 1688 4038 1416 4038 
Q 1138 4038 916 3870 
Q 694 3703 603 3438 
Q 628 3444 672 3444 
Q 816 3444 917 3347 
Q 1019 3250 1019 3097 
Q 1019 2950 917 2848 
Q 816 2747 672 2747 
Q 522 2747 420 2851 
Q 319 2956 319 3097 
Q 319 3338 409 3548 
Q 500 3759 670 3923 
Q 841 4088 1055 4175 
Q 1269 4263 1509 4263 
Q 1875 4263 2190 4108 
Q 2506 3953 2690 3670 
Q 2875 3388 2875 3009 
Q 2875 2731 2753 2481 
Q 2631 2231 2440 2026 
Q 2250 1822 1953 1562 
Q 1656 1303 1563 1216 
L 838 519 
L 1453 519 
Q 1906 519 2211 526 
Q 2516 534 2534 550 
Q 2609 631 2688 1141 
L 2875 1141 
L 2694 0 
L 319 0 
z
" transform="scale(0.015625)"/>
     </defs>
     <use xlink:href="#Cmmi10-78" transform="translate(0 0.8125)"/>
     <use xlink:href="#Cmr10-32" transform="translate(57.080078 -16.19375) scale(0.7)"/>
    </g>
   </g>
   <g id="text_5">
    <!-- $x$ -->
    <g transform="translate(224 20.96) scale(0.32 -0.32)">
     <use xlink:href="#Cmmi10-78" transform="translate(0 0.8125)"/>
    </g>
   </g>
   <g id="text_6">
    <!-- $y$ -->
    <g transform="translate(277.12 20.445) scale(0.32 -0.32)">
     <use xlink:href="#Cmmi10-79" transform="translate(0 0.8125)"/>
    </g>
   </g>
   <g id="text_7">
    <!-- $x_1$ -->
    <g transform="translate(200.16 159.2) scale(0.32 -0.32)">
     <use xlink:href="#Cmmi10-78" transform="translate(0 0.8125)"/>
     <use xlink:href="#Cmr10-31" transform="translate(57.080078 -16.19375) scale(0.7)"/>
    </g>
   </g>
   <g id="text_8">
    <!-- $x_2$ -->
    <g transform="translate(286.56 159.2) scale(0.32 -0.32)">
     <use xlink:href="#Cmmi10-78" transform="translate(0 0.8125)"/>
     <use xlink:href="#Cmr10-32" transform="translate(57.080078 -16.19375) scale(0.7)"/>
    </g>
   </g>
   <g id="text_9">
    <!-- $\Longrightarrow$ -->
    <g transform="translate(314.72 94.4) scale(0.32 -0.32)">
     <defs>
      <path id="STIXGeneral-Regular-27f9" d="M 9722 1651 
L 9722 1587 
Q 9536 1446 9149 1158 
Q 8762 870 8528 694 
Q 8294 518 7968 246 
Q 7642 -26 7379 -288 
L 7245 -160 
Q 7450 77 7725 365 
Q 7731 378 7753 400 
Q 7776 422 7785 428 
Q 7795 435 7811 454 
Q 7827 474 7830 483 
Q 7834 493 7843 512 
Q 7853 531 7856 547 
Q 7859 563 7862 582 
Q 7866 602 7866 627 
Q 7866 672 7821 720 
Q 7776 768 7699 768 
L 352 768 
L 352 1190 
L 8621 1190 
Q 8998 1408 8998 1619 
Q 8998 1792 8627 2048 
L 352 2048 
L 352 2470 
L 7699 2470 
Q 7776 2470 7821 2518 
Q 7866 2566 7866 2611 
Q 7866 2733 7718 2880 
Q 7514 3085 7245 3398 
L 7379 3526 
Q 7642 3264 7974 2982 
Q 8307 2701 8508 2547 
Q 8710 2394 9155 2067 
Q 9600 1741 9722 1651 
z
" transform="scale(0.015625)"/>
     </defs>
     <use xlink:href="#STIXGeneral-Regular-27f9" transform="translate(17.558594 0.90625)"/>
    </g>
   </g>
   <g id="text_10">
    <!-- $y$ -->
    <g transform="translate(441.28 20.445) scale(0.32 -0.32)">
     <use xlink:href="#Cmmi10-79" transform="translate(0 0.8125)"/>
    </g>
   </g>
   <g id="text_11">
    <!-- $x_1$ -->
    <g transform="translate(372.96 159.2) scale(0.32 -0.32)">
     <use xlink:href="#Cmmi10-78" transform="translate(0 0.8125)"/>
     <use xlink:href="#Cmr10-31" transform="translate(57.080078 -16.19375) scale(0.7)"/>
    </g>
   </g>
   <g id="text_12">
    <!-- $x_2$ -->
    <g transform="translate(459.36 159.2) scale(0.32 -0.32)">
     <use xlink:href="#Cmmi10-78" transform="translate(0 0.8125)"/>
     <use xlink:href="#Cmr10-32" transform="translate(57.080078 -16.19375) scale(0.7)"/>
    </g>
   </g>
   <g id="line2d_1">
    <path d="M 77.76 17.28 
L 21.6 155.52 
L 21.6 155.52 
" clip-path="url(#p7c4cbcdf03)" style="fill: none; stroke: #000000; stroke-width: 2"/>
   </g>
   <g id="line2d_2">
    <path d="M 95.04 17.28 
L 151.2 155.52 
L 151.2 155.52 
" clip-path="url(#p7c4cbcdf03)" style="fill: none; stroke: #000000; stroke-width: 2"/>
   </g>
   <g id="line2d_3">
    <path d="M 250.56 17.28 
L 324 155.52 
L 324 155.52 
" clip-path="url(#p7c4cbcdf03)" style="fill: none; stroke: #000000; stroke-width: 2"/>
   </g>
   <g id="line2d_4">
    <path d="M 267.84 17.28 
L 194.4 155.52 
L 194.4 155.52 
" clip-path="url(#p7c4cbcdf03)" style="fill: none; stroke: #000000; stroke-width: 2"/>
   </g>
   <g id="line2d_5">
    <path d="M 432 17.28 
L 496.8 155.52 
L 496.8 155.52 
" clip-path="url(#p7c4cbcdf03)" style="fill: none; stroke: #000000; stroke-width: 2"/>
   </g>
   <g id="line2d_6">
    <path d="M 432 17.28 
L 367.2 155.52 
L 367.2 155.52 
" clip-path="url(#p7c4cbcdf03)" style="fill: none; stroke: #000000; stroke-width: 2"/>
   </g>
   <g id="patch_2">
    <path d="M 45.544752 96.579072 
L 53.61196 88.199182 
L 48.877947 88.374284 
L 45.607288 84.947284 
z
" clip-path="url(#p7c4cbcdf03)" style="stroke: #000000; stroke-linejoin: miter"/>
   </g>
   <g id="patch_3">
    <path d="M 127.255248 96.579072 
L 127.192712 84.947284 
L 123.922053 88.374284 
L 119.18804 88.199182 
z
" clip-path="url(#p7c4cbcdf03)" style="stroke: #000000; stroke-linejoin: miter"/>
   </g>
   <g id="patch_4">
    <path d="M 292.438907 96.110883 
L 291.18709 84.546483 
L 288.284068 88.29001 
L 283.55697 88.599984 
z
" clip-path="url(#p7c4cbcdf03)" style="stroke: #000000; stroke-linejoin: miter"/>
   </g>
   <g id="patch_5">
    <path d="M 225.961093 96.110883 
L 234.84303 88.599984 
L 230.115932 88.29001 
L 227.21291 84.546483 
z
" clip-path="url(#p7c4cbcdf03)" style="stroke: #000000; stroke-linejoin: miter"/>
   </g>
   <g id="patch_6">
    <path d="M 469.065089 96.35219 
L 468.392786 84.739679 
L 465.306302 88.333445 
L 460.56962 88.406787 
z
" clip-path="url(#p7c4cbcdf03)" style="stroke: #000000; stroke-linejoin: miter"/>
   </g>
   <g id="patch_7">
    <path d="M 394.934911 96.35219 
L 403.43038 88.406787 
L 398.693698 88.333445 
L 395.607214 84.739679 
z
" clip-path="url(#p7c4cbcdf03)" style="stroke: #000000; stroke-linejoin: miter"/>
   </g>
   <g id="line2d_7">
    <defs>
     <path id="m164b322726" d="M 0 3 
C 0.795609 3 1.55874 2.683901 2.12132 2.12132 
C 2.683901 1.55874 3 0.795609 3 0 
C 3 -0.795609 2.683901 -1.55874 2.12132 -2.12132 
C 1.55874 -2.683901 0.795609 -3 0 -3 
C -0.795609 -3 -1.55874 -2.683901 -2.12132 -2.12132 
C -2.683901 -1.55874 -3 -0.795609 -3 0 
C -3 0.795609 -2.683901 1.55874 -2.12132 2.12132 
C -1.55874 2.683901 -0.795609 3 0 3 
z
" style="stroke: #000000"/>
    </defs>
    <g clip-path="url(#p7c4cbcdf03)">
     <use xlink:href="#m164b322726" x="77.76" y="17.28" style="stroke: #000000"/>
    </g>
   </g>
   <g id="line2d_8">
    <g clip-path="url(#p7c4cbcdf03)">
     <use xlink:href="#m164b322726" x="95.04" y="17.28" style="stroke: #000000"/>
    </g>
   </g>
   <g id="line2d_9"/>
   <g id="line2d_10"/>
   <g id="line2d_11">
    <g clip-path="url(#p7c4cbcdf03)">
     <use xlink:href="#m164b322726" x="250.56" y="17.28" style="stroke: #000000"/>
    </g>
   </g>
   <g id="line2d_12">
    <g clip-path="url(#p7c4cbcdf03)">
     <use xlink:href="#m164b322726" x="267.84" y="17.28" style="stroke: #000000"/>
    </g>
   </g>
   <g id="line2d_13"/>
   <g id="line2d_14"/>
   <g id="line2d_15">
    <defs>
     <path id="mf736e4250d" d="M 0 6 
C 1.591219 6 3.117479 5.367802 4.242641 4.242641 
C 5.367802 3.117479 6 1.591219 6 0 
C 6 -1.591219 5.367802 -3.117479 4.242641 -4.242641 
C 3.117479 -5.367802 1.591219 -6 0 -6 
C -1.591219 -6 -3.117479 -5.367802 -4.242641 -4.242641 
C -5.367802 -3.117479 -6 -1.591219 -6 0 
C -6 1.591219 -5.367802 3.117479 -4.242641 4.242641 
C -3.117479 5.367802 -1.591219 6 0 6 
z
" style="stroke: #000000"/>
    </defs>
    <g clip-path="url(#p7c4cbcdf03)">
     <use xlink:href="#mf736e4250d" x="432" y="17.28" style="stroke: #000000"/>
    </g>
   </g>
   <g id="line2d_16"/>
   <g id="line2d_17"/>
  </g>
 </g>
 <defs>
  <clipPath id="p7c4cbcdf03">
   <rect x="0" y="0" width="518.4" height="172.8"/>
  </clipPath>
 </defs>
</svg>
