<?xml version="1.0" encoding="utf-8" standalone="no"?>
<!DOCTYPE svg PUBLIC "-//W3C//DTD SVG 1.1//EN"
  "http://www.w3.org/Graphics/SVG/1.1/DTD/svg11.dtd">
<svg xmlns:xlink="http://www.w3.org/1999/xlink" width="345.6pt" height="172.8pt" viewBox="0 0 345.6 172.8" xmlns="http://www.w3.org/2000/svg" version="1.1">
 <metadata>
  <rdf:RDF xmlns:dc="http://purl.org/dc/elements/1.1/" xmlns:cc="http://creativecommons.org/ns#" xmlns:rdf="http://www.w3.org/1999/02/22-rdf-syntax-ns#">
   <cc:Work>
    <dc:type rdf:resource="http://purl.org/dc/dcmitype/StillImage"/>
    <dc:date>2026-03-09T13:37:19.004256</dc:date>
    <dc:format>image/svg+xml</dc:format>
    <dc:creator>
     <cc:Agent>
      <dc:title>Matplotlib v3.10.8, https://matplotlib.org/</dc:title>
     </cc:Agent>
    </dc:creator>
   </cc:Work>
  </rdf:RDF>
 </metadata>
 <defs>
  <style type="text/css">*{stroke-linejoin: round; stroke-linecap: butt}</style>
 </defs>
 <g id="figure_1">
  <g id="patch_1">
   <path d="M 0 172.8 
L 345.6 172.8 
L 345.6 0 
L 0 0 
L 0 172.8 
z
" style="fill: none"/>
  </g>
  <g id="axes_1">
   <g id="matplotlib.axis_1"/>
   <g id="matplotlib.axis_2"/>
   <g id="text_1">
    <!-- $\gamma$ -->
    <g style="fill: #ffffff" transform="translate(163.44 59.900625) scale(0.36 -0.36)">
     <defs>
      <path id="Cmmi10-b0" d="M 1888 -1253 
Q 1888 -1109 1952 -834 
Q 2016 -559 2108 -248 
Q 2200 63 2266 263 
Q 2291 581 2291 744 
Q 2291 1156 2209 1511 
Q 2128 1866 1903 2105 
Q 1678 2344 1275 2344 
Q 1063 2344 852 2253 
Q 641 2163 489 2000 
Q 338 1838 281 1631 
Q 269 1594 231 1594 
L 153 1594 
Q 103 1594 103 1650 
L 103 1672 
Q 175 1959 358 2226 
Q 541 2494 805 2661 
Q 1069 2828 1363 2828 
Q 1663 2828 1881 2625 
Q 2100 2422 2231 2109 
Q 2363 1797 2420 1478 
Q 2478 1159 2478 878 
Q 2800 1753 3200 2534 
L 3297 2741 
Q 3316 2759 3341 2759 
L 3419 2759 
Q 3469 2759 3469 2700 
Q 3469 2688 3456 2663 
L 3359 2463 
Q 3081 1909 2848 1340 
Q 2616 772 2450 244 
Q 2425 28 2354 -347 
Q 2284 -722 2184 -1045 
Q 2084 -1369 1984 -1381 
Q 1888 -1381 1888 -1253 
z
" transform="scale(0.015625)"/>
     </defs>
     <use xlink:href="#Cmmi10-b0" transform="translate(0 0.8125)"/>
    </g>
   </g>
   <g id="text_2">
    <!-- $\bar{q}$ -->
    <g style="fill: #ffffff" transform="translate(314.46 159.980625) scale(0.36 -0.36)">
     <defs>
      <path id="Cmr10-b9" d="M 441 3553 
L 441 3775 
L 2753 3775 
L 2753 3553 
L 441 3553 
z
" transform="scale(0.015625)"/>
      <path id="Cmmi10-71" d="M 941 -1159 
Q 963 -1019 1025 -1019 
Q 1256 -1019 1389 -981 
Q 1522 -944 1563 -800 
L 1838 288 
Q 1472 -72 1106 -72 
Q 703 -72 473 233 
Q 244 538 244 953 
Q 244 1363 455 1803 
Q 666 2244 1027 2536 
Q 1388 2828 1806 2828 
Q 2000 2828 2156 2712 
Q 2313 2597 2394 2406 
Q 2431 2481 2601 2654 
Q 2772 2828 2841 2828 
Q 2913 2828 2913 2747 
L 2016 -825 
Q 2000 -919 1997 -934 
Q 1997 -1019 2419 -1019 
Q 2450 -1019 2467 -1044 
Q 2484 -1069 2484 -1100 
Q 2463 -1184 2448 -1212 
Q 2434 -1241 2375 -1241 
L 1006 -1241 
Q 941 -1241 941 -1159 
z
M 1119 97 
Q 1344 97 1558 267 
Q 1772 438 1931 672 
L 2291 2113 
Q 2253 2338 2126 2500 
Q 2000 2663 1791 2663 
Q 1575 2663 1389 2486 
Q 1203 2309 1075 2069 
Q 950 1813 836 1366 
Q 722 919 722 672 
Q 722 450 817 273 
Q 913 97 1119 97 
z
" transform="scale(0.015625)"/>
     </defs>
     <use xlink:href="#Cmr10-b9" transform="translate(3.254395 2.015625)"/>
     <use xlink:href="#Cmmi10-71" transform="translate(0 0.84375)"/>
    </g>
   </g>
   <g id="text_3">
    <!-- $q$ -->
    <g style="fill: #ffffff" transform="translate(314.46 30.380625) scale(0.36 -0.36)">
     <use xlink:href="#Cmmi10-71" transform="translate(0 0.8125)"/>
    </g>
   </g>
   <g id="text_4">
    <!-- $p$ -->
    <g style="fill: #ffffff" transform="translate(77.34 41.389375) scale(0.28 -0.28)">
     <defs>
      <path id="Cmmi10-70" d="M -159 -1241 
Q -219 -1241 -219 -1159 
Q -197 -1019 -134 -1019 
Q 66 -1019 145 -983 
Q 225 -947 269 -800 
L 991 2081 
Q 1038 2200 1038 2388 
Q 1038 2663 850 2663 
Q 650 2663 553 2423 
Q 456 2184 366 1819 
Q 366 1778 313 1778 
L 238 1778 
Q 222 1778 203 1801 
Q 184 1825 184 1844 
Q 253 2122 317 2315 
Q 381 2509 517 2668 
Q 653 2828 856 2828 
Q 1075 2828 1240 2704 
Q 1406 2581 1453 2369 
Q 1628 2572 1840 2700 
Q 2053 2828 2278 2828 
Q 2547 2828 2745 2684 
Q 2944 2541 3044 2308 
Q 3144 2075 3144 1806 
Q 3144 1394 2933 953 
Q 2722 513 2361 220 
Q 2000 -72 1588 -72 
Q 1400 -72 1248 34 
Q 1097 141 1013 313 
L 722 -825 
Q 706 -919 703 -934 
Q 703 -1019 1125 -1019 
Q 1191 -1019 1191 -1100 
Q 1169 -1184 1155 -1212 
Q 1141 -1241 1081 -1241 
L -159 -1241 
z
M 1594 97 
Q 1816 97 2006 280 
Q 2197 463 2316 691 
Q 2403 863 2479 1111 
Q 2556 1359 2612 1640 
Q 2669 1922 2669 2088 
Q 2669 2234 2630 2362 
Q 2591 2491 2502 2577 
Q 2413 2663 2266 2663 
Q 2031 2663 1823 2495 
Q 1616 2328 1447 2081 
L 1447 2059 
L 1094 647 
Q 1138 419 1263 258 
Q 1388 97 1594 97 
z
" transform="scale(0.015625)"/>
     </defs>
     <use xlink:href="#Cmmi10-70" transform="translate(0 0.8125)"/>
    </g>
   </g>
   <g id="text_5">
    <!-- $p'$ -->
    <g style="fill: #ffffff" transform="translate(72.86 142.04) scale(0.28 -0.28)">
     <defs>
      <path id="Cmsy10-30" d="M 225 347 
Q 184 359 184 409 
L 966 3316 
Q 1003 3434 1093 3506 
Q 1184 3578 1300 3578 
Q 1450 3578 1564 3479 
Q 1678 3381 1678 3231 
Q 1678 3166 1644 3084 
L 488 319 
Q 466 275 428 275 
Q 394 275 320 306 
Q 247 338 225 347 
z
" transform="scale(0.015625)"/>
     </defs>
     <use xlink:href="#Cmmi10-70" transform="translate(0 0.601562)"/>
     <use xlink:href="#Cmsy10-30" transform="translate(56.59625 38.865625) scale(0.7)"/>
    </g>
   </g>
   <g id="text_6">
    <!-- $l$ -->
    <g style="fill: #ffffff" transform="translate(318.36 93.4) scale(0.28 -0.28)">
     <defs>
      <path id="Cmmi10-6c" d="M 281 519 
Q 281 538 286 575 
Q 291 613 295 648 
Q 300 684 300 703 
L 1094 3872 
Q 1119 3981 1125 4044 
Q 1125 4147 709 4147 
Q 647 4147 647 4231 
Q 650 4247 661 4287 
Q 672 4328 689 4350 
Q 706 4372 738 4372 
L 1600 4441 
Q 1678 4441 1678 4359 
L 756 678 
Q 709 575 709 372 
Q 709 97 897 97 
Q 1094 97 1192 342 
Q 1291 588 1369 941 
Q 1381 978 1422 978 
L 1497 978 
Q 1522 978 1539 958 
Q 1556 938 1556 916 
Q 1481 606 1420 426 
Q 1359 247 1225 87 
Q 1091 -72 884 -72 
Q 628 -72 454 93 
Q 281 259 281 519 
z
" transform="scale(0.015625)"/>
     </defs>
     <use xlink:href="#Cmmi10-6c" transform="translate(0 0.609375)"/>
    </g>
   </g>
   <g id="text_7">
    <!-- $k$ -->
    <g style="fill: #ffffff" transform="translate(269.06 28.6) scale(0.28 -0.28)">
     <defs>
      <path id="Cmmi10-6b" d="M 341 116 
Q 341 153 347 172 
L 1275 3872 
Q 1300 3981 1306 4044 
Q 1306 4147 891 4147 
Q 825 4147 825 4231 
Q 828 4247 839 4287 
Q 850 4328 867 4350 
Q 884 4372 916 4372 
L 1778 4441 
L 1797 4441 
Q 1797 4434 1819 4423 
Q 1841 4413 1844 4409 
Q 1856 4378 1856 4359 
L 1184 1684 
Q 1416 1781 1767 2145 
Q 2119 2509 2317 2668 
Q 2516 2828 2816 2828 
Q 2994 2828 3119 2706 
Q 3244 2584 3244 2406 
Q 3244 2294 3197 2198 
Q 3150 2103 3065 2043 
Q 2981 1984 2869 1984 
Q 2766 1984 2695 2048 
Q 2625 2113 2625 2216 
Q 2625 2369 2733 2473 
Q 2841 2578 2994 2578 
Q 2931 2663 2803 2663 
Q 2613 2663 2436 2553 
Q 2259 2444 2054 2239 
Q 1850 2034 1681 1864 
Q 1513 1694 1369 1606 
Q 1747 1563 2025 1408 
Q 2303 1253 2303 934 
Q 2303 869 2278 769 
Q 2222 528 2222 384 
Q 2222 97 2419 97 
Q 2650 97 2770 350 
Q 2891 603 2969 941 
Q 2981 978 3022 978 
L 3097 978 
Q 3122 978 3139 962 
Q 3156 947 3156 922 
Q 3156 916 3150 903 
Q 2909 -72 2406 -72 
Q 2225 -72 2086 12 
Q 1947 97 1872 242 
Q 1797 388 1797 569 
Q 1797 672 1825 781 
Q 1844 856 1844 922 
Q 1844 1169 1625 1297 
Q 1406 1425 1125 1453 
L 800 147 
Q 775 50 703 -11 
Q 631 -72 538 -72 
Q 456 -72 398 -17 
Q 341 38 341 116 
z
" transform="scale(0.015625)"/>
     </defs>
     <use xlink:href="#Cmmi10-6b" transform="translate(0 0.609375)"/>
    </g>
   </g>
   <g id="text_8">
    <!-- $k'$ -->
    <g style="fill: #ffffff" transform="translate(260.04 162.52) scale(0.28 -0.28)">
     <use xlink:href="#Cmmi10-6b" transform="translate(0 0.601562)"/>
     <use xlink:href="#Cmsy10-30" transform="translate(63.597891 38.865625) scale(0.7)"/>
    </g>
   </g>
   <g id="text_9">
    <!-- $e^{\!\!+}$ -->
    <g style="fill: #ffffff" transform="translate(1.8 160.2) scale(0.36 -0.36)">
     <defs>
      <path id="Cmmi10-65" d="M 1288 -72 
Q 981 -72 751 87 
Q 522 247 401 517 
Q 281 788 281 1088 
Q 281 1544 511 1945 
Q 741 2347 1134 2587 
Q 1528 2828 1978 2828 
Q 2253 2828 2458 2686 
Q 2663 2544 2663 2278 
Q 2663 1909 2369 1729 
Q 2075 1550 1706 1508 
Q 1338 1466 891 1466 
L 872 1466 
Q 769 1084 769 813 
Q 769 528 900 312 
Q 1031 97 1300 97 
Q 1681 97 2032 272 
Q 2384 447 2606 756 
Q 2625 775 2656 775 
Q 2688 775 2720 739 
Q 2753 703 2753 672 
Q 2753 647 2741 634 
Q 2506 306 2109 117 
Q 1713 -72 1288 -72 
z
M 909 1631 
Q 1281 1631 1597 1665 
Q 1913 1700 2169 1839 
Q 2425 1978 2425 2272 
Q 2425 2391 2359 2480 
Q 2294 2569 2189 2616 
Q 2084 2663 1972 2663 
Q 1700 2663 1483 2516 
Q 1266 2369 1125 2133 
Q 984 1897 909 1631 
z
" transform="scale(0.015625)"/>
      <path id="Cmr10-2b" d="M 481 1472 
Q 428 1472 393 1512 
Q 359 1553 359 1600 
Q 359 1647 393 1687 
Q 428 1728 481 1728 
L 2363 1728 
L 2363 3616 
Q 2363 3666 2400 3698 
Q 2438 3731 2491 3731 
Q 2538 3731 2578 3698 
Q 2619 3666 2619 3616 
L 2619 1728 
L 4500 1728 
Q 4547 1728 4581 1687 
Q 4616 1647 4616 1600 
Q 4616 1553 4581 1512 
Q 4547 1472 4500 1472 
L 2619 1472 
L 2619 -416 
Q 2619 -466 2578 -498 
Q 2538 -531 2491 -531 
Q 2438 -531 2400 -498 
Q 2363 -466 2363 -416 
L 2363 1472 
L 481 1472 
z
" transform="scale(0.015625)"/>
     </defs>
     <use xlink:href="#Cmmi10-65" transform="translate(0 0.928125)"/>
     <use xlink:href="#Cmr10-2b" transform="translate(44.593236 39.192187) scale(0.7)"/>
    </g>
   </g>
   <g id="text_10">
    <!-- $e^{\!\!-}$ -->
    <g style="fill: #ffffff" transform="translate(1.8 30.6) scale(0.36 -0.36)">
     <defs>
      <path id="Cmsy10-a1" d="M 653 1472 
Q 600 1472 565 1512 
Q 531 1553 531 1600 
Q 531 1647 565 1687 
Q 600 1728 653 1728 
L 4325 1728 
Q 4375 1728 4408 1687 
Q 4441 1647 4441 1600 
Q 4441 1553 4408 1512 
Q 4375 1472 4325 1472 
L 653 1472 
z
" transform="scale(0.015625)"/>
     </defs>
     <use xlink:href="#Cmmi10-65" transform="translate(0 0.835938)"/>
     <use xlink:href="#Cmsy10-a1" transform="translate(44.593236 39.1) scale(0.7)"/>
    </g>
   </g>
   <g id="line2d_1">
    <path d="M 115.2 86.4 
L 38.4 155.52 
L 38.4 155.52 
" clip-path="url(#p4160a10ca4)" style="fill: none; stroke: #ffffff; stroke-width: 2"/>
   </g>
   <g id="line2d_2">
    <path d="M 38.4 17.28 
L 115.2 86.4 
L 115.2 86.4 
" clip-path="url(#p4160a10ca4)" style="fill: none; stroke: #ffffff; stroke-width: 2"/>
   </g>
   <g id="line2d_3">
    <path d="M 115.2 86.4 
L 117.221053 80.744333 
L 118.37594 78.172448 
L 119.242105 76.763654 
L 119.819549 76.11813 
L 120.396992 75.727047 
L 120.974436 75.600084 
L 121.55188 75.740382 
L 122.129323 76.144471 
L 122.706767 76.802349 
L 123.572932 78.227788 
L 124.439098 80.107081 
L 125.593985 83.135486 
L 129.347368 93.492922 
L 130.213534 95.201902 
L 131.079699 96.422058 
L 131.657143 96.929221 
L 132.234586 97.175822 
L 132.81203 97.155757 
L 133.389474 96.869523 
L 133.966917 96.324203 
L 134.833083 95.051633 
L 135.699248 93.298583 
L 136.854135 90.385231 
L 141.184962 78.629161 
L 142.051128 77.089733 
L 142.917293 76.067361 
L 143.494737 75.702361 
L 144.07218 75.602092 
L 144.649624 75.769035 
L 145.227068 76.199058 
L 145.804511 76.881521 
L 146.670677 78.339986 
L 147.536842 80.246073 
L 148.980451 84.121294 
L 151.867669 92.2714 
L 153.022556 94.7905 
L 153.888722 96.148836 
L 154.466165 96.757063 
L 155.043609 97.108987 
L 155.621053 97.195899 
L 156.198496 97.01565 
L 156.77594 96.572698 
L 157.353383 95.878007 
L 158.219549 94.403164 
L 159.085714 92.483857 
L 160.529323 88.595515 
L 163.416541 80.457411 
L 164.571429 77.95622 
L 165.437594 76.614873 
L 166.015038 76.019155 
L 166.592481 75.680329 
L 167.169925 75.606778 
L 167.747368 75.800324 
L 168.324812 76.256176 
L 168.902256 76.963053 
L 169.768421 78.454182 
L 170.634586 80.386591 
L 172.078195 84.287812 
L 174.965414 92.413409 
L 176.120301 94.896537 
L 176.986466 96.220812 
L 177.56391 96.803983 
L 178.141353 97.129691 
L 178.718797 97.189875 
L 179.296241 96.983046 
L 179.873684 96.514321 
L 180.451128 95.795302 
L 181.317293 94.287979 
L 182.47218 91.614858 
L 183.915789 87.588089 
L 186.225564 81.036863 
L 187.380451 78.396836 
L 188.246617 76.921993 
L 188.82406 76.227302 
L 189.401504 75.78435 
L 189.978947 75.604101 
L 190.556391 75.691013 
L 191.133835 76.042937 
L 191.711278 76.651164 
L 192.577444 78.0095 
L 193.443609 79.833813 
L 194.598496 82.812927 
L 198.640602 93.869621 
L 199.506767 95.487627 
L 200.372932 96.600942 
L 200.950376 97.030965 
L 201.52782 97.197908 
L 202.105263 97.097639 
L 202.682707 96.732639 
L 203.26015 96.111941 
L 204.126316 94.7367 
L 204.992481 92.89847 
L 206.147368 89.906754 
L 209.900752 79.501417 
L 210.766917 77.748367 
L 211.633083 76.475797 
L 212.210526 75.930477 
L 212.78797 75.644243 
L 213.365414 75.624178 
L 213.942857 75.870779 
L 214.520301 76.377942 
L 215.097744 77.133117 
L 215.96391 78.688456 
L 217.118797 81.409972 
L 218.851128 86.314965 
L 220.87218 91.983049 
L 222.027068 94.572212 
L 222.893233 95.997651 
L 223.470677 96.655529 
L 224.04812 97.059618 
L 224.625564 97.199916 
L 225.203008 97.072953 
L 225.780451 96.68187 
L 226.357895 96.036346 
L 227.22406 94.627552 
L 228.090226 92.761832 
L 229.245113 89.74547 
L 230.4 86.4 
L 230.4 86.4 
" clip-path="url(#p4160a10ca4)" style="fill: none; stroke: #ffffff; stroke-width: 2"/>
   </g>
   <g id="line2d_4">
    <path d="M 230.4 86.4 
L 307.2 17.28 
L 307.2 17.28 
" clip-path="url(#p4160a10ca4)" style="fill: none; stroke: #ffffff; stroke-width: 2"/>
   </g>
   <g id="line2d_5">
    <path d="M 307.2 155.52 
L 268.8 120.96 
L 268.8 120.96 
" clip-path="url(#p4160a10ca4)" style="fill: none; stroke: #ffffff; stroke-width: 2"/>
   </g>
   <g id="line2d_6">
    <path d="M 268.8 120.96 
L 230.4 86.4 
L 230.4 86.4 
" clip-path="url(#p4160a10ca4)" style="fill: none; stroke: #ffffff; stroke-width: 2"/>
   </g>
   <g id="line2d_7">
    <path d="M 268.8 120.96 
L 270.22608 119.479563 
L 271.444283 117.799298 
L 272.424944 115.96669 
L 273.146854 114.034651 
L 273.598017 112.059632 
L 273.776076 110.099613 
L 273.688398 108.212042 
L 273.351809 106.451785 
L 272.792 104.869179 
L 272.042605 103.508233 
L 271.144013 102.405065 
L 270.14192 101.586615 
L 269.08571 101.069689 
L 268.026692 100.860354 
L 267.261561 100.902682 
L 266.544937 101.109447 
L 265.896979 101.471291 
L 265.172069 102.17302 
L 264.641937 103.090635 
L 264.339163 104.17913 
L 264.288233 105.387418 
L 264.504665 106.660145 
L 264.99446 107.939662 
L 265.753885 109.168081 
L 266.769608 110.289332 
L 268.019173 111.251158 
L 269.471797 112.006982 
L 271.089469 112.51756 
L 272.384812 112.720833 
L 273.72821 112.759502 
L 275.098515 112.627581 
L 276.474039 112.322504 
L 277.832987 111.845179 
L 279.153899 111.199966 
L 280.416077 110.394594 
L 281.6 109.44 
L 283.02608 107.959563 
L 284.244283 106.279298 
L 285.224944 104.44669 
L 285.946854 102.514651 
L 286.398017 100.539632 
L 286.576076 98.579613 
L 286.488398 96.692042 
L 286.151809 94.931785 
L 285.592 93.349179 
L 284.842605 91.988233 
L 283.944013 90.885065 
L 282.94192 90.066615 
L 281.88571 89.549689 
L 280.826692 89.340354 
L 280.061561 89.382682 
L 279.344937 89.589447 
L 278.696979 89.951291 
L 277.972069 90.65302 
L 277.441937 91.570635 
L 277.139163 92.65913 
L 277.088233 93.867418 
L 277.304665 95.140145 
L 277.79446 96.419662 
L 278.553885 97.648081 
L 279.569608 98.769332 
L 280.819173 99.731158 
L 282.271797 100.486982 
L 283.889469 100.99756 
L 285.184812 101.200833 
L 286.52821 101.239502 
L 287.898515 101.107581 
L 289.274039 100.802504 
L 290.632987 100.325179 
L 291.953899 99.679966 
L 293.216077 98.874594 
L 294.4 97.92 
L 295.82608 96.439563 
L 297.044283 94.759298 
L 298.024944 92.92669 
L 298.746854 90.994651 
L 299.198017 89.019632 
L 299.376076 87.059613 
L 299.288398 85.172042 
L 298.951809 83.411785 
L 298.392 81.829179 
L 297.642605 80.468233 
L 296.744013 79.365065 
L 295.74192 78.546615 
L 294.68571 78.029689 
L 293.626692 77.820354 
L 292.861561 77.862682 
L 292.144937 78.069447 
L 291.496979 78.431291 
L 290.772069 79.13302 
L 290.241937 80.050635 
L 289.939163 81.13913 
L 289.888233 82.347418 
L 290.104665 83.620145 
L 290.59446 84.899662 
L 291.353885 86.128081 
L 292.369608 87.249332 
L 293.619173 88.211158 
L 295.071797 88.966982 
L 296.689469 89.47756 
L 297.984812 89.680833 
L 299.32821 89.719502 
L 300.698515 89.587581 
L 302.074039 89.282504 
L 303.432987 88.805179 
L 304.753899 88.159966 
L 306.016077 87.354594 
L 307.2 86.4 
L 307.2 86.4 
" clip-path="url(#p4160a10ca4)" style="fill: none; stroke: #ffffff; stroke-width: 2"/>
   </g>
   <g id="line2d_8">
    <path d="M 230.4 86.4 
L 307.2 17.28 
L 307.2 17.28 
" clip-path="url(#p4160a10ca4)" style="fill: none; stroke: #ffffff; stroke-width: 2"/>
   </g>
   <g id="patch_2">
    <path d="M 69.207419 127.793323 
L 79.102588 124.41997 
L 75.354418 122.261024 
L 74.30493 117.673263 
z
" clip-path="url(#p4160a10ca4)" style="fill: #ffffff; stroke: #ffffff; stroke-linejoin: miter"/>
   </g>
   <g id="patch_3">
    <path d="M 84.392581 58.673323 
L 79.29507 48.553263 
L 78.245582 53.141024 
L 74.497412 55.29997 
z
" clip-path="url(#p4160a10ca4)" style="fill: #ffffff; stroke: #ffffff; stroke-linejoin: miter"/>
   </g>
   <g id="patch_4">
    <path d="M 276.392581 45.006677 
L 266.497412 48.38003 
L 270.245582 50.538976 
L 271.29507 55.126737 
z
" clip-path="url(#p4160a10ca4)" style="fill: #ffffff; stroke: #ffffff; stroke-linejoin: miter"/>
   </g>
   <g id="patch_5">
    <path d="M 280.455539 131.449985 
L 285.553051 141.570045 
L 286.602538 136.982285 
L 290.350709 134.823338 
z
" clip-path="url(#p4160a10ca4)" style="fill: #ffffff; stroke: #ffffff; stroke-linejoin: miter"/>
   </g>
   <g id="patch_6">
    <path d="M 242.055539 96.889985 
L 247.153051 107.010045 
L 248.202538 102.422285 
L 251.950709 100.263338 
z
" clip-path="url(#p4160a10ca4)" style="fill: #ffffff; stroke: #ffffff; stroke-linejoin: miter"/>
   </g>
   <g id="patch_7">
    <path d="M 276.392581 45.006677 
L 266.497412 48.38003 
L 270.245582 50.538976 
L 271.29507 55.126737 
z
" clip-path="url(#p4160a10ca4)" style="fill: #ffffff; stroke: #ffffff; stroke-linejoin: miter"/>
   </g>
   <g id="line2d_9"/>
   <g id="line2d_10"/>
   <g id="line2d_11">
    <defs>
     <path id="m342c306e32" d="M 0 2 
C 0.530406 2 1.03916 1.789267 1.414214 1.414214 
C 1.789267 1.03916 2 0.530406 2 0 
C 2 -0.530406 1.789267 -1.03916 1.414214 -1.414214 
C 1.03916 -1.789267 0.530406 -2 0 -2 
C -0.530406 -2 -1.03916 -1.789267 -1.414214 -1.414214 
C -1.789267 -1.03916 -2 -0.530406 -2 0 
C -2 0.530406 -1.789267 1.03916 -1.414214 1.414214 
C -1.03916 1.789267 -0.530406 2 0 2 
z
" style="stroke: #ffffff"/>
    </defs>
    <g clip-path="url(#p4160a10ca4)">
     <use xlink:href="#m342c306e32" x="115.2" y="86.4" style="fill: #ffffff; stroke: #ffffff"/>
    </g>
   </g>
   <g id="line2d_12">
    <g clip-path="url(#p4160a10ca4)">
     <use xlink:href="#m342c306e32" x="230.4" y="86.4" style="fill: #ffffff; stroke: #ffffff"/>
    </g>
   </g>
   <g id="line2d_13"/>
   <g id="line2d_14"/>
   <g id="line2d_15">
    <defs>
     <path id="mc2029965ba" d="M 0 5 
C 1.326016 5 2.597899 4.473168 3.535534 3.535534 
C 4.473168 2.597899 5 1.326016 5 0 
C 5 -1.326016 4.473168 -2.597899 3.535534 -3.535534 
C 2.597899 -4.473168 1.326016 -5 0 -5 
C -1.326016 -5 -2.597899 -4.473168 -3.535534 -3.535534 
C -4.473168 -2.597899 -5 -1.326016 -5 0 
C -5 1.326016 -4.473168 2.597899 -3.535534 3.535534 
C -2.597899 4.473168 -1.326016 5 0 5 
z
" style="stroke: #ffffff"/>
    </defs>
    <g clip-path="url(#p4160a10ca4)">
     <use xlink:href="#mc2029965ba" x="268.8" y="120.96" style="fill: #ffffff; stroke: #ffffff"/>
    </g>
   </g>
   <g id="line2d_16"/>
  </g>
 </g>
 <defs>
  <clipPath id="p4160a10ca4">
   <rect x="0" y="0" width="345.6" height="172.8"/>
  </clipPath>
 </defs>
</svg>
