<?xml version="1.0" encoding="utf-8" standalone="no"?>
<!DOCTYPE svg PUBLIC "-//W3C//DTD SVG 1.1//EN"
  "http://www.w3.org/Graphics/SVG/1.1/DTD/svg11.dtd">
<svg xmlns:xlink="http://www.w3.org/1999/xlink" width="345.6pt" height="172.8pt" viewBox="0 0 345.6 172.8" xmlns="http://www.w3.org/2000/svg" version="1.1">
 <metadata>
  <rdf:RDF xmlns:dc="http://purl.org/dc/elements/1.1/" xmlns:cc="http://creativecommons.org/ns#" xmlns:rdf="http://www.w3.org/1999/02/22-rdf-syntax-ns#">
   <cc:Work>
    <dc:type rdf:resource="http://purl.org/dc/dcmitype/StillImage"/>
    <dc:date>2026-02-19T21:21:53.484872</dc:date>
    <dc:format>image/svg+xml</dc:format>
    <dc:creator>
     <cc:Agent>
      <dc:title>Matplotlib v3.10.8, https://matplotlib.org/</dc:title>
     </cc:Agent>
    </dc:creator>
   </cc:Work>
  </rdf:RDF>
 </metadata>
 <defs>
  <style type="text/css">*{stroke-linejoin: round; stroke-linecap: butt}</style>
 </defs>
 <g id="figure_1">
  <g id="patch_1">
   <path d="M 0 172.8 
L 345.6 172.8 
L 345.6 0 
L 0 0 
L 0 172.8 
z
" style="fill: none"/>
  </g>
  <g id="axes_1">
   <g id="matplotlib.axis_1"/>
   <g id="matplotlib.axis_2"/>
   <g id="text_1">
    <!-- $\mu$ -->
    <g style="fill: #ffffff" transform="translate(311.58 159.260625) scale(0.36 -0.36)">
     <defs>
      <path id="Cmmi10-b9" d="M 178 -1203 
Q 178 -1166 184 -1153 
L 1125 2625 
Q 1153 2716 1226 2772 
Q 1300 2828 1394 2828 
Q 1475 2828 1531 2779 
Q 1588 2731 1588 2650 
Q 1588 2631 1586 2620 
Q 1584 2609 1581 2597 
L 1203 1100 
Q 1141 834 1141 641 
Q 1141 403 1253 250 
Q 1366 97 1594 97 
Q 2059 97 2413 678 
Q 2416 684 2417 687 
Q 2419 691 2419 697 
L 2881 2553 
Q 2903 2638 2981 2698 
Q 3059 2759 3150 2759 
Q 3225 2759 3283 2709 
Q 3341 2659 3341 2578 
Q 3341 2541 3334 2528 
L 2875 684 
Q 2828 503 2828 372 
Q 2828 97 3016 97 
Q 3216 97 3317 344 
Q 3419 591 3494 941 
Q 3506 978 3547 978 
L 3622 978 
Q 3647 978 3664 958 
Q 3681 938 3681 916 
Q 3569 469 3436 198 
Q 3303 -72 3003 -72 
Q 2791 -72 2627 50 
Q 2463 172 2413 378 
Q 2253 178 2039 53 
Q 1825 -72 1588 -72 
Q 1188 -72 959 116 
L 634 -1178 
Q 616 -1269 541 -1325 
Q 466 -1381 372 -1381 
Q 294 -1381 236 -1332 
Q 178 -1284 178 -1203 
z
" transform="scale(0.015625)"/>
     </defs>
     <use xlink:href="#Cmmi10-b9" transform="translate(0 0.8125)"/>
    </g>
   </g>
   <g id="text_2">
    <!-- $\mu$ -->
    <g style="fill: #ffffff" transform="translate(311.58 29.660625) scale(0.36 -0.36)">
     <use xlink:href="#Cmmi10-b9" transform="translate(0 0.8125)"/>
    </g>
   </g>
   <g id="text_3">
    <!-- $e$ -->
    <g style="fill: #ffffff" transform="translate(14.58 160.2) scale(0.36 -0.36)">
     <defs>
      <path id="Cmmi10-65" d="M 1288 -72 
Q 981 -72 751 87 
Q 522 247 401 517 
Q 281 788 281 1088 
Q 281 1544 511 1945 
Q 741 2347 1134 2587 
Q 1528 2828 1978 2828 
Q 2253 2828 2458 2686 
Q 2663 2544 2663 2278 
Q 2663 1909 2369 1729 
Q 2075 1550 1706 1508 
Q 1338 1466 891 1466 
L 872 1466 
Q 769 1084 769 813 
Q 769 528 900 312 
Q 1031 97 1300 97 
Q 1681 97 2032 272 
Q 2384 447 2606 756 
Q 2625 775 2656 775 
Q 2688 775 2720 739 
Q 2753 703 2753 672 
Q 2753 647 2741 634 
Q 2506 306 2109 117 
Q 1713 -72 1288 -72 
z
M 909 1631 
Q 1281 1631 1597 1665 
Q 1913 1700 2169 1839 
Q 2425 1978 2425 2272 
Q 2425 2391 2359 2480 
Q 2294 2569 2189 2616 
Q 2084 2663 1972 2663 
Q 1700 2663 1483 2516 
Q 1266 2369 1125 2133 
Q 984 1897 909 1631 
z
" transform="scale(0.015625)"/>
     </defs>
     <use xlink:href="#Cmmi10-65" transform="translate(0 0.8125)"/>
    </g>
   </g>
   <g id="text_4">
    <!-- $e$ -->
    <g style="fill: #ffffff" transform="translate(14.58 30.6) scale(0.36 -0.36)">
     <use xlink:href="#Cmmi10-65" transform="translate(0 0.8125)"/>
    </g>
   </g>
   <g id="text_5">
    <!-- $q$ -->
    <g style="fill: #ffffff" transform="translate(166.5 41.389375) scale(0.28 -0.28)">
     <defs>
      <path id="Cmmi10-71" d="M 941 -1159 
Q 963 -1019 1025 -1019 
Q 1256 -1019 1389 -981 
Q 1522 -944 1563 -800 
L 1838 288 
Q 1472 -72 1106 -72 
Q 703 -72 473 233 
Q 244 538 244 953 
Q 244 1363 455 1803 
Q 666 2244 1027 2536 
Q 1388 2828 1806 2828 
Q 2000 2828 2156 2712 
Q 2313 2597 2394 2406 
Q 2431 2481 2601 2654 
Q 2772 2828 2841 2828 
Q 2913 2828 2913 2747 
L 2016 -825 
Q 2000 -919 1997 -934 
Q 1997 -1019 2419 -1019 
Q 2450 -1019 2467 -1044 
Q 2484 -1069 2484 -1100 
Q 2463 -1184 2448 -1212 
Q 2434 -1241 2375 -1241 
L 1006 -1241 
Q 941 -1241 941 -1159 
z
M 1119 97 
Q 1344 97 1558 267 
Q 1772 438 1931 672 
L 2291 2113 
Q 2253 2338 2126 2500 
Q 2000 2663 1791 2663 
Q 1575 2663 1389 2486 
Q 1203 2309 1075 2069 
Q 950 1813 836 1366 
Q 722 919 722 672 
Q 722 450 817 273 
Q 913 97 1119 97 
z
" transform="scale(0.015625)"/>
     </defs>
     <use xlink:href="#Cmmi10-71" transform="translate(0 0.8125)"/>
    </g>
   </g>
   <g id="text_6">
    <!-- $\longrightarrow$ -->
    <g style="fill: #ffffff" transform="translate(145.78 63.16) scale(0.28 -0.28)">
     <defs>
      <path id="STIXGeneral-Regular-27f6" d="M 9722 1651 
L 9722 1587 
Q 8986 1274 8198 365 
L 8070 486 
Q 8250 742 8595 1101 
Q 8685 1190 8685 1280 
Q 8685 1408 8518 1408 
L 352 1408 
L 352 1830 
L 8525 1830 
Q 8576 1830 8633 1878 
Q 8691 1926 8691 1971 
Q 8691 2042 8602 2131 
Q 8288 2432 8077 2752 
L 8205 2874 
Q 9005 1952 9722 1651 
z
" transform="scale(0.015625)"/>
     </defs>
     <use xlink:href="#STIXGeneral-Regular-27f6" transform="translate(17.558594 0.09375)"/>
    </g>
   </g>
   <g id="text_7">
    <!-- $p'$ -->
    <g style="fill: #ffffff" transform="translate(257.18 159.32) scale(0.28 -0.28)">
     <defs>
      <path id="Cmmi10-70" d="M -159 -1241 
Q -219 -1241 -219 -1159 
Q -197 -1019 -134 -1019 
Q 66 -1019 145 -983 
Q 225 -947 269 -800 
L 991 2081 
Q 1038 2200 1038 2388 
Q 1038 2663 850 2663 
Q 650 2663 553 2423 
Q 456 2184 366 1819 
Q 366 1778 313 1778 
L 238 1778 
Q 222 1778 203 1801 
Q 184 1825 184 1844 
Q 253 2122 317 2315 
Q 381 2509 517 2668 
Q 653 2828 856 2828 
Q 1075 2828 1240 2704 
Q 1406 2581 1453 2369 
Q 1628 2572 1840 2700 
Q 2053 2828 2278 2828 
Q 2547 2828 2745 2684 
Q 2944 2541 3044 2308 
Q 3144 2075 3144 1806 
Q 3144 1394 2933 953 
Q 2722 513 2361 220 
Q 2000 -72 1588 -72 
Q 1400 -72 1248 34 
Q 1097 141 1013 313 
L 722 -825 
Q 706 -919 703 -934 
Q 703 -1019 1125 -1019 
Q 1191 -1019 1191 -1100 
Q 1169 -1184 1155 -1212 
Q 1141 -1241 1081 -1241 
L -159 -1241 
z
M 1594 97 
Q 1816 97 2006 280 
Q 2197 463 2316 691 
Q 2403 863 2479 1111 
Q 2556 1359 2612 1640 
Q 2669 1922 2669 2088 
Q 2669 2234 2630 2362 
Q 2591 2491 2502 2577 
Q 2413 2663 2266 2663 
Q 2031 2663 1823 2495 
Q 1616 2328 1447 2081 
L 1447 2059 
L 1094 647 
Q 1138 419 1263 258 
Q 1388 97 1594 97 
z
" transform="scale(0.015625)"/>
      <path id="Cmsy10-30" d="M 225 347 
Q 184 359 184 409 
L 966 3316 
Q 1003 3434 1093 3506 
Q 1184 3578 1300 3578 
Q 1450 3578 1564 3479 
Q 1678 3381 1678 3231 
Q 1678 3166 1644 3084 
L 488 319 
Q 466 275 428 275 
Q 394 275 320 306 
Q 247 338 225 347 
z
" transform="scale(0.015625)"/>
     </defs>
     <use xlink:href="#Cmmi10-70" transform="translate(0 0.601562)"/>
     <use xlink:href="#Cmsy10-30" transform="translate(56.59625 38.865625) scale(0.7)"/>
    </g>
   </g>
   <g id="text_8">
    <!-- $p$ -->
    <g style="fill: #ffffff" transform="translate(269.34 28.429375) scale(0.28 -0.28)">
     <use xlink:href="#Cmmi10-70" transform="translate(0 0.8125)"/>
    </g>
   </g>
   <g id="text_9">
    <!-- $l' E'$ -->
    <g style="fill: #ffffff" transform="translate(59.56 158.2) scale(0.28 -0.28)">
     <defs>
      <path id="Cmmi10-6c" d="M 281 519 
Q 281 538 286 575 
Q 291 613 295 648 
Q 300 684 300 703 
L 1094 3872 
Q 1119 3981 1125 4044 
Q 1125 4147 709 4147 
Q 647 4147 647 4231 
Q 650 4247 661 4287 
Q 672 4328 689 4350 
Q 706 4372 738 4372 
L 1600 4441 
Q 1678 4441 1678 4359 
L 756 678 
Q 709 575 709 372 
Q 709 97 897 97 
Q 1094 97 1192 342 
Q 1291 588 1369 941 
Q 1381 978 1422 978 
L 1497 978 
Q 1522 978 1539 958 
Q 1556 938 1556 916 
Q 1481 606 1420 426 
Q 1359 247 1225 87 
Q 1091 -72 884 -72 
Q 628 -72 454 93 
Q 281 259 281 519 
z
" transform="scale(0.015625)"/>
      <path id="Cmmi10-45" d="M 300 0 
Q 238 0 238 84 
Q 241 100 250 139 
Q 259 178 276 201 
Q 294 225 319 225 
Q 709 225 863 269 
Q 947 297 984 441 
L 1863 3956 
Q 1875 4019 1875 4044 
Q 1875 4113 1797 4122 
Q 1678 4147 1338 4147 
Q 1275 4147 1275 4231 
Q 1278 4247 1287 4286 
Q 1297 4325 1314 4348 
Q 1331 4372 1356 4372 
L 4825 4372 
Q 4891 4372 4891 4288 
L 4738 2963 
Q 4738 2947 4714 2926 
Q 4691 2906 4672 2906 
L 4616 2906 
Q 4550 2906 4550 2988 
Q 4588 3300 4588 3450 
Q 4588 3706 4500 3848 
Q 4413 3991 4267 4053 
Q 4122 4116 3945 4131 
Q 3769 4147 3481 4147 
L 2753 4147 
Q 2578 4147 2522 4117 
Q 2466 4088 2419 3928 
L 2034 2381 
L 2534 2381 
Q 2859 2381 3025 2426 
Q 3191 2472 3287 2615 
Q 3384 2759 3463 3072 
Q 3469 3094 3486 3111 
Q 3503 3128 3525 3128 
L 3584 3128 
Q 3647 3128 3647 3047 
L 3250 1466 
Q 3238 1409 3188 1409 
L 3128 1409 
Q 3066 1409 3066 1491 
Q 3128 1747 3128 1869 
Q 3128 2056 2959 2106 
Q 2791 2156 2509 2156 
L 1978 2156 
L 1544 416 
Q 1516 338 1516 275 
Q 1516 225 1734 225 
L 2509 225 
Q 2972 225 3259 297 
Q 3547 369 3736 526 
Q 3925 684 4062 928 
Q 4200 1172 4397 1638 
Q 4409 1678 4453 1678 
L 4513 1678 
Q 4538 1678 4556 1656 
Q 4575 1634 4575 1606 
Q 4575 1594 4569 1581 
L 3909 38 
Q 3897 0 3859 0 
L 300 0 
z
" transform="scale(0.015625)"/>
     </defs>
     <use xlink:href="#Cmmi10-6c" transform="translate(0 0.601562)"/>
     <use xlink:href="#Cmsy10-30" transform="translate(41.381094 38.865625) scale(0.7)"/>
     <use xlink:href="#Cmmi10-45" transform="translate(67.001602 0.601562)"/>
     <use xlink:href="#Cmsy10-30" transform="translate(152.15043 38.865625) scale(0.7)"/>
    </g>
   </g>
   <g id="text_10">
    <!-- $l,E$ -->
    <g style="fill: #ffffff" transform="translate(63.62 32.92) scale(0.28 -0.28)">
     <defs>
      <path id="Cmmi10-3b" d="M 634 -1153 
Q 634 -1125 659 -1100 
Q 891 -878 1019 -587 
Q 1147 -297 1147 25 
L 1147 103 
Q 1044 0 891 0 
Q 744 0 641 103 
Q 538 206 538 353 
Q 538 503 641 603 
Q 744 703 891 703 
Q 1119 703 1216 492 
Q 1313 281 1313 25 
Q 1313 -331 1170 -651 
Q 1028 -972 769 -1228 
Q 744 -1241 728 -1241 
Q 697 -1241 665 -1212 
Q 634 -1184 634 -1153 
z
" transform="scale(0.015625)"/>
     </defs>
     <use xlink:href="#Cmmi10-6c" transform="translate(0 0.609375)"/>
     <use xlink:href="#Cmmi10-3b" transform="translate(29.785156 0.609375)"/>
     <use xlink:href="#Cmmi10-45" transform="translate(75.029297 0.609375)"/>
    </g>
   </g>
   <g id="line2d_1">
    <path d="M 115.2 86.4 
L 38.4 155.52 
L 38.4 155.52 
" clip-path="url(#p3595d2a071)" style="fill: none; stroke: #ffffff; stroke-width: 2"/>
   </g>
   <g id="line2d_2">
    <path d="M 38.4 17.28 
L 115.2 86.4 
L 115.2 86.4 
" clip-path="url(#p3595d2a071)" style="fill: none; stroke: #ffffff; stroke-width: 2"/>
   </g>
   <g id="line2d_3">
    <path d="M 115.2 86.4 
L 117.221053 80.744333 
L 118.37594 78.172448 
L 119.242105 76.763654 
L 119.819549 76.11813 
L 120.396992 75.727047 
L 120.974436 75.600084 
L 121.55188 75.740382 
L 122.129323 76.144471 
L 122.706767 76.802349 
L 123.572932 78.227788 
L 124.439098 80.107081 
L 125.593985 83.135486 
L 129.347368 93.492922 
L 130.213534 95.201902 
L 131.079699 96.422058 
L 131.657143 96.929221 
L 132.234586 97.175822 
L 132.81203 97.155757 
L 133.389474 96.869523 
L 133.966917 96.324203 
L 134.833083 95.051633 
L 135.699248 93.298583 
L 136.854135 90.385231 
L 141.184962 78.629161 
L 142.051128 77.089733 
L 142.917293 76.067361 
L 143.494737 75.702361 
L 144.07218 75.602092 
L 144.649624 75.769035 
L 145.227068 76.199058 
L 145.804511 76.881521 
L 146.670677 78.339986 
L 147.536842 80.246073 
L 148.980451 84.121294 
L 151.867669 92.2714 
L 153.022556 94.7905 
L 153.888722 96.148836 
L 154.466165 96.757063 
L 155.043609 97.108987 
L 155.621053 97.195899 
L 156.198496 97.01565 
L 156.77594 96.572698 
L 157.353383 95.878007 
L 158.219549 94.403164 
L 159.085714 92.483857 
L 160.529323 88.595515 
L 163.416541 80.457411 
L 164.571429 77.95622 
L 165.437594 76.614873 
L 166.015038 76.019155 
L 166.592481 75.680329 
L 167.169925 75.606778 
L 167.747368 75.800324 
L 168.324812 76.256176 
L 168.902256 76.963053 
L 169.768421 78.454182 
L 170.634586 80.386591 
L 172.078195 84.287812 
L 174.965414 92.413409 
L 176.120301 94.896537 
L 176.986466 96.220812 
L 177.56391 96.803983 
L 178.141353 97.129691 
L 178.718797 97.189875 
L 179.296241 96.983046 
L 179.873684 96.514321 
L 180.451128 95.795302 
L 181.317293 94.287979 
L 182.47218 91.614858 
L 183.915789 87.588089 
L 186.225564 81.036863 
L 187.380451 78.396836 
L 188.246617 76.921993 
L 188.82406 76.227302 
L 189.401504 75.78435 
L 189.978947 75.604101 
L 190.556391 75.691013 
L 191.133835 76.042937 
L 191.711278 76.651164 
L 192.577444 78.0095 
L 193.443609 79.833813 
L 194.598496 82.812927 
L 198.640602 93.869621 
L 199.506767 95.487627 
L 200.372932 96.600942 
L 200.950376 97.030965 
L 201.52782 97.197908 
L 202.105263 97.097639 
L 202.682707 96.732639 
L 203.26015 96.111941 
L 204.126316 94.7367 
L 204.992481 92.89847 
L 206.147368 89.906754 
L 209.900752 79.501417 
L 210.766917 77.748367 
L 211.633083 76.475797 
L 212.210526 75.930477 
L 212.78797 75.644243 
L 213.365414 75.624178 
L 213.942857 75.870779 
L 214.520301 76.377942 
L 215.097744 77.133117 
L 215.96391 78.688456 
L 217.118797 81.409972 
L 218.851128 86.314965 
L 220.87218 91.983049 
L 222.027068 94.572212 
L 222.893233 95.997651 
L 223.470677 96.655529 
L 224.04812 97.059618 
L 224.625564 97.199916 
L 225.203008 97.072953 
L 225.780451 96.68187 
L 226.357895 96.036346 
L 227.22406 94.627552 
L 228.090226 92.761832 
L 229.245113 89.74547 
L 230.4 86.4 
L 230.4 86.4 
" clip-path="url(#p3595d2a071)" style="fill: none; stroke: #ffffff; stroke-width: 2"/>
   </g>
   <g id="line2d_4">
    <path d="M 230.4 86.4 
L 307.2 155.52 
L 307.2 155.52 
" clip-path="url(#p3595d2a071)" style="fill: none; stroke: #ffffff; stroke-width: 2"/>
   </g>
   <g id="line2d_5">
    <path d="M 307.2 17.28 
L 230.4 86.4 
L 230.4 86.4 
" clip-path="url(#p3595d2a071)" style="fill: none; stroke: #ffffff; stroke-width: 2"/>
   </g>
   <g id="patch_2">
    <path d="M 69.207419 127.793323 
L 79.102588 124.41997 
L 75.354418 122.261024 
L 74.30493 117.673263 
z
" clip-path="url(#p3595d2a071)" style="fill: #ffffff; stroke: #ffffff; stroke-linejoin: miter"/>
   </g>
   <g id="patch_3">
    <path d="M 84.392581 58.673323 
L 79.29507 48.553263 
L 78.245582 53.141024 
L 74.497412 55.29997 
z
" clip-path="url(#p3595d2a071)" style="fill: #ffffff; stroke: #ffffff; stroke-linejoin: miter"/>
   </g>
   <g id="patch_4">
    <path d="M 276.392581 127.793323 
L 271.29507 117.673263 
L 270.245582 122.261024 
L 266.497412 124.41997 
z
" clip-path="url(#p3595d2a071)" style="fill: #ffffff; stroke: #ffffff; stroke-linejoin: miter"/>
   </g>
   <g id="patch_5">
    <path d="M 261.207419 58.673323 
L 271.102588 55.29997 
L 267.354418 53.141024 
L 266.30493 48.553263 
z
" clip-path="url(#p3595d2a071)" style="fill: #ffffff; stroke: #ffffff; stroke-linejoin: miter"/>
   </g>
   <g id="line2d_6"/>
   <g id="line2d_7"/>
   <g id="line2d_8">
    <defs>
     <path id="m9a6df5496c" d="M 0 2 
C 0.530406 2 1.03916 1.789267 1.414214 1.414214 
C 1.789267 1.03916 2 0.530406 2 0 
C 2 -0.530406 1.789267 -1.03916 1.414214 -1.414214 
C 1.03916 -1.789267 0.530406 -2 0 -2 
C -0.530406 -2 -1.03916 -1.789267 -1.414214 -1.414214 
C -1.789267 -1.03916 -2 -0.530406 -2 0 
C -2 0.530406 -1.789267 1.03916 -1.414214 1.414214 
C -1.03916 1.789267 -0.530406 2 0 2 
z
" style="stroke: #ffffff"/>
    </defs>
    <g clip-path="url(#p3595d2a071)">
     <use xlink:href="#m9a6df5496c" x="115.2" y="86.4" style="fill: #ffffff; stroke: #ffffff"/>
    </g>
   </g>
   <g id="line2d_9">
    <g clip-path="url(#p3595d2a071)">
     <use xlink:href="#m9a6df5496c" x="230.4" y="86.4" style="fill: #ffffff; stroke: #ffffff"/>
    </g>
   </g>
   <g id="line2d_10"/>
   <g id="line2d_11"/>
  </g>
 </g>
 <defs>
  <clipPath id="p3595d2a071">
   <rect x="0" y="0" width="345.6" height="172.8"/>
  </clipPath>
 </defs>
</svg>
