<?xml version="1.0" encoding="utf-8" standalone="no"?>
<!DOCTYPE svg PUBLIC "-//W3C//DTD SVG 1.1//EN"
  "http://www.w3.org/Graphics/SVG/1.1/DTD/svg11.dtd">
<svg xmlns:xlink="http://www.w3.org/1999/xlink" width="345.6pt" height="172.8pt" viewBox="0 0 345.6 172.8" xmlns="http://www.w3.org/2000/svg" version="1.1">
 <metadata>
  <rdf:RDF xmlns:dc="http://purl.org/dc/elements/1.1/" xmlns:cc="http://creativecommons.org/ns#" xmlns:rdf="http://www.w3.org/1999/02/22-rdf-syntax-ns#">
   <cc:Work>
    <dc:type rdf:resource="http://purl.org/dc/dcmitype/StillImage"/>
    <dc:date>2026-03-15T15:34:46.008443</dc:date>
    <dc:format>image/svg+xml</dc:format>
    <dc:creator>
     <cc:Agent>
      <dc:title>Matplotlib v3.10.8, https://matplotlib.org/</dc:title>
     </cc:Agent>
    </dc:creator>
   </cc:Work>
  </rdf:RDF>
 </metadata>
 <defs>
  <style type="text/css">*{stroke-linejoin: round; stroke-linecap: butt}</style>
 </defs>
 <g id="figure_1">
  <g id="patch_1">
   <path d="M 0 172.8 
L 345.6 172.8 
L 345.6 0 
L 0 0 
L 0 172.8 
z
" style="fill: none"/>
  </g>
  <g id="axes_1">
   <g id="patch_2">
    <path d="M 230.4 108 
C 235.4919 108 240.375934 105.724088 243.97645 101.673506 
C 247.576967 97.622925 249.6 92.128387 249.6 86.4 
C 249.6 80.671613 247.576967 75.177075 243.97645 71.126494 
C 240.375934 67.075912 235.4919 64.8 230.4 64.8 
C 225.3081 64.8 220.424066 67.075912 216.82355 71.126494 
C 213.223033 75.177075 211.2 80.671613 211.2 86.4 
C 211.2 92.128387 213.223033 97.622925 216.82355 101.673506 
C 220.424066 105.724088 225.3081 108 230.4 108 
z
" clip-path="url(#p6d6de7e8da)" style="fill: #ffffff; opacity: 0.5; stroke: #ffffff; stroke-width: 1.5; stroke-linejoin: miter"/>
   </g>
   <g id="matplotlib.axis_1"/>
   <g id="matplotlib.axis_2"/>
   <g id="text_1">
    <!-- $Y$ -->
    <g style="fill: #ffffff" transform="translate(235.14 160.2) scale(0.36 -0.36)">
     <defs>
      <path id="Cmmi10-59" d="M 569 84 
Q 572 100 581 137 
Q 591 175 606 200 
Q 622 225 653 225 
Q 1044 225 1197 269 
Q 1228 278 1254 312 
Q 1281 347 1297 384 
Q 1313 422 1325 459 
L 1644 1747 
L 819 4019 
Q 763 4103 616 4125 
Q 469 4147 275 4147 
Q 213 4147 213 4231 
Q 231 4309 247 4340 
Q 263 4372 319 4372 
L 1931 4372 
Q 1991 4372 1991 4288 
Q 1966 4147 1906 4147 
Q 1453 4147 1453 4006 
L 2175 2034 
L 3688 3781 
Q 3700 3813 3731 3858 
Q 3763 3903 3778 3934 
Q 3794 3966 3794 4006 
Q 3794 4147 3531 4147 
Q 3469 4147 3469 4231 
Q 3481 4281 3489 4309 
Q 3497 4338 3517 4355 
Q 3538 4372 3578 4372 
L 4819 4372 
Q 4847 4372 4865 4344 
Q 4884 4316 4884 4288 
Q 4872 4241 4865 4220 
Q 4859 4200 4843 4173 
Q 4828 4147 4794 4147 
Q 4538 4147 4309 4036 
Q 4081 3925 3909 3725 
Q 3903 3719 3895 3714 
Q 3888 3709 3878 3700 
L 2188 1747 
L 1856 422 
Q 1856 406 1850 375 
Q 1844 344 1844 325 
Q 1844 300 1851 283 
Q 1859 266 1873 261 
Q 1888 256 1919 250 
Q 2041 225 2381 225 
Q 2444 225 2444 141 
Q 2422 50 2409 25 
Q 2397 0 2338 0 
L 634 0 
Q 569 0 569 84 
z
" transform="scale(0.015625)"/>
     </defs>
     <use xlink:href="#Cmmi10-59" transform="translate(0 0.6875)"/>
    </g>
   </g>
   <g id="text_2">
    <!-- $X$ -->
    <g style="fill: #ffffff" transform="translate(307.62 30.6) scale(0.36 -0.36)">
     <defs>
      <path id="Cmmi10-58" d="M 231 0 
Q 166 0 166 84 
Q 169 100 180 140 
Q 191 181 208 203 
Q 225 225 256 225 
Q 838 225 1253 659 
Q 1259 666 1267 669 
Q 1275 672 1275 672 
L 2675 2181 
L 1913 4019 
Q 1847 4103 1700 4125 
Q 1553 4147 1356 4147 
Q 1294 4147 1294 4231 
Q 1316 4313 1328 4342 
Q 1341 4372 1403 4372 
L 3003 4372 
Q 3066 4372 3066 4288 
Q 3063 4272 3052 4231 
Q 3041 4191 3023 4169 
Q 3006 4147 2975 4147 
Q 2856 4147 2729 4108 
Q 2603 4069 2553 3981 
L 3103 2656 
L 4153 3781 
Q 4163 3803 4197 3858 
Q 4231 3913 4231 3963 
Q 4231 4056 4150 4101 
Q 4069 4147 3956 4147 
Q 3891 4147 3891 4231 
Q 3913 4313 3925 4342 
Q 3938 4372 4000 4372 
L 5388 4372 
Q 5422 4372 5437 4347 
Q 5453 4322 5453 4288 
Q 5450 4272 5440 4234 
Q 5431 4197 5415 4172 
Q 5400 4147 5369 4147 
Q 5072 4147 4823 4039 
Q 4575 3931 4366 3713 
Q 4363 3709 4358 3707 
Q 4353 3706 4347 3700 
L 3188 2450 
L 4063 353 
Q 4166 225 4622 225 
Q 4684 225 4684 141 
Q 4663 56 4648 28 
Q 4634 0 4575 0 
L 2975 0 
Q 2913 0 2913 84 
Q 2916 100 2925 139 
Q 2934 178 2951 201 
Q 2969 225 2994 225 
Q 3119 225 3247 264 
Q 3375 303 3425 391 
L 2759 1984 
L 1466 588 
Q 1456 566 1422 512 
Q 1388 459 1388 409 
Q 1388 316 1475 270 
Q 1563 225 1663 225 
Q 1728 225 1728 141 
Q 1706 50 1693 25 
Q 1681 0 1619 0 
L 231 0 
z
" transform="scale(0.015625)"/>
     </defs>
     <use xlink:href="#Cmmi10-58" transform="translate(0 0.6875)"/>
    </g>
   </g>
   <g id="text_3">
    <!-- $q$ -->
    <g style="fill: #ffffff" transform="translate(166.5 41.389375) scale(0.28 -0.28)">
     <defs>
      <path id="Cmmi10-71" d="M 941 -1159 
Q 963 -1019 1025 -1019 
Q 1256 -1019 1389 -981 
Q 1522 -944 1563 -800 
L 1838 288 
Q 1472 -72 1106 -72 
Q 703 -72 473 233 
Q 244 538 244 953 
Q 244 1363 455 1803 
Q 666 2244 1027 2536 
Q 1388 2828 1806 2828 
Q 2000 2828 2156 2712 
Q 2313 2597 2394 2406 
Q 2431 2481 2601 2654 
Q 2772 2828 2841 2828 
Q 2913 2828 2913 2747 
L 2016 -825 
Q 2000 -919 1997 -934 
Q 1997 -1019 2419 -1019 
Q 2450 -1019 2467 -1044 
Q 2484 -1069 2484 -1100 
Q 2463 -1184 2448 -1212 
Q 2434 -1241 2375 -1241 
L 1006 -1241 
Q 941 -1241 941 -1159 
z
M 1119 97 
Q 1344 97 1558 267 
Q 1772 438 1931 672 
L 2291 2113 
Q 2253 2338 2126 2500 
Q 2000 2663 1791 2663 
Q 1575 2663 1389 2486 
Q 1203 2309 1075 2069 
Q 950 1813 836 1366 
Q 722 919 722 672 
Q 722 450 817 273 
Q 913 97 1119 97 
z
" transform="scale(0.015625)"/>
     </defs>
     <use xlink:href="#Cmmi10-71" transform="translate(0 0.8125)"/>
    </g>
   </g>
   <g id="text_4">
    <!-- $\longrightarrow$ -->
    <g style="fill: #ffffff" transform="translate(145.78 63.16) scale(0.28 -0.28)">
     <defs>
      <path id="STIXGeneral-Regular-27f6" d="M 9722 1651 
L 9722 1587 
Q 8986 1274 8198 365 
L 8070 486 
Q 8250 742 8595 1101 
Q 8685 1190 8685 1280 
Q 8685 1408 8518 1408 
L 352 1408 
L 352 1830 
L 8525 1830 
Q 8576 1830 8633 1878 
Q 8691 1926 8691 1971 
Q 8691 2042 8602 2131 
Q 8288 2432 8077 2752 
L 8205 2874 
Q 9005 1952 9722 1651 
z
" transform="scale(0.015625)"/>
     </defs>
     <use xlink:href="#STIXGeneral-Regular-27f6" transform="translate(17.558594 0.09375)"/>
    </g>
   </g>
   <g id="text_5">
    <!-- $k$ -->
    <g style="fill: #ffffff" transform="translate(142.34 158.2) scale(0.28 -0.28)">
     <defs>
      <path id="Cmmi10-6b" d="M 341 116 
Q 341 153 347 172 
L 1275 3872 
Q 1300 3981 1306 4044 
Q 1306 4147 891 4147 
Q 825 4147 825 4231 
Q 828 4247 839 4287 
Q 850 4328 867 4350 
Q 884 4372 916 4372 
L 1778 4441 
L 1797 4441 
Q 1797 4434 1819 4423 
Q 1841 4413 1844 4409 
Q 1856 4378 1856 4359 
L 1184 1684 
Q 1416 1781 1767 2145 
Q 2119 2509 2317 2668 
Q 2516 2828 2816 2828 
Q 2994 2828 3119 2706 
Q 3244 2584 3244 2406 
Q 3244 2294 3197 2198 
Q 3150 2103 3065 2043 
Q 2981 1984 2869 1984 
Q 2766 1984 2695 2048 
Q 2625 2113 2625 2216 
Q 2625 2369 2733 2473 
Q 2841 2578 2994 2578 
Q 2931 2663 2803 2663 
Q 2613 2663 2436 2553 
Q 2259 2444 2054 2239 
Q 1850 2034 1681 1864 
Q 1513 1694 1369 1606 
Q 1747 1563 2025 1408 
Q 2303 1253 2303 934 
Q 2303 869 2278 769 
Q 2222 528 2222 384 
Q 2222 97 2419 97 
Q 2650 97 2770 350 
Q 2891 603 2969 941 
Q 2981 978 3022 978 
L 3097 978 
Q 3122 978 3139 962 
Q 3156 947 3156 922 
Q 3156 916 3150 903 
Q 2909 -72 2406 -72 
Q 2225 -72 2086 12 
Q 1947 97 1872 242 
Q 1797 388 1797 569 
Q 1797 672 1825 781 
Q 1844 856 1844 922 
Q 1844 1169 1625 1297 
Q 1406 1425 1125 1453 
L 800 147 
Q 775 50 703 -11 
Q 631 -72 538 -72 
Q 456 -72 398 -17 
Q 341 38 341 116 
z
" transform="scale(0.015625)"/>
     </defs>
     <use xlink:href="#Cmmi10-6b" transform="translate(0 0.609375)"/>
    </g>
   </g>
   <g id="text_6">
    <!-- $p$ -->
    <g style="fill: #ffffff" transform="translate(77.34 32.749375) scale(0.28 -0.28)">
     <defs>
      <path id="Cmmi10-70" d="M -159 -1241 
Q -219 -1241 -219 -1159 
Q -197 -1019 -134 -1019 
Q 66 -1019 145 -983 
Q 225 -947 269 -800 
L 991 2081 
Q 1038 2200 1038 2388 
Q 1038 2663 850 2663 
Q 650 2663 553 2423 
Q 456 2184 366 1819 
Q 366 1778 313 1778 
L 238 1778 
Q 222 1778 203 1801 
Q 184 1825 184 1844 
Q 253 2122 317 2315 
Q 381 2509 517 2668 
Q 653 2828 856 2828 
Q 1075 2828 1240 2704 
Q 1406 2581 1453 2369 
Q 1628 2572 1840 2700 
Q 2053 2828 2278 2828 
Q 2547 2828 2745 2684 
Q 2944 2541 3044 2308 
Q 3144 2075 3144 1806 
Q 3144 1394 2933 953 
Q 2722 513 2361 220 
Q 2000 -72 1588 -72 
Q 1400 -72 1248 34 
Q 1097 141 1013 313 
L 722 -825 
Q 706 -919 703 -934 
Q 703 -1019 1125 -1019 
Q 1191 -1019 1191 -1100 
Q 1169 -1184 1155 -1212 
Q 1141 -1241 1081 -1241 
L -159 -1241 
z
M 1594 97 
Q 1816 97 2006 280 
Q 2197 463 2316 691 
Q 2403 863 2479 1111 
Q 2556 1359 2612 1640 
Q 2669 1922 2669 2088 
Q 2669 2234 2630 2362 
Q 2591 2491 2502 2577 
Q 2413 2663 2266 2663 
Q 2031 2663 1823 2495 
Q 1616 2328 1447 2081 
L 1447 2059 
L 1094 647 
Q 1138 419 1263 258 
Q 1388 97 1594 97 
z
" transform="scale(0.015625)"/>
     </defs>
     <use xlink:href="#Cmmi10-70" transform="translate(0 0.8125)"/>
    </g>
   </g>
   <g id="line2d_1">
    <path d="M 307.2 17.28 
L 243.97645 71.126494 
L 243.97645 71.126494 
" clip-path="url(#p6d6de7e8da)" style="fill: none; stroke: #ffffff; stroke-width: 3.6"/>
   </g>
   <g id="line2d_2">
    <path d="M 241.988274 103.622126 
L 286.023716 169.066205 
L 286.023716 169.066205 
" clip-path="url(#p6d6de7e8da)" style="fill: none; stroke: #ffffff; stroke-opacity: 0.5; stroke-width: 1.5"/>
   </g>
   <g id="line2d_3">
    <path d="M 243.432974 102.261366 
L 292.958277 162.534558 
L 292.958277 162.534558 
" clip-path="url(#p6d6de7e8da)" style="fill: none; stroke: #ffffff; stroke-opacity: 0.5; stroke-width: 1.5"/>
   </g>
   <g id="line2d_4">
    <path d="M 244.75216 100.747853 
L 299.290367 155.269693 
L 299.290367 155.269693 
" clip-path="url(#p6d6de7e8da)" style="fill: none; stroke: #ffffff; stroke-opacity: 0.5; stroke-width: 1.5"/>
   </g>
   <g id="line2d_5">
    <path d="M 96 86.4 
L 134.4 155.52 
L 134.4 155.52 
" clip-path="url(#p6d6de7e8da)" style="fill: none; stroke: #ffffff; stroke-width: 2"/>
   </g>
   <g id="line2d_6">
    <path d="M 38.4 17.28 
L 96 86.4 
L 96 86.4 
" clip-path="url(#p6d6de7e8da)" style="fill: none; stroke: #ffffff; stroke-width: 2"/>
   </g>
   <g id="line2d_7">
    <path d="M 96 86.4 
L 98.021053 80.744333 
L 99.17594 78.172448 
L 100.042105 76.763654 
L 100.619549 76.11813 
L 101.196992 75.727047 
L 101.774436 75.600084 
L 102.35188 75.740382 
L 102.929323 76.144471 
L 103.506767 76.802349 
L 104.372932 78.227788 
L 105.239098 80.107081 
L 106.393985 83.135486 
L 110.147368 93.492922 
L 111.013534 95.201902 
L 111.879699 96.422058 
L 112.457143 96.929221 
L 113.034586 97.175822 
L 113.61203 97.155757 
L 114.189474 96.869523 
L 114.766917 96.324203 
L 115.633083 95.051633 
L 116.499248 93.298583 
L 117.654135 90.385231 
L 121.984962 78.629161 
L 122.851128 77.089733 
L 123.717293 76.067361 
L 124.294737 75.702361 
L 124.87218 75.602092 
L 125.449624 75.769035 
L 126.027068 76.199058 
L 126.604511 76.881521 
L 127.470677 78.339986 
L 128.336842 80.246073 
L 129.780451 84.121294 
L 132.667669 92.2714 
L 133.822556 94.7905 
L 134.688722 96.148836 
L 135.266165 96.757063 
L 135.843609 97.108987 
L 136.421053 97.195899 
L 136.998496 97.01565 
L 137.57594 96.572698 
L 138.153383 95.878007 
L 139.019549 94.403164 
L 139.885714 92.483857 
L 141.329323 88.595515 
L 144.216541 80.457411 
L 145.371429 77.95622 
L 146.237594 76.614873 
L 146.815038 76.019155 
L 147.392481 75.680329 
L 147.969925 75.606778 
L 148.547368 75.800324 
L 149.124812 76.256176 
L 149.702256 76.963053 
L 150.568421 78.454182 
L 151.434586 80.386591 
L 152.878195 84.287812 
L 155.765414 92.413409 
L 156.920301 94.896537 
L 157.786466 96.220812 
L 158.36391 96.803983 
L 158.941353 97.129691 
L 159.518797 97.189875 
L 160.096241 96.983046 
L 160.673684 96.514321 
L 161.251128 95.795302 
L 162.117293 94.287979 
L 163.27218 91.614858 
L 164.715789 87.588089 
L 167.025564 81.036863 
L 168.180451 78.396836 
L 169.046617 76.921993 
L 169.62406 76.227302 
L 170.201504 75.78435 
L 170.778947 75.604101 
L 171.356391 75.691013 
L 171.933835 76.042937 
L 172.511278 76.651164 
L 173.377444 78.0095 
L 174.243609 79.833813 
L 175.398496 82.812927 
L 179.440602 93.869621 
L 180.306767 95.487627 
L 181.172932 96.600942 
L 181.750376 97.030965 
L 182.32782 97.197908 
L 182.905263 97.097639 
L 183.482707 96.732639 
L 184.06015 96.111941 
L 184.926316 94.7367 
L 185.792481 92.89847 
L 186.947368 89.906754 
L 190.700752 79.501417 
L 191.566917 77.748367 
L 192.433083 76.475797 
L 193.010526 75.930477 
L 193.58797 75.644243 
L 194.165414 75.624178 
L 194.742857 75.870779 
L 195.320301 76.377942 
L 195.897744 77.133117 
L 196.76391 78.688456 
L 197.918797 81.409972 
L 199.651128 86.314965 
L 201.67218 91.983049 
L 202.827068 94.572212 
L 203.693233 95.997651 
L 204.270677 96.655529 
L 204.84812 97.059618 
L 205.425564 97.199916 
L 206.003008 97.072953 
L 206.580451 96.68187 
L 207.157895 96.036346 
L 208.02406 94.627552 
L 208.890226 92.761832 
L 210.045113 89.74547 
L 211.2 86.4 
L 211.2 86.4 
" clip-path="url(#p6d6de7e8da)" style="fill: none; stroke: #ffffff; stroke-width: 2"/>
   </g>
   <g id="line2d_8">
    <path d="M 245.933126 99.096161 
L 304.959006 147.341575 
L 304.959006 147.341575 
" clip-path="url(#p6d6de7e8da)" style="fill: none; stroke: #ffffff; stroke-width: 2"/>
   </g>
   <g id="line2d_9">
    <path d="M 240.431972 104.817028 
L 278.007812 173.8 
L 278.007812 173.8 
" clip-path="url(#p6d6de7e8da)" style="fill: none; stroke: #ffffff; stroke-width: 2"/>
   </g>
   <g id="line2d_10">
    <path d="M 307.2 17.28 
L 243.97645 71.126494 
L 243.97645 71.126494 
" clip-path="url(#p6d6de7e8da)" style="fill: none; stroke: #ffffff"/>
   </g>
   <g id="patch_3">
    <path d="M 120.33611 130.204998 
L 118.504434 118.757021 
L 116.163958 122.695125 
L 111.991807 123.336212 
z
" clip-path="url(#p6d6de7e8da)" style="fill: #ffffff; stroke: #ffffff; stroke-linejoin: miter"/>
   </g>
   <g id="patch_4">
    <path d="M 73.838015 59.805618 
L 70.073603 48.971991 
L 68.454031 53.344837 
L 64.470758 54.881242 
z
" clip-path="url(#p6d6de7e8da)" style="fill: #ffffff; stroke: #ffffff; stroke-linejoin: miter"/>
   </g>
   <g id="patch_5">
    <path d="M 267.854986 50.789524 
L 277.826793 47.715029 
L 274.131275 45.444108 
L 273.191202 40.826418 
z
" clip-path="url(#p6d6de7e8da)" style="fill: #ffffff; stroke: #ffffff; stroke-linejoin: miter"/>
   </g>
   <g id="line2d_11"/>
   <g id="line2d_12"/>
   <g id="line2d_13">
    <defs>
     <path id="mbad8a73616" d="M 0 2 
C 0.530406 2 1.03916 1.789267 1.414214 1.414214 
C 1.789267 1.03916 2 0.530406 2 0 
C 2 -0.530406 1.789267 -1.03916 1.414214 -1.414214 
C 1.03916 -1.789267 0.530406 -2 0 -2 
C -0.530406 -2 -1.03916 -1.789267 -1.414214 -1.414214 
C -1.789267 -1.03916 -2 -0.530406 -2 0 
C -2 0.530406 -1.789267 1.03916 -1.414214 1.414214 
C -1.03916 1.789267 -0.530406 2 0 2 
z
" style="stroke: #ffffff"/>
    </defs>
    <g clip-path="url(#p6d6de7e8da)">
     <use xlink:href="#mbad8a73616" x="96" y="86.4" style="fill: #ffffff; stroke: #ffffff"/>
    </g>
   </g>
   <g id="line2d_14"/>
   <g id="line2d_15"/>
   <g id="line2d_16"/>
   <g id="line2d_17"/>
   <g id="line2d_18"/>
   <g id="line2d_19"/>
   <g id="line2d_20"/>
   <g id="line2d_21"/>
   <g id="line2d_22"/>
   <g id="line2d_23"/>
   <g id="line2d_24"/>
   <g id="line2d_25"/>
   <g id="line2d_26"/>
  </g>
 </g>
 <defs>
  <clipPath id="p6d6de7e8da">
   <rect x="0" y="0" width="345.6" height="172.8"/>
  </clipPath>
 </defs>
</svg>
