<?xml version="1.0" encoding="utf-8" standalone="no"?>
<!DOCTYPE svg PUBLIC "-//W3C//DTD SVG 1.1//EN"
  "http://www.w3.org/Graphics/SVG/1.1/DTD/svg11.dtd">
<svg xmlns:xlink="http://www.w3.org/1999/xlink" width="345.6pt" height="172.8pt" viewBox="0 0 345.6 172.8" xmlns="http://www.w3.org/2000/svg" version="1.1">
 <metadata>
  <rdf:RDF xmlns:dc="http://purl.org/dc/elements/1.1/" xmlns:cc="http://creativecommons.org/ns#" xmlns:rdf="http://www.w3.org/1999/02/22-rdf-syntax-ns#">
   <cc:Work>
    <dc:type rdf:resource="http://purl.org/dc/dcmitype/StillImage"/>
    <dc:date>2026-03-15T15:55:41.404786</dc:date>
    <dc:format>image/svg+xml</dc:format>
    <dc:creator>
     <cc:Agent>
      <dc:title>Matplotlib v3.10.8, https://matplotlib.org/</dc:title>
     </cc:Agent>
    </dc:creator>
   </cc:Work>
  </rdf:RDF>
 </metadata>
 <defs>
  <style type="text/css">*{stroke-linejoin: round; stroke-linecap: butt}</style>
 </defs>
 <g id="figure_1">
  <g id="patch_1">
   <path d="M 0 172.8 
L 345.6 172.8 
L 345.6 0 
L 0 0 
L 0 172.8 
z
" style="fill: none"/>
  </g>
  <g id="axes_1">
   <g id="patch_2">
    <path d="M 249.6 108 
C 254.6919 108 259.575934 105.724088 263.17645 101.673506 
C 266.776967 97.622925 268.8 92.128387 268.8 86.4 
C 268.8 80.671613 266.776967 75.177075 263.17645 71.126494 
C 259.575934 67.075912 254.6919 64.8 249.6 64.8 
C 244.5081 64.8 239.624066 67.075912 236.02355 71.126494 
C 232.423033 75.177075 230.4 80.671613 230.4 86.4 
C 230.4 92.128387 232.423033 97.622925 236.02355 101.673506 
C 239.624066 105.724088 244.5081 108 249.6 108 
z
" clip-path="url(#pd12eed0186)" style="opacity: 0.5; stroke: #000000; stroke-width: 1.5; stroke-linejoin: miter"/>
   </g>
   <g id="matplotlib.axis_1"/>
   <g id="matplotlib.axis_2"/>
   <g id="text_1">
    <!-- $X$ -->
    <g transform="translate(310.94 28.6) scale(0.28 -0.28)">
     <defs>
      <path id="Cmmi10-58" d="M 231 0 
Q 166 0 166 84 
Q 169 100 180 140 
Q 191 181 208 203 
Q 225 225 256 225 
Q 838 225 1253 659 
Q 1259 666 1267 669 
Q 1275 672 1275 672 
L 2675 2181 
L 1913 4019 
Q 1847 4103 1700 4125 
Q 1553 4147 1356 4147 
Q 1294 4147 1294 4231 
Q 1316 4313 1328 4342 
Q 1341 4372 1403 4372 
L 3003 4372 
Q 3066 4372 3066 4288 
Q 3063 4272 3052 4231 
Q 3041 4191 3023 4169 
Q 3006 4147 2975 4147 
Q 2856 4147 2729 4108 
Q 2603 4069 2553 3981 
L 3103 2656 
L 4153 3781 
Q 4163 3803 4197 3858 
Q 4231 3913 4231 3963 
Q 4231 4056 4150 4101 
Q 4069 4147 3956 4147 
Q 3891 4147 3891 4231 
Q 3913 4313 3925 4342 
Q 3938 4372 4000 4372 
L 5388 4372 
Q 5422 4372 5437 4347 
Q 5453 4322 5453 4288 
Q 5450 4272 5440 4234 
Q 5431 4197 5415 4172 
Q 5400 4147 5369 4147 
Q 5072 4147 4823 4039 
Q 4575 3931 4366 3713 
Q 4363 3709 4358 3707 
Q 4353 3706 4347 3700 
L 3188 2450 
L 4063 353 
Q 4166 225 4622 225 
Q 4684 225 4684 141 
Q 4663 56 4648 28 
Q 4634 0 4575 0 
L 2975 0 
Q 2913 0 2913 84 
Q 2916 100 2925 139 
Q 2934 178 2951 201 
Q 2969 225 2994 225 
Q 3119 225 3247 264 
Q 3375 303 3425 391 
L 2759 1984 
L 1466 588 
Q 1456 566 1422 512 
Q 1388 459 1388 409 
Q 1388 316 1475 270 
Q 1563 225 1663 225 
Q 1728 225 1728 141 
Q 1706 50 1693 25 
Q 1681 0 1619 0 
L 231 0 
z
" transform="scale(0.015625)"/>
     </defs>
     <use xlink:href="#Cmmi10-58" transform="translate(0 0.6875)"/>
    </g>
   </g>
   <g id="text_2">
    <!-- $Y$ -->
    <g transform="translate(252.86 158.2) scale(0.28 -0.28)">
     <defs>
      <path id="Cmmi10-59" d="M 569 84 
Q 572 100 581 137 
Q 591 175 606 200 
Q 622 225 653 225 
Q 1044 225 1197 269 
Q 1228 278 1254 312 
Q 1281 347 1297 384 
Q 1313 422 1325 459 
L 1644 1747 
L 819 4019 
Q 763 4103 616 4125 
Q 469 4147 275 4147 
Q 213 4147 213 4231 
Q 231 4309 247 4340 
Q 263 4372 319 4372 
L 1931 4372 
Q 1991 4372 1991 4288 
Q 1966 4147 1906 4147 
Q 1453 4147 1453 4006 
L 2175 2034 
L 3688 3781 
Q 3700 3813 3731 3858 
Q 3763 3903 3778 3934 
Q 3794 3966 3794 4006 
Q 3794 4147 3531 4147 
Q 3469 4147 3469 4231 
Q 3481 4281 3489 4309 
Q 3497 4338 3517 4355 
Q 3538 4372 3578 4372 
L 4819 4372 
Q 4847 4372 4865 4344 
Q 4884 4316 4884 4288 
Q 4872 4241 4865 4220 
Q 4859 4200 4843 4173 
Q 4828 4147 4794 4147 
Q 4538 4147 4309 4036 
Q 4081 3925 3909 3725 
Q 3903 3719 3895 3714 
Q 3888 3709 3878 3700 
L 2188 1747 
L 1856 422 
Q 1856 406 1850 375 
Q 1844 344 1844 325 
Q 1844 300 1851 283 
Q 1859 266 1873 261 
Q 1888 256 1919 250 
Q 2041 225 2381 225 
Q 2444 225 2444 141 
Q 2422 50 2409 25 
Q 2397 0 2338 0 
L 634 0 
Q 569 0 569 84 
z
" transform="scale(0.015625)"/>
     </defs>
     <use xlink:href="#Cmmi10-59" transform="translate(0 0.6875)"/>
    </g>
   </g>
   <g id="text_3">
    <!-- $3$ -->
    <g transform="translate(109.2 23.28) scale(0.24 -0.24)">
     <defs>
      <path id="Cmr10-33" d="M 609 494 
Q 759 275 1012 169 
Q 1266 63 1556 63 
Q 1928 63 2084 380 
Q 2241 697 2241 1100 
Q 2241 1281 2208 1462 
Q 2175 1644 2097 1800 
Q 2019 1956 1883 2050 
Q 1747 2144 1550 2144 
L 1125 2144 
Q 1069 2144 1069 2203 
L 1069 2259 
Q 1069 2309 1125 2309 
L 1478 2338 
Q 1703 2338 1851 2506 
Q 2000 2675 2069 2917 
Q 2138 3159 2138 3378 
Q 2138 3684 1994 3881 
Q 1850 4078 1556 4078 
Q 1313 4078 1091 3986 
Q 869 3894 738 3706 
Q 750 3709 759 3711 
Q 769 3713 781 3713 
Q 925 3713 1022 3613 
Q 1119 3513 1119 3372 
Q 1119 3234 1022 3134 
Q 925 3034 781 3034 
Q 641 3034 541 3134 
Q 441 3234 441 3372 
Q 441 3647 606 3850 
Q 772 4053 1033 4158 
Q 1294 4263 1556 4263 
Q 1750 4263 1965 4205 
Q 2181 4147 2356 4039 
Q 2531 3931 2642 3762 
Q 2753 3594 2753 3378 
Q 2753 3109 2633 2881 
Q 2513 2653 2303 2487 
Q 2094 2322 1844 2241 
Q 2122 2188 2372 2031 
Q 2622 1875 2773 1631 
Q 2925 1388 2925 1106 
Q 2925 753 2731 467 
Q 2538 181 2222 20 
Q 1906 -141 1556 -141 
Q 1256 -141 954 -26 
Q 653 88 461 316 
Q 269 544 269 863 
Q 269 1022 375 1128 
Q 481 1234 641 1234 
Q 744 1234 830 1186 
Q 916 1138 964 1050 
Q 1013 963 1013 863 
Q 1013 706 903 600 
Q 794 494 641 494 
L 609 494 
z
" transform="scale(0.015625)"/>
     </defs>
     <use xlink:href="#Cmr10-33" transform="translate(0 0.390625)"/>
    </g>
   </g>
   <g id="text_4">
    <!-- $2$ -->
    <g transform="translate(166.8 23.28) scale(0.24 -0.24)">
     <defs>
      <path id="Cmr10-32" d="M 319 0 
L 319 172 
Q 319 188 331 206 
L 1325 1306 
Q 1550 1550 1690 1715 
Q 1831 1881 1968 2097 
Q 2106 2313 2186 2536 
Q 2266 2759 2266 3009 
Q 2266 3272 2169 3511 
Q 2072 3750 1880 3894 
Q 1688 4038 1416 4038 
Q 1138 4038 916 3870 
Q 694 3703 603 3438 
Q 628 3444 672 3444 
Q 816 3444 917 3347 
Q 1019 3250 1019 3097 
Q 1019 2950 917 2848 
Q 816 2747 672 2747 
Q 522 2747 420 2851 
Q 319 2956 319 3097 
Q 319 3338 409 3548 
Q 500 3759 670 3923 
Q 841 4088 1055 4175 
Q 1269 4263 1509 4263 
Q 1875 4263 2190 4108 
Q 2506 3953 2690 3670 
Q 2875 3388 2875 3009 
Q 2875 2731 2753 2481 
Q 2631 2231 2440 2026 
Q 2250 1822 1953 1562 
Q 1656 1303 1563 1216 
L 838 519 
L 1453 519 
Q 1906 519 2211 526 
Q 2516 534 2534 550 
Q 2609 631 2688 1141 
L 2875 1141 
L 2694 0 
L 319 0 
z
" transform="scale(0.015625)"/>
     </defs>
     <use xlink:href="#Cmr10-32" transform="translate(0 0.390625)"/>
    </g>
   </g>
   <g id="text_5">
    <!-- $1$ -->
    <g transform="translate(224.4 23.28) scale(0.24 -0.24)">
     <defs>
      <path id="Cmr10-31" d="M 594 0 
L 594 225 
Q 1394 225 1394 428 
L 1394 3788 
Q 1063 3628 556 3628 
L 556 3853 
Q 1341 3853 1741 4263 
L 1831 4263 
Q 1853 4263 1873 4245 
Q 1894 4228 1894 4206 
L 1894 428 
Q 1894 225 2694 225 
L 2694 0 
L 594 0 
z
" transform="scale(0.015625)"/>
     </defs>
     <use xlink:href="#Cmr10-31" transform="translate(0 0.390625)"/>
    </g>
   </g>
   <g id="line2d_1">
    <path d="M 307.2 17.28 
L 263.17645 71.126494 
L 263.17645 71.126494 
" clip-path="url(#pd12eed0186)" style="fill: none; stroke: #000000; stroke-width: 3.6"/>
   </g>
   <g id="line2d_2">
    <path d="M 261.188274 103.622126 
L 305.223716 169.066205 
L 305.223716 169.066205 
" clip-path="url(#pd12eed0186)" style="fill: none; stroke: #000000; stroke-opacity: 0.5; stroke-width: 1.5"/>
   </g>
   <g id="line2d_3">
    <path d="M 262.632974 102.261366 
L 312.158277 162.534558 
L 312.158277 162.534558 
" clip-path="url(#pd12eed0186)" style="fill: none; stroke: #000000; stroke-opacity: 0.5; stroke-width: 1.5"/>
   </g>
   <g id="line2d_4">
    <path d="M 263.95216 100.747853 
L 318.490367 155.269693 
L 318.490367 155.269693 
" clip-path="url(#pd12eed0186)" style="fill: none; stroke: #000000; stroke-opacity: 0.5; stroke-width: 1.5"/>
   </g>
   <g id="line2d_5">
    <path d="M 19.2 86.4 
L 76.8 86.4 
L 76.8 86.4 
" clip-path="url(#pd12eed0186)" style="fill: none; stroke: #000000; stroke-width: 2"/>
   </g>
   <g id="line2d_6">
    <path d="M 76.8 86.4 
L 134.4 86.4 
L 134.4 86.4 
" clip-path="url(#pd12eed0186)" style="fill: none; stroke: #000000; stroke-width: 2"/>
   </g>
   <g id="line2d_7">
    <path d="M 134.4 86.4 
L 192 86.4 
L 192 86.4 
" clip-path="url(#pd12eed0186)" style="fill: none; stroke: #000000; stroke-width: 2"/>
   </g>
   <g id="line2d_8">
    <path d="M 76.8 86.4 
L 71.787415 83.11656 
L 69.951713 81.710595 
L 69.045973 80.821719 
L 68.610947 80.098329 
L 68.599469 79.713993 
L 68.814743 79.409375 
L 69.253823 79.183438 
L 70.312055 78.985022 
L 72.383459 78.952648 
L 75.76263 79.189886 
L 85.748694 80.038507 
L 87.606552 79.931058 
L 88.476129 79.666318 
L 88.781592 79.393406 
L 88.860809 79.040955 
L 88.714201 78.609113 
L 88.085508 77.817637 
L 87.006441 76.867826 
L 84.987685 75.397506 
L 80.505337 72.490627 
L 75.521111 69.217158 
L 73.717724 67.822553 
L 72.841825 66.944168 
L 72.439628 66.23232 
L 72.450797 65.855946 
L 72.688677 65.559275 
L 73.149761 65.341074 
L 74.238687 65.153448 
L 76.344102 65.133032 
L 79.750135 65.379713 
L 89.133404 66.206564 
L 91.135398 66.149788 
L 92.131569 65.929554 
L 92.526391 65.688058 
L 92.696371 65.367515 
L 92.639683 64.967285 
L 92.360112 64.488698 
L 91.544647 63.63156 
L 89.807366 62.260195 
L 86.869399 60.276565 
L 78.752982 54.951182 
L 77.153588 53.628293 
L 76.461788 52.814631 
L 76.270559 52.367101 
L 76.304397 51.998697 
L 76.564847 51.709961 
L 77.047845 51.499464 
L 78.167231 51.322547 
L 80.306183 51.313921 
L 83.738293 51.56977 
L 93.089571 52.385374 
L 95.056181 52.316159 
L 96.021001 52.084902 
L 96.393581 51.835586 
L 96.540883 51.507072 
L 96.461645 51.098913 
L 96.160207 50.612639 
L 95.314403 49.744834 
L 93.543825 48.361764 
L 90.580176 46.369105 
L 82.496833 41.055349 
L 80.933043 39.744978 
L 80.272696 38.942374 
L 80.103745 38.502676 
L 80.160268 38.142246 
L 80.443247 37.861431 
L 80.948063 37.658604 
L 82.097667 37.492311 
L 84.269673 37.495305 
L 87.727069 37.760044 
L 96.455898 38.546968 
L 98.561313 38.526552 
L 99.650239 38.338926 
L 100.111323 38.120725 
L 100.349203 37.824054 
L 100.360372 37.44768 
L 100.146937 36.992344 
L 99.423891 36.167697 
L 97.789336 34.832447 
L 94.933119 32.877556 
L 86.242243 27.160065 
L 84.714492 25.862363 
L 84.085799 25.070887 
L 83.939191 24.639045 
L 84.018408 24.286594 
L 84.323871 24.013682 
L 84.850402 23.81849 
L 86.029976 23.662733 
L 88.234545 23.677175 
L 92.470766 24.025569 
L 99.799231 24.700479 
L 102.035864 24.726194 
L 103.24515 24.580882 
L 103.985257 24.270625 
L 104.200531 23.966007 
L 104.189053 23.581671 
L 103.953488 23.118554 
L 103.19941 22.282998 
L 101.530149 20.935546 
L 98.645905 18.970802 
L 96 17.28 
L 96 17.28 
" clip-path="url(#pd12eed0186)" style="fill: none; stroke: #000000; stroke-width: 2"/>
   </g>
   <g id="line2d_9">
    <path d="M 134.4 86.4 
L 129.387415 83.11656 
L 127.551713 81.710595 
L 126.645973 80.821719 
L 126.210947 80.098329 
L 126.199469 79.713993 
L 126.414743 79.409375 
L 126.853823 79.183438 
L 127.912055 78.985022 
L 129.983459 78.952648 
L 133.36263 79.189886 
L 143.348694 80.038507 
L 145.206552 79.931058 
L 146.076129 79.666318 
L 146.381592 79.393406 
L 146.460809 79.040955 
L 146.314201 78.609113 
L 145.685508 77.817637 
L 144.606441 76.867826 
L 142.587685 75.397506 
L 138.105337 72.490627 
L 133.121111 69.217158 
L 131.317724 67.822553 
L 130.441825 66.944168 
L 130.039628 66.23232 
L 130.050797 65.855946 
L 130.288677 65.559275 
L 130.749761 65.341074 
L 131.838687 65.153448 
L 133.944102 65.133032 
L 137.350135 65.379713 
L 146.733404 66.206564 
L 148.735398 66.149788 
L 149.731569 65.929554 
L 150.126391 65.688058 
L 150.296371 65.367515 
L 150.239683 64.967285 
L 149.960112 64.488698 
L 149.144647 63.63156 
L 147.407366 62.260195 
L 144.469399 60.276565 
L 136.352982 54.951182 
L 134.753588 53.628293 
L 134.061788 52.814631 
L 133.870559 52.367101 
L 133.904397 51.998697 
L 134.164847 51.709961 
L 134.647845 51.499464 
L 135.767231 51.322547 
L 137.906183 51.313921 
L 141.338293 51.56977 
L 150.689571 52.385374 
L 152.656181 52.316159 
L 153.621001 52.084902 
L 153.993581 51.835586 
L 154.140883 51.507072 
L 154.061645 51.098913 
L 153.760207 50.612639 
L 152.914403 49.744834 
L 151.143825 48.361764 
L 148.180176 46.369105 
L 140.096833 41.055349 
L 138.533043 39.744978 
L 137.872696 38.942374 
L 137.703745 38.502676 
L 137.760268 38.142246 
L 138.043247 37.861431 
L 138.548063 37.658604 
L 139.697667 37.492311 
L 141.869673 37.495305 
L 145.327069 37.760044 
L 154.055898 38.546968 
L 156.161313 38.526552 
L 157.250239 38.338926 
L 157.711323 38.120725 
L 157.949203 37.824054 
L 157.960372 37.44768 
L 157.746937 36.992344 
L 157.023891 36.167697 
L 155.389336 34.832447 
L 152.533119 32.877556 
L 143.842243 27.160065 
L 142.314492 25.862363 
L 141.685799 25.070887 
L 141.539191 24.639045 
L 141.618408 24.286594 
L 141.923871 24.013682 
L 142.450402 23.81849 
L 143.629976 23.662733 
L 145.834545 23.677175 
L 150.070766 24.025569 
L 157.399231 24.700479 
L 159.635864 24.726194 
L 160.84515 24.580882 
L 161.585257 24.270625 
L 161.800531 23.966007 
L 161.789053 23.581671 
L 161.553488 23.118554 
L 160.79941 22.282998 
L 159.130149 20.935546 
L 156.245905 18.970802 
L 153.6 17.28 
L 153.6 17.28 
" clip-path="url(#pd12eed0186)" style="fill: none; stroke: #000000; stroke-width: 2"/>
   </g>
   <g id="line2d_10">
    <path d="M 192 86.4 
L 186.987415 83.11656 
L 185.151713 81.710595 
L 184.245973 80.821719 
L 183.810947 80.098329 
L 183.799469 79.713993 
L 184.014743 79.409375 
L 184.453823 79.183438 
L 185.512055 78.985022 
L 187.583459 78.952648 
L 190.96263 79.189886 
L 200.948694 80.038507 
L 202.806552 79.931058 
L 203.676129 79.666318 
L 203.981592 79.393406 
L 204.060809 79.040955 
L 203.914201 78.609113 
L 203.285508 77.817637 
L 202.206441 76.867826 
L 200.187685 75.397506 
L 195.705337 72.490627 
L 190.721111 69.217158 
L 188.917724 67.822553 
L 188.041825 66.944168 
L 187.639628 66.23232 
L 187.650797 65.855946 
L 187.888677 65.559275 
L 188.349761 65.341074 
L 189.438687 65.153448 
L 191.544102 65.133032 
L 194.950135 65.379713 
L 204.333404 66.206564 
L 206.335398 66.149788 
L 207.331569 65.929554 
L 207.726391 65.688058 
L 207.896371 65.367515 
L 207.839683 64.967285 
L 207.560112 64.488698 
L 206.744647 63.63156 
L 205.007366 62.260195 
L 202.069399 60.276565 
L 193.952982 54.951182 
L 192.353588 53.628293 
L 191.661788 52.814631 
L 191.470559 52.367101 
L 191.504397 51.998697 
L 191.764847 51.709961 
L 192.247845 51.499464 
L 193.367231 51.322547 
L 195.506183 51.313921 
L 198.938293 51.56977 
L 208.289571 52.385374 
L 210.256181 52.316159 
L 211.221001 52.084902 
L 211.593581 51.835586 
L 211.740883 51.507072 
L 211.661645 51.098913 
L 211.360207 50.612639 
L 210.514403 49.744834 
L 208.743825 48.361764 
L 205.780176 46.369105 
L 197.696833 41.055349 
L 196.133043 39.744978 
L 195.472696 38.942374 
L 195.303745 38.502676 
L 195.360268 38.142246 
L 195.643247 37.861431 
L 196.148063 37.658604 
L 197.297667 37.492311 
L 199.469673 37.495305 
L 202.927069 37.760044 
L 211.655898 38.546968 
L 213.761313 38.526552 
L 214.850239 38.338926 
L 215.311323 38.120725 
L 215.549203 37.824054 
L 215.560372 37.44768 
L 215.346937 36.992344 
L 214.623891 36.167697 
L 212.989336 34.832447 
L 210.133119 32.877556 
L 201.442243 27.160065 
L 199.914492 25.862363 
L 199.285799 25.070887 
L 199.139191 24.639045 
L 199.218408 24.286594 
L 199.523871 24.013682 
L 200.050402 23.81849 
L 201.229976 23.662733 
L 203.434545 23.677175 
L 207.670766 24.025569 
L 214.999231 24.700479 
L 217.235864 24.726194 
L 218.44515 24.580882 
L 219.185257 24.270625 
L 219.400531 23.966007 
L 219.389053 23.581671 
L 219.153488 23.118554 
L 218.39941 22.282998 
L 216.730149 20.935546 
L 213.845905 18.970802 
L 211.2 17.28 
L 211.2 17.28 
" clip-path="url(#pd12eed0186)" style="fill: none; stroke: #000000; stroke-width: 2"/>
   </g>
   <g id="line2d_11">
    <path d="M 192 86.4 
L 230.4 86.4 
L 230.4 86.4 
" clip-path="url(#pd12eed0186)" style="fill: none; stroke: #000000; stroke-width: 2"/>
   </g>
   <g id="line2d_12">
    <path d="M 265.133126 99.096161 
L 324.159006 147.341575 
L 324.159006 147.341575 
" clip-path="url(#pd12eed0186)" style="fill: none; stroke: #000000; stroke-width: 2"/>
   </g>
   <g id="line2d_13">
    <path d="M 259.631972 104.817028 
L 297.207812 173.8 
L 297.207812 173.8 
" clip-path="url(#pd12eed0186)" style="fill: none; stroke: #000000; stroke-width: 2"/>
   </g>
   <g id="line2d_14">
    <path d="M 307.2 17.28 
L 263.17645 71.126494 
L 263.17645 71.126494 
" clip-path="url(#pd12eed0186)" style="fill: none; stroke: #ffffff"/>
   </g>
   <g id="patch_3">
    <path d="M 57.67218 86.4 
L 48.07218 82.08 
L 49.80018 86.4 
L 48.07218 90.72 
z
" clip-path="url(#pd12eed0186)" style="stroke: #000000; stroke-linejoin: miter"/>
   </g>
   <g id="patch_4">
    <path d="M 115.27218 86.4 
L 105.67218 82.08 
L 107.40018 86.4 
L 105.67218 90.72 
z
" clip-path="url(#pd12eed0186)" style="stroke: #000000; stroke-linejoin: miter"/>
   </g>
   <g id="patch_5">
    <path d="M 172.87218 86.4 
L 163.27218 82.08 
L 165.00018 86.4 
L 163.27218 90.72 
z
" clip-path="url(#pd12eed0186)" style="stroke: #000000; stroke-linejoin: miter"/>
   </g>
   <g id="patch_6">
    <path d="M 220.84812 86.4 
L 211.24812 82.08 
L 212.97612 86.4 
L 211.24812 90.72 
z
" clip-path="url(#pd12eed0186)" style="stroke: #000000; stroke-linejoin: miter"/>
   </g>
   <g id="patch_7">
    <path d="M 278.634188 52.219682 
L 287.959354 47.195215 
L 283.963261 45.701536 
L 282.306762 41.346232 
z
" clip-path="url(#pd12eed0186)" style="stroke: #000000; stroke-linejoin: miter"/>
   </g>
   <g id="line2d_15"/>
   <g id="line2d_16"/>
   <g id="line2d_17"/>
   <g id="line2d_18"/>
   <g id="line2d_19"/>
   <g id="line2d_20"/>
   <g id="line2d_21"/>
   <g id="line2d_22"/>
   <g id="line2d_23"/>
   <g id="line2d_24"/>
   <g id="line2d_25"/>
   <g id="line2d_26"/>
   <g id="line2d_27"/>
   <g id="line2d_28"/>
   <g id="line2d_29"/>
   <g id="line2d_30"/>
   <g id="line2d_31"/>
   <g id="line2d_32"/>
   <g id="line2d_33"/>
   <g id="line2d_34"/>
  </g>
 </g>
 <defs>
  <clipPath id="pd12eed0186">
   <rect x="0" y="0" width="345.6" height="172.8"/>
  </clipPath>
 </defs>
</svg>
