<?xml version="1.0" encoding="utf-8" standalone="no"?>
<!DOCTYPE svg PUBLIC "-//W3C//DTD SVG 1.1//EN"
  "http://www.w3.org/Graphics/SVG/1.1/DTD/svg11.dtd">
<svg xmlns:xlink="http://www.w3.org/1999/xlink" width="432pt" height="172.8pt" viewBox="0 0 432 172.8" xmlns="http://www.w3.org/2000/svg" version="1.1">
 <metadata>
  <rdf:RDF xmlns:dc="http://purl.org/dc/elements/1.1/" xmlns:cc="http://creativecommons.org/ns#" xmlns:rdf="http://www.w3.org/1999/02/22-rdf-syntax-ns#">
   <cc:Work>
    <dc:type rdf:resource="http://purl.org/dc/dcmitype/StillImage"/>
    <dc:date>2026-01-22T11:03:58.866488</dc:date>
    <dc:format>image/svg+xml</dc:format>
    <dc:creator>
     <cc:Agent>
      <dc:title>Matplotlib v3.10.8, https://matplotlib.org/</dc:title>
     </cc:Agent>
    </dc:creator>
   </cc:Work>
  </rdf:RDF>
 </metadata>
 <defs>
  <style type="text/css">*{stroke-linejoin: round; stroke-linecap: butt}</style>
 </defs>
 <g id="figure_1">
  <g id="patch_1">
   <path d="M 0 172.8 
L 432 172.8 
L 432 0 
L 0 0 
L 0 172.8 
z
" style="fill: none"/>
  </g>
  <g id="axes_1">
   <g id="matplotlib.axis_1"/>
   <g id="matplotlib.axis_2"/>
   <g id="text_1">
    <!-- $K^{0}$ -->
    <g style="fill: #ffffff" transform="translate(9.72 95.4) scale(0.36 -0.36)">
     <defs>
      <path id="Cmmi10-4b" d="M 300 0 
Q 238 0 238 84 
Q 241 100 250 139 
Q 259 178 276 201 
Q 294 225 319 225 
Q 709 225 863 269 
Q 947 297 984 441 
L 1863 3956 
Q 1875 4019 1875 4044 
Q 1875 4113 1797 4122 
Q 1678 4147 1338 4147 
Q 1275 4147 1275 4231 
Q 1297 4313 1309 4342 
Q 1322 4372 1381 4372 
L 3103 4372 
Q 3169 4372 3169 4288 
Q 3166 4272 3156 4234 
Q 3147 4197 3131 4172 
Q 3116 4147 3084 4147 
Q 2694 4147 2541 4103 
Q 2456 4072 2419 3928 
L 1900 1856 
L 4409 3794 
Q 4416 3806 4489 3879 
Q 4563 3953 4563 4025 
Q 4563 4147 4347 4147 
Q 4281 4147 4281 4231 
Q 4294 4281 4301 4309 
Q 4309 4338 4329 4355 
Q 4350 4372 4391 4372 
L 5631 4372 
Q 5666 4372 5681 4347 
Q 5697 4322 5697 4288 
Q 5694 4272 5683 4231 
Q 5672 4191 5655 4169 
Q 5638 4147 5606 4147 
Q 5138 4147 4581 3713 
Q 4578 3709 4572 3707 
Q 4566 3706 4559 3704 
Q 4553 3703 4550 3700 
L 3231 2675 
L 4191 428 
Q 4278 288 4378 256 
Q 4478 225 4684 225 
Q 4750 225 4750 141 
Q 4731 66 4712 33 
Q 4694 0 4641 0 
L 3156 0 
Q 3097 0 3097 84 
Q 3106 150 3118 187 
Q 3131 225 3181 225 
Q 3344 225 3458 258 
Q 3572 291 3572 409 
Q 3572 453 3566 475 
L 2772 2322 
L 1838 1600 
L 1544 416 
Q 1528 338 1528 325 
Q 1528 259 1606 250 
Q 1728 225 2069 225 
Q 2131 225 2131 141 
Q 2109 50 2096 25 
Q 2084 0 2022 0 
L 300 0 
z
" transform="scale(0.015625)"/>
      <path id="Cmr10-30" d="M 1600 -141 
Q 816 -141 533 504 
Q 250 1150 250 2041 
Q 250 2597 351 3087 
Q 453 3578 754 3920 
Q 1056 4263 1600 4263 
Q 2022 4263 2290 4056 
Q 2559 3850 2700 3523 
Q 2841 3197 2892 2823 
Q 2944 2450 2944 2041 
Q 2944 1491 2842 1011 
Q 2741 531 2444 195 
Q 2147 -141 1600 -141 
z
M 1600 25 
Q 1956 25 2131 390 
Q 2306 756 2347 1200 
Q 2388 1644 2388 2144 
Q 2388 2625 2347 3031 
Q 2306 3438 2132 3767 
Q 1959 4097 1600 4097 
Q 1238 4097 1063 3765 
Q 888 3434 847 3029 
Q 806 2625 806 2144 
Q 806 1788 823 1472 
Q 841 1156 916 820 
Q 991 484 1158 254 
Q 1325 25 1600 25 
z
" transform="scale(0.015625)"/>
     </defs>
     <use xlink:href="#Cmmi10-4b" transform="translate(0 0.109375)"/>
     <use xlink:href="#Cmr10-30" transform="translate(96.281641 38.373438) scale(0.7)"/>
    </g>
   </g>
   <g id="text_2">
    <!-- $\bar{K}^0$ -->
    <g style="fill: #ffffff" transform="translate(373.86 95.4) scale(0.36 -0.36)">
     <defs>
      <path id="Cmr10-b9" d="M 441 3553 
L 441 3775 
L 2753 3775 
L 2753 3553 
L 441 3553 
z
" transform="scale(0.015625)"/>
     </defs>
     <use xlink:href="#Cmr10-b9" transform="translate(28.337402 25.40625)"/>
     <use xlink:href="#Cmmi10-4b" transform="translate(0 0.109375)"/>
     <use xlink:href="#Cmr10-30" transform="translate(89.37625 38.373438) scale(0.7)"/>
    </g>
   </g>
   <g id="text_3">
    <!-- $u,c,t$ -->
    <g style="fill: #ffffff" transform="translate(98.04 92.25375) scale(0.24 -0.24)">
     <defs>
      <path id="Cmmi10-75" d="M 678 697 
Q 678 906 734 1126 
Q 791 1347 892 1617 
Q 994 1888 1069 2088 
Q 1153 2322 1153 2472 
Q 1153 2663 1013 2663 
Q 759 2663 595 2402 
Q 431 2141 353 1819 
Q 341 1778 300 1778 
L 225 1778 
Q 172 1778 172 1838 
L 172 1856 
Q 275 2238 487 2533 
Q 700 2828 1025 2828 
Q 1253 2828 1411 2678 
Q 1569 2528 1569 2297 
Q 1569 2178 1516 2047 
Q 1488 1969 1388 1706 
Q 1288 1444 1234 1272 
Q 1181 1100 1147 934 
Q 1113 769 1113 603 
Q 1113 391 1203 244 
Q 1294 97 1497 97 
Q 1906 97 2216 603 
Q 2222 628 2226 651 
Q 2231 675 2234 697 
L 2694 2553 
Q 2716 2638 2794 2698 
Q 2872 2759 2963 2759 
Q 3041 2759 3098 2709 
Q 3156 2659 3156 2578 
Q 3156 2541 3150 2528 
L 2688 684 
Q 2644 494 2644 372 
Q 2644 97 2828 97 
Q 3034 97 3136 351 
Q 3238 606 3309 941 
Q 3322 978 3359 978 
L 3438 978 
Q 3463 978 3478 956 
Q 3494 934 3494 916 
Q 3425 641 3361 444 
Q 3297 247 3159 87 
Q 3022 -72 2816 -72 
Q 2613 -72 2452 39 
Q 2291 150 2234 341 
Q 2088 153 1894 40 
Q 1700 -72 1484 -72 
Q 1116 -72 897 129 
Q 678 331 678 697 
z
" transform="scale(0.015625)"/>
      <path id="Cmmi10-3b" d="M 634 -1153 
Q 634 -1125 659 -1100 
Q 891 -878 1019 -587 
Q 1147 -297 1147 25 
L 1147 103 
Q 1044 0 891 0 
Q 744 0 641 103 
Q 538 206 538 353 
Q 538 503 641 603 
Q 744 703 891 703 
Q 1119 703 1216 492 
Q 1313 281 1313 25 
Q 1313 -331 1170 -651 
Q 1028 -972 769 -1228 
Q 744 -1241 728 -1241 
Q 697 -1241 665 -1212 
Q 634 -1184 634 -1153 
z
" transform="scale(0.015625)"/>
      <path id="Cmmi10-63" d="M 750 763 
Q 750 484 892 290 
Q 1034 97 1300 97 
Q 1681 97 2032 272 
Q 2384 447 2606 756 
Q 2625 775 2656 775 
Q 2688 775 2720 739 
Q 2753 703 2753 672 
Q 2753 647 2741 634 
Q 2506 306 2109 117 
Q 1713 -72 1288 -72 
Q 981 -72 747 73 
Q 513 219 384 462 
Q 256 706 256 1013 
Q 256 1444 497 1869 
Q 738 2294 1138 2561 
Q 1538 2828 1978 2828 
Q 2266 2828 2495 2689 
Q 2725 2550 2725 2278 
Q 2725 2103 2623 1979 
Q 2522 1856 2350 1856 
Q 2247 1856 2176 1920 
Q 2106 1984 2106 2088 
Q 2106 2238 2215 2344 
Q 2325 2450 2472 2450 
L 2484 2450 
Q 2409 2559 2267 2611 
Q 2125 2663 1972 2663 
Q 1597 2663 1315 2342 
Q 1034 2022 892 1576 
Q 750 1131 750 763 
z
" transform="scale(0.015625)"/>
      <path id="Cmmi10-74" d="M 397 519 
Q 397 613 416 697 
L 878 2534 
L 206 2534 
Q 141 2534 141 2619 
Q 166 2759 225 2759 
L 934 2759 
L 1191 3803 
Q 1216 3888 1291 3947 
Q 1366 4006 1459 4006 
Q 1541 4006 1595 3957 
Q 1650 3909 1650 3828 
Q 1650 3809 1648 3798 
Q 1647 3788 1644 3775 
L 1388 2759 
L 2047 2759 
Q 2113 2759 2113 2675 
Q 2109 2659 2100 2621 
Q 2091 2584 2075 2559 
Q 2059 2534 2028 2534 
L 1331 2534 
L 872 684 
Q 825 503 825 372 
Q 825 97 1013 97 
Q 1294 97 1511 361 
Q 1728 625 1844 941 
Q 1869 978 1894 978 
L 1972 978 
Q 1997 978 2012 961 
Q 2028 944 2028 922 
Q 2028 909 2022 903 
Q 1881 516 1612 222 
Q 1344 -72 997 -72 
Q 744 -72 570 93 
Q 397 259 397 519 
z
" transform="scale(0.015625)"/>
     </defs>
     <use xlink:href="#Cmmi10-75" transform="translate(0 0.40625)"/>
     <use xlink:href="#Cmmi10-3b" transform="translate(57.177734 0.40625)"/>
     <use xlink:href="#Cmmi10-63" transform="translate(102.421875 0.40625)"/>
     <use xlink:href="#Cmmi10-3b" transform="translate(145.634766 0.40625)"/>
     <use xlink:href="#Cmmi10-74" transform="translate(190.878906 0.40625)"/>
    </g>
   </g>
   <g id="text_4">
    <!-- $u,c,t$ -->
    <g style="fill: #ffffff" transform="translate(279.48 92.25375) scale(0.24 -0.24)">
     <use xlink:href="#Cmmi10-75" transform="translate(0 0.40625)"/>
     <use xlink:href="#Cmmi10-3b" transform="translate(57.177734 0.40625)"/>
     <use xlink:href="#Cmmi10-63" transform="translate(102.421875 0.40625)"/>
     <use xlink:href="#Cmmi10-3b" transform="translate(145.634766 0.40625)"/>
     <use xlink:href="#Cmmi10-74" transform="translate(190.878906 0.40625)"/>
    </g>
   </g>
   <g id="text_5">
    <!-- $s$ -->
    <g style="fill: #ffffff" transform="translate(354.42 160.2) scale(0.36 -0.36)">
     <defs>
      <path id="Cmmi10-73" d="M 556 391 
Q 728 97 1247 97 
Q 1472 97 1675 173 
Q 1878 250 2011 403 
Q 2144 556 2144 775 
Q 2144 941 2025 1047 
Q 1906 1153 1734 1191 
L 1388 1259 
Q 1150 1319 997 1481 
Q 844 1644 844 1875 
Q 844 2159 998 2378 
Q 1153 2597 1406 2712 
Q 1659 2828 1931 2828 
Q 2222 2828 2451 2689 
Q 2681 2550 2681 2278 
Q 2681 2131 2598 2018 
Q 2516 1906 2369 1906 
Q 2284 1906 2223 1961 
Q 2163 2016 2163 2100 
Q 2163 2175 2205 2245 
Q 2247 2316 2317 2358 
Q 2388 2400 2463 2400 
Q 2406 2538 2251 2600 
Q 2097 2663 1919 2663 
Q 1756 2663 1593 2597 
Q 1431 2531 1332 2404 
Q 1234 2278 1234 2106 
Q 1234 1991 1315 1903 
Q 1397 1816 1516 1778 
L 1888 1703 
Q 2066 1666 2214 1570 
Q 2363 1475 2448 1329 
Q 2534 1184 2534 997 
Q 2534 759 2401 528 
Q 2269 297 2075 159 
Q 1734 -72 1241 -72 
Q 900 -72 615 84 
Q 331 241 331 550 
Q 331 725 432 854 
Q 534 984 709 984 
Q 813 984 883 921 
Q 953 859 953 756 
Q 953 609 843 500 
Q 734 391 588 391 
L 556 391 
z
" transform="scale(0.015625)"/>
     </defs>
     <use xlink:href="#Cmmi10-73" transform="translate(0 0.8125)"/>
    </g>
   </g>
   <g id="text_6">
    <!-- $\bar{d}$ -->
    <g style="fill: #ffffff" transform="translate(353.34 30.6) scale(0.36 -0.36)">
     <defs>
      <path id="Cmmi10-64" d="M 1113 -72 
Q 709 -72 476 233 
Q 244 538 244 953 
Q 244 1363 456 1803 
Q 669 2244 1030 2536 
Q 1391 2828 1806 2828 
Q 1994 2828 2145 2723 
Q 2297 2619 2381 2444 
L 2741 3872 
Q 2766 3981 2772 4044 
Q 2772 4147 2356 4147 
Q 2291 4147 2291 4231 
Q 2294 4247 2305 4287 
Q 2316 4328 2333 4350 
Q 2350 4372 2381 4372 
L 3244 4441 
Q 3322 4441 3322 4359 
L 2400 678 
Q 2356 572 2356 372 
Q 2356 97 2541 97 
Q 2741 97 2845 351 
Q 2950 606 3022 941 
Q 3034 978 3072 978 
L 3150 978 
Q 3175 978 3190 956 
Q 3206 934 3206 916 
Q 3094 469 2961 198 
Q 2828 -72 2528 -72 
Q 2313 -72 2147 54 
Q 1981 181 1941 391 
Q 1528 -72 1113 -72 
z
M 1119 97 
Q 1350 97 1567 270 
Q 1784 444 1941 678 
Q 1947 684 1947 703 
L 2297 2113 
Q 2259 2338 2131 2500 
Q 2003 2663 1791 2663 
Q 1575 2663 1389 2486 
Q 1203 2309 1075 2069 
Q 950 1813 836 1366 
Q 722 919 722 672 
Q 722 450 817 273 
Q 913 97 1119 97 
z
" transform="scale(0.015625)"/>
     </defs>
     <use xlink:href="#Cmr10-b9" transform="translate(7.109863 27.015625)"/>
     <use xlink:href="#Cmmi10-64" transform="translate(0 0.640625)"/>
    </g>
   </g>
   <g id="text_7">
    <!-- $d$ -->
    <g style="fill: #ffffff" transform="translate(59.58 160.2) scale(0.36 -0.36)">
     <use xlink:href="#Cmmi10-64" transform="translate(0 0.609375)"/>
    </g>
   </g>
   <g id="text_8">
    <!-- $\bar{s}$ -->
    <g style="fill: #ffffff" transform="translate(60.66 30.6) scale(0.36 -0.36)">
     <use xlink:href="#Cmr10-b9" transform="translate(3.803711 2.015625)"/>
     <use xlink:href="#Cmmi10-73" transform="translate(0 0.84375)"/>
    </g>
   </g>
   <g id="line2d_1">
    <path d="M 86.4 155.52 
L 159.84 155.52 
L 159.84 155.52 
" clip-path="url(#p45494d2daa)" style="fill: none; stroke: #ffffff; stroke-width: 2"/>
   </g>
   <g id="line2d_2">
    <path d="M 159.84 17.28 
L 86.4 17.28 
L 86.4 17.28 
" clip-path="url(#p45494d2daa)" style="fill: none; stroke: #ffffff; stroke-width: 2"/>
   </g>
   <g id="line2d_3">
    <path d="M 159.84 155.52 
L 161.810526 149.864333 
L 162.936541 147.292448 
L 163.781053 145.883654 
L 164.34406 145.23813 
L 164.907068 144.847047 
L 165.470075 144.720084 
L 166.033083 144.860382 
L 166.59609 145.264471 
L 167.159098 145.922349 
L 168.003609 147.347788 
L 168.84812 149.227081 
L 170.255639 153.075341 
L 173.35218 161.95035 
L 174.478195 164.321902 
L 175.322707 165.542058 
L 175.885714 166.049221 
L 176.448722 166.295822 
L 177.011729 166.275757 
L 177.574737 165.989523 
L 178.137744 165.444203 
L 178.982256 164.171633 
L 179.826767 162.418583 
L 180.952782 159.505231 
L 185.175338 147.749161 
L 186.01985 146.209733 
L 186.864361 145.187361 
L 187.427368 144.822361 
L 187.990376 144.722092 
L 188.553383 144.889035 
L 189.116391 145.319058 
L 189.679398 146.001521 
L 190.52391 147.459986 
L 191.368421 149.366073 
L 192.77594 153.241294 
L 195.590977 161.3914 
L 196.716992 163.9105 
L 197.561504 165.268836 
L 198.124511 165.877063 
L 198.687519 166.228987 
L 199.250526 166.315899 
L 199.813534 166.13565 
L 200.376541 165.692698 
L 200.939549 164.998007 
L 201.78406 163.523164 
L 202.910075 160.883137 
L 204.317594 156.876973 
L 206.851128 149.577411 
L 207.977143 147.07622 
L 208.821654 145.734873 
L 209.384662 145.139155 
L 209.947669 144.800329 
L 210.510677 144.726778 
L 211.073684 144.920324 
L 211.636692 145.376176 
L 212.199699 146.083053 
L 213.044211 147.574182 
L 214.170226 150.230839 
L 215.577744 154.247429 
L 218.111278 161.533409 
L 219.237293 164.016537 
L 220.081805 165.340812 
L 220.644812 165.923983 
L 221.20782 166.249691 
L 221.770827 166.309875 
L 222.333835 166.103046 
L 222.896842 165.634321 
L 223.45985 164.915302 
L 224.304361 163.407979 
L 225.430376 160.734858 
L 227.119398 155.860086 
L 229.089925 150.156863 
L 230.21594 147.516836 
L 231.060451 146.041993 
L 231.904962 145.093523 
L 232.46797 144.780955 
L 233.030977 144.734141 
L 233.593985 144.954241 
L 234.156992 145.435808 
L 234.72 146.166926 
L 235.564511 147.690348 
L 236.690526 150.379768 
L 238.379549 155.264917 
L 240.350075 160.95678 
L 241.47609 163.580014 
L 242.320602 165.038479 
L 242.883609 165.720942 
L 243.446617 166.150965 
L 244.009624 166.317908 
L 244.572632 166.217639 
L 245.135639 165.852639 
L 245.698647 165.231941 
L 246.543158 163.8567 
L 247.387669 162.01847 
L 248.513684 159.026754 
L 252.173233 148.621417 
L 253.017744 146.868367 
L 253.862256 145.595797 
L 254.425263 145.050477 
L 254.988271 144.764243 
L 255.551278 144.744178 
L 256.114286 144.990779 
L 256.677293 145.497942 
L 257.240301 146.253117 
L 258.084812 147.808456 
L 259.210827 150.529972 
L 260.89985 155.434965 
L 262.870376 161.103049 
L 263.996391 163.692212 
L 264.840902 165.117651 
L 265.40391 165.775529 
L 265.966917 166.179618 
L 266.529925 166.319916 
L 267.092932 166.192953 
L 267.65594 165.80187 
L 268.218947 165.156346 
L 269.063459 163.747552 
L 269.90797 161.881832 
L 271.033985 158.86547 
L 272.16 155.52 
L 272.16 155.52 
" clip-path="url(#p45494d2daa)" style="fill: none; stroke: #ffffff; stroke-width: 2"/>
   </g>
   <g id="line2d_4">
    <path d="M 159.84 17.28 
L 161.810526 11.624333 
L 162.936541 9.052448 
L 163.781053 7.643654 
L 164.34406 6.99813 
L 164.907068 6.607047 
L 165.470075 6.480084 
L 166.033083 6.620382 
L 166.59609 7.024471 
L 167.159098 7.682349 
L 168.003609 9.107788 
L 168.84812 10.987081 
L 170.255639 14.835341 
L 173.35218 23.71035 
L 174.478195 26.081902 
L 175.322707 27.302058 
L 175.885714 27.809221 
L 176.448722 28.055822 
L 177.011729 28.035757 
L 177.574737 27.749523 
L 178.137744 27.204203 
L 178.982256 25.931633 
L 179.826767 24.178583 
L 180.952782 21.265231 
L 185.175338 9.509161 
L 186.01985 7.969733 
L 186.864361 6.947361 
L 187.427368 6.582361 
L 187.990376 6.482092 
L 188.553383 6.649035 
L 189.116391 7.079058 
L 189.679398 7.761521 
L 190.52391 9.219986 
L 191.368421 11.126073 
L 192.77594 15.001294 
L 195.590977 23.1514 
L 196.716992 25.6705 
L 197.561504 27.028836 
L 198.124511 27.637063 
L 198.687519 27.988987 
L 199.250526 28.075899 
L 199.813534 27.89565 
L 200.376541 27.452698 
L 200.939549 26.758007 
L 201.78406 25.283164 
L 202.910075 22.643137 
L 204.317594 18.636973 
L 206.851128 11.337411 
L 207.977143 8.83622 
L 208.821654 7.494873 
L 209.384662 6.899155 
L 209.947669 6.560329 
L 210.510677 6.486778 
L 211.073684 6.680324 
L 211.636692 7.136176 
L 212.199699 7.843053 
L 213.044211 9.334182 
L 214.170226 11.990839 
L 215.577744 16.007429 
L 218.111278 23.293409 
L 219.237293 25.776537 
L 220.081805 27.100812 
L 220.644812 27.683983 
L 221.20782 28.009691 
L 221.770827 28.069875 
L 222.333835 27.863046 
L 222.896842 27.394321 
L 223.45985 26.675302 
L 224.304361 25.167979 
L 225.430376 22.494858 
L 227.119398 17.620086 
L 229.089925 11.916863 
L 230.21594 9.276836 
L 231.060451 7.801993 
L 231.904962 6.853523 
L 232.46797 6.540955 
L 233.030977 6.494141 
L 233.593985 6.714241 
L 234.156992 7.195808 
L 234.72 7.926926 
L 235.564511 9.450348 
L 236.690526 12.139768 
L 238.379549 17.024917 
L 240.350075 22.71678 
L 241.47609 25.340014 
L 242.320602 26.798479 
L 242.883609 27.480942 
L 243.446617 27.910965 
L 244.009624 28.077908 
L 244.572632 27.977639 
L 245.135639 27.612639 
L 245.698647 26.991941 
L 246.543158 25.6167 
L 247.387669 23.77847 
L 248.513684 20.786754 
L 252.173233 10.381417 
L 253.017744 8.628367 
L 253.862256 7.355797 
L 254.425263 6.810477 
L 254.988271 6.524243 
L 255.551278 6.504178 
L 256.114286 6.750779 
L 256.677293 7.257942 
L 257.240301 8.013117 
L 258.084812 9.568456 
L 259.210827 12.289972 
L 260.89985 17.194965 
L 262.870376 22.863049 
L 263.996391 25.452212 
L 264.840902 26.877651 
L 265.40391 27.535529 
L 265.966917 27.939618 
L 266.529925 28.079916 
L 267.092932 27.952953 
L 267.65594 27.56187 
L 268.218947 26.916346 
L 269.063459 25.507552 
L 269.90797 23.641832 
L 271.033985 20.62547 
L 272.16 17.28 
L 272.16 17.28 
" clip-path="url(#p45494d2daa)" style="fill: none; stroke: #ffffff; stroke-width: 2"/>
   </g>
   <g id="line2d_5">
    <path d="M 159.84 155.52 
L 159.84 17.28 
L 159.84 17.28 
" clip-path="url(#p45494d2daa)" style="fill: none; stroke: #ffffff; stroke-width: 2"/>
   </g>
   <g id="line2d_6">
    <path d="M 272.16 17.28 
L 272.16 155.52 
L 272.16 155.52 
" clip-path="url(#p45494d2daa)" style="fill: none; stroke: #ffffff; stroke-width: 2"/>
   </g>
   <g id="line2d_7">
    <path d="M 272.16 155.52 
L 345.6 155.52 
L 345.6 155.52 
" clip-path="url(#p45494d2daa)" style="fill: none; stroke: #ffffff; stroke-width: 2"/>
   </g>
   <g id="line2d_8">
    <path d="M 345.6 17.28 
L 272.16 17.28 
L 272.16 17.28 
" clip-path="url(#p45494d2daa)" style="fill: none; stroke: #ffffff; stroke-width: 2"/>
   </g>
   <g id="patch_2">
    <path d="M 134.01203 155.52 
L 123.21203 151.2 
L 125.15603 155.52 
L 123.21203 159.84 
z
" clip-path="url(#p45494d2daa)" style="fill: #ffffff; stroke: #ffffff; stroke-linejoin: miter"/>
   </g>
   <g id="patch_3">
    <path d="M 112.22797 17.28 
L 123.02797 21.6 
L 121.08397 17.28 
L 123.02797 12.96 
z
" clip-path="url(#p45494d2daa)" style="fill: #ffffff; stroke: #ffffff; stroke-linejoin: miter"/>
   </g>
   <g id="patch_4">
    <path d="M 159.84 75.426767 
L 155.52 86.226767 
L 159.84 84.282767 
L 164.16 86.226767 
z
" clip-path="url(#p45494d2daa)" style="fill: #ffffff; stroke: #ffffff; stroke-linejoin: miter"/>
   </g>
   <g id="patch_5">
    <path d="M 272.16 97.373233 
L 276.48 86.573233 
L 272.16 88.517233 
L 267.84 86.573233 
z
" clip-path="url(#p45494d2daa)" style="fill: #ffffff; stroke: #ffffff; stroke-linejoin: miter"/>
   </g>
   <g id="patch_6">
    <path d="M 319.77203 155.52 
L 308.97203 151.2 
L 310.91603 155.52 
L 308.97203 159.84 
z
" clip-path="url(#p45494d2daa)" style="fill: #ffffff; stroke: #ffffff; stroke-linejoin: miter"/>
   </g>
   <g id="patch_7">
    <path d="M 297.98797 17.28 
L 308.78797 21.6 
L 306.84397 17.28 
L 308.78797 12.96 
z
" clip-path="url(#p45494d2daa)" style="fill: #ffffff; stroke: #ffffff; stroke-linejoin: miter"/>
   </g>
   <g id="line2d_9"/>
   <g id="line2d_10"/>
   <g id="line2d_11">
    <defs>
     <path id="m751e82baf9" d="M 0 2 
C 0.530406 2 1.03916 1.789267 1.414214 1.414214 
C 1.789267 1.03916 2 0.530406 2 0 
C 2 -0.530406 1.789267 -1.03916 1.414214 -1.414214 
C 1.03916 -1.789267 0.530406 -2 0 -2 
C -0.530406 -2 -1.03916 -1.789267 -1.414214 -1.414214 
C -1.789267 -1.03916 -2 -0.530406 -2 0 
C -2 0.530406 -1.789267 1.03916 -1.414214 1.414214 
C -1.03916 1.789267 -0.530406 2 0 2 
z
" style="stroke: #ffffff"/>
    </defs>
    <g clip-path="url(#p45494d2daa)">
     <use xlink:href="#m751e82baf9" x="159.84" y="155.52" style="fill: #ffffff; stroke: #ffffff"/>
    </g>
   </g>
   <g id="line2d_12">
    <g clip-path="url(#p45494d2daa)">
     <use xlink:href="#m751e82baf9" x="159.84" y="17.28" style="fill: #ffffff; stroke: #ffffff"/>
    </g>
   </g>
   <g id="line2d_13">
    <g clip-path="url(#p45494d2daa)">
     <use xlink:href="#m751e82baf9" x="272.16" y="155.52" style="fill: #ffffff; stroke: #ffffff"/>
    </g>
   </g>
   <g id="line2d_14">
    <g clip-path="url(#p45494d2daa)">
     <use xlink:href="#m751e82baf9" x="272.16" y="17.28" style="fill: #ffffff; stroke: #ffffff"/>
    </g>
   </g>
   <g id="line2d_15"/>
   <g id="line2d_16"/>
  </g>
 </g>
 <defs>
  <clipPath id="p45494d2daa">
   <rect x="0" y="0" width="432" height="172.8"/>
  </clipPath>
 </defs>
</svg>
