<?xml version="1.0" encoding="utf-8" standalone="no"?>
<!DOCTYPE svg PUBLIC "-//W3C//DTD SVG 1.1//EN"
  "http://www.w3.org/Graphics/SVG/1.1/DTD/svg11.dtd">
<svg xmlns:xlink="http://www.w3.org/1999/xlink" width="259.2pt" height="172.8pt" viewBox="0 0 259.2 172.8" xmlns="http://www.w3.org/2000/svg" version="1.1">
 <metadata>
  <rdf:RDF xmlns:dc="http://purl.org/dc/elements/1.1/" xmlns:cc="http://creativecommons.org/ns#" xmlns:rdf="http://www.w3.org/1999/02/22-rdf-syntax-ns#">
   <cc:Work>
    <dc:type rdf:resource="http://purl.org/dc/dcmitype/StillImage"/>
    <dc:date>2026-01-31T11:31:54.408023</dc:date>
    <dc:format>image/svg+xml</dc:format>
    <dc:creator>
     <cc:Agent>
      <dc:title>Matplotlib v3.10.8, https://matplotlib.org/</dc:title>
     </cc:Agent>
    </dc:creator>
   </cc:Work>
  </rdf:RDF>
 </metadata>
 <defs>
  <style type="text/css">*{stroke-linejoin: round; stroke-linecap: butt}</style>
 </defs>
 <g id="figure_1">
  <g id="patch_1">
   <path d="M 0 172.8 
L 259.2 172.8 
L 259.2 0 
L 0 0 
L 0 172.8 
z
" style="fill: none"/>
  </g>
  <g id="axes_1">
   <g id="matplotlib.axis_1"/>
   <g id="matplotlib.axis_2"/>
   <g id="text_1">
    <!-- $\bar{q}_1$ -->
    <g style="fill: #ffffff" transform="translate(216.9 159.980625) scale(0.36 -0.36)">
     <defs>
      <path id="Cmr10-b9" d="M 441 3553 
L 441 3775 
L 2753 3775 
L 2753 3553 
L 441 3553 
z
" transform="scale(0.015625)"/>
      <path id="Cmmi10-71" d="M 941 -1159 
Q 963 -1019 1025 -1019 
Q 1256 -1019 1389 -981 
Q 1522 -944 1563 -800 
L 1838 288 
Q 1472 -72 1106 -72 
Q 703 -72 473 233 
Q 244 538 244 953 
Q 244 1363 455 1803 
Q 666 2244 1027 2536 
Q 1388 2828 1806 2828 
Q 2000 2828 2156 2712 
Q 2313 2597 2394 2406 
Q 2431 2481 2601 2654 
Q 2772 2828 2841 2828 
Q 2913 2828 2913 2747 
L 2016 -825 
Q 2000 -919 1997 -934 
Q 1997 -1019 2419 -1019 
Q 2450 -1019 2467 -1044 
Q 2484 -1069 2484 -1100 
Q 2463 -1184 2448 -1212 
Q 2434 -1241 2375 -1241 
L 1006 -1241 
Q 941 -1241 941 -1159 
z
M 1119 97 
Q 1344 97 1558 267 
Q 1772 438 1931 672 
L 2291 2113 
Q 2253 2338 2126 2500 
Q 2000 2663 1791 2663 
Q 1575 2663 1389 2486 
Q 1203 2309 1075 2069 
Q 950 1813 836 1366 
Q 722 919 722 672 
Q 722 450 817 273 
Q 913 97 1119 97 
z
" transform="scale(0.015625)"/>
      <path id="Cmr10-31" d="M 594 0 
L 594 225 
Q 1394 225 1394 428 
L 1394 3788 
Q 1063 3628 556 3628 
L 556 3853 
Q 1341 3853 1741 4263 
L 1831 4263 
Q 1853 4263 1873 4245 
Q 1894 4228 1894 4206 
L 1894 428 
Q 1894 225 2694 225 
L 2694 0 
L 594 0 
z
" transform="scale(0.015625)"/>
     </defs>
     <use xlink:href="#Cmr10-b9" transform="translate(3.254395 2.015625)"/>
     <use xlink:href="#Cmmi10-71" transform="translate(0 0.84375)"/>
     <use xlink:href="#Cmr10-31" transform="translate(49.044219 -16.1625) scale(0.7)"/>
    </g>
   </g>
   <g id="text_2">
    <!-- $q_2$ -->
    <g style="fill: #ffffff" transform="translate(217.8 30.380625) scale(0.36 -0.36)">
     <defs>
      <path id="Cmr10-32" d="M 319 0 
L 319 172 
Q 319 188 331 206 
L 1325 1306 
Q 1550 1550 1690 1715 
Q 1831 1881 1968 2097 
Q 2106 2313 2186 2536 
Q 2266 2759 2266 3009 
Q 2266 3272 2169 3511 
Q 2072 3750 1880 3894 
Q 1688 4038 1416 4038 
Q 1138 4038 916 3870 
Q 694 3703 603 3438 
Q 628 3444 672 3444 
Q 816 3444 917 3347 
Q 1019 3250 1019 3097 
Q 1019 2950 917 2848 
Q 816 2747 672 2747 
Q 522 2747 420 2851 
Q 319 2956 319 3097 
Q 319 3338 409 3548 
Q 500 3759 670 3923 
Q 841 4088 1055 4175 
Q 1269 4263 1509 4263 
Q 1875 4263 2190 4108 
Q 2506 3953 2690 3670 
Q 2875 3388 2875 3009 
Q 2875 2731 2753 2481 
Q 2631 2231 2440 2026 
Q 2250 1822 1953 1562 
Q 1656 1303 1563 1216 
L 838 519 
L 1453 519 
Q 1906 519 2211 526 
Q 2516 534 2534 550 
Q 2609 631 2688 1141 
L 2875 1141 
L 2694 0 
L 319 0 
z
" transform="scale(0.015625)"/>
     </defs>
     <use xlink:href="#Cmmi10-71" transform="translate(0 0.8125)"/>
     <use xlink:href="#Cmr10-32" transform="translate(44.580078 -16.19375) scale(0.7)"/>
    </g>
   </g>
   <g id="text_3">
    <!-- $\bar{q}_3$ -->
    <g style="fill: #ffffff" transform="translate(9.54 159.980625) scale(0.36 -0.36)">
     <defs>
      <path id="Cmr10-33" d="M 609 494 
Q 759 275 1012 169 
Q 1266 63 1556 63 
Q 1928 63 2084 380 
Q 2241 697 2241 1100 
Q 2241 1281 2208 1462 
Q 2175 1644 2097 1800 
Q 2019 1956 1883 2050 
Q 1747 2144 1550 2144 
L 1125 2144 
Q 1069 2144 1069 2203 
L 1069 2259 
Q 1069 2309 1125 2309 
L 1478 2338 
Q 1703 2338 1851 2506 
Q 2000 2675 2069 2917 
Q 2138 3159 2138 3378 
Q 2138 3684 1994 3881 
Q 1850 4078 1556 4078 
Q 1313 4078 1091 3986 
Q 869 3894 738 3706 
Q 750 3709 759 3711 
Q 769 3713 781 3713 
Q 925 3713 1022 3613 
Q 1119 3513 1119 3372 
Q 1119 3234 1022 3134 
Q 925 3034 781 3034 
Q 641 3034 541 3134 
Q 441 3234 441 3372 
Q 441 3647 606 3850 
Q 772 4053 1033 4158 
Q 1294 4263 1556 4263 
Q 1750 4263 1965 4205 
Q 2181 4147 2356 4039 
Q 2531 3931 2642 3762 
Q 2753 3594 2753 3378 
Q 2753 3109 2633 2881 
Q 2513 2653 2303 2487 
Q 2094 2322 1844 2241 
Q 2122 2188 2372 2031 
Q 2622 1875 2773 1631 
Q 2925 1388 2925 1106 
Q 2925 753 2731 467 
Q 2538 181 2222 20 
Q 1906 -141 1556 -141 
Q 1256 -141 954 -26 
Q 653 88 461 316 
Q 269 544 269 863 
Q 269 1022 375 1128 
Q 481 1234 641 1234 
Q 744 1234 830 1186 
Q 916 1138 964 1050 
Q 1013 963 1013 863 
Q 1013 706 903 600 
Q 794 494 641 494 
L 609 494 
z
" transform="scale(0.015625)"/>
     </defs>
     <use xlink:href="#Cmr10-b9" transform="translate(3.254395 2.015625)"/>
     <use xlink:href="#Cmmi10-71" transform="translate(0 0.84375)"/>
     <use xlink:href="#Cmr10-33" transform="translate(49.044219 -16.1625) scale(0.7)"/>
    </g>
   </g>
   <g id="text_4">
    <!-- $q_4$ -->
    <g style="fill: #ffffff" transform="translate(10.44 30.380625) scale(0.36 -0.36)">
     <defs>
      <path id="Cmr10-34" d="M 178 1056 
L 178 1281 
L 2156 4231 
Q 2178 4263 2222 4263 
L 2316 4263 
Q 2388 4263 2388 4191 
L 2388 1281 
L 3016 1281 
L 3016 1056 
L 2388 1056 
L 2388 428 
Q 2388 297 2575 261 
Q 2763 225 3009 225 
L 3009 0 
L 1247 0 
L 1247 225 
Q 1494 225 1681 261 
Q 1869 297 1869 428 
L 1869 1056 
L 178 1056 
z
M 391 1281 
L 1906 1281 
L 1906 3547 
L 391 1281 
z
" transform="scale(0.015625)"/>
     </defs>
     <use xlink:href="#Cmmi10-71" transform="translate(0 0.8125)"/>
     <use xlink:href="#Cmr10-34" transform="translate(44.580078 -16.19375) scale(0.7)"/>
    </g>
   </g>
   <g id="line2d_1">
    <path d="M 43.2 17.28 
L 86.4 51.84 
L 86.4 51.84 
" clip-path="url(#p449c29f272)" style="fill: none; stroke: #ffffff; stroke-width: 2"/>
   </g>
   <g id="line2d_2">
    <path d="M 86.4 51.84 
L 129.6 86.4 
L 129.6 86.4 
" clip-path="url(#p449c29f272)" style="fill: none; stroke: #ffffff; stroke-width: 2"/>
   </g>
   <g id="line2d_3">
    <path d="M 129.6 86.4 
L 43.2 155.52 
L 43.2 155.52 
" clip-path="url(#p449c29f272)" style="fill: none; stroke: #ffffff; stroke-width: 2"/>
   </g>
   <g id="line2d_4">
    <path d="M 172.8 51.84 
L 129.6 86.4 
L 129.6 86.4 
" clip-path="url(#p449c29f272)" style="fill: none; stroke: #ffffff; stroke-width: 2"/>
   </g>
   <g id="line2d_5">
    <path d="M 216 17.28 
L 172.8 51.84 
L 172.8 51.84 
" clip-path="url(#p449c29f272)" style="fill: none; stroke: #ffffff; stroke-width: 2"/>
   </g>
   <g id="line2d_6">
    <path d="M 129.6 86.4 
L 216 155.52 
L 216 155.52 
" clip-path="url(#p449c29f272)" style="fill: none; stroke: #ffffff; stroke-width: 2"/>
   </g>
   <g id="line2d_7">
    <path d="M 86.4 51.84 
L 88.188036 51.733095 
L 89.942541 51.415024 
L 91.630815 50.893658 
L 93.221796 50.181901 
L 94.68683 49.297365 
L 96.000379 48.26194 
L 97.140656 47.101248 
L 98.090158 45.844014 
L 98.836107 44.521349 
L 99.37076 43.165986 
L 99.691604 41.811464 
L 99.801416 40.491304 
L 99.708196 39.238175 
L 99.424968 38.083087 
L 98.969459 37.054627 
L 98.363658 36.178243 
L 97.633275 35.475625 
L 96.8071 34.964158 
L 95.916297 34.656502 
L 94.993626 34.560268 
L 94.07264 34.677838 
L 93.186845 35.006304 
L 92.36888 35.537536 
L 91.649705 36.258388 
L 91.057833 37.151022 
L 90.618629 38.193347 
L 90.353679 39.359571 
L 90.280257 40.620832 
L 90.410897 41.945919 
L 90.753084 43.30204 
L 91.309067 44.655636 
L 92.075805 45.973211 
L 93.04504 47.222157 
L 94.203506 48.371568 
L 95.53325 49.393001 
L 97.012085 50.261177 
L 98.61413 50.954614 
L 100.310458 51.456149 
L 102.069808 51.753373 
L 103.85936 51.838929 
L 105.645544 51.7107 
L 107.394877 51.371861 
L 109.074786 50.830795 
L 110.654415 50.100893 
L 112.105393 49.200217 
L 113.402528 48.151056 
L 114.52444 46.979372 
L 115.454081 45.714162 
L 116.179163 44.386735 
L 116.692462 43.02994 
L 116.99199 41.677353 
L 117.081054 40.362447 
L 116.968167 39.117761 
L 116.666839 37.974096 
L 116.195245 36.959756 
L 115.575773 36.09984 
L 114.83447 35.415629 
L 114.000397 34.924055 
L 113.104913 34.637284 
L 112.180896 34.56241 
L 111.261928 34.701288 
L 110.38147 35.050481 
L 109.572025 35.601347 
L 108.864343 36.340254 
L 108.286655 37.248917 
L 107.863972 38.304849 
L 107.617472 39.481919 
L 107.563974 40.751 
L 107.715517 42.080685 
L 108.07907 43.43807 
L 108.656352 44.789563 
L 109.443796 46.101719 
L 110.432632 47.342068 
L 111.609107 48.479915 
L 112.954825 49.487101 
L 114.4472 50.338703 
L 116.06002 51.013646 
L 117.764089 51.495227 
L 119.527955 51.77153 
L 121.318685 51.835715 
L 123.102683 51.686196 
L 124.846517 51.326672 
L 126.517751 50.76604 
L 128.085745 50.018174 
L 129.522414 49.101581 
L 130.802921 48.038944 
L 131.906297 46.856559 
L 132.815954 45.583686 
L 133.520098 44.251826 
L 134.012021 42.893936 
L 134.290267 41.54362 
L 134.358668 40.234294 
L 134.226249 38.99836 
L 133.907004 37.866401 
L 133.41955 36.866432 
L 132.786667 36.023197 
L 132.034735 35.357564 
L 131.193079 34.886004 
L 130.293244 34.620189 
L 129.368216 34.566695 
L 128.451603 34.726846 
L 127.576806 35.096679 
L 126.77619 35.667042 
L 126.080285 36.423821 
L 125.51703 37.348287 
L 125.11108 38.417564 
L 124.8832 39.60519 
L 124.849746 40.881775 
L 125.022262 42.215729 
L 125.407198 43.57404 
L 126.005744 44.923094 
L 126.813806 46.229508 
L 127.822104 47.460952 
L 129.016405 48.586952 
L 130.377869 49.579642 
L 131.883523 50.414458 
L 133.506824 51.070741 
L 135.218319 51.532248 
L 136.986371 51.787561 
L 138.777944 51.83036 
L 140.559419 51.659587 
L 142.29743 51.279468 
L 143.959682 50.699409 
L 145.515759 49.933764 
L 146.93787 49.001482 
L 148.201539 47.925632 
L 149.286214 46.732839 
L 150.175768 45.45262 
L 150.858906 44.116656 
L 151.329439 42.758008 
L 151.586442 41.410298 
L 151.634271 40.106877 
L 151.482459 38.88 
L 151.145483 37.760029 
L 150.642397 36.774679 
L 149.996368 35.948334 
L 149.234102 35.301443 
L 148.385178 34.850015 
L 147.481323 34.605222 
L 146.555621 34.57312 
L 145.641697 34.754504 
L 144.772885 35.144886 
L 143.981403 35.734606 
L 143.297555 36.509068 
L 142.748981 37.449109 
L 142.359973 38.531465 
L 142.150876 39.729352 
L 142.137582 41.013125 
L 142.331136 42.351016 
L 142.737466 43.709917 
L 143.357235 45.056199 
L 144.185822 46.356546 
L 145.21344 47.57878 
L 146.425377 48.692653 
L 147.802358 49.670602 
L 149.321024 50.488425 
L 150.954513 51.125884 
L 152.673116 51.567203 
L 154.445023 51.801463 
L 156.237101 51.822865 
L 158.01572 51.630881 
L 159.747583 51.23026 
L 161.400549 50.630917 
L 162.944431 49.847685 
L 164.351738 48.899944 
L 165.598364 47.811149 
L 166.664175 46.608243 
L 167.533513 45.320995 
L 168.195583 43.981259 
L 168.644718 42.62219 
L 168.88052 41.277419 
L 168.907872 39.980226 
L 168.736814 38.762712 
L 168.382297 37.655005 
L 167.863811 36.684519 
L 167.204904 35.875269 
L 166.4326 35.247281 
L 165.576727 34.816097 
L 164.669182 34.592386 
L 163.743143 34.581684 
L 162.832243 34.784257 
L 161.96974 35.195091 
L 161.187696 35.80402 
L 160.516181 36.595975 
L 159.982531 37.551357 
L 159.610669 38.646524 
L 159.420514 39.854374 
L 159.42749 41.145017 
L 159.642142 42.486514 
L 160.069873 43.845668 
L 160.710819 45.188843 
L 161.559833 46.482802 
L 162.606623 47.695522 
L 163.836003 48.796992 
L 165.228266 49.759957 
L 166.759677 50.560584 
L 168.403054 51.179061 
L 170.128447 51.600084 
L 171.903877 51.813232 
L 172.8 51.84 
L 172.8 51.84 
" clip-path="url(#p449c29f272)" style="fill: none; stroke: #ffffff; stroke-width: 2"/>
   </g>
   <g id="patch_2">
    <path d="M 73.287518 41.350015 
L 67.552818 31.229955 
L 66.372144 35.817715 
L 62.155453 37.976662 
z
" clip-path="url(#p449c29f272)" style="fill: #ffffff; stroke: #ffffff; stroke-linejoin: miter"/>
   </g>
   <g id="patch_3">
    <path d="M 116.487518 75.910015 
L 110.752818 65.789955 
L 109.572144 70.377715 
L 105.355453 72.536662 
z
" clip-path="url(#p449c29f272)" style="fill: #ffffff; stroke: #ffffff; stroke-linejoin: miter"/>
   </g>
   <g id="patch_4">
    <path d="M 77.858346 127.793323 
L 88.990412 124.41997 
L 84.77372 122.261024 
L 83.593047 117.673263 
z
" clip-path="url(#p449c29f272)" style="fill: #ffffff; stroke: #ffffff; stroke-linejoin: miter"/>
   </g>
   <g id="patch_5">
    <path d="M 142.712482 75.910015 
L 153.844547 72.536662 
L 149.627856 70.377715 
L 148.447182 65.789955 
z
" clip-path="url(#p449c29f272)" style="fill: #ffffff; stroke: #ffffff; stroke-linejoin: miter"/>
   </g>
   <g id="patch_6">
    <path d="M 185.912482 41.350015 
L 197.044547 37.976662 
L 192.827856 35.817715 
L 191.647182 31.229955 
z
" clip-path="url(#p449c29f272)" style="fill: #ffffff; stroke: #ffffff; stroke-linejoin: miter"/>
   </g>
   <g id="patch_7">
    <path d="M 181.341654 127.793323 
L 175.606953 117.673263 
L 174.42628 122.261024 
L 170.209588 124.41997 
z
" clip-path="url(#p449c29f272)" style="fill: #ffffff; stroke: #ffffff; stroke-linejoin: miter"/>
   </g>
   <g id="line2d_8"/>
   <g id="line2d_9"/>
   <g id="line2d_10">
    <defs>
     <path id="mbf8b85fa1e" d="M 0 2 
C 0.530406 2 1.03916 1.789267 1.414214 1.414214 
C 1.789267 1.03916 2 0.530406 2 0 
C 2 -0.530406 1.789267 -1.03916 1.414214 -1.414214 
C 1.03916 -1.789267 0.530406 -2 0 -2 
C -0.530406 -2 -1.03916 -1.789267 -1.414214 -1.414214 
C -1.789267 -1.03916 -2 -0.530406 -2 0 
C -2 0.530406 -1.789267 1.03916 -1.414214 1.414214 
C -1.03916 1.789267 -0.530406 2 0 2 
z
" style="stroke: #ffffff"/>
    </defs>
    <g clip-path="url(#p449c29f272)">
     <use xlink:href="#mbf8b85fa1e" x="129.6" y="86.4" style="fill: #ffffff; stroke: #ffffff"/>
    </g>
   </g>
   <g id="line2d_11"/>
   <g id="line2d_12"/>
   <g id="line2d_13">
    <g clip-path="url(#p449c29f272)">
     <use xlink:href="#mbf8b85fa1e" x="86.4" y="51.84" style="fill: #ffffff; stroke: #ffffff"/>
    </g>
   </g>
   <g id="line2d_14">
    <g clip-path="url(#p449c29f272)">
     <use xlink:href="#mbf8b85fa1e" x="172.8" y="51.84" style="fill: #ffffff; stroke: #ffffff"/>
    </g>
   </g>
  </g>
 </g>
 <defs>
  <clipPath id="p449c29f272">
   <rect x="0" y="0" width="259.2" height="172.8"/>
  </clipPath>
 </defs>
</svg>
