<?xml version="1.0" encoding="utf-8" standalone="no"?>
<!DOCTYPE svg PUBLIC "-//W3C//DTD SVG 1.1//EN"
  "http://www.w3.org/Graphics/SVG/1.1/DTD/svg11.dtd">
<svg xmlns:xlink="http://www.w3.org/1999/xlink" width="259.2pt" height="172.8pt" viewBox="0 0 259.2 172.8" xmlns="http://www.w3.org/2000/svg" version="1.1">
 <metadata>
  <rdf:RDF xmlns:dc="http://purl.org/dc/elements/1.1/" xmlns:cc="http://creativecommons.org/ns#" xmlns:rdf="http://www.w3.org/1999/02/22-rdf-syntax-ns#">
   <cc:Work>
    <dc:type rdf:resource="http://purl.org/dc/dcmitype/StillImage"/>
    <dc:date>2026-01-29T16:37:08.991916</dc:date>
    <dc:format>image/svg+xml</dc:format>
    <dc:creator>
     <cc:Agent>
      <dc:title>Matplotlib v3.10.8, https://matplotlib.org/</dc:title>
     </cc:Agent>
    </dc:creator>
   </cc:Work>
  </rdf:RDF>
 </metadata>
 <defs>
  <style type="text/css">*{stroke-linejoin: round; stroke-linecap: butt}</style>
 </defs>
 <g id="figure_1">
  <g id="patch_1">
   <path d="M 0 172.8 
L 259.2 172.8 
L 259.2 0 
L 0 0 
L 0 172.8 
z
" style="fill: none"/>
  </g>
  <g id="axes_1">
   <g id="matplotlib.axis_1"/>
   <g id="matplotlib.axis_2"/>
   <g id="text_1">
    <!-- $x_1$ -->
    <g style="fill: #ffffff" transform="translate(-0.216 114) scale(0.24 -0.24)">
     <defs>
      <path id="Cmmi10-78" d="M 500 184 
Q 613 97 819 97 
Q 1019 97 1172 289 
Q 1325 481 1381 709 
L 1672 1844 
Q 1741 2153 1741 2266 
Q 1741 2425 1652 2544 
Q 1563 2663 1403 2663 
Q 1200 2663 1022 2536 
Q 844 2409 722 2214 
Q 600 2019 550 1819 
Q 538 1778 500 1778 
L 422 1778 
Q 372 1778 372 1838 
L 372 1856 
Q 434 2094 584 2320 
Q 734 2547 951 2687 
Q 1169 2828 1416 2828 
Q 1650 2828 1839 2703 
Q 2028 2578 2106 2363 
Q 2216 2559 2386 2693 
Q 2556 2828 2759 2828 
Q 2897 2828 3040 2779 
Q 3184 2731 3275 2631 
Q 3366 2531 3366 2381 
Q 3366 2219 3261 2101 
Q 3156 1984 2994 1984 
Q 2891 1984 2822 2050 
Q 2753 2116 2753 2216 
Q 2753 2350 2845 2451 
Q 2938 2553 3066 2572 
Q 2950 2663 2747 2663 
Q 2541 2663 2389 2472 
Q 2238 2281 2175 2047 
L 1894 916 
Q 1825 659 1825 494 
Q 1825 331 1917 214 
Q 2009 97 2163 97 
Q 2463 97 2698 361 
Q 2934 625 3009 941 
Q 3022 978 3059 978 
L 3138 978 
Q 3163 978 3178 961 
Q 3194 944 3194 922 
Q 3194 916 3188 903 
Q 3097 522 2806 225 
Q 2516 -72 2150 -72 
Q 1916 -72 1727 54 
Q 1538 181 1459 397 
Q 1359 209 1182 68 
Q 1006 -72 806 -72 
Q 669 -72 523 -23 
Q 378 25 287 125 
Q 197 225 197 378 
Q 197 528 301 651 
Q 406 775 563 775 
Q 669 775 741 711 
Q 813 647 813 544 
Q 813 409 723 309 
Q 634 209 500 184 
z
" transform="scale(0.015625)"/>
      <path id="Cmr10-31" d="M 594 0 
L 594 225 
Q 1394 225 1394 428 
L 1394 3788 
Q 1063 3628 556 3628 
L 556 3853 
Q 1341 3853 1741 4263 
L 1831 4263 
Q 1853 4263 1873 4245 
Q 1894 4228 1894 4206 
L 1894 428 
Q 1894 225 2694 225 
L 2694 0 
L 594 0 
z
" transform="scale(0.015625)"/>
     </defs>
     <use xlink:href="#Cmmi10-78" transform="translate(0 0.8125)"/>
     <use xlink:href="#Cmr10-31" transform="translate(57.080078 -16.19375) scale(0.7)"/>
    </g>
   </g>
   <g id="text_2">
    <!-- $x_2$ -->
    <g style="fill: #ffffff" transform="translate(235.656 114) scale(0.24 -0.24)">
     <defs>
      <path id="Cmr10-32" d="M 319 0 
L 319 172 
Q 319 188 331 206 
L 1325 1306 
Q 1550 1550 1690 1715 
Q 1831 1881 1968 2097 
Q 2106 2313 2186 2536 
Q 2266 2759 2266 3009 
Q 2266 3272 2169 3511 
Q 2072 3750 1880 3894 
Q 1688 4038 1416 4038 
Q 1138 4038 916 3870 
Q 694 3703 603 3438 
Q 628 3444 672 3444 
Q 816 3444 917 3347 
Q 1019 3250 1019 3097 
Q 1019 2950 917 2848 
Q 816 2747 672 2747 
Q 522 2747 420 2851 
Q 319 2956 319 3097 
Q 319 3338 409 3548 
Q 500 3759 670 3923 
Q 841 4088 1055 4175 
Q 1269 4263 1509 4263 
Q 1875 4263 2190 4108 
Q 2506 3953 2690 3670 
Q 2875 3388 2875 3009 
Q 2875 2731 2753 2481 
Q 2631 2231 2440 2026 
Q 2250 1822 1953 1562 
Q 1656 1303 1563 1216 
L 838 519 
L 1453 519 
Q 1906 519 2211 526 
Q 2516 534 2534 550 
Q 2609 631 2688 1141 
L 2875 1141 
L 2694 0 
L 319 0 
z
" transform="scale(0.015625)"/>
     </defs>
     <use xlink:href="#Cmmi10-78" transform="translate(0 0.8125)"/>
     <use xlink:href="#Cmr10-32" transform="translate(57.080078 -16.19375) scale(0.7)"/>
    </g>
   </g>
   <g id="text_3">
    <!-- $p$ -->
    <g style="fill: #ffffff" transform="translate(37.08 144.09375) scale(0.24 -0.24)">
     <defs>
      <path id="Cmmi10-70" d="M -159 -1241 
Q -219 -1241 -219 -1159 
Q -197 -1019 -134 -1019 
Q 66 -1019 145 -983 
Q 225 -947 269 -800 
L 991 2081 
Q 1038 2200 1038 2388 
Q 1038 2663 850 2663 
Q 650 2663 553 2423 
Q 456 2184 366 1819 
Q 366 1778 313 1778 
L 238 1778 
Q 222 1778 203 1801 
Q 184 1825 184 1844 
Q 253 2122 317 2315 
Q 381 2509 517 2668 
Q 653 2828 856 2828 
Q 1075 2828 1240 2704 
Q 1406 2581 1453 2369 
Q 1628 2572 1840 2700 
Q 2053 2828 2278 2828 
Q 2547 2828 2745 2684 
Q 2944 2541 3044 2308 
Q 3144 2075 3144 1806 
Q 3144 1394 2933 953 
Q 2722 513 2361 220 
Q 2000 -72 1588 -72 
Q 1400 -72 1248 34 
Q 1097 141 1013 313 
L 722 -825 
Q 706 -919 703 -934 
Q 703 -1019 1125 -1019 
Q 1191 -1019 1191 -1100 
Q 1169 -1184 1155 -1212 
Q 1141 -1241 1081 -1241 
L -159 -1241 
z
M 1594 97 
Q 1816 97 2006 280 
Q 2197 463 2316 691 
Q 2403 863 2479 1111 
Q 2556 1359 2612 1640 
Q 2669 1922 2669 2088 
Q 2669 2234 2630 2362 
Q 2591 2491 2502 2577 
Q 2413 2663 2266 2663 
Q 2031 2663 1823 2495 
Q 1616 2328 1447 2081 
L 1447 2059 
L 1094 647 
Q 1138 419 1263 258 
Q 1388 97 1594 97 
z
" transform="scale(0.015625)"/>
     </defs>
     <use xlink:href="#Cmmi10-70" transform="translate(0 0.8125)"/>
    </g>
   </g>
   <g id="text_4">
    <!-- $p$ -->
    <g style="fill: #ffffff" transform="translate(209.88 144.09375) scale(0.24 -0.24)">
     <use xlink:href="#Cmmi10-70" transform="translate(0 0.8125)"/>
    </g>
   </g>
   <g id="text_5">
    <!-- $k$ -->
    <g style="fill: #ffffff" transform="translate(123.24 49.2) scale(0.24 -0.24)">
     <defs>
      <path id="Cmmi10-6b" d="M 341 116 
Q 341 153 347 172 
L 1275 3872 
Q 1300 3981 1306 4044 
Q 1306 4147 891 4147 
Q 825 4147 825 4231 
Q 828 4247 839 4287 
Q 850 4328 867 4350 
Q 884 4372 916 4372 
L 1778 4441 
L 1797 4441 
Q 1797 4434 1819 4423 
Q 1841 4413 1844 4409 
Q 1856 4378 1856 4359 
L 1184 1684 
Q 1416 1781 1767 2145 
Q 2119 2509 2317 2668 
Q 2516 2828 2816 2828 
Q 2994 2828 3119 2706 
Q 3244 2584 3244 2406 
Q 3244 2294 3197 2198 
Q 3150 2103 3065 2043 
Q 2981 1984 2869 1984 
Q 2766 1984 2695 2048 
Q 2625 2113 2625 2216 
Q 2625 2369 2733 2473 
Q 2841 2578 2994 2578 
Q 2931 2663 2803 2663 
Q 2613 2663 2436 2553 
Q 2259 2444 2054 2239 
Q 1850 2034 1681 1864 
Q 1513 1694 1369 1606 
Q 1747 1563 2025 1408 
Q 2303 1253 2303 934 
Q 2303 869 2278 769 
Q 2222 528 2222 384 
Q 2222 97 2419 97 
Q 2650 97 2770 350 
Q 2891 603 2969 941 
Q 2981 978 3022 978 
L 3097 978 
Q 3122 978 3139 962 
Q 3156 947 3156 922 
Q 3156 916 3150 903 
Q 2909 -72 2406 -72 
Q 2225 -72 2086 12 
Q 1947 97 1872 242 
Q 1797 388 1797 569 
Q 1797 672 1825 781 
Q 1844 856 1844 922 
Q 1844 1169 1625 1297 
Q 1406 1425 1125 1453 
L 800 147 
Q 775 50 703 -11 
Q 631 -72 538 -72 
Q 456 -72 398 -17 
Q 341 38 341 116 
z
" transform="scale(0.015625)"/>
     </defs>
     <use xlink:href="#Cmmi10-6b" transform="translate(0 0.609375)"/>
    </g>
   </g>
   <g id="text_6">
    <!-- $p - k$ -->
    <g style="fill: #ffffff" transform="translate(103.68 144.24) scale(0.24 -0.24)">
     <defs>
      <path id="Cmsy10-a1" d="M 653 1472 
Q 600 1472 565 1512 
Q 531 1553 531 1600 
Q 531 1647 565 1687 
Q 600 1728 653 1728 
L 4325 1728 
Q 4375 1728 4408 1687 
Q 4441 1647 4441 1600 
Q 4441 1553 4408 1512 
Q 4375 1472 4325 1472 
L 653 1472 
z
" transform="scale(0.015625)"/>
     </defs>
     <use xlink:href="#Cmmi10-70" transform="translate(0 0.609375)"/>
     <use xlink:href="#Cmsy10-a1" transform="translate(67.851562 0.609375)"/>
     <use xlink:href="#Cmmi10-6b" transform="translate(163.095703 0.609375)"/>
    </g>
   </g>
   <g id="line2d_1">
    <path d="M 21.6 120.96 
L 64.8 120.96 
L 64.8 120.96 
" clip-path="url(#p93ae7defd2)" style="fill: none; stroke: #ffffff; stroke-width: 2"/>
   </g>
   <g id="line2d_2">
    <path d="M 194.4 120.96 
L 237.6 120.96 
L 237.6 120.96 
" clip-path="url(#p93ae7defd2)" style="fill: none; stroke: #ffffff; stroke-width: 2"/>
   </g>
   <g id="line2d_3">
    <path d="M 64.8 120.96 
L 194.4 120.96 
L 194.4 120.96 
" clip-path="url(#p93ae7defd2)" style="fill: none; stroke: #ffffff; stroke-width: 2"/>
   </g>
   <g id="line2d_4">
    <path d="M 64.8 120.96 
L 60.823915 120.015558 
L 57.430855 118.944751 
L 56.109664 118.380162 
L 55.105603 117.809539 
L 54.455124 117.244358 
L 54.18204 116.69647 
L 54.296685 116.177438 
L 54.795556 115.69786 
L 55.661465 115.266739 
L 56.864179 114.890908 
L 60.101042 114.318862 
L 64.056315 113.978025 
L 70.130938 113.767295 
L 74.743378 113.580699 
L 75.698726 113.444188 
L 76.303952 113.242496 
L 76.542252 112.961201 
L 76.410234 112.588564 
L 75.917981 112.116201 
L 73.957443 110.858636 
L 63.929442 105.124406 
L 60.927866 103.040177 
L 59.773585 102.076118 
L 58.913267 101.197524 
L 58.38111 100.426853 
L 58.199427 99.78325 
L 58.377916 99.281645 
L 58.913405 98.931986 
L 59.790063 98.73866 
L 60.980059 98.700116 
L 62.444664 98.808714 
L 65.997518 99.407166 
L 69.98483 100.360806 
L 78.544723 102.650672 
L 80.310604 102.838274 
L 80.714074 102.669943 
L 80.789773 102.306953 
L 80.546515 101.743021 
L 79.194932 100.024752 
L 70.162968 90.144172 
L 68.194194 87.420294 
L 67.562108 86.277915 
L 67.206858 85.326581 
L 67.147425 84.592186 
L 67.392058 84.09317 
L 67.938106 83.839689 
L 68.772261 83.833073 
L 69.871175 84.06561 
L 71.202437 84.520666 
L 74.395061 85.990262 
L 77.964781 87.955707 
L 85.810938 92.56138 
L 87.622949 93.305546 
L 88.144073 93.301401 
L 88.402194 93.02272 
L 88.404507 92.463919 
L 88.167381 91.629662 
L 87.081409 89.204145 
L 81.81971 78.623795 
L 80.584785 75.372621 
L 80.236348 74.036298 
L 80.099205 72.948868 
L 80.187559 72.142127 
L 80.507314 71.638112 
L 81.056023 71.44819 
L 81.823137 71.572532 
L 82.790554 71.999989 
L 83.933422 72.708387 
L 86.618796 74.828748 
L 89.589288 77.571555 
L 97.188438 84.876448 
L 97.952526 85.380039 
L 98.530379 85.572939 
L 98.921116 85.437038 
L 99.130735 84.966067 
L 99.171725 84.165921 
L 98.826321 81.66131 
L 96.15014 68.282897 
L 95.94828 65.139825 
L 96.052506 63.96893 
L 96.306191 63.117311 
L 96.711809 62.610474 
L 97.266251 62.461756 
L 97.961109 62.671778 
L 98.783148 63.228353 
L 99.714952 64.10686 
L 101.822072 66.674375 
L 104.09155 69.970235 
L 110.001323 79.030165 
L 110.676475 79.772712 
L 111.242395 80.176222 
L 111.700841 80.219843 
L 112.057617 79.895688 
L 112.322185 79.209172 
L 112.507151 78.178858 
L 112.700622 75.222662 
L 112.97993 65.1788 
L 113.347364 61.50976 
L 113.630531 60.013617 
L 113.986349 58.813531 
L 114.415654 57.949838 
L 114.916251 57.45102 
L 115.48316 57.33265 
L 116.108967 57.596806 
L 116.784262 58.231965 
L 117.498155 59.213395 
L 118.238823 60.504016 
L 119.751978 63.811036 
L 121.935534 69.629292 
L 123.830278 74.78929 
L 124.897746 77.01348 
L 125.379223 77.621844 
L 125.832938 77.859234 
L 126.265807 77.715818 
L 126.685529 77.195517 
L 127.100137 76.315882 
L 127.945052 73.612715 
L 130.972188 62.056954 
L 132.161748 58.881896 
L 132.771816 57.707576 
L 133.38215 56.868741 
L 133.984582 56.395886 
L 134.5709 56.306502 
L 135.133313 56.604459 
L 135.664905 57.279874 
L 136.160058 58.309479 
L 136.614823 59.657464 
L 137.397406 63.110831 
L 138.023308 67.161574 
L 139.276346 76.242364 
L 139.560579 77.368928 
L 139.884251 78.156068 
L 140.258363 78.579113 
L 140.692343 78.626598 
L 141.193536 78.300637 
L 141.766765 77.616829 
L 143.134025 75.301443 
L 149.476272 63.136723 
L 151.253683 60.680784 
L 152.047577 59.909584 
L 152.757085 59.488009 
L 153.369406 59.434517 
L 153.874969 59.754437 
L 154.267954 60.439825 
L 154.546672 61.469793 
L 154.713798 62.811319 
L 154.745982 66.244039 
L 154.471138 70.287092 
L 153.583493 79.58458 
L 153.666034 81.733527 
L 153.887671 82.310802 
L 154.248676 82.536327 
L 154.757412 82.410764 
L 155.416855 81.947456 
L 157.171334 80.120622 
L 165.960639 69.683377 
L 168.28535 67.561816 
L 169.261904 66.911067 
L 170.081618 66.576105 
L 170.725932 66.574695 
L 171.182244 66.912599 
L 171.444531 67.583467 
L 171.513737 68.569156 
L 171.397905 69.840476 
L 170.677741 73.075226 
L 169.478842 76.884913 
L 165.908965 87.056774 
L 165.716097 88.028062 
L 165.72056 88.702811 
L 165.940511 89.069988 
L 166.386467 89.129821 
L 167.060763 88.893677 
L 169.061598 87.63103 
L 173.360622 84.353248 
L 178.339225 80.651664 
L 181.429147 78.672569 
L 182.768456 77.9708 
L 183.917608 77.50803 
L 184.844157 77.308654 
L 185.523125 77.387308 
L 185.938045 77.748472 
L 186.081707 78.386446 
L 185.95657 79.285703 
L 185.574828 80.421593 
L 184.95812 81.761376 
L 183.14935 84.88931 
L 180.859571 88.300894 
L 175.741448 95.562224 
L 175.222367 96.484802 
L 174.963374 97.17418 
L 174.98786 97.622816 
L 175.309105 97.832126 
L 175.929655 97.812265 
L 176.841091 97.581581 
L 179.449506 96.596843 
L 188.60898 92.836691 
L 192.168698 91.669929 
L 193.694436 91.301345 
L 194.984185 91.108564 
L 195.997439 91.107483 
L 196.703155 91.306595 
L 197.080988 91.706853 
L 197.122138 92.301829 
L 196.829793 93.078145 
L 196.219126 94.016158 
L 195.316867 95.090864 
L 192.796683 97.530202 
L 189.671757 100.133226 
L 181.655562 106.429823 
L 181.119702 107.030929 
L 180.918812 107.480954 
L 181.068674 107.784397 
L 181.572357 107.951207 
L 182.420013 107.996191 
L 185.045339 107.799522 
L 194.772248 106.762951 
L 198.587721 106.623503 
L 201.573563 106.843614 
L 202.623631 107.106358 
L 203.327785 107.47158 
L 203.662921 107.934512 
L 203.619017 108.48661 
L 203.199561 109.116103 
L 202.421476 109.808661 
L 201.314562 110.548157 
L 198.291216 112.099287 
L 194.575825 113.635098 
L 183.98493 117.63116 
L 183.562855 117.995168 
L 183.517346 118.323783 
L 183.851802 118.627592 
L 184.555778 118.918009 
L 186.963941 119.504475 
L 194.4 120.96 
L 194.4 120.96 
" clip-path="url(#p93ae7defd2)" style="fill: none; stroke: #ffffff; stroke-width: 2"/>
   </g>
   <g id="patch_2">
    <path d="M 54.054135 120.96 
L 43.254135 116.64 
L 45.198135 120.96 
L 43.254135 125.28 
z
" clip-path="url(#p93ae7defd2)" style="fill: #ffffff; stroke: #ffffff; stroke-linejoin: miter"/>
   </g>
   <g id="patch_3">
    <path d="M 226.854135 120.96 
L 216.054135 116.64 
L 217.998135 120.96 
L 216.054135 125.28 
z
" clip-path="url(#p93ae7defd2)" style="fill: #ffffff; stroke: #ffffff; stroke-linejoin: miter"/>
   </g>
   <g id="patch_4">
    <path d="M 140.562406 120.96 
L 129.762406 116.64 
L 131.706406 120.96 
L 129.762406 125.28 
z
" clip-path="url(#p93ae7defd2)" style="fill: #ffffff; stroke: #ffffff; stroke-linejoin: miter"/>
   </g>
   <g id="line2d_5"/>
   <g id="line2d_6"/>
   <g id="line2d_7">
    <defs>
     <path id="m6f4d2b634f" d="M 0 2 
C 0.530406 2 1.03916 1.789267 1.414214 1.414214 
C 1.789267 1.03916 2 0.530406 2 0 
C 2 -0.530406 1.789267 -1.03916 1.414214 -1.414214 
C 1.03916 -1.789267 0.530406 -2 0 -2 
C -0.530406 -2 -1.03916 -1.789267 -1.414214 -1.414214 
C -1.789267 -1.03916 -2 -0.530406 -2 0 
C -2 0.530406 -1.789267 1.03916 -1.414214 1.414214 
C -1.03916 1.789267 -0.530406 2 0 2 
z
" style="stroke: #ffffff"/>
    </defs>
    <g clip-path="url(#p93ae7defd2)">
     <use xlink:href="#m6f4d2b634f" x="64.8" y="120.96" style="fill: #ffffff; stroke: #ffffff"/>
    </g>
   </g>
   <g id="line2d_8">
    <g clip-path="url(#p93ae7defd2)">
     <use xlink:href="#m6f4d2b634f" x="194.4" y="120.96" style="fill: #ffffff; stroke: #ffffff"/>
    </g>
   </g>
  </g>
 </g>
 <defs>
  <clipPath id="p93ae7defd2">
   <rect x="0" y="0" width="259.2" height="172.8"/>
  </clipPath>
 </defs>
</svg>
