<?xml version="1.0" encoding="utf-8" standalone="no"?>
<!DOCTYPE svg PUBLIC "-//W3C//DTD SVG 1.1//EN"
  "http://www.w3.org/Graphics/SVG/1.1/DTD/svg11.dtd">
<svg xmlns:xlink="http://www.w3.org/1999/xlink" width="345.6pt" height="172.8pt" viewBox="0 0 345.6 172.8" xmlns="http://www.w3.org/2000/svg" version="1.1">
 <metadata>
  <rdf:RDF xmlns:dc="http://purl.org/dc/elements/1.1/" xmlns:cc="http://creativecommons.org/ns#" xmlns:rdf="http://www.w3.org/1999/02/22-rdf-syntax-ns#">
   <cc:Work>
    <dc:type rdf:resource="http://purl.org/dc/dcmitype/StillImage"/>
    <dc:date>2026-02-20T14:08:56.742995</dc:date>
    <dc:format>image/svg+xml</dc:format>
    <dc:creator>
     <cc:Agent>
      <dc:title>Matplotlib v3.10.8, https://matplotlib.org/</dc:title>
     </cc:Agent>
    </dc:creator>
   </cc:Work>
  </rdf:RDF>
 </metadata>
 <defs>
  <style type="text/css">*{stroke-linejoin: round; stroke-linecap: butt}</style>
 </defs>
 <g id="figure_1">
  <g id="patch_1">
   <path d="M 0 172.8 
L 345.6 172.8 
L 345.6 0 
L 0 0 
L 0 172.8 
z
" style="fill: none"/>
  </g>
  <g id="axes_1">
   <g id="patch_2">
    <path d="M 230.4 108 
C 235.4919 108 240.375934 105.724088 243.97645 101.673506 
C 247.576967 97.622925 249.6 92.128387 249.6 86.4 
C 249.6 80.671613 247.576967 75.177075 243.97645 71.126494 
C 240.375934 67.075912 235.4919 64.8 230.4 64.8 
C 225.3081 64.8 220.424066 67.075912 216.82355 71.126494 
C 213.223033 75.177075 211.2 80.671613 211.2 86.4 
C 211.2 92.128387 213.223033 97.622925 216.82355 101.673506 
C 220.424066 105.724088 225.3081 108 230.4 108 
z
" clip-path="url(#p0ef0ffb208)" style="fill: #ffffff; opacity: 0.5; stroke: #ffffff; stroke-width: 1.5; stroke-linejoin: miter"/>
   </g>
   <g id="matplotlib.axis_1"/>
   <g id="matplotlib.axis_2"/>
   <g id="text_1">
    <!-- $X$ -->
    <g style="fill: #ffffff" transform="translate(307.62 160.2) scale(0.36 -0.36)">
     <defs>
      <path id="Cmmi10-58" d="M 231 0 
Q 166 0 166 84 
Q 169 100 180 140 
Q 191 181 208 203 
Q 225 225 256 225 
Q 838 225 1253 659 
Q 1259 666 1267 669 
Q 1275 672 1275 672 
L 2675 2181 
L 1913 4019 
Q 1847 4103 1700 4125 
Q 1553 4147 1356 4147 
Q 1294 4147 1294 4231 
Q 1316 4313 1328 4342 
Q 1341 4372 1403 4372 
L 3003 4372 
Q 3066 4372 3066 4288 
Q 3063 4272 3052 4231 
Q 3041 4191 3023 4169 
Q 3006 4147 2975 4147 
Q 2856 4147 2729 4108 
Q 2603 4069 2553 3981 
L 3103 2656 
L 4153 3781 
Q 4163 3803 4197 3858 
Q 4231 3913 4231 3963 
Q 4231 4056 4150 4101 
Q 4069 4147 3956 4147 
Q 3891 4147 3891 4231 
Q 3913 4313 3925 4342 
Q 3938 4372 4000 4372 
L 5388 4372 
Q 5422 4372 5437 4347 
Q 5453 4322 5453 4288 
Q 5450 4272 5440 4234 
Q 5431 4197 5415 4172 
Q 5400 4147 5369 4147 
Q 5072 4147 4823 4039 
Q 4575 3931 4366 3713 
Q 4363 3709 4358 3707 
Q 4353 3706 4347 3700 
L 3188 2450 
L 4063 353 
Q 4166 225 4622 225 
Q 4684 225 4684 141 
Q 4663 56 4648 28 
Q 4634 0 4575 0 
L 2975 0 
Q 2913 0 2913 84 
Q 2916 100 2925 139 
Q 2934 178 2951 201 
Q 2969 225 2994 225 
Q 3119 225 3247 264 
Q 3375 303 3425 391 
L 2759 1984 
L 1466 588 
Q 1456 566 1422 512 
Q 1388 459 1388 409 
Q 1388 316 1475 270 
Q 1563 225 1663 225 
Q 1728 225 1728 141 
Q 1706 50 1693 25 
Q 1681 0 1619 0 
L 231 0 
z
" transform="scale(0.015625)"/>
     </defs>
     <use xlink:href="#Cmmi10-58" transform="translate(0 0.6875)"/>
    </g>
   </g>
   <g id="text_2">
    <!-- $p$ -->
    <g style="fill: #ffffff" transform="translate(313.38 30.380625) scale(0.36 -0.36)">
     <defs>
      <path id="Cmmi10-70" d="M -159 -1241 
Q -219 -1241 -219 -1159 
Q -197 -1019 -134 -1019 
Q 66 -1019 145 -983 
Q 225 -947 269 -800 
L 991 2081 
Q 1038 2200 1038 2388 
Q 1038 2663 850 2663 
Q 650 2663 553 2423 
Q 456 2184 366 1819 
Q 366 1778 313 1778 
L 238 1778 
Q 222 1778 203 1801 
Q 184 1825 184 1844 
Q 253 2122 317 2315 
Q 381 2509 517 2668 
Q 653 2828 856 2828 
Q 1075 2828 1240 2704 
Q 1406 2581 1453 2369 
Q 1628 2572 1840 2700 
Q 2053 2828 2278 2828 
Q 2547 2828 2745 2684 
Q 2944 2541 3044 2308 
Q 3144 2075 3144 1806 
Q 3144 1394 2933 953 
Q 2722 513 2361 220 
Q 2000 -72 1588 -72 
Q 1400 -72 1248 34 
Q 1097 141 1013 313 
L 722 -825 
Q 706 -919 703 -934 
Q 703 -1019 1125 -1019 
Q 1191 -1019 1191 -1100 
Q 1169 -1184 1155 -1212 
Q 1141 -1241 1081 -1241 
L -159 -1241 
z
M 1594 97 
Q 1816 97 2006 280 
Q 2197 463 2316 691 
Q 2403 863 2479 1111 
Q 2556 1359 2612 1640 
Q 2669 1922 2669 2088 
Q 2669 2234 2630 2362 
Q 2591 2491 2502 2577 
Q 2413 2663 2266 2663 
Q 2031 2663 1823 2495 
Q 1616 2328 1447 2081 
L 1447 2059 
L 1094 647 
Q 1138 419 1263 258 
Q 1388 97 1594 97 
z
" transform="scale(0.015625)"/>
     </defs>
     <use xlink:href="#Cmmi10-70" transform="translate(0 0.8125)"/>
    </g>
   </g>
   <g id="text_3">
    <!-- $e$ -->
    <g style="fill: #ffffff" transform="translate(14.58 160.2) scale(0.36 -0.36)">
     <defs>
      <path id="Cmmi10-65" d="M 1288 -72 
Q 981 -72 751 87 
Q 522 247 401 517 
Q 281 788 281 1088 
Q 281 1544 511 1945 
Q 741 2347 1134 2587 
Q 1528 2828 1978 2828 
Q 2253 2828 2458 2686 
Q 2663 2544 2663 2278 
Q 2663 1909 2369 1729 
Q 2075 1550 1706 1508 
Q 1338 1466 891 1466 
L 872 1466 
Q 769 1084 769 813 
Q 769 528 900 312 
Q 1031 97 1300 97 
Q 1681 97 2032 272 
Q 2384 447 2606 756 
Q 2625 775 2656 775 
Q 2688 775 2720 739 
Q 2753 703 2753 672 
Q 2753 647 2741 634 
Q 2506 306 2109 117 
Q 1713 -72 1288 -72 
z
M 909 1631 
Q 1281 1631 1597 1665 
Q 1913 1700 2169 1839 
Q 2425 1978 2425 2272 
Q 2425 2391 2359 2480 
Q 2294 2569 2189 2616 
Q 2084 2663 1972 2663 
Q 1700 2663 1483 2516 
Q 1266 2369 1125 2133 
Q 984 1897 909 1631 
z
" transform="scale(0.015625)"/>
     </defs>
     <use xlink:href="#Cmmi10-65" transform="translate(0 0.8125)"/>
    </g>
   </g>
   <g id="text_4">
    <!-- $e$ -->
    <g style="fill: #ffffff" transform="translate(14.58 30.6) scale(0.36 -0.36)">
     <use xlink:href="#Cmmi10-65" transform="translate(0 0.8125)"/>
    </g>
   </g>
   <g id="text_5">
    <!-- $q$ -->
    <g style="fill: #ffffff" transform="translate(166.5 41.389375) scale(0.28 -0.28)">
     <defs>
      <path id="Cmmi10-71" d="M 941 -1159 
Q 963 -1019 1025 -1019 
Q 1256 -1019 1389 -981 
Q 1522 -944 1563 -800 
L 1838 288 
Q 1472 -72 1106 -72 
Q 703 -72 473 233 
Q 244 538 244 953 
Q 244 1363 455 1803 
Q 666 2244 1027 2536 
Q 1388 2828 1806 2828 
Q 2000 2828 2156 2712 
Q 2313 2597 2394 2406 
Q 2431 2481 2601 2654 
Q 2772 2828 2841 2828 
Q 2913 2828 2913 2747 
L 2016 -825 
Q 2000 -919 1997 -934 
Q 1997 -1019 2419 -1019 
Q 2450 -1019 2467 -1044 
Q 2484 -1069 2484 -1100 
Q 2463 -1184 2448 -1212 
Q 2434 -1241 2375 -1241 
L 1006 -1241 
Q 941 -1241 941 -1159 
z
M 1119 97 
Q 1344 97 1558 267 
Q 1772 438 1931 672 
L 2291 2113 
Q 2253 2338 2126 2500 
Q 2000 2663 1791 2663 
Q 1575 2663 1389 2486 
Q 1203 2309 1075 2069 
Q 950 1813 836 1366 
Q 722 919 722 672 
Q 722 450 817 273 
Q 913 97 1119 97 
z
" transform="scale(0.015625)"/>
     </defs>
     <use xlink:href="#Cmmi10-71" transform="translate(0 0.8125)"/>
    </g>
   </g>
   <g id="text_6">
    <!-- $\longrightarrow$ -->
    <g style="fill: #ffffff" transform="translate(145.78 63.16) scale(0.28 -0.28)">
     <defs>
      <path id="STIXGeneral-Regular-27f6" d="M 9722 1651 
L 9722 1587 
Q 8986 1274 8198 365 
L 8070 486 
Q 8250 742 8595 1101 
Q 8685 1190 8685 1280 
Q 8685 1408 8518 1408 
L 352 1408 
L 352 1830 
L 8525 1830 
Q 8576 1830 8633 1878 
Q 8691 1926 8691 1971 
Q 8691 2042 8602 2131 
Q 8288 2432 8077 2752 
L 8205 2874 
Q 9005 1952 9722 1651 
z
" transform="scale(0.015625)"/>
     </defs>
     <use xlink:href="#STIXGeneral-Regular-27f6" transform="translate(17.558594 0.09375)"/>
    </g>
   </g>
   <g id="text_7">
    <!-- $p'$ -->
    <g style="fill: #ffffff" transform="translate(218.78 159.32) scale(0.28 -0.28)">
     <defs>
      <path id="Cmsy10-30" d="M 225 347 
Q 184 359 184 409 
L 966 3316 
Q 1003 3434 1093 3506 
Q 1184 3578 1300 3578 
Q 1450 3578 1564 3479 
Q 1678 3381 1678 3231 
Q 1678 3166 1644 3084 
L 488 319 
Q 466 275 428 275 
Q 394 275 320 306 
Q 247 338 225 347 
z
" transform="scale(0.015625)"/>
     </defs>
     <use xlink:href="#Cmmi10-70" transform="translate(0 0.601562)"/>
     <use xlink:href="#Cmsy10-30" transform="translate(56.59625 38.865625) scale(0.7)"/>
    </g>
   </g>
   <g id="text_8">
    <!-- $p$ -->
    <g style="fill: #ffffff" transform="translate(269.34 28.429375) scale(0.28 -0.28)">
     <use xlink:href="#Cmmi10-70" transform="translate(0 0.8125)"/>
    </g>
   </g>
   <g id="text_9">
    <!-- $l' E'$ -->
    <g style="fill: #ffffff" transform="translate(59.56 158.2) scale(0.28 -0.28)">
     <defs>
      <path id="Cmmi10-6c" d="M 281 519 
Q 281 538 286 575 
Q 291 613 295 648 
Q 300 684 300 703 
L 1094 3872 
Q 1119 3981 1125 4044 
Q 1125 4147 709 4147 
Q 647 4147 647 4231 
Q 650 4247 661 4287 
Q 672 4328 689 4350 
Q 706 4372 738 4372 
L 1600 4441 
Q 1678 4441 1678 4359 
L 756 678 
Q 709 575 709 372 
Q 709 97 897 97 
Q 1094 97 1192 342 
Q 1291 588 1369 941 
Q 1381 978 1422 978 
L 1497 978 
Q 1522 978 1539 958 
Q 1556 938 1556 916 
Q 1481 606 1420 426 
Q 1359 247 1225 87 
Q 1091 -72 884 -72 
Q 628 -72 454 93 
Q 281 259 281 519 
z
" transform="scale(0.015625)"/>
      <path id="Cmmi10-45" d="M 300 0 
Q 238 0 238 84 
Q 241 100 250 139 
Q 259 178 276 201 
Q 294 225 319 225 
Q 709 225 863 269 
Q 947 297 984 441 
L 1863 3956 
Q 1875 4019 1875 4044 
Q 1875 4113 1797 4122 
Q 1678 4147 1338 4147 
Q 1275 4147 1275 4231 
Q 1278 4247 1287 4286 
Q 1297 4325 1314 4348 
Q 1331 4372 1356 4372 
L 4825 4372 
Q 4891 4372 4891 4288 
L 4738 2963 
Q 4738 2947 4714 2926 
Q 4691 2906 4672 2906 
L 4616 2906 
Q 4550 2906 4550 2988 
Q 4588 3300 4588 3450 
Q 4588 3706 4500 3848 
Q 4413 3991 4267 4053 
Q 4122 4116 3945 4131 
Q 3769 4147 3481 4147 
L 2753 4147 
Q 2578 4147 2522 4117 
Q 2466 4088 2419 3928 
L 2034 2381 
L 2534 2381 
Q 2859 2381 3025 2426 
Q 3191 2472 3287 2615 
Q 3384 2759 3463 3072 
Q 3469 3094 3486 3111 
Q 3503 3128 3525 3128 
L 3584 3128 
Q 3647 3128 3647 3047 
L 3250 1466 
Q 3238 1409 3188 1409 
L 3128 1409 
Q 3066 1409 3066 1491 
Q 3128 1747 3128 1869 
Q 3128 2056 2959 2106 
Q 2791 2156 2509 2156 
L 1978 2156 
L 1544 416 
Q 1516 338 1516 275 
Q 1516 225 1734 225 
L 2509 225 
Q 2972 225 3259 297 
Q 3547 369 3736 526 
Q 3925 684 4062 928 
Q 4200 1172 4397 1638 
Q 4409 1678 4453 1678 
L 4513 1678 
Q 4538 1678 4556 1656 
Q 4575 1634 4575 1606 
Q 4575 1594 4569 1581 
L 3909 38 
Q 3897 0 3859 0 
L 300 0 
z
" transform="scale(0.015625)"/>
     </defs>
     <use xlink:href="#Cmmi10-6c" transform="translate(0 0.601562)"/>
     <use xlink:href="#Cmsy10-30" transform="translate(41.381094 38.865625) scale(0.7)"/>
     <use xlink:href="#Cmmi10-45" transform="translate(67.001602 0.601562)"/>
     <use xlink:href="#Cmsy10-30" transform="translate(152.15043 38.865625) scale(0.7)"/>
    </g>
   </g>
   <g id="text_10">
    <!-- $l,E$ -->
    <g style="fill: #ffffff" transform="translate(63.62 32.92) scale(0.28 -0.28)">
     <defs>
      <path id="Cmmi10-3b" d="M 634 -1153 
Q 634 -1125 659 -1100 
Q 891 -878 1019 -587 
Q 1147 -297 1147 25 
L 1147 103 
Q 1044 0 891 0 
Q 744 0 641 103 
Q 538 206 538 353 
Q 538 503 641 603 
Q 744 703 891 703 
Q 1119 703 1216 492 
Q 1313 281 1313 25 
Q 1313 -331 1170 -651 
Q 1028 -972 769 -1228 
Q 744 -1241 728 -1241 
Q 697 -1241 665 -1212 
Q 634 -1184 634 -1153 
z
" transform="scale(0.015625)"/>
     </defs>
     <use xlink:href="#Cmmi10-6c" transform="translate(0 0.609375)"/>
     <use xlink:href="#Cmmi10-3b" transform="translate(29.785156 0.609375)"/>
     <use xlink:href="#Cmmi10-45" transform="translate(75.029297 0.609375)"/>
    </g>
   </g>
   <g id="line2d_1">
    <path d="M 307.2 17.28 
L 243.97645 71.126494 
L 243.97645 71.126494 
" clip-path="url(#p0ef0ffb208)" style="fill: none; stroke: #ffffff; stroke-width: 3.6"/>
   </g>
   <g id="line2d_2">
    <path d="M 241.988274 103.622126 
L 286.023716 169.066205 
L 286.023716 169.066205 
" clip-path="url(#p0ef0ffb208)" style="fill: none; stroke: #ffffff; stroke-opacity: 0.5; stroke-width: 1.5"/>
   </g>
   <g id="line2d_3">
    <path d="M 243.432974 102.261366 
L 292.958277 162.534558 
L 292.958277 162.534558 
" clip-path="url(#p0ef0ffb208)" style="fill: none; stroke: #ffffff; stroke-opacity: 0.5; stroke-width: 1.5"/>
   </g>
   <g id="line2d_4">
    <path d="M 244.75216 100.747853 
L 299.290367 155.269693 
L 299.290367 155.269693 
" clip-path="url(#p0ef0ffb208)" style="fill: none; stroke: #ffffff; stroke-opacity: 0.5; stroke-width: 1.5"/>
   </g>
   <g id="line2d_5">
    <path d="M 115.2 86.4 
L 38.4 155.52 
L 38.4 155.52 
" clip-path="url(#p0ef0ffb208)" style="fill: none; stroke: #ffffff; stroke-width: 2"/>
   </g>
   <g id="line2d_6">
    <path d="M 38.4 17.28 
L 115.2 86.4 
L 115.2 86.4 
" clip-path="url(#p0ef0ffb208)" style="fill: none; stroke: #ffffff; stroke-width: 2"/>
   </g>
   <g id="line2d_7">
    <path d="M 115.2 86.4 
L 116.884211 80.744333 
L 117.846617 78.172448 
L 118.568421 76.763654 
L 119.290226 75.890027 
L 119.771429 75.630199 
L 120.252632 75.636887 
L 120.733835 75.909927 
L 121.215038 76.44256 
L 121.936842 77.697737 
L 122.658647 79.436204 
L 123.621053 82.335859 
L 127.230075 94.111544 
L 127.95188 95.666883 
L 128.673684 96.707574 
L 129.154887 97.085627 
L 129.63609 97.199247 
L 130.117293 97.045621 
L 130.598496 96.628553 
L 131.079699 95.958361 
L 131.801504 94.516365 
L 132.76391 91.910085 
L 134.207519 87.079835 
L 136.132331 80.600153 
L 137.094737 78.0633 
L 137.816541 76.688059 
L 138.538346 75.852183 
L 139.019549 75.618825 
L 139.500752 75.652266 
L 139.981955 75.951676 
L 140.463158 76.509648 
L 141.184962 77.799534 
L 141.906767 79.567057 
L 142.869173 82.493926 
L 146.478195 94.229652 
L 147.2 95.753074 
L 147.921805 96.757063 
L 148.403008 97.108987 
L 148.884211 97.195899 
L 149.365414 97.01565 
L 149.846617 96.572698 
L 150.568421 95.441398 
L 151.290226 93.807973 
L 152.252632 91.009186 
L 154.177444 84.37127 
L 155.621053 79.766503 
L 156.583459 77.452739 
L 157.305263 76.285679 
L 157.786466 75.816954 
L 158.267669 75.610125 
L 158.748872 75.670309 
L 159.230075 75.996017 
L 159.711278 76.579188 
L 160.433083 77.903463 
L 161.154887 79.699604 
L 162.357895 83.461283 
L 165.245113 93.100396 
L 166.207519 95.394608 
L 166.929323 96.543824 
L 167.410526 96.999676 
L 167.891729 97.193222 
L 168.372932 97.119671 
L 168.854135 96.780845 
L 169.335338 96.185127 
L 170.057143 94.84378 
L 171.019549 92.342589 
L 172.222556 88.42873 
L 174.628571 80.316143 
L 175.590977 77.851234 
L 176.312782 76.544113 
L 176.793985 75.973523 
L 177.275188 75.660955 
L 177.756391 75.614141 
L 178.237594 75.834241 
L 178.718797 76.315808 
L 179.440602 77.500641 
L 180.162406 79.179711 
L 181.124812 82.022786 
L 183.290226 89.502 
L 184.493233 93.232943 
L 185.455639 95.487627 
L 186.177444 96.600942 
L 186.658647 97.030965 
L 187.13985 97.197908 
L 187.621053 97.097639 
L 188.102256 96.732639 
L 188.583459 96.111941 
L 189.305263 94.7367 
L 190.267669 92.199847 
L 191.470677 88.261441 
L 193.876692 80.176384 
L 194.839098 77.748367 
L 195.560902 76.475797 
L 196.042105 75.930477 
L 196.523308 75.644243 
L 197.004511 75.624178 
L 197.485714 75.870779 
L 197.966917 76.377942 
L 198.688722 77.598098 
L 199.410526 79.307078 
L 200.372932 82.178799 
L 204.222556 94.572212 
L 204.944361 95.997651 
L 205.666165 96.890073 
L 206.147368 97.163113 
L 206.628571 97.169801 
L 207.109774 96.909973 
L 207.590977 96.390059 
L 208.312782 95.152354 
L 209.034586 93.428577 
L 209.996992 90.542799 
L 211.2 86.4 
L 211.2 86.4 
" clip-path="url(#p0ef0ffb208)" style="fill: none; stroke: #ffffff; stroke-width: 2"/>
   </g>
   <g id="line2d_8">
    <path d="M 245.933126 99.096161 
L 304.959006 147.341575 
L 304.959006 147.341575 
" clip-path="url(#p0ef0ffb208)" style="fill: none; stroke: #ffffff; stroke-width: 2"/>
   </g>
   <g id="line2d_9">
    <path d="M 240.431972 104.817028 
L 278.007812 173.8 
L 278.007812 173.8 
" clip-path="url(#p0ef0ffb208)" style="fill: none; stroke: #ffffff; stroke-width: 2"/>
   </g>
   <g id="line2d_10">
    <path d="M 307.2 17.28 
L 243.97645 71.126494 
L 243.97645 71.126494 
" clip-path="url(#p0ef0ffb208)" style="fill: none; stroke: #ffffff"/>
   </g>
   <g id="patch_3">
    <path d="M 69.207419 127.793323 
L 79.102588 124.41997 
L 75.354418 122.261024 
L 74.30493 117.673263 
z
" clip-path="url(#p0ef0ffb208)" style="fill: #ffffff; stroke: #ffffff; stroke-linejoin: miter"/>
   </g>
   <g id="patch_4">
    <path d="M 84.392581 58.673323 
L 79.29507 48.553263 
L 78.245582 53.141024 
L 74.497412 55.29997 
z
" clip-path="url(#p0ef0ffb208)" style="fill: #ffffff; stroke: #ffffff; stroke-linejoin: miter"/>
   </g>
   <g id="patch_5">
    <path d="M 267.854986 50.789524 
L 277.826793 47.715029 
L 274.131275 45.444108 
L 273.191202 40.826418 
z
" clip-path="url(#p0ef0ffb208)" style="fill: #ffffff; stroke: #ffffff; stroke-linejoin: miter"/>
   </g>
   <g id="line2d_11"/>
   <g id="line2d_12"/>
   <g id="line2d_13">
    <defs>
     <path id="m0f155c3314" d="M 0 2 
C 0.530406 2 1.03916 1.789267 1.414214 1.414214 
C 1.789267 1.03916 2 0.530406 2 0 
C 2 -0.530406 1.789267 -1.03916 1.414214 -1.414214 
C 1.03916 -1.789267 0.530406 -2 0 -2 
C -0.530406 -2 -1.03916 -1.789267 -1.414214 -1.414214 
C -1.789267 -1.03916 -2 -0.530406 -2 0 
C -2 0.530406 -1.789267 1.03916 -1.414214 1.414214 
C -1.03916 1.789267 -0.530406 2 0 2 
z
" style="stroke: #ffffff"/>
    </defs>
    <g clip-path="url(#p0ef0ffb208)">
     <use xlink:href="#m0f155c3314" x="115.2" y="86.4" style="fill: #ffffff; stroke: #ffffff"/>
    </g>
   </g>
   <g id="line2d_14"/>
   <g id="line2d_15"/>
   <g id="line2d_16"/>
   <g id="line2d_17"/>
   <g id="line2d_18"/>
   <g id="line2d_19"/>
   <g id="line2d_20"/>
   <g id="line2d_21"/>
   <g id="line2d_22"/>
   <g id="line2d_23"/>
   <g id="line2d_24"/>
   <g id="line2d_25"/>
   <g id="line2d_26"/>
  </g>
 </g>
 <defs>
  <clipPath id="p0ef0ffb208">
   <rect x="0" y="0" width="345.6" height="172.8"/>
  </clipPath>
 </defs>
</svg>
