<?xml version="1.0" encoding="utf-8" standalone="no"?>
<!DOCTYPE svg PUBLIC "-//W3C//DTD SVG 1.1//EN"
  "http://www.w3.org/Graphics/SVG/1.1/DTD/svg11.dtd">
<svg xmlns:xlink="http://www.w3.org/1999/xlink" width="345.6pt" height="172.8pt" viewBox="0 0 345.6 172.8" xmlns="http://www.w3.org/2000/svg" version="1.1">
 <metadata>
  <rdf:RDF xmlns:dc="http://purl.org/dc/elements/1.1/" xmlns:cc="http://creativecommons.org/ns#" xmlns:rdf="http://www.w3.org/1999/02/22-rdf-syntax-ns#">
   <cc:Work>
    <dc:type rdf:resource="http://purl.org/dc/dcmitype/StillImage"/>
    <dc:date>2026-02-20T19:00:46.239705</dc:date>
    <dc:format>image/svg+xml</dc:format>
    <dc:creator>
     <cc:Agent>
      <dc:title>Matplotlib v3.10.8, https://matplotlib.org/</dc:title>
     </cc:Agent>
    </dc:creator>
   </cc:Work>
  </rdf:RDF>
 </metadata>
 <defs>
  <style type="text/css">*{stroke-linejoin: round; stroke-linecap: butt}</style>
 </defs>
 <g id="figure_1">
  <g id="patch_1">
   <path d="M 0 172.8 
L 345.6 172.8 
L 345.6 0 
L 0 0 
L 0 172.8 
z
" style="fill: none"/>
  </g>
  <g id="axes_1">
   <g id="patch_2">
    <path d="M 245.76 73.44 
C 250.8519 73.44 255.735934 71.164088 259.33645 67.113506 
C 262.936967 63.062925 264.96 57.568387 264.96 51.84 
C 264.96 46.111613 262.936967 40.617075 259.33645 36.566494 
C 255.735934 32.515912 250.8519 30.24 245.76 30.24 
C 240.6681 30.24 235.784066 32.515912 232.18355 36.566494 
C 228.583033 40.617075 226.56 46.111613 226.56 51.84 
C 226.56 57.568387 228.583033 63.062925 232.18355 67.113506 
C 235.784066 71.164088 240.6681 73.44 245.76 73.44 
z
" clip-path="url(#pbf635dafd0)" style="opacity: 0.5; stroke: #000000; stroke-width: 1.5; stroke-linejoin: miter"/>
   </g>
   <g id="matplotlib.axis_1"/>
   <g id="matplotlib.axis_2"/>
   <g id="text_1">
    <!-- $q$ -->
    <g transform="translate(116.58 58.669375) scale(0.28 -0.28)">
     <defs>
      <path id="Cmmi10-71" d="M 941 -1159 
Q 963 -1019 1025 -1019 
Q 1256 -1019 1389 -981 
Q 1522 -944 1563 -800 
L 1838 288 
Q 1472 -72 1106 -72 
Q 703 -72 473 233 
Q 244 538 244 953 
Q 244 1363 455 1803 
Q 666 2244 1027 2536 
Q 1388 2828 1806 2828 
Q 2000 2828 2156 2712 
Q 2313 2597 2394 2406 
Q 2431 2481 2601 2654 
Q 2772 2828 2841 2828 
Q 2913 2828 2913 2747 
L 2016 -825 
Q 2000 -919 1997 -934 
Q 1997 -1019 2419 -1019 
Q 2450 -1019 2467 -1044 
Q 2484 -1069 2484 -1100 
Q 2463 -1184 2448 -1212 
Q 2434 -1241 2375 -1241 
L 1006 -1241 
Q 941 -1241 941 -1159 
z
M 1119 97 
Q 1344 97 1558 267 
Q 1772 438 1931 672 
L 2291 2113 
Q 2253 2338 2126 2500 
Q 2000 2663 1791 2663 
Q 1575 2663 1389 2486 
Q 1203 2309 1075 2069 
Q 950 1813 836 1366 
Q 722 919 722 672 
Q 722 450 817 273 
Q 913 97 1119 97 
z
" transform="scale(0.015625)"/>
     </defs>
     <use xlink:href="#Cmmi10-71" transform="translate(0 0.8125)"/>
    </g>
   </g>
   <g id="text_2">
    <!-- $\longrightarrow$ -->
    <g transform="translate(95.86 76.12) scale(0.28 -0.28)">
     <defs>
      <path id="STIXGeneral-Regular-27f6" d="M 9722 1651 
L 9722 1587 
Q 8986 1274 8198 365 
L 8070 486 
Q 8250 742 8595 1101 
Q 8685 1190 8685 1280 
Q 8685 1408 8518 1408 
L 352 1408 
L 352 1830 
L 8525 1830 
Q 8576 1830 8633 1878 
Q 8691 1926 8691 1971 
Q 8691 2042 8602 2131 
Q 8288 2432 8077 2752 
L 8205 2874 
Q 9005 1952 9722 1651 
z
" transform="scale(0.015625)"/>
     </defs>
     <use xlink:href="#STIXGeneral-Regular-27f6" transform="translate(17.558594 0.09375)"/>
    </g>
   </g>
   <g id="text_3">
    <!-- $\hat{p}'$ -->
    <g transform="translate(215.22 159.32) scale(0.28 -0.28)">
     <defs>
      <path id="Cmr10-5e" d="M 863 3444 
L 738 3578 
L 1600 4441 
L 2456 3578 
L 2328 3444 
L 1600 4084 
L 863 3444 
z
" transform="scale(0.015625)"/>
      <path id="Cmmi10-70" d="M -159 -1241 
Q -219 -1241 -219 -1159 
Q -197 -1019 -134 -1019 
Q 66 -1019 145 -983 
Q 225 -947 269 -800 
L 991 2081 
Q 1038 2200 1038 2388 
Q 1038 2663 850 2663 
Q 650 2663 553 2423 
Q 456 2184 366 1819 
Q 366 1778 313 1778 
L 238 1778 
Q 222 1778 203 1801 
Q 184 1825 184 1844 
Q 253 2122 317 2315 
Q 381 2509 517 2668 
Q 653 2828 856 2828 
Q 1075 2828 1240 2704 
Q 1406 2581 1453 2369 
Q 1628 2572 1840 2700 
Q 2053 2828 2278 2828 
Q 2547 2828 2745 2684 
Q 2944 2541 3044 2308 
Q 3144 2075 3144 1806 
Q 3144 1394 2933 953 
Q 2722 513 2361 220 
Q 2000 -72 1588 -72 
Q 1400 -72 1248 34 
Q 1097 141 1013 313 
L 722 -825 
Q 706 -919 703 -934 
Q 703 -1019 1125 -1019 
Q 1191 -1019 1191 -1100 
Q 1169 -1184 1155 -1212 
Q 1141 -1241 1081 -1241 
L -159 -1241 
z
M 1594 97 
Q 1816 97 2006 280 
Q 2197 463 2316 691 
Q 2403 863 2479 1111 
Q 2556 1359 2612 1640 
Q 2669 1922 2669 2088 
Q 2669 2234 2630 2362 
Q 2591 2491 2502 2577 
Q 2413 2663 2266 2663 
Q 2031 2663 1823 2495 
Q 1616 2328 1447 2081 
L 1447 2059 
L 1094 647 
Q 1138 419 1263 258 
Q 1388 97 1594 97 
z
" transform="scale(0.015625)"/>
      <path id="Cmsy10-30" d="M 225 347 
Q 184 359 184 409 
L 966 3316 
Q 1003 3434 1093 3506 
Q 1184 3578 1300 3578 
Q 1450 3578 1564 3479 
Q 1678 3381 1678 3231 
Q 1678 3166 1644 3084 
L 488 319 
Q 466 275 428 275 
Q 394 275 320 306 
Q 247 338 225 347 
z
" transform="scale(0.015625)"/>
     </defs>
     <use xlink:href="#Cmr10-5e" transform="translate(6.041992 3.476562)"/>
     <use xlink:href="#Cmmi10-70" transform="translate(0 0.601562)"/>
     <use xlink:href="#Cmsy10-30" transform="translate(54.757109 38.865625) scale(0.7)"/>
    </g>
   </g>
   <g id="text_4">
    <!-- $p$ -->
    <g transform="translate(296.22 50.029375) scale(0.28 -0.28)">
     <use xlink:href="#Cmmi10-70" transform="translate(0 0.8125)"/>
    </g>
   </g>
   <g id="text_5">
    <!-- $\hat{p}$ -->
    <g transform="translate(188.7 63.58) scale(0.28 -0.28)">
     <use xlink:href="#Cmr10-5e" transform="translate(6.041992 3.609375)"/>
     <use xlink:href="#Cmmi10-70" transform="translate(0 0.734375)"/>
    </g>
   </g>
   <g id="text_6">
    <!-- $l' E'$ -->
    <g transform="translate(40.36 158.2) scale(0.28 -0.28)">
     <defs>
      <path id="Cmmi10-6c" d="M 281 519 
Q 281 538 286 575 
Q 291 613 295 648 
Q 300 684 300 703 
L 1094 3872 
Q 1119 3981 1125 4044 
Q 1125 4147 709 4147 
Q 647 4147 647 4231 
Q 650 4247 661 4287 
Q 672 4328 689 4350 
Q 706 4372 738 4372 
L 1600 4441 
Q 1678 4441 1678 4359 
L 756 678 
Q 709 575 709 372 
Q 709 97 897 97 
Q 1094 97 1192 342 
Q 1291 588 1369 941 
Q 1381 978 1422 978 
L 1497 978 
Q 1522 978 1539 958 
Q 1556 938 1556 916 
Q 1481 606 1420 426 
Q 1359 247 1225 87 
Q 1091 -72 884 -72 
Q 628 -72 454 93 
Q 281 259 281 519 
z
" transform="scale(0.015625)"/>
      <path id="Cmmi10-45" d="M 300 0 
Q 238 0 238 84 
Q 241 100 250 139 
Q 259 178 276 201 
Q 294 225 319 225 
Q 709 225 863 269 
Q 947 297 984 441 
L 1863 3956 
Q 1875 4019 1875 4044 
Q 1875 4113 1797 4122 
Q 1678 4147 1338 4147 
Q 1275 4147 1275 4231 
Q 1278 4247 1287 4286 
Q 1297 4325 1314 4348 
Q 1331 4372 1356 4372 
L 4825 4372 
Q 4891 4372 4891 4288 
L 4738 2963 
Q 4738 2947 4714 2926 
Q 4691 2906 4672 2906 
L 4616 2906 
Q 4550 2906 4550 2988 
Q 4588 3300 4588 3450 
Q 4588 3706 4500 3848 
Q 4413 3991 4267 4053 
Q 4122 4116 3945 4131 
Q 3769 4147 3481 4147 
L 2753 4147 
Q 2578 4147 2522 4117 
Q 2466 4088 2419 3928 
L 2034 2381 
L 2534 2381 
Q 2859 2381 3025 2426 
Q 3191 2472 3287 2615 
Q 3384 2759 3463 3072 
Q 3469 3094 3486 3111 
Q 3503 3128 3525 3128 
L 3584 3128 
Q 3647 3128 3647 3047 
L 3250 1466 
Q 3238 1409 3188 1409 
L 3128 1409 
Q 3066 1409 3066 1491 
Q 3128 1747 3128 1869 
Q 3128 2056 2959 2106 
Q 2791 2156 2509 2156 
L 1978 2156 
L 1544 416 
Q 1516 338 1516 275 
Q 1516 225 1734 225 
L 2509 225 
Q 2972 225 3259 297 
Q 3547 369 3736 526 
Q 3925 684 4062 928 
Q 4200 1172 4397 1638 
Q 4409 1678 4453 1678 
L 4513 1678 
Q 4538 1678 4556 1656 
Q 4575 1634 4575 1606 
Q 4575 1594 4569 1581 
L 3909 38 
Q 3897 0 3859 0 
L 300 0 
z
" transform="scale(0.015625)"/>
     </defs>
     <use xlink:href="#Cmmi10-6c" transform="translate(0 0.601562)"/>
     <use xlink:href="#Cmsy10-30" transform="translate(41.381094 38.865625) scale(0.7)"/>
     <use xlink:href="#Cmmi10-45" transform="translate(67.001602 0.601562)"/>
     <use xlink:href="#Cmsy10-30" transform="translate(152.15043 38.865625) scale(0.7)"/>
    </g>
   </g>
   <g id="text_7">
    <!-- $l,E$ -->
    <g transform="translate(44.42 32.92) scale(0.28 -0.28)">
     <defs>
      <path id="Cmmi10-3b" d="M 634 -1153 
Q 634 -1125 659 -1100 
Q 891 -878 1019 -587 
Q 1147 -297 1147 25 
L 1147 103 
Q 1044 0 891 0 
Q 744 0 641 103 
Q 538 206 538 353 
Q 538 503 641 603 
Q 744 703 891 703 
Q 1119 703 1216 492 
Q 1313 281 1313 25 
Q 1313 -331 1170 -651 
Q 1028 -972 769 -1228 
Q 744 -1241 728 -1241 
Q 697 -1241 665 -1212 
Q 634 -1184 634 -1153 
z
" transform="scale(0.015625)"/>
     </defs>
     <use xlink:href="#Cmmi10-6c" transform="translate(0 0.609375)"/>
     <use xlink:href="#Cmmi10-3b" transform="translate(29.785156 0.609375)"/>
     <use xlink:href="#Cmmi10-45" transform="translate(75.029297 0.609375)"/>
    </g>
   </g>
   <g id="line2d_1">
    <path d="M 326.4 17.28 
L 263.702165 44.150501 
L 263.702165 44.150501 
" clip-path="url(#pbf635dafd0)" style="fill: none; stroke: #000000; stroke-width: 3.6"/>
   </g>
   <g id="line2d_2">
    <path d="M 257.348274 69.062126 
L 301.383716 134.506205 
L 301.383716 134.506205 
" clip-path="url(#pbf635dafd0)" style="fill: none; stroke: #000000; stroke-opacity: 0.5; stroke-width: 1.5"/>
   </g>
   <g id="line2d_3">
    <path d="M 258.792974 67.701366 
L 308.318277 127.974558 
L 308.318277 127.974558 
" clip-path="url(#pbf635dafd0)" style="fill: none; stroke: #000000; stroke-opacity: 0.5; stroke-width: 1.5"/>
   </g>
   <g id="line2d_4">
    <path d="M 260.11216 66.187853 
L 314.650367 120.709693 
L 314.650367 120.709693 
" clip-path="url(#pbf635dafd0)" style="fill: none; stroke: #000000; stroke-opacity: 0.5; stroke-width: 1.5"/>
   </g>
   <g id="line2d_5">
    <path d="M 76.8 86.4 
L 19.2 155.52 
L 19.2 155.52 
" clip-path="url(#pbf635dafd0)" style="fill: none; stroke: #000000; stroke-width: 2"/>
   </g>
   <g id="line2d_6">
    <path d="M 19.2 17.28 
L 76.8 86.4 
L 76.8 86.4 
" clip-path="url(#pbf635dafd0)" style="fill: none; stroke: #000000; stroke-width: 2"/>
   </g>
   <g id="line2d_7">
    <path d="M 76.8 86.4 
L 78.965414 80.600153 
L 80.168421 78.0633 
L 81.130827 76.614873 
L 81.852632 75.930477 
L 82.574436 75.618825 
L 83.055639 75.624178 
L 83.536842 75.800324 
L 84.258647 76.377942 
L 84.980451 77.312373 
L 85.942857 79.054134 
L 87.145865 81.867859 
L 89.070677 87.16468 
L 90.995489 92.2714 
L 92.198496 94.7905 
L 93.160902 96.220812 
L 93.882707 96.890073 
L 94.604511 97.185859 
L 95.085714 97.169801 
L 95.566917 96.983046 
L 96.288722 96.390059 
L 97.010526 95.441398 
L 97.972932 93.683303 
L 99.17594 90.854815 
L 101.100752 85.550522 
L 103.025564 80.457411 
L 104.228571 77.95622 
L 105.190977 76.544113 
L 105.912782 75.890027 
L 106.634586 75.610125 
L 107.115789 75.636887 
L 107.596992 75.834241 
L 108.318797 76.44256 
L 109.040602 77.405392 
L 110.003008 79.179711 
L 111.206015 82.022786 
L 113.130827 87.334222 
L 115.055639 92.413409 
L 116.018045 94.460014 
L 116.980451 95.997651 
L 117.702256 96.757063 
L 118.42406 97.147734 
L 118.905263 97.195899 
L 119.386466 97.072953 
L 120.108271 96.572698 
L 120.830075 95.710267 
L 121.55188 94.516365 
L 122.514286 92.483857 
L 123.957895 88.761756 
L 127.085714 80.316143 
L 128.04812 78.283635 
L 129.010526 76.763654 
L 129.732331 76.019155 
L 130.454135 75.644243 
L 130.935338 75.606778 
L 131.416541 75.740382 
L 132.138346 76.256176 
L 132.86015 77.133117 
L 133.581955 78.339986 
L 134.544361 80.386591 
L 135.98797 84.121294 
L 139.115789 92.553927 
L 140.078195 94.572212 
L 141.040602 96.074443 
L 141.762406 96.803983 
L 142.484211 97.163113 
L 142.965414 97.189875 
L 143.446617 97.045621 
L 144.168421 96.514321 
L 144.890226 95.622924 
L 145.852632 93.930805 
L 146.815038 91.763137 
L 148.258647 87.925522 
L 150.905263 80.744333 
L 152.108271 78.172448 
L 153.070677 76.688059 
L 153.792481 75.973523 
L 154.514286 75.630199 
L 154.995489 75.614141 
L 155.476692 75.769035 
L 156.198496 76.315808 
L 156.920301 77.221607 
L 157.882707 78.930379 
L 159.085714 81.714056 
L 161.010526 86.994948 
L 162.935338 92.127935 
L 164.138346 94.682383 
L 165.100752 96.148836 
L 165.822556 96.848324 
L 166.544361 97.175822 
L 167.025564 97.181175 
L 167.506767 97.01565 
L 168.228571 96.453436 
L 168.950376 95.533293 
L 169.912782 93.807973 
L 171.115789 91.009186 
L 172.8 86.4 
L 172.8 86.4 
" clip-path="url(#pbf635dafd0)" style="fill: none; stroke: #000000; stroke-width: 2"/>
   </g>
   <g id="line2d_8">
    <path d="M 261.293126 64.536161 
L 320.319006 112.781575 
L 320.319006 112.781575 
" clip-path="url(#pbf635dafd0)" style="fill: none; stroke: #000000; stroke-width: 2"/>
   </g>
   <g id="line2d_9">
    <path d="M 255.791972 70.257028 
L 293.913468 140.241732 
L 293.913468 140.241732 
" clip-path="url(#pbf635dafd0)" style="fill: none; stroke: #000000; stroke-width: 2"/>
   </g>
   <g id="line2d_10">
    <path d="M 326.4 17.28 
L 263.702165 44.150501 
L 263.702165 44.150501 
" clip-path="url(#pbf635dafd0)" style="fill: none; stroke: #ffffff"/>
   </g>
   <g id="line2d_11">
    <path d="M 228.064601 60.222031 
L 172.8 86.4 
L 172.8 86.4 
" clip-path="url(#pbf635dafd0)" style="fill: none; stroke: #000000; stroke-width: 2"/>
   </g>
   <g id="line2d_12">
    <path d="M 172.8 86.4 
L 211.2 155.52 
L 211.2 155.52 
" clip-path="url(#pbf635dafd0)" style="fill: none; stroke: #000000; stroke-width: 2"/>
   </g>
   <g id="patch_3">
    <path d="M 41.361985 128.925618 
L 50.729242 124.001242 
L 46.745969 122.464837 
L 45.126397 118.091991 
z
" clip-path="url(#pbf635dafd0)" style="stroke: #000000; stroke-linejoin: miter"/>
   </g>
   <g id="patch_4">
    <path d="M 54.638015 59.805618 
L 50.873603 48.971991 
L 49.254031 53.344837 
L 45.270758 54.881242 
z
" clip-path="url(#pbf635dafd0)" style="stroke: #000000; stroke-linejoin: miter"/>
   </g>
   <g id="patch_5">
    <path d="M 286.001431 34.593672 
L 296.339536 34.78591 
L 293.357719 31.440978 
L 293.605491 26.711936 
z
" clip-path="url(#pbf635dafd0)" style="stroke: #000000; stroke-linejoin: miter"/>
   </g>
   <g id="patch_6">
    <path d="M 191.515347 77.534836 
L 201.853185 77.325285 
L 198.770461 74.098203 
L 198.872908 69.362355 
z
" clip-path="url(#pbf635dafd0)" style="stroke: #000000; stroke-linejoin: miter"/>
   </g>
   <g id="patch_7">
    <path d="M 197.13611 130.204998 
L 195.304434 118.757021 
L 192.963958 122.695125 
L 188.791807 123.336212 
z
" clip-path="url(#pbf635dafd0)" style="stroke: #000000; stroke-linejoin: miter"/>
   </g>
   <g id="line2d_13"/>
   <g id="line2d_14"/>
   <g id="line2d_15">
    <defs>
     <path id="mf992f6e923" d="M 0 2 
C 0.530406 2 1.03916 1.789267 1.414214 1.414214 
C 1.789267 1.03916 2 0.530406 2 0 
C 2 -0.530406 1.789267 -1.03916 1.414214 -1.414214 
C 1.03916 -1.789267 0.530406 -2 0 -2 
C -0.530406 -2 -1.03916 -1.789267 -1.414214 -1.414214 
C -1.789267 -1.03916 -2 -0.530406 -2 0 
C -2 0.530406 -1.789267 1.03916 -1.414214 1.414214 
C -1.03916 1.789267 -0.530406 2 0 2 
z
" style="stroke: #000000"/>
    </defs>
    <g clip-path="url(#pbf635dafd0)">
     <use xlink:href="#mf992f6e923" x="76.8" y="86.4" style="stroke: #000000"/>
    </g>
   </g>
   <g id="line2d_16">
    <g clip-path="url(#pbf635dafd0)">
     <use xlink:href="#mf992f6e923" x="172.8" y="86.4" style="stroke: #000000"/>
    </g>
   </g>
   <g id="line2d_17"/>
   <g id="line2d_18"/>
   <g id="line2d_19"/>
   <g id="line2d_20"/>
   <g id="line2d_21"/>
   <g id="line2d_22"/>
   <g id="line2d_23"/>
   <g id="line2d_24"/>
   <g id="line2d_25"/>
   <g id="line2d_26"/>
   <g id="line2d_27"/>
   <g id="line2d_28"/>
   <g id="line2d_29"/>
   <g id="line2d_30"/>
  </g>
 </g>
 <defs>
  <clipPath id="pbf635dafd0">
   <rect x="0" y="0" width="345.6" height="172.8"/>
  </clipPath>
 </defs>
</svg>
