<?xml version="1.0" encoding="utf-8" standalone="no"?>
<!DOCTYPE svg PUBLIC "-//W3C//DTD SVG 1.1//EN"
  "http://www.w3.org/Graphics/SVG/1.1/DTD/svg11.dtd">
<svg xmlns:xlink="http://www.w3.org/1999/xlink" width="345.6pt" height="172.8pt" viewBox="0 0 345.6 172.8" xmlns="http://www.w3.org/2000/svg" version="1.1">
 <metadata>
  <rdf:RDF xmlns:dc="http://purl.org/dc/elements/1.1/" xmlns:cc="http://creativecommons.org/ns#" xmlns:rdf="http://www.w3.org/1999/02/22-rdf-syntax-ns#">
   <cc:Work>
    <dc:type rdf:resource="http://purl.org/dc/dcmitype/StillImage"/>
    <dc:date>2026-03-21T11:34:20.812196</dc:date>
    <dc:format>image/svg+xml</dc:format>
    <dc:creator>
     <cc:Agent>
      <dc:title>Matplotlib v3.10.8, https://matplotlib.org/</dc:title>
     </cc:Agent>
    </dc:creator>
   </cc:Work>
  </rdf:RDF>
 </metadata>
 <defs>
  <style type="text/css">*{stroke-linejoin: round; stroke-linecap: butt}</style>
 </defs>
 <g id="figure_1">
  <g id="patch_1">
   <path d="M 0 172.8 
L 345.6 172.8 
L 345.6 0 
L 0 0 
L 0 172.8 
z
" style="fill: none"/>
  </g>
  <g id="axes_1">
   <g id="patch_2">
    <path d="M 265.282383 120.96 
Q 301.443449 120.96 335.368447 120.96 
" clip-path="url(#pcf53463493)" style="fill: none; stroke: #ffffff; stroke-width: 2; stroke-linecap: round"/>
    <path d="M 327.368447 116.96 
L 335.368447 120.96 
L 327.368447 124.96 
" clip-path="url(#pcf53463493)" style="fill: none; stroke: #ffffff; stroke-width: 2; stroke-linecap: round"/>
   </g>
   <g id="patch_3">
    <path d="M 268.8 125.917954 
Q 268.8 84.238397 268.8 44.794907 
" clip-path="url(#pcf53463493)" style="fill: none; stroke: #ffffff; stroke-width: 2; stroke-linecap: round"/>
    <path d="M 264.8 52.794907 
L 268.8 44.794907 
L 272.8 52.794907 
" clip-path="url(#pcf53463493)" style="fill: none; stroke: #ffffff; stroke-width: 2; stroke-linecap: round"/>
   </g>
   <g id="matplotlib.axis_1"/>
   <g id="matplotlib.axis_2"/>
   <g id="text_1">
    <!-- $p$ -->
    <g style="fill: #ffffff" transform="translate(18.72 94.205) scale(0.32 -0.32)">
     <defs>
      <path id="Cmmi10-70" d="M -159 -1241 
Q -219 -1241 -219 -1159 
Q -197 -1019 -134 -1019 
Q 66 -1019 145 -983 
Q 225 -947 269 -800 
L 991 2081 
Q 1038 2200 1038 2388 
Q 1038 2663 850 2663 
Q 650 2663 553 2423 
Q 456 2184 366 1819 
Q 366 1778 313 1778 
L 238 1778 
Q 222 1778 203 1801 
Q 184 1825 184 1844 
Q 253 2122 317 2315 
Q 381 2509 517 2668 
Q 653 2828 856 2828 
Q 1075 2828 1240 2704 
Q 1406 2581 1453 2369 
Q 1628 2572 1840 2700 
Q 2053 2828 2278 2828 
Q 2547 2828 2745 2684 
Q 2944 2541 3044 2308 
Q 3144 2075 3144 1806 
Q 3144 1394 2933 953 
Q 2722 513 2361 220 
Q 2000 -72 1588 -72 
Q 1400 -72 1248 34 
Q 1097 141 1013 313 
L 722 -825 
Q 706 -919 703 -934 
Q 703 -1019 1125 -1019 
Q 1191 -1019 1191 -1100 
Q 1169 -1184 1155 -1212 
Q 1141 -1241 1081 -1241 
L -159 -1241 
z
M 1594 97 
Q 1816 97 2006 280 
Q 2197 463 2316 691 
Q 2403 863 2479 1111 
Q 2556 1359 2612 1640 
Q 2669 1922 2669 2088 
Q 2669 2234 2630 2362 
Q 2591 2491 2502 2577 
Q 2413 2663 2266 2663 
Q 2031 2663 1823 2495 
Q 1616 2328 1447 2081 
L 1447 2059 
L 1094 647 
Q 1138 419 1263 258 
Q 1388 97 1594 97 
z
" transform="scale(0.015625)"/>
     </defs>
     <use xlink:href="#Cmmi10-70" transform="translate(0 0.8125)"/>
    </g>
   </g>
   <g id="text_2">
    <!-- $k$ -->
    <g style="fill: #ffffff" transform="translate(233.44 163.52) scale(0.32 -0.32)">
     <defs>
      <path id="Cmmi10-6b" d="M 341 116 
Q 341 153 347 172 
L 1275 3872 
Q 1300 3981 1306 4044 
Q 1306 4147 891 4147 
Q 825 4147 825 4231 
Q 828 4247 839 4287 
Q 850 4328 867 4350 
Q 884 4372 916 4372 
L 1778 4441 
L 1797 4441 
Q 1797 4434 1819 4423 
Q 1841 4413 1844 4409 
Q 1856 4378 1856 4359 
L 1184 1684 
Q 1416 1781 1767 2145 
Q 2119 2509 2317 2668 
Q 2516 2828 2816 2828 
Q 2994 2828 3119 2706 
Q 3244 2584 3244 2406 
Q 3244 2294 3197 2198 
Q 3150 2103 3065 2043 
Q 2981 1984 2869 1984 
Q 2766 1984 2695 2048 
Q 2625 2113 2625 2216 
Q 2625 2369 2733 2473 
Q 2841 2578 2994 2578 
Q 2931 2663 2803 2663 
Q 2613 2663 2436 2553 
Q 2259 2444 2054 2239 
Q 1850 2034 1681 1864 
Q 1513 1694 1369 1606 
Q 1747 1563 2025 1408 
Q 2303 1253 2303 934 
Q 2303 869 2278 769 
Q 2222 528 2222 384 
Q 2222 97 2419 97 
Q 2650 97 2770 350 
Q 2891 603 2969 941 
Q 2981 978 3022 978 
L 3097 978 
Q 3122 978 3139 962 
Q 3156 947 3156 922 
Q 3156 916 3150 903 
Q 2909 -72 2406 -72 
Q 2225 -72 2086 12 
Q 1947 97 1872 242 
Q 1797 388 1797 569 
Q 1797 672 1825 781 
Q 1844 856 1844 922 
Q 1844 1169 1625 1297 
Q 1406 1425 1125 1453 
L 800 147 
Q 775 50 703 -11 
Q 631 -72 538 -72 
Q 456 -72 398 -17 
Q 341 38 341 116 
z
" transform="scale(0.015625)"/>
     </defs>
     <use xlink:href="#Cmmi10-6b" transform="translate(0 0.609375)"/>
    </g>
   </g>
   <g id="text_3">
    <!-- $q$ -->
    <g style="fill: #ffffff" transform="translate(234.72 20.765) scale(0.32 -0.32)">
     <defs>
      <path id="Cmmi10-71" d="M 941 -1159 
Q 963 -1019 1025 -1019 
Q 1256 -1019 1389 -981 
Q 1522 -944 1563 -800 
L 1838 288 
Q 1472 -72 1106 -72 
Q 703 -72 473 233 
Q 244 538 244 953 
Q 244 1363 455 1803 
Q 666 2244 1027 2536 
Q 1388 2828 1806 2828 
Q 2000 2828 2156 2712 
Q 2313 2597 2394 2406 
Q 2431 2481 2601 2654 
Q 2772 2828 2841 2828 
Q 2913 2828 2913 2747 
L 2016 -825 
Q 2000 -919 1997 -934 
Q 1997 -1019 2419 -1019 
Q 2450 -1019 2467 -1044 
Q 2484 -1069 2484 -1100 
Q 2463 -1184 2448 -1212 
Q 2434 -1241 2375 -1241 
L 1006 -1241 
Q 941 -1241 941 -1159 
z
M 1119 97 
Q 1344 97 1558 267 
Q 1772 438 1931 672 
L 2291 2113 
Q 2253 2338 2126 2500 
Q 2000 2663 1791 2663 
Q 1575 2663 1389 2486 
Q 1203 2309 1075 2069 
Q 950 1813 836 1366 
Q 722 919 722 672 
Q 722 450 817 273 
Q 913 97 1119 97 
z
" transform="scale(0.015625)"/>
     </defs>
     <use xlink:href="#Cmmi10-71" transform="translate(0 0.8125)"/>
    </g>
   </g>
   <g id="text_4">
    <!-- $z$ -->
    <g style="fill: #ffffff" transform="translate(327.5 110.68) scale(0.28 -0.28)">
     <defs>
      <path id="Cmmi10-7a" d="M 313 -72 
Q 263 -72 263 -13 
Q 263 19 275 31 
Q 447 328 689 598 
Q 931 869 1239 1145 
Q 1547 1422 1858 1700 
Q 2169 1978 2363 2194 
L 2338 2194 
Q 2197 2194 1925 2284 
Q 1653 2375 1497 2375 
Q 1328 2375 1168 2301 
Q 1009 2228 966 2075 
Q 956 2028 916 2028 
L 838 2028 
Q 788 2028 788 2094 
L 788 2113 
Q 838 2300 952 2462 
Q 1066 2625 1233 2726 
Q 1400 2828 1581 2828 
Q 1709 2828 1793 2770 
Q 1878 2713 1990 2591 
Q 2103 2469 2173 2416 
Q 2244 2363 2350 2363 
Q 2491 2363 2602 2491 
Q 2713 2619 2822 2809 
Q 2841 2828 2869 2828 
L 2944 2828 
Q 2966 2828 2980 2812 
Q 2994 2797 2994 2772 
Q 2994 2750 2981 2731 
Q 2809 2434 2579 2176 
Q 2350 1919 1979 1586 
Q 1609 1253 1354 1023 
Q 1100 794 878 550 
Q 928 563 1013 563 
Q 1169 563 1439 473 
Q 1709 384 1856 384 
Q 2016 384 2178 453 
Q 2341 522 2459 647 
Q 2578 772 2619 934 
Q 2634 978 2669 978 
L 2747 978 
Q 2772 978 2787 958 
Q 2803 938 2803 916 
Q 2803 909 2797 897 
Q 2738 653 2591 433 
Q 2444 213 2230 70 
Q 2016 -72 1772 -72 
Q 1650 -72 1565 -15 
Q 1481 41 1367 164 
Q 1253 288 1181 342 
Q 1109 397 1006 397 
Q 688 397 434 -50 
Q 413 -72 391 -72 
L 313 -72 
z
" transform="scale(0.015625)"/>
     </defs>
     <use xlink:href="#Cmmi10-7a" transform="translate(0 0.8125)"/>
    </g>
   </g>
   <g id="text_5">
    <!-- $x$ -->
    <g style="fill: #ffffff" transform="translate(276.04 50.2) scale(0.28 -0.28)">
     <defs>
      <path id="Cmmi10-78" d="M 500 184 
Q 613 97 819 97 
Q 1019 97 1172 289 
Q 1325 481 1381 709 
L 1672 1844 
Q 1741 2153 1741 2266 
Q 1741 2425 1652 2544 
Q 1563 2663 1403 2663 
Q 1200 2663 1022 2536 
Q 844 2409 722 2214 
Q 600 2019 550 1819 
Q 538 1778 500 1778 
L 422 1778 
Q 372 1778 372 1838 
L 372 1856 
Q 434 2094 584 2320 
Q 734 2547 951 2687 
Q 1169 2828 1416 2828 
Q 1650 2828 1839 2703 
Q 2028 2578 2106 2363 
Q 2216 2559 2386 2693 
Q 2556 2828 2759 2828 
Q 2897 2828 3040 2779 
Q 3184 2731 3275 2631 
Q 3366 2531 3366 2381 
Q 3366 2219 3261 2101 
Q 3156 1984 2994 1984 
Q 2891 1984 2822 2050 
Q 2753 2116 2753 2216 
Q 2753 2350 2845 2451 
Q 2938 2553 3066 2572 
Q 2950 2663 2747 2663 
Q 2541 2663 2389 2472 
Q 2238 2281 2175 2047 
L 1894 916 
Q 1825 659 1825 494 
Q 1825 331 1917 214 
Q 2009 97 2163 97 
Q 2463 97 2698 361 
Q 2934 625 3009 941 
Q 3022 978 3059 978 
L 3138 978 
Q 3163 978 3178 961 
Q 3194 944 3194 922 
Q 3194 916 3188 903 
Q 3097 522 2806 225 
Q 2516 -72 2150 -72 
Q 1916 -72 1727 54 
Q 1538 181 1459 397 
Q 1359 209 1182 68 
Q 1006 -72 806 -72 
Q 669 -72 523 -23 
Q 378 25 287 125 
Q 197 225 197 378 
Q 197 528 301 651 
Q 406 775 563 775 
Q 669 775 741 711 
Q 813 647 813 544 
Q 813 409 723 309 
Q 634 209 500 184 
z
" transform="scale(0.015625)"/>
     </defs>
     <use xlink:href="#Cmmi10-78" transform="translate(0 0.8125)"/>
    </g>
   </g>
   <g id="line2d_1">
    <path d="M 38.4 86.4 
L 40.421053 80.744333 
L 41.57594 78.172448 
L 42.442105 76.763654 
L 43.019549 76.11813 
L 43.596992 75.727047 
L 44.174436 75.600084 
L 44.75188 75.740382 
L 45.329323 76.144471 
L 45.906767 76.802349 
L 46.772932 78.227788 
L 47.639098 80.107081 
L 48.793985 83.135486 
L 52.547368 93.492922 
L 53.413534 95.201902 
L 54.279699 96.422058 
L 54.857143 96.929221 
L 55.434586 97.175822 
L 56.01203 97.155757 
L 56.589474 96.869523 
L 57.166917 96.324203 
L 58.033083 95.051633 
L 58.899248 93.298583 
L 60.054135 90.385231 
L 64.384962 78.629161 
L 65.251128 77.089733 
L 66.117293 76.067361 
L 66.694737 75.702361 
L 67.27218 75.602092 
L 67.849624 75.769035 
L 68.427068 76.199058 
L 69.004511 76.881521 
L 69.870677 78.339986 
L 70.736842 80.246073 
L 72.180451 84.121294 
L 75.067669 92.2714 
L 76.222556 94.7905 
L 77.088722 96.148836 
L 77.666165 96.757063 
L 78.243609 97.108987 
L 78.821053 97.195899 
L 79.398496 97.01565 
L 79.97594 96.572698 
L 80.553383 95.878007 
L 81.419549 94.403164 
L 82.285714 92.483857 
L 83.729323 88.595515 
L 86.616541 80.457411 
L 87.771429 77.95622 
L 88.637594 76.614873 
L 89.215038 76.019155 
L 89.792481 75.680329 
L 90.369925 75.606778 
L 90.947368 75.800324 
L 91.524812 76.256176 
L 92.102256 76.963053 
L 92.968421 78.454182 
L 93.834586 80.386591 
L 95.278195 84.287812 
L 98.165414 92.413409 
L 99.320301 94.896537 
L 100.186466 96.220812 
L 100.76391 96.803983 
L 101.341353 97.129691 
L 101.918797 97.189875 
L 102.496241 96.983046 
L 103.073684 96.514321 
L 103.651128 95.795302 
L 104.517293 94.287979 
L 105.67218 91.614858 
L 107.115789 87.588089 
L 109.425564 81.036863 
L 110.580451 78.396836 
L 111.446617 76.921993 
L 112.02406 76.227302 
L 112.601504 75.78435 
L 113.178947 75.604101 
L 113.756391 75.691013 
L 114.333835 76.042937 
L 114.911278 76.651164 
L 115.777444 78.0095 
L 116.643609 79.833813 
L 117.798496 82.812927 
L 121.840602 93.869621 
L 122.706767 95.487627 
L 123.572932 96.600942 
L 124.150376 97.030965 
L 124.72782 97.197908 
L 125.305263 97.097639 
L 125.882707 96.732639 
L 126.46015 96.111941 
L 127.326316 94.7367 
L 128.192481 92.89847 
L 129.347368 89.906754 
L 133.100752 79.501417 
L 133.966917 77.748367 
L 134.833083 76.475797 
L 135.410526 75.930477 
L 135.98797 75.644243 
L 136.565414 75.624178 
L 137.142857 75.870779 
L 137.720301 76.377942 
L 138.297744 77.133117 
L 139.16391 78.688456 
L 140.318797 81.409972 
L 142.051128 86.314965 
L 144.07218 91.983049 
L 145.227068 94.572212 
L 146.093233 95.997651 
L 146.670677 96.655529 
L 147.24812 97.059618 
L 147.825564 97.199916 
L 148.403008 97.072953 
L 148.980451 96.68187 
L 149.557895 96.036346 
L 150.42406 94.627552 
L 151.290226 92.761832 
L 152.445113 89.74547 
L 153.6 86.4 
L 153.6 86.4 
" clip-path="url(#pcf53463493)" style="fill: none; stroke: #ffffff; stroke-width: 2"/>
   </g>
   <g id="line2d_2">
    <path d="M 230.4 17.28 
L 153.6 86.4 
L 153.6 86.4 
" clip-path="url(#pcf53463493)" style="fill: none; stroke: #ffffff; stroke-width: 2"/>
   </g>
   <g id="line2d_3">
    <path d="M 153.6 86.4 
L 230.4 155.52 
L 230.4 155.52 
" clip-path="url(#pcf53463493)" style="fill: none; stroke: #ffffff; stroke-width: 2"/>
   </g>
   <g id="patch_4">
    <path d="M 184.407419 58.673323 
L 194.302588 55.29997 
L 190.554418 53.141024 
L 189.50493 48.553263 
z
" clip-path="url(#pcf53463493)" style="fill: #ffffff; stroke: #ffffff; stroke-linejoin: miter"/>
   </g>
   <g id="patch_5">
    <path d="M 199.592581 127.793323 
L 194.49507 117.673263 
L 193.445582 122.261024 
L 189.697412 124.41997 
z
" clip-path="url(#pcf53463493)" style="fill: #ffffff; stroke: #ffffff; stroke-linejoin: miter"/>
   </g>
   <g id="line2d_4"/>
   <g id="line2d_5">
    <defs>
     <path id="m7804276e56" d="M 0 2 
C 0.530406 2 1.03916 1.789267 1.414214 1.414214 
C 1.789267 1.03916 2 0.530406 2 0 
C 2 -0.530406 1.789267 -1.03916 1.414214 -1.414214 
C 1.03916 -1.789267 0.530406 -2 0 -2 
C -0.530406 -2 -1.03916 -1.789267 -1.414214 -1.414214 
C -1.789267 -1.03916 -2 -0.530406 -2 0 
C -2 0.530406 -1.789267 1.03916 -1.414214 1.414214 
C -1.03916 1.789267 -0.530406 2 0 2 
z
" style="stroke: #ffffff"/>
    </defs>
    <g clip-path="url(#pcf53463493)">
     <use xlink:href="#m7804276e56" x="153.6" y="86.4" style="fill: #ffffff; stroke: #ffffff"/>
    </g>
   </g>
   <g id="line2d_6"/>
   <g id="line2d_7"/>
  </g>
 </g>
 <defs>
  <clipPath id="pcf53463493">
   <rect x="0" y="0" width="345.6" height="172.8"/>
  </clipPath>
 </defs>
</svg>
