<?xml version="1.0" encoding="UTF-8" standalone="no" ?>
<svg xmlns="http://www.w3.org/2000/svg" width="45.400px" height="212.920px" viewBox="0 -750 1003.4 4705.5" xmlns:xlink="http://www.w3.org/1999/xlink" style=""><defs><path id="MJX-54-NCM-I-1D708" d="M142 380C142 378 141 370 138 357C110 243 81 130 53 16C53 5 60 0 73 0L87 0C188 17 281 66 366 145C405 182 438 222 464 266C504 333 524 382 524 412C524 432 513 442 492 442C470 442 456 430 449 407C420 300 372 216 306 153C250 100 193 63 134 42L229 427L229 431C226 438 220 442 212 442C179 442 106 433 93 432C78 430 70 423 70 409C70 398 79 393 97 393C116 393 142 394 142 380Z"/><path id="MJX-54-NCM-I-1D452" d="M124 129C124 153 129 186 139 227L188 227C253 227 303 235 339 250C372 264 394 284 405 309C412 326 415 342 415 355C415 410 363 442 307 442C268 442 229 432 190 412C113 372 46 281 46 171C46 69 105-11 204-11C257-11 304 2 345 27C379 48 404 69 420 90C427 99 430 106 430 109C430 120 425 126 414 126C409 126 404 122 398 114C365 70 324 42 277 30C246 22 223 18 206 18C149 18 124 72 124 129M375 355C375 289 311 256 182 256L147 256C166 322 194 366 232 387C262 404 287 413 307 413C343 413 375 391 375 355Z"/><path id="MJX-54-NCM-N-AF" d="M70 589L431 589L431 620L70 620Z"/><path id="MJX-54-NCM-I-1D707" d="M572 142C572 151 567 156 556 156C548 156 542 149 539 136C519 56 495 16 468 16C451 16 442 30 442 58C442 75 448 109 461 159L489 266C498 302 506 327 512 358L518 386C520 393 521 398 521 400C521 421 510 431 488 431C466 431 452 419 446 394L374 108C374 97 358 77 326 47C304 26 279 16 250 16C204 16 181 43 181 98C181 117 185 144 194 181L236 347C244 378 249 400 251 411C251 432 240 442 218 442C196 442 182 429 175 403L33-169C31-177 30-182 30-185C30-206 41-216 62-216C77-216 89-208 100-193C103-186 120-117 153 14C177-4 208-13 246-13C305-13 344 18 375 54C386 17 419-13 466-13C535-13 556 68 572 142Z"/></defs><g stroke="currentColor" fill="currentColor" stroke-width="0" transform="scale(1,-1)"><g data-mml-node="math" data-latex="\nu_e \\ \bar{\nu}_e \\ \nu_{\mu} \\ \bar\nu_{\mu}" data-semantic-type="infixop" data-semantic-role="implicit" data-semantic-annotation="clearspeak:unit;depth:1" data-semantic-id="22" data-semantic-children="2,8,12,18" data-semantic-content="19,20,21" data-semantic-attributes="latex:\nu_e \\ \bar{\nu}_e \\ \nu_{\mu} \\ \bar\nu_{\mu}" data-semantic-owns="2 19 8 20 12 21 18" aria-level="0" data-speech-node="true" data-semantic-structure="(22 (2 0 1) 19 (8 (6 4 5) 7) 20 (12 10 11) 21 (18 (16 14 15) 17))"><g data-mjx-linestack="true"><g data-mjx-linebox="true" data-mjx-lineno="0" transform="translate(48.4,0)"><g data-mml-node="msub" data-latex="\nu_e" data-semantic-type="subscript" data-semantic-role="greekletter" data-semantic-annotation="depth:2" data-semantic-id="2" data-semantic-children="0,1" data-semantic-parent="22" data-semantic-attributes="latex:\nu_e" data-semantic-owns="0 1" aria-level="1" data-speech-node="true"><g data-mml-node="mi" data-latex="\nu" data-semantic-type="identifier" data-semantic-role="greekletter" data-semantic-font="italic" data-semantic-annotation="clearspeak:simple;nemeth:number;depth:3" data-semantic-id="0" data-semantic-parent="2" data-semantic-attributes="latex:\nu" aria-level="2" data-speech-node="true"><use data-c="1D708" xmlns:xlink="http://www.w3.org/1999/xlink" xlink:href="#MJX-54-NCM-I-1D708"/></g><g data-mml-node="mi" transform="translate(527,-150) scale(0.707)" data-latex="e" data-semantic-type="identifier" data-semantic-role="latinletter" data-semantic-font="italic" data-semantic-annotation="clearspeak:simple;depth:3" data-semantic-id="1" data-semantic-parent="2" data-semantic-attributes="latex:e" aria-level="2" data-speech-node="true"><use data-c="1D452" xmlns:xlink="http://www.w3.org/1999/xlink" xlink:href="#MJX-54-NCM-I-1D452"/></g></g><g data-mml-node="mspace" data-latex="\\" data-semantic-type="operator" data-semantic-role="space" data-semantic-annotation="depth:2" data-semantic-id="19" data-semantic-parent="22" data-semantic-operator="infixop,⁢" aria-level="1" data-speech-node="true" transform="translate(906.5,0)"/></g><g data-mjx-linebox="true" data-mjx-lineno="1" transform="translate(48.4,-1200)"><g data-mml-node="mspace" data-latex="\\" data-semantic-type="operator" data-semantic-role="space" data-semantic-annotation="depth:2" data-semantic-id="19" data-semantic-parent="22" data-semantic-operator="infixop,⁢" aria-level="1" data-speech-node="true"/><g data-mml-node="msub" data-latex="\bar{\nu}_e" data-semantic-type="subscript" data-semantic-role="greekletter" data-semantic-annotation="depth:2" data-semantic-id="8" data-semantic-children="6,7" data-semantic-parent="22" data-semantic-attributes="latex:\bar{\nu}_e" data-semantic-owns="6 7" aria-level="1" data-speech-node="true"><g data-mml-node="TeXAtom" data-mjx-texclass="ORD" data-latex="\bar{\nu}"><g data-mml-node="mover" data-semantic-type="overscore" data-semantic-role="greekletter" data-semantic-annotation="depth:3" data-semantic-id="6" data-semantic-children="4,5" data-semantic-parent="8" data-semantic-attributes="latex:\bar{\nu};texclass:ORD" data-semantic-owns="4 5" aria-level="2" data-speech-node="true"><g data-mml-node="mi" data-latex="\nu" data-semantic-type="identifier" data-semantic-role="greekletter" data-semantic-font="italic" data-semantic-annotation="clearspeak:simple;depth:4" data-semantic-id="4" data-semantic-parent="6" data-semantic-attributes="latex:\nu" aria-level="3" data-speech-node="true"><use data-c="1D708" xmlns:xlink="http://www.w3.org/1999/xlink" xlink:href="#MJX-54-NCM-I-1D708"/></g><g data-mml-node="mo" data-semantic-type="operator" data-semantic-role="overaccent" data-semantic-annotation="accent:bar;depth:4" data-semantic-id="5" data-semantic-parent="6" aria-level="3" data-speech-node="true" transform="translate(297.5,-42) translate(-250 0)"><use data-c="AF" xmlns:xlink="http://www.w3.org/1999/xlink" xlink:href="#MJX-54-NCM-N-AF"/></g></g></g><g data-mml-node="mi" transform="translate(527,-150) scale(0.707)" data-latex="e" data-semantic-type="identifier" data-semantic-role="latinletter" data-semantic-font="italic" data-semantic-annotation="clearspeak:simple;depth:3" data-semantic-id="7" data-semantic-parent="8" data-semantic-attributes="latex:e" aria-level="2" data-speech-node="true"><use data-c="1D452" xmlns:xlink="http://www.w3.org/1999/xlink" xlink:href="#MJX-54-NCM-I-1D452"/></g></g><g data-mml-node="mspace" data-latex="\\" data-semantic-type="operator" data-semantic-role="space" data-semantic-annotation="depth:2" data-semantic-id="20" data-semantic-parent="22" data-semantic-operator="infixop,⁢" aria-level="1" data-speech-node="true" transform="translate(906.5,0)"/></g><g data-mjx-linebox="true" data-mjx-lineno="2" transform="translate(0,-2400)"><g data-mml-node="mspace" data-latex="\\" data-semantic-type="operator" data-semantic-role="space" data-semantic-annotation="depth:2" data-semantic-id="20" data-semantic-parent="22" data-semantic-operator="infixop,⁢" aria-level="1" data-speech-node="true"/><g data-mml-node="msub" data-latex="\nu_{\mu}" data-semantic-type="subscript" data-semantic-role="greekletter" data-semantic-annotation="depth:2" data-semantic-id="12" data-semantic-children="10,11" data-semantic-parent="22" data-semantic-attributes="latex:\nu_{\mu}" data-semantic-owns="10 11" aria-level="1" data-speech-node="true"><g data-mml-node="mi" data-latex="\nu" data-semantic-type="identifier" data-semantic-role="greekletter" data-semantic-font="italic" data-semantic-annotation="clearspeak:simple;depth:3" data-semantic-id="10" data-semantic-parent="12" data-semantic-attributes="latex:\nu" aria-level="2" data-speech-node="true"><use data-c="1D708" xmlns:xlink="http://www.w3.org/1999/xlink" xlink:href="#MJX-54-NCM-I-1D708"/></g><g data-mml-node="TeXAtom" transform="translate(527,-150) scale(0.707)" data-mjx-texclass="ORD" data-latex="{\mu}"><g data-mml-node="mi" data-latex="\mu" data-semantic-type="identifier" data-semantic-role="greekletter" data-semantic-font="italic" data-semantic-annotation="clearspeak:simple;depth:3" data-semantic-id="11" data-semantic-parent="12" data-semantic-attributes="latex:{\mu};texclass:ORD" aria-level="2" data-speech-node="true"><use data-c="1D707" xmlns:xlink="http://www.w3.org/1999/xlink" xlink:href="#MJX-54-NCM-I-1D707"/></g></g></g><g data-mml-node="mspace" data-latex="\\" data-semantic-type="operator" data-semantic-role="space" data-semantic-annotation="depth:2" data-semantic-id="21" data-semantic-parent="22" data-semantic-operator="infixop,⁢" aria-level="1" data-speech-node="true" transform="translate(1003.4,0)"/></g><g data-mjx-linebox="true" data-mjx-lineno="3" transform="translate(0,-3652.7)"><g data-mml-node="mspace" data-latex="\\" data-semantic-type="operator" data-semantic-role="space" data-semantic-annotation="depth:2" data-semantic-id="21" data-semantic-parent="22" data-semantic-operator="infixop,⁢" aria-level="1" data-speech-node="true"/><g data-mml-node="msub" data-latex="\bar\nu_{\mu}" data-semantic-type="subscript" data-semantic-role="greekletter" data-semantic-annotation="depth:2" data-semantic-id="18" data-semantic-children="16,17" data-semantic-parent="22" data-semantic-attributes="latex:\bar\nu_{\mu}" data-semantic-owns="16 17" aria-level="1" data-speech-node="true"><g data-mml-node="TeXAtom" data-mjx-texclass="ORD" data-latex="\bar\nu"><g data-mml-node="mover" data-semantic-type="overscore" data-semantic-role="greekletter" data-semantic-annotation="depth:3" data-semantic-id="16" data-semantic-children="14,15" data-semantic-parent="18" data-semantic-attributes="latex:\bar\nu;texclass:ORD" data-semantic-owns="14 15" aria-level="2" data-speech-node="true"><g data-mml-node="mi" data-latex="\nu" data-semantic-type="identifier" data-semantic-role="greekletter" data-semantic-font="italic" data-semantic-annotation="clearspeak:simple;depth:4" data-semantic-id="14" data-semantic-parent="16" data-semantic-attributes="latex:\nu" aria-level="3" data-speech-node="true"><use data-c="1D708" xmlns:xlink="http://www.w3.org/1999/xlink" xlink:href="#MJX-54-NCM-I-1D708"/></g><g data-mml-node="mo" data-semantic-type="operator" data-semantic-role="overaccent" data-semantic-annotation="accent:bar;depth:4" data-semantic-id="15" data-semantic-parent="16" aria-level="3" data-speech-node="true" transform="translate(297.5,-42) translate(-250 0)"><use data-c="AF" xmlns:xlink="http://www.w3.org/1999/xlink" xlink:href="#MJX-54-NCM-N-AF"/></g></g></g><g data-mml-node="TeXAtom" transform="translate(527,-150) scale(0.707)" data-mjx-texclass="ORD" data-latex="{\mu}"><g data-mml-node="mi" data-latex="\mu" data-semantic-type="identifier" data-semantic-role="greekletter" data-semantic-font="italic" data-semantic-annotation="clearspeak:simple;depth:3" data-semantic-id="17" data-semantic-parent="18" data-semantic-attributes="latex:{\mu};texclass:ORD" aria-level="2" data-speech-node="true"><use data-c="1D707" xmlns:xlink="http://www.w3.org/1999/xlink" xlink:href="#MJX-54-NCM-I-1D707"/></g></g></g></g></g></g></g></svg>