<?xml version="1.0" encoding="utf-8" standalone="no"?>
<!DOCTYPE svg PUBLIC "-//W3C//DTD SVG 1.1//EN"
  "http://www.w3.org/Graphics/SVG/1.1/DTD/svg11.dtd">
<svg xmlns:xlink="http://www.w3.org/1999/xlink" width="432pt" height="230.4pt" viewBox="0 0 432 230.4" xmlns="http://www.w3.org/2000/svg" version="1.1">
 <metadata>
  <rdf:RDF xmlns:dc="http://purl.org/dc/elements/1.1/" xmlns:cc="http://creativecommons.org/ns#" xmlns:rdf="http://www.w3.org/1999/02/22-rdf-syntax-ns#">
   <cc:Work>
    <dc:type rdf:resource="http://purl.org/dc/dcmitype/StillImage"/>
    <dc:date>2026-02-16T12:26:19.432462</dc:date>
    <dc:format>image/svg+xml</dc:format>
    <dc:creator>
     <cc:Agent>
      <dc:title>Matplotlib v3.10.8, https://matplotlib.org/</dc:title>
     </cc:Agent>
    </dc:creator>
   </cc:Work>
  </rdf:RDF>
 </metadata>
 <defs>
  <style type="text/css">*{stroke-linejoin: round; stroke-linecap: butt}</style>
 </defs>
 <g id="figure_1">
  <g id="patch_1">
   <path d="M 0 230.4 
L 432 230.4 
L 432 0 
L 0 0 
L 0 230.4 
z
" style="fill: none"/>
  </g>
  <g id="axes_1">
   <g id="patch_2">
    <path d="M 54 205.056 
L 388.8 205.056 
L 388.8 27.648 
L 54 27.648 
L 54 205.056 
z
" style="fill: none"/>
   </g>
   <g id="matplotlib.axis_1">
    <g id="text_1">
     <!-- $t$ -->
     <g style="fill: #ffffff" transform="translate(218.44 220.1585) scale(0.16 -0.16)">
      <defs>
       <path id="Cmmi10-74" d="M 397 519 
Q 397 613 416 697 
L 878 2534 
L 206 2534 
Q 141 2534 141 2619 
Q 166 2759 225 2759 
L 934 2759 
L 1191 3803 
Q 1216 3888 1291 3947 
Q 1366 4006 1459 4006 
Q 1541 4006 1595 3957 
Q 1650 3909 1650 3828 
Q 1650 3809 1648 3798 
Q 1647 3788 1644 3775 
L 1388 2759 
L 2047 2759 
Q 2113 2759 2113 2675 
Q 2109 2659 2100 2621 
Q 2091 2584 2075 2559 
Q 2059 2534 2028 2534 
L 1331 2534 
L 872 684 
Q 825 503 825 372 
Q 825 97 1013 97 
Q 1294 97 1511 361 
Q 1728 625 1844 941 
Q 1869 978 1894 978 
L 1972 978 
Q 1997 978 2012 961 
Q 2028 944 2028 922 
Q 2028 909 2022 903 
Q 1881 516 1612 222 
Q 1344 -72 997 -72 
Q 744 -72 570 93 
Q 397 259 397 519 
z
" transform="scale(0.015625)"/>
      </defs>
      <use xlink:href="#Cmmi10-74" transform="translate(0 0.40625)"/>
     </g>
    </g>
   </g>
   <g id="matplotlib.axis_2"/>
   <g id="line2d_1">
    <path d="M 69.218182 35.712 
L 72.292562 47.644028 
L 75.366942 58.872011 
L 78.441322 69.420611 
L 81.515702 79.314707 
L 84.590083 88.5793 
L 87.664463 97.239428 
L 90.738843 105.320083 
L 93.813223 112.846136 
L 96.887603 119.842265 
L 99.961983 126.332894 
L 103.036364 132.342128 
L 106.110744 137.893703 
L 109.185124 143.010935 
L 112.259504 147.716674 
L 115.333884 152.033266 
L 118.408264 155.98252 
L 121.482645 159.585668 
L 124.557025 162.86335 
L 127.631405 165.835581 
L 130.705785 168.521737 
L 133.780165 170.940538 
L 136.854545 173.110036 
L 139.928926 175.047605 
L 143.003306 176.769935 
L 146.077686 178.29303 
L 149.152066 179.632203 
L 152.226446 180.802085 
L 155.300826 181.816622 
L 158.375207 182.689083 
L 161.449587 183.432069 
L 164.523967 184.057523 
L 167.598347 184.576739 
L 170.672727 185.000374 
L 173.747107 185.338467 
L 176.821488 185.600448 
L 179.895868 185.795157 
L 182.970248 185.93086 
L 186.044628 186.015267 
L 189.119008 186.05555 
L 192.193388 186.058362 
L 195.267769 186.029856 
L 198.342149 185.975703 
L 201.416529 185.901116 
L 204.490909 185.810862 
L 207.565289 185.709291 
L 210.639669 185.600348 
L 213.71405 185.487599 
L 216.78843 185.374244 
L 219.86281 185.263142 
L 222.93719 185.156827 
L 226.01157 185.057529 
L 229.08595 184.967188 
L 232.160331 184.887476 
L 235.234711 184.819814 
L 238.309091 184.765387 
L 241.383471 184.725162 
L 244.457851 184.699903 
L 247.532231 184.690188 
L 250.606612 184.696422 
L 253.680992 184.718853 
L 256.755372 184.757584 
L 259.829752 184.812587 
L 262.904132 184.883717 
L 265.978512 184.970721 
L 269.052893 185.073252 
L 272.127273 185.190877 
L 275.201653 185.323092 
L 278.276033 185.469326 
L 281.350413 185.628953 
L 284.424793 185.801301 
L 287.499174 185.985658 
L 290.573554 186.181283 
L 293.647934 186.387407 
L 296.722314 186.603246 
L 299.796694 186.828002 
L 302.871074 187.060873 
L 305.945455 187.301052 
L 309.019835 187.547737 
L 312.094215 187.800134 
L 315.168595 188.057458 
L 318.242975 188.31894 
L 321.317355 188.583827 
L 324.391736 188.851388 
L 327.466116 189.120913 
L 330.540496 189.391717 
L 333.614876 189.663141 
L 336.689256 189.934554 
L 339.763636 190.205354 
L 342.838017 190.474969 
L 345.912397 190.742857 
L 348.986777 191.008508 
L 352.061157 191.271442 
L 355.135537 191.531213 
L 358.209917 191.787405 
L 361.284298 192.039635 
L 364.358678 192.287548 
L 367.433058 192.530823 
L 370.507438 192.769169 
L 373.581818 193.002322 
" clip-path="url(#p9bdd59e74e)" style="fill: none; stroke: #ffffff; stroke-linecap: square"/>
   </g>
   <g id="line2d_2">
    <path d="M 69.218182 35.712 
L 72.292562 36.630299 
L 75.366942 37.743786 
L 78.441322 39.04795 
L 81.515702 40.537264 
L 84.590083 42.205314 
L 87.664463 44.04491 
L 90.738843 46.048204 
L 93.813223 48.206789 
L 96.887603 50.511799 
L 99.961983 52.953997 
L 103.036364 55.523861 
L 106.110744 58.211663 
L 109.185124 61.00754 
L 112.259504 63.901561 
L 115.333884 66.883788 
L 118.408264 69.94433 
L 121.482645 73.073399 
L 124.557025 76.261348 
L 127.631405 79.498717 
L 130.705785 82.776269 
L 133.780165 86.08502 
L 136.854545 89.416272 
L 139.928926 92.76163 
L 143.003306 96.11303 
L 146.077686 99.462753 
L 149.152066 102.803439 
L 152.226446 106.1281 
L 155.300826 109.43013 
L 158.375207 112.703304 
L 161.449587 115.941791 
L 164.523967 119.14015 
L 167.598347 122.293329 
L 170.672727 125.396666 
L 173.747107 128.445882 
L 176.821488 131.437078 
L 179.895868 134.366724 
L 182.970248 137.231656 
L 186.044628 140.029062 
L 189.119008 142.756476 
L 192.193388 145.411764 
L 195.267769 147.993113 
L 198.342149 150.499019 
L 201.416529 152.928274 
L 204.490909 155.279954 
L 207.565289 157.553401 
L 210.639669 159.748216 
L 213.71405 161.864241 
L 216.78843 163.901544 
L 219.86281 165.860408 
L 222.93719 167.741316 
L 226.01157 169.544936 
L 229.08595 171.27211 
L 232.160331 172.923838 
L 235.234711 174.501266 
L 238.309091 176.005675 
L 241.383471 177.438465 
L 244.457851 178.801144 
L 247.532231 180.09532 
L 250.606612 181.322684 
L 253.680992 182.485002 
L 256.755372 183.584105 
L 259.829752 184.62188 
L 262.904132 185.600255 
L 265.978512 186.521197 
L 269.052893 187.386699 
L 272.127273 188.198773 
L 275.201653 188.959443 
L 278.276033 189.670737 
L 281.350413 190.334681 
L 284.424793 190.953292 
L 287.499174 191.528572 
L 290.573554 192.062505 
L 293.647934 192.557048 
L 296.722314 193.014131 
L 299.796694 193.43565 
L 302.871074 193.823463 
L 305.945455 194.17939 
L 309.019835 194.505205 
L 312.094215 194.802638 
L 315.168595 195.073372 
L 318.242975 195.319037 
L 321.317355 195.541214 
L 324.391736 195.741431 
L 327.466116 195.92116 
L 330.540496 196.081821 
L 333.614876 196.224776 
L 336.689256 196.351333 
L 339.763636 196.462744 
L 342.838017 196.560205 
L 345.912397 196.644857 
L 348.986777 196.717787 
L 352.061157 196.780025 
L 355.135537 196.832551 
L 358.209917 196.876288 
L 361.284298 196.912112 
L 364.358678 196.940845 
L 367.433058 196.963262 
L 370.507438 196.980087 
L 373.581818 196.992 
" clip-path="url(#p9bdd59e74e)" style="fill: none; stroke: #ffffff; stroke-linecap: square"/>
   </g>
   <g id="patch_3">
    <path d="M 54 205.056 
L 54 27.648 
" style="fill: none; stroke: #ffffff; stroke-width: 0.8; stroke-linejoin: miter; stroke-linecap: square"/>
   </g>
   <g id="patch_4">
    <path d="M 54 205.056 
L 388.8 205.056 
" style="fill: none; stroke: #ffffff; stroke-width: 0.8; stroke-linejoin: miter; stroke-linecap: square"/>
   </g>
   <g id="text_2">
    <!-- $\Gamma[B^0(t)\to f]$ -->
    <g style="fill: #ffffff" transform="translate(120.96 158.148326) scale(0.16 -0.16)">
     <defs>
      <path id="Cmr10-a1" d="M 197 0 
L 197 225 
Q 856 225 856 428 
L 856 3944 
Q 856 4147 197 4147 
L 197 4372 
L 3547 4372 
L 3725 2906 
L 3541 2906 
Q 3494 3313 3433 3534 
Q 3372 3756 3247 3892 
Q 3122 4028 2897 4087 
Q 2672 4147 2272 4147 
L 1778 4147 
Q 1663 4147 1598 4137 
Q 1534 4128 1493 4083 
Q 1453 4038 1453 3944 
L 1453 428 
Q 1453 225 2272 225 
L 2272 0 
L 197 0 
z
" transform="scale(0.015625)"/>
      <path id="Cmr10-5b" d="M 756 -1600 
L 756 4800 
L 1631 4800 
L 1631 4544 
L 1013 4544 
L 1013 -1344 
L 1631 -1344 
L 1631 -1600 
L 756 -1600 
z
" transform="scale(0.015625)"/>
      <path id="Cmmi10-42" d="M 319 0 
Q 256 0 256 84 
Q 259 100 268 137 
Q 278 175 293 200 
Q 309 225 341 225 
Q 522 225 656 234 
Q 791 244 884 269 
Q 959 297 1006 441 
L 1881 3956 
Q 1894 4019 1894 4044 
Q 1894 4113 1819 4122 
Q 1697 4147 1356 4147 
Q 1294 4147 1294 4231 
Q 1297 4247 1306 4286 
Q 1316 4325 1333 4348 
Q 1350 4372 1375 4372 
L 3669 4372 
Q 3878 4372 4083 4320 
Q 4288 4269 4461 4156 
Q 4634 4044 4736 3876 
Q 4838 3709 4838 3488 
Q 4838 3247 4714 3040 
Q 4591 2834 4395 2681 
Q 4200 2528 3973 2429 
Q 3747 2331 3500 2284 
Q 3675 2284 3854 2215 
Q 4034 2147 4175 2028 
Q 4316 1909 4402 1743 
Q 4488 1578 4488 1388 
Q 4488 1003 4219 684 
Q 3950 366 3542 183 
Q 3134 0 2753 0 
L 319 0 
z
M 1497 275 
Q 1497 225 1716 225 
L 2631 225 
Q 2944 225 3231 398 
Q 3519 572 3692 859 
Q 3866 1147 3866 1459 
Q 3866 1650 3786 1820 
Q 3706 1991 3556 2089 
Q 3406 2188 3213 2188 
L 1966 2188 
L 1522 416 
Q 1497 328 1497 275 
z
M 2009 2356 
L 2981 2356 
Q 3288 2356 3577 2512 
Q 3866 2669 4048 2937 
Q 4231 3206 4231 3506 
Q 4231 3784 4057 3965 
Q 3884 4147 3609 4147 
L 2731 4147 
Q 2559 4147 2500 4115 
Q 2441 4084 2400 3928 
L 2009 2356 
z
" transform="scale(0.015625)"/>
      <path id="Cmr10-30" d="M 1600 -141 
Q 816 -141 533 504 
Q 250 1150 250 2041 
Q 250 2597 351 3087 
Q 453 3578 754 3920 
Q 1056 4263 1600 4263 
Q 2022 4263 2290 4056 
Q 2559 3850 2700 3523 
Q 2841 3197 2892 2823 
Q 2944 2450 2944 2041 
Q 2944 1491 2842 1011 
Q 2741 531 2444 195 
Q 2147 -141 1600 -141 
z
M 1600 25 
Q 1956 25 2131 390 
Q 2306 756 2347 1200 
Q 2388 1644 2388 2144 
Q 2388 2625 2347 3031 
Q 2306 3438 2132 3767 
Q 1959 4097 1600 4097 
Q 1238 4097 1063 3765 
Q 888 3434 847 3029 
Q 806 2625 806 2144 
Q 806 1788 823 1472 
Q 841 1156 916 820 
Q 991 484 1158 254 
Q 1325 25 1600 25 
z
" transform="scale(0.015625)"/>
      <path id="Cmr10-28" d="M 1984 -1588 
Q 1628 -1306 1370 -942 
Q 1113 -578 948 -165 
Q 784 247 703 697 
Q 622 1147 622 1600 
Q 622 2059 703 2509 
Q 784 2959 951 3375 
Q 1119 3791 1378 4153 
Q 1638 4516 1984 4788 
Q 1984 4800 2016 4800 
L 2075 4800 
Q 2094 4800 2109 4783 
Q 2125 4766 2125 4744 
Q 2125 4716 2113 4703 
Q 1800 4397 1592 4047 
Q 1384 3697 1257 3301 
Q 1131 2906 1075 2482 
Q 1019 2059 1019 1600 
Q 1019 -434 2106 -1491 
Q 2125 -1509 2125 -1544 
Q 2125 -1559 2108 -1579 
Q 2091 -1600 2075 -1600 
L 2016 -1600 
Q 1984 -1600 1984 -1588 
z
" transform="scale(0.015625)"/>
      <path id="Cmr10-29" d="M 416 -1600 
Q 359 -1600 359 -1544 
Q 359 -1516 372 -1503 
Q 1466 -434 1466 1600 
Q 1466 3634 384 4691 
Q 359 4706 359 4744 
Q 359 4766 376 4783 
Q 394 4800 416 4800 
L 475 4800 
Q 494 4800 506 4788 
Q 966 4425 1272 3906 
Q 1578 3388 1720 2800 
Q 1863 2213 1863 1600 
Q 1863 1147 1786 708 
Q 1709 269 1542 -157 
Q 1375 -584 1119 -945 
Q 863 -1306 506 -1588 
Q 494 -1600 475 -1600 
L 416 -1600 
z
" transform="scale(0.015625)"/>
      <path id="Cmsy10-21" d="M 481 1472 
Q 428 1472 393 1512 
Q 359 1553 359 1600 
Q 359 1647 393 1687 
Q 428 1728 481 1728 
L 5338 1728 
Q 5094 1903 4906 2133 
Q 4719 2363 4594 2627 
Q 4469 2891 4416 3188 
Q 4416 3272 4481 3272 
L 4609 3272 
Q 4631 3272 4648 3253 
Q 4666 3234 4672 3213 
Q 4725 2938 4839 2702 
Q 4953 2466 5125 2262 
Q 5297 2059 5509 1912 
Q 5722 1766 5991 1672 
Q 6034 1644 6034 1600 
Q 6034 1550 5991 1538 
Q 5656 1422 5378 1192 
Q 5100 963 4919 652 
Q 4738 341 4672 -13 
Q 4666 -34 4647 -53 
Q 4628 -72 4609 -72 
L 4481 -72 
Q 4416 -72 4416 13 
Q 4497 450 4740 836 
Q 4984 1222 5338 1472 
L 481 1472 
z
" transform="scale(0.015625)"/>
      <path id="Cmmi10-66" d="M 622 -1056 
Q 741 -1147 909 -1147 
Q 1138 -1147 1281 -641 
Q 1341 -397 1606 966 
L 1900 2534 
L 1350 2534 
Q 1288 2534 1288 2619 
Q 1313 2759 1369 2759 
L 1941 2759 
L 2016 3175 
Q 2053 3369 2084 3508 
Q 2116 3647 2152 3765 
Q 2188 3884 2259 4031 
Q 2369 4241 2555 4377 
Q 2741 4513 2956 4513 
Q 3097 4513 3230 4461 
Q 3363 4409 3447 4306 
Q 3531 4203 3531 4063 
Q 3531 3900 3423 3779 
Q 3316 3659 3163 3659 
Q 3059 3659 2986 3723 
Q 2913 3788 2913 3891 
Q 2913 4031 3008 4136 
Q 3103 4241 3244 4256 
Q 3125 4347 2950 4347 
Q 2853 4347 2767 4256 
Q 2681 4166 2656 4063 
Q 2616 3900 2478 3181 
L 2400 2759 
L 3059 2759 
Q 3122 2759 3122 2675 
Q 3119 2659 3109 2620 
Q 3100 2581 3083 2557 
Q 3066 2534 3041 2534 
L 2356 2534 
L 2059 972 
Q 2003 631 1929 279 
Q 1856 -72 1723 -442 
Q 1591 -813 1384 -1063 
Q 1178 -1313 897 -1313 
Q 681 -1313 511 -1189 
Q 341 -1066 341 -863 
Q 341 -700 445 -579 
Q 550 -459 709 -459 
Q 816 -459 887 -523 
Q 959 -588 959 -691 
Q 959 -828 857 -942 
Q 756 -1056 622 -1056 
z
" transform="scale(0.015625)"/>
      <path id="Cmr10-5d" d="M 141 -1600 
L 141 -1344 
L 763 -1344 
L 763 4544 
L 141 4544 
L 141 4800 
L 1019 4800 
L 1019 -1600 
L 141 -1600 
z
" transform="scale(0.015625)"/>
     </defs>
     <use xlink:href="#Cmr10-a1" transform="translate(0 0.109375)"/>
     <use xlink:href="#Cmr10-5b" transform="translate(62.5 0.109375)"/>
     <use xlink:href="#Cmmi10-42" transform="translate(90.185547 0.109375)"/>
     <use xlink:href="#Cmr10-30" transform="translate(177.336328 38.373438) scale(0.7)"/>
     <use xlink:href="#Cmr10-28" transform="translate(218.713672 0.109375)"/>
     <use xlink:href="#Cmmi10-74" transform="translate(257.532031 0.109375)"/>
     <use xlink:href="#Cmr10-29" transform="translate(293.616016 0.109375)"/>
     <use xlink:href="#Cmsy10-21" transform="translate(349.992969 0.109375)"/>
     <use xlink:href="#Cmmi10-66" transform="translate(467.551562 0.109375)"/>
     <use xlink:href="#Cmr10-5d" transform="translate(516.428516 0.109375)"/>
    </g>
   </g>
   <g id="text_3">
    <!-- $\Gamma[\bar{B}^0(t)\to f]$ -->
    <g style="fill: #ffffff" transform="translate(148.352727 97.301951) scale(0.16 -0.16)">
     <defs>
      <path id="Cmr10-b9" d="M 441 3553 
L 441 3775 
L 2753 3775 
L 2753 3553 
L 441 3553 
z
" transform="scale(0.015625)"/>
     </defs>
     <use xlink:href="#Cmr10-a1" transform="translate(0 0.109375)"/>
     <use xlink:href="#Cmr10-5b" transform="translate(62.5 0.109375)"/>
     <use xlink:href="#Cmr10-b9" transform="translate(112.240234 25.40625)"/>
     <use xlink:href="#Cmmi10-42" transform="translate(90.185547 0.109375)"/>
     <use xlink:href="#Cmr10-30" transform="translate(170.430937 38.373438) scale(0.7)"/>
     <use xlink:href="#Cmr10-28" transform="translate(211.808281 0.109375)"/>
     <use xlink:href="#Cmmi10-74" transform="translate(250.626641 0.109375)"/>
     <use xlink:href="#Cmr10-29" transform="translate(286.710625 0.109375)"/>
     <use xlink:href="#Cmsy10-21" transform="translate(343.087578 0.109375)"/>
     <use xlink:href="#Cmmi10-66" transform="translate(460.646172 0.109375)"/>
     <use xlink:href="#Cmr10-5d" transform="translate(509.523125 0.109375)"/>
    </g>
   </g>
  </g>
 </g>
 <defs>
  <clipPath id="p9bdd59e74e">
   <rect x="54" y="27.648" width="334.8" height="177.408"/>
  </clipPath>
 </defs>
</svg>
