<?xml version="1.0" encoding="utf-8" standalone="no"?>
<!DOCTYPE svg PUBLIC "-//W3C//DTD SVG 1.1//EN"
  "http://www.w3.org/Graphics/SVG/1.1/DTD/svg11.dtd">
<svg xmlns:xlink="http://www.w3.org/1999/xlink" width="259.2pt" height="172.8pt" viewBox="0 0 259.2 172.8" xmlns="http://www.w3.org/2000/svg" version="1.1">
 <metadata>
  <rdf:RDF xmlns:dc="http://purl.org/dc/elements/1.1/" xmlns:cc="http://creativecommons.org/ns#" xmlns:rdf="http://www.w3.org/1999/02/22-rdf-syntax-ns#">
   <cc:Work>
    <dc:type rdf:resource="http://purl.org/dc/dcmitype/StillImage"/>
    <dc:date>2026-02-16T08:57:05.303800</dc:date>
    <dc:format>image/svg+xml</dc:format>
    <dc:creator>
     <cc:Agent>
      <dc:title>Matplotlib v3.10.8, https://matplotlib.org/</dc:title>
     </cc:Agent>
    </dc:creator>
   </cc:Work>
  </rdf:RDF>
 </metadata>
 <defs>
  <style type="text/css">*{stroke-linejoin: round; stroke-linecap: butt}</style>
 </defs>
 <g id="figure_1">
  <g id="patch_1">
   <path d="M 0 172.8 
L 259.2 172.8 
L 259.2 0 
L 0 0 
L 0 172.8 
z
" style="fill: none"/>
  </g>
  <g id="axes_1">
   <g id="matplotlib.axis_1"/>
   <g id="matplotlib.axis_2"/>
   <g id="text_1">
    <!-- $d$ -->
    <g transform="translate(191.3 153.88) scale(0.28 -0.28)">
     <defs>
      <path id="Cmmi10-64" d="M 1113 -72 
Q 709 -72 476 233 
Q 244 538 244 953 
Q 244 1363 456 1803 
Q 669 2244 1030 2536 
Q 1391 2828 1806 2828 
Q 1994 2828 2145 2723 
Q 2297 2619 2381 2444 
L 2741 3872 
Q 2766 3981 2772 4044 
Q 2772 4147 2356 4147 
Q 2291 4147 2291 4231 
Q 2294 4247 2305 4287 
Q 2316 4328 2333 4350 
Q 2350 4372 2381 4372 
L 3244 4441 
Q 3322 4441 3322 4359 
L 2400 678 
Q 2356 572 2356 372 
Q 2356 97 2541 97 
Q 2741 97 2845 351 
Q 2950 606 3022 941 
Q 3034 978 3072 978 
L 3150 978 
Q 3175 978 3190 956 
Q 3206 934 3206 916 
Q 3094 469 2961 198 
Q 2828 -72 2528 -72 
Q 2313 -72 2147 54 
Q 1981 181 1941 391 
Q 1528 -72 1113 -72 
z
M 1119 97 
Q 1350 97 1567 270 
Q 1784 444 1941 678 
Q 1947 684 1947 703 
L 2297 2113 
Q 2259 2338 2131 2500 
Q 2003 2663 1791 2663 
Q 1575 2663 1389 2486 
Q 1203 2309 1075 2069 
Q 950 1813 836 1366 
Q 722 919 722 672 
Q 722 450 817 273 
Q 913 97 1119 97 
z
" transform="scale(0.015625)"/>
     </defs>
     <use xlink:href="#Cmmi10-64" transform="translate(0 0.609375)"/>
    </g>
   </g>
   <g id="text_2">
    <!-- $\bar{s}$ -->
    <g transform="translate(192.14 115) scale(0.28 -0.28)">
     <defs>
      <path id="Cmr10-b9" d="M 441 3553 
L 441 3775 
L 2753 3775 
L 2753 3553 
L 441 3553 
z
" transform="scale(0.015625)"/>
      <path id="Cmmi10-73" d="M 556 391 
Q 728 97 1247 97 
Q 1472 97 1675 173 
Q 1878 250 2011 403 
Q 2144 556 2144 775 
Q 2144 941 2025 1047 
Q 1906 1153 1734 1191 
L 1388 1259 
Q 1150 1319 997 1481 
Q 844 1644 844 1875 
Q 844 2159 998 2378 
Q 1153 2597 1406 2712 
Q 1659 2828 1931 2828 
Q 2222 2828 2451 2689 
Q 2681 2550 2681 2278 
Q 2681 2131 2598 2018 
Q 2516 1906 2369 1906 
Q 2284 1906 2223 1961 
Q 2163 2016 2163 2100 
Q 2163 2175 2205 2245 
Q 2247 2316 2317 2358 
Q 2388 2400 2463 2400 
Q 2406 2538 2251 2600 
Q 2097 2663 1919 2663 
Q 1756 2663 1593 2597 
Q 1431 2531 1332 2404 
Q 1234 2278 1234 2106 
Q 1234 1991 1315 1903 
Q 1397 1816 1516 1778 
L 1888 1703 
Q 2066 1666 2214 1570 
Q 2363 1475 2448 1329 
Q 2534 1184 2534 997 
Q 2534 759 2401 528 
Q 2269 297 2075 159 
Q 1734 -72 1241 -72 
Q 900 -72 615 84 
Q 331 241 331 550 
Q 331 725 432 854 
Q 534 984 709 984 
Q 813 984 883 921 
Q 953 859 953 756 
Q 953 609 843 500 
Q 734 391 588 391 
L 556 391 
z
" transform="scale(0.015625)"/>
     </defs>
     <use xlink:href="#Cmr10-b9" transform="translate(3.803711 2.015625)"/>
     <use xlink:href="#Cmmi10-73" transform="translate(0 0.84375)"/>
    </g>
   </g>
   <g id="text_3">
    <!-- $c$ -->
    <g transform="translate(192.56 71.8) scale(0.28 -0.28)">
     <defs>
      <path id="Cmmi10-63" d="M 750 763 
Q 750 484 892 290 
Q 1034 97 1300 97 
Q 1681 97 2032 272 
Q 2384 447 2606 756 
Q 2625 775 2656 775 
Q 2688 775 2720 739 
Q 2753 703 2753 672 
Q 2753 647 2741 634 
Q 2506 306 2109 117 
Q 1713 -72 1288 -72 
Q 981 -72 747 73 
Q 513 219 384 462 
Q 256 706 256 1013 
Q 256 1444 497 1869 
Q 738 2294 1138 2561 
Q 1538 2828 1978 2828 
Q 2266 2828 2495 2689 
Q 2725 2550 2725 2278 
Q 2725 2103 2623 1979 
Q 2522 1856 2350 1856 
Q 2247 1856 2176 1920 
Q 2106 1984 2106 2088 
Q 2106 2238 2215 2344 
Q 2325 2450 2472 2450 
L 2484 2450 
Q 2409 2559 2267 2611 
Q 2125 2663 1972 2663 
Q 1597 2663 1315 2342 
Q 1034 2022 892 1576 
Q 750 1131 750 763 
z
" transform="scale(0.015625)"/>
     </defs>
     <use xlink:href="#Cmmi10-63" transform="translate(0 0.8125)"/>
    </g>
   </g>
   <g id="text_4">
    <!-- $\bar{c}$ -->
    <g transform="translate(192.56 28.6) scale(0.28 -0.28)">
     <use xlink:href="#Cmr10-b9" transform="translate(1.912598 2.015625)"/>
     <use xlink:href="#Cmmi10-63" transform="translate(0 0.84375)"/>
    </g>
   </g>
   <g id="text_5">
    <!-- $\bar{b}$ -->
    <g transform="translate(41.5 71.8) scale(0.28 -0.28)">
     <defs>
      <path id="Cmmi10-62" d="M 1106 -72 
Q 719 -72 503 231 
Q 288 534 288 941 
Q 288 1000 317 1173 
Q 347 1347 347 1388 
L 966 3872 
Q 991 3981 997 4044 
Q 997 4147 581 4147 
Q 519 4147 519 4231 
Q 522 4247 533 4287 
Q 544 4328 561 4350 
Q 578 4372 609 4372 
L 1472 4441 
Q 1550 4441 1550 4359 
L 1075 2472 
Q 1438 2828 1806 2828 
Q 2078 2828 2273 2684 
Q 2469 2541 2566 2306 
Q 2663 2072 2663 1806 
Q 2663 1497 2542 1167 
Q 2422 838 2209 555 
Q 1997 272 1712 100 
Q 1428 -72 1106 -72 
z
M 1119 97 
Q 1338 97 1528 280 
Q 1719 463 1838 691 
Q 1966 947 2077 1386 
Q 2188 1825 2188 2088 
Q 2188 2316 2092 2489 
Q 1997 2663 1791 2663 
Q 1559 2663 1348 2492 
Q 1138 2322 978 2088 
L 800 1363 
Q 697 959 691 716 
Q 691 475 795 286 
Q 900 97 1119 97 
z
" transform="scale(0.015625)"/>
     </defs>
     <use xlink:href="#Cmr10-b9" transform="translate(1.839355 27.015625)"/>
     <use xlink:href="#Cmmi10-62" transform="translate(0 0.640625)"/>
    </g>
   </g>
   <g id="text_6">
    <!-- $d$ -->
    <g transform="translate(40.1 158.2) scale(0.28 -0.28)">
     <use xlink:href="#Cmmi10-64" transform="translate(0 0.609375)"/>
    </g>
   </g>
   <g id="text_7">
    <!-- $B^0$ -->
    <g transform="translate(7.86 115) scale(0.28 -0.28)">
     <defs>
      <path id="Cmmi10-42" d="M 319 0 
Q 256 0 256 84 
Q 259 100 268 137 
Q 278 175 293 200 
Q 309 225 341 225 
Q 522 225 656 234 
Q 791 244 884 269 
Q 959 297 1006 441 
L 1881 3956 
Q 1894 4019 1894 4044 
Q 1894 4113 1819 4122 
Q 1697 4147 1356 4147 
Q 1294 4147 1294 4231 
Q 1297 4247 1306 4286 
Q 1316 4325 1333 4348 
Q 1350 4372 1375 4372 
L 3669 4372 
Q 3878 4372 4083 4320 
Q 4288 4269 4461 4156 
Q 4634 4044 4736 3876 
Q 4838 3709 4838 3488 
Q 4838 3247 4714 3040 
Q 4591 2834 4395 2681 
Q 4200 2528 3973 2429 
Q 3747 2331 3500 2284 
Q 3675 2284 3854 2215 
Q 4034 2147 4175 2028 
Q 4316 1909 4402 1743 
Q 4488 1578 4488 1388 
Q 4488 1003 4219 684 
Q 3950 366 3542 183 
Q 3134 0 2753 0 
L 319 0 
z
M 1497 275 
Q 1497 225 1716 225 
L 2631 225 
Q 2944 225 3231 398 
Q 3519 572 3692 859 
Q 3866 1147 3866 1459 
Q 3866 1650 3786 1820 
Q 3706 1991 3556 2089 
Q 3406 2188 3213 2188 
L 1966 2188 
L 1522 416 
Q 1497 328 1497 275 
z
M 2009 2356 
L 2981 2356 
Q 3288 2356 3577 2512 
Q 3866 2669 4048 2937 
Q 4231 3206 4231 3506 
Q 4231 3784 4057 3965 
Q 3884 4147 3609 4147 
L 2731 4147 
Q 2559 4147 2500 4115 
Q 2441 4084 2400 3928 
L 2009 2356 
z
" transform="scale(0.015625)"/>
      <path id="Cmr10-30" d="M 1600 -141 
Q 816 -141 533 504 
Q 250 1150 250 2041 
Q 250 2597 351 3087 
Q 453 3578 754 3920 
Q 1056 4263 1600 4263 
Q 2022 4263 2290 4056 
Q 2559 3850 2700 3523 
Q 2841 3197 2892 2823 
Q 2944 2450 2944 2041 
Q 2944 1491 2842 1011 
Q 2741 531 2444 195 
Q 2147 -141 1600 -141 
z
M 1600 25 
Q 1956 25 2131 390 
Q 2306 756 2347 1200 
Q 2388 1644 2388 2144 
Q 2388 2625 2347 3031 
Q 2306 3438 2132 3767 
Q 1959 4097 1600 4097 
Q 1238 4097 1063 3765 
Q 888 3434 847 3029 
Q 806 2625 806 2144 
Q 806 1788 823 1472 
Q 841 1156 916 820 
Q 991 484 1158 254 
Q 1325 25 1600 25 
z
" transform="scale(0.015625)"/>
     </defs>
     <use xlink:href="#Cmmi10-42" transform="translate(0 0.109375)"/>
     <use xlink:href="#Cmr10-30" transform="translate(87.150781 38.373438) scale(0.7)"/>
    </g>
   </g>
   <g id="text_8">
    <!-- $K^0$ -->
    <g transform="translate(209.64 136.6) scale(0.28 -0.28)">
     <defs>
      <path id="Cmmi10-4b" d="M 300 0 
Q 238 0 238 84 
Q 241 100 250 139 
Q 259 178 276 201 
Q 294 225 319 225 
Q 709 225 863 269 
Q 947 297 984 441 
L 1863 3956 
Q 1875 4019 1875 4044 
Q 1875 4113 1797 4122 
Q 1678 4147 1338 4147 
Q 1275 4147 1275 4231 
Q 1297 4313 1309 4342 
Q 1322 4372 1381 4372 
L 3103 4372 
Q 3169 4372 3169 4288 
Q 3166 4272 3156 4234 
Q 3147 4197 3131 4172 
Q 3116 4147 3084 4147 
Q 2694 4147 2541 4103 
Q 2456 4072 2419 3928 
L 1900 1856 
L 4409 3794 
Q 4416 3806 4489 3879 
Q 4563 3953 4563 4025 
Q 4563 4147 4347 4147 
Q 4281 4147 4281 4231 
Q 4294 4281 4301 4309 
Q 4309 4338 4329 4355 
Q 4350 4372 4391 4372 
L 5631 4372 
Q 5666 4372 5681 4347 
Q 5697 4322 5697 4288 
Q 5694 4272 5683 4231 
Q 5672 4191 5655 4169 
Q 5638 4147 5606 4147 
Q 5138 4147 4581 3713 
Q 4578 3709 4572 3707 
Q 4566 3706 4559 3704 
Q 4553 3703 4550 3700 
L 3231 2675 
L 4191 428 
Q 4278 288 4378 256 
Q 4478 225 4684 225 
Q 4750 225 4750 141 
Q 4731 66 4712 33 
Q 4694 0 4641 0 
L 3156 0 
Q 3097 0 3097 84 
Q 3106 150 3118 187 
Q 3131 225 3181 225 
Q 3344 225 3458 258 
Q 3572 291 3572 409 
Q 3572 453 3566 475 
L 2772 2322 
L 1838 1600 
L 1544 416 
Q 1528 338 1528 325 
Q 1528 259 1606 250 
Q 1728 225 2069 225 
Q 2131 225 2131 141 
Q 2109 50 2096 25 
Q 2084 0 2022 0 
L 300 0 
z
" transform="scale(0.015625)"/>
     </defs>
     <use xlink:href="#Cmmi10-4b" transform="translate(0 0.109375)"/>
     <use xlink:href="#Cmr10-30" transform="translate(96.281641 38.373438) scale(0.7)"/>
    </g>
   </g>
   <g id="text_9">
    <!-- $J/\psi$ -->
    <g transform="translate(209.34 45.88) scale(0.28 -0.28)">
     <defs>
      <path id="Cmmi10-4a" d="M 697 384 
Q 759 206 928 115 
Q 1097 25 1294 25 
Q 1494 25 1680 164 
Q 1866 303 1995 512 
Q 2125 722 2175 928 
L 2931 3956 
Q 2938 3981 2939 3993 
Q 2941 4006 2944 4019 
Q 2944 4088 2894 4103 
Q 2725 4147 2209 4147 
Q 2144 4147 2144 4231 
Q 2156 4281 2164 4309 
Q 2172 4338 2192 4355 
Q 2213 4372 2253 4372 
L 3988 4372 
Q 4050 4372 4050 4288 
Q 4025 4147 3969 4147 
Q 3744 4147 3628 4112 
Q 3513 4078 3469 3928 
L 2713 903 
Q 2641 606 2420 367 
Q 2200 128 1897 -6 
Q 1594 -141 1288 -141 
Q 950 -141 695 46 
Q 441 234 441 556 
Q 441 769 556 922 
Q 672 1075 884 1075 
Q 1006 1075 1089 1000 
Q 1172 925 1172 806 
Q 1172 634 1044 506 
Q 916 378 744 378 
Q 709 378 697 384 
z
" transform="scale(0.015625)"/>
      <path id="Cmmi10-3d" d="M 359 -1472 
Q 359 -1453 366 -1447 
L 2591 4722 
Q 2603 4759 2634 4779 
Q 2666 4800 2706 4800 
Q 2763 4800 2798 4765 
Q 2834 4731 2834 4672 
L 2834 4647 
L 609 -1522 
Q 572 -1600 488 -1600 
Q 434 -1600 396 -1562 
Q 359 -1525 359 -1472 
z
" transform="scale(0.015625)"/>
      <path id="Cmmi10-c3" d="M 1522 -1247 
L 1825 -56 
Q 1547 -56 1286 48 
Q 1025 153 864 356 
Q 703 559 703 850 
Q 703 1016 762 1228 
Q 822 1441 889 1619 
Q 956 1797 1069 2088 
Q 1153 2322 1153 2472 
Q 1153 2663 1013 2663 
Q 759 2663 595 2402 
Q 431 2141 353 1819 
Q 341 1778 300 1778 
L 225 1778 
Q 172 1778 172 1838 
L 172 1856 
Q 275 2238 487 2533 
Q 700 2828 1025 2828 
Q 1253 2828 1411 2678 
Q 1569 2528 1569 2297 
Q 1569 2178 1516 2047 
Q 1403 1756 1337 1584 
Q 1272 1413 1212 1195 
Q 1153 978 1153 806 
Q 1153 494 1348 322 
Q 1544 150 1863 109 
L 2938 4403 
Q 2950 4441 2988 4441 
L 3066 4441 
Q 3116 4441 3116 4378 
L 2047 97 
L 2119 97 
Q 2388 97 2686 256 
Q 2984 416 3229 675 
Q 3475 934 3619 1232 
Q 3763 1531 3763 1791 
Q 3763 1984 3700 2092 
Q 3638 2200 3538 2317 
Q 3438 2434 3438 2503 
Q 3438 2628 3541 2731 
Q 3644 2834 3769 2834 
Q 3922 2834 3989 2693 
Q 4056 2553 4056 2375 
Q 4056 2188 4018 2000 
Q 3981 1813 3916 1556 
Q 3769 972 3303 506 
Q 3144 347 2951 214 
Q 2759 81 2545 4 
Q 2331 -72 2113 -72 
L 2009 -72 
L 1709 -1275 
Q 1697 -1313 1656 -1313 
L 1581 -1313 
Q 1556 -1313 1539 -1292 
Q 1522 -1272 1522 -1247 
z
" transform="scale(0.015625)"/>
     </defs>
     <use xlink:href="#Cmmi10-4a"/>
     <use xlink:href="#Cmmi10-3d" transform="translate(55.419922 0)"/>
     <use xlink:href="#Cmmi10-c3" transform="translate(105.419922 0)"/>
    </g>
   </g>
   <g id="line2d_1">
    <path d="M 129.6 64.8 
L 60.48 64.8 
L 60.48 64.8 
" clip-path="url(#p093d5b4d27)" style="fill: none; stroke: #000000; stroke-width: 2"/>
   </g>
   <g id="line2d_2">
    <path d="M 185.76 108 
L 129.6 64.8 
L 129.6 64.8 
" clip-path="url(#p093d5b4d27)" style="fill: none; stroke: #000000; stroke-width: 2"/>
   </g>
   <g id="line2d_3">
    <path d="M 129.6 64.8 
L 185.76 64.8 
L 185.76 64.8 
" clip-path="url(#p093d5b4d27)" style="fill: none; stroke: #000000; stroke-width: 2"/>
   </g>
   <g id="line2d_4">
    <path d="M 185.76 21.6 
L 129.6 64.8 
L 129.6 64.8 
" clip-path="url(#p093d5b4d27)" style="fill: none; stroke: #000000; stroke-width: 2"/>
   </g>
   <g id="line2d_5">
    <path d="M 60.48 151.2 
L 185.76 151.2 
L 185.76 151.2 
" clip-path="url(#p093d5b4d27)" style="fill: none; stroke: #000000; stroke-width: 2"/>
   </g>
   <g id="patch_2">
    <path d="M 84.153383 64.8 
L 94.953383 69.12 
L 93.009383 64.8 
L 94.953383 60.48 
z
" clip-path="url(#p093d5b4d27)" style="stroke: #000000; stroke-linejoin: miter"/>
   </g>
   <g id="patch_3">
    <path d="M 149.049285 79.760988 
L 154.975674 89.77 
L 156.068763 85.160587 
L 160.243575 82.921729 
z
" clip-path="url(#p093d5b4d27)" style="stroke: #000000; stroke-linejoin: miter"/>
   </g>
   <g id="patch_4">
    <path d="M 168.550376 64.8 
L 157.750376 60.48 
L 159.694376 64.8 
L 157.750376 69.12 
z
" clip-path="url(#p093d5b4d27)" style="stroke: #000000; stroke-linejoin: miter"/>
   </g>
   <g id="patch_5">
    <path d="M 149.049285 49.839012 
L 160.243575 46.678271 
L 156.068763 44.439413 
L 154.975674 39.83 
z
" clip-path="url(#p093d5b4d27)" style="stroke: #000000; stroke-linejoin: miter"/>
   </g>
   <g id="patch_6">
    <path d="M 134.076992 151.2 
L 123.276992 146.88 
L 125.220992 151.2 
L 123.276992 155.52 
z
" clip-path="url(#p093d5b4d27)" style="stroke: #000000; stroke-linejoin: miter"/>
   </g>
   <g id="line2d_6"/>
   <g id="line2d_7"/>
   <g id="line2d_8">
    <defs>
     <path id="m259d11052c" d="M 0 4 
C 1.060812 4 2.078319 3.578535 2.828427 2.828427 
C 3.578535 2.078319 4 1.060812 4 0 
C 4 -1.060812 3.578535 -2.078319 2.828427 -2.828427 
C 2.078319 -3.578535 1.060812 -4 0 -4 
C -1.060812 -4 -2.078319 -3.578535 -2.828427 -2.828427 
C -3.578535 -2.078319 -4 -1.060812 -4 0 
C -4 1.060812 -3.578535 2.078319 -2.828427 2.828427 
C -2.078319 3.578535 -1.060812 4 0 4 
z
" style="stroke: #000000"/>
    </defs>
    <g clip-path="url(#p093d5b4d27)">
     <use xlink:href="#m259d11052c" x="129.6" y="64.8" style="stroke: #000000"/>
    </g>
   </g>
   <g id="line2d_9"/>
   <g id="line2d_10"/>
   <g id="line2d_11"/>
   <g id="line2d_12"/>
  </g>
 </g>
 <defs>
  <clipPath id="p093d5b4d27">
   <rect x="0" y="0" width="259.2" height="172.8"/>
  </clipPath>
 </defs>
</svg>
