<?xml version="1.0" encoding="utf-8" standalone="no"?>
<!DOCTYPE svg PUBLIC "-//W3C//DTD SVG 1.1//EN"
  "http://www.w3.org/Graphics/SVG/1.1/DTD/svg11.dtd">
<svg xmlns:xlink="http://www.w3.org/1999/xlink" width="345.6pt" height="172.8pt" viewBox="0 0 345.6 172.8" xmlns="http://www.w3.org/2000/svg" version="1.1">
 <metadata>
  <rdf:RDF xmlns:dc="http://purl.org/dc/elements/1.1/" xmlns:cc="http://creativecommons.org/ns#" xmlns:rdf="http://www.w3.org/1999/02/22-rdf-syntax-ns#">
   <cc:Work>
    <dc:type rdf:resource="http://purl.org/dc/dcmitype/StillImage"/>
    <dc:date>2026-02-07T09:54:42.754588</dc:date>
    <dc:format>image/svg+xml</dc:format>
    <dc:creator>
     <cc:Agent>
      <dc:title>Matplotlib v3.10.8, https://matplotlib.org/</dc:title>
     </cc:Agent>
    </dc:creator>
   </cc:Work>
  </rdf:RDF>
 </metadata>
 <defs>
  <style type="text/css">*{stroke-linejoin: round; stroke-linecap: butt}</style>
 </defs>
 <g id="figure_1">
  <g id="patch_1">
   <path d="M 0 172.8 
L 345.6 172.8 
L 345.6 0 
L 0 0 
L 0 172.8 
z
" style="fill: none"/>
  </g>
  <g id="axes_1">
   <g id="matplotlib.axis_1"/>
   <g id="matplotlib.axis_2"/>
   <g id="text_1">
    <!-- $u,c,t$ -->
    <g style="fill: #ffffff" transform="translate(50.52 92.25375) scale(0.24 -0.24)">
     <defs>
      <path id="Cmmi10-75" d="M 678 697 
Q 678 906 734 1126 
Q 791 1347 892 1617 
Q 994 1888 1069 2088 
Q 1153 2322 1153 2472 
Q 1153 2663 1013 2663 
Q 759 2663 595 2402 
Q 431 2141 353 1819 
Q 341 1778 300 1778 
L 225 1778 
Q 172 1778 172 1838 
L 172 1856 
Q 275 2238 487 2533 
Q 700 2828 1025 2828 
Q 1253 2828 1411 2678 
Q 1569 2528 1569 2297 
Q 1569 2178 1516 2047 
Q 1488 1969 1388 1706 
Q 1288 1444 1234 1272 
Q 1181 1100 1147 934 
Q 1113 769 1113 603 
Q 1113 391 1203 244 
Q 1294 97 1497 97 
Q 1906 97 2216 603 
Q 2222 628 2226 651 
Q 2231 675 2234 697 
L 2694 2553 
Q 2716 2638 2794 2698 
Q 2872 2759 2963 2759 
Q 3041 2759 3098 2709 
Q 3156 2659 3156 2578 
Q 3156 2541 3150 2528 
L 2688 684 
Q 2644 494 2644 372 
Q 2644 97 2828 97 
Q 3034 97 3136 351 
Q 3238 606 3309 941 
Q 3322 978 3359 978 
L 3438 978 
Q 3463 978 3478 956 
Q 3494 934 3494 916 
Q 3425 641 3361 444 
Q 3297 247 3159 87 
Q 3022 -72 2816 -72 
Q 2613 -72 2452 39 
Q 2291 150 2234 341 
Q 2088 153 1894 40 
Q 1700 -72 1484 -72 
Q 1116 -72 897 129 
Q 678 331 678 697 
z
" transform="scale(0.015625)"/>
      <path id="Cmmi10-3b" d="M 634 -1153 
Q 634 -1125 659 -1100 
Q 891 -878 1019 -587 
Q 1147 -297 1147 25 
L 1147 103 
Q 1044 0 891 0 
Q 744 0 641 103 
Q 538 206 538 353 
Q 538 503 641 603 
Q 744 703 891 703 
Q 1119 703 1216 492 
Q 1313 281 1313 25 
Q 1313 -331 1170 -651 
Q 1028 -972 769 -1228 
Q 744 -1241 728 -1241 
Q 697 -1241 665 -1212 
Q 634 -1184 634 -1153 
z
" transform="scale(0.015625)"/>
      <path id="Cmmi10-63" d="M 750 763 
Q 750 484 892 290 
Q 1034 97 1300 97 
Q 1681 97 2032 272 
Q 2384 447 2606 756 
Q 2625 775 2656 775 
Q 2688 775 2720 739 
Q 2753 703 2753 672 
Q 2753 647 2741 634 
Q 2506 306 2109 117 
Q 1713 -72 1288 -72 
Q 981 -72 747 73 
Q 513 219 384 462 
Q 256 706 256 1013 
Q 256 1444 497 1869 
Q 738 2294 1138 2561 
Q 1538 2828 1978 2828 
Q 2266 2828 2495 2689 
Q 2725 2550 2725 2278 
Q 2725 2103 2623 1979 
Q 2522 1856 2350 1856 
Q 2247 1856 2176 1920 
Q 2106 1984 2106 2088 
Q 2106 2238 2215 2344 
Q 2325 2450 2472 2450 
L 2484 2450 
Q 2409 2559 2267 2611 
Q 2125 2663 1972 2663 
Q 1597 2663 1315 2342 
Q 1034 2022 892 1576 
Q 750 1131 750 763 
z
" transform="scale(0.015625)"/>
      <path id="Cmmi10-74" d="M 397 519 
Q 397 613 416 697 
L 878 2534 
L 206 2534 
Q 141 2534 141 2619 
Q 166 2759 225 2759 
L 934 2759 
L 1191 3803 
Q 1216 3888 1291 3947 
Q 1366 4006 1459 4006 
Q 1541 4006 1595 3957 
Q 1650 3909 1650 3828 
Q 1650 3809 1648 3798 
Q 1647 3788 1644 3775 
L 1388 2759 
L 2047 2759 
Q 2113 2759 2113 2675 
Q 2109 2659 2100 2621 
Q 2091 2584 2075 2559 
Q 2059 2534 2028 2534 
L 1331 2534 
L 872 684 
Q 825 503 825 372 
Q 825 97 1013 97 
Q 1294 97 1511 361 
Q 1728 625 1844 941 
Q 1869 978 1894 978 
L 1972 978 
Q 1997 978 2012 961 
Q 2028 944 2028 922 
Q 2028 909 2022 903 
Q 1881 516 1612 222 
Q 1344 -72 997 -72 
Q 744 -72 570 93 
Q 397 259 397 519 
z
" transform="scale(0.015625)"/>
     </defs>
     <use xlink:href="#Cmmi10-75" transform="translate(0 0.40625)"/>
     <use xlink:href="#Cmmi10-3b" transform="translate(57.177734 0.40625)"/>
     <use xlink:href="#Cmmi10-63" transform="translate(102.421875 0.40625)"/>
     <use xlink:href="#Cmmi10-3b" transform="translate(145.634766 0.40625)"/>
     <use xlink:href="#Cmmi10-74" transform="translate(190.878906 0.40625)"/>
    </g>
   </g>
   <g id="text_2">
    <!-- $u,c,t$ -->
    <g style="fill: #ffffff" transform="translate(240.6 92.25375) scale(0.24 -0.24)">
     <use xlink:href="#Cmmi10-75" transform="translate(0 0.40625)"/>
     <use xlink:href="#Cmmi10-3b" transform="translate(57.177734 0.40625)"/>
     <use xlink:href="#Cmmi10-63" transform="translate(102.421875 0.40625)"/>
     <use xlink:href="#Cmmi10-3b" transform="translate(145.634766 0.40625)"/>
     <use xlink:href="#Cmmi10-74" transform="translate(190.878906 0.40625)"/>
    </g>
   </g>
   <g id="text_3">
    <!-- $s$ -->
    <g style="fill: #ffffff" transform="translate(311.22 155.88) scale(0.36 -0.36)">
     <defs>
      <path id="Cmmi10-73" d="M 556 391 
Q 728 97 1247 97 
Q 1472 97 1675 173 
Q 1878 250 2011 403 
Q 2144 556 2144 775 
Q 2144 941 2025 1047 
Q 1906 1153 1734 1191 
L 1388 1259 
Q 1150 1319 997 1481 
Q 844 1644 844 1875 
Q 844 2159 998 2378 
Q 1153 2597 1406 2712 
Q 1659 2828 1931 2828 
Q 2222 2828 2451 2689 
Q 2681 2550 2681 2278 
Q 2681 2131 2598 2018 
Q 2516 1906 2369 1906 
Q 2284 1906 2223 1961 
Q 2163 2016 2163 2100 
Q 2163 2175 2205 2245 
Q 2247 2316 2317 2358 
Q 2388 2400 2463 2400 
Q 2406 2538 2251 2600 
Q 2097 2663 1919 2663 
Q 1756 2663 1593 2597 
Q 1431 2531 1332 2404 
Q 1234 2278 1234 2106 
Q 1234 1991 1315 1903 
Q 1397 1816 1516 1778 
L 1888 1703 
Q 2066 1666 2214 1570 
Q 2363 1475 2448 1329 
Q 2534 1184 2534 997 
Q 2534 759 2401 528 
Q 2269 297 2075 159 
Q 1734 -72 1241 -72 
Q 900 -72 615 84 
Q 331 241 331 550 
Q 331 725 432 854 
Q 534 984 709 984 
Q 813 984 883 921 
Q 953 859 953 756 
Q 953 609 843 500 
Q 734 391 588 391 
L 556 391 
z
" transform="scale(0.015625)"/>
     </defs>
     <use xlink:href="#Cmmi10-73" transform="translate(0 0.8125)"/>
    </g>
   </g>
   <g id="text_4">
    <!-- $\bar{d}$ -->
    <g style="fill: #ffffff" transform="translate(310.14 34.92) scale(0.36 -0.36)">
     <defs>
      <path id="Cmr10-b9" d="M 441 3553 
L 441 3775 
L 2753 3775 
L 2753 3553 
L 441 3553 
z
" transform="scale(0.015625)"/>
      <path id="Cmmi10-64" d="M 1113 -72 
Q 709 -72 476 233 
Q 244 538 244 953 
Q 244 1363 456 1803 
Q 669 2244 1030 2536 
Q 1391 2828 1806 2828 
Q 1994 2828 2145 2723 
Q 2297 2619 2381 2444 
L 2741 3872 
Q 2766 3981 2772 4044 
Q 2772 4147 2356 4147 
Q 2291 4147 2291 4231 
Q 2294 4247 2305 4287 
Q 2316 4328 2333 4350 
Q 2350 4372 2381 4372 
L 3244 4441 
Q 3322 4441 3322 4359 
L 2400 678 
Q 2356 572 2356 372 
Q 2356 97 2541 97 
Q 2741 97 2845 351 
Q 2950 606 3022 941 
Q 3034 978 3072 978 
L 3150 978 
Q 3175 978 3190 956 
Q 3206 934 3206 916 
Q 3094 469 2961 198 
Q 2828 -72 2528 -72 
Q 2313 -72 2147 54 
Q 1981 181 1941 391 
Q 1528 -72 1113 -72 
z
M 1119 97 
Q 1350 97 1567 270 
Q 1784 444 1941 678 
Q 1947 684 1947 703 
L 2297 2113 
Q 2259 2338 2131 2500 
Q 2003 2663 1791 2663 
Q 1575 2663 1389 2486 
Q 1203 2309 1075 2069 
Q 950 1813 836 1366 
Q 722 919 722 672 
Q 722 450 817 273 
Q 913 97 1119 97 
z
" transform="scale(0.015625)"/>
     </defs>
     <use xlink:href="#Cmr10-b9" transform="translate(7.109863 27.015625)"/>
     <use xlink:href="#Cmmi10-64" transform="translate(0 0.640625)"/>
    </g>
   </g>
   <g id="text_5">
    <!-- $d$ -->
    <g style="fill: #ffffff" transform="translate(16.38 155.88) scale(0.36 -0.36)">
     <use xlink:href="#Cmmi10-64" transform="translate(0 0.609375)"/>
    </g>
   </g>
   <g id="text_6">
    <!-- $\bar{s}$ -->
    <g style="fill: #ffffff" transform="translate(17.46 34.92) scale(0.36 -0.36)">
     <use xlink:href="#Cmr10-b9" transform="translate(3.803711 2.015625)"/>
     <use xlink:href="#Cmmi10-73" transform="translate(0 0.84375)"/>
    </g>
   </g>
   <g id="line2d_1">
    <path d="M 43.2 151.2 
L 172.8 151.2 
L 172.8 151.2 
" clip-path="url(#pee6e41bda5)" style="fill: none; stroke: #ffffff; stroke-width: 2"/>
   </g>
   <g id="line2d_2">
    <path d="M 172.8 21.6 
L 43.2 21.6 
L 43.2 21.6 
" clip-path="url(#pee6e41bda5)" style="fill: none; stroke: #ffffff; stroke-width: 2"/>
   </g>
   <g id="line2d_3">
    <path d="M 172.8 151.2 
L 169.825261 151.101602 
L 166.859556 150.806708 
L 163.911892 150.316212 
L 160.991221 149.631606 
L 158.106413 148.754966 
L 154.864636 147.521393 
L 151.693996 146.045391 
L 148.607071 144.332816 
L 145.616102 142.390458 
L 142.732955 140.226024 
L 139.969063 137.848096 
L 137.335391 135.266108 
L 134.842383 132.490301 
L 132.499928 129.531683 
L 130.317317 126.40199 
L 128.303207 123.113635 
L 126.465587 119.679662 
L 124.811745 116.11369 
L 123.34824 112.429864 
L 122.080879 108.642793 
L 121.014687 104.767501 
L 120.153893 100.819357 
L 119.501911 96.81402 
L 119.061329 92.767378 
L 118.833892 88.695481 
L 118.820503 84.614479 
L 119.021216 80.540559 
L 119.435234 76.489879 
L 120.060915 72.478507 
L 120.895777 68.522352 
L 121.936509 64.637106 
L 123.178983 60.838178 
L 124.618271 57.140638 
L 126.248665 53.559151 
L 128.063697 50.107922 
L 130.056168 46.800639 
L 132.218177 43.650421 
L 134.541146 40.669763 
L 137.015864 37.870487 
L 139.632514 35.263695 
L 142.380717 32.859727 
L 145.249574 30.668119 
L 148.227705 28.697562 
L 151.303298 26.955873 
L 154.464155 25.44996 
L 157.697737 24.185796 
L 160.991221 23.168394 
L 163.911892 22.483788 
L 166.859556 21.993292 
L 169.825261 21.698398 
L 172.8 21.6 
L 172.8 21.6 
" clip-path="url(#pee6e41bda5)" style="fill: none; stroke: #ffffff; stroke-width: 2"/>
   </g>
   <g id="line2d_4">
    <path d="M 172.8 21.6 
L 175.774739 21.698398 
L 178.740444 21.993292 
L 181.688108 22.483788 
L 184.608779 23.168394 
L 187.493587 24.045034 
L 190.735364 25.278607 
L 193.906004 26.754609 
L 196.992929 28.467184 
L 199.983898 30.409542 
L 202.867045 32.573976 
L 205.630937 34.951904 
L 208.264609 37.533892 
L 210.757617 40.309699 
L 213.100072 43.268317 
L 215.282683 46.39801 
L 217.296793 49.686365 
L 219.134413 53.120338 
L 220.788255 56.68631 
L 222.25176 60.370136 
L 223.519121 64.157207 
L 224.585313 68.032499 
L 225.446107 71.980643 
L 226.098089 75.98598 
L 226.538671 80.032622 
L 226.766108 84.104519 
L 226.779497 88.185521 
L 226.578784 92.259441 
L 226.164766 96.310121 
L 225.539085 100.321493 
L 224.704223 104.277648 
L 223.663491 108.162894 
L 222.421017 111.961822 
L 220.981729 115.659362 
L 219.351335 119.240849 
L 217.536303 122.692078 
L 215.543832 125.999361 
L 213.381823 129.149579 
L 211.058854 132.130237 
L 208.584136 134.929513 
L 205.967486 137.536305 
L 203.219283 139.940273 
L 200.350426 142.131881 
L 197.372295 144.102438 
L 194.296702 145.844127 
L 191.135845 147.35004 
L 187.902263 148.614204 
L 184.608779 149.631606 
L 181.688108 150.316212 
L 178.740444 150.806708 
L 175.774739 151.101602 
L 172.8 151.2 
L 172.8 151.2 
" clip-path="url(#pee6e41bda5)" style="fill: none; stroke: #ffffff; stroke-width: 2"/>
   </g>
   <g id="line2d_5">
    <path d="M 172.8 151.2 
L 302.4 151.2 
L 302.4 151.2 
" clip-path="url(#pee6e41bda5)" style="fill: none; stroke: #ffffff; stroke-width: 2"/>
   </g>
   <g id="line2d_6">
    <path d="M 302.4 21.6 
L 172.8 21.6 
L 172.8 21.6 
" clip-path="url(#pee6e41bda5)" style="fill: none; stroke: #ffffff; stroke-width: 2"/>
   </g>
   <g id="patch_2">
    <path d="M 118.962406 151.2 
L 108.162406 146.88 
L 110.106406 151.2 
L 108.162406 155.52 
z
" clip-path="url(#pee6e41bda5)" style="fill: #ffffff; stroke: #ffffff; stroke-linejoin: miter"/>
   </g>
   <g id="patch_3">
    <path d="M 97.037594 21.6 
L 107.837594 25.92 
L 105.893594 21.6 
L 107.837594 17.28 
z
" clip-path="url(#pee6e41bda5)" style="fill: #ffffff; stroke: #ffffff; stroke-linejoin: miter"/>
   </g>
   <g id="patch_4">
    <path d="M 119.579829 75.373055 
L 114.480511 86.116549 
L 118.813174 84.200936 
L 123.120325 86.173239 
z
" clip-path="url(#pee6e41bda5)" style="fill: #ffffff; stroke: #ffffff; stroke-linejoin: miter"/>
   </g>
   <g id="patch_5">
    <path d="M 226.020171 97.426945 
L 231.119489 86.683451 
L 226.786826 88.599064 
L 222.479675 86.626761 
z
" clip-path="url(#pee6e41bda5)" style="fill: #ffffff; stroke: #ffffff; stroke-linejoin: miter"/>
   </g>
   <g id="patch_6">
    <path d="M 248.562406 151.2 
L 237.762406 146.88 
L 239.706406 151.2 
L 237.762406 155.52 
z
" clip-path="url(#pee6e41bda5)" style="fill: #ffffff; stroke: #ffffff; stroke-linejoin: miter"/>
   </g>
   <g id="patch_7">
    <path d="M 226.637594 21.6 
L 237.437594 25.92 
L 235.493594 21.6 
L 237.437594 17.28 
z
" clip-path="url(#pee6e41bda5)" style="fill: #ffffff; stroke: #ffffff; stroke-linejoin: miter"/>
   </g>
   <g id="line2d_7"/>
   <g id="line2d_8"/>
   <g id="line2d_9">
    <defs>
     <path id="m6b4d0a8b21" d="M 0 2 
C 0.530406 2 1.03916 1.789267 1.414214 1.414214 
C 1.789267 1.03916 2 0.530406 2 0 
C 2 -0.530406 1.789267 -1.03916 1.414214 -1.414214 
C 1.03916 -1.789267 0.530406 -2 0 -2 
C -0.530406 -2 -1.03916 -1.789267 -1.414214 -1.414214 
C -1.789267 -1.03916 -2 -0.530406 -2 0 
C -2 0.530406 -1.789267 1.03916 -1.414214 1.414214 
C -1.03916 1.789267 -0.530406 2 0 2 
z
" style="stroke: #ffffff"/>
    </defs>
    <g clip-path="url(#pee6e41bda5)">
     <use xlink:href="#m6b4d0a8b21" x="172.8" y="151.2" style="fill: #ffffff; stroke: #ffffff"/>
    </g>
   </g>
   <g id="line2d_10">
    <g clip-path="url(#pee6e41bda5)">
     <use xlink:href="#m6b4d0a8b21" x="172.8" y="21.6" style="fill: #ffffff; stroke: #ffffff"/>
    </g>
   </g>
   <g id="line2d_11"/>
   <g id="line2d_12"/>
  </g>
 </g>
 <defs>
  <clipPath id="pee6e41bda5">
   <rect x="0" y="0" width="345.6" height="172.8"/>
  </clipPath>
 </defs>
</svg>
