<?xml version="1.0" encoding="utf-8" standalone="no"?>
<!DOCTYPE svg PUBLIC "-//W3C//DTD SVG 1.1//EN"
  "http://www.w3.org/Graphics/SVG/1.1/DTD/svg11.dtd">
<svg xmlns:xlink="http://www.w3.org/1999/xlink" width="345.6pt" height="172.8pt" viewBox="0 0 345.6 172.8" xmlns="http://www.w3.org/2000/svg" version="1.1">
 <metadata>
  <rdf:RDF xmlns:dc="http://purl.org/dc/elements/1.1/" xmlns:cc="http://creativecommons.org/ns#" xmlns:rdf="http://www.w3.org/1999/02/22-rdf-syntax-ns#">
   <cc:Work>
    <dc:type rdf:resource="http://purl.org/dc/dcmitype/StillImage"/>
    <dc:date>2026-02-07T09:47:55.363744</dc:date>
    <dc:format>image/svg+xml</dc:format>
    <dc:creator>
     <cc:Agent>
      <dc:title>Matplotlib v3.10.8, https://matplotlib.org/</dc:title>
     </cc:Agent>
    </dc:creator>
   </cc:Work>
  </rdf:RDF>
 </metadata>
 <defs>
  <style type="text/css">*{stroke-linejoin: round; stroke-linecap: butt}</style>
 </defs>
 <g id="figure_1">
  <g id="patch_1">
   <path d="M 0 172.8 
L 345.6 172.8 
L 345.6 0 
L 0 0 
L 0 172.8 
z
" style="fill: none"/>
  </g>
  <g id="axes_1">
   <g id="matplotlib.axis_1"/>
   <g id="matplotlib.axis_2"/>
   <g id="text_1">
    <!-- $u,c,t$ -->
    <g style="fill: #ffffff" transform="translate(59.16 92.25375) scale(0.24 -0.24)">
     <defs>
      <path id="Cmmi10-75" d="M 678 697 
Q 678 906 734 1126 
Q 791 1347 892 1617 
Q 994 1888 1069 2088 
Q 1153 2322 1153 2472 
Q 1153 2663 1013 2663 
Q 759 2663 595 2402 
Q 431 2141 353 1819 
Q 341 1778 300 1778 
L 225 1778 
Q 172 1778 172 1838 
L 172 1856 
Q 275 2238 487 2533 
Q 700 2828 1025 2828 
Q 1253 2828 1411 2678 
Q 1569 2528 1569 2297 
Q 1569 2178 1516 2047 
Q 1488 1969 1388 1706 
Q 1288 1444 1234 1272 
Q 1181 1100 1147 934 
Q 1113 769 1113 603 
Q 1113 391 1203 244 
Q 1294 97 1497 97 
Q 1906 97 2216 603 
Q 2222 628 2226 651 
Q 2231 675 2234 697 
L 2694 2553 
Q 2716 2638 2794 2698 
Q 2872 2759 2963 2759 
Q 3041 2759 3098 2709 
Q 3156 2659 3156 2578 
Q 3156 2541 3150 2528 
L 2688 684 
Q 2644 494 2644 372 
Q 2644 97 2828 97 
Q 3034 97 3136 351 
Q 3238 606 3309 941 
Q 3322 978 3359 978 
L 3438 978 
Q 3463 978 3478 956 
Q 3494 934 3494 916 
Q 3425 641 3361 444 
Q 3297 247 3159 87 
Q 3022 -72 2816 -72 
Q 2613 -72 2452 39 
Q 2291 150 2234 341 
Q 2088 153 1894 40 
Q 1700 -72 1484 -72 
Q 1116 -72 897 129 
Q 678 331 678 697 
z
" transform="scale(0.015625)"/>
      <path id="Cmmi10-3b" d="M 634 -1153 
Q 634 -1125 659 -1100 
Q 891 -878 1019 -587 
Q 1147 -297 1147 25 
L 1147 103 
Q 1044 0 891 0 
Q 744 0 641 103 
Q 538 206 538 353 
Q 538 503 641 603 
Q 744 703 891 703 
Q 1119 703 1216 492 
Q 1313 281 1313 25 
Q 1313 -331 1170 -651 
Q 1028 -972 769 -1228 
Q 744 -1241 728 -1241 
Q 697 -1241 665 -1212 
Q 634 -1184 634 -1153 
z
" transform="scale(0.015625)"/>
      <path id="Cmmi10-63" d="M 750 763 
Q 750 484 892 290 
Q 1034 97 1300 97 
Q 1681 97 2032 272 
Q 2384 447 2606 756 
Q 2625 775 2656 775 
Q 2688 775 2720 739 
Q 2753 703 2753 672 
Q 2753 647 2741 634 
Q 2506 306 2109 117 
Q 1713 -72 1288 -72 
Q 981 -72 747 73 
Q 513 219 384 462 
Q 256 706 256 1013 
Q 256 1444 497 1869 
Q 738 2294 1138 2561 
Q 1538 2828 1978 2828 
Q 2266 2828 2495 2689 
Q 2725 2550 2725 2278 
Q 2725 2103 2623 1979 
Q 2522 1856 2350 1856 
Q 2247 1856 2176 1920 
Q 2106 1984 2106 2088 
Q 2106 2238 2215 2344 
Q 2325 2450 2472 2450 
L 2484 2450 
Q 2409 2559 2267 2611 
Q 2125 2663 1972 2663 
Q 1597 2663 1315 2342 
Q 1034 2022 892 1576 
Q 750 1131 750 763 
z
" transform="scale(0.015625)"/>
      <path id="Cmmi10-74" d="M 397 519 
Q 397 613 416 697 
L 878 2534 
L 206 2534 
Q 141 2534 141 2619 
Q 166 2759 225 2759 
L 934 2759 
L 1191 3803 
Q 1216 3888 1291 3947 
Q 1366 4006 1459 4006 
Q 1541 4006 1595 3957 
Q 1650 3909 1650 3828 
Q 1650 3809 1648 3798 
Q 1647 3788 1644 3775 
L 1388 2759 
L 2047 2759 
Q 2113 2759 2113 2675 
Q 2109 2659 2100 2621 
Q 2091 2584 2075 2559 
Q 2059 2534 2028 2534 
L 1331 2534 
L 872 684 
Q 825 503 825 372 
Q 825 97 1013 97 
Q 1294 97 1511 361 
Q 1728 625 1844 941 
Q 1869 978 1894 978 
L 1972 978 
Q 1997 978 2012 961 
Q 2028 944 2028 922 
Q 2028 909 2022 903 
Q 1881 516 1612 222 
Q 1344 -72 997 -72 
Q 744 -72 570 93 
Q 397 259 397 519 
z
" transform="scale(0.015625)"/>
     </defs>
     <use xlink:href="#Cmmi10-75" transform="translate(0 0.40625)"/>
     <use xlink:href="#Cmmi10-3b" transform="translate(57.177734 0.40625)"/>
     <use xlink:href="#Cmmi10-63" transform="translate(102.421875 0.40625)"/>
     <use xlink:href="#Cmmi10-3b" transform="translate(145.634766 0.40625)"/>
     <use xlink:href="#Cmmi10-74" transform="translate(190.878906 0.40625)"/>
    </g>
   </g>
   <g id="text_2">
    <!-- $u,c,t$ -->
    <g style="fill: #ffffff" transform="translate(231.96 92.25375) scale(0.24 -0.24)">
     <use xlink:href="#Cmmi10-75" transform="translate(0 0.40625)"/>
     <use xlink:href="#Cmmi10-3b" transform="translate(57.177734 0.40625)"/>
     <use xlink:href="#Cmmi10-63" transform="translate(102.421875 0.40625)"/>
     <use xlink:href="#Cmmi10-3b" transform="translate(145.634766 0.40625)"/>
     <use xlink:href="#Cmmi10-74" transform="translate(190.878906 0.40625)"/>
    </g>
   </g>
   <g id="text_3">
    <!-- $s$ -->
    <g style="fill: #ffffff" transform="translate(311.22 155.88) scale(0.36 -0.36)">
     <defs>
      <path id="Cmmi10-73" d="M 556 391 
Q 728 97 1247 97 
Q 1472 97 1675 173 
Q 1878 250 2011 403 
Q 2144 556 2144 775 
Q 2144 941 2025 1047 
Q 1906 1153 1734 1191 
L 1388 1259 
Q 1150 1319 997 1481 
Q 844 1644 844 1875 
Q 844 2159 998 2378 
Q 1153 2597 1406 2712 
Q 1659 2828 1931 2828 
Q 2222 2828 2451 2689 
Q 2681 2550 2681 2278 
Q 2681 2131 2598 2018 
Q 2516 1906 2369 1906 
Q 2284 1906 2223 1961 
Q 2163 2016 2163 2100 
Q 2163 2175 2205 2245 
Q 2247 2316 2317 2358 
Q 2388 2400 2463 2400 
Q 2406 2538 2251 2600 
Q 2097 2663 1919 2663 
Q 1756 2663 1593 2597 
Q 1431 2531 1332 2404 
Q 1234 2278 1234 2106 
Q 1234 1991 1315 1903 
Q 1397 1816 1516 1778 
L 1888 1703 
Q 2066 1666 2214 1570 
Q 2363 1475 2448 1329 
Q 2534 1184 2534 997 
Q 2534 759 2401 528 
Q 2269 297 2075 159 
Q 1734 -72 1241 -72 
Q 900 -72 615 84 
Q 331 241 331 550 
Q 331 725 432 854 
Q 534 984 709 984 
Q 813 984 883 921 
Q 953 859 953 756 
Q 953 609 843 500 
Q 734 391 588 391 
L 556 391 
z
" transform="scale(0.015625)"/>
     </defs>
     <use xlink:href="#Cmmi10-73" transform="translate(0 0.8125)"/>
    </g>
   </g>
   <g id="text_4">
    <!-- $\bar{d}$ -->
    <g style="fill: #ffffff" transform="translate(310.14 34.92) scale(0.36 -0.36)">
     <defs>
      <path id="Cmr10-b9" d="M 441 3553 
L 441 3775 
L 2753 3775 
L 2753 3553 
L 441 3553 
z
" transform="scale(0.015625)"/>
      <path id="Cmmi10-64" d="M 1113 -72 
Q 709 -72 476 233 
Q 244 538 244 953 
Q 244 1363 456 1803 
Q 669 2244 1030 2536 
Q 1391 2828 1806 2828 
Q 1994 2828 2145 2723 
Q 2297 2619 2381 2444 
L 2741 3872 
Q 2766 3981 2772 4044 
Q 2772 4147 2356 4147 
Q 2291 4147 2291 4231 
Q 2294 4247 2305 4287 
Q 2316 4328 2333 4350 
Q 2350 4372 2381 4372 
L 3244 4441 
Q 3322 4441 3322 4359 
L 2400 678 
Q 2356 572 2356 372 
Q 2356 97 2541 97 
Q 2741 97 2845 351 
Q 2950 606 3022 941 
Q 3034 978 3072 978 
L 3150 978 
Q 3175 978 3190 956 
Q 3206 934 3206 916 
Q 3094 469 2961 198 
Q 2828 -72 2528 -72 
Q 2313 -72 2147 54 
Q 1981 181 1941 391 
Q 1528 -72 1113 -72 
z
M 1119 97 
Q 1350 97 1567 270 
Q 1784 444 1941 678 
Q 1947 684 1947 703 
L 2297 2113 
Q 2259 2338 2131 2500 
Q 2003 2663 1791 2663 
Q 1575 2663 1389 2486 
Q 1203 2309 1075 2069 
Q 950 1813 836 1366 
Q 722 919 722 672 
Q 722 450 817 273 
Q 913 97 1119 97 
z
" transform="scale(0.015625)"/>
     </defs>
     <use xlink:href="#Cmr10-b9" transform="translate(7.109863 27.015625)"/>
     <use xlink:href="#Cmmi10-64" transform="translate(0 0.640625)"/>
    </g>
   </g>
   <g id="text_5">
    <!-- $d$ -->
    <g style="fill: #ffffff" transform="translate(16.38 155.88) scale(0.36 -0.36)">
     <use xlink:href="#Cmmi10-64" transform="translate(0 0.609375)"/>
    </g>
   </g>
   <g id="text_6">
    <!-- $\bar{s}$ -->
    <g style="fill: #ffffff" transform="translate(17.46 34.92) scale(0.36 -0.36)">
     <use xlink:href="#Cmr10-b9" transform="translate(3.803711 2.015625)"/>
     <use xlink:href="#Cmmi10-73" transform="translate(0 0.84375)"/>
    </g>
   </g>
   <g id="line2d_1">
    <path d="M 43.2 151.2 
L 120.96 151.2 
L 120.96 151.2 
" clip-path="url(#p5571ef2722)" style="fill: none; stroke: #ffffff; stroke-width: 2"/>
   </g>
   <g id="line2d_2">
    <path d="M 120.96 21.6 
L 43.2 21.6 
L 43.2 21.6 
" clip-path="url(#p5571ef2722)" style="fill: none; stroke: #ffffff; stroke-width: 2"/>
   </g>
   <g id="line2d_3">
    <path d="M 120.96 151.2 
L 122.778947 145.544333 
L 123.818346 142.972448 
L 124.597895 141.563654 
L 125.377444 140.690027 
L 125.897143 140.430199 
L 126.416842 140.436887 
L 126.936541 140.709927 
L 127.456241 141.24256 
L 128.235789 142.497737 
L 129.015338 144.236204 
L 130.054737 147.135859 
L 133.952481 158.911544 
L 134.73203 160.466883 
L 135.511579 161.507574 
L 136.031278 161.885627 
L 136.550977 161.999247 
L 137.070677 161.845621 
L 137.590376 161.428553 
L 138.110075 160.758361 
L 138.889624 159.316365 
L 139.929023 156.710085 
L 141.228271 152.725522 
L 143.566917 145.400153 
L 144.606316 142.8633 
L 145.385865 141.488059 
L 145.905564 140.867361 
L 146.425263 140.502361 
L 146.944962 140.402092 
L 147.464662 140.569035 
L 147.984361 140.999058 
L 148.50406 141.681521 
L 149.283609 143.139986 
L 150.323008 145.76322 
L 151.882105 150.605052 
L 153.960902 157.0714 
L 155.000301 159.5905 
L 155.77985 160.948836 
L 156.299549 161.557063 
L 156.819248 161.908987 
L 157.338947 161.995899 
L 157.858647 161.81565 
L 158.378346 161.372698 
L 158.898045 160.678007 
L 159.677594 159.203164 
L 160.716992 156.563137 
L 162.27609 151.710024 
L 164.354887 145.257411 
L 165.394286 142.75622 
L 166.173835 141.414873 
L 166.693534 140.819155 
L 167.213233 140.480329 
L 167.732932 140.406778 
L 168.252632 140.600324 
L 168.772331 141.056176 
L 169.29203 141.763053 
L 170.071579 143.254182 
L 171.110977 145.910839 
L 172.670075 150.774932 
L 174.748872 157.213409 
L 175.788271 159.696537 
L 176.56782 161.020812 
L 177.087519 161.603983 
L 177.607218 161.929691 
L 178.126917 161.989875 
L 178.646617 161.783046 
L 179.166316 161.314321 
L 179.686015 160.595302 
L 180.465564 159.087979 
L 181.504962 156.414858 
L 183.06406 151.540086 
L 185.142857 145.116143 
L 186.182256 142.651234 
L 186.961805 141.344113 
L 187.481504 140.773523 
L 188.001203 140.460955 
L 188.520902 140.414141 
L 189.040602 140.634241 
L 189.560301 141.115808 
L 190.33985 142.300641 
L 191.119398 143.979711 
L 192.158797 146.822786 
L 194.237594 153.478706 
L 195.536842 157.353927 
L 196.576241 159.800466 
L 197.355789 161.090352 
L 197.875489 161.648324 
L 198.395188 161.947734 
L 198.914887 161.981175 
L 199.434586 161.747817 
L 199.954286 161.253436 
L 200.733835 160.050905 
L 201.513383 158.356827 
L 202.552782 155.49934 
L 204.891429 148.016644 
L 206.190677 144.301417 
L 206.970226 142.548367 
L 207.749774 141.275797 
L 208.269474 140.730477 
L 208.789173 140.444243 
L 209.308872 140.424178 
L 209.828571 140.670779 
L 210.348271 141.177942 
L 211.12782 142.398098 
L 211.907368 144.107078 
L 212.946767 146.978799 
L 217.104361 159.372212 
L 217.88391 160.797651 
L 218.663459 161.690073 
L 219.183158 161.963113 
L 219.702857 161.969801 
L 220.222556 161.709973 
L 220.742256 161.190059 
L 221.521805 159.952354 
L 222.301353 158.228577 
L 223.340752 155.342799 
L 224.64 151.2 
L 224.64 151.2 
" clip-path="url(#p5571ef2722)" style="fill: none; stroke: #ffffff; stroke-width: 2"/>
   </g>
   <g id="line2d_4">
    <path d="M 120.96 21.6 
L 122.778947 15.944333 
L 123.818346 13.372448 
L 124.597895 11.963654 
L 125.377444 11.090027 
L 125.897143 10.830199 
L 126.416842 10.836887 
L 126.936541 11.109927 
L 127.456241 11.64256 
L 128.235789 12.897737 
L 129.015338 14.636204 
L 130.054737 17.535859 
L 133.952481 29.311544 
L 134.73203 30.866883 
L 135.511579 31.907574 
L 136.031278 32.285627 
L 136.550977 32.399247 
L 137.070677 32.245621 
L 137.590376 31.828553 
L 138.110075 31.158361 
L 138.889624 29.716365 
L 139.929023 27.110085 
L 141.228271 23.125522 
L 143.566917 15.800153 
L 144.606316 13.2633 
L 145.385865 11.888059 
L 145.905564 11.267361 
L 146.425263 10.902361 
L 146.944962 10.802092 
L 147.464662 10.969035 
L 147.984361 11.399058 
L 148.50406 12.081521 
L 149.283609 13.539986 
L 150.323008 16.16322 
L 151.882105 21.005052 
L 153.960902 27.4714 
L 155.000301 29.9905 
L 155.77985 31.348836 
L 156.299549 31.957063 
L 156.819248 32.308987 
L 157.338947 32.395899 
L 157.858647 32.21565 
L 158.378346 31.772698 
L 158.898045 31.078007 
L 159.677594 29.603164 
L 160.716992 26.963137 
L 162.27609 22.110024 
L 164.354887 15.657411 
L 165.394286 13.15622 
L 166.173835 11.814873 
L 166.693534 11.219155 
L 167.213233 10.880329 
L 167.732932 10.806778 
L 168.252632 11.000324 
L 168.772331 11.456176 
L 169.29203 12.163053 
L 170.071579 13.654182 
L 171.110977 16.310839 
L 172.670075 21.174932 
L 174.748872 27.613409 
L 175.788271 30.096537 
L 176.56782 31.420812 
L 177.087519 32.003983 
L 177.607218 32.329691 
L 178.126917 32.389875 
L 178.646617 32.183046 
L 179.166316 31.714321 
L 179.686015 30.995302 
L 180.465564 29.487979 
L 181.504962 26.814858 
L 183.06406 21.940086 
L 185.142857 15.516143 
L 186.182256 13.051234 
L 186.961805 11.744113 
L 187.481504 11.173523 
L 188.001203 10.860955 
L 188.520902 10.814141 
L 189.040602 11.034241 
L 189.560301 11.515808 
L 190.33985 12.700641 
L 191.119398 14.379711 
L 192.158797 17.222786 
L 194.237594 23.878706 
L 195.536842 27.753927 
L 196.576241 30.200466 
L 197.355789 31.490352 
L 197.875489 32.048324 
L 198.395188 32.347734 
L 198.914887 32.381175 
L 199.434586 32.147817 
L 199.954286 31.653436 
L 200.733835 30.450905 
L 201.513383 28.756827 
L 202.552782 25.89934 
L 204.891429 18.416644 
L 206.190677 14.701417 
L 206.970226 12.948367 
L 207.749774 11.675797 
L 208.269474 11.130477 
L 208.789173 10.844243 
L 209.308872 10.824178 
L 209.828571 11.070779 
L 210.348271 11.577942 
L 211.12782 12.798098 
L 211.907368 14.507078 
L 212.946767 17.378799 
L 217.104361 29.772212 
L 217.88391 31.197651 
L 218.663459 32.090073 
L 219.183158 32.363113 
L 219.702857 32.369801 
L 220.222556 32.109973 
L 220.742256 31.590059 
L 221.521805 30.352354 
L 222.301353 28.628577 
L 223.340752 25.742799 
L 224.64 21.6 
L 224.64 21.6 
" clip-path="url(#p5571ef2722)" style="fill: none; stroke: #ffffff; stroke-width: 2"/>
   </g>
   <g id="line2d_5">
    <path d="M 120.96 151.2 
L 120.96 21.6 
L 120.96 21.6 
" clip-path="url(#p5571ef2722)" style="fill: none; stroke: #ffffff; stroke-width: 2"/>
   </g>
   <g id="line2d_6">
    <path d="M 224.64 21.6 
L 224.64 151.2 
L 224.64 151.2 
" clip-path="url(#p5571ef2722)" style="fill: none; stroke: #ffffff; stroke-width: 2"/>
   </g>
   <g id="line2d_7">
    <path d="M 224.64 151.2 
L 302.4 151.2 
L 302.4 151.2 
" clip-path="url(#p5571ef2722)" style="fill: none; stroke: #ffffff; stroke-width: 2"/>
   </g>
   <g id="line2d_8">
    <path d="M 302.4 21.6 
L 224.64 21.6 
L 224.64 21.6 
" clip-path="url(#p5571ef2722)" style="fill: none; stroke: #ffffff; stroke-width: 2"/>
   </g>
   <g id="patch_2">
    <path d="M 92.977444 151.2 
L 82.177444 146.88 
L 84.121444 151.2 
L 82.177444 155.52 
z
" clip-path="url(#p5571ef2722)" style="fill: #ffffff; stroke: #ffffff; stroke-linejoin: miter"/>
   </g>
   <g id="patch_3">
    <path d="M 71.182556 21.6 
L 81.982556 25.92 
L 80.038556 21.6 
L 81.982556 17.28 
z
" clip-path="url(#p5571ef2722)" style="fill: #ffffff; stroke: #ffffff; stroke-linejoin: miter"/>
   </g>
   <g id="patch_4">
    <path d="M 120.96 75.437594 
L 116.64 86.237594 
L 120.96 84.293594 
L 125.28 86.237594 
z
" clip-path="url(#p5571ef2722)" style="fill: #ffffff; stroke: #ffffff; stroke-linejoin: miter"/>
   </g>
   <g id="patch_5">
    <path d="M 224.64 97.362406 
L 228.96 86.562406 
L 224.64 88.506406 
L 220.32 86.562406 
z
" clip-path="url(#p5571ef2722)" style="fill: #ffffff; stroke: #ffffff; stroke-linejoin: miter"/>
   </g>
   <g id="patch_6">
    <path d="M 274.417444 151.2 
L 263.617444 146.88 
L 265.561444 151.2 
L 263.617444 155.52 
z
" clip-path="url(#p5571ef2722)" style="fill: #ffffff; stroke: #ffffff; stroke-linejoin: miter"/>
   </g>
   <g id="patch_7">
    <path d="M 252.622556 21.6 
L 263.422556 25.92 
L 261.478556 21.6 
L 263.422556 17.28 
z
" clip-path="url(#p5571ef2722)" style="fill: #ffffff; stroke: #ffffff; stroke-linejoin: miter"/>
   </g>
   <g id="line2d_9"/>
   <g id="line2d_10"/>
   <g id="line2d_11">
    <defs>
     <path id="m6901ab459f" d="M 0 2 
C 0.530406 2 1.03916 1.789267 1.414214 1.414214 
C 1.789267 1.03916 2 0.530406 2 0 
C 2 -0.530406 1.789267 -1.03916 1.414214 -1.414214 
C 1.03916 -1.789267 0.530406 -2 0 -2 
C -0.530406 -2 -1.03916 -1.789267 -1.414214 -1.414214 
C -1.789267 -1.03916 -2 -0.530406 -2 0 
C -2 0.530406 -1.789267 1.03916 -1.414214 1.414214 
C -1.03916 1.789267 -0.530406 2 0 2 
z
" style="stroke: #ffffff"/>
    </defs>
    <g clip-path="url(#p5571ef2722)">
     <use xlink:href="#m6901ab459f" x="120.96" y="151.2" style="fill: #ffffff; stroke: #ffffff"/>
    </g>
   </g>
   <g id="line2d_12">
    <g clip-path="url(#p5571ef2722)">
     <use xlink:href="#m6901ab459f" x="120.96" y="21.6" style="fill: #ffffff; stroke: #ffffff"/>
    </g>
   </g>
   <g id="line2d_13">
    <g clip-path="url(#p5571ef2722)">
     <use xlink:href="#m6901ab459f" x="224.64" y="151.2" style="fill: #ffffff; stroke: #ffffff"/>
    </g>
   </g>
   <g id="line2d_14">
    <g clip-path="url(#p5571ef2722)">
     <use xlink:href="#m6901ab459f" x="224.64" y="21.6" style="fill: #ffffff; stroke: #ffffff"/>
    </g>
   </g>
   <g id="line2d_15"/>
   <g id="line2d_16"/>
  </g>
 </g>
 <defs>
  <clipPath id="p5571ef2722">
   <rect x="0" y="0" width="345.6" height="172.8"/>
  </clipPath>
 </defs>
</svg>
