<?xml version="1.0" encoding="utf-8" standalone="no"?>
<!DOCTYPE svg PUBLIC "-//W3C//DTD SVG 1.1//EN"
  "http://www.w3.org/Graphics/SVG/1.1/DTD/svg11.dtd">
<svg xmlns:xlink="http://www.w3.org/1999/xlink" width="648pt" height="172.8pt" viewBox="0 0 648 172.8" xmlns="http://www.w3.org/2000/svg" version="1.1">
 <metadata>
  <rdf:RDF xmlns:dc="http://purl.org/dc/elements/1.1/" xmlns:cc="http://creativecommons.org/ns#" xmlns:rdf="http://www.w3.org/1999/02/22-rdf-syntax-ns#">
   <cc:Work>
    <dc:type rdf:resource="http://purl.org/dc/dcmitype/StillImage"/>
    <dc:date>2026-01-20T15:27:56.916902</dc:date>
    <dc:format>image/svg+xml</dc:format>
    <dc:creator>
     <cc:Agent>
      <dc:title>Matplotlib v3.10.8, https://matplotlib.org/</dc:title>
     </cc:Agent>
    </dc:creator>
   </cc:Work>
  </rdf:RDF>
 </metadata>
 <defs>
  <style type="text/css">*{stroke-linejoin: round; stroke-linecap: butt}</style>
 </defs>
 <g id="figure_1">
  <g id="patch_1">
   <path d="M 0 172.8 
L 648 172.8 
L 648 0 
L 0 0 
L 0 172.8 
z
" style="fill: none"/>
  </g>
  <g id="axes_1">
   <g id="matplotlib.axis_1"/>
   <g id="matplotlib.axis_2"/>
   <g id="text_1">
    <!-- $\bar{u}$ -->
    <g style="fill: #ffffff" transform="translate(136.76 26.6) scale(0.2 -0.2)">
     <defs>
      <path id="Cmr10-b9" d="M 441 3553 
L 441 3775 
L 2753 3775 
L 2753 3553 
L 441 3553 
z
" transform="scale(0.015625)"/>
      <path id="Cmmi10-75" d="M 678 697 
Q 678 906 734 1126 
Q 791 1347 892 1617 
Q 994 1888 1069 2088 
Q 1153 2322 1153 2472 
Q 1153 2663 1013 2663 
Q 759 2663 595 2402 
Q 431 2141 353 1819 
Q 341 1778 300 1778 
L 225 1778 
Q 172 1778 172 1838 
L 172 1856 
Q 275 2238 487 2533 
Q 700 2828 1025 2828 
Q 1253 2828 1411 2678 
Q 1569 2528 1569 2297 
Q 1569 2178 1516 2047 
Q 1488 1969 1388 1706 
Q 1288 1444 1234 1272 
Q 1181 1100 1147 934 
Q 1113 769 1113 603 
Q 1113 391 1203 244 
Q 1294 97 1497 97 
Q 1906 97 2216 603 
Q 2222 628 2226 651 
Q 2231 675 2234 697 
L 2694 2553 
Q 2716 2638 2794 2698 
Q 2872 2759 2963 2759 
Q 3041 2759 3098 2709 
Q 3156 2659 3156 2578 
Q 3156 2541 3150 2528 
L 2688 684 
Q 2644 494 2644 372 
Q 2644 97 2828 97 
Q 3034 97 3136 351 
Q 3238 606 3309 941 
Q 3322 978 3359 978 
L 3438 978 
Q 3463 978 3478 956 
Q 3494 934 3494 916 
Q 3425 641 3361 444 
Q 3297 247 3159 87 
Q 3022 -72 2816 -72 
Q 2613 -72 2452 39 
Q 2291 150 2234 341 
Q 2088 153 1894 40 
Q 1700 -72 1484 -72 
Q 1116 -72 897 129 
Q 678 331 678 697 
z
" transform="scale(0.015625)"/>
     </defs>
     <use xlink:href="#Cmr10-b9" transform="translate(10.403809 2.015625)"/>
     <use xlink:href="#Cmmi10-75" transform="translate(0 0.84375)"/>
    </g>
   </g>
   <g id="text_2">
    <!-- $b$ -->
    <g style="fill: #ffffff" transform="translate(138.26 69.8) scale(0.2 -0.2)">
     <defs>
      <path id="Cmmi10-62" d="M 1106 -72 
Q 719 -72 503 231 
Q 288 534 288 941 
Q 288 1000 317 1173 
Q 347 1347 347 1388 
L 966 3872 
Q 991 3981 997 4044 
Q 997 4147 581 4147 
Q 519 4147 519 4231 
Q 522 4247 533 4287 
Q 544 4328 561 4350 
Q 578 4372 609 4372 
L 1472 4441 
Q 1550 4441 1550 4359 
L 1075 2472 
Q 1438 2828 1806 2828 
Q 2078 2828 2273 2684 
Q 2469 2541 2566 2306 
Q 2663 2072 2663 1806 
Q 2663 1497 2542 1167 
Q 2422 838 2209 555 
Q 1997 272 1712 100 
Q 1428 -72 1106 -72 
z
M 1119 97 
Q 1338 97 1528 280 
Q 1719 463 1838 691 
Q 1966 947 2077 1386 
Q 2188 1825 2188 2088 
Q 2188 2316 2092 2489 
Q 1997 2663 1791 2663 
Q 1559 2663 1348 2492 
Q 1138 2322 978 2088 
L 800 1363 
Q 697 959 691 716 
Q 691 475 795 286 
Q 900 97 1119 97 
z
" transform="scale(0.015625)"/>
     </defs>
     <use xlink:href="#Cmmi10-62" transform="translate(0 0.609375)"/>
    </g>
   </g>
   <g id="text_3">
    <!-- $\bar{u}$ -->
    <g style="fill: #ffffff" transform="translate(499.64 26.6) scale(0.2 -0.2)">
     <use xlink:href="#Cmr10-b9" transform="translate(10.403809 2.015625)"/>
     <use xlink:href="#Cmmi10-75" transform="translate(0 0.84375)"/>
    </g>
   </g>
   <g id="text_4">
    <!-- $u$ -->
    <g style="fill: #ffffff" transform="translate(499.64 69.8) scale(0.2 -0.2)">
     <use xlink:href="#Cmmi10-75" transform="translate(0 0.8125)"/>
    </g>
   </g>
   <g id="text_5">
    <!-- $W^-$ -->
    <g style="fill: #ffffff" transform="translate(339.36 113) scale(0.2 -0.2)">
     <defs>
      <path id="Cmmi10-57" d="M 1141 -72 
L 844 4006 
Q 822 4100 703 4123 
Q 584 4147 409 4147 
Q 347 4147 347 4231 
Q 369 4313 381 4342 
Q 394 4372 453 4372 
L 1978 4372 
Q 2041 4372 2041 4288 
Q 2016 4147 1959 4147 
Q 1447 4147 1416 3969 
L 1644 738 
L 3244 3525 
L 3213 4006 
Q 3191 4100 3072 4123 
Q 2953 4147 2778 4147 
Q 2713 4147 2713 4231 
Q 2734 4313 2746 4342 
Q 2759 4372 2822 4372 
L 4347 4372 
Q 4409 4372 4409 4288 
Q 4406 4272 4397 4234 
Q 4388 4197 4372 4172 
Q 4356 4147 4325 4147 
Q 3809 4147 3781 3969 
L 3781 3922 
L 4013 738 
L 5753 3775 
Q 5791 3844 5791 3909 
Q 5791 4041 5662 4094 
Q 5534 4147 5375 4147 
Q 5313 4147 5313 4231 
Q 5325 4281 5333 4309 
Q 5341 4338 5361 4355 
Q 5381 4372 5422 4372 
L 6644 4372 
Q 6706 4372 6706 4288 
Q 6703 4272 6693 4233 
Q 6684 4194 6667 4170 
Q 6650 4147 6625 4147 
Q 6169 4147 5931 3731 
Q 5913 3713 5913 3713 
L 3744 -72 
Q 3709 -141 3634 -141 
L 3584 -141 
Q 3506 -141 3506 -72 
L 3263 3225 
L 1381 -72 
Q 1334 -141 1269 -141 
L 1216 -141 
Q 1141 -141 1141 -72 
z
" transform="scale(0.015625)"/>
      <path id="Cmsy10-a1" d="M 653 1472 
Q 600 1472 565 1512 
Q 531 1553 531 1600 
Q 531 1647 565 1687 
Q 600 1728 653 1728 
L 4325 1728 
Q 4375 1728 4408 1687 
Q 4441 1647 4441 1600 
Q 4441 1553 4408 1512 
Q 4375 1472 4325 1472 
L 653 1472 
z
" transform="scale(0.015625)"/>
     </defs>
     <use xlink:href="#Cmmi10-57" transform="translate(0 0.6875)"/>
     <use xlink:href="#Cmsy10-a1" transform="translate(118.045312 38.951563) scale(0.7)"/>
    </g>
   </g>
   <g id="text_6">
    <!-- $e^-$ -->
    <g style="fill: #ffffff" transform="translate(521.78 134.6) scale(0.2 -0.2)">
     <defs>
      <path id="Cmmi10-65" d="M 1288 -72 
Q 981 -72 751 87 
Q 522 247 401 517 
Q 281 788 281 1088 
Q 281 1544 511 1945 
Q 741 2347 1134 2587 
Q 1528 2828 1978 2828 
Q 2253 2828 2458 2686 
Q 2663 2544 2663 2278 
Q 2663 1909 2369 1729 
Q 2075 1550 1706 1508 
Q 1338 1466 891 1466 
L 872 1466 
Q 769 1084 769 813 
Q 769 528 900 312 
Q 1031 97 1300 97 
Q 1681 97 2032 272 
Q 2384 447 2606 756 
Q 2625 775 2656 775 
Q 2688 775 2720 739 
Q 2753 703 2753 672 
Q 2753 647 2741 634 
Q 2506 306 2109 117 
Q 1713 -72 1288 -72 
z
M 909 1631 
Q 1281 1631 1597 1665 
Q 1913 1700 2169 1839 
Q 2425 1978 2425 2272 
Q 2425 2391 2359 2480 
Q 2294 2569 2189 2616 
Q 2084 2663 1972 2663 
Q 1700 2663 1483 2516 
Q 1266 2369 1125 2133 
Q 984 1897 909 1631 
z
" transform="scale(0.015625)"/>
     </defs>
     <use xlink:href="#Cmmi10-65" transform="translate(0 0.835938)"/>
     <use xlink:href="#Cmsy10-a1" transform="translate(65.078672 39.1) scale(0.7)"/>
    </g>
   </g>
   <g id="text_7">
    <!-- $\bar{\nu}_e$ -->
    <g style="fill: #ffffff" transform="translate(526.38 91.4) scale(0.2 -0.2)">
     <defs>
      <path id="Cmmi10-ba" d="M 403 0 
Q 325 0 325 84 
L 872 2259 
Q 897 2369 903 2431 
Q 903 2534 488 2534 
Q 422 2534 422 2619 
Q 425 2634 436 2675 
Q 447 2716 464 2737 
Q 481 2759 513 2759 
L 1375 2828 
Q 1453 2828 1453 2747 
L 825 238 
Q 1331 406 1757 765 
Q 2184 1125 2479 1612 
Q 2775 2100 2906 2625 
Q 2931 2716 3006 2772 
Q 3081 2828 3175 2828 
Q 3259 2828 3312 2778 
Q 3366 2728 3366 2644 
Q 3366 2541 3281 2330 
Q 3197 2119 3116 1953 
Q 2863 1450 2444 1031 
Q 2181 769 1879 566 
Q 1578 363 1250 220 
Q 922 78 556 0 
L 403 0 
z
" transform="scale(0.015625)"/>
     </defs>
     <use xlink:href="#Cmr10-b9" transform="translate(5.462891 2.015625)"/>
     <use xlink:href="#Cmmi10-ba" transform="translate(0 0.84375)"/>
     <use xlink:href="#Cmmi10-65" transform="translate(53.878203 -16.1625) scale(0.7)"/>
    </g>
   </g>
   <g id="text_8">
    <!-- $\pi^0$ -->
    <g style="fill: #ffffff" transform="translate(529.5 48.2) scale(0.2 -0.2)">
     <defs>
      <path id="Cmmi10-bc" d="M 647 109 
Q 647 144 672 213 
Q 850 584 1004 942 
Q 1159 1300 1282 1639 
Q 1406 1978 1509 2363 
L 1100 2363 
Q 866 2363 662 2216 
Q 459 2069 325 1844 
Q 313 1819 288 1819 
L 213 1819 
Q 153 1819 153 1881 
Q 153 1894 166 1919 
Q 375 2275 614 2517 
Q 853 2759 1153 2759 
L 3475 2759 
Q 3541 2759 3587 2715 
Q 3634 2672 3634 2597 
Q 3634 2503 3567 2433 
Q 3500 2363 3406 2363 
L 2591 2363 
Q 2488 1859 2478 1381 
Q 2478 766 2694 269 
Q 2713 231 2713 191 
Q 2713 122 2672 62 
Q 2631 3 2567 -34 
Q 2503 -72 2431 -72 
Q 2263 -72 2200 203 
Q 2138 478 2138 738 
Q 2138 1103 2200 1442 
Q 2263 1781 2400 2363 
L 1703 2363 
Q 1197 313 1094 103 
Q 1003 -72 844 -72 
Q 766 -72 706 -20 
Q 647 31 647 109 
z
" transform="scale(0.015625)"/>
      <path id="Cmr10-30" d="M 1600 -141 
Q 816 -141 533 504 
Q 250 1150 250 2041 
Q 250 2597 351 3087 
Q 453 3578 754 3920 
Q 1056 4263 1600 4263 
Q 2022 4263 2290 4056 
Q 2559 3850 2700 3523 
Q 2841 3197 2892 2823 
Q 2944 2450 2944 2041 
Q 2944 1491 2842 1011 
Q 2741 531 2444 195 
Q 2147 -141 1600 -141 
z
M 1600 25 
Q 1956 25 2131 390 
Q 2306 756 2347 1200 
Q 2388 1644 2388 2144 
Q 2388 2625 2347 3031 
Q 2306 3438 2132 3767 
Q 1959 4097 1600 4097 
Q 1238 4097 1063 3765 
Q 888 3434 847 3029 
Q 806 2625 806 2144 
Q 806 1788 823 1472 
Q 841 1156 916 820 
Q 991 484 1158 254 
Q 1325 25 1600 25 
z
" transform="scale(0.015625)"/>
     </defs>
     <use xlink:href="#Cmmi10-bc" transform="translate(0 0.109375)"/>
     <use xlink:href="#Cmr10-30" transform="translate(63.059297 38.373438) scale(0.7)"/>
    </g>
   </g>
   <g id="text_9">
    <!-- $B^-$ -->
    <g style="fill: #ffffff" transform="translate(90.7 48.2) scale(0.2 -0.2)">
     <defs>
      <path id="Cmmi10-42" d="M 319 0 
Q 256 0 256 84 
Q 259 100 268 137 
Q 278 175 293 200 
Q 309 225 341 225 
Q 522 225 656 234 
Q 791 244 884 269 
Q 959 297 1006 441 
L 1881 3956 
Q 1894 4019 1894 4044 
Q 1894 4113 1819 4122 
Q 1697 4147 1356 4147 
Q 1294 4147 1294 4231 
Q 1297 4247 1306 4286 
Q 1316 4325 1333 4348 
Q 1350 4372 1375 4372 
L 3669 4372 
Q 3878 4372 4083 4320 
Q 4288 4269 4461 4156 
Q 4634 4044 4736 3876 
Q 4838 3709 4838 3488 
Q 4838 3247 4714 3040 
Q 4591 2834 4395 2681 
Q 4200 2528 3973 2429 
Q 3747 2331 3500 2284 
Q 3675 2284 3854 2215 
Q 4034 2147 4175 2028 
Q 4316 1909 4402 1743 
Q 4488 1578 4488 1388 
Q 4488 1003 4219 684 
Q 3950 366 3542 183 
Q 3134 0 2753 0 
L 319 0 
z
M 1497 275 
Q 1497 225 1716 225 
L 2631 225 
Q 2944 225 3231 398 
Q 3519 572 3692 859 
Q 3866 1147 3866 1459 
Q 3866 1650 3786 1820 
Q 3706 1991 3556 2089 
Q 3406 2188 3213 2188 
L 1966 2188 
L 1522 416 
Q 1497 328 1497 275 
z
M 2009 2356 
L 2981 2356 
Q 3288 2356 3577 2512 
Q 3866 2669 4048 2937 
Q 4231 3206 4231 3506 
Q 4231 3784 4057 3965 
Q 3884 4147 3609 4147 
L 2731 4147 
Q 2559 4147 2500 4115 
Q 2441 4084 2400 3928 
L 2009 2356 
z
" transform="scale(0.015625)"/>
     </defs>
     <use xlink:href="#Cmmi10-42" transform="translate(0 0.6875)"/>
     <use xlink:href="#Cmsy10-a1" transform="translate(99.441797 38.951563) scale(0.7)"/>
    </g>
   </g>
   <g id="line2d_1">
    <path d="M 496.8 21.6 
L 151.2 21.6 
L 151.2 21.6 
" clip-path="url(#pb0ad594036)" style="fill: none; stroke: #ffffff; stroke-width: 3"/>
   </g>
   <g id="line2d_2">
    <path d="M 151.2 64.8 
L 324 64.8 
L 324 64.8 
" clip-path="url(#pb0ad594036)" style="fill: none; stroke: #ffffff; stroke-width: 3"/>
   </g>
   <g id="line2d_3">
    <path d="M 324 64.8 
L 496.8 64.8 
L 496.8 64.8 
" clip-path="url(#pb0ad594036)" style="fill: none; stroke: #ffffff; stroke-width: 3"/>
   </g>
   <g id="line2d_4">
    <path d="M 324 64.8 
L 328.045081 60.499312 
L 330.061428 58.632031 
L 331.341084 57.69678 
L 332.381406 57.240196 
L 332.930687 57.22434 
L 333.360779 57.446864 
L 333.671754 57.907619 
L 333.866636 58.600562 
L 333.954928 60.048038 
L 333.827086 61.927783 
L 333.396487 64.954395 
L 331.37836 77.110948 
L 331.332416 78.826898 
L 331.516629 80.082532 
L 331.780641 80.637215 
L 332.162911 80.955381 
L 332.664697 81.034515 
L 333.284299 80.878019 
L 334.0171 80.495123 
L 335.311605 79.530174 
L 337.343334 77.63213 
L 340.802735 73.961446 
L 345.432868 69.032008 
L 347.433549 67.196061 
L 348.698199 66.29082 
L 349.721638 65.868001 
L 350.259082 65.875821 
L 350.67721 66.122273 
L 350.976392 66.606615 
L 351.159942 67.322221 
L 351.232712 68.800742 
L 351.091875 70.706475 
L 350.649105 73.757429 
L 348.648849 85.878241 
L 348.617178 87.565644 
L 348.817805 88.788451 
L 349.093502 89.319762 
L 349.487717 89.614041 
L 350.001409 89.669362 
L 350.632586 89.489715 
L 351.788143 88.802662 
L 353.168257 87.666494 
L 355.286078 85.596265 
L 359.394487 81.16892 
L 362.820012 77.56599 
L 364.804745 75.761939 
L 366.054237 74.887014 
L 366.753733 74.570729 
L 367.338344 74.484215 
L 367.804319 74.634971 
L 368.150846 75.024625 
L 368.380065 75.648892 
L 368.515744 77.001594 
L 368.428028 78.801087 
L 368.035858 81.750841 
L 366.796754 88.559875 
L 366.044093 93.313317 
L 365.884256 95.798406 
L 366.019935 97.151108 
L 366.249154 97.775375 
L 366.595681 98.165029 
L 367.061656 98.315785 
L 367.646267 98.229271 
L 368.345763 97.912986 
L 369.595255 97.038061 
L 371.579988 95.23401 
L 374.413025 92.274701 
L 380.206498 86.10129 
L 382.175004 84.329691 
L 383.409191 83.485378 
L 384.097449 83.191569 
L 384.670316 83.12854 
L 385.124335 83.30321 
L 385.458986 83.716615 
L 385.676705 84.363884 
L 385.796455 85.748442 
L 385.695177 87.57506 
L 385.28988 90.551067 
L 383.893946 98.215115 
L 383.308125 102.093525 
L 383.165965 104.543259 
L 383.317699 105.863849 
L 383.55847 106.465015 
L 383.916894 106.830875 
L 384.394818 106.957732 
L 384.991134 106.847808 
L 385.701801 106.50918 
L 386.966451 105.603939 
L 388.967132 103.767992 
L 391.811147 100.786728 
L 397.592308 94.63794 
L 399.544316 92.899338 
L 400.763051 92.085929 
L 401.440008 91.814721 
L 402.001098 91.775247 
L 402.443154 91.973842 
L 402.765954 92.410949 
L 402.972226 93.081111 
L 403.07618 94.497264 
L 402.961525 96.350635 
L 402.543417 99.352263 
L 400.465577 112.169599 
L 400.477725 113.769362 
L 400.728246 114.892381 
L 401.039221 115.353136 
L 401.469313 115.57566 
L 402.018594 115.559804 
L 402.68419 115.31132 
L 403.887332 114.529095 
L 405.307853 113.312114 
L 407.464577 111.164079 
L 410.4 108 
L 410.4 108 
" clip-path="url(#pb0ad594036)" style="fill: none; stroke: #ffffff; stroke-width: 3"/>
   </g>
   <g id="line2d_5">
    <path d="M 410.4 108 
L 518.4 86.4 
L 518.4 86.4 
" clip-path="url(#pb0ad594036)" style="fill: none; stroke: #ffffff; stroke-width: 3"/>
   </g>
   <g id="line2d_6">
    <path d="M 410.4 108 
L 518.4 129.6 
L 518.4 129.6 
" clip-path="url(#pb0ad594036)" style="fill: none; stroke: #ffffff; stroke-width: 3"/>
   </g>
   <g id="patch_2">
    <path d="M 304.126917 21.6 
L 323.566917 28.08 
L 320.067717 21.6 
L 323.566917 15.12 
z
" clip-path="url(#pb0ad594036)" style="fill: #ffffff; stroke: #ffffff; stroke-linejoin: miter"/>
   </g>
   <g id="patch_3">
    <path d="M 257.256541 64.8 
L 237.816541 58.32 
L 241.315741 64.8 
L 237.816541 71.28 
z
" clip-path="url(#pb0ad594036)" style="fill: #ffffff; stroke: #ffffff; stroke-linejoin: miter"/>
   </g>
   <g id="patch_4">
    <path d="M 430.056541 64.8 
L 410.616541 58.32 
L 414.115741 64.8 
L 410.616541 71.28 
z
" clip-path="url(#pb0ad594036)" style="fill: #ffffff; stroke: #ffffff; stroke-linejoin: miter"/>
   </g>
   <g id="patch_5">
    <path d="M 483.597827 93.360435 
L 463.264506 90.81877 
L 467.966586 96.486683 
L 465.806171 103.527095 
z
" clip-path="url(#pb0ad594036)" style="fill: #ffffff; stroke: #ffffff; stroke-linejoin: miter"/>
   </g>
   <g id="patch_6">
    <path d="M 483.597827 122.639565 
L 465.806171 112.472905 
L 467.966586 119.513317 
L 463.264506 125.18123 
z
" clip-path="url(#pb0ad594036)" style="fill: #ffffff; stroke: #ffffff; stroke-linejoin: miter"/>
   </g>
   <g id="line2d_7"/>
   <g id="line2d_8"/>
   <g id="line2d_9"/>
   <g id="line2d_10"/>
   <g id="line2d_11">
    <defs>
     <path id="m7cf24f023a" d="M 0 5 
C 1.326016 5 2.597899 4.473168 3.535534 3.535534 
C 4.473168 2.597899 5 1.326016 5 0 
C 5 -1.326016 4.473168 -2.597899 3.535534 -3.535534 
C 2.597899 -4.473168 1.326016 -5 0 -5 
C -1.326016 -5 -2.597899 -4.473168 -3.535534 -3.535534 
C -4.473168 -2.597899 -5 -1.326016 -5 0 
C -5 1.326016 -4.473168 2.597899 -3.535534 3.535534 
C -2.597899 4.473168 -1.326016 5 0 5 
z
" style="stroke: #ffffff"/>
    </defs>
    <g clip-path="url(#pb0ad594036)">
     <use xlink:href="#m7cf24f023a" x="324" y="64.8" style="fill: #ffffff; stroke: #ffffff"/>
    </g>
   </g>
   <g id="line2d_12">
    <g clip-path="url(#pb0ad594036)">
     <use xlink:href="#m7cf24f023a" x="410.4" y="108" style="fill: #ffffff; stroke: #ffffff"/>
    </g>
   </g>
   <g id="line2d_13"/>
   <g id="line2d_14"/>
  </g>
 </g>
 <defs>
  <clipPath id="pb0ad594036">
   <rect x="0" y="0" width="648" height="172.8"/>
  </clipPath>
 </defs>
</svg>
