<?xml version="1.0" encoding="utf-8" standalone="no"?>
<!DOCTYPE svg PUBLIC "-//W3C//DTD SVG 1.1//EN"
  "http://www.w3.org/Graphics/SVG/1.1/DTD/svg11.dtd">
<svg xmlns:xlink="http://www.w3.org/1999/xlink" width="432pt" height="216pt" viewBox="0 0 432 216" xmlns="http://www.w3.org/2000/svg" version="1.1">
 <metadata>
  <rdf:RDF xmlns:dc="http://purl.org/dc/elements/1.1/" xmlns:cc="http://creativecommons.org/ns#" xmlns:rdf="http://www.w3.org/1999/02/22-rdf-syntax-ns#">
   <cc:Work>
    <dc:type rdf:resource="http://purl.org/dc/dcmitype/StillImage"/>
    <dc:date>2026-01-21T19:24:08.117474</dc:date>
    <dc:format>image/svg+xml</dc:format>
    <dc:creator>
     <cc:Agent>
      <dc:title>Matplotlib v3.10.8, https://matplotlib.org/</dc:title>
     </cc:Agent>
    </dc:creator>
   </cc:Work>
  </rdf:RDF>
 </metadata>
 <defs>
  <style type="text/css">*{stroke-linejoin: round; stroke-linecap: butt}</style>
 </defs>
 <g id="figure_1">
  <g id="patch_1">
   <path d="M 0 216 
L 432 216 
L 432 0 
L 0 0 
L 0 216 
z
" style="fill: none"/>
  </g>
  <g id="axes_1">
   <g id="matplotlib.axis_1"/>
   <g id="matplotlib.axis_2"/>
   <g id="text_1">
    <!-- $u$ -->
    <g style="fill: #ffffff" transform="translate(28.76 26.6) scale(0.2 -0.2)">
     <defs>
      <path id="Cmmi10-75" d="M 678 697 
Q 678 906 734 1126 
Q 791 1347 892 1617 
Q 994 1888 1069 2088 
Q 1153 2322 1153 2472 
Q 1153 2663 1013 2663 
Q 759 2663 595 2402 
Q 431 2141 353 1819 
Q 341 1778 300 1778 
L 225 1778 
Q 172 1778 172 1838 
L 172 1856 
Q 275 2238 487 2533 
Q 700 2828 1025 2828 
Q 1253 2828 1411 2678 
Q 1569 2528 1569 2297 
Q 1569 2178 1516 2047 
Q 1488 1969 1388 1706 
Q 1288 1444 1234 1272 
Q 1181 1100 1147 934 
Q 1113 769 1113 603 
Q 1113 391 1203 244 
Q 1294 97 1497 97 
Q 1906 97 2216 603 
Q 2222 628 2226 651 
Q 2231 675 2234 697 
L 2694 2553 
Q 2716 2638 2794 2698 
Q 2872 2759 2963 2759 
Q 3041 2759 3098 2709 
Q 3156 2659 3156 2578 
Q 3156 2541 3150 2528 
L 2688 684 
Q 2644 494 2644 372 
Q 2644 97 2828 97 
Q 3034 97 3136 351 
Q 3238 606 3309 941 
Q 3322 978 3359 978 
L 3438 978 
Q 3463 978 3478 956 
Q 3494 934 3494 916 
Q 3425 641 3361 444 
Q 3297 247 3159 87 
Q 3022 -72 2816 -72 
Q 2613 -72 2452 39 
Q 2291 150 2234 341 
Q 2088 153 1894 40 
Q 1700 -72 1484 -72 
Q 1116 -72 897 129 
Q 678 331 678 697 
z
" transform="scale(0.015625)"/>
     </defs>
     <use xlink:href="#Cmmi10-75" transform="translate(0 0.8125)"/>
    </g>
   </g>
   <g id="text_2">
    <!-- $d$ -->
    <g style="fill: #ffffff" transform="translate(29.26 69.8) scale(0.2 -0.2)">
     <defs>
      <path id="Cmmi10-64" d="M 1113 -72 
Q 709 -72 476 233 
Q 244 538 244 953 
Q 244 1363 456 1803 
Q 669 2244 1030 2536 
Q 1391 2828 1806 2828 
Q 1994 2828 2145 2723 
Q 2297 2619 2381 2444 
L 2741 3872 
Q 2766 3981 2772 4044 
Q 2772 4147 2356 4147 
Q 2291 4147 2291 4231 
Q 2294 4247 2305 4287 
Q 2316 4328 2333 4350 
Q 2350 4372 2381 4372 
L 3244 4441 
Q 3322 4441 3322 4359 
L 2400 678 
Q 2356 572 2356 372 
Q 2356 97 2541 97 
Q 2741 97 2845 351 
Q 2950 606 3022 941 
Q 3034 978 3072 978 
L 3150 978 
Q 3175 978 3190 956 
Q 3206 934 3206 916 
Q 3094 469 2961 198 
Q 2828 -72 2528 -72 
Q 2313 -72 2147 54 
Q 1981 181 1941 391 
Q 1528 -72 1113 -72 
z
M 1119 97 
Q 1350 97 1567 270 
Q 1784 444 1941 678 
Q 1947 684 1947 703 
L 2297 2113 
Q 2259 2338 2131 2500 
Q 2003 2663 1791 2663 
Q 1575 2663 1389 2486 
Q 1203 2309 1075 2069 
Q 950 1813 836 1366 
Q 722 919 722 672 
Q 722 450 817 273 
Q 913 97 1119 97 
z
" transform="scale(0.015625)"/>
     </defs>
     <use xlink:href="#Cmmi10-64" transform="translate(0 0.609375)"/>
    </g>
   </g>
   <g id="text_3">
    <!-- $d$ -->
    <g style="fill: #ffffff" transform="translate(29.26 113) scale(0.2 -0.2)">
     <use xlink:href="#Cmmi10-64" transform="translate(0 0.609375)"/>
    </g>
   </g>
   <g id="text_4">
    <!-- $u$ -->
    <g style="fill: #ffffff" transform="translate(391.64 26.6) scale(0.2 -0.2)">
     <use xlink:href="#Cmmi10-75" transform="translate(0 0.8125)"/>
    </g>
   </g>
   <g id="text_5">
    <!-- $d$ -->
    <g style="fill: #ffffff" transform="translate(392.14 69.8) scale(0.2 -0.2)">
     <use xlink:href="#Cmmi10-64" transform="translate(0 0.609375)"/>
    </g>
   </g>
   <g id="text_6">
    <!-- $u$ -->
    <g style="fill: #ffffff" transform="translate(391.64 113) scale(0.2 -0.2)">
     <use xlink:href="#Cmmi10-75" transform="translate(0 0.8125)"/>
    </g>
   </g>
   <g id="text_7">
    <!-- $W^-$ -->
    <g style="fill: #ffffff" transform="translate(231.36 156.2) scale(0.2 -0.2)">
     <defs>
      <path id="Cmmi10-57" d="M 1141 -72 
L 844 4006 
Q 822 4100 703 4123 
Q 584 4147 409 4147 
Q 347 4147 347 4231 
Q 369 4313 381 4342 
Q 394 4372 453 4372 
L 1978 4372 
Q 2041 4372 2041 4288 
Q 2016 4147 1959 4147 
Q 1447 4147 1416 3969 
L 1644 738 
L 3244 3525 
L 3213 4006 
Q 3191 4100 3072 4123 
Q 2953 4147 2778 4147 
Q 2713 4147 2713 4231 
Q 2734 4313 2746 4342 
Q 2759 4372 2822 4372 
L 4347 4372 
Q 4409 4372 4409 4288 
Q 4406 4272 4397 4234 
Q 4388 4197 4372 4172 
Q 4356 4147 4325 4147 
Q 3809 4147 3781 3969 
L 3781 3922 
L 4013 738 
L 5753 3775 
Q 5791 3844 5791 3909 
Q 5791 4041 5662 4094 
Q 5534 4147 5375 4147 
Q 5313 4147 5313 4231 
Q 5325 4281 5333 4309 
Q 5341 4338 5361 4355 
Q 5381 4372 5422 4372 
L 6644 4372 
Q 6706 4372 6706 4288 
Q 6703 4272 6693 4233 
Q 6684 4194 6667 4170 
Q 6650 4147 6625 4147 
Q 6169 4147 5931 3731 
Q 5913 3713 5913 3713 
L 3744 -72 
Q 3709 -141 3634 -141 
L 3584 -141 
Q 3506 -141 3506 -72 
L 3263 3225 
L 1381 -72 
Q 1334 -141 1269 -141 
L 1216 -141 
Q 1141 -141 1141 -72 
z
" transform="scale(0.015625)"/>
      <path id="Cmsy10-a1" d="M 653 1472 
Q 600 1472 565 1512 
Q 531 1553 531 1600 
Q 531 1647 565 1687 
Q 600 1728 653 1728 
L 4325 1728 
Q 4375 1728 4408 1687 
Q 4441 1647 4441 1600 
Q 4441 1553 4408 1512 
Q 4375 1472 4325 1472 
L 653 1472 
z
" transform="scale(0.015625)"/>
     </defs>
     <use xlink:href="#Cmmi10-57" transform="translate(0 0.6875)"/>
     <use xlink:href="#Cmsy10-a1" transform="translate(118.045312 38.951563) scale(0.7)"/>
    </g>
   </g>
   <g id="text_8">
    <!-- $e^-$ -->
    <g style="fill: #ffffff" transform="translate(400.82 177.8) scale(0.2 -0.2)">
     <defs>
      <path id="Cmmi10-65" d="M 1288 -72 
Q 981 -72 751 87 
Q 522 247 401 517 
Q 281 788 281 1088 
Q 281 1544 511 1945 
Q 741 2347 1134 2587 
Q 1528 2828 1978 2828 
Q 2253 2828 2458 2686 
Q 2663 2544 2663 2278 
Q 2663 1909 2369 1729 
Q 2075 1550 1706 1508 
Q 1338 1466 891 1466 
L 872 1466 
Q 769 1084 769 813 
Q 769 528 900 312 
Q 1031 97 1300 97 
Q 1681 97 2032 272 
Q 2384 447 2606 756 
Q 2625 775 2656 775 
Q 2688 775 2720 739 
Q 2753 703 2753 672 
Q 2753 647 2741 634 
Q 2506 306 2109 117 
Q 1713 -72 1288 -72 
z
M 909 1631 
Q 1281 1631 1597 1665 
Q 1913 1700 2169 1839 
Q 2425 1978 2425 2272 
Q 2425 2391 2359 2480 
Q 2294 2569 2189 2616 
Q 2084 2663 1972 2663 
Q 1700 2663 1483 2516 
Q 1266 2369 1125 2133 
Q 984 1897 909 1631 
z
" transform="scale(0.015625)"/>
     </defs>
     <use xlink:href="#Cmmi10-65" transform="translate(0 0.835938)"/>
     <use xlink:href="#Cmsy10-a1" transform="translate(65.078672 39.1) scale(0.7)"/>
    </g>
   </g>
   <g id="text_9">
    <!-- $\bar{\nu}_e$ -->
    <g style="fill: #ffffff" transform="translate(405.42 134.6) scale(0.2 -0.2)">
     <defs>
      <path id="Cmr10-b9" d="M 441 3553 
L 441 3775 
L 2753 3775 
L 2753 3553 
L 441 3553 
z
" transform="scale(0.015625)"/>
      <path id="Cmmi10-ba" d="M 403 0 
Q 325 0 325 84 
L 872 2259 
Q 897 2369 903 2431 
Q 903 2534 488 2534 
Q 422 2534 422 2619 
Q 425 2634 436 2675 
Q 447 2716 464 2737 
Q 481 2759 513 2759 
L 1375 2828 
Q 1453 2828 1453 2747 
L 825 238 
Q 1331 406 1757 765 
Q 2184 1125 2479 1612 
Q 2775 2100 2906 2625 
Q 2931 2716 3006 2772 
Q 3081 2828 3175 2828 
Q 3259 2828 3312 2778 
Q 3366 2728 3366 2644 
Q 3366 2541 3281 2330 
Q 3197 2119 3116 1953 
Q 2863 1450 2444 1031 
Q 2181 769 1879 566 
Q 1578 363 1250 220 
Q 922 78 556 0 
L 403 0 
z
" transform="scale(0.015625)"/>
     </defs>
     <use xlink:href="#Cmr10-b9" transform="translate(5.462891 2.015625)"/>
     <use xlink:href="#Cmmi10-ba" transform="translate(0 0.84375)"/>
     <use xlink:href="#Cmmi10-65" transform="translate(53.878203 -16.1625) scale(0.7)"/>
    </g>
   </g>
   <g id="text_10">
    <!-- $p$ -->
    <g style="fill: #ffffff" transform="translate(409.62 69.678125) scale(0.2 -0.2)">
     <defs>
      <path id="Cmmi10-70" d="M -159 -1241 
Q -219 -1241 -219 -1159 
Q -197 -1019 -134 -1019 
Q 66 -1019 145 -983 
Q 225 -947 269 -800 
L 991 2081 
Q 1038 2200 1038 2388 
Q 1038 2663 850 2663 
Q 650 2663 553 2423 
Q 456 2184 366 1819 
Q 366 1778 313 1778 
L 238 1778 
Q 222 1778 203 1801 
Q 184 1825 184 1844 
Q 253 2122 317 2315 
Q 381 2509 517 2668 
Q 653 2828 856 2828 
Q 1075 2828 1240 2704 
Q 1406 2581 1453 2369 
Q 1628 2572 1840 2700 
Q 2053 2828 2278 2828 
Q 2547 2828 2745 2684 
Q 2944 2541 3044 2308 
Q 3144 2075 3144 1806 
Q 3144 1394 2933 953 
Q 2722 513 2361 220 
Q 2000 -72 1588 -72 
Q 1400 -72 1248 34 
Q 1097 141 1013 313 
L 722 -825 
Q 706 -919 703 -934 
Q 703 -1019 1125 -1019 
Q 1191 -1019 1191 -1100 
Q 1169 -1184 1155 -1212 
Q 1141 -1241 1081 -1241 
L -159 -1241 
z
M 1594 97 
Q 1816 97 2006 280 
Q 2197 463 2316 691 
Q 2403 863 2479 1111 
Q 2556 1359 2612 1640 
Q 2669 1922 2669 2088 
Q 2669 2234 2630 2362 
Q 2591 2491 2502 2577 
Q 2413 2663 2266 2663 
Q 2031 2663 1823 2495 
Q 1616 2328 1447 2081 
L 1447 2059 
L 1094 647 
Q 1138 419 1263 258 
Q 1388 97 1594 97 
z
" transform="scale(0.015625)"/>
     </defs>
     <use xlink:href="#Cmmi10-70" transform="translate(0 0.8125)"/>
    </g>
   </g>
   <g id="text_11">
    <!-- $n$ -->
    <g style="fill: #ffffff" transform="translate(11.18 69.8) scale(0.2 -0.2)">
     <defs>
      <path id="Cmmi10-6e" d="M 494 109 
Q 494 147 500 166 
L 978 2075 
Q 1025 2253 1025 2388 
Q 1025 2663 838 2663 
Q 638 2663 541 2423 
Q 444 2184 353 1819 
Q 353 1800 334 1789 
Q 316 1778 300 1778 
L 225 1778 
Q 203 1778 187 1801 
Q 172 1825 172 1844 
Q 241 2122 305 2315 
Q 369 2509 505 2668 
Q 641 2828 844 2828 
Q 1084 2828 1268 2676 
Q 1453 2525 1453 2291 
Q 1644 2541 1900 2684 
Q 2156 2828 2444 2828 
Q 2672 2828 2837 2750 
Q 3003 2672 3095 2514 
Q 3188 2356 3188 2138 
Q 3188 1875 3070 1503 
Q 2953 1131 2778 672 
Q 2688 463 2688 288 
Q 2688 97 2834 97 
Q 3084 97 3251 365 
Q 3419 634 3488 941 
Q 3500 978 3541 978 
L 3616 978 
Q 3641 978 3658 962 
Q 3675 947 3675 922 
Q 3675 916 3669 903 
Q 3581 541 3364 234 
Q 3147 -72 2822 -72 
Q 2597 -72 2437 83 
Q 2278 238 2278 459 
Q 2278 578 2328 709 
Q 2409 919 2514 1209 
Q 2619 1500 2686 1765 
Q 2753 2031 2753 2234 
Q 2753 2413 2679 2538 
Q 2606 2663 2431 2663 
Q 2197 2663 2000 2559 
Q 1803 2456 1656 2286 
Q 1509 2116 1388 1881 
L 953 141 
Q 931 53 854 -9 
Q 778 -72 684 -72 
Q 606 -72 550 -22 
Q 494 28 494 109 
z
" transform="scale(0.015625)"/>
     </defs>
     <use xlink:href="#Cmmi10-6e" transform="translate(0 0.8125)"/>
    </g>
   </g>
   <g id="line2d_1">
    <path d="M 51.84 21.6 
L 380.16 21.6 
L 380.16 21.6 
" clip-path="url(#p692a629b07)" style="fill: none; stroke: #ffffff; stroke-width: 3"/>
   </g>
   <g id="line2d_2">
    <path d="M 51.84 64.8 
L 380.16 64.8 
L 380.16 64.8 
" clip-path="url(#p692a629b07)" style="fill: none; stroke: #ffffff; stroke-width: 3"/>
   </g>
   <g id="line2d_3">
    <path d="M 51.84 108 
L 216 108 
L 216 108 
" clip-path="url(#p692a629b07)" style="fill: none; stroke: #ffffff; stroke-width: 3"/>
   </g>
   <g id="line2d_4">
    <path d="M 216 108 
L 380.16 108 
L 380.16 108 
" clip-path="url(#p692a629b07)" style="fill: none; stroke: #ffffff; stroke-width: 3"/>
   </g>
   <g id="line2d_5">
    <path d="M 216 108 
L 220.045081 103.699312 
L 222.061428 101.832031 
L 223.341084 100.89678 
L 224.381406 100.440196 
L 224.930687 100.42434 
L 225.360779 100.646864 
L 225.671754 101.107619 
L 225.866636 101.800562 
L 225.954928 103.248038 
L 225.827086 105.127783 
L 225.396487 108.154395 
L 223.37836 120.310948 
L 223.332416 122.026898 
L 223.516629 123.282532 
L 223.780641 123.837215 
L 224.162911 124.155381 
L 224.664697 124.234515 
L 225.284299 124.078019 
L 226.0171 123.695123 
L 227.311605 122.730174 
L 229.343334 120.83213 
L 232.802735 117.161446 
L 237.432868 112.232008 
L 239.433549 110.396061 
L 240.698199 109.49082 
L 241.721638 109.068001 
L 242.259082 109.075821 
L 242.67721 109.322273 
L 242.976392 109.806615 
L 243.159942 110.522221 
L 243.232712 112.000742 
L 243.091875 113.906475 
L 242.649105 116.957429 
L 240.648849 129.078241 
L 240.617178 130.765644 
L 240.817805 131.988451 
L 241.093502 132.519762 
L 241.487717 132.814041 
L 242.001409 132.869362 
L 242.632586 132.689715 
L 243.788143 132.002662 
L 245.168257 130.866494 
L 247.286078 128.796265 
L 251.394487 124.36892 
L 254.820012 120.76599 
L 256.804745 118.961939 
L 258.054237 118.087014 
L 258.753733 117.770729 
L 259.338344 117.684215 
L 259.804319 117.834971 
L 260.150846 118.224625 
L 260.380065 118.848892 
L 260.515744 120.201594 
L 260.428028 122.001087 
L 260.035858 124.950841 
L 258.796754 131.759875 
L 258.044093 136.513317 
L 257.884256 138.998406 
L 258.019935 140.351108 
L 258.249154 140.975375 
L 258.595681 141.365029 
L 259.061656 141.515785 
L 259.646267 141.429271 
L 260.345763 141.112986 
L 261.595255 140.238061 
L 263.579988 138.43401 
L 266.413025 135.474701 
L 272.206498 129.30129 
L 274.175004 127.529691 
L 275.409191 126.685378 
L 276.097449 126.391569 
L 276.670316 126.32854 
L 277.124335 126.50321 
L 277.458986 126.916615 
L 277.676705 127.563884 
L 277.796455 128.948442 
L 277.695177 130.77506 
L 277.28988 133.751067 
L 275.893946 141.415115 
L 275.308125 145.293525 
L 275.165965 147.743259 
L 275.317699 149.063849 
L 275.55847 149.665015 
L 275.916894 150.030875 
L 276.394818 150.157732 
L 276.991134 150.047808 
L 277.701801 149.70918 
L 278.966451 148.803939 
L 280.967132 146.967992 
L 283.811147 143.986728 
L 289.592308 137.83794 
L 291.544316 136.099338 
L 292.763051 135.285929 
L 293.440008 135.014721 
L 294.001098 134.975247 
L 294.443154 135.173842 
L 294.765954 135.610949 
L 294.972226 136.281111 
L 295.07618 137.697264 
L 294.961525 139.550635 
L 294.543417 142.552263 
L 292.465577 155.369599 
L 292.477725 156.969362 
L 292.728246 158.092381 
L 293.039221 158.553136 
L 293.469313 158.77566 
L 294.018594 158.759804 
L 294.68419 158.51132 
L 295.887332 157.729095 
L 297.307853 156.512114 
L 299.464577 154.364079 
L 302.4 151.2 
L 302.4 151.2 
" clip-path="url(#p692a629b07)" style="fill: none; stroke: #ffffff; stroke-width: 3"/>
   </g>
   <g id="line2d_6">
    <path d="M 302.4 151.2 
L 401.76 129.6 
L 401.76 129.6 
" clip-path="url(#p692a629b07)" style="fill: none; stroke: #ffffff; stroke-width: 3"/>
   </g>
   <g id="line2d_7">
    <path d="M 302.4 151.2 
L 401.76 172.8 
L 401.76 172.8 
" clip-path="url(#p692a629b07)" style="fill: none; stroke: #ffffff; stroke-width: 3"/>
   </g>
   <g id="patch_2">
    <path d="M 235.851429 21.6 
L 216.411429 15.12 
L 219.910629 21.6 
L 216.411429 28.08 
z
" clip-path="url(#p692a629b07)" style="fill: #ffffff; stroke: #ffffff; stroke-linejoin: miter"/>
   </g>
   <g id="patch_3">
    <path d="M 235.851429 64.8 
L 216.411429 58.32 
L 219.910629 64.8 
L 216.411429 71.28 
z
" clip-path="url(#p692a629b07)" style="fill: #ffffff; stroke: #ffffff; stroke-linejoin: miter"/>
   </g>
   <g id="patch_4">
    <path d="M 153.565714 108 
L 134.125714 101.52 
L 137.624914 108 
L 134.125714 114.48 
z
" clip-path="url(#p692a629b07)" style="fill: #ffffff; stroke: #ffffff; stroke-linejoin: miter"/>
   </g>
   <g id="patch_5">
    <path d="M 317.725714 108 
L 298.285714 101.52 
L 301.784914 108 
L 298.285714 114.48 
z
" clip-path="url(#p692a629b07)" style="fill: #ffffff; stroke: #ffffff; stroke-linejoin: miter"/>
   </g>
   <g id="patch_6">
    <path d="M 371.20082 136.2433 
L 350.827967 134.040829 
L 355.623847 139.629599 
L 353.581055 146.705035 
z
" clip-path="url(#p692a629b07)" style="fill: #ffffff; stroke: #ffffff; stroke-linejoin: miter"/>
   </g>
   <g id="patch_7">
    <path d="M 371.20082 166.1567 
L 353.581055 155.694965 
L 355.623847 162.770401 
L 350.827967 168.359171 
z
" clip-path="url(#p692a629b07)" style="fill: #ffffff; stroke: #ffffff; stroke-linejoin: miter"/>
   </g>
   <g id="line2d_8"/>
   <g id="line2d_9"/>
   <g id="line2d_10"/>
   <g id="line2d_11"/>
   <g id="line2d_12"/>
   <g id="line2d_13"/>
   <g id="line2d_14">
    <defs>
     <path id="macce4d93ab" d="M 0 5 
C 1.326016 5 2.597899 4.473168 3.535534 3.535534 
C 4.473168 2.597899 5 1.326016 5 0 
C 5 -1.326016 4.473168 -2.597899 3.535534 -3.535534 
C 2.597899 -4.473168 1.326016 -5 0 -5 
C -1.326016 -5 -2.597899 -4.473168 -3.535534 -3.535534 
C -4.473168 -2.597899 -5 -1.326016 -5 0 
C -5 1.326016 -4.473168 2.597899 -3.535534 3.535534 
C -2.597899 4.473168 -1.326016 5 0 5 
z
" style="stroke: #ffffff"/>
    </defs>
    <g clip-path="url(#p692a629b07)">
     <use xlink:href="#macce4d93ab" x="216" y="108" style="fill: #ffffff; stroke: #ffffff"/>
    </g>
   </g>
   <g id="line2d_15">
    <g clip-path="url(#p692a629b07)">
     <use xlink:href="#macce4d93ab" x="302.4" y="151.2" style="fill: #ffffff; stroke: #ffffff"/>
    </g>
   </g>
   <g id="line2d_16"/>
   <g id="line2d_17"/>
  </g>
 </g>
 <defs>
  <clipPath id="p692a629b07">
   <rect x="0" y="0" width="432" height="216"/>
  </clipPath>
 </defs>
</svg>
