<?xml version="1.0" encoding="utf-8" standalone="no"?>
<!DOCTYPE svg PUBLIC "-//W3C//DTD SVG 1.1//EN"
  "http://www.w3.org/Graphics/SVG/1.1/DTD/svg11.dtd">
<svg xmlns:xlink="http://www.w3.org/1999/xlink" width="302.4pt" height="172.8pt" viewBox="0 0 302.4 172.8" xmlns="http://www.w3.org/2000/svg" version="1.1">
 <metadata>
  <rdf:RDF xmlns:dc="http://purl.org/dc/elements/1.1/" xmlns:cc="http://creativecommons.org/ns#" xmlns:rdf="http://www.w3.org/1999/02/22-rdf-syntax-ns#">
   <cc:Work>
    <dc:type rdf:resource="http://purl.org/dc/dcmitype/StillImage"/>
    <dc:date>2026-02-16T11:26:10.955530</dc:date>
    <dc:format>image/svg+xml</dc:format>
    <dc:creator>
     <cc:Agent>
      <dc:title>Matplotlib v3.10.8, https://matplotlib.org/</dc:title>
     </cc:Agent>
    </dc:creator>
   </cc:Work>
  </rdf:RDF>
 </metadata>
 <defs>
  <style type="text/css">*{stroke-linejoin: round; stroke-linecap: butt}</style>
 </defs>
 <g id="figure_1">
  <g id="patch_1">
   <path d="M 0 172.8 
L 302.4 172.8 
L 302.4 0 
L 0 0 
L 0 172.8 
z
" style="fill: none"/>
  </g>
  <g id="axes_1">
   <g id="matplotlib.axis_1"/>
   <g id="matplotlib.axis_2"/>
   <g id="text_1">
    <!-- $d$ -->
    <g transform="translate(234.5 153.88) scale(0.28 -0.28)">
     <defs>
      <path id="Cmmi10-64" d="M 1113 -72 
Q 709 -72 476 233 
Q 244 538 244 953 
Q 244 1363 456 1803 
Q 669 2244 1030 2536 
Q 1391 2828 1806 2828 
Q 1994 2828 2145 2723 
Q 2297 2619 2381 2444 
L 2741 3872 
Q 2766 3981 2772 4044 
Q 2772 4147 2356 4147 
Q 2291 4147 2291 4231 
Q 2294 4247 2305 4287 
Q 2316 4328 2333 4350 
Q 2350 4372 2381 4372 
L 3244 4441 
Q 3322 4441 3322 4359 
L 2400 678 
Q 2356 572 2356 372 
Q 2356 97 2541 97 
Q 2741 97 2845 351 
Q 2950 606 3022 941 
Q 3034 978 3072 978 
L 3150 978 
Q 3175 978 3190 956 
Q 3206 934 3206 916 
Q 3094 469 2961 198 
Q 2828 -72 2528 -72 
Q 2313 -72 2147 54 
Q 1981 181 1941 391 
Q 1528 -72 1113 -72 
z
M 1119 97 
Q 1350 97 1567 270 
Q 1784 444 1941 678 
Q 1947 684 1947 703 
L 2297 2113 
Q 2259 2338 2131 2500 
Q 2003 2663 1791 2663 
Q 1575 2663 1389 2486 
Q 1203 2309 1075 2069 
Q 950 1813 836 1366 
Q 722 919 722 672 
Q 722 450 817 273 
Q 913 97 1119 97 
z
" transform="scale(0.015625)"/>
     </defs>
     <use xlink:href="#Cmmi10-64" transform="translate(0 0.609375)"/>
    </g>
   </g>
   <g id="text_2">
    <!-- $\bar{s}$ -->
    <g transform="translate(235.34 115) scale(0.28 -0.28)">
     <defs>
      <path id="Cmr10-b9" d="M 441 3553 
L 441 3775 
L 2753 3775 
L 2753 3553 
L 441 3553 
z
" transform="scale(0.015625)"/>
      <path id="Cmmi10-73" d="M 556 391 
Q 728 97 1247 97 
Q 1472 97 1675 173 
Q 1878 250 2011 403 
Q 2144 556 2144 775 
Q 2144 941 2025 1047 
Q 1906 1153 1734 1191 
L 1388 1259 
Q 1150 1319 997 1481 
Q 844 1644 844 1875 
Q 844 2159 998 2378 
Q 1153 2597 1406 2712 
Q 1659 2828 1931 2828 
Q 2222 2828 2451 2689 
Q 2681 2550 2681 2278 
Q 2681 2131 2598 2018 
Q 2516 1906 2369 1906 
Q 2284 1906 2223 1961 
Q 2163 2016 2163 2100 
Q 2163 2175 2205 2245 
Q 2247 2316 2317 2358 
Q 2388 2400 2463 2400 
Q 2406 2538 2251 2600 
Q 2097 2663 1919 2663 
Q 1756 2663 1593 2597 
Q 1431 2531 1332 2404 
Q 1234 2278 1234 2106 
Q 1234 1991 1315 1903 
Q 1397 1816 1516 1778 
L 1888 1703 
Q 2066 1666 2214 1570 
Q 2363 1475 2448 1329 
Q 2534 1184 2534 997 
Q 2534 759 2401 528 
Q 2269 297 2075 159 
Q 1734 -72 1241 -72 
Q 900 -72 615 84 
Q 331 241 331 550 
Q 331 725 432 854 
Q 534 984 709 984 
Q 813 984 883 921 
Q 953 859 953 756 
Q 953 609 843 500 
Q 734 391 588 391 
L 556 391 
z
" transform="scale(0.015625)"/>
     </defs>
     <use xlink:href="#Cmr10-b9" transform="translate(3.803711 2.015625)"/>
     <use xlink:href="#Cmmi10-73" transform="translate(0 0.84375)"/>
    </g>
   </g>
   <g id="text_3">
    <!-- $c$ -->
    <g transform="translate(235.76 71.8) scale(0.28 -0.28)">
     <defs>
      <path id="Cmmi10-63" d="M 750 763 
Q 750 484 892 290 
Q 1034 97 1300 97 
Q 1681 97 2032 272 
Q 2384 447 2606 756 
Q 2625 775 2656 775 
Q 2688 775 2720 739 
Q 2753 703 2753 672 
Q 2753 647 2741 634 
Q 2506 306 2109 117 
Q 1713 -72 1288 -72 
Q 981 -72 747 73 
Q 513 219 384 462 
Q 256 706 256 1013 
Q 256 1444 497 1869 
Q 738 2294 1138 2561 
Q 1538 2828 1978 2828 
Q 2266 2828 2495 2689 
Q 2725 2550 2725 2278 
Q 2725 2103 2623 1979 
Q 2522 1856 2350 1856 
Q 2247 1856 2176 1920 
Q 2106 1984 2106 2088 
Q 2106 2238 2215 2344 
Q 2325 2450 2472 2450 
L 2484 2450 
Q 2409 2559 2267 2611 
Q 2125 2663 1972 2663 
Q 1597 2663 1315 2342 
Q 1034 2022 892 1576 
Q 750 1131 750 763 
z
" transform="scale(0.015625)"/>
     </defs>
     <use xlink:href="#Cmmi10-63" transform="translate(0 0.8125)"/>
    </g>
   </g>
   <g id="text_4">
    <!-- $\bar{c}$ -->
    <g transform="translate(235.76 28.6) scale(0.28 -0.28)">
     <use xlink:href="#Cmr10-b9" transform="translate(1.912598 2.015625)"/>
     <use xlink:href="#Cmmi10-63" transform="translate(0 0.84375)"/>
    </g>
   </g>
   <g id="text_5">
    <!-- $\bar{b}$ -->
    <g transform="translate(15.58 71.8) scale(0.28 -0.28)">
     <defs>
      <path id="Cmmi10-62" d="M 1106 -72 
Q 719 -72 503 231 
Q 288 534 288 941 
Q 288 1000 317 1173 
Q 347 1347 347 1388 
L 966 3872 
Q 991 3981 997 4044 
Q 997 4147 581 4147 
Q 519 4147 519 4231 
Q 522 4247 533 4287 
Q 544 4328 561 4350 
Q 578 4372 609 4372 
L 1472 4441 
Q 1550 4441 1550 4359 
L 1075 2472 
Q 1438 2828 1806 2828 
Q 2078 2828 2273 2684 
Q 2469 2541 2566 2306 
Q 2663 2072 2663 1806 
Q 2663 1497 2542 1167 
Q 2422 838 2209 555 
Q 1997 272 1712 100 
Q 1428 -72 1106 -72 
z
M 1119 97 
Q 1338 97 1528 280 
Q 1719 463 1838 691 
Q 1966 947 2077 1386 
Q 2188 1825 2188 2088 
Q 2188 2316 2092 2489 
Q 1997 2663 1791 2663 
Q 1559 2663 1348 2492 
Q 1138 2322 978 2088 
L 800 1363 
Q 697 959 691 716 
Q 691 475 795 286 
Q 900 97 1119 97 
z
" transform="scale(0.015625)"/>
     </defs>
     <use xlink:href="#Cmr10-b9" transform="translate(1.839355 27.015625)"/>
     <use xlink:href="#Cmmi10-62" transform="translate(0 0.640625)"/>
    </g>
   </g>
   <g id="text_6">
    <!-- $d$ -->
    <g transform="translate(14.18 158.2) scale(0.28 -0.28)">
     <use xlink:href="#Cmmi10-64" transform="translate(0 0.609375)"/>
    </g>
   </g>
   <g id="text_7">
    <!-- $B^0$ -->
    <g transform="translate(-0.78 115) scale(0.28 -0.28)">
     <defs>
      <path id="Cmmi10-42" d="M 319 0 
Q 256 0 256 84 
Q 259 100 268 137 
Q 278 175 293 200 
Q 309 225 341 225 
Q 522 225 656 234 
Q 791 244 884 269 
Q 959 297 1006 441 
L 1881 3956 
Q 1894 4019 1894 4044 
Q 1894 4113 1819 4122 
Q 1697 4147 1356 4147 
Q 1294 4147 1294 4231 
Q 1297 4247 1306 4286 
Q 1316 4325 1333 4348 
Q 1350 4372 1375 4372 
L 3669 4372 
Q 3878 4372 4083 4320 
Q 4288 4269 4461 4156 
Q 4634 4044 4736 3876 
Q 4838 3709 4838 3488 
Q 4838 3247 4714 3040 
Q 4591 2834 4395 2681 
Q 4200 2528 3973 2429 
Q 3747 2331 3500 2284 
Q 3675 2284 3854 2215 
Q 4034 2147 4175 2028 
Q 4316 1909 4402 1743 
Q 4488 1578 4488 1388 
Q 4488 1003 4219 684 
Q 3950 366 3542 183 
Q 3134 0 2753 0 
L 319 0 
z
M 1497 275 
Q 1497 225 1716 225 
L 2631 225 
Q 2944 225 3231 398 
Q 3519 572 3692 859 
Q 3866 1147 3866 1459 
Q 3866 1650 3786 1820 
Q 3706 1991 3556 2089 
Q 3406 2188 3213 2188 
L 1966 2188 
L 1522 416 
Q 1497 328 1497 275 
z
M 2009 2356 
L 2981 2356 
Q 3288 2356 3577 2512 
Q 3866 2669 4048 2937 
Q 4231 3206 4231 3506 
Q 4231 3784 4057 3965 
Q 3884 4147 3609 4147 
L 2731 4147 
Q 2559 4147 2500 4115 
Q 2441 4084 2400 3928 
L 2009 2356 
z
" transform="scale(0.015625)"/>
      <path id="Cmr10-30" d="M 1600 -141 
Q 816 -141 533 504 
Q 250 1150 250 2041 
Q 250 2597 351 3087 
Q 453 3578 754 3920 
Q 1056 4263 1600 4263 
Q 2022 4263 2290 4056 
Q 2559 3850 2700 3523 
Q 2841 3197 2892 2823 
Q 2944 2450 2944 2041 
Q 2944 1491 2842 1011 
Q 2741 531 2444 195 
Q 2147 -141 1600 -141 
z
M 1600 25 
Q 1956 25 2131 390 
Q 2306 756 2347 1200 
Q 2388 1644 2388 2144 
Q 2388 2625 2347 3031 
Q 2306 3438 2132 3767 
Q 1959 4097 1600 4097 
Q 1238 4097 1063 3765 
Q 888 3434 847 3029 
Q 806 2625 806 2144 
Q 806 1788 823 1472 
Q 841 1156 916 820 
Q 991 484 1158 254 
Q 1325 25 1600 25 
z
" transform="scale(0.015625)"/>
     </defs>
     <use xlink:href="#Cmmi10-42" transform="translate(0 0.109375)"/>
     <use xlink:href="#Cmr10-30" transform="translate(87.150781 38.373438) scale(0.7)"/>
    </g>
   </g>
   <g id="text_8">
    <!-- $K^0$ -->
    <g transform="translate(252.84 136.6) scale(0.28 -0.28)">
     <defs>
      <path id="Cmmi10-4b" d="M 300 0 
Q 238 0 238 84 
Q 241 100 250 139 
Q 259 178 276 201 
Q 294 225 319 225 
Q 709 225 863 269 
Q 947 297 984 441 
L 1863 3956 
Q 1875 4019 1875 4044 
Q 1875 4113 1797 4122 
Q 1678 4147 1338 4147 
Q 1275 4147 1275 4231 
Q 1297 4313 1309 4342 
Q 1322 4372 1381 4372 
L 3103 4372 
Q 3169 4372 3169 4288 
Q 3166 4272 3156 4234 
Q 3147 4197 3131 4172 
Q 3116 4147 3084 4147 
Q 2694 4147 2541 4103 
Q 2456 4072 2419 3928 
L 1900 1856 
L 4409 3794 
Q 4416 3806 4489 3879 
Q 4563 3953 4563 4025 
Q 4563 4147 4347 4147 
Q 4281 4147 4281 4231 
Q 4294 4281 4301 4309 
Q 4309 4338 4329 4355 
Q 4350 4372 4391 4372 
L 5631 4372 
Q 5666 4372 5681 4347 
Q 5697 4322 5697 4288 
Q 5694 4272 5683 4231 
Q 5672 4191 5655 4169 
Q 5638 4147 5606 4147 
Q 5138 4147 4581 3713 
Q 4578 3709 4572 3707 
Q 4566 3706 4559 3704 
Q 4553 3703 4550 3700 
L 3231 2675 
L 4191 428 
Q 4278 288 4378 256 
Q 4478 225 4684 225 
Q 4750 225 4750 141 
Q 4731 66 4712 33 
Q 4694 0 4641 0 
L 3156 0 
Q 3097 0 3097 84 
Q 3106 150 3118 187 
Q 3131 225 3181 225 
Q 3344 225 3458 258 
Q 3572 291 3572 409 
Q 3572 453 3566 475 
L 2772 2322 
L 1838 1600 
L 1544 416 
Q 1528 338 1528 325 
Q 1528 259 1606 250 
Q 1728 225 2069 225 
Q 2131 225 2131 141 
Q 2109 50 2096 25 
Q 2084 0 2022 0 
L 300 0 
z
" transform="scale(0.015625)"/>
     </defs>
     <use xlink:href="#Cmmi10-4b" transform="translate(0 0.109375)"/>
     <use xlink:href="#Cmr10-30" transform="translate(96.281641 38.373438) scale(0.7)"/>
    </g>
   </g>
   <g id="text_9">
    <!-- $J/\psi$ -->
    <g transform="translate(252.54 45.88) scale(0.28 -0.28)">
     <defs>
      <path id="Cmmi10-4a" d="M 697 384 
Q 759 206 928 115 
Q 1097 25 1294 25 
Q 1494 25 1680 164 
Q 1866 303 1995 512 
Q 2125 722 2175 928 
L 2931 3956 
Q 2938 3981 2939 3993 
Q 2941 4006 2944 4019 
Q 2944 4088 2894 4103 
Q 2725 4147 2209 4147 
Q 2144 4147 2144 4231 
Q 2156 4281 2164 4309 
Q 2172 4338 2192 4355 
Q 2213 4372 2253 4372 
L 3988 4372 
Q 4050 4372 4050 4288 
Q 4025 4147 3969 4147 
Q 3744 4147 3628 4112 
Q 3513 4078 3469 3928 
L 2713 903 
Q 2641 606 2420 367 
Q 2200 128 1897 -6 
Q 1594 -141 1288 -141 
Q 950 -141 695 46 
Q 441 234 441 556 
Q 441 769 556 922 
Q 672 1075 884 1075 
Q 1006 1075 1089 1000 
Q 1172 925 1172 806 
Q 1172 634 1044 506 
Q 916 378 744 378 
Q 709 378 697 384 
z
" transform="scale(0.015625)"/>
      <path id="Cmmi10-3d" d="M 359 -1472 
Q 359 -1453 366 -1447 
L 2591 4722 
Q 2603 4759 2634 4779 
Q 2666 4800 2706 4800 
Q 2763 4800 2798 4765 
Q 2834 4731 2834 4672 
L 2834 4647 
L 609 -1522 
Q 572 -1600 488 -1600 
Q 434 -1600 396 -1562 
Q 359 -1525 359 -1472 
z
" transform="scale(0.015625)"/>
      <path id="Cmmi10-c3" d="M 1522 -1247 
L 1825 -56 
Q 1547 -56 1286 48 
Q 1025 153 864 356 
Q 703 559 703 850 
Q 703 1016 762 1228 
Q 822 1441 889 1619 
Q 956 1797 1069 2088 
Q 1153 2322 1153 2472 
Q 1153 2663 1013 2663 
Q 759 2663 595 2402 
Q 431 2141 353 1819 
Q 341 1778 300 1778 
L 225 1778 
Q 172 1778 172 1838 
L 172 1856 
Q 275 2238 487 2533 
Q 700 2828 1025 2828 
Q 1253 2828 1411 2678 
Q 1569 2528 1569 2297 
Q 1569 2178 1516 2047 
Q 1403 1756 1337 1584 
Q 1272 1413 1212 1195 
Q 1153 978 1153 806 
Q 1153 494 1348 322 
Q 1544 150 1863 109 
L 2938 4403 
Q 2950 4441 2988 4441 
L 3066 4441 
Q 3116 4441 3116 4378 
L 2047 97 
L 2119 97 
Q 2388 97 2686 256 
Q 2984 416 3229 675 
Q 3475 934 3619 1232 
Q 3763 1531 3763 1791 
Q 3763 1984 3700 2092 
Q 3638 2200 3538 2317 
Q 3438 2434 3438 2503 
Q 3438 2628 3541 2731 
Q 3644 2834 3769 2834 
Q 3922 2834 3989 2693 
Q 4056 2553 4056 2375 
Q 4056 2188 4018 2000 
Q 3981 1813 3916 1556 
Q 3769 972 3303 506 
Q 3144 347 2951 214 
Q 2759 81 2545 4 
Q 2331 -72 2113 -72 
L 2009 -72 
L 1709 -1275 
Q 1697 -1313 1656 -1313 
L 1581 -1313 
Q 1556 -1313 1539 -1292 
Q 1522 -1272 1522 -1247 
z
" transform="scale(0.015625)"/>
     </defs>
     <use xlink:href="#Cmmi10-4a"/>
     <use xlink:href="#Cmmi10-3d" transform="translate(55.419922 0)"/>
     <use xlink:href="#Cmmi10-c3" transform="translate(105.419922 0)"/>
    </g>
   </g>
   <g id="line2d_1">
    <path d="M 86.4 64.8 
L 34.56 64.8 
L 34.56 64.8 
" clip-path="url(#p54445dc44e)" style="fill: none; stroke: #000000; stroke-width: 2"/>
   </g>
   <g id="line2d_2">
    <path d="M 112.32 69.12 
L 86.4 64.8 
L 86.4 64.8 
" clip-path="url(#p54445dc44e)" style="fill: none; stroke: #000000; stroke-width: 2"/>
   </g>
   <g id="line2d_3">
    <path d="M 146.88 73.44 
L 112.32 69.12 
L 112.32 69.12 
" clip-path="url(#p54445dc44e)" style="fill: none; stroke: #000000; stroke-width: 2"/>
   </g>
   <g id="line2d_4">
    <path d="M 172.8 77.76 
L 146.88 73.44 
L 146.88 73.44 
" clip-path="url(#p54445dc44e)" style="fill: none; stroke: #000000; stroke-width: 2"/>
   </g>
   <g id="line2d_5">
    <path d="M 112.32 69.12 
L 113.804316 67.758151 
L 115.056534 66.19443 
L 116.042862 64.476029 
L 116.73898 62.655646 
L 117.130896 60.789614 
L 117.21545 58.935886 
L 117.000426 57.151981 
L 116.504271 55.492929 
L 115.755444 54.009318 
L 114.791398 52.745487 
L 113.65725 51.737953 
L 112.404171 51.014105 
L 111.087567 50.591234 
L 109.765107 50.475916 
L 108.494668 50.663774 
L 107.332272 51.139642 
L 106.330099 51.878095 
L 105.534622 52.844363 
L 104.984954 53.995564 
L 104.71146 55.28223 
L 104.734669 56.650073 
L 105.064549 58.041914 
L 105.700147 59.399718 
L 106.629629 60.666664 
L 107.830695 61.789164 
L 109.271378 62.718775 
L 110.911178 63.413917 
L 112.702507 63.841363 
L 114.592382 63.977414 
L 116.524312 63.808745 
L 118.440307 63.332882 
L 120.282947 62.558285 
L 121.997422 61.504052 
L 123.533485 60.199236 
L 124.84724 58.681813 
L 125.902708 56.997325 
L 126.673105 55.197266 
L 127.141796 53.337241 
L 127.302887 51.474992 
L 127.161436 49.66834 
L 126.733272 47.973127 
L 126.044433 46.441226 
L 125.130236 45.118697 
L 124.034023 44.044145 
L 122.805615 43.247346 
L 121.499539 42.748189 
L 120.17309 42.555964 
L 118.884286 42.669035 
L 117.689805 43.074896 
L 116.642966 43.750617 
L 115.791834 44.663658 
L 115.177505 45.773034 
L 114.832643 47.030768 
L 114.780321 48.383599 
L 115.033193 49.774883 
L 115.59305 51.146606 
L 116.450754 52.44145 
L 117.58656 53.604835 
L 118.970825 54.586861 
L 120.565057 55.344085 
L 122.323291 55.841067 
L 124.193722 56.051632 
L 126.120552 55.959803 
L 128.045972 55.56037 
L 129.912225 54.859073 
L 131.663662 53.872399 
L 133.24872 52.626997 
L 134.621759 51.158725 
L 135.744688 49.511379 
L 136.588322 47.735127 
L 137.133418 45.884728 
L 137.371362 44.017582 
L 137.304476 42.191684 
L 136.945935 40.46356 
L 136.319297 38.886256 
L 135.457666 37.507448 
L 134.40251 36.367744 
L 133.202191 35.499242 
L 131.910235 34.924381 
L 130.583433 34.655148 
L 129.279816 34.692647 
L 128.05659 35.027064 
L 126.968099 35.638012 
L 126.063889 36.495259 
L 125.386945 37.559804 
L 124.972162 38.785266 
L 124.8451 40.119534 
L 125.021077 41.506625 
L 125.504621 42.888675 
L 126.289309 44.207997 
L 127.357997 45.40914 
L 128.683431 46.440859 
L 130.229215 47.257942 
L 131.951107 47.822819 
L 133.798598 48.106897 
L 135.716703 48.091582 
L 137.647928 47.768939 
L 139.534307 47.141974 
L 141.319475 46.22453 
L 142.950667 45.040788 
L 144.380601 43.624414 
L 145.569163 42.017353 
L 146.484827 40.26834 
L 147.105788 38.431166 
L 147.420732 36.562758 
L 147.429237 34.721156 
L 147.141796 32.963446 
L 146.579434 31.343727 
L 145.772967 29.911185 
L 144.7619 28.708341 
L 143.593023 27.769541 
L 142.318746 27.119728 
L 140.995228 26.773555 
L 139.680385 26.734868 
L 138.431821 26.996564 
L 137.304782 27.540844 
L 136.350187 28.339852 
L 135.612815 29.356658 
L 135.129713 30.546583 
L 134.928872 31.85878 
L 135.028238 33.238052 
L 135.435065 34.626812 
L 136.145663 35.967137 
L 137.145526 37.202825 
L 138.409848 38.281404 
L 139.90441 39.155992 
L 141.586795 39.786972 
L 143.407899 40.143397 
L 145.313677 40.204099 
L 147.247073 39.958434 
L 149.150046 39.406671 
L 150.965637 38.559971 
L 152.64 37.44 
L 154.124316 36.078151 
L 155.376534 34.51443 
L 156.362862 32.796029 
L 157.05898 30.975646 
L 157.450896 29.109614 
L 157.53545 27.255886 
L 157.320426 25.471981 
L 156.824271 23.812929 
L 156.075444 22.329318 
L 155.111398 21.065487 
L 153.97725 20.057953 
L 152.724171 19.334105 
L 151.407567 18.911234 
L 150.085107 18.795916 
L 148.814668 18.983774 
L 147.652272 19.459642 
L 146.650099 20.198095 
L 145.854622 21.164363 
L 145.304954 22.315564 
L 145.03146 23.60223 
L 145.054669 24.970073 
L 145.384549 26.361914 
L 146.020147 27.719718 
L 146.949629 28.986664 
L 148.150695 30.109164 
L 149.591378 31.038775 
L 151.231178 31.733917 
L 153.022507 32.161363 
L 154.912382 32.297414 
L 156.844312 32.128745 
L 158.760307 31.652882 
L 160.602947 30.878285 
L 162.317422 29.824052 
L 163.853485 28.519236 
L 165.16724 27.001813 
L 166.222708 25.317325 
L 166.993105 23.517266 
L 167.461796 21.657241 
L 167.622887 19.794992 
L 167.481436 17.98834 
L 167.053272 16.293127 
L 166.364433 14.761226 
L 165.450236 13.438697 
L 164.354023 12.364145 
L 163.125615 11.567346 
L 161.819539 11.068189 
L 160.49309 10.875964 
L 159.204286 10.989035 
L 158.009805 11.394896 
L 156.962966 12.070617 
L 156.111834 12.983658 
L 155.497505 14.093034 
L 155.152643 15.350768 
L 155.100321 16.703599 
L 155.353193 18.094883 
L 155.91305 19.466606 
L 156.770754 20.76145 
L 157.90656 21.924835 
L 159.290825 22.906861 
L 160.885057 23.664085 
L 162.643291 24.161067 
L 164.513722 24.371632 
L 166.440552 24.279803 
L 168.365972 23.88037 
L 170.232225 23.179073 
L 171.983662 22.192399 
L 172.8 21.6 
L 172.8 21.6 
" clip-path="url(#p54445dc44e)" style="fill: none; stroke: #000000; stroke-width: 2"/>
   </g>
   <g id="line2d_6">
    <path d="M 146.88 73.44 
L 148.042284 72.561031 
L 149.089064 71.552926 
L 150.003258 70.433294 
L 150.770441 69.221981 
L 151.379139 67.940673 
L 151.821052 66.612457 
L 152.091228 65.261363 
L 152.188156 63.911878 
L 152.113801 62.588458 
L 151.873562 61.315035 
L 151.476165 60.11454 
L 150.933485 59.00844 
L 150.260314 58.01631 
L 149.474058 57.15544 
L 148.594392 56.440487 
L 147.642863 55.883182 
L 146.642461 55.492097 
L 145.617153 55.272466 
L 144.591408 55.22609 
L 143.589704 55.351294 
L 142.636034 55.64296 
L 141.75343 56.092635 
L 140.963499 56.688696 
L 140.28599 57.416587 
L 139.738395 58.259104 
L 139.335604 59.196748 
L 139.089602 60.208112 
L 139.00923 61.270309 
L 139.100007 62.359434 
L 139.364021 63.451043 
L 139.799887 64.52064 
L 140.402771 65.544172 
L 141.164492 66.498508 
L 142.073684 67.361906 
L 143.116023 68.114448 
L 144.274516 68.738438 
L 145.529839 69.218758 
L 146.860728 69.543171 
L 148.244403 69.702565 
L 149.657026 69.691141 
L 151.074178 69.50652 
L 152.47135 69.1498 
L 153.824431 68.62553 
L 155.110198 67.941616 
L 156.306776 67.109167 
L 157.394077 66.142272 
L 158.354207 65.057713 
L 159.17182 63.874633 
L 159.834429 62.614152 
L 160.332656 61.298939 
L 160.660416 59.952762 
L 160.815047 58.600012 
L 160.797354 57.265209 
L 160.611602 55.972513 
L 160.265422 54.745242 
L 159.769665 53.6054 
L 159.138179 52.573238 
L 158.387536 51.66685 
L 157.536697 50.901804 
L 156.60663 50.290838 
L 155.619894 49.843597 
L 154.600184 49.566443 
L 153.571856 49.462331 
L 152.559438 49.530741 
L 151.58714 49.767696 
L 150.678367 50.165841 
L 149.855251 50.714585 
L 149.138205 51.40032 
L 148.545515 52.206689 
L 148.092976 53.114917 
L 147.793569 54.104187 
L 147.657207 55.152055 
L 147.690531 56.234904 
L 147.896782 57.328414 
L 148.275732 58.408053 
L 148.823689 59.449565 
L 149.533575 60.42946 
L 150.395061 61.325482 
L 151.39478 62.117061 
L 152.516595 62.785715 
L 153.741916 63.315432 
L 155.050082 63.692985 
L 156.418768 63.908197 
L 157.824436 63.954147 
L 159.242808 63.827308 
L 160.649348 63.527619 
L 162.01976 63.058483 
L 163.330472 62.426703 
L 164.559108 61.642343 
L 165.684939 60.718525 
L 166.689297 59.671169 
L 167.55595 58.518672 
L 168.271427 57.28154 
L 168.82529 55.981974 
L 169.210339 54.64343 
L 169.422762 53.290143 
L 169.462206 51.946645 
L 169.331789 50.637271 
L 169.038035 49.385672 
L 168.590741 48.214342 
L 168.002785 47.144162 
L 167.289865 46.193988 
L 166.470185 45.380267 
L 165.564091 44.716712 
L 164.593658 44.214023 
L 163.582256 43.879676 
L 162.554074 43.717768 
L 161.533636 43.728943 
L 160.545315 43.91037 
L 159.612835 44.255806 
L 158.758805 44.755718 
L 158.004258 45.397477 
L 157.368231 46.165609 
L 156.867388 47.042104 
L 156.515679 48.006782 
L 156.324066 49.037693 
L 156.300298 50.111559 
L 156.44876 51.204242 
L 156.770384 52.291223 
L 157.262627 53.348101 
L 157.919527 54.351079 
L 158.73182 55.277437 
L 159.687124 56.105994 
L 160.770191 56.817531 
L 161.963212 57.395174 
L 163.246171 57.824735 
L 164.597248 58.094994 
L 165.99326 58.197926 
L 167.41012 58.128862 
L 168.823326 57.886581 
L 170.208445 57.473338 
L 171.541612 56.894812 
L 172.8 56.16 
L 172.8 56.16 
" clip-path="url(#p54445dc44e)" style="fill: none; stroke: #000000; stroke-width: 2"/>
   </g>
   <g id="line2d_7">
    <path d="M 86.4 64.8 
L 91.138058 66.458649 
L 96.086783 68.148776 
L 96.751071 68.555564 
L 96.865057 68.744902 
L 96.830469 68.930378 
L 96.31917 69.306648 
L 95.245817 69.717241 
L 90.577126 71.069094 
L 85.726182 72.597145 
L 82.154177 73.98077 
L 80.064822 74.974151 
L 78.352563 75.984651 
L 77.11688 76.972409 
L 76.430048 77.895755 
L 76.306583 78.320592 
L 76.333162 78.714613 
L 76.509699 79.073617 
L 76.834001 79.393921 
L 77.906853 79.906783 
L 79.494288 80.23713 
L 81.51076 80.381657 
L 83.847802 80.350874 
L 87.678508 80.032928 
L 92.687758 79.325716 
L 97.403934 78.621302 
L 98.511146 78.587896 
L 99.096197 78.775276 
L 99.188658 78.964194 
L 99.149368 79.221467 
L 98.691803 79.949588 
L 97.164973 81.578292 
L 90.402449 88.346945 
L 87.968752 91.207693 
L 86.682142 92.996327 
L 85.766837 94.594338 
L 85.28607 95.928099 
L 85.277532 96.936916 
L 85.454722 97.305098 
L 85.751795 97.577249 
L 86.16584 97.751145 
L 86.692342 97.825975 
L 88.057157 97.682478 
L 89.781757 97.169406 
L 91.783442 96.332004 
L 95.094013 94.61645 
L 99.541212 91.938647 
L 104.765356 88.727229 
L 105.851207 88.248004 
L 106.554996 88.181669 
L 106.76313 88.31631 
L 106.87798 88.56659 
L 106.843472 89.415313 
L 106.494775 90.713266 
L 105.10804 94.466307 
L 102.893087 100.46173 
L 101.79615 104.095926 
L 101.309459 106.287406 
L 101.079545 108.166037 
L 101.14038 109.639338 
L 101.508017 110.63624 
L 101.806925 110.940807 
L 102.180367 111.111519 
L 102.625391 111.147252 
L 103.138075 111.048782 
L 104.346392 110.461814 
L 105.757902 109.39418 
L 107.315904 107.917095 
L 109.791034 105.147052 
L 113.021698 101.047197 
L 116.890468 96.105405 
L 117.794983 95.231862 
L 118.493113 94.87678 
L 118.767882 94.906618 
L 118.996277 95.077703 
L 119.327389 95.840442 
L 119.518738 97.138483 
L 119.630233 99.955492 
L 119.816055 108.769803 
L 120.162815 112.448663 
L 120.542743 114.534897 
L 121.050809 116.1957 
L 121.684037 117.342809 
L 122.044225 117.703733 
L 122.430687 117.916106 
L 122.840819 117.977391 
L 123.271676 117.887157 
L 123.720033 117.647084 
L 124.655419 116.734567 
L 125.618466 115.294055 
L 126.580973 113.409238 
L 127.968851 109.991579 
L 129.620615 105.029054 
L 131.591846 98.957848 
L 132.147661 97.773902 
L 132.683727 97.142847 
L 132.951609 97.046793 
L 133.223381 97.099351 
L 133.501991 97.299582 
L 134.090845 98.128733 
L 134.738167 99.485297 
L 136.261955 103.438519 
L 138.614268 109.466759 
L 140.191701 112.837269 
L 141.261344 114.703742 
L 142.308257 116.135912 
L 143.298521 117.049292 
L 143.761998 117.292911 
L 144.199171 117.388551 
L 144.6065 117.334345 
L 144.98083 117.130524 
L 145.319459 116.779409 
L 145.881474 115.654766 
L 146.282338 114.018572 
L 146.522437 111.956989 
L 146.609798 108.310385 
L 146.450293 104.386482 
L 145.928027 95.927554 
L 146.048036 94.843609 
L 146.360321 94.297173 
L 146.59904 94.230052 
L 146.896901 94.298763 
L 147.677149 94.827285 
L 148.705799 95.83159 
L 151.44825 98.9339 
L 154.851095 102.755503 
L 157.554973 105.495633 
L 159.295449 107.037095 
L 160.899296 108.230924 
L 162.296294 108.997911 
L 163.425046 109.284176 
L 163.8731 109.23782 
L 164.237168 109.06385 
L 164.513817 108.763571 
L 164.70082 108.340072 
L 164.803363 107.144277 
L 164.552924 105.533835 
L 163.978739 103.588206 
L 163.130201 101.40387 
L 161.494342 97.916422 
L 159.090712 93.454222 
L 156.797742 89.261975 
L 156.383127 88.231198 
L 156.355342 87.615147 
L 156.499561 87.462386 
L 156.753187 87.409914 
L 157.591113 87.587463 
L 159.640843 88.4576 
L 167.109778 91.945612 
L 170.697569 93.346335 
L 172.933458 94.044416 
L 174.912122 94.48291 
L 176.532545 94.620886 
L 177.711743 94.437196 
L 178.116207 94.22367 
L 178.39005 93.930945 
L 178.530117 93.561935 
L 178.535126 93.120649 
L 178.405708 92.612097 
L 177.755703 91.417619 
L 176.623035 90.034388 
L 175.078878 88.526532 
L 173.218956 86.961875 
L 170.092463 84.653465 
L 165.980495 81.947186 
L 162.357678 79.573486 
L 161.708509 78.974846 
L 161.610853 78.558648 
L 161.776571 78.410311 
L 162.534328 78.210671 
L 164.666137 78.074752 
L 172.8 77.76 
L 172.8 77.76 
" clip-path="url(#p54445dc44e)" style="fill: none; stroke: #000000; stroke-width: 2"/>
   </g>
   <g id="line2d_8">
    <path d="M 228.96 108 
L 172.8 77.76 
L 172.8 77.76 
" clip-path="url(#p54445dc44e)" style="fill: none; stroke: #000000; stroke-width: 2"/>
   </g>
   <g id="line2d_9">
    <path d="M 172.8 56.16 
L 228.96 64.8 
L 228.96 64.8 
" clip-path="url(#p54445dc44e)" style="fill: none; stroke: #000000; stroke-width: 2"/>
   </g>
   <g id="line2d_10">
    <path d="M 228.96 21.6 
L 172.8 21.6 
L 172.8 21.6 
" clip-path="url(#p54445dc44e)" style="fill: none; stroke: #000000; stroke-width: 2"/>
   </g>
   <g id="line2d_11">
    <path d="M 172.8 56.16 
L 172.8 21.6 
L 172.8 21.6 
" clip-path="url(#p54445dc44e)" style="fill: none; stroke: #000000; stroke-width: 2"/>
   </g>
   <g id="line2d_12">
    <path d="M 34.56 151.2 
L 228.96 151.2 
L 228.96 151.2 
" clip-path="url(#p54445dc44e)" style="fill: none; stroke: #000000; stroke-width: 2"/>
   </g>
   <g id="patch_2">
    <path d="M 49.615038 64.8 
L 60.415038 69.12 
L 58.471038 64.8 
L 60.415038 60.48 
z
" clip-path="url(#p54445dc44e)" style="stroke: #000000; stroke-linejoin: miter"/>
   </g>
   <g id="patch_3">
    <path d="M 191.300536 87.721827 
L 198.761513 96.64574 
L 199.097988 91.920455 
L 202.857735 89.03847 
z
" clip-path="url(#p54445dc44e)" style="stroke: #000000; stroke-linejoin: miter"/>
   </g>
   <g id="patch_4">
    <path d="M 211.62479 62.133045 
L 201.607263 56.221061 
L 202.871771 60.786426 
L 200.293489 64.760593 
z
" clip-path="url(#p54445dc44e)" style="stroke: #000000; stroke-linejoin: miter"/>
   </g>
   <g id="patch_5">
    <path d="M 190.009624 21.6 
L 200.809624 25.92 
L 198.865624 21.6 
L 200.809624 17.28 
z
" clip-path="url(#p54445dc44e)" style="stroke: #000000; stroke-linejoin: miter"/>
   </g>
   <g id="patch_6">
    <path d="M 172.8 28.036692 
L 168.48 38.836692 
L 172.8 36.892692 
L 177.12 38.836692 
z
" clip-path="url(#p54445dc44e)" style="stroke: #000000; stroke-linejoin: miter"/>
   </g>
   <g id="patch_7">
    <path d="M 142.803609 151.2 
L 132.003609 146.88 
L 133.947609 151.2 
L 132.003609 155.52 
z
" clip-path="url(#p54445dc44e)" style="stroke: #000000; stroke-linejoin: miter"/>
   </g>
   <g id="line2d_13"/>
   <g id="line2d_14"/>
   <g id="line2d_15">
    <defs>
     <path id="m4ff9bfaf29" d="M 0 4 
C 1.060812 4 2.078319 3.578535 2.828427 2.828427 
C 3.578535 2.078319 4 1.060812 4 0 
C 4 -1.060812 3.578535 -2.078319 2.828427 -2.828427 
C 2.078319 -3.578535 1.060812 -4 0 -4 
C -1.060812 -4 -2.078319 -3.578535 -2.828427 -2.828427 
C -3.578535 -2.078319 -4 -1.060812 -4 0 
C -4 1.060812 -3.578535 2.078319 -2.828427 2.828427 
C -2.078319 3.578535 -1.060812 4 0 4 
z
" style="stroke: #000000"/>
    </defs>
    <g clip-path="url(#p54445dc44e)">
     <use xlink:href="#m4ff9bfaf29" x="86.4" y="64.8" style="stroke: #000000"/>
    </g>
   </g>
   <g id="line2d_16">
    <g clip-path="url(#p54445dc44e)">
     <use xlink:href="#m4ff9bfaf29" x="172.8" y="77.76" style="stroke: #000000"/>
    </g>
   </g>
   <g id="line2d_17">
    <defs>
     <path id="m9ef07a6815" d="M 0 2 
C 0.530406 2 1.03916 1.789267 1.414214 1.414214 
C 1.789267 1.03916 2 0.530406 2 0 
C 2 -0.530406 1.789267 -1.03916 1.414214 -1.414214 
C 1.03916 -1.789267 0.530406 -2 0 -2 
C -0.530406 -2 -1.03916 -1.789267 -1.414214 -1.414214 
C -1.789267 -1.03916 -2 -0.530406 -2 0 
C -2 0.530406 -1.789267 1.03916 -1.414214 1.414214 
C -1.03916 1.789267 -0.530406 2 0 2 
z
" style="stroke: #000000"/>
    </defs>
    <g clip-path="url(#p54445dc44e)">
     <use xlink:href="#m9ef07a6815" x="112.32" y="69.12" style="stroke: #000000"/>
    </g>
   </g>
   <g id="line2d_18">
    <g clip-path="url(#p54445dc44e)">
     <use xlink:href="#m9ef07a6815" x="146.88" y="73.44" style="stroke: #000000"/>
    </g>
   </g>
   <g id="line2d_19"/>
   <g id="line2d_20"/>
   <g id="line2d_21"/>
   <g id="line2d_22"/>
   <g id="line2d_23"/>
   <g id="line2d_24"/>
  </g>
 </g>
 <defs>
  <clipPath id="p54445dc44e">
   <rect x="0" y="0" width="302.4" height="172.8"/>
  </clipPath>
 </defs>
</svg>
